<svg xmlns="http://www.w3.org/2000/svg" width="16" height="16"><path d="M 9.0019,1.0 C 8.9584,0.9996 8.9151,1.005 8.873,1.0156 C 7.8963,1.2735 7.221,2.0761 7.0449,3.0117 C 5.1899,3.1019 3.9212,3.7436 3.1328,4.5976 C 2.2817,5.5197 2.0,6.6389 2.0,7.5 C 2.0,7.7761 2.2239,8.0 2.5,8.0 L 3.0117,8.0 C 3.1267,10.5928 4.1265,12.331 5.1367,13.4043 C 6.2105,14.5452 7.3242,14.9688 7.3242,14.9688 C 7.4375,15.0113 7.5625,15.0113 7.6758,14.9688 C 7.6758,14.9688 8.7895,14.5452 9.8633,13.4043 C 10.8734,12.331 11.8733,10.5928 11.9883,8.0 L 12.5,8.0 C 12.7761,8.0 13.0,7.7761 13.0,7.5 C 13.0,6.6389 12.7183,5.5197 11.8672,4.5977 C 11.095,3.7611 9.8619,3.1279 8.0684,3.0176 C 8.2144,2.5183 8.589,2.1264 9.127,1.9844 C 9.3947,1.9146 9.5549,1.6406 9.4844,1.3731 C 9.4268,1.1537 9.2288,1.0005 9.002,1.0 L 9.0019,1.0 M 4.0117,8.0 L 10.9883,8.0 C 10.8781,10.3353 10.0027,11.8006 9.1367,12.7207 C 8.3003,13.6094 7.6478,13.8441 7.5,13.9043 C 7.3522,13.8441 6.6997,13.6094 5.8633,12.7207 C 4.9973,11.8006 4.1219,10.3353 4.0117,8.0 L 4.0117,8.0" fill="#000" /></svg>