<svg xmlns="http://www.w3.org/2000/svg" width="16" height="16"><path d="M 5.5,2.0 C 5.2239,2.0 5.0,2.2239 5.0,2.5 C 5.0,2.7761 5.2239,3.0 5.5,3.0 L 6.0,3.0 L 6.0,4.1758 C 5.7131,4.0609 5.3768,4.0 5.0,4.0 C 4.3333,4.0 3.7801,4.366 3.459,4.8477 C 3.1379,5.3293 3.0,5.9167 3.0,6.5 L 3.0,9.0 C 3.0,10.6667 3.9297,11.5098 4.6797,12.1348 C 5.3264,12.6737 5.8397,13.0516 5.9688,14.0 L 5.5,14.0 C 5.2239,14.0 5.0,14.2239 5.0,14.5 C 5.0,14.7761 5.2239,15.0 5.5,15.0 L 9.5,15.0 C 9.7761,15.0 10.0,14.7761 10.0,14.5 C 10.0,14.2239 9.7761,14.0 9.5,14.0 L 9.0312,14.0 C 9.1603,13.0516 9.6736,12.6737 10.3203,12.1348 C 11.0703,11.5098 12.0,10.6667 12.0,9.0 L 12.0,6.5 C 12.0,5.9167 11.8621,5.3293 11.541,4.8477 C 11.2199,4.366 10.6667,4.0 10.0,4.0 C 9.6232,4.0 9.2869,4.0609 9.0,4.1758 L 9.0,3.0 L 9.5,3.0 C 9.7761,3.0 10.0,2.7761 10.0,2.5 C 10.0,2.2239 9.7761,2.0 9.5,2.0 L 5.5,2.0 M 5.0,5.0 C 5.4167,5.0 5.6809,5.1054 5.8242,5.2129 C 5.9676,5.3204 6.0,5.4167 6.0,5.5 L 6.0,6.5 C 6.0,6.5833 5.9429,6.7251 5.834,6.834 C 5.7251,6.9429 5.5833,7.0 5.5,7.0 C 4.9766,7.0 4.4506,7.1124 4.0,7.3672 L 4.0,6.5 C 4.0,6.0833 4.1121,5.6707 4.291,5.4023 C 4.4699,5.134 4.6667,5.0 5.0,5.0 M 10.0,5.0 C 10.3333,5.0 10.5301,5.134 10.709,5.4023 C 10.8879,5.6707 11.0,6.0833 11.0,6.5 L 11.0,7.3672 C 10.5494,7.1124 10.0234,7.0 9.5,7.0 C 9.4167,7.0 9.2749,6.9429 9.166,6.834 C 9.0571,6.7251 9.0,6.5833 9.0,6.5 L 9.0,5.5 C 9.0,5.4167 9.0324,5.3204 9.1758,5.2129 C 9.3191,5.1054 9.5833,5.0 10.0,5.0" fill="#000" /></svg>