<svg xmlns="http://www.w3.org/2000/svg" width="16" height="16"><path d="M 8.0,1.0078 C 7.7269,1.0078 7.5043,1.2269 7.5,1.5 C 7.5,2.3333 7.1362,2.8826 6.3769,3.3164 C 5.6177,3.7502 4.4444,4.0 3.0,4.0 L 2.5,4.0 C 2.223,4.0 2.0,4.223 2.0,4.5 C 2.0,4.777 2.223,5.0 2.5,5.0 L 3.3066,5.0 L 1.7988,9.5195 C 1.3335,9.6151 0.9996,10.0249 1.0,10.5 C 1.0,11.0523 1.4477,11.5 2.0,11.5 C 2.5523,11.5 3.0,11.0523 3.0,10.5 C 3.0001,10.2553 2.9105,10.019 2.7481,9.8359 L 4.3613,5.0 L 5.418,5.0 L 4.6367,10.0684 C 4.2528,10.2181 4.0,10.5879 4.0,11.0 C 4.0,11.5523 4.4477,12.0 5.0,12.0 C 5.5523,12.0 6.0,11.5523 6.0,11.0 C 5.9996,10.6968 5.8617,10.4102 5.625,10.2207 L 6.4297,5.0 L 7.0,5.0 L 7.0,13.0 L 2.5,13.0 C 2.2239,13.0 2.0,13.2239 2.0,13.5 C 2.0,13.7761 2.2239,14.0 2.5,14.0 L 13.5,14.0 C 13.7761,14.0 14.0,13.7761 14.0,13.5 C 14.0,13.2239 13.7761,13.0 13.5,13.0 L 9.0,13.0 L 9.0,5.0 L 9.5703,5.0 L 10.375,10.2207 C 10.1383,10.4102 10.0004,10.6968 10.0,11.0 C 10.0,11.5523 10.4477,12.0 11.0,12.0 C 11.5523,12.0 12.0,11.5523 12.0,11.0 C 12.0,10.5879 11.7472,10.2181 11.3633,10.0684 L 10.582,5.0 L 11.6387,5.0 L 13.252,9.8359 C 13.0895,10.019 12.9999,10.2553 13.0,10.5 C 13.0,11.0523 13.4477,11.5 14.0,11.5 C 14.5523,11.5 15.0,11.0523 15.0,10.5 C 15.0004,10.0249 14.6665,9.6151 14.2012,9.5195 L 12.6934,5.0 L 13.5,5.0 C 13.777,5.0 14.0,4.777 14.0,4.5 C 14.0,4.223 13.777,4.0 13.5,4.0 L 13.0,4.0 C 11.5556,4.0 10.3823,3.7502 9.6231,3.3164 C 8.8638,2.8826 8.5,2.3333 8.5,1.5 C 8.496,1.2269 8.2731,1.0078 8.0,1.0078" fill="#000" /></svg>