<svg xmlns="http://www.w3.org/2000/svg" width="16" height="16"><path d="M 7.9375,1.0 C 7.6972,1.0303 7.4981,1.2578 7.5,1.5 C 7.5,2.3333 7.1342,2.8786 6.375,3.3125 C 5.6158,3.7464 4.4444,4.0 3.0,4.0 L 2.5,4.0 C 2.223,4.0 2.0,4.223 2.0,4.5 C 2.0,4.777 2.223,5.0 2.5,5.0 L 3.3438,5.0 L 1.7812,10.0 L 1.5,10.0 C 1.2317,10.0 1.0,10.223 1.0,10.5 L 1.0,11.5 C 1.0,11.777 1.2317,12.0 1.5,12.0 L 2.5,12.0 C 2.7683,12.0 3.0,11.777 3.0,11.5 L 3.0,10.5 C 3.0,10.3269 2.91,10.1834 2.7812,10.0938 L 4.375,5.0 L 5.4062,5.0 L 4.6562,10.0 L 4.5,10.0 C 4.2317,10.0 4.0,10.223 4.0,10.5 L 4.0,11.5 C 4.0,11.777 4.2317,12.0 4.5,12.0 L 5.5,12.0 C 5.7683,12.0 6.0,11.777 6.0,11.5 L 6.0,10.5 C 6.0,10.2729 5.8565,10.0926 5.6562,10.0312 L 6.4375,5.0 L 7.0,5.0 L 7.0,13.0 L 2.5,13.0 C 2.223,13.0 2.0,13.223 2.0,13.5 C 2.0,13.777 2.223,14.0 2.5,14.0 L 13.5,14.0 C 13.777,14.0 14.0,13.777 14.0,13.5 C 14.0,13.223 13.777,13.0 13.5,13.0 L 9.0,13.0 L 9.0,5.0 L 9.5625,5.0 L 10.3438,10.0312 C 10.1435,10.0926 10.0,10.2729 10.0,10.5 L 10.0,11.5 C 10.0,11.777 10.2317,12.0 10.5,12.0 L 11.5,12.0 C 11.7683,12.0 12.0,11.777 12.0,11.5 L 12.0,10.5 C 12.0,10.223 11.7683,10.0 11.5,10.0 L 11.3438,10.0 L 10.5938,5.0 L 11.625,5.0 L 13.2188,10.0938 C 13.09,10.1834 13.0,10.3269 13.0,10.5 L 13.0,11.5 C 13.0,11.777 13.2317,12.0 13.5,12.0 L 14.5,12.0 C 14.7683,12.0 15.0,11.777 15.0,11.5 L 15.0,10.5 C 15.0,10.223 14.7683,10.0 14.5,10.0 L 14.2188,10.0 L 12.6562,5.0 L 13.5,5.0 C 13.777,5.0 14.0,4.777 14.0,4.5 C 14.0,4.223 13.777,4.0 13.5,4.0 L 13.0,4.0 C 11.5556,4.0 10.3842,3.7464 9.625,3.3125 C 8.8658,2.8786 8.5,2.3333 8.5,1.5 C 8.502,1.216 8.2193,0.9645 7.9375,1.0" fill="#000" /></svg>