<svg xmlns="http://www.w3.org/2000/svg" width="16" height="16"><path d="M 3.0,2.5 L 3.0,12.5 C 3.0,12.7761 3.2239,13.0 3.5,13.0 L 9.0,13.0 L 9.0,10.5 C 9.0,10.223 9.223,10.0 9.5,10.0 L 10.5,10.0 C 10.777,10.0 11.0,10.223 11.0,10.5 L 11.0,13.0 L 12.5,13.0 C 12.7761,13.0 13.0,12.7761 13.0,12.5 L 13.0,6.5 C 13.0,6.3024 12.8837,6.1233 12.7031,6.043 L 3.7031,2.043 C 3.3856,1.9018 3.0,2.1238 3.0,2.5 M 5.5,8.0 L 6.5,8.0 C 6.777,8.0 7.0,8.223 7.0,8.5 L 7.0,10.5 C 7.0,10.777 6.777,11.0 6.5,11.0 L 5.5,11.0 C 5.223,11.0 5.0,10.777 5.0,10.5 L 5.0,8.5 C 5.0,8.223 5.223,8.0 5.5,8.0" fill="#000" /></svg>