<svg xmlns="http://www.w3.org/2000/svg" width="16" height="16"><path d="M 2.5,1.0 C 2.223,1.0 2.0,1.223 2.0,1.5 C 2.0,1.777 2.223,2.0 2.5,2.0 L 13.5,2.0 C 13.777,2.0 14.0,1.777 14.0,1.5 C 14.0,1.223 13.777,1.0 13.5,1.0 L 2.5,1.0 M 3.0,3.0 L 3.0,7.0 C 2.723,7.0 2.5,7.223 2.5,7.5 C 2.5,7.777 2.723,8.0 3.0,8.0 L 3.0,10.0 C 2.723,10.0 2.5,10.223 2.5,10.5 C 2.5,10.777 2.723,11.0 3.0,11.0 L 3.0,14.5 C 3.0,14.777 3.223,15.0 3.5,15.0 L 9.0,15.0 L 9.0,12.5 C 9.0,12.223 9.223,12.0 9.5,12.0 L 10.5,12.0 C 10.777,12.0 11.0,12.223 11.0,12.5 L 11.0,15.0 L 12.5,15.0 C 12.777,15.0 13.0,14.777 13.0,14.5 L 13.0,11.0 C 13.277,11.0 13.5,10.777 13.5,10.5 C 13.5,10.223 13.277,10.0 13.0,10.0 L 13.0,8.0 C 13.277,8.0 13.5,7.777 13.5,7.5 C 13.5,7.223 13.277,7.0 13.0,7.0 L 13.0,3.0 L 3.0,3.0 M 5.5,5.0 L 6.5,5.0 C 6.777,5.0 7.0,5.223 7.0,5.5 L 7.0,6.5 C 7.0,6.777 6.777,7.0 6.5,7.0 L 5.5,7.0 C 5.223,7.0 5.0,6.777 5.0,6.5 L 5.0,5.5 C 5.0,5.223 5.223,5.0 5.5,5.0 M 9.5,5.0 L 10.5,5.0 C 10.777,5.0 11.0,5.223 11.0,5.5 L 11.0,6.5 C 11.0,6.777 10.777,7.0 10.5,7.0 L 9.5,7.0 C 9.223,7.0 9.0,6.777 9.0,6.5 L 9.0,5.5 C 9.0,5.223 9.223,5.0 9.5,5.0 M 5.5,8.0 L 6.5,8.0 C 6.777,8.0 7.0,8.223 7.0,8.5 L 7.0,9.5 C 7.0,9.777 6.777,10.0 6.5,10.0 L 5.5,10.0 C 5.223,10.0 5.0,9.777 5.0,9.5 L 5.0,8.5 C 5.0,8.223 5.223,8.0 5.5,8.0 M 9.5,8.0 L 10.5,8.0 C 10.777,8.0 11.0,8.223 11.0,8.5 L 11.0,9.5 C 11.0,9.777 10.777,10.0 10.5,10.0 L 9.5,10.0 C 9.223,10.0 9.0,9.777 9.0,9.5 L 9.0,8.5 C 9.0,8.223 9.223,8.0 9.5,8.0 M 5.5,11.0 L 6.5,11.0 C 6.777,11.0 7.0,11.223 7.0,11.5 L 7.0,12.5 C 7.0,12.777 6.777,13.0 6.5,13.0 L 5.5,13.0 C 5.223,13.0 5.0,12.777 5.0,12.5 L 5.0,11.5 C 5.0,11.223 5.223,11.0 5.5,11.0" fill="#000" /></svg>