<svg xmlns="http://www.w3.org/2000/svg" width="16" height="16"><path d="M 7.7051,2.0959 L 2.2051,6.0959 C 1.8134,6.381 2.0155,7.0008 2.5,7.0002 L 3.0,7.0002 L 3.0,12.5002 C 3.0,12.7772 3.223,13.0002 3.5,13.0002 L 9.0,13.0002 L 9.0,10.5002 C 9.0,10.2232 9.223,10.0002 9.5,10.0002 L 10.5,10.0002 C 10.777,10.0002 11.0,10.2232 11.0,10.5002 L 11.0,13.0002 L 12.5,13.0002 C 12.777,13.0002 13.0,12.7772 13.0,12.5002 L 13.0,7.0002 L 13.5,7.0002 C 13.9845,7.0008 14.1866,6.3811 13.7949,6.0959 L 8.2949,2.0959 C 8.1146,1.9639 7.8749,1.9714 7.7051,2.0959 L 7.7051,2.0959 M 5.5,8.0 L 6.5,8.0 C 6.777,8.0 7.0,8.223 7.0,8.5 L 7.0,10.5 C 7.0,10.777 6.777,11.0 6.5,11.0 L 5.5,11.0 C 5.223,11.0 5.0,10.777 5.0,10.5 L 5.0,8.5 C 5.0,8.223 5.223,8.0 5.5,8.0" fill="#000" /></svg>