<svg xmlns="http://www.w3.org/2000/svg" width="16" height="16"><path d="M 3.0,1.5 L 3.0,5.0 C 2.723,5.0 2.5,5.223 2.5,5.5 C 2.5,5.777 2.723,6.0 3.0,6.0 L 3.0,8.0 C 2.723,8.0 2.5,8.223 2.5,8.5 C 2.5,8.777 2.723,9.0 3.0,9.0 L 3.0,11.0 C 2.723,11.0 2.5,11.223 2.5,11.5 C 2.5,11.777 2.723,12.0 3.0,12.0 L 3.0,14.5 C 3.0,14.7761 3.2239,15.0 3.5,15.0 L 9.0,15.0 L 9.0,13.5 C 9.0,13.223 9.223,13.0 9.5,13.0 L 10.5,13.0 C 10.777,13.0 11.0,13.223 11.0,13.5 L 11.0,15.0 L 12.5,15.0 C 12.7761,15.0 13.0,14.7761 13.0,14.5 L 13.0,12.0 C 13.277,12.0 13.5,11.777 13.5,11.5 C 13.5,11.223 13.277,11.0 13.0,11.0 L 13.0,9.0 C 13.277,9.0 13.5,8.777 13.5,8.5 C 13.5,8.223 13.277,8.0 13.0,8.0 L 13.0,6.0 C 13.277,6.0 13.5,5.777 13.5,5.5 C 13.5,5.223 13.277,5.0 13.0,5.0 L 13.0,3.5 C 13.0002,3.2659 12.8378,3.063 12.6094,3.0117 L 3.6094,1.0117 C 3.3323,0.9497 2.9998,1.1485 3.0,1.5 M 5.5,3.0 L 6.5,3.0 C 6.777,3.0 7.0,3.223 7.0,3.5 L 7.0,4.5 C 7.0,4.777 6.777,5.0 6.5,5.0 L 5.5,5.0 C 5.223,5.0 5.0,4.777 5.0,4.5 L 5.0,3.5 C 5.0,3.223 5.223,3.0 5.5,3.0 M 5.5,6.0 L 6.5,6.0 C 6.777,6.0 7.0,6.223 7.0,6.5 L 7.0,7.5 C 7.0,7.777 6.777,8.0 6.5,8.0 L 5.5,8.0 C 5.223,8.0 5.0,7.777 5.0,7.5 L 5.0,6.5 C 5.0,6.223 5.223,6.0 5.5,6.0 M 9.5,6.0 L 10.5,6.0 C 10.777,6.0 11.0,6.223 11.0,6.5 L 11.0,7.5 C 11.0,7.777 10.777,8.0 10.5,8.0 L 9.5,8.0 C 9.223,8.0 9.0,7.777 9.0,7.5 L 9.0,6.5 C 9.0,6.223 9.223,6.0 9.5,6.0 M 5.5,9.0 L 6.5,9.0 C 6.777,9.0 7.0,9.223 7.0,9.5 L 7.0,10.5 C 7.0,10.777 6.777,11.0 6.5,11.0 L 5.5,11.0 C 5.223,11.0 5.0,10.777 5.0,10.5 L 5.0,9.5 C 5.0,9.223 5.223,9.0 5.5,9.0 M 9.5,9.0 L 10.5,9.0 C 10.777,9.0 11.0,9.223 11.0,9.5 L 11.0,10.5 C 11.0,10.777 10.777,11.0 10.5,11.0 L 9.5,11.0 C 9.223,11.0 9.0,10.777 9.0,10.5 L 9.0,9.5 C 9.0,9.223 9.223,9.0 9.5,9.0 M 5.5,12.0 L 6.5,12.0 C 6.777,12.0 7.0,12.223 7.0,12.5 L 7.0,13.5 C 7.0,13.777 6.777,14.0 6.5,14.0 L 5.5,14.0 C 5.223,14.0 5.0,13.777 5.0,13.5 L 5.0,12.5 C 5.0,12.223 5.223,12.0 5.5,12.0" fill="#000" /></svg>