<svg xmlns="http://www.w3.org/2000/svg" width="16" height="16"><path d="M 8.1465,3.1465 C 7.8965,3.3965 7.5772,3.7182 7.3535,4.2402 C 7.2151,4.5633 7.1127,4.9522 7.0547,5.4492 C 6.941,5.4155 6.8498,5.3663 6.7227,5.3027 C 6.4727,5.1777 6.0833,5.0 5.5,5.0 C 4.9167,5.0 4.2643,5.1536 3.7715,5.6465 C 3.2786,6.1393 3.0,6.9167 3.0,8.0 C 3.0,8.8611 3.2629,10.0132 3.7344,11.0234 C 3.9701,11.5286 4.2579,11.9962 4.623,12.3613 C 4.9882,12.7264 5.4583,13.0 6.0,13.0 C 6.5833,13.0 7.038,12.8521 7.3477,12.6973 C 7.4409,12.6507 7.4297,12.6405 7.5,12.5938 C 7.5703,12.6404 7.5591,12.6507 7.6523,12.6973 C 7.962,12.8521 8.4167,13.0 9.0,13.0 C 9.5417,13.0 10.0118,12.7264 10.377,12.3613 C 10.7421,11.9962 11.0299,11.5286 11.2656,11.0234 C 11.7371,10.0132 12.0,8.8611 12.0,8.0 C 12.0,6.9167 11.7214,6.1393 11.2285,5.6465 C 10.7357,5.1536 10.0833,5.0 9.5,5.0 C 8.9167,5.0 8.5273,5.1777 8.2773,5.3027 C 8.1987,5.342 8.1332,5.376 8.0684,5.4043 C 8.1179,5.0696 8.1906,4.8235 8.2715,4.6348 C 8.4228,4.2818 8.6035,4.1035 8.8535,3.8535 C 9.0487,3.6583 9.0487,3.3417 8.8535,3.1465 C 8.6587,2.9516 8.3413,2.9516 8.1465,3.1465" fill="#000" /></svg>