<svg xmlns="http://www.w3.org/2000/svg" width="16" height="16"><path d="M 7.5,1.0 C 7.2239,1.0 7.0,1.2239 7.0,1.5 L 7.0,2.293 L 3.1465,6.1465 C 3.0527,6.2403 3.0,6.3674 3.0,6.5 L 3.0,13.5 C 3.0,13.7761 3.2239,14.0 3.5,14.0 L 11.5,14.0 C 11.7761,14.0 12.0,13.7761 12.0,13.5 L 12.0,6.5 C 11.9992,6.4391 11.9873,6.3789 11.9648,6.3223 C 11.9628,6.3143 11.96,6.3065 11.957,6.2988 C 11.9322,6.242 11.8971,6.1904 11.8535,6.1465 L 10.707,5.0 L 11.3535,4.3535 C 11.5487,4.1582 11.5487,3.8418 11.3535,3.6465 L 10.3535,2.6465 C 10.2588,2.5518 10.13,2.499 9.9961,2.5 C 9.862,2.501 9.7339,2.5559 9.6406,2.6523 L 9.0098,3.3027 L 8.0,2.293 L 8.0,1.5 C 8.0,1.2239 7.7761,1.0 7.5,1.0 M 7.5,3.207 L 8.6621,4.3691 L 9.6465,5.3535 L 10.293,6.0 L 4.707,6.0 L 7.5,3.207 M 4.5,9.0 L 10.5,9.0 A 0.5,0.5 0.0 0,1 11.0,9.5 L 11.0,10.5 A 0.5,0.5 0.0 0,1 10.5,11.0 L 4.5,11.0 A 0.5,0.5 0.0 0,1 4.0,10.5 L 4.0,9.5 A 0.5,0.5 0.0 0,1 4.5,9.0" fill="#000" /></svg>