<svg xmlns="http://www.w3.org/2000/svg" width="16" height="16"><path d="M 7.5,1.0 C 7.2239,1.0 7.0,1.2239 7.0,1.5 L 7.0,2.293 L 3.1465,6.1465 C 3.0527,6.2403 3.0,6.3674 3.0,6.5 L 3.0,13.5 C 3.0,13.7761 3.2239,14.0 3.5,14.0 L 11.5,14.0 C 11.7761,14.0 12.0,13.7761 12.0,13.5 L 12.0,6.5 C 12.0,6.3549 11.9388,6.232 11.8533,6.1465 L 10.707,5.0 L 11.3535,4.3535 C 11.5487,4.1583 11.5487,3.8418 11.3535,3.6465 L 10.3535,2.6465 C 10.1565,2.4495 9.8345,2.4518 9.6406,2.6525 L 9.0098,3.3029 L 8.0,2.293 L 8.0,1.5 C 8.0,1.2239 7.7761,1.0 7.5,1.0 M 7.5,3.207 L 10.293,6.0 L 4.707,6.0 L 7.5,3.207 M 4.5,9.0 L 10.5,9.0 C 10.7761,9.0 11.0,9.2239 11.0,9.5 L 11.0,10.5 C 11.0,10.7761 10.7761,11.0 10.5,11.0 L 4.5,11.0 C 4.2239,11.0 4.0,10.7761 4.0,10.5 L 4.0,9.5 C 4.0,9.2239 4.2239,9.0 4.5,9.0" fill="#000" /></svg>