<svg xmlns="http://www.w3.org/2000/svg" width="16" height="16"><path d="M 4.0,2.0 C 2.892,2.0 2.0,2.892 2.0,4.0 L 2.0,11.0 C 2.0,12.108 2.892,13.0 4.0,13.0 L 11.0,13.0 C 12.108,13.0 13.0,12.108 13.0,11.0 L 13.0,4.0 C 13.0,2.892 12.108,2.0 11.0,2.0 L 4.0,2.0 M 7.543,4.0 C 7.8298,4.0033 8.1198,4.0424 8.4062,4.1191 C 9.9341,4.5285 11.0,5.9183 11.0,7.5 C 11.0,8.0351 10.7134,8.5313 10.25,8.7988 C 9.7866,9.0664 9.2134,9.0664 8.75,8.7988 C 8.6588,8.7462 8.5747,8.6841 8.498,8.6152 C 8.2321,8.8537 7.8815,9.0 7.5,9.0 C 6.6775,9.0 6.0,8.3225 6.0,7.5 C 6.0,6.6775 6.6775,6.0 7.5,6.0 C 8.3007,6.0 8.9616,6.6426 8.9961,7.4355 A 0.5,0.5 0.0 0,1 9.0,7.5 C 9.0,7.6794 9.0946,7.8439 9.25,7.9336 C 9.4054,8.0233 9.5946,8.0233 9.75,7.9336 C 9.9054,7.8439 10.0,7.6794 10.0,7.5 C 10.0,6.3661 9.2418,5.3794 8.1465,5.0859 C 7.0512,4.7924 5.901,5.268 5.334,6.25 C 4.767,7.232 4.9306,8.4658 5.7324,9.2676 C 6.5342,10.0694 7.768,10.233 8.75,9.666 A 0.5,0.5 0.0 0,1 9.4336,9.8477 A 0.5,0.5 0.0 0,1 9.25,10.5312 C 7.8802,11.3221 6.1438,11.093 5.0254,9.9746 C 3.907,8.8562 3.6779,7.1198 4.4688,5.75 C 5.1113,4.637 6.3001,3.9855 7.543,4.0 M 7.5,7.0 C 7.2179,7.0 7.0,7.2179 7.0,7.5 C 7.0,7.7821 7.2179,8.0 7.5,8.0 C 7.7821,8.0 8.0,7.7821 8.0,7.5 C 8.0,7.2179 7.7821,7.0 7.5,7.0" fill="#000" /></svg>