<svg xmlns="http://www.w3.org/2000/svg" width="16" height="16"><path d="M 4.0,2.0 C 2.892,2.0 2.0,2.892 2.0,4.0 L 2.0,11.0 C 2.0,12.108 2.892,13.0 4.0,13.0 L 11.0,13.0 C 12.108,13.0 13.0,12.108 13.0,11.0 L 13.0,4.0 C 13.0,2.892 12.108,2.0 11.0,2.0 L 4.0,2.0 M 7.3672,4.002 A 3.5,3.5 0.0 0,1 8.4062,4.1191 A 3.5,3.5 0.0 0,1 11.0,7.5 A 1.5,1.5 0.0 0,1 10.25,8.7988 A 1.5,1.5 0.0 0,1 8.75,8.7988 A 1.5,1.5 0.0 0,1 8.5,8.6152 A 1.5,1.5 0.0 0,1 7.5,9.0 A 1.5,1.5 0.0 0,1 6.0,7.5 A 1.5,1.5 0.0 0,1 7.5,6.0 A 1.5,1.5 0.0 0,1 9.0,7.5 A 0.5,0.5 0.0 0,0 9.0,7.5234 A 0.5,0.5 0.0 0,0 9.25,7.9335 A 0.5,0.5 0.0 0,0 9.75,7.9335 A 0.5,0.5 0.0 0,0 10.0,7.5 A 2.5,2.5 0.0 0,0 8.1465,5.0859 A 2.5,2.5 0.0 0,0 5.334,6.25 A 2.5,2.5 0.0 0,0 5.7324,9.2675 A 2.5,2.5 0.0 0,0 8.75,9.666 L 9.25,10.5312 A 3.5,3.5 0.0 0,1 5.0254,9.9746 A 3.5,3.5 0.0 0,1 4.4688,5.75 A 3.5,3.5 0.0 0,1 7.334,4.0039 A 3.5,3.5 0.0 0,1 7.3672,4.0019 L 7.3672,4.002 M 7.5,7.0 A 0.5,0.5 0.0 0,0 7.0,7.5 A 0.5,0.5 0.0 0,0 7.5,8.0 A 0.5,0.5 0.0 0,0 8.0,7.5 A 0.5,0.5 0.0 0,0 7.5,7.0" fill="#000" /></svg>