<svg xmlns="http://www.w3.org/2000/svg" width="16" height="16"><path d="M 3.5,2.0 C 3.223,2.0 3.0,2.223 3.0,2.5 L 3.0,4.5 C 3.0,4.777 3.223,5.0 3.5,5.0 L 4.0,5.0 L 4.0,3.0 L 12.0,3.0 L 12.0,5.0 L 12.5,5.0 C 12.777,5.0 13.0,4.777 13.0,4.5 L 13.0,2.5 C 13.0,2.223 12.777,2.0 12.5,2.0 L 3.5,2.0 M 5.0,4.0 L 5.0,13.0 C 5.0,13.554 5.446,14.0 6.0,14.0 L 10.0,14.0 C 10.554,14.0 11.0,13.554 11.0,13.0 L 11.0,4.0 L 5.0,4.0 M 8.0,6.0 C 9.1046,6.0 10.0,6.8954 10.0,8.0 C 10.0,9.1046 9.1046,10.0 8.0,10.0 C 6.8954,10.0 6.0,9.1046 6.0,8.0 C 6.0,6.8954 6.8954,6.0 8.0,6.0 M 6.0,12.0 C 6.554,12.0 7.0,12.446 7.0,13.0 L 6.0,13.0 L 6.0,12.0 M 10.0,12.0 L 10.0,13.0 L 9.0,13.0 C 9.0,12.446 9.446,12.0 10.0,12.0" fill="#000" /></svg>