<svg xmlns="http://www.w3.org/2000/svg" width="16" height="16"><path d="M 4.5,1.0 C 4.3104,1.0002 4.1372,1.1076 4.0527,1.2773 L 3.0527,3.2773 C 3.0181,3.3465 3.0001,3.4227 3.0,3.5 L 3.0,13.5 C 3.0,13.7761 3.2239,14.0 3.5,14.0 L 12.5,14.0 C 12.7761,14.0 13.0,13.7761 13.0,13.5 L 13.0,3.5 C 12.9999,3.4227 12.9818,3.3465 12.9473,3.2773 L 11.9473,1.2773 C 11.8628,1.1076 11.6896,1.0002 11.5,1.0 L 4.5,1.0 M 4.8086,2.0 L 11.1914,2.0 L 11.6914,3.0 L 4.3086,3.0 L 4.8086,2.0 M 5.5,5.0 A 0.5,0.5 0.0 0,1 6.0,5.5 L 6.0,7.0 C 6.0,7.7153 6.3805,8.3748 7.0,8.7324 C 7.6195,9.0901 8.3805,9.0901 9.0,8.7324 C 9.6195,8.3748 10.0,7.7153 10.0,7.0 L 10.0,5.5 A 0.5,0.5 0.0 0,1 10.5,5.0 A 0.5,0.5 0.0 0,1 11.0,5.5 L 11.0,7.0 C 11.0,8.071 10.4275,9.0622 9.5,9.5977 C 8.5725,10.1332 7.4275,10.1332 6.5,9.5977 C 5.5725,9.0622 5.0,8.071 5.0,7.0 L 5.0,5.5 A 0.5,0.5 0.0 0,1 5.5,5.0" fill="#000" /></svg>