<svg xmlns="http://www.w3.org/2000/svg" width="16" height="16"><path d="M 7.0,2.0 C 5.9013,2.0 5.0,2.9013 5.0,4.0 L 5.0,5.0 L 3.5,5.0 C 3.223,5.0 3.0,5.223 3.0,5.5 L 3.0,13.5 C 3.0,13.777 3.223,14.0 3.5,14.0 L 12.5,14.0 C 12.777,14.0 13.0,13.777 13.0,13.5 L 13.0,5.5 C 13.0,5.223 12.777,5.0 12.5,5.0 L 11.0,5.0 L 11.0,4.0 C 11.0,2.9013 10.0987,2.0 9.0,2.0 L 7.0,2.0 M 7.0,3.0 L 9.0,3.0 C 9.5582,3.0 10.0,3.4418 10.0,4.0 L 10.0,5.0 L 6.0,5.0 L 6.0,4.0 C 6.0,3.4418 6.4418,3.0 7.0,3.0 M 9.9004,7.8008 L 6.9004,11.8008 C 6.5014,12.3489 5.6843,11.7351 6.0996,11.1992 L 9.0996,7.1992 C 9.4863,6.6672 10.3157,7.2681 9.9004,7.8008 M 5.5,7.0 C 6.3229,7.0 7.0,7.6771 7.0,8.5 C 7.0,9.3229 6.3229,10.0 5.5,10.0 C 4.6771,10.0 4.0,9.3229 4.0,8.5 C 4.0,7.6771 4.6771,7.0 5.5,7.0 M 5.5,8.0 C 5.2184,8.0 5.0,8.2184 5.0,8.5 C 5.0,8.7816 5.2184,9.0 5.5,9.0 C 5.7816,9.0 6.0,8.7816 6.0,8.5 C 6.0,8.2184 5.7816,8.0 5.5,8.0 M 10.5,9.0 C 11.3229,9.0 12.0,9.6771 12.0,10.5 C 12.0,11.3229 11.3229,12.0 10.5,12.0 C 9.6771,12.0 9.0,11.3229 9.0,10.5 C 9.0,9.6771 9.6771,9.0 10.5,9.0 M 10.5,10.0 C 10.2184,10.0 10.0,10.2184 10.0,10.5 C 10.0,10.7816 10.2184,11.0 10.5,11.0 C 10.7816,11.0 11.0,10.7816 11.0,10.5 C 11.0,10.2184 10.7816,10.0 10.5,10.0" fill="#000" /></svg>