<svg xmlns="http://www.w3.org/2000/svg" width="16" height="16"><path d="M 7.5,1.0 C 7.2708,1.0004 7.0711,1.1565 7.0156,1.3789 L 6.8477,2.0469 C 4.8881,2.3329 3.3329,3.8881 3.0469,5.8477 L 2.3789,6.0156 C 1.8778,6.1441 1.8778,6.8559 2.3789,6.9844 L 3.0469,7.1523 C 3.3147,8.9868 4.6956,10.4667 6.4785,10.8828 L 7.0059,14.5703 C 7.0935,15.1348 7.9066,15.1348 7.9941,14.5703 L 8.5215,10.8828 C 10.3044,10.4667 11.6853,8.9868 11.9531,7.1523 L 12.6211,6.9844 C 13.1222,6.8559 13.1222,6.1441 12.6211,6.0156 L 11.9531,5.8477 C 11.6671,3.8881 10.1119,2.3329 8.1523,2.0469 L 7.9844,1.3789 C 7.9289,1.1565 7.7292,1.0004 7.5,1.0 M 6.5801,3.1211 L 6.0879,5.0879 L 4.1211,5.5801 C 4.4441,4.3834 5.3834,3.4441 6.5801,3.1211 L 6.5801,3.1211 M 8.4199,3.1211 C 9.6166,3.4441 10.5559,4.3834 10.8789,5.5801 L 8.9121,5.0879 L 8.4199,3.1211 M 4.1211,7.4199 L 6.0527,7.9043 L 6.3242,9.7988 C 5.2509,9.4182 4.4208,8.5296 4.1211,7.4199 M 10.8789,7.4199 C 10.5792,8.5296 9.7491,9.4182 8.6758,9.7988 L 8.9473,7.9043 L 10.8789,7.4199" fill="#000" /></svg>