<svg xmlns="http://www.w3.org/2000/svg" width="16" height="16"><path d="M 7.5781,1.6406 C 6.3932,2.0918 5.9868,3.2986 6.0,4.5 C 6.0001,5.0358 6.286,5.5309 6.75,5.7988 C 7.2141,6.0668 7.7859,6.0668 8.25,5.7988 C 8.714,5.5309 8.9999,5.0358 9.0,4.5 C 9.0,3.6814 8.6322,3.1553 8.293,2.7031 C 8.297,3.1674 8.1175,3.511 7.877,3.7129 C 7.2402,3.1863 7.164,2.5121 7.5781,1.6406 M 3.0278,7.499 C 3.1169,8.2965 3.4181,9.059 3.9043,9.7051 L 3.0254,12.3418 C 2.8145,12.9746 3.7637,13.291 3.9746,12.6582 L 4.6914,10.5078 C 4.8675,10.6513 5.0543,10.7812 5.25,10.8965 C 5.7878,11.2051 6.3836,11.3993 7.0,11.4668 L 7.0,12.5 C 6.99,13.1762 8.0096,13.1762 8.0,12.5 L 8.0,11.4688 C 8.6165,11.4006 9.2123,11.2058 9.75,10.8965 C 9.9462,10.7832 10.1336,10.6552 10.3105,10.5137 L 11.0254,12.6582 C 11.2363,13.291 12.1855,12.9746 11.9746,12.3418 L 11.0938,9.6992 C 11.5793,9.0549 11.8809,8.2945 11.9712,7.4989 C 12.0024,7.2247 11.7761,7.0 11.5,7.0 L 3.5,7.0 C 3.2239,7.0 2.9972,7.2247 3.0278,7.499" fill="#000" /></svg>