<svg xmlns="http://www.w3.org/2000/svg" width="16" height="16"><path d="M 7.5,2.0 C 7.3212,1.9998 7.1558,2.0951 7.0664,2.25 L 6.2012,3.75 C 5.8389,4.3775 5.9801,5.1827 6.5352,5.6484 C 7.0903,6.1142 7.9098,6.1142 8.4648,5.6484 C 9.0199,5.1827 9.1611,4.3775 8.7988,3.75 L 7.9336,2.25 C 7.8442,2.0951 7.6788,1.9998 7.5,2.0 M 3.5,7.0 C 3.2239,7.0 2.9967,7.2238 3.0273,7.498 C 3.1164,8.2956 3.4181,9.059 3.9043,9.7051 L 3.0254,12.3418 C 2.8144,12.9746 3.7637,13.291 3.9746,12.6582 L 4.6914,10.5078 C 4.8675,10.6513 5.0543,10.7812 5.25,10.8965 C 5.7878,11.2051 6.3836,11.3993 7.0,11.4668 L 7.0,12.5 C 6.99,13.1762 8.0096,13.1762 8.0,12.5 L 8.0,11.4688 C 8.6165,11.4006 9.2123,11.2058 9.75,10.8965 C 9.9462,10.7832 10.1336,10.6552 10.3105,10.5137 L 11.0254,12.6582 C 11.2363,13.291 12.1855,12.9746 11.9746,12.3418 L 11.0937,9.6992 C 11.5793,9.0549 11.8803,8.2937 11.9707,7.498 C 12.0019,7.2238 11.7761,7.0 11.5,7.0 L 3.5,7.0" fill="#000" /></svg>