<svg xmlns="http://www.w3.org/2000/svg" width="16" height="16"><path d="M 7.5,2.5 C 7.2239,2.5 7.0,2.7239 7.0,3.0 L 7.0,3.1191 C 5.082,3.6751 3.5642,4.7254 3.0254,6.3418 C 2.9174,6.6657 3.1586,7.0002 3.5,7.0 L 7.0,7.0 L 7.0,12.0 C 7.0,12.2761 7.2239,12.5 7.5,12.5 C 7.7761,12.5 8.0,12.2761 8.0,12.0 L 8.0,7.0 L 11.5,7.0 C 11.8414,7.0002 12.0826,6.6657 11.9746,6.3418 C 11.4358,4.7254 9.918,3.6751 8.0,3.1191 L 8.0,3.0 C 8.0,2.7239 7.7761,2.5 7.5,2.5 M 2.6465,13.3965 C 2.2054,13.8376 1.8333,14.0 1.5,14.0 C 1.2239,14.0 1.0,14.2239 1.0,14.5 C 1.0,14.7761 1.2239,15.0 1.5,15.0 C 2.0394,15.0 2.5273,14.6558 3.0,14.2754 C 3.4696,14.6539 3.9564,15.0 4.5,15.0 C 5.0394,15.0 5.5273,14.6558 6.0,14.2754 C 6.4727,14.6558 6.9606,15.0 7.5,15.0 C 8.0394,15.0 8.5273,14.6558 9.0,14.2754 C 9.4696,14.6539 9.9564,15.0 10.5,15.0 C 11.0394,15.0 11.5273,14.6558 12.0,14.2754 C 12.4727,14.6558 12.9606,15.0 13.5,15.0 C 13.7761,15.0 14.0,14.7761 14.0,14.5 C 14.0,14.2239 13.7761,14.0 13.5,14.0 C 13.1667,14.0 12.7946,13.8376 12.3535,13.3965 C 12.1582,13.2013 11.8418,13.2013 11.6465,13.3965 C 11.2054,13.8376 10.8333,14.0 10.5,14.0 C 10.1718,14.0 9.7859,13.8289 9.3535,13.3965 C 9.1582,13.2013 8.8418,13.2013 8.6465,13.3965 C 8.2054,13.8376 7.8333,14.0 7.5,14.0 C 7.1667,14.0 6.7946,13.8376 6.3535,13.3965 C 6.1582,13.2013 5.8418,13.2013 5.6465,13.3965 C 5.2054,13.8376 4.8333,14.0 4.5,14.0 C 4.1718,14.0 3.7859,13.8289 3.3535,13.3965 C 3.1585,13.2015 2.8412,13.2017 2.6465,13.3965" fill="#000" /></svg>