<svg xmlns="http://www.w3.org/2000/svg" width="16" height="16"><path d="M 7.9688,2.0019 C 7.9072,2.0059 7.847,2.021 7.791,2.0468 L 1.291,5.0468 C 1.0412,5.1627 0.9321,5.4587 1.0469,5.7089 C 1.1627,5.9588 1.4587,6.0679 1.709,5.9531 L 8.0,3.0508 L 14.291,5.9531 C 14.5413,6.0679 14.8373,5.9591 14.9531,5.709 C 15.0679,5.4587 14.9588,5.1627 14.709,5.0469 L 8.209,2.0469 C 8.1339,2.0123 8.0513,1.9969 7.9688,2.002 L 7.9688,2.0019 M 1.5,7.0 C 1.2239,7.0 1.0,7.2239 1.0,7.5 L 1.0,13.5 C 1.0,13.7761 1.2239,14.0 1.5,14.0 C 1.7761,14.0 2.0,13.7761 2.0,13.5 L 2.0,12.0 L 14.0,12.0 L 14.0,13.5 C 14.0,13.7761 14.2239,14.0 14.5,14.0 C 14.7761,14.0 15.0,13.7761 15.0,13.5 L 15.0,9.5 C 14.9995,9.2514 14.8165,9.0408 14.5703,9.0059 L 7.5703,8.0059 C 7.2696,7.9632 7.0006,8.1963 7.0,8.5 L 7.0,11.0 L 2.0,11.0 L 2.0,7.5 C 2.0,7.2239 1.7761,7.0 1.5,7.0 M 4.0,8.0 C 3.446,8.0 3.0,8.446 3.0,9.0 C 3.0,9.554 3.446,10.0 4.0,10.0 L 5.0,10.0 C 5.554,10.0 6.0,9.554 6.0,9.0 C 6.0,8.446 5.554,8.0 5.0,8.0 L 4.0,8.0" fill="#000" /></svg>