<svg xmlns="http://www.w3.org/2000/svg" width="16" height="16"><path d="M 1.5,2.0 C 1.2239,2.0 1.0,2.2239 1.0,2.5 C 1.0,2.7761 1.2239,3.0 1.5,3.0 L 14.5,3.0 C 14.7761,3.0 15.0,2.7761 15.0,2.5 C 15.0,2.2239 14.7761,2.0 14.5,2.0 L 1.5,2.0 M 1.5,4.0 C 1.2239,4.0 1.0,4.2239 1.0,4.5 L 1.0,8.5 L 1.0,10.5 C 1.0,10.7761 1.2239,11.0 1.5,11.0 C 1.7761,11.0 2.0,10.7761 2.0,10.5 L 2.0,9.0 L 14.0,9.0 L 14.0,10.5 C 14.0,10.7761 14.2239,11.0 14.5,11.0 C 14.7761,11.0 15.0,10.7761 15.0,10.5 L 15.0,6.5 C 15.0,6.2239 14.7761,6.0 14.5,6.0 C 14.2239,6.0 14.0,6.2239 14.0,6.5 L 14.0,8.0 L 2.0,8.0 L 2.0,4.5 C 2.0,4.2239 1.7761,4.0 1.5,4.0 M 4.0,5.0 C 3.4477,5.0 3.0,5.4477 3.0,6.0 C 3.0,6.5523 3.4477,7.0 4.0,7.0 L 5.0,7.0 C 5.5523,7.0 6.0,6.5523 6.0,6.0 C 6.0,5.4477 5.5523,5.0 5.0,5.0 L 4.0,5.0 M 7.4512,5.002 C 7.195,5.0272 6.9998,5.2426 7.0,5.5 L 7.0,6.5 C 7.0,6.7761 7.2239,7.0 7.5,7.0 L 12.5,7.0 C 13.1028,6.999 13.1885,6.1289 12.5977,6.0098 L 7.5977,5.0098 C 7.5495,4.9998 7.5001,4.9972 7.4512,5.0018 L 7.4512,5.002 M 1.5,12.0 C 1.2239,12.0 1.0,12.2239 1.0,12.5 C 1.0,12.7761 1.2239,13.0 1.5,13.0 L 14.5,13.0 C 14.7761,13.0 15.0,12.7761 15.0,12.5 C 15.0,12.2239 14.7761,12.0 14.5,12.0 L 1.5,12.0" fill="#000" /></svg>