<svg xmlns="http://www.w3.org/2000/svg" width="16" height="16"><path d="M 1.5,2.0 C 1.2239,2.0 1.0,2.2239 1.0,2.5 C 1.0,2.7761 1.2239,3.0 1.5,3.0 L 14.5,3.0 C 14.7761,3.0 15.0,2.7761 15.0,2.5 C 15.0,2.2239 14.7761,2.0 14.5,2.0 L 1.5,2.0 M 1.5,4.0 C 1.2239,4.0 1.0,4.2239 1.0,4.5 L 1.0,10.5 C 1.0,10.7761 1.2239,11.0 1.5,11.0 C 1.7761,11.0 2.0,10.7761 2.0,10.5 L 2.0,9.0 L 14.0,9.0 L 14.0,10.5 C 14.0,10.7761 14.2239,11.0 14.5,11.0 C 14.7761,11.0 15.0,10.7761 15.0,10.5 L 15.0,6.5 C 14.9995,6.2514 14.8165,6.0408 14.5703,6.0059 L 7.5703,5.0059 C 7.2696,4.9632 7.0006,5.1963 7.0,5.5 L 7.0,8.0 L 2.0,8.0 L 2.0,4.5 C 2.0,4.2239 1.7761,4.0 1.5,4.0 M 4.0,5.0 C 3.446,5.0 3.0,5.446 3.0,6.0 C 3.0,6.554 3.446,7.0 4.0,7.0 L 5.0,7.0 C 5.554,7.0 6.0,6.554 6.0,6.0 C 6.0,5.446 5.554,5.0 5.0,5.0 L 4.0,5.0 M 1.5,12.0 C 1.2239,12.0 1.0,12.2239 1.0,12.5 C 1.0,12.7761 1.2239,13.0 1.5,13.0 L 14.5,13.0 C 14.7761,13.0 15.0,12.7761 15.0,12.5 C 15.0,12.2239 14.7761,12.0 14.5,12.0 L 1.5,12.0" fill="#000" /></svg>