<svg xmlns="http://www.w3.org/2000/svg" width="16" height="16"><path d="M 8.0,2.0019 A 0.5,0.5 0.0 0,0 7.791,2.0468 L 1.291,5.0468 A 0.5,0.5 0.0 0,0 1.0469,5.7089 A 0.5,0.5 0.0 0,0 1.709,5.9531 L 8.0,3.0508 L 14.291,5.9531 A 0.5,0.5 0.0 0,0 14.9531,5.709 A 0.5,0.5 0.0 0,0 14.709,5.0469 L 8.209,2.0469 A 0.5,0.5 0.0 0,0 8.0,2.0019 M 1.4785,8.0 C 1.2133,8.0 1.0,8.223 1.0,8.5 L 1.0,13.5 C 1.0,13.777 1.2133,14.0 1.4785,14.0 L 1.5215,14.0 C 1.7867,14.0 2.0,13.777 2.0,13.5 L 2.0,13.0 L 14.0,13.0 L 14.0,13.5 C 14.0,13.777 14.223,14.0 14.5,14.0 C 14.777,14.0 15.0,13.777 15.0,13.5 L 15.0,10.5 C 15.0,10.223 14.777,10.0 14.5,10.0 C 14.223,10.0 14.0,10.223 14.0,10.5 L 14.0,12.0 L 2.0,12.0 L 2.0,8.5 C 2.0,8.223 1.7867,8.0 1.5215,8.0 L 1.4785,8.0 M 7.4004,8.9941 C 7.1747,9.0146 7.0,9.2576 7.0,9.5 L 7.0,10.5 C 7.0,10.777 7.223,11.0 7.5,11.0 L 12.5,11.0 C 12.777,11.0 13.0,10.777 13.0,10.5 C 13.0,10.223 12.7716,10.0543 12.5,10.0 L 7.5,9.0 C 7.466,8.993 7.4326,8.991 7.4004,8.994 L 7.4004,8.9941 M 4.0,9.0 C 3.446,9.0 3.0,9.446 3.0,10.0 C 3.0,10.554 3.446,11.0 4.0,11.0 L 5.0,11.0 C 5.554,11.0 6.0,10.554 6.0,10.0 C 6.0,9.446 5.554,9.0 5.0,9.0 L 4.0,9.0" fill="#000" /></svg>