<svg xmlns="http://www.w3.org/2000/svg" width="16" height="16"><path d="M 1.5,2.0 C 1.2239,2.0 1.0,2.2239 1.0,2.5 C 1.0,2.7761 1.2239,3.0 1.5,3.0 L 14.5,3.0 C 14.7761,3.0 15.0,2.7761 15.0,2.5 C 15.0,2.2239 14.7761,2.0 14.5,2.0 L 1.5,2.0 M 1.5,4.0 C 1.2239,4.0 1.0,4.2239 1.0,4.5 L 1.0,10.5 C 1.0,10.7761 1.2239,11.0 1.5,11.0 C 1.7761,11.0 2.0,10.7761 2.0,10.5 L 2.0,9.0 L 14.0,9.0 L 14.0,10.5 C 14.0,10.7761 14.2239,11.0 14.5,11.0 C 14.7761,11.0 15.0,10.7761 15.0,10.5 L 15.0,6.5 C 15.0001,6.3481 14.9311,6.2043 14.8125,6.1094 C 14.8125,6.1094 14.0991,5.5467 12.8379,5.1484 C 12.2073,4.9493 11.4313,4.7856 10.5195,4.7363 C 9.6078,4.6871 8.5596,4.7519 7.3906,5.0117 C 7.1622,5.063 6.9998,5.2659 7.0,5.5 L 7.0,8.0 L 2.0,8.0 L 2.0,4.5 C 2.0,4.2239 1.7761,4.0 1.5,4.0 M 4.0,5.0 C 3.446,5.0 3.0,5.446 3.0,6.0 C 3.0,6.554 3.446,7.0 4.0,7.0 L 5.0,7.0 C 5.554,7.0 6.0,6.554 6.0,6.0 C 6.0,5.446 5.554,5.0 5.0,5.0 L 4.0,5.0 M 1.5,12.0 C 1.2239,12.0 1.0,12.2239 1.0,12.5 C 1.0,12.7761 1.2239,13.0 1.5,13.0 L 14.5,13.0 C 14.7761,13.0 15.0,12.7761 15.0,12.5 C 15.0,12.2239 14.7761,12.0 14.5,12.0 L 1.5,12.0" fill="#000" /></svg>