<svg xmlns="http://www.w3.org/2000/svg" width="16" height="16"><path d="M 4.0,2.5 L 4.0,13.5 A 0.5,0.5 45.0 0,0 4.5,14.0 L 10.5,14.0 A 0.5,0.5 135.0 0,0 11.0,13.5 L 11.0,12.5 A 0.5,0.5 135.0 0,1 11.5,12.0 L 12.0,12.0 C 13.1046,12.0 14.0,11.1046 14.0,10.0 L 14.0,6.0 C 14.0,4.8954 13.1046,4.0 12.0,4.0 L 11.5,4.0 A 0.5,0.5 45.0 0,1 11.0,3.5 L 11.0,2.5 A 0.5,0.5 45.0 0,0 10.5,2.0 L 4.5,2.0 A 0.5,0.5 135.0 0,0 4.0,2.5 M 5.5,3.0 L 9.5,3.0 C 9.7761,3.0 10.0,3.2239 10.0,3.5 C 10.0,3.7761 9.7761,4.0 9.5,4.0 L 8.0,4.0 C 7.4477,4.0 7.0,4.4477 7.0,5.0 L 7.0,7.5 C 7.0,7.6786 6.9047,7.8443 6.75,7.9336 C 6.5953,8.0229 6.4047,8.0229 6.25,7.9336 C 6.0953,7.8443 6.0,7.6786 6.0,7.5 L 6.0,6.5 C 6.0,6.2239 5.7761,6.0 5.5,6.0 C 5.2239,6.0 5.0,5.7761 5.0,5.5 L 5.0,3.5 C 5.0,3.2239 5.2239,3.0 5.5,3.0 M 11.5,5.0 L 12.0,5.0 C 12.5523,5.0 13.0,5.4477 13.0,6.0 L 13.0,10.0 C 13.0,10.5523 12.5523,11.0 12.0,11.0 L 11.5,11.0 A 0.5,0.5 45.0 0,1 11.0,10.5 L 11.0,5.5 A 0.5,0.5 135.0 0,1 11.5,5.0" fill="#000" /></svg>