<svg xmlns="http://www.w3.org/2000/svg" width="16" height="16"><path d="M 7.8438,1.5312 L 2.3438,3.5312 C 1.7767,3.627 2.1452,4.7323 2.6563,4.4687 L 8.0,2.5312 L 13.3438,4.4688 C 13.8549,4.7323 14.2233,3.6271 13.6562,3.5312 L 8.1562,1.5312 C 8.0697,1.4928 7.9409,1.4921 7.8438,1.5312 M 3.5,9.0 C 3.223,9.0 3.0,9.223 3.0,9.5 L 3.0,10.0 L 2.5,10.0 C 2.223,10.0 2.0,10.223 2.0,10.5 L 2.0,11.5 C 2.0,11.777 2.223,12.0 2.5,12.0 L 3.0,12.0 L 3.0,13.5 C 3.0,13.777 3.223,14.0 3.5,14.0 C 3.777,14.0 4.0,13.777 4.0,13.5 L 4.0,12.0 L 12.0,12.0 L 12.0,13.5 C 12.0,13.777 12.223,14.0 12.5,14.0 C 12.777,14.0 13.0,13.777 13.0,13.5 L 13.0,12.0 L 13.5,12.0 C 13.777,12.0 14.0,11.777 14.0,11.5 L 14.0,10.5 C 14.0,10.223 13.777,10.0 13.5,10.0 L 13.0,10.0 L 13.0,9.5 C 13.0,9.223 12.777,9.0 12.5,9.0 C 12.223,9.0 12.0,9.223 12.0,9.5 L 12.0,10.0 L 4.0,10.0 L 4.0,9.5 C 4.0,9.223 3.777,9.0 3.5,9.0" fill="#000" /></svg>