<svg xmlns="http://www.w3.org/2000/svg" width="16" height="16"><path d="M 11.5,2.0 C 10.9477,2.0 10.5,2.4477 10.5,3.0 C 10.5,3.5523 10.9477,4.0 11.5,4.0 C 12.0523,4.0 12.5,3.5523 12.5,3.0 C 12.5,2.4477 12.0523,2.0 11.5,2.0 M 10.0,5.0 C 9.8104,5.0002 9.6372,5.1076 9.5527,5.2773 L 8.0527,8.2773 C 7.93,8.5244 8.0305,8.8241 8.2773,8.9473 C 8.5244,9.07 8.8241,8.9695 8.9473,8.7227 L 10.0,6.6172 L 10.0,8.5 C 9.9998,8.8414 10.3343,9.0826 10.6582,8.9746 L 13.6582,7.9746 C 13.9058,7.8916 14.0478,7.6322 13.9844,7.3789 L 13.4844,5.3789 C 13.4288,5.1565 13.2292,5.0004 13.0,5.0 L 10.0,5.0 M 2.5,10.0 C 2.223,10.0 2.0,10.223 2.0,10.5 L 2.0,11.5 C 2.0,11.777 2.223,12.0 2.5,12.0 L 3.0,12.0 L 3.0,13.5 C 3.0,13.777 3.223,14.0 3.5,14.0 C 3.777,14.0 4.0,13.777 4.0,13.5 L 4.0,12.0 L 12.0,12.0 L 12.0,13.5 C 12.0,13.777 12.223,14.0 12.5,14.0 C 12.777,14.0 13.0,13.777 13.0,13.5 L 13.0,12.0 L 13.5,12.0 C 13.777,12.0 14.0,11.777 14.0,11.5 L 14.0,10.5 C 14.0,10.223 13.777,10.0 13.5,10.0 L 2.5,10.0" fill="#000" /></svg>