<svg xmlns="http://www.w3.org/2000/svg" width="16" height="16"><path d="M 3.5,3.0 C 3.223,3.0 3.0,3.223 3.0,3.5 L 3.0,4.0 C 2.446,4.0 2.0,4.446 2.0,5.0 L 2.0,6.0 C 2.0,6.554 2.446,7.0 3.0,7.0 L 3.0,8.0 L 2.5,8.0 C 2.223,8.0 2.0,8.223 2.0,8.5 L 2.0,9.5 C 2.0,9.777 2.223,10.0 2.5,10.0 L 3.0,10.0 L 3.0,11.5 C 3.0,11.777 3.223,12.0 3.5,12.0 C 3.777,12.0 4.0,11.777 4.0,11.5 L 4.0,10.0 L 12.0,10.0 L 12.0,11.5 C 12.0,11.777 12.223,12.0 12.5,12.0 C 12.777,12.0 13.0,11.777 13.0,11.5 L 13.0,10.0 L 13.5,10.0 C 13.777,10.0 14.0,9.777 14.0,9.5 L 14.0,8.5 C 14.0,8.223 13.777,8.0 13.5,8.0 L 13.0,8.0 L 13.0,7.0 C 13.554,7.0 14.0,6.554 14.0,6.0 L 14.0,5.0 C 14.0,4.446 13.554,4.0 13.0,4.0 L 13.0,3.5 C 13.0,3.223 12.777,3.0 12.5,3.0 C 12.223,3.0 12.0,3.223 12.0,3.5 L 12.0,4.0 L 4.0,4.0 L 4.0,3.5 C 4.0,3.223 3.777,3.0 3.5,3.0 M 5.5,5.0 L 7.5,5.0 C 7.777,5.0 8.0,5.223 8.0,5.5 C 8.0,5.777 7.777,6.0 7.5,6.0 L 5.5,6.0 C 5.223,6.0 5.0,5.777 5.0,5.5 C 5.0,5.223 5.223,5.0 5.5,5.0 M 9.5,5.0 L 10.5,5.0 C 10.777,5.0 11.0,5.223 11.0,5.5 C 11.0,5.777 10.777,6.0 10.5,6.0 L 9.5,6.0 C 9.223,6.0 9.0,5.777 9.0,5.5 C 9.0,5.223 9.223,5.0 9.5,5.0 M 4.0,7.0 L 12.0,7.0 L 12.0,8.0 L 4.0,8.0 L 4.0,7.0" fill="#000" /></svg>