<svg xmlns="http://www.w3.org/2000/svg" width="16" height="16"><path d="M 7.0,1.0 C 6.446,1.0 6.0,1.446 6.0,2.0 C 5.446,2.0 5.0,2.446 5.0,3.0 L 5.0,4.0 C 4.446,4.0 4.0,4.446 4.0,5.0 L 4.0,7.0 C 4.0,7.554 4.446,8.0 5.0,8.0 L 5.0,9.0 C 5.0,9.554 5.446,10.0 6.0,10.0 L 7.0,10.0 L 7.0,13.0 L 7.5,13.0 C 7.777,13.0 8.0,13.223 8.0,13.5 C 8.0,13.777 7.777,14.0 7.5,14.0 L 7.0,14.0 L 7.0,15.0 L 9.0,15.0 L 9.0,12.0 L 8.5,12.0 C 8.223,12.0 8.0,11.777 8.0,11.5 C 8.0,11.223 8.223,11.0 8.5,11.0 L 9.0,11.0 L 9.0,10.0 L 10.0,10.0 C 10.554,10.0 11.0,9.554 11.0,9.0 L 11.0,8.0 C 11.554,8.0 12.0,7.554 12.0,7.0 L 12.0,5.0 C 12.0,4.446 11.554,4.0 11.0,4.0 L 11.0,3.0 C 11.0,2.446 10.554,2.0 10.0,2.0 C 10.0,1.446 9.554,1.0 9.0,1.0 L 7.0,1.0" fill="#000" /></svg>