<svg xmlns="http://www.w3.org/2000/svg" width="16" height="16"><path d="M 6.0625,3.1348 C 3.9549,3.053 3.3441,5.3983 4.9375,6.5938 C 3.3064,8.8646 5.425,10.8041 7.0,10.2969 L 7.0,13.0 L 7.5,13.0 C 7.777,13.0 8.0,13.223 8.0,13.5 C 8.0,13.777 7.777,14.0 7.5,14.0 L 7.0,14.0 L 7.0,14.5 C 7.0,14.777 7.223,15.0 7.5,15.0 L 8.5,15.0 C 8.777,15.0 9.0,14.777 9.0,14.5 L 9.0,12.0 L 8.5,12.0 C 8.223,12.0 8.0,11.777 8.0,11.5 C 8.0,11.223 8.223,11.0 8.5,11.0 L 9.0,11.0 L 9.0,9.3223 C 10.4641,10.1737 12.5643,7.8476 11.0661,6.1017 C 12.6058,4.3719 11.0641,2.8409 10.0,3.0 C 9.6023,0.4715 6.0281,0.5332 6.0625,3.1348" fill="#000" /><path d="M 10.0,14.5 A 0.5,0.5 45.0 0,0 10.5,15.0 L 14.5,15.0 A 0.5,0.5 135.0 0,0 15.0,14.5 A 0.5,0.5 45.0 0,0 14.5,14.0 L 10.5,14.0 A 0.5,0.5 135.0 0,0 10.0,14.5" fill="#000" /></svg>