<svg xmlns="http://www.w3.org/2000/svg" width="16" height="16"><path d="M 10.0,6.0 A 0.5,0.5 0.0 0,1 10.4648,6.3144 L 11.4648,8.8144 A 0.5,0.5 0.0 0,1 11.0977,9.4902 L 9.9492,9.7207 A 0.5,0.5 0.0 0,1 9.916,9.7773 L 7.916,12.7773 A 0.5,0.5 0.0 0,1 7.0762,12.7656 L 4.7227,9.0 L 4.0,9.0 A 0.5,0.5 0.0 1,1 4.0,8.0 L 4.9121,8.0 A 0.5,0.5 0.0 0,1 5.0254,7.994 A 0.5,0.5 0.0 0,1 5.0742,8.0 L 6.0,8.0 A 0.5,0.5 0.0 1,1 6.0,9.0 L 5.9023,9.0 L 6.1855,9.4531 L 10.3125,8.6269 L 9.6621,7.0 L 8.5,7.0 A 0.5,0.5 0.0 1,1 8.5,6.0 L 10.0,6.0 M 8.5684,9.9961 L 6.7519,10.3594 L 7.5137,11.5781 L 8.5684,9.9961 M 11.5,10.0 C 12.8748,10.0 14.0,11.1252 14.0,12.5 C 14.0,13.8748 12.8748,15.0 11.5,15.0 C 10.1252,15.0 9.0,13.8748 9.0,12.5 C 9.0,11.1252 10.1252,10.0 11.5,10.0 M 3.5,10.0 C 4.8748,10.0 6.0,11.1252 6.0,12.5 C 6.0,13.8748 4.8748,15.0 3.5,15.0 C 2.1252,15.0 1.0,13.8748 1.0,12.5 C 1.0,11.1252 2.1252,10.0 3.5,10.0 M 11.5,11.0 C 10.6657,11.0 10.0,11.6656 10.0,12.5 C 10.0,13.3344 10.6657,14.0 11.5,14.0 C 12.3343,14.0 13.0,13.3344 13.0,12.5 C 13.0,11.6656 12.3343,11.0 11.5,11.0 M 3.5,11.0 C 2.6657,11.0 2.0,11.6656 2.0,12.5 C 2.0,13.3344 2.6657,14.0 3.5,14.0 C 4.3343,14.0 5.0,13.3344 5.0,12.5 C 5.0,11.6656 4.3343,11.0 3.5,11.0" fill="#000" /><path d="M 2.1465,2.8535 L 3.293,4.0 L 2.1465,5.1465 C 1.6562,5.6178 2.3822,6.3438 2.8535,5.8535 L 4.0,4.707 L 5.1465,5.8535 C 5.6178,6.3438 6.3438,5.6178 5.8535,5.1465 L 4.707,4.0 L 5.8535,2.8535 C 6.3371,2.3807 5.5993,1.683 5.1465,2.1465 L 4.0,3.293 L 2.8535,2.1465 C 2.4002,1.678 1.6589,2.3816 2.1465,2.8535" fill="#000" /></svg>