<svg xmlns="http://www.w3.org/2000/svg" width="16" height="16"><path d="M 10.0,6.0 C 10.2047,5.9998 10.3889,6.1244 10.4648,6.3144 L 11.4648,8.8144 C 11.5807,9.105 11.4044,9.4294 11.0977,9.4902 L 9.9492,9.7207 C 9.9392,9.7403 9.9283,9.7592 9.916,9.7773 L 7.916,12.7773 C 7.7148,13.0793 7.2689,13.0731 7.0762,12.7656 L 4.7227,9.0 L 4.0,9.0 C 3.3238,9.01 3.3238,7.9904 4.0,8.0 L 6.0,8.0 C 6.6762,7.99 6.6762,9.0096 6.0,9.0 L 5.9023,9.0 L 6.1855,9.4531 L 10.3125,8.6269 L 9.6621,7.0 L 8.5,7.0 C 7.8238,7.01 7.8238,5.9904 8.5,6.0 L 10.0,6.0 M 8.5684,9.9961 L 6.7519,10.3594 L 7.5137,11.5781 L 8.5684,9.9961 M 11.5,10.0 C 12.8748,10.0 14.0,11.1252 14.0,12.5 C 14.0,13.8748 12.8748,15.0 11.5,15.0 C 10.1252,15.0 9.0,13.8748 9.0,12.5 C 9.0,11.1252 10.1252,10.0 11.5,10.0 M 3.5,10.0 C 4.8748,10.0 6.0,11.1252 6.0,12.5 C 6.0,13.8748 4.8748,15.0 3.5,15.0 C 2.1252,15.0 1.0,13.8748 1.0,12.5 C 1.0,11.1252 2.1252,10.0 3.5,10.0 M 11.5,11.0 C 10.6657,11.0 10.0,11.6656 10.0,12.5 C 10.0,13.3344 10.6657,14.0 11.5,14.0 C 12.3343,14.0 13.0,13.3344 13.0,12.5 C 13.0,11.6656 12.3343,11.0 11.5,11.0 M 3.5,11.0 C 2.6657,11.0 2.0,11.6656 2.0,12.5 C 2.0,13.3344 2.6657,14.0 3.5,14.0 C 4.3343,14.0 5.0,13.3344 5.0,12.5 C 5.0,11.6656 4.3343,11.0 3.5,11.0" fill="#000" /><path d="M 4.5,1.5 C 3.8915,1.5002 3.3041,1.7225 2.8477,2.125 C 2.7398,2.2198 2.6779,2.3564 2.6777,2.5 C 2.6777,2.7761 2.9016,3.0 3.1777,3.0 L 4.7324,3.0 L 5.3984,4.0 L 4.7324,5.0 L 3.1777,5.0 C 2.9016,5.0 2.6777,5.2239 2.6777,5.5 C 2.6779,5.6436 2.7398,5.7802 2.8477,5.875 C 2.8537,5.88 2.8596,5.8857 2.8653,5.8906 C 3.3192,6.2838 3.899,6.4998 4.5,6.5 C 5.5198,6.5 6.4013,5.8808 6.7891,5.0 L 12.5,5.0 C 12.7761,4.9999 13.0,4.7761 13.0,4.5 L 13.0,3.5 C 13.0,3.2238 12.7761,3.0 12.5,3.0 L 6.7891,3.0 C 6.4013,2.1191 5.5198,1.5 4.5,1.5 L 4.5,1.5" fill="#000" /></svg>