<svg xmlns="http://www.w3.org/2000/svg" width="16" height="16"><path d="M 8.5,5.0 C 8.223,5.0 8.0,5.224 8.0,5.5 C 8.0,5.776 8.223,6.0 8.499,6.0 L 9.661,6.0 L 10.313,7.628 L 6.185,8.453 L 5.902,8.0 L 6.0,8.0 C 6.277,7.999 6.5,7.776 6.5,7.5 C 6.5,7.224 6.277,7.001 6.001,7.0 L 4.0,7.0 C 3.723,7.001 3.5,7.224 3.5,7.5 C 3.5,7.776 3.723,7.999 4.0,8.0 L 4.723,8.0 L 7.071,11.758 C 7.159,11.903 7.318,12.0 7.5,12.0 C 7.676,12.0 7.831,11.909 7.92,11.771 L 9.912,8.783 C 9.926,8.763 9.938,8.742 9.949,8.72 L 11.089,8.492 C 11.323,8.45 11.5,8.246 11.5,8.0 C 11.5,7.93 11.486,7.864 11.46,7.804 L 10.469,5.325 C 10.398,5.136 10.215,5.0 10.0,5.0 L 8.5,5.0 M 6.752,9.36 L 8.568,8.996 L 7.514,10.578 L 6.752,9.36 M 3.5,9.0 C 2.119,9.0 1.0,10.119 1.0,11.5 C 1.0,12.881 2.119,14.0 3.5,14.0 C 4.881,14.0 6.0,12.881 6.0,11.5 C 6.0,10.119 4.881,9.0 3.5,9.0 M 2.0,11.5 C 2.0,10.672 2.672,10.0 3.5,10.0 C 4.328,10.0 5.0,10.672 5.0,11.5 C 5.0,12.328 4.328,13.0 3.5,13.0 C 2.672,13.0 2.0,12.328 2.0,11.5 M 11.5,9.0 C 10.119,9.0 9.0,10.119 9.0,11.5 C 9.0,12.881 10.119,14.0 11.5,14.0 C 12.881,14.0 14.0,12.881 14.0,11.5 C 14.0,10.119 12.881,9.0 11.5,9.0 M 10.0,11.5 C 10.0,10.672 10.672,10.0 11.5,10.0 C 12.328,10.0 13.0,10.672 13.0,11.5 C 13.0,12.328 12.328,13.0 11.5,13.0 C 10.672,13.0 10.0,12.328 10.0,11.5" fill="#000" /><path d="M 2.1465,2.8535 L 3.293,4.0 L 2.1465,5.1465 C 1.6562,5.6178 2.3822,6.3438 2.8535,5.8535 L 4.0,4.707 L 5.1465,5.8535 C 5.6178,6.3438 6.3438,5.6178 5.8535,5.1465 L 4.707,4.0 L 5.8535,2.8535 C 6.3371,2.3807 5.5993,1.683 5.1465,2.1465 L 4.0,3.293 L 2.8535,2.1465 C 2.4002,1.678 1.6589,2.3816 2.1465,2.8535" fill="#000" /></svg>