<svg xmlns="http://www.w3.org/2000/svg" width="16" height="16"><path d="M 10.0,6.0 C 10.2047,5.9998 10.3889,6.1244 10.4648,6.3144 L 11.4648,8.8144 C 11.5807,9.105 11.4044,9.4294 11.0977,9.4902 L 9.9492,9.7207 C 9.9392,9.7403 9.9283,9.7592 9.916,9.7773 L 7.916,12.7773 C 7.7148,13.0793 7.2689,13.0731 7.0762,12.7656 L 4.7227,9.0 L 4.0,9.0 C 3.3238,9.01 3.3238,7.9904 4.0,8.0 L 6.0,8.0 C 6.6762,7.99 6.6762,9.0096 6.0,9.0 L 5.9023,9.0 L 6.1855,9.4531 L 10.3125,8.6269 L 9.6621,7.0 L 8.5,7.0 C 7.8238,7.01 7.8238,5.9904 8.5,6.0 L 10.0,6.0 M 8.5684,9.9961 L 6.7519,10.3594 L 7.5137,11.5781 L 8.5684,9.9961 M 11.5,10.0 C 12.8748,10.0 14.0,11.1252 14.0,12.5 C 14.0,13.8748 12.8748,15.0 11.5,15.0 C 10.1252,15.0 9.0,13.8748 9.0,12.5 C 9.0,11.1252 10.1252,10.0 11.5,10.0 M 3.5,10.0 C 4.8748,10.0 6.0,11.1252 6.0,12.5 C 6.0,13.8748 4.8748,15.0 3.5,15.0 C 2.1252,15.0 1.0,13.8748 1.0,12.5 C 1.0,11.1252 2.1252,10.0 3.5,10.0 M 11.5,11.0 C 10.6657,11.0 10.0,11.6656 10.0,12.5 C 10.0,13.3344 10.6657,14.0 11.5,14.0 C 12.3343,14.0 13.0,13.3344 13.0,12.5 C 13.0,11.6656 12.3343,11.0 11.5,11.0 M 3.5,11.0 C 2.6657,11.0 2.0,11.6656 2.0,12.5 C 2.0,13.3344 2.6657,14.0 3.5,14.0 C 4.3343,14.0 5.0,13.3344 5.0,12.5 C 5.0,11.6656 4.3343,11.0 3.5,11.0" fill="#000" /><path d="M 9.0,2.0 C 8.8674,2.0 8.7402,2.0527 8.6465,2.1465 L 7.793,3.0 L 2.0,3.0 C 1.7239,3.0 1.5,3.2239 1.5,3.5 L 1.5,4.0 C 1.5,4.1326 1.5527,4.2598 1.6465,4.3535 L 2.1465,4.8535 C 2.3417,5.0487 2.6583,5.0487 2.8535,4.8535 L 3.5,4.207 L 4.1465,4.8535 C 4.3417,5.0487 4.6583,5.0487 4.8535,4.8535 L 5.5,4.207 L 6.1465,4.8535 C 6.2403,4.9473 6.3674,5.0 6.5,5.0 L 7.793,5.0 L 8.6465,5.8535 C 8.7403,5.9473 8.8674,6.0 9.0,6.0 L 10.0,6.0 C 10.1326,6.0 10.2598,5.9473 10.3535,5.8535 L 10.8535,5.3535 C 10.9473,5.2598 11.0,5.1326 11.0,5.0 L 11.0,3.0 C 11.0,2.8674 10.9473,2.7402 10.8535,2.6465 L 10.3535,2.1465 C 10.2598,2.0527 10.1326,2.0 10.0,2.0 L 9.0,2.0 M 9.5,3.0 C 9.7761,3.0 10.0,3.2239 10.0,3.5 L 10.0,4.5 C 10.0,4.7761 9.7761,5.0 9.5,5.0 C 9.2239,5.0 9.0,4.7761 9.0,4.5 L 9.0,3.5 C 9.0,3.2239 9.2239,3.0 9.5,3.0" fill="#000" /></svg>