<svg xmlns="http://www.w3.org/2000/svg" width="16" height="16"><path d="M 8.5,2.0 A 0.5,0.5 0.0 0,0 8.0,2.5 L 8.0,5.0 C 7.1389,5.0 6.3725,5.2955 5.834,5.834 C 5.2955,6.3725 5.0,7.1389 5.0,8.0 C 5.0,8.8611 5.2955,9.6275 5.834,10.166 C 6.3725,10.7045 7.1389,11.0 8.0,11.0 L 8.0,13.5 A 0.5,0.5 0.0 0,0 8.5,14.0 L 9.5,14.0 A 0.5,0.5 0.0 0,0 10.0,13.5 L 10.0,2.5 A 0.5,0.5 0.0 0,0 9.5,2.0 L 8.5,2.0 M 8.0,6.0 L 8.0,10.0 C 7.3611,10.0 6.8775,9.7955 6.541,9.459 C 6.2045,9.1225 6.0,8.6389 6.0,8.0 C 6.0,7.3611 6.2045,6.8775 6.541,6.541 C 6.8775,6.2045 7.3611,6.0 8.0,6.0" fill="#000" /></svg>