<svg xmlns="http://www.w3.org/2000/svg" width="16" height="16"><path d="M 8.5,6.0 C 8.223,6.0 8.0,6.224 8.0,6.5 C 8.0,6.776 8.223,7.0 8.499,7.0 L 9.661,7.0 L 10.313,8.628 L 6.185,9.453 L 5.902,9.0 L 6.0,9.0 C 6.277,8.999 6.5,8.776 6.5,8.5 C 6.5,8.224 6.277,8.001 6.001,8.0 L 4.0,8.0 C 3.723,8.001 3.5,8.224 3.5,8.5 C 3.5,8.776 3.723,8.999 4.0,9.0 L 4.723,9.0 L 7.071,12.758 C 7.159,12.903 7.318,13.0 7.5,13.0 C 7.676,13.0 7.831,12.909 7.92,12.771 L 9.912,9.783 C 9.926,9.763 9.938,9.742 9.949,9.72 L 11.089,9.492 C 11.323,9.45 11.5,9.246 11.5,9.0 C 11.5,8.93 11.486,8.864 11.46,8.804 L 10.469,6.325 C 10.398,6.136 10.215,6.0 10.0,6.0 L 8.5,6.0 M 6.752,10.36 L 8.568,9.996 L 7.514,11.578 L 6.752,10.36 M 3.5,10.0 C 2.119,10.0 1.0,11.119 1.0,12.5 C 1.0,13.881 2.119,15.0 3.5,15.0 C 4.881,15.0 6.0,13.881 6.0,12.5 C 6.0,11.119 4.881,10.0 3.5,10.0 M 2.0,12.5 C 2.0,11.672 2.672,11.0 3.5,11.0 C 4.328,11.0 5.0,11.672 5.0,12.5 C 5.0,13.328 4.328,14.0 3.5,14.0 C 2.672,14.0 2.0,13.328 2.0,12.5 M 11.5,10.0 C 10.119,10.0 9.0,11.119 9.0,12.5 C 9.0,13.881 10.119,15.0 11.5,15.0 C 12.881,15.0 14.0,13.881 14.0,12.5 C 14.0,11.119 12.881,10.0 11.5,10.0 M 10.0,12.5 C 10.0,11.672 10.672,11.0 11.5,11.0 C 12.328,11.0 13.0,11.672 13.0,12.5 C 13.0,13.328 12.328,14.0 11.5,14.0 C 10.672,14.0 10.0,13.328 10.0,12.5" fill="#000" /><path d="M 10.0,1.5 C 10.6085,1.5002 11.1959,1.7225 11.6523,2.125 C 11.7602,2.2198 11.8221,2.3564 11.8223,2.5 C 11.8223,2.7762 11.5984,3.0 11.3223,3.0 L 9.7676,3.0 L 9.1016,4.0 L 9.7676,5.0 L 11.3223,5.0 C 11.5984,5.0 11.8223,5.2239 11.8223,5.5 C 11.8221,5.6436 11.7602,5.7802 11.6523,5.875 C 11.6463,5.88 11.6404,5.8857 11.6347,5.8906 C 11.1808,6.2838 10.601,6.4998 10.0,6.5 C 8.9802,6.5 8.0987,5.8809 7.7109,5.0 L 1.5,5.0 C 1.2239,5.0 1.0,4.7761 1.0,4.5 L 1.0,3.5 C 1.0,3.2239 1.2239,3.0 1.5,3.0 L 7.7109,3.0 C 8.0987,2.1191 8.9802,1.5 10.0,1.5 L 10.0,1.5" fill="#000" /></svg>