<svg xmlns="http://www.w3.org/2000/svg" width="16" height="16"><path d="M 7.5,6.0 A 0.5,0.5 0.0 0,0 7.084,6.2227 L 5.084,9.2227 A 0.5,0.5 0.0 0,0 5.5,10.0 L 9.5,10.0 A 0.5,0.5 0.0 0,0 9.916,9.2227 L 8.4336,7.0 L 9.1211,7.0 L 12.5606,10.4394 C 12.9906,10.8695 13.1194,11.5124 12.8867,12.0742 C 12.654,12.6361 12.1081,13.0 11.5,13.0 L 5.5,13.0 A 0.5,0.5 0.0 0,0 5.0,13.5 A 0.5,0.5 0.0 0,0 5.5,14.0 L 11.5,14.0 C 12.5097,14.0 13.4241,13.3899 13.8106,12.457 C 14.197,11.5242 13.9816,10.4464 13.2676,9.7324 L 9.6816,6.1465 A 0.5,0.5 0.0 0,0 9.3281,6.0 L 7.5,6.0 M 7.5,7.4023 L 8.5664,9.0 L 6.4336,9.0 L 7.5,7.4023" fill="#000" /></svg>