<svg xmlns="http://www.w3.org/2000/svg" width="16" height="16"><path d="M 13.0,4.0 L 13.0,6.0 C 12.1389,6.0 11.3725,6.2955 10.834,6.834 C 10.2955,7.3725 10.0,8.1389 10.0,9.0 C 10.0,9.8611 10.2955,10.6275 10.834,11.166 C 11.3725,11.7045 12.1389,12.0 13.0,12.0 L 13.0,14.0 L 14.0,14.0 L 14.0,4.0 L 13.0,4.0 M 13.0,7.0 L 13.0,11.0 C 12.3611,11.0 11.8775,10.7955 11.541,10.459 C 11.2045,10.1225 11.0,9.6389 11.0,9.0 C 11.0,8.3611 11.2045,7.8775 11.541,7.541 C 11.8775,7.2045 12.3611,7.0 13.0,7.0" fill="#000" /></svg>