<svg xmlns="http://www.w3.org/2000/svg" width="16" height="16"><path d="M 6.0,4.0 C 5.1389,4.0 4.3725,4.2955 3.834,4.834 C 3.2955,5.3725 3.0,6.1389 3.0,7.0 L 3.0,11.5 A 0.5,0.5 0.0 0,0 3.5,12.0 A 0.5,0.5 0.0 0,0 4.0,11.5 L 4.0,7.0 C 4.0,6.3611 4.2045,5.8775 4.541,5.541 C 4.8775,5.2045 5.3611,5.0 6.0,5.0 L 10.0,5.0 C 10.6389,5.0 11.1225,5.2045 11.459,5.541 C 11.7955,5.8775 12.0,6.3611 12.0,7.0 L 12.0,11.5 A 0.5,0.5 0.0 0,0 12.5,12.0 A 0.5,0.5 0.0 0,0 13.0,11.5 L 13.0,7.0 C 13.0,6.1389 12.7045,5.3725 12.166,4.834 C 11.6275,4.2955 10.8611,4.0 10.0,4.0 L 6.0,4.0" fill="#000" /></svg>