<svg xmlns="http://www.w3.org/2000/svg" width="16" height="16"><path d="M 10.0,4.0 C 10.2047,3.9998 10.3889,4.1244 10.4648,4.3144 L 11.4648,6.8144 C 11.5807,7.105 11.4044,7.4294 11.0977,7.4902 L 9.9492,7.7207 C 9.9392,7.7403 9.9283,7.7592 9.916,7.7773 L 7.916,10.7773 C 7.7148,11.0793 7.2689,11.0731 7.0762,10.7656 L 4.7227,7.0 L 4.0,7.0 C 3.3238,7.01 3.3238,5.9904 4.0,6.0 L 6.0,6.0 C 6.6762,5.99 6.6762,7.0096 6.0,7.0 L 5.9023,7.0 L 6.1855,7.4531 L 10.3125,6.6269 L 9.6621,5.0 L 8.5,5.0 C 7.8238,5.01 7.8238,3.9904 8.5,4.0 L 10.0,4.0 M 8.5684,7.9961 L 6.7519,8.3594 L 7.5137,9.5781 L 8.5684,7.9961 M 11.5,8.0 C 12.8748,8.0 14.0,9.1252 14.0,10.5 C 14.0,11.8748 12.8748,13.0 11.5,13.0 C 10.1252,13.0 9.0,11.8748 9.0,10.5 C 9.0,9.1252 10.1252,8.0 11.5,8.0 M 3.5,8.0 C 4.8748,8.0 6.0,9.1252 6.0,10.5 C 6.0,11.8748 4.8748,13.0 3.5,13.0 C 2.1252,13.0 1.0,11.8748 1.0,10.5 C 1.0,9.1252 2.1252,8.0 3.5,8.0 M 11.5,9.0 C 10.6657,9.0 10.0,9.6656 10.0,10.5 C 10.0,11.3344 10.6657,12.0 11.5,12.0 C 12.3343,12.0 13.0,11.3344 13.0,10.5 C 13.0,9.6656 12.3343,9.0 11.5,9.0 M 3.5,9.0 C 2.6657,9.0 2.0,9.6656 2.0,10.5 C 2.0,11.3344 2.6657,12.0 3.5,12.0 C 4.3343,12.0 5.0,11.3344 5.0,10.5 C 5.0,9.6656 4.3343,9.0 3.5,9.0" fill="#000" /></svg>