<svg xmlns="http://www.w3.org/2000/svg" width="16" height="16"><path d="M 3.1,1.01 C 2.961,1.01 2.837,1.066 2.746,1.156 L 2.247,1.656 C 2.156,1.747 2.1,1.872 2.1,2.01 L 2.1,4.01 C 2.1,4.148 2.156,4.273 2.246,4.364 L 2.746,4.863 C 2.837,4.954 2.961,5.01 3.099,5.01 L 4.1,5.01 C 4.239,5.01 4.363,4.954 4.454,4.864 L 5.307,4.01 L 6.6,4.01 C 6.739,4.01 6.863,3.954 6.954,3.864 L 7.6,3.217 L 8.246,3.863 C 8.337,3.954 8.462,4.01 8.6,4.01 C 8.738,4.01 8.863,3.954 8.954,3.864 L 9.6,3.217 L 10.246,3.863 C 10.337,3.954 10.462,4.01 10.6,4.01 C 10.738,4.01 10.863,3.954 10.954,3.864 L 11.453,3.364 C 11.544,3.273 11.6,3.148 11.6,3.01 L 11.6,2.511 C 11.6,2.234 11.377,2.011 11.101,2.01 L 5.307,2.01 L 4.454,1.157 C 4.363,1.066 4.239,1.01 4.101,1.01 L 3.1,1.01 M 3.1,2.51 C 3.1,2.234 3.324,2.01 3.6,2.01 C 3.876,2.01 4.1,2.234 4.1,2.51 L 4.1,3.51 C 4.1,3.786 3.876,4.01 3.6,4.01 C 3.324,4.01 3.1,3.786 3.1,3.51 L 3.1,2.51 M 8.5,5.0 C 8.223,5.001 8.0,5.224 8.0,5.5 C 8.0,5.776 8.223,5.999 8.499,6.0 L 9.661,6.0 L 10.313,7.628 L 6.185,8.453 L 5.902,8.0 L 6.0,8.0 C 6.277,7.999 6.5,7.776 6.5,7.5 C 6.5,7.224 6.277,7.001 6.001,7.0 L 4.0,7.0 C 3.723,7.001 3.5,7.224 3.5,7.5 C 3.5,7.776 3.723,7.999 4.0,8.0 L 4.723,8.0 L 7.071,11.758 C 7.159,11.903 7.318,12.0 7.5,12.0 C 7.676,12.0 7.831,11.909 7.92,11.771 L 9.912,8.783 C 9.926,8.763 9.938,8.742 9.949,8.72 L 11.089,8.492 C 11.323,8.45 11.5,8.246 11.5,8.0 C 11.5,7.93 11.486,7.864 11.46,7.804 L 10.469,5.325 C 10.398,5.136 10.215,5.0 10.0,5.0 L 8.5,5.0 M 6.752,9.36 L 8.568,8.996 L 7.514,10.578 L 6.752,9.36 M 3.5,9.0 C 2.119,9.0 1.0,10.119 1.0,11.5 C 1.0,12.881 2.119,14.0 3.5,14.0 C 4.881,14.0 6.0,12.881 6.0,11.5 C 6.0,10.119 4.881,9.0 3.5,9.0 M 2.0,11.5 C 2.0,10.672 2.672,10.0 3.5,10.0 C 4.328,10.0 5.0,10.672 5.0,11.5 C 5.0,12.328 4.328,13.0 3.5,13.0 C 2.672,13.0 2.0,12.328 2.0,11.5 M 11.5,9.0 C 10.119,9.0 9.0,10.119 9.0,11.5 C 9.0,12.881 10.119,14.0 11.5,14.0 C 12.881,14.0 14.0,12.881 14.0,11.5 C 14.0,10.119 12.881,9.0 11.5,9.0 M 10.0,11.5 C 10.0,10.672 10.672,10.0 11.5,10.0 C 12.328,10.0 13.0,10.672 13.0,11.5 C 13.0,12.328 12.328,13.0 11.5,13.0 C 10.672,13.0 10.0,12.328 10.0,11.5" fill="#000" /></svg>