<svg xmlns="http://www.w3.org/2000/svg" width="16" height="16"><path d="M 5.5,4.0 A 0.5,0.5 0.0 0,0 5.084,4.2227 L 3.084,7.2227 A 0.5,0.5 0.0 0,0 3.5,8.0 L 7.5,8.0 A 0.5,0.5 0.0 0,0 7.916,7.2227 L 6.4336,5.0 L 7.1211,5.0 L 10.5606,8.4394 C 10.9906,8.8695 11.1194,9.5124 10.8867,10.0742 C 10.654,10.6361 10.1081,11.0 9.5,11.0 L 3.5,11.0 A 0.5,0.5 0.0 0,0 3.0,11.5 A 0.5,0.5 0.0 0,0 3.5,12.0 L 9.5,12.0 C 10.5097,12.0 11.4241,11.3899 11.8106,10.457 C 12.197,9.5242 11.9816,8.4464 11.2676,7.7324 L 7.6816,4.1465 A 0.5,0.5 0.0 0,0 7.3281,4.0 L 5.5,4.0 M 5.5,5.4023 L 6.5664,7.0 L 4.4336,7.0 L 5.5,5.4023" fill="#000" /></svg>