<svg xmlns="http://www.w3.org/2000/svg" width="16" height="16"><path d="M 8.5,3.0 C 8.223,3.0 8.0,3.224 8.0,3.5 C 8.0,3.776 8.223,4.0 8.499,4.0 L 9.661,4.0 L 10.313,5.628 L 6.185,6.453 L 5.902,6.0 L 6.0,6.0 C 6.277,5.999 6.5,5.776 6.5,5.5 C 6.5,5.224 6.277,5.001 6.001,5.0 L 4.0,5.0 C 3.723,5.001 3.5,5.224 3.5,5.5 C 3.5,5.776 3.723,5.999 4.0,6.0 L 4.723,6.0 L 7.071,9.758 C 7.159,9.903 7.318,10.0 7.5,10.0 C 7.676,10.0 7.831,9.909 7.92,9.771 L 9.912,6.783 C 9.926,6.763 9.938,6.742 9.949,6.72 L 11.089,6.492 C 11.323,6.45 11.5,6.246 11.5,6.0 C 11.5,5.93 11.486,5.864 11.46,5.804 L 10.469,3.325 C 10.398,3.136 10.215,3.0 10.0,3.0 L 8.5,3.0 M 6.752,7.36 L 8.568,6.996 L 7.514,8.578 L 6.752,7.36 M 3.5,7.0 C 2.119,7.0 1.0,8.119 1.0,9.5 C 1.0,10.881 2.119,12.0 3.5,12.0 C 4.881,12.0 6.0,10.881 6.0,9.5 C 6.0,8.119 4.881,7.0 3.5,7.0 M 2.0,9.5 C 2.0,8.672 2.672,8.0 3.5,8.0 C 4.328,8.0 5.0,8.672 5.0,9.5 C 5.0,10.328 4.328,11.0 3.5,11.0 C 2.672,11.0 2.0,10.328 2.0,9.5 M 11.5,7.0 C 10.119,7.0 9.0,8.119 9.0,9.5 C 9.0,10.881 10.119,12.0 11.5,12.0 C 12.881,12.0 14.0,10.881 14.0,9.5 C 14.0,8.119 12.881,7.0 11.5,7.0 M 10.0,9.5 C 10.0,8.672 10.672,8.0 11.5,8.0 C 12.328,8.0 13.0,8.672 13.0,9.5 C 13.0,10.328 12.328,11.0 11.5,11.0 C 10.672,11.0 10.0,10.328 10.0,9.5" fill="#000" /></svg>