<svg xmlns="http://www.w3.org/2000/svg" width="16" height="16"><path d="M 4.5,1.5 C 4.223,1.501 4.0,1.724 4.0,2.0 L 2.5,2.0 C 2.223,2.0 2.0,2.224 2.0,2.5 C 2.0,2.776 2.223,3.0 2.499,3.0 L 4.0,3.0 L 4.0,4.0 L 2.5,4.0 C 2.223,4.001 2.0,4.224 2.0,4.5 C 2.0,4.776 2.223,4.999 2.499,5.0 L 4.0,5.0 C 4.0,5.276 4.223,5.499 4.499,5.5 L 6.0,5.5 C 6.553,5.499 7.0,5.052 7.0,4.5 L 7.0,4.0 L 13.5,4.0 C 13.777,4.0 14.0,3.776 14.0,3.5 C 14.0,3.224 13.777,3.0 13.501,3.0 L 7.0,3.0 L 7.0,2.501 C 7.0,1.948 6.553,1.501 6.002,1.5 L 5.0,1.5 L 4.5,1.5 M 9.5,5.0 C 9.223,5.001 9.0,5.224 9.0,5.5 C 9.0,5.776 9.223,5.999 9.499,6.0 L 10.661,6.0 L 11.313,7.628 L 7.185,8.453 L 6.902,8.0 L 7.0,8.0 C 7.277,7.999 7.5,7.776 7.5,7.5 C 7.5,7.224 7.277,7.001 7.001,7.0 L 5.0,7.0 C 4.723,7.001 4.5,7.224 4.5,7.5 C 4.5,7.776 4.723,7.999 4.999,8.0 L 5.723,8.0 L 8.071,11.758 C 8.159,11.903 8.318,12.0 8.5,12.0 C 8.676,12.0 8.831,11.909 8.92,11.771 L 10.912,8.783 C 10.926,8.763 10.938,8.742 10.949,8.72 L 12.089,8.492 C 12.323,8.45 12.5,8.246 12.5,8.0 C 12.5,7.93 12.486,7.864 12.46,7.804 L 11.469,5.325 C 11.398,5.136 11.215,5.0 11.0,5.0 L 9.5,5.0 M 7.752,9.36 L 9.568,8.996 L 8.514,10.578 L 7.752,9.36 M 4.5,9.0 C 3.119,9.0 2.0,10.119 2.0,11.5 C 2.0,12.881 3.119,14.0 4.5,14.0 C 5.881,14.0 7.0,12.881 7.0,11.5 C 7.0,10.119 5.881,9.0 4.5,9.0 M 3.0,11.5 C 3.0,10.672 3.672,10.0 4.5,10.0 C 5.328,10.0 6.0,10.672 6.0,11.5 C 6.0,12.328 5.328,13.0 4.5,13.0 C 3.672,13.0 3.0,12.328 3.0,11.5 M 12.5,9.0 C 11.119,9.0 10.0,10.119 10.0,11.5 C 10.0,12.881 11.119,14.0 12.5,14.0 C 13.881,14.0 15.0,12.881 15.0,11.5 C 15.0,10.119 13.881,9.0 12.5,9.0 M 11.0,11.5 C 11.0,10.672 11.672,10.0 12.5,10.0 C 13.328,10.0 14.0,10.672 14.0,11.5 C 14.0,12.328 13.328,13.0 12.5,13.0 C 11.672,13.0 11.0,12.328 11.0,11.5" fill="#000" /></svg>