<svg xmlns="http://www.w3.org/2000/svg" width="16" height="16"><path d="M 5.0,6.0 A 0.5,0.5 0.0 0,0 4.5352,6.3144 L 3.5352,8.8144 A 0.5,0.5 0.0 0,0 3.9023,9.4902 L 5.0508,9.7207 A 0.5,0.5 0.0 0,0 5.084,9.7773 L 7.084,12.7773 A 0.5,0.5 0.0 0,0 7.9238,12.7656 L 10.2773,9.0 L 11.0,9.0 A 0.5,0.5 0.0 1,0 11.0,8.0 L 10.0879,8.0 A 0.5,0.5 0.0 0,0 9.9746,7.994 A 0.5,0.5 0.0 0,0 9.9258,8.0 L 9.0,8.0 A 0.5,0.5 0.0 1,0 9.0,9.0 L 9.0977,9.0 L 8.8145,9.4531 L 4.6875,8.6269 L 5.3379,7.0 L 6.5,7.0 A 0.5,0.5 0.0 1,0 6.5,6.0 L 5.0,6.0 M 6.4316,9.9961 L 8.2481,10.3594 L 7.4863,11.5781 L 6.4316,9.9961 M 3.5,10.0 C 2.1252,10.0 1.0,11.1252 1.0,12.5 C 1.0,13.8748 2.1252,15.0 3.5,15.0 C 4.8748,15.0 6.0,13.8748 6.0,12.5 C 6.0,11.1252 4.8748,10.0 3.5,10.0 M 11.5,10.0 C 10.1252,10.0 9.0,11.1252 9.0,12.5 C 9.0,13.8748 10.1252,15.0 11.5,15.0 C 12.8748,15.0 14.0,13.8748 14.0,12.5 C 14.0,11.1252 12.8748,10.0 11.5,10.0 M 3.5,11.0 C 4.3343,11.0 5.0,11.6656 5.0,12.5 C 5.0,13.3344 4.3343,14.0 3.5,14.0 C 2.6657,14.0 2.0,13.3344 2.0,12.5 C 2.0,11.6656 2.6657,11.0 3.5,11.0 M 11.5,11.0 C 12.3343,11.0 13.0,11.6656 13.0,12.5 C 13.0,13.3344 12.3343,14.0 11.5,14.0 C 10.6657,14.0 10.0,13.3344 10.0,12.5 C 10.0,11.6656 10.6657,11.0 11.5,11.0" fill="#000" /><path d="M 11.0,2.0 C 10.8674,2.0 10.7402,2.0527 10.6465,2.1465 L 9.793,3.0 L 4.0,3.0 C 3.7239,3.0 3.5,3.2239 3.5,3.5 L 3.5,4.0 C 3.5,4.1326 3.5527,4.2598 3.6465,4.3535 L 4.1465,4.8535 C 4.3417,5.0487 4.6583,5.0487 4.8535,4.8535 L 5.5,4.207 L 6.1465,4.8535 C 6.3417,5.0487 6.6583,5.0487 6.8535,4.8535 L 7.5,4.207 L 8.1465,4.8535 C 8.2403,4.9473 8.3674,5.0 8.5,5.0 L 9.793,5.0 L 10.6465,5.8535 C 10.7403,5.9473 10.8674,6.0 11.0,6.0 L 12.0,6.0 C 12.1326,6.0 12.2598,5.9473 12.3535,5.8535 L 12.8535,5.3535 C 12.9473,5.2598 13.0,5.1326 13.0,5.0 L 13.0,3.0 C 13.0,2.8674 12.9473,2.7402 12.8535,2.6465 L 12.3535,2.1465 C 12.2598,2.0527 12.1326,2.0 12.0,2.0 L 11.0,2.0 M 11.5,3.0 A 0.5,0.5 0.0 0,1 12.0,3.5 L 12.0,4.5 A 0.5,0.5 0.0 0,1 11.5,5.0 A 0.5,0.5 0.0 0,1 11.0,4.5 L 11.0,3.5 A 0.5,0.5 0.0 0,1 11.5,3.0" fill="#000" /></svg>