<svg xmlns="http://www.w3.org/2000/svg" width="16" height="16"><path d="M 2.5,2.0 C 2.223,2.0 2.0,2.224 2.0,2.5 L 2.0,8.5 C 2.0,8.776 2.223,9.0 2.499,9.0 L 7.0,9.0 L 7.0,13.5 C 7.0,13.776 7.223,14.0 7.499,14.0 L 8.5,14.0 C 8.777,14.0 9.0,13.776 9.0,13.5 L 9.0,9.0 L 13.5,9.0 C 13.777,9.0 14.0,8.776 14.0,8.5 L 14.0,2.501 C 14.0,2.224 13.777,2.0 13.501,2.0 L 2.5,2.0 M 12.5,10.0 L 11.5,10.0 C 11.223,10.0 11.0,10.224 11.0,10.5 C 11.0,10.776 11.223,11.0 11.499,11.0 L 12.5,11.0 C 12.777,11.0 13.0,10.776 13.0,10.5 C 13.0,10.224 12.777,10.0 12.501,10.0 L 12.5,10.0 M 3.5,10.0 C 3.223,10.0 3.0,10.224 3.0,10.5 C 3.0,10.776 3.223,11.0 3.499,11.0 L 4.5,11.0 C 4.777,11.0 5.0,10.776 5.0,10.5 C 5.0,10.224 4.777,10.0 4.501,10.0 L 3.5,10.0" fill="#000" /></svg>