<svg xmlns="http://www.w3.org/2000/svg" width="16" height="16"><path d="M 2.0,2.5 C 2.0,2.2239 2.2239,2.0 2.5,2.0 L 13.5,2.0 C 13.7761,2.0 14.0,2.2239 14.0,2.5 L 14.0,8.5 C 14.0,8.7761 13.7761,9.0 13.5,9.0 L 9.0,9.0 L 9.0,13.5 C 9.0,13.7761 8.7761,14.0 8.5,14.0 L 7.5,14.0 C 7.2239,14.0 7.0,13.7761 7.0,13.5 L 7.0,9.0 L 2.5,9.0 C 2.2239,9.0 2.0,8.7761 2.0,8.5 C 2.0,8.5 2.0,2.5 2.0,2.5 M 3.0,10.5 C 3.0,10.2239 3.2239,10.0 3.5,10.0 L 4.5,10.0 C 4.7761,10.0 5.0,10.2239 5.0,10.5 C 5.0,10.7761 4.7761,11.0 4.5,11.0 L 3.5,11.0 C 3.2239,11.0 3.0,10.7761 3.0,10.5 M 11.0,10.5 C 11.0,10.2239 11.2239,10.0 11.5,10.0 L 12.5,10.0 C 12.7761,10.0 13.0,10.2239 13.0,10.5 C 13.0,10.7761 12.7761,11.0 12.5,11.0 L 11.5,11.0 C 11.2239,11.0 11.0,10.7761 11.0,10.5" fill="#000" /></svg>