<svg xmlns="http://www.w3.org/2000/svg" width="16" height="16"><path d="M 5.5,2.0 C 5.0498,2.0 4.6432,2.2028 4.3672,2.5215 L 1.9375,4.8203 L 1.9395,4.8223 C 1.3611,5.3698 1.0,6.1449 1.0,7.0 C 1.0,8.6509 2.3491,10.0 4.0,10.0 C 5.6509,10.0 7.0,8.6509 7.0,7.0 C 7.0,6.7239 7.2239,6.5 7.5,6.5 C 7.7761,6.5 8.0,6.7239 8.0,7.0 C 8.0,8.6509 9.3491,10.0 11.0,10.0 C 12.6509,10.0 14.0,8.6509 14.0,7.0 C 14.0,6.1728 13.6608,5.4208 13.1152,4.877 L 10.6328,2.5215 C 10.3568,2.2028 9.9502,2.0 9.5,2.0 C 8.6775,2.0 8.0,2.6775 8.0,3.5 C 8.0,3.7761 7.7761,4.0 7.5,4.0 C 7.2239,4.0 7.0,3.7761 7.0,3.5 C 7.0,2.6775 6.3225,2.0 5.5,2.0 M 4.0,5.0 C 5.1105,5.0 6.0,5.8895 6.0,7.0 C 6.0,8.1105 5.1105,9.0 4.0,9.0 C 2.8895,9.0 2.0,8.1105 2.0,7.0 C 2.0,5.8863 2.8946,5.0 4.0,5.0 M 11.0,5.0 C 12.1099,5.0 13.0,5.8922 13.0,7.0 C 13.0,8.1105 12.1105,9.0 11.0,9.0 C 9.8895,9.0 9.0,8.1105 9.0,7.0 C 9.0,5.8895 9.8895,5.0 11.0,5.0 M 7.5,8.9336 C 7.1475,9.5683 6.6273,10.0987 6.0,10.4629 L 6.0,13.5 C 6.0,13.7761 6.2239,14.0 6.5,14.0 L 8.5,14.0 C 8.7761,14.0 9.0,13.7761 9.0,13.5 L 9.0,10.4629 C 8.3726,10.0986 7.8525,9.5687 7.5,8.9336 L 7.5,8.9336" fill="#000" /></svg>