<svg xmlns="http://www.w3.org/2000/svg" width="16" height="16"><path d="M 5.5,3.0 A 1.5,1.5 0.0 0,0 4.1426,3.8652 L 1.4375,8.4375 L 1.4475,8.4315 A 3.0,3.0 0.0 0,0 1.0,10.0001 A 3.0,3.0 0.0 0,0 4.0,13.0001 A 3.0,3.0 0.0 0,0 7.0,10.0001 A 0.5,0.5 0.0 0,1 7.5,9.5001 A 0.5,0.5 0.0 0,1 8.0,10.0001 A 3.0,3.0 0.0 0,0 11.0,13.0001 A 3.0,3.0 0.0 0,0 14.0,10.0001 A 3.0,3.0 0.0 0,0 13.5567,8.4337 L 13.5627,8.4377 L 10.8576,3.8654 A 1.5,1.5 0.0 0,0 9.5,3.0001 A 1.5,1.5 0.0 0,0 8.0,4.5001 A 0.5,0.5 0.0 0,1 7.5,5.0001 A 0.5,0.5 0.0 0,1 7.0,4.5001 A 1.5,1.5 0.0 0,0 5.5,3.0001 L 5.5,3.0 M 4.0,8.0 A 2.0,2.0 0.0 0,1 6.0,10.0 A 2.0,2.0 0.0 0,1 4.0,12.0 A 2.0,2.0 0.0 0,1 2.0,10.0 A 2.0,2.0 0.0 0,1 4.0,8.0 M 11.0,8.0 A 2.0,2.0 0.0 0,1 13.0,10.0 A 2.0,2.0 0.0 0,1 11.0,12.0 A 2.0,2.0 0.0 0,1 9.0,10.0 A 2.0,2.0 0.0 0,1 11.0,8.0" fill="#000" /></svg>