<svg xmlns="http://www.w3.org/2000/svg" width="16" height="16"><path d="M 4.0,3.0 C 2.892,3.0 2.0,3.892 2.0,5.0 L 2.0,6.0 L 2.0,7.5 C 2.0,7.777 2.223,8.0 2.5,8.0 L 6.5,8.0 C 6.777,8.0 7.0,7.777 7.0,7.5 L 7.0,6.0 L 7.0,5.0 C 7.0,3.892 6.108,3.0 5.0,3.0 L 4.0,3.0 M 11.0,3.0 C 9.892,3.0 9.0,3.892 9.0,5.0 L 9.0,6.0 L 9.0,7.5 C 9.0,7.777 9.223,8.0 9.5,8.0 L 13.5,8.0 C 13.777,8.0 14.0,7.777 14.0,7.5 L 14.0,6.0 L 14.0,5.0 C 14.0,3.892 13.108,3.0 12.0,3.0 L 11.0,3.0 M 2.0,9.0 C 1.723,9.0 1.5,9.223 1.5,9.5 C 1.5,9.777 1.723,10.0 2.0,10.0 L 4.0,10.0 L 4.0,11.0 L 1.5,11.0 C 1.223,11.0 1.0,11.223 1.0,11.5 C 1.0,11.777 1.223,12.0 1.5,12.0 L 14.5,12.0 C 14.777,12.0 15.0,11.777 15.0,11.5 C 15.0,11.223 14.777,11.0 14.5,11.0 L 12.0,11.0 L 12.0,10.0 L 14.0,10.0 C 14.277,10.0 14.5,9.777 14.5,9.5 C 14.5,9.223 14.277,9.0 14.0,9.0 L 9.0,9.0 C 8.723,9.0 8.5,9.223 8.5,9.5 C 8.5,9.777 8.723,10.0 9.0,10.0 L 11.0,10.0 L 11.0,11.0 L 5.0,11.0 L 5.0,10.0 L 7.0,10.0 C 7.277,10.0 7.5,9.777 7.5,9.5 C 7.5,9.223 7.277,9.0 7.0,9.0 L 2.0,9.0" fill="#000" /></svg>