<svg xmlns="http://www.w3.org/2000/svg" width="16" height="16"><path d="M 4.5,14.0 C 3.669,14.0 3.0,13.331 3.0,12.5 L 3.0,3.5 C 3.0,2.669 3.669,2.0 4.5,2.0 L 13.0,2.0 L 13.0,11.0 L 4.5,11.0 C 4.223,11.0 4.0,11.223 4.0,11.5 L 4.0,12.5 C 4.0,12.777 4.223,13.0 4.5,13.0 L 13.0,13.0 L 13.0,14.0 L 4.5,14.0 M 5.5,9.0 L 9.5,9.0 C 9.777,9.0 10.0,8.777 10.0,8.5 C 10.0,8.223 9.777,8.0 9.5,8.0 L 5.5,8.0 C 5.223,8.0 5.0,8.223 5.0,8.5 C 5.0,8.777 5.223,9.0 5.5,9.0 M 5.5,7.0 L 8.5,7.0 C 8.777,7.0 9.0,6.777 9.0,6.5 C 9.0,6.223 8.777,6.0 8.5,6.0 L 5.5,6.0 C 5.223,6.0 5.0,6.223 5.0,6.5 C 5.0,6.777 5.223,7.0 5.5,7.0 M 5.5,5.0 L 10.5,5.0 C 10.777,5.0 11.0,4.777 11.0,4.5 C 11.0,4.223 10.777,4.0 10.5,4.0 L 5.5,4.0 C 5.223,4.0 5.0,4.223 5.0,4.5 C 5.0,4.777 5.223,5.0 5.5,5.0" fill="#000" /></svg>