<svg xmlns="http://www.w3.org/2000/svg" width="16" height="16"><path d="M 12.5,13.0 C 12.7761,13.0 13.0,13.2239 13.0,13.5 C 13.0,13.7761 12.7761,14.0 12.5,14.0 L 4.5,14.0 C 3.6716,14.0 3.0,13.3284 3.0,12.5 L 3.0,3.5 C 3.0,2.6716 3.6716,2.0 4.5,2.0 L 12.5,2.0 C 12.7761,2.0 13.0,2.2239 13.0,2.5 L 13.0,10.5 C 13.0,10.7761 12.7761,11.0 12.5,11.0 C 12.5,11.0 4.5,11.0 4.5,11.0 C 4.2239,11.0 4.0,11.2239 4.0,11.5 L 4.0,12.5 C 4.0,12.7761 4.2239,13.0 4.5,13.0 L 12.5,13.0 M 5.5,4.0 C 5.2239,4.0 5.0,4.2239 5.0,4.5 C 5.0,4.7761 5.2239,5.0 5.5,5.0 L 10.5,5.0 C 10.7761,5.0 11.0,4.7761 11.0,4.5 C 11.0,4.2239 10.7761,4.0 10.5,4.0 L 5.5,4.0 C 5.5,4.0 5.5,4.0 5.5,4.0 M 5.5,6.0 C 5.2239,6.0 5.0,6.2239 5.0,6.5 C 5.0,6.7761 5.2239,7.0 5.5,7.0 L 8.5,7.0 C 8.7761,7.0 9.0,6.7761 9.0,6.5 C 9.0,6.2239 8.7761,6.0 8.5,6.0 C 8.5,6.0 5.5,6.0 5.5,6.0 M 5.5,8.0 C 5.2239,8.0 5.0,8.2239 5.0,8.5 C 5.0,8.7761 5.2239,9.0 5.5,9.0 L 9.5,9.0 C 9.7761,9.0 10.0,8.7761 10.0,8.5 C 10.0,8.2239 9.7761,8.0 9.5,8.0 C 9.5,8.0 5.5,8.0 5.5,8.0" fill="#000" /></svg>