<svg xmlns="http://www.w3.org/2000/svg" width="16" height="16"><path d="M 4.5,2.0 C 3.669,2.0 3.0,2.669 3.0,3.5 L 3.0,12.5 C 3.0,13.331 3.669,14.0 4.5,14.0 L 5.5,14.0 L 7.5,14.0 L 12.5,14.0 C 12.7761,14.0 13.0,13.7761 13.0,13.5 C 13.0,13.2239 12.7761,13.0 12.5,13.0 L 8.916,13.0 L 4.5,13.0 C 4.223,13.0 4.0,12.777 4.0,12.5 L 4.0,11.5 C 4.0,11.223 4.223,11.0 4.5,11.0 L 9.0,11.0 L 12.5,11.0 C 12.7761,11.0 13.0,10.7761 13.0,10.5 L 13.0,2.5 C 13.0,2.2239 12.7761,2.0 12.5,2.0 L 7.5,2.0 L 4.5,2.0 M 5.5,4.0 L 10.5,4.0 A 0.5,0.5 0.0 0,1 11.0,4.5 A 0.5,0.5 0.0 0,1 10.5,5.0 L 5.5,5.0 A 0.5,0.5 0.0 0,1 5.0,4.5 A 0.5,0.5 0.0 0,1 5.5,4.0 M 5.5,6.0 L 8.5,6.0 A 0.5,0.5 0.0 0,1 9.0,6.5 A 0.5,0.5 0.0 0,1 8.5,7.0 L 5.5,7.0 A 0.5,0.5 0.0 0,1 5.0,6.5 A 0.5,0.5 0.0 0,1 5.5,6.0 M 5.5,8.0 L 9.5,8.0 A 0.5,0.5 0.0 0,1 10.0,8.5 A 0.5,0.5 0.0 0,1 9.5,9.0 L 5.5,9.0 A 0.5,0.5 0.0 0,1 5.0,8.5 A 0.5,0.5 0.0 0,1 5.5,8.0" fill="#000" /></svg>