<svg xmlns="http://www.w3.org/2000/svg" width="16" height="16"><path d="M 4.5,2.0 C 4.223,2.0 4.0,2.223 4.0,2.5 L 4.0,11.5 C 4.0,11.777 4.223,12.0 4.5,12.0 L 5.5,12.0 C 5.777,12.0 6.0,11.777 6.0,11.5 L 6.0,2.5 C 6.0,2.223 5.777,2.0 5.5,2.0 L 4.5,2.0 M 7.5,3.0 C 7.223,3.0 7.0,3.223 7.0,3.5 L 7.0,11.5 C 7.0,11.777 7.223,12.0 7.5,12.0 L 8.5,12.0 C 8.777,12.0 9.0,11.777 9.0,11.5 L 9.0,3.5 C 9.0,3.223 8.777,3.0 8.5,3.0 L 7.5,3.0 M 11.0488,3.9902 C 11.0156,3.9923 10.9807,3.9989 10.9473,4.0078 L 9.9824,4.2656 C 9.7149,4.3373 9.5572,4.6113 9.6289,4.8789 L 11.4394,11.6406 C 11.5112,11.9082 11.7852,12.0658 12.0527,11.9941 L 13.0176,11.7344 C 13.2851,11.6627 13.4428,11.3906 13.3711,11.123 L 11.5606,4.3613 C 11.4978,4.1272 11.2813,3.976 11.0488,3.9902 M 1.5,4.0 C 1.223,4.0 1.0,4.223 1.0,4.5 L 1.0,11.5 C 1.0,11.777 1.223,12.0 1.5,12.0 L 2.5,12.0 C 2.777,12.0 3.0,11.777 3.0,11.5 L 3.0,4.5 C 3.0,4.223 2.777,4.0 2.5,4.0 L 1.5,4.0 M 1.5,13.0 C 1.223,13.0 1.0,13.223 1.0,13.5 C 1.0,13.777 1.223,14.0 1.5,14.0 L 13.5,14.0 C 13.777,14.0 14.0,13.777 14.0,13.5 C 14.0,13.223 13.777,13.0 13.5,13.0 L 1.5,13.0" fill="#000" /></svg>