<svg xmlns="http://www.w3.org/2000/svg" width="16" height="16"><path d="M 4.5,2.0 C 3.671,2.0 3.0,2.672 3.0,3.5 L 3.0,12.5 C 3.0,13.328 3.671,14.0 4.498,14.0 L 12.5,14.0 C 12.777,14.0 13.0,13.776 13.0,13.5 C 13.0,13.224 12.777,13.0 12.501,13.0 L 4.5,13.0 C 4.223,13.0 4.0,12.776 4.0,12.5 L 4.0,11.501 C 4.0,11.224 4.223,11.0 4.499,11.0 L 12.5,11.0 C 12.777,11.0 13.0,10.776 13.0,10.5 L 13.0,2.501 C 13.0,2.224 12.777,2.0 12.501,2.0 L 5.5,2.0 L 4.5,2.0 M 5.499,4.0 L 10.5,4.0 C 10.777,4.001 11.0,4.224 11.0,4.5 C 11.0,4.776 10.777,4.999 10.501,5.0 L 5.5,5.0 C 5.223,4.999 5.0,4.776 5.0,4.5 C 5.0,4.224 5.223,4.001 5.499,4.0 M 5.499,6.0 L 8.5,6.0 C 8.777,6.001 9.0,6.224 9.0,6.5 C 9.0,6.776 8.777,6.999 8.501,7.0 L 5.5,7.0 C 5.223,6.999 5.0,6.776 5.0,6.5 C 5.0,6.224 5.223,6.001 5.499,6.0 M 5.499,8.0 L 9.5,8.0 C 9.777,8.0 10.0,8.224 10.0,8.5 C 10.0,8.776 9.777,9.0 9.501,9.0 L 5.5,9.0 C 5.223,9.0 5.0,8.776 5.0,8.5 C 5.0,8.224 5.223,8.0 5.499,8.0" fill="#000" /></svg>