<svg xmlns="http://www.w3.org/2000/svg" width="16" height="16"><path d="M 2.5,2.0 C 2.223,2.0 2.0,2.223 2.0,2.5 C 2.0,2.777 2.223,3.0 2.5,3.0 L 12.5,3.0 C 12.777,3.0 13.0,2.777 13.0,2.5 C 13.0,2.223 12.777,2.0 12.5,2.0 L 2.5,2.0 M 10.1465,3.9941 C 10.0825,3.9851 10.0142,3.9901 9.9473,4.0078 L 8.9824,4.2656 C 8.7149,4.3374 8.5572,4.6114 8.6289,4.8789 L 10.4394,11.6387 C 10.5114,11.9063 10.7852,12.0659 11.0527,11.9942 L 12.0176,11.7344 C 12.2851,11.6627 12.4428,11.3887 12.3711,11.1211 L 10.5606,4.3614 C 10.5066,4.1607 10.3395,4.0208 10.1465,3.9942 L 10.1465,3.9941 M 3.5,4.0 C 3.223,4.0 3.0,4.223 3.0,4.5 L 3.0,11.5 C 3.0,11.777 3.223,12.0 3.5,12.0 L 4.5,12.0 C 4.777,12.0 5.0,11.777 5.0,11.5 L 5.0,4.5 C 5.0,4.223 4.777,4.0 4.5,4.0 L 3.5,4.0 M 6.5,4.0 C 6.223,4.0 6.0,4.223 6.0,4.5 L 6.0,11.5 C 6.0,11.777 6.223,12.0 6.5,12.0 L 7.5,12.0 C 7.777,12.0 8.0,11.777 8.0,11.5 L 8.0,4.5 C 8.0,4.223 7.777,4.0 7.5,4.0 L 6.5,4.0 M 2.5,13.0 C 2.223,13.0 2.0,13.223 2.0,13.5 C 2.0,13.777 2.223,14.0 2.5,14.0 L 12.5,14.0 C 12.777,14.0 13.0,13.777 13.0,13.5 C 13.0,13.223 12.777,13.0 12.5,13.0 L 2.5,13.0" fill="#000" /></svg>