<svg xmlns="http://www.w3.org/2000/svg" width="16" height="16"><path d="M 6.0,1.0 C 5.723,1.0 5.5,1.223 5.5,1.5 C 5.5,1.777 5.723,2.0 6.0,2.0 L 7.0,2.0 L 7.0,6.832 L 4.0996,10.6992 C 3.8231,11.0665 4.147,11.5808 4.5977,11.4902 L 7.0488,11.0 L 8.9512,11.0 L 11.4023,11.4902 C 11.853,11.5808 12.1769,11.0665 11.9004,10.6992 L 9.0,6.832 L 9.0,2.0 L 10.0,2.0 C 10.277,2.0 10.5,1.777 10.5,1.5 C 10.5,1.223 10.277,1.0 10.0,1.0 L 6.0,1.0 M 7.0,8.502 L 7.0,10.0 C 6.9672,10.0001 6.9345,10.0035 6.9023,10.01 L 5.6855,10.2539 L 7.0,8.502 M 9.0,8.502 L 10.3145,10.2539 L 9.0977,10.0098 C 9.0655,10.0033 9.0328,10.0 9.0,10.0 L 9.0,8.502 M 7.5,12.0 C 6.0,13.5 8.0,15.0 8.0,15.0 C 8.0,15.0 10.0,13.5 8.5,12.0 C 8.0,12.5 8.0,12.5 7.5,12.0" fill="#000" /></svg>