<svg xmlns="http://www.w3.org/2000/svg" width="16" height="16"><path d="M 6.5,1.0 C 6.2239,1.0 6.0,1.2239 6.0,1.5 C 6.0,1.7761 6.2239,2.0 6.5,2.0 L 7.0,2.0 L 7.0,5.832 L 4.0996,9.6992 C 3.8231,10.0665 4.147,10.5809 4.5977,10.4902 L 7.0488,10.0 L 7.5,10.0 L 8.5,10.0 L 8.9512,10.0 L 11.4023,10.4902 C 11.853,10.5808 12.1769,10.0665 11.9004,9.6992 L 9.0,5.832 L 9.0,2.0 L 9.5,2.0 C 9.7761,2.0 10.0,1.7761 10.0,1.5 C 10.0,1.2239 9.7761,1.0 9.5,1.0 L 6.5,1.0 M 7.0,7.5019 L 7.0,9.0 C 6.9672,9.0 6.9345,9.003 6.9023,9.01 L 5.6855,9.2541 L 7.0,7.5019 M 9.0,7.5019 L 10.3144,9.2539 L 9.0977,9.0098 C 9.0655,9.0038 9.0328,8.9998 9.0,8.9998 L 9.0,7.5019 M 8.0,11.0019 C 7.6567,11.0019 7.3127,11.1187 7.0352,11.3516 C 6.4801,11.8173 6.3389,12.6225 6.7012,13.25 L 7.5664,14.75 C 7.7586,15.0846 8.2414,15.0846 8.4336,14.75 L 9.2988,13.25 C 9.6611,12.6225 9.5199,11.8173 8.9648,11.3516 C 8.6873,11.1187 8.3433,11.0019 8.0,11.0019" fill="#000" /></svg>