<svg xmlns="http://www.w3.org/2000/svg" width="16" height="16"><path d="M 4.5,1.0 A 0.5,0.5 0.0 0,0 4.0,1.5 L 4.0,3.0 C 4.0,6.0 2.0,5.2476 2.0,8.0 L 2.0,14.5 C 2.0,14.777 2.223,15.0 2.5,15.0 L 7.5,15.0 C 7.777,15.0 8.0,14.777 8.0,14.5 L 8.0,8.0 C 8.0,5.0 6.0,6.0 6.0,3.0 L 6.0,1.5 A 0.5,0.5 0.0 0,0 5.5,1.0 L 4.5,1.0 M 10.5,6.0 C 10.2708,6.0004 10.0711,6.1565 10.0156,6.3789 C 9.4978,8.4502 9.7581,9.5386 10.209,10.2148 C 10.4344,10.553 10.6693,10.7727 10.8047,10.9512 C 10.9401,11.1296 11.0,11.2361 11.0,11.5 L 11.0,14.0 L 10.5,14.0 C 10.2239,14.0 10.0,14.2239 10.0,14.5 C 10.0,14.7761 10.2239,15.0 10.5,15.0 L 11.5,15.0 L 12.5,15.0 C 12.7761,15.0 13.0,14.7761 13.0,14.5 C 13.0,14.2239 12.7761,14.0 12.5,14.0 L 12.0,14.0 L 12.0,11.5 C 12.0,11.2361 12.0599,11.1296 12.1953,10.9512 C 12.3307,10.7727 12.5656,10.553 12.791,10.2148 C 13.2419,9.5386 13.5022,8.4502 12.9844,6.3789 C 12.9288,6.1565 12.7292,6.0004 12.5,6.0 L 10.5,6.0 M 3.5,9.0 L 6.5,9.0 A 0.5,0.5 0.0 0,1 7.0,9.5 L 7.0,10.5 A 0.5,0.5 0.0 0,1 6.5,11.0 L 3.5,11.0 A 0.5,0.5 0.0 0,1 3.0,10.5 L 3.0,9.5 A 0.5,0.5 0.0 0,1 3.5,9.0" fill="#000" /></svg>