<svg xmlns="http://www.w3.org/2000/svg" width="16" height="16"><path d="M 4.0,1.0 L 4.0,3.0 C 4.0,5.7285 2.3503,5.1576 2.0508,7.2871 C 2.02,7.3521 2.0,7.4231 2.0,7.5 L 2.0,8.0 L 2.0,10.0 L 2.0,14.5 C 2.0,14.777 2.223,15.0 2.5,15.0 L 7.5,15.0 C 7.777,15.0 8.0,14.777 8.0,14.5 L 8.0,10.0 L 8.0,8.0 L 8.0,7.5 C 8.0,7.4231 7.98,7.3521 7.9492,7.2871 C 7.6497,5.1576 6.0,5.7285 6.0,3.0 L 6.0,1.0 L 4.0,1.0 M 10.0,6.0 C 9.996,6.9996 9.5,9.0 10.0,10.0 C 10.5,11.0 11.0,11.0 11.0,12.0 L 11.0,14.5 C 10.5,14.5 10.0,14.5 10.0,15.0 L 13.0,15.0 C 13.0,14.5 12.5,14.5 12.0,14.5 L 12.0,12.0 C 12.0,11.0 12.5,11.0 13.0,10.0 C 13.5,9.0 13.0009,6.9999 13.0,6.0 L 10.0,6.0 M 3.0,9.0 L 7.0,9.0 L 7.0,11.0 L 3.0,11.0 L 3.0,9.0" fill="#000" /></svg>