<svg xmlns="http://www.w3.org/2000/svg" width="16" height="16"><path d="M 7.0,1.5 L 7.0,3.0 C 7.0,6.0 5.0,5.0 5.0,8.0 L 5.0,14.5 C 5.0,14.777 5.223,15.0 5.5,15.0 L 10.5,15.0 C 10.777,15.0 11.0,14.777 11.0,14.5 L 11.0,8.0 C 11.0,5.0 9.0,6.0 9.0,3.0 L 9.0,1.5 A 0.5,0.5 45.0 0,0 8.5,1.0 L 7.5,1.0 A 0.5,0.5 135.0 0,0 7.0,1.5 M 6.5,9.0 L 9.5,9.0 A 0.5,0.5 45.0 0,1 10.0,9.5 L 10.0,10.5 A 0.5,0.5 135.0 0,1 9.5,11.0 L 6.5,11.0 A 0.5,0.5 45.0 0,1 6.0,10.5 L 6.0,9.5 A 0.5,0.5 135.0 0,1 6.5,9.0" fill="#000" /></svg>