<svg xmlns="http://www.w3.org/2000/svg" width="16" height="16"><path d="M 7.5,2.0 A 5.5,5.5 0.0 0,0 2.0,7.5 A 5.5,5.5 0.0 0,0 7.5,13.0 A 5.5,5.5 0.0 0,0 13.0,7.5 A 5.5,5.5 0.0 0,0 7.5,2.0 M 7.5,2.7734 A 0.7273,0.7273 0.0 0,1 8.2266,3.5 A 0.7273,0.7273 0.0 0,1 7.5,4.2266 A 0.7273,0.7273 0.0 0,1 6.7734,3.5 A 0.7273,0.7273 0.0 0,1 7.5,2.7734 M 5.5,3.7734 A 0.7273,0.7273 0.0 0,1 6.2266,4.5 A 0.7273,0.7273 0.0 0,1 5.5,5.2266 A 0.7273,0.7273 0.0 0,1 4.7734,4.5 A 0.7273,0.7273 0.0 0,1 5.5,3.7734 M 7.5,4.7734 A 0.7273,0.7273 0.0 0,1 8.2266,5.5 A 0.7273,0.7273 0.0 0,1 7.5,6.2266 A 0.7273,0.7273 0.0 0,1 6.7734,5.5 A 0.7273,0.7273 0.0 0,1 7.5,4.7734" fill="#000" /></svg>