<svg xmlns="http://www.w3.org/2000/svg" width="16" height="16"><path d="M 2.0,7.5 C 2.0,4.4624 4.4624,2.0 7.5,2.0 C 10.5376,2.0 13.0,4.4624 13.0,7.5 C 13.0,10.5376 10.5376,13.0 7.5,13.0 C 4.4624,13.0 2.0,10.5376 2.0,7.5 M 7.5,6.207 C 7.8905,6.207 8.207,5.8905 8.207,5.5 C 8.207,5.1095 7.8905,4.793 7.5,4.793 C 7.1095,4.793 6.793,5.1095 6.793,5.5 C 6.793,5.8905 7.1095,6.207 7.5,6.207 L 7.5,6.207 M 7.5,4.207 C 7.8905,4.207 8.207,3.8905 8.207,3.5 C 8.207,3.1095 7.8905,2.793 7.5,2.793 C 7.1095,2.793 6.793,3.1095 6.793,3.5 C 6.793,3.8905 7.1095,4.207 7.5,4.207 L 7.5,4.207 M 5.5,5.207 C 5.8905,5.207 6.207,4.8905 6.207,4.5 C 6.207,4.1095 5.8905,3.793 5.5,3.793 C 5.1095,3.793 4.793,4.1095 4.793,4.5 C 4.793,4.8905 5.1095,5.207 5.5,5.207" fill="#000" /></svg>