<svg xmlns="http://www.w3.org/2000/svg" width="16" height="16"><path d="M 7.5,2.0 C 4.462,2.0 2.0,4.462 2.0,7.5 C 2.0,10.538 4.462,13.0 7.5,13.0 C 10.538,13.0 13.0,10.538 13.0,7.5 C 13.0,4.462 10.538,2.0 7.5,2.0 M 6.793,3.5 C 6.793,3.11 7.11,2.793 7.5,2.793 C 7.89,2.793 8.207,3.11 8.207,3.5 C 8.207,3.89 7.89,4.207 7.5,4.207 C 7.11,4.207 6.793,3.89 6.793,3.5 M 4.793,4.5 C 4.793,4.11 5.11,3.793 5.5,3.793 C 5.89,3.793 6.207,4.11 6.207,4.5 C 6.207,4.89 5.89,5.207 5.5,5.207 C 5.11,5.207 4.793,4.89 4.793,4.5 M 6.793,5.5 C 6.793,5.11 7.11,4.793 7.5,4.793 C 7.89,4.793 8.207,5.11 8.207,5.5 C 8.207,5.89 7.89,6.207 7.5,6.207 C 7.11,6.207 6.793,5.89 6.793,5.5" fill="#000" /></svg>