<svg xmlns="http://www.w3.org/2000/svg" width="16" height="16"><path d="M 2.0,4.0 L 2.0,6.0 L 2.5,6.0 C 2.777,6.0 3.0,5.777 3.0,5.5 L 3.0,4.5 C 3.0,4.223 2.777,4.0 2.5,4.0 L 2.0,4.0 M 4.5,4.0 C 4.223,4.0 4.0,4.223 4.0,4.5 L 4.0,5.5 C 4.0,5.777 4.223,6.0 4.5,6.0 L 7.5,6.0 C 7.777,6.0 8.0,5.777 8.0,5.5 L 8.0,4.5 C 8.0,4.223 7.777,4.0 7.5,4.0 L 4.5,4.0 M 9.5,4.0 C 9.223,4.0 9.0,4.223 9.0,4.5 L 9.0,5.5 C 9.0,5.777 9.223,6.0 9.5,6.0 L 12.5,6.0 C 12.777,6.0 13.0,5.777 13.0,5.5 L 13.0,4.5 C 13.0,4.223 12.777,4.0 12.5,4.0 L 9.5,4.0 M 2.5,7.0 C 2.223,7.0 2.0,7.223 2.0,7.5 L 2.0,8.5 C 2.0,8.777 2.223,9.0 2.5,9.0 L 5.5,9.0 C 5.777,9.0 6.0,8.777 6.0,8.5 L 6.0,7.5 C 6.0,7.223 5.777,7.0 5.5,7.0 L 2.5,7.0 M 7.5,7.0 C 7.223,7.0 7.0,7.223 7.0,7.5 L 7.0,8.5 C 7.0,8.777 7.223,9.0 7.5,9.0 L 10.5,9.0 C 10.777,9.0 11.0,8.777 11.0,8.5 L 11.0,7.5 C 11.0,7.223 10.777,7.0 10.5,7.0 L 7.5,7.0 M 12.5,7.0 C 12.223,7.0 12.0,7.223 12.0,7.5 L 12.0,8.5 C 12.0,8.777 12.223,9.0 12.5,9.0 L 13.0,9.0 L 13.0,7.0 L 12.5,7.0 M 2.0,10.0 L 2.0,12.0 L 2.5,12.0 L 3.5,12.0 C 3.777,12.0 4.0,11.777 4.0,11.5 L 4.0,10.5 C 4.0,10.223 3.777,10.0 3.5,10.0 L 2.5,10.0 L 2.0,10.0 M 5.5,10.0 C 5.223,10.0 5.0,10.223 5.0,10.5 L 5.0,11.5 C 5.0,11.777 5.223,12.0 5.5,12.0 L 8.5,12.0 C 8.777,12.0 9.0,11.777 9.0,11.5 L 9.0,10.5 C 9.0,10.223 8.777,10.0 8.5,10.0 L 5.5,10.0 M 10.5,10.0 C 10.223,10.0 10.0,10.223 10.0,10.5 L 10.0,11.5 C 10.0,11.777 10.223,12.0 10.5,12.0 L 12.5,12.0 L 13.0,12.0 L 13.0,10.0 L 12.5,10.0 L 10.5,10.0" fill="#000" /></svg>