<svg xmlns="http://www.w3.org/2000/svg" width="16" height="16"><path d="M 4.5,3.0 C 4.223,3.0 4.0,3.223 4.0,3.5 L 4.0,5.5 C 4.0,5.777 4.223,6.0 4.5,6.0 C 4.777,6.0 5.0,5.777 5.0,5.5 L 5.0,5.0 L 6.0,5.0 C 7.108,5.0 8.0,5.892 8.0,7.0 L 8.0,9.0 C 8.0,10.108 7.108,11.0 6.0,11.0 L 3.5,11.0 C 3.223,11.0 3.0,11.223 3.0,11.5 C 3.0,11.777 3.223,12.0 3.5,12.0 L 12.5,12.0 C 12.8389,12.003 13.1294,11.5766 12.9376,11.25 L 10.4376,6.75 C 9.8354,5.7069 9.4159,5.0133 8.8126,4.5625 C 8.2092,4.1117 7.4791,4.0 6.5,4.0 L 5.0,4.0 L 5.0,3.5 C 5.0,3.223 4.7771,3.0 4.5,3.0 L 4.5,3.0" fill="#000" /></svg>