<svg xmlns="http://www.w3.org/2000/svg" width="16" height="16"><path d="M 11.5,3.0 C 11.777,3.0 12.0,3.223 12.0,3.5 L 12.0,5.5 C 12.0,5.777 11.777,6.0 11.5,6.0 C 11.223,6.0 11.0,5.777 11.0,5.5 L 11.0,5.0 L 10.0,5.0 C 8.892,5.0 8.0,5.892 8.0,7.0 L 8.0,9.0 C 8.0,10.108 8.892,11.0 10.0,11.0 L 12.5,11.0 C 12.777,11.0 13.0,11.223 13.0,11.5 C 13.0,11.777 12.777,12.0 12.5,12.0 L 3.5,12.0 C 3.1611,12.003 2.8706,11.5766 3.0624,11.25 L 5.5624,6.75 C 6.1646,5.7069 6.5841,5.0133 7.1874,4.5625 C 7.7908,4.1117 8.5209,4.0 9.5,4.0 L 11.0,4.0 L 11.0,3.5 C 11.0,3.223 11.2229,3.0 11.5,3.0 L 11.5,3.0" fill="#000" /></svg>