<svg xmlns="http://www.w3.org/2000/svg" width="16" height="16"><path d="M 4.5,3.0 C 4.223,3.0 4.0,3.223 4.0,3.5 L 4.0,5.5 C 4.0,5.777 4.223,6.0 4.5,6.0 C 4.777,6.0 5.0,5.777 5.0,5.5 L 5.0,5.0 L 6.0,5.0 C 7.108,5.0 8.0,5.892 8.0,7.0 L 8.0,9.0 C 8.0,10.108 7.108,11.0 6.0,11.0 L 3.5,11.0 C 3.223,11.0 3.0,11.223 3.0,11.5 C 3.0,11.777 3.223,12.0 3.5,12.0 L 12.5,12.0 C 12.5773,12.0007 12.6538,11.9744 12.7188,11.9375 C 12.7257,11.9335 12.7432,11.9415 12.75,11.9375 C 12.8211,11.8911 12.8625,11.825 12.9062,11.75 C 12.9561,11.6722 13.0,11.5996 13.0,11.5 C 13.004,11.4377 12.991,11.3714 12.9688,11.3125 C 12.9598,11.2921 12.9487,11.2689 12.9376,11.25 L 10.4376,6.75 C 9.8354,5.7069 9.4159,5.0133 8.8126,4.5625 C 8.2092,4.1117 7.4791,4.0 6.5,4.0 L 5.0,4.0 L 5.0,3.5 C 5.0,3.223 4.7771,3.0 4.5,3.0 L 4.5,3.0" fill="#000" /></svg>