<svg xmlns="http://www.w3.org/2000/svg" width="16" height="16"><path d="M 7.7051,2.0957 L 2.2051,6.0957 C 1.8134,6.3808 2.0155,7.0006 2.5,7.0 L 3.0,7.0 L 3.0,12.5 C 3.0,12.777 3.223,13.0 3.5,13.0 L 7.0,13.0 L 7.0,10.5 C 7.0,10.223 7.223,10.0 7.5,10.0 L 8.5,10.0 C 8.777,10.0 9.0,10.223 9.0,10.5 L 9.0,13.0 L 12.5,13.0 C 12.777,13.0 13.0,12.777 13.0,12.5 L 13.0,7.0 L 13.5,7.0 C 13.9845,7.0006 14.1866,6.3809 13.7949,6.0957 L 8.2949,2.0957 C 8.1172,1.9653 7.8785,1.9684 7.7051,2.0957 L 7.7051,2.0957" fill="#000" /></svg>