<svg xmlns="http://www.w3.org/2000/svg" width="16" height="16"><path d="M 2.5,3.0 C 2.223,3.0 2.0,3.223 2.0,3.5 L 2.0,8.5 C 2.0,8.777 2.223,9.0 2.5,9.0 L 10.0,9.0 L 10.0,6.5 C 10.0,6.223 10.223,6.0 10.5,6.0 L 11.5,6.0 C 11.777,6.0 12.0,6.223 12.0,6.5 L 12.0,9.0 L 13.5,9.0 C 13.777,9.0 14.0,8.777 14.0,8.5 L 14.0,3.5 C 14.0,3.223 13.777,3.0 13.5,3.0 L 2.5,3.0 M 4.5,5.0 L 7.5,5.0 C 7.777,5.0 8.0,5.223 8.0,5.5 L 8.0,6.5 C 8.0,6.777 7.777,7.0 7.5,7.0 L 4.5,7.0 C 4.223,7.0 4.0,6.777 4.0,6.5 L 4.0,5.5 C 4.0,5.223 4.223,5.0 4.5,5.0 M 2.0,10.0 L 2.0,12.0 L 4.0,12.0 L 4.0,11.0 L 7.0,11.0 L 7.0,12.0 L 9.0,12.0 L 9.0,11.0 L 12.0,11.0 L 12.0,12.0 L 14.0,12.0 L 14.0,10.0 L 2.0,10.0" fill="#000" /></svg>