<svg xmlns="http://www.w3.org/2000/svg" width="16" height="16"><path d="M 11.5,1.0 A 0.5,0.5 0.0 0,0 11.1465,1.1465 L 10.293,2.0 L 6.5,2.0 A 0.5,0.5 0.0 0,0 6.0,2.5 A 0.5,0.5 0.0 0,0 6.5,3.0 L 7.0,3.0 L 7.0,4.5 C 7.0,4.777 7.223,5.0 7.5,5.0 C 7.777,5.0 8.0,4.777 8.0,4.5 L 8.0,3.0 L 11.0,3.0 L 11.0,13.5 C 11.0,13.777 11.223,14.0 11.5,14.0 L 12.5,14.0 C 12.777,14.0 13.0,13.777 13.0,13.5 L 13.0,3.0 L 13.5,3.0 A 0.5,0.5 0.0 0,0 14.0,2.5 L 14.0,1.5 A 0.5,0.5 0.0 0,0 13.5,1.0 L 11.5,1.0 M 2.5,3.0 C 2.223,3.0 2.0,3.223 2.0,3.5 L 2.0,4.5 L 2.0,13.5 C 2.0,13.777 2.223,14.0 2.5,14.0 L 8.5,14.0 C 8.5173,14.0 8.5339,13.9998 8.5508,13.998 C 8.8035,13.9725 9.0,13.7597 9.0,13.5 L 9.0,6.5 C 9.0,6.223 8.777,6.0 8.5,6.0 C 8.223,6.0 8.0,6.223 8.0,6.5 L 8.0,7.0 L 6.0,7.0 L 6.0,4.5 C 6.0,4.4654 5.997,4.431 5.99,4.3984 C 5.983,4.3658 5.9733,4.3346 5.9607,4.3047 C 5.9481,4.2748 5.9318,4.2473 5.9138,4.2207 C 5.8959,4.1941 5.8759,4.1691 5.8533,4.1465 C 5.8307,4.1239 5.8057,4.1039 5.7791,4.086 C 5.7525,4.0681 5.725,4.0517 5.6951,4.0391 C 5.6652,4.0265 5.634,4.0164 5.6014,4.0098 C 5.5688,4.0028 5.5345,3.9998 5.4998,3.9998 L 3.0,3.9998 L 3.0,3.4998 C 3.0,3.2228 2.777,2.9998 2.5,2.9998 L 2.5,3.0 M 3.0,5.0 L 5.0,5.0 L 5.0,7.0 L 3.0,7.0 L 3.0,5.0 M 3.0,8.0 L 5.0,8.0 L 5.0,10.0 L 3.0,10.0 L 3.0,8.0 M 6.0,8.0 L 8.0,8.0 L 8.0,10.0 L 6.0,10.0 L 6.0,8.0 M 3.0,11.0 L 5.0,11.0 L 5.0,13.0 L 3.0,13.0 L 3.0,11.0 M 6.0,11.0 L 8.0,11.0 L 8.0,13.0 L 6.0,13.0 L 6.0,11.0" fill="#000" /></svg>