<svg xmlns="http://www.w3.org/2000/svg" width="16" height="16"><path d="M 1.5,3.0 C 1.223,3.0 1.0,3.224 1.0,3.5 C 1.0,3.776 1.223,4.0 1.499,4.0 L 14.5,4.0 C 14.777,4.0 15.0,3.776 15.0,3.5 C 15.0,3.224 14.777,3.0 14.501,3.0 L 1.5,3.0 M 2.0,5.0 L 2.0,12.5 C 2.0,12.776 2.223,13.0 2.499,13.0 L 10.0,13.0 L 10.0,9.501 C 10.0,9.224 10.223,9.0 10.499,9.0 L 11.5,9.0 C 11.777,9.0 12.0,9.224 12.0,9.5 L 12.0,13.0 L 13.5,13.0 C 13.777,13.0 14.0,12.776 14.0,12.5 L 14.0,5.0 L 2.0,5.0 M 6.08,6.229 C 6.169,6.091 6.324,6.0 6.5,6.0 C 6.776,6.0 7.0,6.224 7.0,6.5 C 7.0,6.546 6.994,6.59 6.982,6.632 L 6.64,8.0 L 7.5,8.0 C 7.777,8.0 8.0,8.224 8.0,8.5 C 8.0,8.605 7.968,8.703 7.912,8.783 L 5.92,11.771 C 5.831,11.909 5.676,12.0 5.5,12.0 C 5.224,12.0 5.0,11.776 5.0,11.5 C 5.0,11.454 5.006,11.41 5.018,11.368 L 5.36,10.0 L 4.5,10.0 C 4.223,10.0 4.0,9.776 4.0,9.5 C 4.0,9.395 4.032,9.297 4.088,9.217 L 6.08,6.229" fill="#000" /></svg>