<svg xmlns="http://www.w3.org/2000/svg" width="16" height="16"><path d="M 8.0,1.0 C 7.8721,1.0 7.7441,1.0489 7.6465,1.1465 L 2.6465,6.1465 C 2.3317,6.4615 2.5547,6.9998 3.0,7.0 L 4.0,7.0 L 4.0,12.5 C 4.0,12.7761 4.2239,13.0 4.5,13.0 L 7.0,13.0 L 7.0,10.5 C 7.0,10.223 7.223,10.0 7.5,10.0 L 8.5,10.0 C 8.777,10.0 9.0,10.223 9.0,10.5 L 9.0,13.0 L 11.5,13.0 C 11.7761,13.0 12.0,12.7761 12.0,12.5 L 12.0,7.0 L 13.0,7.0 C 13.4453,6.9998 13.6683,6.4615 13.3535,6.1465 L 8.3535,1.1465 C 8.2559,1.0489 8.1279,1.0 8.0,1.0" fill="#000" /></svg>