<svg xmlns="http://www.w3.org/2000/svg" width="16" height="16"><path d="M 1.5,2.0 C 1.223,2.0 1.0,2.224 1.0,2.5 C 1.0,2.776 1.223,3.0 1.499,3.0 L 13.5,3.0 C 13.777,3.0 14.0,2.776 14.0,2.5 C 14.0,2.224 13.777,2.0 13.501,2.0 L 1.5,2.0 M 2.0,4.0 L 2.0,12.5 C 2.0,12.776 2.223,13.0 2.499,13.0 L 9.0,13.0 L 9.0,9.501 C 9.0,9.224 9.223,9.0 9.499,9.0 L 10.5,9.0 C 10.777,9.0 11.0,9.224 11.0,9.5 L 11.0,13.0 L 12.5,13.0 C 12.777,13.0 13.0,12.776 13.0,12.5 L 13.0,4.0 L 2.0,4.0 M 5.025,6.343 C 5.091,6.144 5.279,6.0 5.5,6.0 C 5.721,6.0 5.909,6.144 5.975,6.343 L 6.967,9.121 C 6.988,9.177 7.0,9.237 7.0,9.3 L 7.0,9.499 C 6.999,10.329 6.328,11.0 5.5,11.0 C 4.672,11.0 4.001,10.329 4.0,9.501 L 4.0,9.301 C 4.0,9.237 4.012,9.177 4.033,9.121 L 5.025,6.343 M 5.5,7.987 L 5.495,8.0 L 5.5,7.987" fill="#000" /></svg>