<svg xmlns="http://www.w3.org/2000/svg" width="16" height="16"><path d="M 7.5,1.0 C 7.224,1.0 7.0,1.224 7.0,1.5 L 7.0,5.5 C 7.0,5.776 7.224,6.0 7.5,6.0 C 7.57,6.0 7.636,5.986 7.696,5.96 L 12.675,3.969 C 12.865,3.898 13.0,3.715 13.0,3.5 C 13.0,3.285 12.865,3.102 12.675,3.031 L 7.696,1.04 C 7.636,1.014 7.57,1.0 7.5,1.0 M 6.5,7.0 C 6.3,7.0 6.128,7.117 6.048,7.286 L 4.057,11.267 C 4.021,11.337 4.0,11.416 4.0,11.5 C 4.0,11.776 4.223,12.0 4.499,12.0 L 10.5,12.0 C 10.777,12.0 11.0,11.776 11.0,11.5 C 11.0,11.416 10.979,11.337 10.943,11.267 L 8.952,7.286 C 8.872,7.117 8.7,7.0 8.501,7.0 L 6.5,7.0 M 3.5,13.0 C 3.223,13.0 3.0,13.224 3.0,13.5 L 3.0,14.5 C 3.0,14.776 3.223,15.0 3.499,15.0 L 11.5,15.0 C 11.777,15.0 12.0,14.776 12.0,14.5 L 12.0,13.501 C 12.0,13.224 11.777,13.0 11.501,13.0 L 3.5,13.0" fill="#000" /></svg>