<svg xmlns="http://www.w3.org/2000/svg" width="16" height="16"><path d="M 7.0,1.5 L 7.0,5.5 C 6.9997,5.8539 7.3569,6.0961 7.6856,5.9648 L 12.6856,3.9648 C 13.1065,3.7979 13.1065,3.2021 12.6856,3.0352 L 7.6856,1.0352 C 7.3791,0.912 6.9995,1.1259 7.0,1.5 M 6.5,7.0 C 6.3104,7.0002 6.1372,7.1076 6.0527,7.2773 L 4.0527,11.2773 C 3.8876,11.6096 4.129,11.9996 4.5,12.0 L 10.5,12.0 C 10.871,11.9996 11.1124,11.6096 10.9473,11.2773 L 8.9473,7.2773 C 8.8628,7.1076 8.6896,7.0002 8.5,7.0 L 6.5,7.0 M 3.5,13.0 C 3.2239,13.0 3.0,13.2239 3.0,13.5 L 3.0,14.5 C 3.0,14.7761 3.2239,15.0 3.5,15.0 L 11.5,15.0 C 11.7761,15.0 12.0,14.7761 12.0,14.5 L 12.0,13.5 C 12.0,13.2239 11.7761,13.0 11.5,13.0 L 3.5,13.0" fill="#000" /></svg>