<svg xmlns="http://www.w3.org/2000/svg" width="16" height="16"><path d="M 13.0,3.5 C 13.0,3.7146 12.8648,3.8977 12.6749,3.9686 L 7.6962,5.96 C 7.636,5.9858 7.5697,6.0 7.5,6.0 C 7.2239,6.0 7.0,5.7761 7.0,5.5 L 7.0,1.5 C 7.0,1.5 7.0,1.5 7.0,1.5 C 7.0,1.2239 7.2239,1.0 7.5,1.0 C 7.5697,1.0 7.636,1.0142 7.6962,1.04 L 12.6749,3.0314 C 12.8648,3.1023 13.0,3.2854 13.0,3.5 L 13.0,3.5 M 6.5,7.0 L 8.5,7.0 C 8.6996,7.0 8.8719,7.117 8.9521,7.2861 L 10.9427,11.2674 C 10.9793,11.3369 11.0,11.416 11.0,11.5 C 11.0,11.7761 10.7761,12.0 10.5,12.0 L 4.5,12.0 C 4.2239,12.0 4.0,11.7761 4.0,11.5 C 4.0,11.416 4.0207,11.3369 4.0573,11.2674 L 6.0479,7.2861 C 6.1281,7.117 6.3004,7.0 6.5,7.0 L 6.5,7.0 M 3.5,13.0 L 11.5,13.0 C 11.7761,13.0 12.0,13.2239 12.0,13.5 L 12.0,14.5 C 12.0,14.7761 11.7761,15.0 11.5,15.0 L 3.5,15.0 C 3.2239,15.0 3.0,14.7761 3.0,14.5 L 3.0,13.5 C 3.0,13.2239 3.2239,13.0 3.5,13.0" fill="#000" /></svg>