<svg xmlns="http://www.w3.org/2000/svg" width="16" height="16"><path d="M 6.0,3.0 C 4.338,3.0 3.0,4.338 3.0,6.0 L 13.0,6.0 C 13.0,4.338 11.662,3.0 10.0,3.0 L 6.0,3.0 M 2.5,7.0 C 2.223,7.0 2.0,7.2138 2.0,7.4785 L 2.0,7.5215 C 2.0,7.7862 2.223,8.0 2.5,8.0 L 4.4629,8.0 L 8.0,9.9297 L 11.5371,8.0 L 13.5,8.0 C 13.777,8.0 14.0,7.7862 14.0,7.5215 L 14.0,7.4785 C 14.0,7.2138 13.777,7.0 13.5,7.0 L 2.5,7.0 M 3.0,9.0 C 3.0,10.662 4.338,12.0 6.0,12.0 L 10.0,12.0 C 11.662,12.0 13.0,10.662 13.0,9.0 L 11.7969,9.0 L 8.2402,10.9394 C 8.0906,11.0214 7.9094,11.0214 7.7598,10.9394 L 4.2031,9.0 L 3.0,9.0" fill="#000" /></svg>