<svg xmlns="http://www.w3.org/2000/svg" width="16" height="16"><path d="M 10.0,12.0 L 6.0,12.0 C 4.3431,12.0 3.0,10.6569 3.0,9.0 L 4.3672,9.0 L 7.7443,10.9298 C 7.8191,10.9744 7.9066,11.0 8.0,11.0 C 8.0934,11.0 8.1809,10.9744 8.2557,10.9298 L 11.6328,9.0 L 13.0,9.0 C 13.0,10.6569 11.6569,12.0 10.0,12.0 M 11.2443,8.0702 L 8.0,9.9241 L 4.7557,8.0702 C 4.6809,8.0256 4.5934,8.0 4.5,8.0 L 2.5,8.0 C 2.2239,8.0 2.0,7.7761 2.0,7.5 C 2.0,7.2239 2.2239,7.0 2.5,7.0 L 13.5,7.0 C 13.7761,7.0 14.0,7.2239 14.0,7.5 C 14.0,7.7761 13.7761,8.0 13.5,8.0 C 13.5,8.0 11.5,8.0 11.5,8.0 C 11.4066,8.0 11.3191,8.0256 11.2443,8.0702 M 6.0,3.0 L 10.0,3.0 C 11.6569,3.0 13.0,4.3431 13.0,6.0 L 3.0,6.0 C 3.0,4.3431 4.3431,3.0 6.0,3.0" fill="#000" /></svg>