<svg xmlns="http://www.w3.org/2000/svg" width="16" height="16"><path d="M 6.0,3.0 C 4.342,3.002 3.0,4.344 3.0,6.0 L 13.0,6.0 C 13.0,4.344 11.658,3.002 10.003,3.0 L 6.0,3.0 M 2.5,7.0 C 2.223,7.001 2.0,7.224 2.0,7.5 C 2.0,7.776 2.223,7.999 2.499,8.0 L 4.5,8.0 C 4.594,8.0 4.681,8.026 4.756,8.07 L 8.0,9.924 L 11.244,8.07 C 11.319,8.026 11.406,8.0 11.499,8.0 L 13.5,8.0 C 13.777,7.999 14.0,7.776 14.0,7.5 C 14.0,7.224 13.777,7.001 13.501,7.0 L 3.0,7.0 L 2.5,7.0 M 3.0,9.0 C 3.0,10.656 4.342,11.998 5.997,12.0 L 10.0,12.0 C 11.658,11.998 13.0,10.656 13.0,9.0 L 11.633,9.0 L 8.256,10.93 C 8.181,10.974 8.093,11.0 8.0,11.0 C 7.907,11.0 7.819,10.974 7.744,10.93 L 4.367,9.0 L 3.0,9.0" fill="#000" /></svg>