<svg xmlns="http://www.w3.org/2000/svg" width="16" height="16"><path d="M 4.0,3.0 C 3.446,3.0 3.0,3.446 3.0,4.0 L 3.0,12.0 C 3.0,12.554 3.446,13.0 4.0,13.0 L 4.0,13.666 C 4.0,13.8507 4.1493,14.0 4.334,14.0 L 4.666,14.0 C 4.8507,14.0 5.0,13.8507 5.0,13.666 L 5.0,13.0 L 11.0,13.0 L 11.0,13.666 C 11.0,13.8507 11.1493,14.0 11.334,14.0 L 11.666,14.0 C 11.8507,14.0 12.0,13.8507 12.0,13.666 L 12.0,13.0 C 12.554,13.0 13.0,12.554 13.0,12.0 L 13.0,4.0 C 13.0,3.446 12.554,3.0 12.0,3.0 L 4.0,3.0 M 4.75,4.0 L 11.25,4.0 C 11.6655,4.0 12.0,4.3345 12.0,4.75 L 12.0,8.5 C 12.0,9.331 11.331,10.0 10.5,10.0 L 5.5,10.0 C 4.669,10.0 4.0,9.331 4.0,8.5 L 4.0,4.75 C 4.0,4.3345 4.3345,4.0 4.75,4.0 M 4.4746,11.0 C 4.4836,10.9996 4.4913,11.0 4.5,11.0 L 5.5,11.0 C 5.777,11.0 6.0,11.223 6.0,11.5 C 6.0,11.777 5.777,12.0 5.5,12.0 L 4.5,12.0 C 4.223,12.0 4.0,11.777 4.0,11.5 C 4.0,11.2317 4.2097,11.0133 4.4746,11.0 L 4.4746,11.0 M 10.4746,11.0 C 10.4836,10.9996 10.4913,11.0 10.5,11.0 L 11.5,11.0 C 11.777,11.0 12.0,11.223 12.0,11.5 C 12.0,11.777 11.777,12.0 11.5,12.0 L 10.5,12.0 C 10.223,12.0 10.0,11.777 10.0,11.5 C 10.0,11.2317 10.2097,11.0133 10.4746,11.0 L 10.4746,11.0" fill="#000" /></svg>