<svg xmlns="http://www.w3.org/2000/svg" width="16" height="16"><path d="M 4.0,2.0 C 3.448,2.0 3.0,2.448 3.0,3.0 C 2.415,3.0 1.889,3.154 1.521,3.521 C 1.154,3.889 1.0,4.416 1.0,4.999 L 1.0,5.5 C 1.0,5.776 1.224,6.0 1.5,6.0 C 1.776,6.0 2.0,5.776 2.0,5.5 L 2.0,5.001 C 2.0,4.583 2.097,4.361 2.229,4.229 C 2.361,4.096 2.583,4.0 3.0,4.0 L 3.0,13.5 C 3.0,13.776 3.224,14.0 3.5,14.0 L 4.5,14.0 C 4.776,14.0 5.0,13.776 5.0,13.5 L 5.0,13.0 L 11.0,13.0 L 11.0,13.5 C 11.0,13.776 11.224,14.0 11.5,14.0 L 12.5,14.0 C 12.776,14.0 13.0,13.776 13.0,13.5 L 13.0,4.0 C 13.417,4.0 13.639,4.096 13.771,4.229 C 13.903,4.361 14.0,4.583 14.0,4.999 L 14.0,5.5 C 14.0,5.776 14.224,6.0 14.5,6.0 C 14.776,6.0 15.0,5.776 15.0,5.5 L 15.0,5.001 C 15.0,4.416 14.846,3.889 14.479,3.521 C 14.111,3.154 13.585,3.0 13.003,3.0 C 13.0,2.448 12.552,2.0 12.0,2.0 L 4.0,2.0 M 6.499,3.0 L 9.5,3.0 C 9.777,3.0 10.0,3.224 10.0,3.5 C 10.0,3.776 9.777,4.0 9.501,4.0 L 6.5,4.0 C 6.223,4.0 6.0,3.776 6.0,3.5 C 6.0,3.224 6.223,3.0 6.499,3.0 M 4.0,6.0 C 4.0,5.448 4.448,5.0 5.0,5.0 L 11.0,5.0 C 11.552,5.0 12.0,5.448 12.0,6.0 L 12.0,8.5 C 12.0,9.328 11.328,10.0 10.5,10.0 L 5.5,10.0 C 4.672,10.0 4.0,9.328 4.0,8.5 L 4.0,6.5 L 4.0,6.0 M 4.0,11.5 C 4.0,11.224 4.224,11.0 4.5,11.0 L 5.5,11.0 C 5.776,11.0 6.0,11.224 6.0,11.5 C 6.0,11.776 5.776,12.0 5.5,12.0 L 4.5,12.0 C 4.224,12.0 4.0,11.776 4.0,11.5 M 10.0,11.5 C 10.0,11.224 10.224,11.0 10.5,11.0 L 11.5,11.0 C 11.776,11.0 12.0,11.224 12.0,11.5 C 12.0,11.776 11.776,12.0 11.5,12.0 L 10.5,12.0 C 10.224,12.0 10.0,11.776 10.0,11.5" fill="#000" /></svg>