<svg xmlns="http://www.w3.org/2000/svg" width="16" height="16"><path d="M 4.0,1.0 C 3.448,1.0 3.0,1.448 3.0,2.0 C 2.415,2.0 1.889,2.154 1.521,2.521 C 1.154,2.889 1.0,3.416 1.0,4.0 L 1.0,4.5 C 1.0,4.776 1.224,5.0 1.5,5.0 C 1.776,5.0 2.0,4.776 2.0,4.5 L 2.0,4.001 C 2.0,3.583 2.097,3.361 2.229,3.229 C 2.361,3.096 2.583,3.0 3.0,3.0 L 3.0,11.5 C 3.0,11.776 3.224,12.0 3.5,12.0 L 4.5,12.0 C 4.776,12.0 5.0,11.776 5.0,11.5 L 5.0,11.0 L 11.0,11.0 L 11.0,11.5 C 11.0,11.776 11.224,12.0 11.5,12.0 L 12.5,12.0 C 12.776,12.0 13.0,11.776 13.0,11.5 L 13.0,3.0 C 13.417,3.0 13.639,3.096 13.771,3.229 C 13.903,3.361 14.0,3.583 14.0,4.0 L 14.0,4.5 C 14.0,4.776 14.224,5.0 14.5,5.0 C 14.776,5.0 15.0,4.776 15.0,4.5 L 15.0,4.001 C 15.0,3.416 14.846,2.889 14.479,2.521 C 14.111,2.154 13.585,2.0 13.003,2.0 C 13.0,1.448 12.552,1.0 12.0,1.0 L 4.0,1.0 M 6.499,2.0 L 9.5,2.0 C 9.777,2.0 10.0,2.224 10.0,2.5 C 10.0,2.776 9.777,3.0 9.501,3.0 L 6.5,3.0 C 6.223,3.0 6.0,2.776 6.0,2.5 C 6.0,2.224 6.223,2.0 6.499,2.0 M 4.0,5.0 C 4.0,4.448 4.448,4.0 5.0,4.0 L 11.0,4.0 C 11.552,4.0 12.0,4.448 12.0,5.0 L 12.0,6.5 C 12.0,7.328 11.328,8.0 10.5,8.0 L 5.5,8.0 C 4.672,8.0 4.0,7.328 4.0,6.5 L 4.0,5.5 L 4.0,5.0 M 4.0,9.5 C 4.0,9.224 4.224,9.0 4.5,9.0 L 5.5,9.0 C 5.776,9.0 6.0,9.224 6.0,9.5 C 6.0,9.776 5.776,10.0 5.5,10.0 L 4.5,10.0 C 4.224,10.0 4.0,9.776 4.0,9.5 M 10.0,9.5 C 10.0,9.224 10.224,9.0 10.5,9.0 L 11.5,9.0 C 11.776,9.0 12.0,9.224 12.0,9.5 C 12.0,9.776 11.776,10.0 11.5,10.0 L 10.5,10.0 C 10.224,10.0 10.0,9.776 10.0,9.5 M 2.5,13.0 C 2.224,13.0 2.0,13.224 2.0,13.5 L 2.0,14.5 C 2.0,14.5 2.0,14.516 2.0,14.516 C 2.0,14.516 2.0,14.531 2.0,14.531 C 2.0,14.531 2.002,14.545 2.002,14.545 C 2.002,14.545 2.004,14.56 2.004,14.56 C 2.004,14.56 2.005,14.573 2.005,14.573 C 2.005,14.573 2.007,14.587 2.007,14.587 C 2.007,14.587 2.01,14.6 2.01,14.6 C 2.01,14.6 2.013,14.612 2.013,14.612 C 2.013,14.612 2.016,14.624 2.016,14.624 C 2.016,14.624 2.019,14.636 2.019,14.636 C 2.019,14.636 2.022,14.647 2.022,14.647 C 2.022,14.647 2.026,14.658 2.026,14.658 C 2.026,14.658 2.029,14.669 2.029,14.669 C 2.034,14.683 2.037,14.689 2.037,14.689 C 2.043,14.702 2.045,14.709 2.045,14.709 C 2.051,14.721 2.054,14.726 2.054,14.726 C 2.06,14.738 2.063,14.743 2.063,14.743 C 2.069,14.754 2.072,14.759 2.072,14.759 C 2.072,14.759 2.082,14.774 2.082,14.774 C 2.082,14.774 2.091,14.788 2.091,14.788 C 2.091,14.788 2.101,14.801 2.101,14.801 C 2.101,14.801 2.11,14.813 2.11,14.813 C 2.11,14.813 2.12,14.825 2.12,14.825 C 2.12,14.825 2.129,14.835 2.129,14.835 C 2.129,14.835 2.143,14.851 2.143,14.851 C 2.143,14.851 2.153,14.86 2.153,14.86 C 2.165,14.871 2.171,14.877 2.171,14.877 C 2.183,14.887 2.189,14.892 2.189,14.892 C 2.201,14.901 2.207,14.905 2.207,14.905 C 2.218,14.913 2.223,14.916 2.223,14.916 C 2.234,14.923 2.239,14.927 2.239,14.927 C 2.249,14.933 2.254,14.935 2.254,14.935 C 2.254,14.935 2.268,14.943 2.268,14.943 C 2.268,14.943 2.282,14.95 2.282,14.95 C 2.282,14.95 2.295,14.956 2.295,14.956 C 2.295,14.956 2.307,14.961 2.307,14.961 C 2.307,14.961 2.319,14.966 2.319,14.966 C 2.319,14.966 2.33,14.97 2.33,14.97 C 2.342,14.974 2.345,14.975 2.345,14.975 C 2.356,14.979 2.359,14.98 2.359,14.98 C 2.369,14.983 2.372,14.983 2.372,14.983 C 2.382,14.986 2.387,14.987 2.387,14.987 C 2.387,14.987 2.401,14.99 2.401,14.99 C 2.401,14.99 2.413,14.993 2.413,14.993 C 2.413,14.993 2.424,14.994 2.424,14.994 C 2.424,14.994 2.434,14.996 2.434,14.996 C 2.434,14.996 2.446,14.997 2.446,14.997 C 2.446,14.997 2.458,14.998 2.458,14.998 C 2.458,14.998 2.469,15.0 2.469,15.0 C 2.469,15.0 2.48,15.0 2.48,15.0 C 2.48,15.0 2.492,15.0 2.492,15.0 L 13.5,15.0 Q 13.5,15.0 13.512,15.0 Q 13.512,15.0 13.524,15.0 Q 13.534,15.0 13.537,15.0 L 13.548,14.998 Q 13.548,14.998 13.559,14.997 C 13.809,14.965 14.0,14.755 14.0,14.5 L 14.0,13.5 C 14.0,13.224 13.776,13.0 13.5,13.0 L 10.5,13.0 C 10.224,13.0 10.0,13.224 10.0,13.5 L 10.0,14.0 L 6.0,14.0 L 6.0,13.5 C 6.0,13.224 5.776,13.0 5.5,13.0 L 2.5,13.0" fill="#000" /></svg>