<svg xmlns="http://www.w3.org/2000/svg" width="16" height="16"><path d="M 5.0,2.0 C 4.446,2.0 4.0,2.446 4.0,3.0 L 4.0,9.0 C 4.0,9.554 4.446,10.0 5.0,10.0 L 7.0,10.0 L 7.0,13.0 L 5.5,13.0 C 5.223,13.0 5.0,13.223 5.0,13.5 C 5.0,13.777 5.223,14.0 5.5,14.0 L 9.5,14.0 C 9.777,14.0 10.0,13.777 10.0,13.5 C 10.0,13.223 9.777,13.0 9.5,13.0 L 8.0,13.0 L 8.0,10.0 L 10.0,10.0 C 10.554,10.0 11.0,9.554 11.0,9.0 L 11.0,3.0 C 11.0,2.446 10.554,2.0 10.0,2.0 L 5.0,2.0 M 6.0,3.0 L 9.0,3.0 C 9.554,3.0 10.0,3.446 10.0,4.0 L 10.0,7.0 C 10.0,7.554 9.554,8.0 9.0,8.0 L 6.0,8.0 C 5.446,8.0 5.0,7.554 5.0,7.0 L 5.0,4.0 C 5.0,3.446 5.446,3.0 6.0,3.0 M 6.5,4.0 C 6.223,4.0 6.0,4.223 6.0,4.5 L 6.0,5.5 C 6.0,5.777 6.223,6.0 6.5,6.0 L 8.5,6.0 C 8.777,6.0 9.0,5.777 9.0,5.5 L 9.0,4.5 C 9.0,4.223 8.777,4.0 8.5,4.0 L 6.5,4.0" fill="#000" /></svg>