<svg xmlns="http://www.w3.org/2000/svg" width="16" height="16"><path d="M 7.5,3.875 C 5.875,3.875 4.25,4.75 4.5,6.5 C 1.5,6.5 1.0,11.0 4.0,12.0 L 7.0,12.0 L 7.0,10.7676 L 4.2227,8.916 C 3.8034,8.6448 3.9968,7.9942 4.4961,7.9961 C 4.5965,7.9965 4.6946,8.0271 4.7773,8.084 L 7.0,9.5664 L 7.0,6.0 C 6.996,5.7239 7.216,5.4965 7.4922,5.4922 C 7.7744,5.4882 8.0044,5.7177 8.0,6.0 L 8.0,8.8066 L 10.3418,8.0254 C 10.3846,8.0103 10.4293,8.0011 10.4746,7.9981 C 11.0681,7.9551 11.2268,8.7992 10.6582,8.9746 L 8.0,9.8613 L 8.0,12.0 L 11.0,12.0 C 14.0,11.0 13.5,6.5 10.5,6.5 C 10.75,4.75 9.125,3.875 7.5,3.875" fill="#000" /></svg>