<svg xmlns="http://www.w3.org/2000/svg" width="16" height="16"><path d="M 6.0527,4.0019 C 5.5691,3.9507 5.3044,4.5501 5.668,4.8731 C 5.7574,4.9526 6.1458,5.489 6.3144,6.1269 C 6.4032,6.4629 6.4363,6.8301 6.3964,7.209 C 6.0507,6.8176 5.6077,6.4934 5.123,6.2578 C 4.2009,5.8096 3.1225,5.5998 2.2636,6.0586 C 1.8607,6.2726 1.9313,6.8702 2.373,6.9844 C 2.8332,7.1052 3.4914,7.4866 3.9316,7.957 C 4.1032,8.1404 4.0372,8.3169 4.1308,8.5019 C 3.8777,8.446 3.6268,8.3786 3.3593,8.3731 C 2.5645,8.3564 1.7005,8.5485 1.1328,9.1602 C 0.8276,9.4914 1.0817,10.0257 1.5312,9.9981 C 2.4101,9.9429 2.9399,10.1926 3.3183,10.5273 C 3.6968,10.8621 3.9161,11.3122 4.0234,11.6504 C 4.089,11.8584 4.2819,11.9999 4.5,12.0 L 10.5,12.0 C 10.6773,12.0003 10.8416,11.9067 10.9316,11.7539 C 11.5509,10.7028 12.3967,10.1905 13.582,9.9922 C 14.0146,9.9187 14.1495,9.3634 13.7988,9.0996 C 13.1211,8.5939 12.3076,8.4503 11.5644,8.4766 C 11.1737,8.4904 10.8879,8.6245 10.5469,8.7109 C 10.6455,8.3149 10.7025,7.9167 11.0176,7.4922 C 11.2491,7.1803 11.5075,6.904 11.7207,6.7207 C 11.8273,6.6291 11.9233,6.5613 11.9863,6.5254 C 12.035,6.4977 12.0235,6.5043 11.9943,6.5059 C 12.0033,6.5056 12.0045,6.4999 12.0138,6.4999 C 12.6738,6.4867 12.6639,5.4999 12.0038,5.4999 C 11.9958,5.4998 11.9938,5.5059 11.9862,5.5059 L 11.9862,5.5 C 10.3276,5.5433 9.4571,6.2963 8.8964,7.1231 C 8.7785,6.6928 8.8269,6.3001 8.5663,5.8574 C 8.0434,4.9691 7.2069,4.123 6.0526,4.002 L 6.0527,4.0019" fill="#000" /></svg>