<svg xmlns="http://www.w3.org/2000/svg" width="16" height="16"><path d="M 2.5,2.0 C 2.224,2.0 2.0,2.224 2.0,2.5 L 2.0,3.0 C 1.723,3.0 1.5,3.224 1.5,3.5 C 1.5,3.715 1.636,3.899 1.827,3.969 C 1.851,3.978 1.909,4.001 2.0,4.033 L 2.0,5.0 C 1.723,5.001 1.5,5.224 1.5,5.5 C 1.5,5.715 1.636,5.899 1.827,5.969 C 1.851,5.978 1.909,6.001 2.0,6.033 L 2.0,7.0 C 1.723,7.001 1.5,7.224 1.5,7.5 C 1.5,7.715 1.636,7.899 1.827,7.969 C 1.851,7.978 1.909,8.0 2.0,8.033 L 2.0,13.5 C 2.0,13.776 2.224,14.0 2.5,14.0 L 3.5,14.0 C 3.776,14.0 4.0,13.776 4.0,13.5 L 4.0,8.581 C 5.053,8.803 6.427,9.0 7.993,9.0 C 7.993,9.0 8.005,9.0 8.005,9.0 C 9.573,9.0 10.947,8.803 12.0,8.581 L 12.0,13.5 C 12.0,13.776 12.224,14.0 12.5,14.0 L 13.5,14.0 C 13.776,14.0 14.0,13.776 14.0,13.5 L 14.0,8.033 C 14.091,8.0 14.149,7.978 14.173,7.969 C 14.364,7.899 14.5,7.715 14.5,7.5 C 14.5,7.224 14.277,7.001 14.0,7.0 L 14.0,6.033 C 14.091,6.001 14.149,5.978 14.173,5.969 C 14.364,5.899 14.5,5.715 14.5,5.5 C 14.5,5.224 14.277,5.001 14.0,5.0 L 14.0,4.033 C 14.091,4.001 14.149,3.978 14.173,3.969 C 14.364,3.899 14.5,3.715 14.5,3.5 C 14.5,3.224 14.277,3.0 14.0,3.0 L 14.0,2.5 C 14.0,2.224 13.776,2.0 13.5,2.0 L 12.5,2.0 C 12.224,2.0 12.0,2.224 12.0,2.5 L 12.0,3.56 C 10.986,3.786 9.603,4.0 8.0,4.0 C 6.397,4.0 5.014,3.786 4.0,3.56 L 4.0,2.5 C 4.0,2.224 3.776,2.0 3.5,2.0 L 2.5,2.0 M 4.0,5.56 L 4.0,4.581 C 5.053,4.803 6.427,4.999 7.993,5.0 C 7.993,5.0 8.005,5.0 8.005,5.0 C 9.573,4.999 10.947,4.803 12.0,4.581 L 12.0,5.56 C 10.986,5.786 9.603,6.0 8.0,6.0 C 6.397,6.0 5.014,5.786 4.0,5.56 M 8.007,7.0 C 9.573,6.999 10.947,6.803 12.0,6.581 L 12.0,7.56 C 10.986,7.786 9.603,8.0 8.0,8.0 C 6.397,8.0 5.014,7.786 4.0,7.56 L 4.0,6.581 C 5.053,6.803 6.427,6.999 7.993,7.0 L 8.007,7.0" fill="#000" /></svg>