<svg xmlns="http://www.w3.org/2000/svg" width="16" height="16"><path d="M 8.0156,1.9863 C 8.5671,1.9953 9.0076,2.4485 9.0,3.0 L 9.0,8.0 L 10.0,8.0 C 10.1667,8.0 10.4501,7.8858 10.668,7.668 C 10.8858,7.4501 11.0,7.1667 11.0,7.0 L 11.0,5.0 C 10.992,4.4362 11.4519,3.9775 12.0156,3.9863 C 12.5671,3.9953 13.0076,4.4485 13.0,5.0 L 13.0,7.0 C 13.0,7.8333 12.6142,8.5499 12.082,9.082 C 11.5499,9.6142 10.8333,10.0 10.0,10.0 L 9.0,10.0 L 9.0,13.5 A 0.5,0.5 135.0 0,1 8.5,14.0 L 7.5,14.0 A 0.5,0.5 45.0 0,1 7.0,13.5 L 7.0,11.0 L 6.0,11.0 C 5.1667,11.0 4.4501,10.6142 3.918,10.082 C 3.3858,9.5499 3.0,8.8333 3.0,8.0 L 3.0,6.0 C 2.992,5.4362 3.4519,4.9775 4.0156,4.9863 C 4.5671,4.9953 5.0076,5.4485 5.0,6.0 L 5.0,8.0 C 5.0,8.1667 5.1142,8.4501 5.332,8.668 C 5.5499,8.8858 5.8333,9.0 6.0,9.0 L 7.0,9.0 L 7.0,3.0 C 6.992,2.4362 7.4519,1.9775 8.0156,1.9863" fill="#000" /></svg>