<svg xmlns="http://www.w3.org/2000/svg" width="16" height="16"><path d="M 6.041,2.6973 C 6.2956,3.2913 6.6013,3.8975 6.9277,4.5059 C 5.341,7.3151 3.0844,10.2086 1.1465,12.1465 C 0.7934,12.4868 1.0903,13.0791 1.5742,13.0 L 6.0,13.0 L 6.0,11.5 C 6.0,10.6716 6.6716,10.0 7.5,10.0 C 8.3284,10.0 9.0,10.6716 9.0,11.5 L 9.0,13.0 L 13.4297,13.0 C 13.9114,13.0741 14.2037,12.4855 13.8535,12.1465 C 11.9156,10.2086 9.659,7.3151 8.0723,4.5059 C 8.3987,3.8975 8.7044,3.2913 8.959,2.6973 C 9.2297,2.0882 8.2925,1.6959 8.041,2.3027 C 7.8805,2.6772 7.6946,3.0616 7.5,3.4473 C 7.3054,3.0616 7.1195,2.6772 6.959,2.3027 C 6.7073,1.6952 5.7702,2.0885 6.041,2.6973" fill="#000" /></svg>