<svg xmlns="http://www.w3.org/2000/svg" width="16" height="16"><path d="M 3.5,4.0 C 3.023,4.001 2.626,4.333 2.525,4.778 L 2.035,6.736 C 2.012,6.82 2.0,6.909 2.0,7.0 L 2.0,9.0 C 2.0,10.106 2.896,11.0 4.0,11.0 C 4.932,11.0 5.715,10.363 5.937,9.5 L 10.063,9.5 C 10.285,10.363 11.068,11.0 12.0,11.0 C 13.104,11.0 14.0,10.106 14.0,9.002 L 14.0,7.501 C 14.0,7.008 13.645,6.6 13.178,6.516 L 11.071,6.094 L 9.807,4.409 C 9.625,4.162 9.332,4.001 9.002,4.0 L 3.5,4.0 M 3.0,9.0 C 3.0,8.448 3.448,8.0 4.0,8.0 C 4.552,8.0 5.0,8.448 5.0,9.0 C 5.0,9.552 4.552,10.0 4.0,10.0 C 3.448,10.0 3.0,9.552 3.0,9.0 M 11.0,9.0 C 11.0,8.448 11.448,8.0 12.0,8.0 C 12.552,8.0 13.0,8.448 13.0,9.0 C 13.0,9.552 12.552,10.0 12.0,10.0 C 11.448,10.0 11.0,9.552 11.0,9.0" fill="#000" /></svg>