<svg xmlns="http://www.w3.org/2000/svg" width="16" height="16"><path d="M 9.0,4.0 C 9.3151,3.9999 9.6118,4.1482 9.8008,4.4004 L 11.0703,6.0938 L 13.1953,6.5195 C 13.663,6.6127 13.9998,7.0231 14.0,7.5 L 14.0,9.0 L 14.0,9.002 C 13.9993,10.1094 13.1076,11.0 12.0,11.0 C 11.0648,11.0 10.2834,10.3645 10.0625,9.5 L 5.9375,9.5 C 5.7166,10.3645 4.9352,11.0 4.0,11.0 C 2.8924,11.0 2.0007,10.1094 2.0,9.002 L 2.0,9.0 L 2.0,7.5 L 2.0,7.0 C 1.9999,6.9184 2.01,6.837 2.0293,6.7578 L 2.5293,4.7578 C 2.6405,4.3123 3.0408,3.9998 3.5,4.0 L 9.0,4.0 M 12.0,8.0 C 11.446,8.0 11.0,8.446 11.0,9.0 C 11.0,9.554 11.446,10.0 12.0,10.0 C 12.554,10.0 13.0,9.554 13.0,9.0 C 13.0,8.446 12.554,8.0 12.0,8.0 M 4.0,8.0 C 3.446,8.0 3.0,8.446 3.0,9.0 C 3.0,9.554 3.446,10.0 4.0,10.0 C 4.554,10.0 5.0,9.554 5.0,9.0 C 5.0,8.446 4.554,8.0 4.0,8.0" fill="#000" /></svg>