<svg xmlns="http://www.w3.org/2000/svg" width="16" height="16"><path d="M 9.0,8.0 C 9.3151,7.9999 9.6118,8.1482 9.8008,8.4004 L 11.0703,10.0938 L 13.1953,10.5195 C 13.663,10.6127 13.9998,11.0231 14.0,11.5 L 14.0,13.0 L 14.0,13.002 C 13.9993,14.1094 13.1076,15.0 12.0,15.0 C 11.0648,15.0 10.2834,14.3645 10.0625,13.5 L 5.9375,13.5 C 5.7166,14.3645 4.9352,15.0 4.0,15.0 C 2.8924,15.0 2.0007,14.1094 2.0,13.002 L 2.0,13.0 L 2.0,11.5 L 2.0,11.0 C 1.9999,10.9184 2.01,10.837 2.0293,10.7578 L 2.5293,8.7578 C 2.6405,8.3123 3.0408,7.9998 3.5,8.0 L 9.0,8.0 M 12.0,12.0 C 11.446,12.0 11.0,12.446 11.0,13.0 C 11.0,13.554 11.446,14.0 12.0,14.0 C 12.554,14.0 13.0,13.554 13.0,13.0 C 13.0,12.446 12.554,12.0 12.0,12.0 M 4.0,12.0 C 3.446,12.0 3.0,12.446 3.0,13.0 C 3.0,13.554 3.446,14.0 4.0,14.0 C 4.554,14.0 5.0,13.554 5.0,13.0 C 5.0,12.446 4.554,12.0 4.0,12.0" fill="#000" /><path d="M 1.5,1.0 A 0.5,0.5 0.0 0,0 1.0,1.5 L 1.0,7.5 A 0.5,0.5 0.0 0,0 1.5,8.0 A 0.5,0.5 0.0 0,0 2.0,7.5 L 2.0,6.0 L 14.0,6.0 L 14.0,7.5 A 0.5,0.5 0.0 0,0 14.5,8.0 A 0.5,0.5 0.0 0,0 15.0,7.5 L 15.0,3.5 A 0.5,0.5 0.0 0,0 14.5,3.0 A 0.5,0.5 0.0 0,0 14.0,3.5 L 14.0,5.0 L 2.0,5.0 L 2.0,1.5 A 0.5,0.5 0.0 0,0 1.5,1.0 M 4.0,2.0 A 1.0,1.0 0.0 0,0 3.0,3.0 A 1.0,1.0 0.0 0,0 4.0,4.0 L 5.0,4.0 A 1.0,1.0 0.0 0,0 6.0,3.0 A 1.0,1.0 0.0 0,0 5.0,2.0 L 4.0,2.0 M 7.4512,2.002 A 0.5,0.5 0.0 0,0 7.0,2.5 L 7.0,3.5 A 0.5,0.5 0.0 0,0 7.5,4.0 L 12.5,4.0 A 0.5,0.5 0.0 0,0 12.5977,3.0098 L 7.5977,2.0098 A 0.5,0.5 0.0 0,0 7.4512,2.0018 L 7.4512,2.002" fill="#000" /></svg>