<svg xmlns="http://www.w3.org/2000/svg" width="16" height="16"><path d="M 3.5,8.0 C 3.023,8.001 2.626,8.333 2.525,8.778 L 2.035,10.736 C 2.012,10.82 2.0,10.909 2.0,11.0 L 2.0,13.0 C 2.0,14.106 2.896,15.0 4.0,15.0 C 4.932,15.0 5.715,14.363 5.937,13.5 L 10.063,13.5 C 10.285,14.363 11.068,15.0 12.0,15.0 C 13.104,15.0 14.0,14.106 14.0,13.002 L 14.0,11.501 C 14.0,11.008 13.645,10.6 13.178,10.516 L 11.071,10.094 L 9.807,8.409 C 9.625,8.162 9.332,8.001 9.002,8.0 L 3.5,8.0 M 3.0,13.0 C 3.0,12.448 3.448,12.0 4.0,12.0 C 4.552,12.0 5.0,12.448 5.0,13.0 C 5.0,13.552 4.552,14.0 4.0,14.0 C 3.448,14.0 3.0,13.552 3.0,13.0 M 11.0,13.0 C 11.0,12.448 11.448,12.0 12.0,12.0 C 12.552,12.0 13.0,12.448 13.0,13.0 C 13.0,13.552 12.552,14.0 12.0,14.0 C 11.448,14.0 11.0,13.552 11.0,13.0" fill="#000" /><path d="M 1.5,1.0 C 1.2239,1.0 1.0,1.2239 1.0,1.5 L 1.0,7.5 C 1.0,7.7761 1.2239,8.0 1.5,8.0 C 1.7761,8.0 2.0,7.7761 2.0,7.5 L 2.0,6.0 L 14.0,6.0 L 14.0,7.5 C 14.0,7.7761 14.2239,8.0 14.5,8.0 C 14.7761,8.0 15.0,7.7761 15.0,7.5 L 15.0,3.5 C 15.0001,3.3481 14.9311,3.2043 14.8125,3.1094 C 14.8125,3.1094 14.0991,2.5467 12.8379,2.1484 C 12.2073,1.9493 11.4313,1.7856 10.5195,1.7363 C 9.6078,1.6871 8.5596,1.7519 7.3906,2.0117 C 7.1622,2.0629 6.9998,2.2659 7.0,2.5 L 7.0,5.0 L 2.0,5.0 L 2.0,1.5 C 2.0,1.2239 1.7761,1.0 1.5,1.0 M 4.0,2.0 C 3.446,2.0 3.0,2.446 3.0,3.0 C 3.0,3.554 3.446,4.0 4.0,4.0 L 5.0,4.0 C 5.554,4.0 6.0,3.554 6.0,3.0 C 6.0,2.446 5.554,2.0 5.0,2.0 L 4.0,2.0" fill="#000" /></svg>