<svg xmlns="http://www.w3.org/2000/svg" width="16" height="16"><path d="M 7.0,2.0 C 6.7729,1.9998 6.5525,2.077 6.375,2.2188 L 4.1484,4.0 L 3.0,4.0 C 2.4477,4.0001 2.0001,4.4477 2.0,5.0 L 2.0,6.0 C 2.0001,6.5523 2.4477,6.9999 3.0,7.0 C 3.0,5.892 3.892,5.0 5.0,5.0 C 6.108,5.0 7.0,5.892 7.0,7.0 L 9.0,7.0 C 9.0,5.892 9.892,5.0 11.0,5.0 C 12.108,5.0 13.0,5.892 13.0,7.0 C 13.5523,6.9999 13.9999,6.5523 14.0,6.0 L 14.0,5.0 C 13.9999,4.4477 13.5523,4.0001 13.0,4.0 L 12.4141,4.0 L 10.707,2.293 C 10.5195,2.1054 10.2652,2.0 10.0,2.0 L 7.0,2.0 M 5.0,6.0 C 4.446,6.0 4.0,6.446 4.0,7.0 C 4.0,7.554 4.446,8.0 5.0,8.0 C 5.554,8.0 6.0,7.554 6.0,7.0 C 6.0,6.446 5.554,6.0 5.0,6.0 M 11.0,6.0 C 10.446,6.0 10.0,6.446 10.0,7.0 C 10.0,7.554 10.446,8.0 11.0,8.0 C 11.554,8.0 12.0,7.554 12.0,7.0 C 12.0,6.446 11.554,6.0 11.0,6.0 M 1.5,9.0 A 0.5,0.5 0.0 0,0 1.2773,9.9473 L 3.2773,10.9473 A 0.5,0.5 0.0 0,0 3.5,11.0 L 11.5,11.0 A 0.5,0.5 0.0 0,0 11.7227,10.9473 L 13.7227,9.9473 A 0.5,0.5 0.0 0,0 13.5,9.0 L 1.5,9.0 M 3.0,12.25 A 0.5,0.5 0.0 0,0 2.6465,12.3965 C 2.2054,12.8376 1.8333,13.0 1.5,13.0 A 0.5,0.5 0.0 0,0 1.0,13.5 A 0.5,0.5 0.0 0,0 1.5,14.0 C 2.0394,14.0 2.5273,13.6558 3.0,13.2754 C 3.4696,13.6539 3.9564,14.0 4.5,14.0 C 5.0394,14.0 5.5273,13.6558 6.0,13.2754 C 6.4727,13.6558 6.9606,14.0 7.5,14.0 C 8.0394,14.0 8.5273,13.6558 9.0,13.2754 C 9.4696,13.6539 9.9564,14.0 10.5,14.0 C 11.0394,14.0 11.5273,13.6558 12.0,13.2754 C 12.4727,13.6558 12.9606,14.0 13.5,14.0 A 0.5,0.5 0.0 0,0 14.0,13.5 A 0.5,0.5 0.0 0,0 13.5,13.0 C 13.1667,13.0 12.7946,12.8376 12.3535,12.3965 A 0.5,0.5 0.0 0,0 11.6465,12.3965 C 11.2054,12.8376 10.8333,13.0 10.5,13.0 C 10.1718,13.0 9.7859,12.8289 9.3535,12.3965 A 0.5,0.5 0.0 0,0 8.6465,12.3965 C 8.2054,12.8376 7.8333,13.0 7.5,13.0 C 7.1667,13.0 6.7946,12.8376 6.3535,12.3965 A 0.5,0.5 0.0 0,0 5.6465,12.3965 C 5.2054,12.8376 4.8333,13.0 4.5,13.0 C 4.1718,13.0 3.7859,12.8289 3.3535,12.3965 A 0.5,0.5 0.0 0,0 3.0,12.25" fill="#000" /></svg>