<svg xmlns="http://www.w3.org/2000/svg" width="16" height="16"><path d="M 3.5,7.0 C 3.023,7.001 2.626,7.333 2.525,7.778 L 2.035,9.736 C 2.012,9.82 2.0,9.909 2.0,10.0 L 2.0,12.0 C 2.0,13.106 2.896,14.0 4.0,14.0 C 4.932,14.0 5.715,13.363 5.937,12.5 L 10.063,12.5 C 10.285,13.363 11.068,14.0 12.0,14.0 C 13.104,14.0 14.0,13.106 14.0,12.002 L 14.0,10.501 C 14.0,10.008 13.645,9.6 13.178,9.516 L 11.071,9.094 L 9.807,7.409 C 9.625,7.162 9.332,7.001 9.002,7.0 L 3.5,7.0 M 3.0,12.0 C 3.0,11.448 3.448,11.0 4.0,11.0 C 4.552,11.0 5.0,11.448 5.0,12.0 C 5.0,12.552 4.552,13.0 4.0,13.0 C 3.448,13.0 3.0,12.552 3.0,12.0 M 11.0,12.0 C 11.0,11.448 11.448,11.0 12.0,11.0 C 12.552,11.0 13.0,11.448 13.0,12.0 C 13.0,12.552 12.552,13.0 12.0,13.0 C 11.448,13.0 11.0,12.552 11.0,12.0" fill="#000" /><path d="M 12.0,0.8652 A 1.1343,1.1343 0.0 0,0 10.8652,2.0 A 1.1343,1.1343 0.0 0,0 10.8808,2.1699 L 8.8105,3.2051 A 1.1343,1.1343 0.0 0,0 8.0,2.8652 A 1.1343,1.1343 0.0 0,0 6.8652,4.0 A 1.1343,1.1343 0.0 0,0 8.0,5.1348 A 1.1343,1.1343 0.0 0,0 8.8086,4.7949 L 10.8809,5.8301 A 1.1343,1.1343 0.0 0,0 10.8652,6.0 A 1.1343,1.1343 0.0 0,0 12.0,7.1348 A 1.1343,1.1343 0.0 0,0 13.1348,6.0 A 1.1343,1.1343 0.0 0,0 12.0,4.8652 A 1.1343,1.1343 0.0 0,0 11.1914,5.2051 L 9.1191,4.1699 A 1.1343,1.1343 0.0 0,0 9.1347,4.0 A 1.1343,1.1343 0.0 0,0 9.1191,3.8301 L 11.1894,2.7949 A 1.1343,1.1343 0.0 0,0 12.0,3.1348 A 1.1343,1.1343 0.0 0,0 13.1348,2.0 A 1.1343,1.1343 0.0 0,0 12.0,0.8652" fill="#000" /></svg>