<svg xmlns="http://www.w3.org/2000/svg" width="16" height="16"><path d="M 3.5,7.0 C 3.023,7.001 2.626,7.333 2.525,7.778 L 2.035,9.736 C 2.012,9.82 2.0,9.909 2.0,10.0 L 2.0,12.0 C 2.0,13.106 2.896,14.0 4.0,14.0 C 4.932,14.0 5.715,13.363 5.937,12.5 L 10.063,12.5 C 10.285,13.363 11.068,14.0 12.0,14.0 C 13.104,14.0 14.0,13.106 14.0,12.002 L 14.0,10.501 C 14.0,10.008 13.645,9.6 13.178,9.516 L 11.071,9.094 L 9.807,7.409 C 9.625,7.162 9.332,7.001 9.002,7.0 L 3.5,7.0 M 3.0,12.0 C 3.0,11.448 3.448,11.0 4.0,11.0 C 4.552,11.0 5.0,11.448 5.0,12.0 C 5.0,12.552 4.552,13.0 4.0,13.0 C 3.448,13.0 3.0,12.552 3.0,12.0 M 11.0,12.0 C 11.0,11.448 11.448,11.0 12.0,11.0 C 12.552,11.0 13.0,11.448 13.0,12.0 C 13.0,12.552 12.552,13.0 12.0,13.0 C 11.448,13.0 11.0,12.552 11.0,12.0" fill="#000" /><path d="M 11.0,2.0 C 10.8674,2.0 10.7402,2.0527 10.6465,2.1465 L 9.793,3.0 L 4.0,3.0 C 3.7239,3.0 3.5,3.2239 3.5,3.5 L 3.5,4.0 C 3.5,4.1326 3.5527,4.2598 3.6465,4.3535 L 4.1465,4.8535 C 4.3417,5.0487 4.6583,5.0487 4.8535,4.8535 L 5.5,4.207 L 6.1465,4.8535 C 6.3417,5.0487 6.6583,5.0487 6.8535,4.8535 L 7.5,4.207 L 8.1465,4.8535 C 8.2403,4.9473 8.3674,5.0 8.5,5.0 L 9.793,5.0 L 10.6465,5.8535 C 10.7403,5.9473 10.8674,6.0 11.0,6.0 L 12.0,6.0 C 12.1326,6.0 12.2598,5.9473 12.3535,5.8535 L 12.8535,5.3535 C 12.9473,5.2598 13.0,5.1326 13.0,5.0 L 13.0,3.0 C 13.0,2.8674 12.9473,2.7402 12.8535,2.6465 L 12.3535,2.1465 C 12.2598,2.0527 12.1326,2.0 12.0,2.0 L 11.0,2.0 M 11.5,3.0 C 11.7761,3.0 12.0,3.2239 12.0,3.5 L 12.0,4.5 C 12.0,4.7761 11.7761,5.0 11.5,5.0 C 11.2239,5.0 11.0,4.7761 11.0,4.5 L 11.0,3.5 C 11.0,3.2239 11.2239,3.0 11.5,3.0" fill="#000" /></svg>