<svg xmlns="http://www.w3.org/2000/svg" width="16" height="16"><path d="M 7.0,8.0 C 6.7729,7.9998 6.5525,8.077 6.375,8.2188 L 4.1484,10.0 L 3.0,10.0 C 2.4477,10.0001 2.0001,10.4477 2.0,11.0 L 2.0,12.0 C 2.0001,12.5523 2.4477,12.9999 3.0,13.0 C 3.0,11.892 3.892,11.0 5.0,11.0 C 6.108,11.0 7.0,11.892 7.0,13.0 L 9.0,13.0 C 9.0,11.892 9.892,11.0 11.0,11.0 C 12.108,11.0 13.0,11.892 13.0,13.0 C 13.5523,12.9999 13.9999,12.5523 14.0,12.0 L 14.0,11.0 C 13.9999,10.4477 13.5523,10.0001 13.0,10.0 L 12.4141,10.0 L 10.707,8.293 C 10.5195,8.1054 10.2652,8.0 10.0,8.0 L 7.0,8.0 M 5.0,12.0 C 4.446,12.0 4.0,12.446 4.0,13.0 C 4.0,13.554 4.446,14.0 5.0,14.0 C 5.554,14.0 6.0,13.554 6.0,13.0 C 6.0,12.446 5.554,12.0 5.0,12.0 M 11.0,12.0 C 10.446,12.0 10.0,12.446 10.0,13.0 C 10.0,13.554 10.446,14.0 11.0,14.0 C 11.554,14.0 12.0,13.554 12.0,13.0 C 12.0,12.446 11.554,12.0 11.0,12.0" fill="#000" /><path d="M 11.0,3.0 C 10.8674,3.0 10.7402,3.0527 10.6465,3.1465 L 9.793,4.0 L 3.5,4.0 L 3.5,5.0 L 4.5,6.0 L 5.5,5.0 L 6.5,6.0 L 7.5,5.0 L 8.5,6.0 L 9.793,6.0 L 10.6465,6.8535 C 10.7403,6.9473 10.8674,7.0 11.0,7.0 L 12.0,7.0 C 12.1326,7.0 12.2598,6.9473 12.3535,6.8535 L 12.8535,6.3535 C 12.9473,6.2597 13.0,6.1326 13.0,6.0 L 13.0,4.0 C 13.0,3.8674 12.9473,3.7402 12.8535,3.6465 L 12.3535,3.1465 C 12.2598,3.0527 12.1326,3.0 12.0,3.0 L 11.0,3.0 M 11.5,4.0 C 11.777,4.0 12.0,4.223 12.0,4.5 L 12.0,5.5 C 12.0,5.777 11.777,6.0 11.5,6.0 C 11.223,6.0 11.0,5.777 11.0,5.5 L 11.0,4.5 C 11.0,4.223 11.223,4.0 11.5,4.0" fill="#000" /></svg>