<svg xmlns="http://www.w3.org/2000/svg" width="16" height="16"><path d="M 9.0,8.0 C 9.3151,7.9999 9.6118,8.1482 9.8008,8.4004 L 11.0703,10.0938 L 13.1953,10.5195 C 13.663,10.6127 13.9998,11.0231 14.0,11.5 L 14.0,13.0 L 14.0,13.002 C 13.9993,14.1094 13.1076,15.0 12.0,15.0 C 11.0648,15.0 10.2834,14.3645 10.0625,13.5 L 5.9375,13.5 C 5.7166,14.3645 4.9352,15.0 4.0,15.0 C 2.8924,15.0 2.0007,14.1094 2.0,13.002 L 2.0,13.0 L 2.0,11.5 L 2.0,11.0 C 1.9999,10.9184 2.01,10.837 2.0293,10.7578 L 2.5293,8.7578 C 2.6405,8.3123 3.0408,7.9998 3.5,8.0 L 9.0,8.0 M 12.0,12.0 C 11.446,12.0 11.0,12.446 11.0,13.0 C 11.0,13.554 11.446,14.0 12.0,14.0 C 12.554,14.0 13.0,13.554 13.0,13.0 C 13.0,12.446 12.554,12.0 12.0,12.0 M 4.0,12.0 C 3.446,12.0 3.0,12.446 3.0,13.0 C 3.0,13.554 3.446,14.0 4.0,14.0 C 4.554,14.0 5.0,13.554 5.0,13.0 C 5.0,12.446 4.554,12.0 4.0,12.0" fill="#000" /><path d="M 1.5,1.0 C 1.2239,1.0 1.0,1.2239 1.0,1.5 L 1.0,7.5 C 1.0,7.7761 1.2239,8.0 1.5,8.0 C 1.7761,8.0 2.0,7.7761 2.0,7.5 L 2.0,6.0 L 14.0,6.0 L 14.0,7.5 C 14.0,7.7761 14.2239,8.0 14.5,8.0 C 14.7761,8.0 15.0,7.7761 15.0,7.5 L 15.0,3.5 C 15.0001,3.3481 14.9311,3.2043 14.8125,3.1094 C 14.8125,3.1094 14.0991,2.5467 12.8379,2.1484 C 12.2073,1.9493 11.4313,1.7856 10.5195,1.7363 C 9.6078,1.6871 8.5596,1.7519 7.3906,2.0117 C 7.1622,2.0629 6.9998,2.2659 7.0,2.5 L 7.0,5.0 L 2.0,5.0 L 2.0,1.5 C 2.0,1.2239 1.7761,1.0 1.5,1.0 M 4.0,2.0 C 3.446,2.0 3.0,2.446 3.0,3.0 C 3.0,3.554 3.446,4.0 4.0,4.0 L 5.0,4.0 C 5.554,4.0 6.0,3.554 6.0,3.0 C 6.0,2.446 5.554,2.0 5.0,2.0 L 4.0,2.0" fill="#000" /></svg>