<svg xmlns="http://www.w3.org/2000/svg" width="16" height="16"><path d="M 9.0,7.0 C 9.3151,6.9999 9.6118,7.1482 9.8008,7.4004 L 11.0703,9.0938 L 13.1953,9.5195 C 13.663,9.6127 13.9998,10.0231 14.0,10.5 L 14.0,12.0 L 14.0,12.002 C 13.9993,13.1094 13.1076,14.0 12.0,14.0 C 11.0648,14.0 10.2834,13.3645 10.0625,12.5 L 5.9375,12.5 C 5.7166,13.3645 4.9352,14.0 4.0,14.0 C 2.8924,14.0 2.0007,13.1094 2.0,12.002 L 2.0,12.0 L 2.0,10.5 L 2.0,10.0 C 1.9999,9.9184 2.01,9.837 2.0293,9.7578 L 2.5293,7.7578 C 2.6405,7.3123 3.0408,6.9998 3.5,7.0 L 9.0,7.0 M 12.0,11.0 C 11.446,11.0 11.0,11.446 11.0,12.0 C 11.0,12.554 11.446,13.0 12.0,13.0 C 12.554,13.0 13.0,12.554 13.0,12.0 C 13.0,11.446 12.554,11.0 12.0,11.0 M 4.0,11.0 C 3.446,11.0 3.0,11.446 3.0,12.0 C 3.0,12.554 3.446,13.0 4.0,13.0 C 4.554,13.0 5.0,12.554 5.0,12.0 C 5.0,11.446 4.554,11.0 4.0,11.0" fill="#000" /><path d="M 7.0,1.0 L 7.0,1.5 C 7.0,1.777 6.777,2.0 6.5,2.0 L 5.0,2.0 C 4.446,2.0 4.0,2.446 4.0,3.0 L 11.0,3.0 C 11.0,2.446 10.554,2.0 10.0,2.0 L 8.5,2.0 C 8.223,2.0 8.0,1.777 8.0,1.5 L 8.0,1.0 L 7.0,1.0 M 6.0059,4.418 L 5.8398,5.418 C 5.794,5.691 5.9788,5.9493 6.2519,5.9941 C 6.5243,6.0387 6.7813,5.8543 6.8262,5.582 L 6.9941,4.582 C 7.0399,4.309 6.8552,4.0507 6.582,4.0059 C 6.315,3.9683 6.053,4.1332 6.0059,4.418 L 6.0059,4.418 M 8.418,4.006 C 8.1448,4.0508 7.9601,4.3091 8.0059,4.5822 L 8.1739,5.5822 C 8.2188,5.8545 8.4758,6.0389 8.7481,5.9943 C 9.0213,5.9495 9.206,5.6911 9.1602,5.4181 L 8.9942,4.4181 C 8.9473,4.135 8.6873,3.9681 8.418,4.006 L 8.418,4.006 M 4.0527,4.2774 L 3.5527,5.2774 C 3.43,5.5244 3.5305,5.8242 3.7773,5.9473 C 4.0244,6.0701 4.3241,5.9695 4.4473,5.7227 L 4.9473,4.7227 C 5.07,4.4757 4.9695,4.1759 4.7227,4.0528 C 4.4836,3.9346 4.1793,4.0244 4.0527,4.2774 M 10.2773,4.0528 C 10.0305,4.1759 9.93,4.4757 10.0527,4.7227 L 10.5527,5.7227 C 10.6758,5.9696 10.9756,6.0701 11.2227,5.9473 C 11.4695,5.8242 11.57,5.5245 11.4473,5.2774 L 10.9473,4.2774 C 10.8175,4.0174 10.5092,3.938 10.2773,4.0528" fill="#000" /></svg>