<svg xmlns="http://www.w3.org/2000/svg" width="16" height="16"><path d="M 9.0,1.0 C 9.3151,0.9999 9.6118,1.1482 9.8008,1.4004 L 11.0703,3.0938 L 13.1953,3.5195 C 13.663,3.6127 13.9998,4.0231 14.0,4.5 L 14.0,6.0 L 14.0,6.002 C 13.9993,7.1094 13.1076,8.0 12.0,8.0 C 11.0648,8.0 10.2834,7.3645 10.0625,6.5 L 5.9375,6.5 C 5.7166,7.3645 4.9352,8.0 4.0,8.0 C 2.8924,8.0 2.0007,7.1094 2.0,6.002 L 2.0,6.0 L 2.0,4.5 L 2.0,4.0 C 1.9999,3.9184 2.01,3.837 2.0293,3.7578 L 2.5293,1.7578 C 2.6405,1.3123 3.0408,0.9998 3.5,1.0 L 9.0,1.0 M 12.0,5.0 C 11.446,5.0 11.0,5.446 11.0,6.0 C 11.0,6.554 11.446,7.0 12.0,7.0 C 12.554,7.0 13.0,6.554 13.0,6.0 C 13.0,5.446 12.554,5.0 12.0,5.0 M 4.0,5.0 C 3.446,5.0 3.0,5.446 3.0,6.0 C 3.0,6.554 3.446,7.0 4.0,7.0 C 4.554,7.0 5.0,6.554 5.0,6.0 C 5.0,5.446 4.554,5.0 4.0,5.0 M 13.5,9.0 C 14.0271,9.001 14.194,9.7115 13.7227,9.9473 L 11.7227,10.9473 C 11.6535,10.9819 11.5773,10.9999 11.5,11.0 L 4.5,11.0 C 4.4227,10.9998 4.3465,10.9818 4.2773,10.9473 L 2.2773,9.9473 C 1.806,9.7115 1.9729,9.0011 2.5,9.0 L 13.5,9.0 M 12.5,12.25 C 12.6326,12.25 12.7598,12.3027 12.8535,12.3965 C 13.2946,12.8376 13.6667,13.0 14.0,13.0 C 14.2761,13.0 14.5,13.2239 14.5,13.5 C 14.5,13.7761 14.2761,14.0 14.0,14.0 C 13.4606,14.0 12.9727,13.6558 12.5,13.2754 C 12.0304,13.6539 11.5436,14.0 11.0,14.0 C 10.4606,14.0 9.9727,13.6558 9.5,13.2754 C 9.0273,13.6558 8.5394,14.0 8.0,14.0 C 7.4606,14.0 6.9727,13.6558 6.5,13.2754 C 6.0304,13.6539 5.5436,14.0 5.0,14.0 C 4.4606,14.0 3.9727,13.6558 3.5,13.2754 C 3.0273,13.6558 2.5394,14.0 2.0,14.0 C 1.7239,14.0 1.5,13.7761 1.5,13.5 C 1.5,13.2239 1.7239,13.0 2.0,13.0 C 2.3333,13.0 2.7054,12.8376 3.1465,12.3965 C 3.3418,12.2013 3.6582,12.2013 3.8535,12.3965 C 4.2946,12.8376 4.6667,13.0 5.0,13.0 C 5.3282,13.0 5.7141,12.8289 6.1465,12.3965 C 6.3418,12.2013 6.6582,12.2013 6.8535,12.3965 C 7.2946,12.8376 7.6667,13.0 8.0,13.0 C 8.3333,13.0 8.7054,12.8376 9.1465,12.3965 C 9.3418,12.2013 9.6582,12.2013 9.8535,12.3965 C 10.2946,12.8376 10.6667,13.0 11.0,13.0 C 11.3282,13.0 11.7141,12.8289 12.1465,12.3965 C 12.2403,12.3027 12.3674,12.25 12.5,12.25" fill="#000" /></svg>