<svg xmlns="http://www.w3.org/2000/svg" width="16" height="16"><path d="M 4.5,1.0 C 4.023,1.0 3.626,1.333 3.525,1.778 L 3.035,3.736 C 3.012,3.82 3.0,3.909 3.0,4.0 L 3.0,5.499 C 3.0,6.33 3.672,7.0 4.5,7.0 C 5.153,7.0 5.709,6.583 5.915,6.0 L 9.085,6.0 C 9.291,6.583 9.847,7.0 10.5,7.0 C 11.328,7.0 12.0,6.33 12.0,5.502 L 12.0,4.001 C 12.0,3.524 11.668,3.126 11.222,3.025 L 9.618,2.624 L 8.841,1.458 C 8.663,1.183 8.354,1.0 8.002,1.0 L 4.5,1.0 M 9.793,5.5 C 9.793,5.11 10.11,4.793 10.5,4.793 C 10.89,4.793 11.207,5.11 11.207,5.5 C 11.207,5.89 10.89,6.207 10.5,6.207 C 10.11,6.207 9.793,5.89 9.793,5.5 M 3.793,5.5 C 3.793,5.11 4.11,4.793 4.5,4.793 C 4.89,4.793 5.207,5.11 5.207,5.5 C 5.207,5.89 4.89,6.207 4.5,6.207 C 4.11,6.207 3.793,5.89 3.793,5.5 M 4.5,8.0 C 4.023,8.0 3.626,8.333 3.525,8.778 L 3.035,10.736 C 3.012,10.82 3.0,10.909 3.0,11.0 L 3.0,12.499 C 3.0,13.33 3.672,14.0 4.5,14.0 C 5.153,14.0 5.709,13.583 5.915,13.0 L 9.085,13.0 C 9.291,13.583 9.847,14.0 10.5,14.0 C 11.328,14.0 12.0,13.33 12.0,12.502 L 12.0,11.0 C 12.0,10.524 11.668,10.126 11.222,10.025 L 9.618,9.624 L 8.841,8.458 C 8.663,8.183 8.354,8.0 8.002,8.0 L 4.5,8.0 M 9.793,12.5 C 9.793,12.11 10.11,11.793 10.5,11.793 C 10.89,11.793 11.207,12.11 11.207,12.5 C 11.207,12.89 10.89,13.207 10.5,13.207 C 10.11,13.207 9.793,12.89 9.793,12.5 M 3.793,12.5 C 3.793,12.11 4.11,11.793 4.5,11.793 C 4.89,11.793 5.207,12.11 5.207,12.5 C 5.207,12.89 4.89,13.207 4.5,13.207 C 4.11,13.207 3.793,12.89 3.793,12.5" fill="#000" /></svg>