<svg xmlns="http://www.w3.org/2000/svg" width="16" height="16"><path d="M 9.0,7.0 C 9.3151,6.9999 9.6118,7.1482 9.8008,7.4004 L 11.0703,9.0938 L 13.1953,9.5195 C 13.663,9.6127 13.9998,10.0231 14.0,10.5 L 14.0,12.0 L 14.0,12.002 C 13.9993,13.1094 13.1076,14.0 12.0,14.0 C 11.0648,14.0 10.2834,13.3645 10.0625,12.5 L 5.9375,12.5 C 5.7166,13.3645 4.9352,14.0 4.0,14.0 C 2.8924,14.0 2.0007,13.1094 2.0,12.002 L 2.0,12.0 L 2.0,10.5 L 2.0,10.0 C 1.9999,9.9184 2.01,9.837 2.0293,9.7578 L 2.5293,7.7578 C 2.6405,7.3123 3.0408,6.9998 3.5,7.0 L 9.0,7.0 M 12.0,11.0 C 11.446,11.0 11.0,11.446 11.0,12.0 C 11.0,12.554 11.446,13.0 12.0,13.0 C 12.554,13.0 13.0,12.554 13.0,12.0 C 13.0,11.446 12.554,11.0 12.0,11.0 M 4.0,11.0 C 3.446,11.0 3.0,11.446 3.0,12.0 C 3.0,12.554 3.446,13.0 4.0,13.0 C 4.554,13.0 5.0,12.554 5.0,12.0 C 5.0,11.446 4.554,11.0 4.0,11.0" fill="#000" /><path d="M 4.5,1.5 C 3.8915,1.5002 3.3041,1.7225 2.8477,2.125 C 2.7398,2.2198 2.6779,2.3564 2.6777,2.5 C 2.6777,2.7761 2.9016,3.0 3.1777,3.0 L 4.7324,3.0 L 5.3984,4.0 L 4.7324,5.0 L 3.1777,5.0 C 2.9016,5.0 2.6777,5.2239 2.6777,5.5 C 2.6779,5.6436 2.7398,5.7802 2.8477,5.875 C 2.8537,5.88 2.8596,5.8857 2.8653,5.8906 C 3.3192,6.2838 3.899,6.4998 4.5,6.5 C 5.5198,6.5 6.4013,5.8808 6.7891,5.0 L 12.5,5.0 C 12.7761,4.9999 13.0,4.7761 13.0,4.5 L 13.0,3.5 C 13.0,3.2238 12.7761,3.0 12.5,3.0 L 6.7891,3.0 C 6.4013,2.1191 5.5198,1.5 4.5,1.5 L 4.5,1.5" fill="#000" /></svg>