<svg xmlns="http://www.w3.org/2000/svg" width="16" height="16"><path d="M 9.0,7.0 C 9.3151,6.9999 9.6118,7.1482 9.8008,7.4004 L 11.0703,9.0938 L 13.1953,9.5195 C 13.663,9.6127 13.9998,10.0231 14.0,10.5 L 14.0,12.0 L 14.0,12.002 C 13.9993,13.1094 13.1076,14.0 12.0,14.0 C 11.0648,14.0 10.2834,13.3645 10.0625,12.5 L 5.9375,12.5 C 5.7166,13.3645 4.9352,14.0 4.0,14.0 C 2.8924,14.0 2.0007,13.1094 2.0,12.002 L 2.0,12.0 L 2.0,10.5 L 2.0,10.0 C 1.9999,9.9184 2.01,9.837 2.0293,9.7578 L 2.5293,7.7578 C 2.6405,7.3123 3.0408,6.9998 3.5,7.0 L 9.0,7.0 M 12.0,11.0 C 11.446,11.0 11.0,11.446 11.0,12.0 C 11.0,12.554 11.446,13.0 12.0,13.0 C 12.554,13.0 13.0,12.554 13.0,12.0 C 13.0,11.446 12.554,11.0 12.0,11.0 M 4.0,11.0 C 3.446,11.0 3.0,11.446 3.0,12.0 C 3.0,12.554 3.446,13.0 4.0,13.0 C 4.554,13.0 5.0,12.554 5.0,12.0 C 5.0,11.446 4.554,11.0 4.0,11.0" fill="#000" /><path d="M 11.0,2.0 C 10.8674,2.0 10.7402,2.0527 10.6465,2.1465 L 9.793,3.0 L 4.0,3.0 C 3.7239,3.0 3.5,3.2239 3.5,3.5 L 3.5,4.0 C 3.5,4.1326 3.5527,4.2598 3.6465,4.3535 L 4.1465,4.8535 C 4.3417,5.0487 4.6583,5.0487 4.8535,4.8535 L 5.5,4.207 L 6.1465,4.8535 C 6.3417,5.0487 6.6583,5.0487 6.8535,4.8535 L 7.5,4.207 L 8.1465,4.8535 C 8.2403,4.9473 8.3674,5.0 8.5,5.0 L 9.793,5.0 L 10.6465,5.8535 C 10.7403,5.9473 10.8674,6.0 11.0,6.0 L 12.0,6.0 C 12.1326,6.0 12.2598,5.9473 12.3535,5.8535 L 12.8535,5.3535 C 12.9473,5.2598 13.0,5.1326 13.0,5.0 L 13.0,3.0 C 13.0,2.8674 12.9473,2.7402 12.8535,2.6465 L 12.3535,2.1465 C 12.2598,2.0527 12.1326,2.0 12.0,2.0 L 11.0,2.0 M 11.5,3.0 C 11.7761,3.0 12.0,3.2239 12.0,3.5 L 12.0,4.5 C 12.0,4.7761 11.7761,5.0 11.5,5.0 C 11.2239,5.0 11.0,4.7761 11.0,4.5 L 11.0,3.5 C 11.0,3.2239 11.2239,3.0 11.5,3.0" fill="#000" /></svg>