<svg xmlns="http://www.w3.org/2000/svg" width="16" height="16"><path d="M 9.0,7.0 C 9.3151,6.9999 9.6118,7.1482 9.8008,7.4004 L 11.0703,9.0938 L 13.1953,9.5195 C 13.663,9.6127 13.9998,10.0231 14.0,10.5 L 14.0,12.0 L 14.0,12.002 C 13.9993,13.1094 13.1076,14.0 12.0,14.0 C 11.0648,14.0 10.2834,13.3645 10.0625,12.5 L 5.9375,12.5 C 5.7166,13.3645 4.9352,14.0 4.0,14.0 C 2.8924,14.0 2.0007,13.1094 2.0,12.002 L 2.0,12.0 L 2.0,10.5 L 2.0,10.0 C 1.9999,9.9184 2.01,9.837 2.0293,9.7578 L 2.5293,7.7578 C 2.6405,7.3123 3.0408,6.9998 3.5,7.0 L 9.0,7.0 M 12.0,11.0 C 11.446,11.0 11.0,11.446 11.0,12.0 C 11.0,12.554 11.446,13.0 12.0,13.0 C 12.554,13.0 13.0,12.554 13.0,12.0 C 13.0,11.446 12.554,11.0 12.0,11.0 M 4.0,11.0 C 3.446,11.0 3.0,11.446 3.0,12.0 C 3.0,12.554 3.446,13.0 4.0,13.0 C 4.554,13.0 5.0,12.554 5.0,12.0 C 5.0,11.446 4.554,11.0 4.0,11.0" fill="#000" /><path d="M 11.0,1.5 C 11.6085,1.5002 12.1959,1.7225 12.6523,2.125 C 12.7602,2.2198 12.8221,2.3564 12.8223,2.5 C 12.8223,2.7762 12.5984,3.0 12.3223,3.0 L 10.7676,3.0 L 10.1016,4.0 L 10.7676,5.0 L 12.3223,5.0 C 12.5984,5.0 12.8223,5.2239 12.8223,5.5 C 12.8221,5.6436 12.7602,5.7802 12.6523,5.875 C 12.6463,5.88 12.6404,5.8857 12.6347,5.8906 C 12.1808,6.2838 11.601,6.4998 11.0,6.5 C 9.9802,6.5 9.0987,5.8809 8.7109,5.0 L 2.5,5.0 C 2.2239,5.0 2.0,4.7761 2.0,4.5 L 2.0,3.5 C 2.0,3.2239 2.2239,3.0 2.5,3.0 L 8.7109,3.0 C 9.0987,2.1191 9.9802,1.5 11.0,1.5 L 11.0,1.5" fill="#000" /></svg>