<svg xmlns="http://www.w3.org/2000/svg" width="16" height="16"><path d="M 9.0,7.0 C 9.3151,6.9999 9.6118,7.1482 9.8008,7.4004 L 11.0703,9.0938 L 13.1953,9.5195 C 13.663,9.6127 13.9998,10.0231 14.0,10.5 L 14.0,12.0 L 14.0,12.002 C 13.9993,13.1094 13.1076,14.0 12.0,14.0 C 11.0648,14.0 10.2834,13.3645 10.0625,12.5 L 5.9375,12.5 C 5.7166,13.3645 4.9352,14.0 4.0,14.0 C 2.8924,14.0 2.0007,13.1094 2.0,12.002 L 2.0,12.0 L 2.0,10.5 L 2.0,10.0 C 1.9999,9.9184 2.01,9.837 2.0293,9.7578 L 2.5293,7.7578 C 2.6405,7.3123 3.0408,6.9998 3.5,7.0 L 9.0,7.0 M 12.0,11.0 C 11.446,11.0 11.0,11.446 11.0,12.0 C 11.0,12.554 11.446,13.0 12.0,13.0 C 12.554,13.0 13.0,12.554 13.0,12.0 C 13.0,11.446 12.554,11.0 12.0,11.0 M 4.0,11.0 C 3.446,11.0 3.0,11.446 3.0,12.0 C 3.0,12.554 3.446,13.0 4.0,13.0 C 4.554,13.0 5.0,12.554 5.0,12.0 C 5.0,11.446 4.554,11.0 4.0,11.0" fill="#000" /><path d="M 12.0,0.8652 A 1.1343,1.1343 0.0 0,0 10.8652,2.0 A 1.1343,1.1343 0.0 0,0 10.8808,2.1699 L 8.8105,3.2051 A 1.1343,1.1343 0.0 0,0 8.0,2.8652 A 1.1343,1.1343 0.0 0,0 6.8652,4.0 A 1.1343,1.1343 0.0 0,0 8.0,5.1348 A 1.1343,1.1343 0.0 0,0 8.8086,4.7949 L 10.8809,5.8301 A 1.1343,1.1343 0.0 0,0 10.8652,6.0 A 1.1343,1.1343 0.0 0,0 12.0,7.1348 A 1.1343,1.1343 0.0 0,0 13.1348,6.0 A 1.1343,1.1343 0.0 0,0 12.0,4.8652 A 1.1343,1.1343 0.0 0,0 11.1914,5.2051 L 9.1191,4.1699 A 1.1343,1.1343 0.0 0,0 9.1347,4.0 A 1.1343,1.1343 0.0 0,0 9.1191,3.8301 L 11.1894,2.7949 A 1.1343,1.1343 0.0 0,0 12.0,3.1348 A 1.1343,1.1343 0.0 0,0 13.1348,2.0 A 1.1343,1.1343 0.0 0,0 12.0,0.8652" fill="#000" /></svg>