<svg xmlns="http://www.w3.org/2000/svg" width="16" height="16"><path d="M 3.5,7.0 C 3.023,7.001 2.626,7.333 2.525,7.778 L 2.035,9.736 C 2.012,9.82 2.0,9.909 2.0,10.0 L 2.0,12.0 C 2.0,13.106 2.896,14.0 4.0,14.0 C 4.932,14.0 5.715,13.363 5.937,12.5 L 10.063,12.5 C 10.285,13.363 11.068,14.0 12.0,14.0 C 13.104,14.0 14.0,13.106 14.0,12.002 L 14.0,10.501 C 14.0,10.008 13.645,9.6 13.178,9.516 L 11.071,9.094 L 9.807,7.409 C 9.625,7.162 9.332,7.001 9.002,7.0 L 3.5,7.0 M 3.0,12.0 C 3.0,11.448 3.448,11.0 4.0,11.0 C 4.552,11.0 5.0,11.448 5.0,12.0 C 5.0,12.552 4.552,13.0 4.0,13.0 C 3.448,13.0 3.0,12.552 3.0,12.0 M 11.0,12.0 C 11.0,11.448 11.448,11.0 12.0,11.0 C 12.552,11.0 13.0,11.448 13.0,12.0 C 13.0,12.552 12.552,13.0 12.0,13.0 C 11.448,13.0 11.0,12.552 11.0,12.0" fill="#000" /><path d="M 11.0,1.5 C 11.6085,1.5002 12.1959,1.7225 12.6523,2.125 C 12.7602,2.2198 12.8221,2.3564 12.8223,2.5 C 12.8223,2.7762 12.5984,3.0 12.3223,3.0 L 10.7676,3.0 L 10.1016,4.0 L 10.7676,5.0 L 12.3223,5.0 C 12.5984,5.0 12.8223,5.2239 12.8223,5.5 C 12.8221,5.6436 12.7602,5.7802 12.6523,5.875 C 12.6463,5.88 12.6404,5.8857 12.6347,5.8906 C 12.1808,6.2838 11.601,6.4998 11.0,6.5 C 9.9802,6.5 9.0987,5.8809 8.7109,5.0 L 2.5,5.0 C 2.2239,5.0 2.0,4.7761 2.0,4.5 L 2.0,3.5 C 2.0,3.2239 2.2239,3.0 2.5,3.0 L 8.7109,3.0 C 9.0987,2.1191 9.9802,1.5 11.0,1.5 L 11.0,1.5" fill="#000" /></svg>