<svg xmlns="http://www.w3.org/2000/svg" width="16" height="16"><path d="M 4.5,1.0 C 4.0408,0.9998 3.6405,1.3123 3.5293,1.7578 L 3.0293,3.7578 C 3.0097,3.837 2.9999,3.9184 3.0,4.0 L 3.0,5.5 L 3.0,5.502 C 3.001,6.3317 3.6699,7.0 4.5,7.0 C 5.1555,7.0 5.711,6.5837 5.916,6.0 L 9.084,6.0 C 9.289,6.5837 9.8445,7.0 10.5,7.0 C 11.3301,7.0 11.9986,6.3317 12.0,5.502 L 12.0,5.5 L 12.0,4.0 C 12.0002,3.5408 11.6877,3.1405 11.2422,3.0293 L 9.6172,2.623 L 8.832,1.4453 C 8.6466,1.1671 8.3343,1.0 8.0,1.0 L 6.0,1.0 L 4.5,1.0 M 4.5,4.793 C 4.6807,4.793 4.8615,4.8615 5.0,5.0 C 5.277,5.277 5.277,5.723 5.0,6.0 C 4.723,6.277 4.277,6.277 4.0,6.0 C 3.723,5.723 3.723,5.277 4.0,5.0 C 4.1385,4.8615 4.3193,4.793 4.5,4.793 M 10.5,4.793 C 10.6807,4.793 10.8615,4.8615 11.0,5.0 C 11.277,5.277 11.277,5.723 11.0,6.0 C 10.723,6.277 10.277,6.277 10.0,6.0 C 9.723,5.723 9.723,5.277 10.0,5.0 C 10.1385,4.8615 10.3193,4.793 10.5,4.793 M 4.5,8.0 C 4.0408,7.9998 3.6405,8.3123 3.5293,8.7578 L 3.0293,10.7578 C 3.0097,10.837 2.9999,10.9184 3.0,11.0 L 3.0,12.5 L 3.0,12.502 C 3.001,13.3318 3.6699,14.0 4.5,14.0 C 5.1555,14.0 5.711,13.5837 5.916,13.0 L 9.084,13.0 C 9.289,13.5837 9.8445,14.0 10.5,14.0 C 11.3301,14.0 11.9986,13.3318 12.0,12.502 L 12.0,12.5 L 12.0,11.0 C 12.0002,10.5408 11.6877,10.1405 11.2422,10.0293 L 9.6172,9.623 L 8.832,8.4453 C 8.6466,8.1671 8.3343,8.0 8.0,8.0 L 6.0,8.0 L 4.5,8.0 M 4.5,11.793 C 4.6807,11.793 4.8615,11.8615 5.0,12.0 C 5.277,12.277 5.277,12.723 5.0,13.0 C 4.723,13.277 4.277,13.277 4.0,13.0 C 3.723,12.723 3.723,12.277 4.0,12.0 C 4.1385,11.8615 4.3192,11.793 4.5,11.793 M 10.5,11.793 C 10.6808,11.793 10.8615,11.8615 11.0,12.0 C 11.277,12.277 11.277,12.723 11.0,13.0 C 10.723,13.277 10.277,13.277 10.0,13.0 C 9.723,12.723 9.723,12.277 10.0,12.0 C 10.1385,11.8615 10.3193,11.793 10.5,11.793" fill="#000" /></svg>