<svg xmlns="http://www.w3.org/2000/svg" width="16" height="16"><path d="M 3.0,1.0 C 2.446,1.0 2.0,1.446 2.0,2.0 L 2.0,12.0 C 2.0,12.554 2.446,13.0 3.0,13.0 L 8.0,13.0 L 8.0,11.0 C 8.0,9.892 8.892,9.0 10.0,9.0 L 11.0,9.0 L 11.0,2.0 C 11.0,1.446 10.554,1.0 10.0,1.0 L 3.0,1.0 M 6.9297,4.2422 L 8.4297,6.7422 C 8.5251,6.9008 8.5251,7.0992 8.4297,7.2578 L 6.9297,9.7578 C 6.7358,10.0835 6.2642,10.0835 6.0703,9.7578 L 4.5703,7.2578 C 4.4749,7.0992 4.4749,6.9008 4.5703,6.7422 L 6.0703,4.2422 C 6.2644,3.9197 6.7356,3.9197 6.9297,4.2422 M 10.0,10.0 C 9.446,10.0 9.0,10.446 9.0,11.0 L 9.0,14.0 C 9.0,14.554 9.446,15.0 10.0,15.0 L 13.0,15.0 C 13.554,15.0 14.0,14.554 14.0,14.0 L 14.0,11.0 C 14.0,10.446 13.554,10.0 13.0,10.0 L 10.0,10.0 M 10.5,10.7734 C 10.9011,10.7738 11.2262,11.0989 11.2266,11.5 C 11.2262,11.9011 10.9011,12.2262 10.5,12.2266 C 10.0989,12.2262 9.7738,11.9011 9.7734,11.5 C 9.7738,11.0989 10.0989,10.7738 10.5,10.7734 M 12.5,12.7734 C 12.9011,12.7738 13.2262,13.0989 13.2266,13.5 C 13.2262,13.9011 12.9011,14.2262 12.5,14.2266 C 12.0989,14.2262 11.7738,13.9011 11.7734,13.5 C 11.7738,13.0989 12.0989,12.7738 12.5,12.7734" fill="#000" /></svg>