<svg xmlns="http://www.w3.org/2000/svg" width="16" height="16"><path d="M 8.5,3.0 C 8.441,3.0 8.384,3.01 8.331,3.029 L 5.353,4.022 C 5.218,4.063 5.108,4.16 5.048,4.286 L 4.067,6.249 L 3.088,7.717 C 3.05,7.772 3.023,7.834 3.01,7.901 L 2.014,12.381 C 2.005,12.419 2.0,12.459 2.0,12.5 C 2.0,12.776 2.223,13.0 2.499,13.0 L 5.5,13.0 C 5.726,13.0 5.915,12.851 5.978,12.647 L 6.909,9.855 L 8.401,9.108 L 10.089,10.796 L 11.048,12.714 C 11.128,12.883 11.3,13.0 11.499,13.0 L 13.5,13.0 C 13.777,13.0 14.0,12.776 14.0,12.5 C 14.0,12.463 13.996,12.427 13.988,12.392 L 12.992,7.411 C 12.983,7.36 12.966,7.312 12.943,7.267 L 11.952,5.286 C 11.912,5.202 11.849,5.13 11.771,5.08 L 8.783,3.088 C 8.703,3.032 8.605,3.0 8.5,3.0" fill="#000" /></svg>