<svg xmlns="http://www.w3.org/2000/svg" width="16" height="16"><path d="M 2.0,12.5 C 2.0,12.459 2.0049,12.4191 2.0143,12.381 L 3.0098,7.9011 C 3.0233,7.8339 3.0502,7.7715 3.0878,7.717 L 4.0667,6.2485 L 5.0479,4.2861 C 5.1075,4.1604 5.218,4.0635 5.3528,4.022 L 8.3308,3.0293 C 8.3836,3.0103 8.4406,3.0 8.5,3.0 C 8.6051,3.0 8.7026,3.0324 8.783,3.0878 L 11.7709,5.0797 C 11.8489,5.1301 11.912,5.2016 11.9521,5.2861 L 12.9427,7.2674 C 12.9661,7.3118 12.983,7.36 12.9921,7.411 L 13.9883,12.3918 C 13.996,12.4267 14.0,12.4629 14.0,12.5 C 14.0,12.7761 13.7761,13.0 13.5,13.0 L 11.5,13.0 C 11.3004,13.0 11.1281,12.883 11.0479,12.7139 L 10.0891,10.7962 L 8.4013,9.1084 L 6.9089,9.8546 L 5.978,12.6472 C 5.9152,12.8515 5.7249,13.0 5.5,13.0 L 2.5,13.0 C 2.2239,13.0 2.0,12.7761 2.0,12.5 L 2.0,12.5" fill="#000" /></svg>