<svg xmlns="http://www.w3.org/2000/svg" width="16" height="16"><path d="M 8.4688,3.0 C 8.4255,3.0029 8.3829,3.0115 8.3418,3.0254 L 5.3418,4.0254 C 5.2158,4.0676 5.1118,4.1583 5.0527,4.2773 L 4.0898,6.2031 L 3.1465,7.1465 C 3.0767,7.2164 3.0291,7.3054 3.0098,7.4023 L 2.0098,12.4023 C 1.9482,12.7116 2.1847,12.9999 2.5,13.0 L 5.5,13.0 C 5.7153,13.0001 5.9065,12.8624 5.9746,12.6582 L 6.9082,9.8555 L 8.4004,9.1074 L 10.0898,10.7969 L 11.0527,12.7227 C 11.1372,12.8924 11.3104,12.9998 11.5,13.0 L 13.5,13.0 C 13.8153,12.9999 14.0518,12.7116 13.9902,12.4023 L 12.9902,7.4023 C 12.9812,7.359 12.967,7.3169 12.9472,7.2773 L 11.9472,5.2773 C 11.9084,5.1992 11.8498,5.1325 11.7773,5.084 L 8.7773,3.084 C 8.6864,3.023 8.578,2.9935 8.4687,3.0 L 8.4688,3.0" fill="#000" /></svg>