<svg xmlns="http://www.w3.org/2000/svg" width="16" height="16"><path d="M 5.5,4.0 C 5.3104,4.0002 5.1372,4.1076 5.0527,4.2773 L 4.0898,6.2031 L 3.1465,7.1465 C 3.0826,7.2107 3.0374,7.291 3.0156,7.3789 L 2.0156,11.3789 C 1.937,11.6941 2.1751,11.9995 2.5,12.0 L 4.5,12.0 C 4.7153,12.0001 4.9065,11.8624 4.9746,11.6582 L 5.9082,8.8555 L 7.4004,8.1074 L 9.0898,9.7969 L 10.0527,11.7227 C 10.1372,11.8924 10.3104,11.9998 10.5,12.0 L 12.5,12.0 C 12.8249,11.9995 13.063,11.6941 12.9844,11.3789 L 11.9844,7.3789 C 11.9754,7.3438 11.9633,7.3098 11.9473,7.2773 L 10.9473,5.2773 C 10.8988,5.1801 10.82,5.1012 10.7227,5.0527 L 8.7227,4.0527 C 8.6535,4.0182 8.5773,4.0001 8.5,4.0 L 5.5,4.0" fill="#000" /></svg>