<svg xmlns="http://www.w3.org/2000/svg" width="16" height="16"><path d="M 3.0,4.0 L 3.0,4.5 C 3.0,4.7761 3.2239,5.0 3.5,5.0 L 11.5,5.0 C 11.7761,5.0 12.0,4.7761 12.0,4.5 L 12.0,4.0 L 3.0,4.0 M 3.5,6.0 C 3.2239,6.0 3.0,6.2239 3.0,6.5 C 3.0,8.9794 5.0206,11.0 7.5,11.0 C 9.9794,11.0 12.0,8.9794 12.0,6.5 C 12.0,6.2239 11.7761,6.0 11.5,6.0 L 3.5,6.0 M 7.5,9.0 C 8.0339,8.9996 8.5278,9.283 8.7969,9.7441 C 8.3993,9.9083 7.963,10.0 7.5,10.0 C 7.0379,10.0 6.602,9.9097 6.2051,9.7461 C 6.4733,9.2848 6.9664,9.0007 7.5,9.0" fill="#000" /></svg>