<svg xmlns="http://www.w3.org/2000/svg" width="16" height="16"><path d="M 4.0,3.0 C 2.892,3.0 2.0,3.892 2.0,5.0 L 2.0,6.0 C 2.0,7.108 2.892,8.0 4.0,8.0 L 5.2734,8.0 C 5.4496,8.2977 5.6999,8.5447 6.0,8.7168 L 6.0,9.3828 L 3.0,10.8828 L 3.0,10.0 L 2.0,10.0 L 2.0,14.0 L 3.0,14.0 L 3.0,12.9941 C 3.1548,12.996 3.3079,12.9619 3.4473,12.8945 L 7.4473,10.8945 C 7.7861,10.7251 8.0,10.3788 8.0,10.0 L 8.0,8.7168 C 8.3001,8.5447 8.5504,8.2977 8.7266,8.0 L 11.0,8.0 L 11.0,4.5 L 12.5,3.0 L 4.0,3.0 M 12.9141,4.0 L 12.0,4.9141 L 12.0,7.0 L 13.5,7.0 C 13.777,7.0 14.0,6.777 14.0,6.5 L 14.0,4.5 C 14.0,4.223 13.777,4.0 13.5,4.0 L 12.9141,4.0" fill="#000" /></svg>