<svg xmlns="http://www.w3.org/2000/svg" width="16" height="16"><path d="M 4.0,12.0 L 4.5,12.0 C 4.7761,12.0 5.0,11.7761 5.0,11.5 L 5.0,3.5 C 5.0,3.2239 4.7761,3.0 4.5,3.0 L 4.0,3.0 L 4.0,12.0 M 6.0,11.5 C 6.0,11.7761 6.2239,12.0 6.5,12.0 C 8.9794,12.0 11.0,9.9794 11.0,7.5 C 11.0,5.0206 8.9794,3.0 6.5,3.0 C 6.2239,3.0 6.0,3.2239 6.0,3.5 L 6.0,11.5 M 9.0,7.5 C 8.9996,6.9661 9.283,6.4722 9.7441,6.2031 C 9.9083,6.6007 10.0,7.037 10.0,7.5 C 10.0,7.9621 9.9097,8.398 9.7461,8.7949 C 9.2848,8.5267 9.0007,8.0336 9.0,7.5" fill="#000" /></svg>