<svg xmlns="http://www.w3.org/2000/svg" width="16" height="16"><path d="M 15.0,5.0 L 15.0,7.5 C 15.0,7.7761 14.7761,8.0 14.5,8.0 L 12.3155,8.0 L 13.7156,4.5 L 14.5,4.5 C 14.7761,4.5 15.0,4.7239 15.0,5.0 M 13.0,3.5 C 13.0,3.5697 12.9858,3.636 12.96,3.6962 L 10.9686,8.6749 C 10.8977,8.8648 10.7146,9.0 10.5,9.0 L 8.0,9.0 L 8.0,10.5 C 8.0,10.9602 7.6891,11.3479 7.2658,11.4643 L 2.3096,12.9512 C 2.2121,12.9829 2.1081,13.0 2.0,13.0 L 2.0,13.5 C 2.0,13.7761 1.7761,14.0 1.5,14.0 C 1.2239,14.0 1.0,13.7761 1.0,13.5 L 1.0,10.5 C 1.0,10.2239 1.2239,10.0 1.5,10.0 C 1.7761,10.0 2.0,10.2239 2.0,10.5 L 2.0,10.956 L 6.0,9.756 L 6.0,9.0 L 2.5,9.0 C 2.2239,9.0 2.0,8.7761 2.0,8.5 C 2.0,8.5 2.0,3.5 2.0,3.5 C 2.0,3.2239 2.2239,3.0 2.5,3.0 L 12.5,3.0 C 12.7761,3.0 13.0,3.2239 13.0,3.5 L 13.0,3.5" fill="#000" /></svg>