<svg xmlns="http://www.w3.org/2000/svg" width="16" height="16"><path d="M 2.5,3.0 C 2.223,3.0 2.0,3.224 2.0,3.5 L 2.0,8.5 C 2.0,8.776 2.223,9.0 2.499,9.0 L 6.0,9.0 L 6.0,9.756 L 2.0,10.956 L 2.0,10.501 C 2.0,10.224 1.776,10.0 1.5,10.0 C 1.224,10.0 1.0,10.224 1.0,10.5 L 1.0,13.5 C 1.0,13.776 1.224,14.0 1.5,14.0 C 1.776,14.0 2.0,13.776 2.0,13.5 L 2.0,13.0 C 2.109,13.0 2.213,12.983 2.31,12.951 L 7.266,11.464 C 7.689,11.348 8.0,10.96 8.0,10.5 L 8.0,9.0 L 10.5,9.0 C 10.715,9.0 10.898,8.864 10.969,8.675 L 12.96,3.696 C 12.986,3.636 13.0,3.57 13.0,3.5 C 13.0,3.224 12.777,3.0 12.501,3.0 L 2.5,3.0 M 13.716,4.5 L 12.316,8.0 L 14.5,8.0 C 14.777,7.999 15.0,7.776 15.0,7.5 L 15.0,5.001 C 15.0,4.724 14.777,4.501 14.501,4.5 L 13.716,4.5" fill="#000" /></svg>