<svg xmlns="http://www.w3.org/2000/svg" width="16" height="16"><path d="M 2.5,3.0 C 2.2239,3.0 2.0,3.2239 2.0,3.5 L 2.0,8.5 C 2.0,8.7761 2.2239,9.0 2.5,9.0 L 6.0,9.0 L 6.0,9.7559 L 2.0,10.9551 L 2.0,10.5 C 2.0,10.2239 1.7761,10.0 1.5,10.0 C 1.2239,10.0 1.0,10.2239 1.0,10.5 L 1.0,13.5 C 1.0,13.7761 1.2239,14.0 1.5,14.0 C 1.7761,14.0 2.0,13.7761 2.0,13.5 L 2.0,13.0 C 2.0973,12.9997 2.194,12.9852 2.2871,12.957 L 7.2871,11.457 C 7.7099,11.3303 7.9996,10.9414 8.0,10.5 L 8.0,9.0 L 10.5,9.0 C 10.7047,9.0002 10.8889,8.8756 10.9648,8.6855 L 12.9648,3.6855 C 13.0961,3.3569 12.8539,2.9997 12.5,3.0 L 2.5,3.0 M 13.7148,4.5 L 12.3144,8.0 L 14.5,8.0 C 14.7761,8.0 15.0,7.7761 15.0,7.5 L 15.0,5.0 C 15.0,4.7239 14.7761,4.5 14.5,4.5 L 13.7148,4.5" fill="#000" /></svg>