<svg xmlns="http://www.w3.org/2000/svg" width="16" height="16"><path d="M 1.5,2.0 C 1.224,2.0 1.0,2.224 1.0,2.5 L 1.0,13.5 C 1.0,13.776 1.224,14.0 1.5,14.0 L 2.5,14.0 C 2.776,14.0 3.0,13.776 3.0,13.5 L 3.0,6.0 L 3.586,6.0 C 3.616,6.084 3.653,6.167 3.699,6.246 C 3.836,6.483 4.027,6.67 4.25,6.799 C 4.474,6.928 4.731,7.0 4.998,7.0 L 6.0,7.0 C 6.269,7.0 6.526,6.928 6.75,6.799 C 6.973,6.67 7.164,6.483 7.298,6.252 C 7.347,6.167 7.384,6.084 7.414,6.0 L 8.586,6.0 C 8.616,6.084 8.653,6.167 8.699,6.246 C 8.836,6.483 9.027,6.67 9.25,6.799 C 9.474,6.928 9.731,7.0 9.998,7.0 L 11.0,7.0 C 11.269,7.0 11.526,6.928 11.75,6.799 C 11.973,6.67 12.164,6.483 12.298,6.252 C 12.347,6.167 12.384,6.084 12.414,6.0 L 13.0,6.0 L 13.0,13.5 C 13.0,13.776 13.224,14.0 13.5,14.0 L 14.5,14.0 C 14.776,14.0 15.0,13.776 15.0,13.5 L 15.0,2.5 C 15.0,2.224 14.776,2.0 14.5,2.0 L 13.5,2.0 C 13.224,2.0 13.0,2.224 13.0,2.5 L 13.0,5.0 L 12.414,5.0 C 12.384,4.916 12.347,4.833 12.301,4.754 C 12.164,4.517 11.973,4.33 11.75,4.201 C 11.526,4.072 11.269,4.0 11.002,4.0 L 10.0,4.0 C 9.731,4.0 9.474,4.072 9.25,4.201 C 9.027,4.33 8.836,4.517 8.702,4.748 C 8.653,4.833 8.616,4.916 8.586,5.0 L 7.414,5.0 C 7.384,4.916 7.347,4.833 7.301,4.754 C 7.164,4.517 6.973,4.33 6.75,4.201 C 6.526,4.072 6.269,4.0 6.002,4.0 L 5.0,4.0 C 4.731,4.0 4.474,4.072 4.25,4.201 C 4.027,4.33 3.836,4.517 3.702,4.748 C 3.653,4.833 3.616,4.916 3.586,5.0 L 3.0,5.0 L 3.0,2.5 C 3.0,2.224 2.776,2.0 2.5,2.0 L 1.5,2.0 M 4.75,5.067 C 4.825,5.024 4.91,5.0 5.0,5.0 L 6.0,5.0 C 6.09,5.0 6.175,5.024 6.25,5.067 C 6.101,5.153 6.0,5.315 6.0,5.5 C 6.0,5.685 6.101,5.847 6.25,5.933 C 6.175,5.976 6.09,6.0 6.0,6.0 L 5.0,6.0 C 4.91,6.0 4.825,5.976 4.75,5.933 C 4.899,5.847 5.0,5.685 5.0,5.5 C 5.0,5.315 4.899,5.153 4.75,5.067 M 9.75,5.067 C 9.825,5.024 9.91,5.0 10.0,5.0 L 11.0,5.0 C 11.09,5.0 11.175,5.024 11.25,5.067 C 11.101,5.153 11.0,5.315 11.0,5.5 C 11.0,5.685 11.101,5.847 11.25,5.933 C 11.175,5.976 11.09,6.0 11.0,6.0 L 10.0,6.0 C 9.91,6.0 9.825,5.976 9.75,5.933 C 9.899,5.847 10.0,5.685 10.0,5.5 C 10.0,5.315 9.899,5.153 9.75,5.067" fill="#000" /></svg>