<svg xmlns="http://www.w3.org/2000/svg" width="16" height="16"><path d="M 3.0,2.0 C 2.446,2.0 2.0,2.446 2.0,3.0 L 2.0,13.0 C 2.0,13.554 2.446,14.0 3.0,14.0 L 8.0,14.0 C 8.554,14.0 9.0,13.554 9.0,13.0 L 9.0,9.0 C 9.5582,9.0 10.0,9.4418 10.0,10.0 L 10.0,11.5 C 9.9997,11.5228 10.001,11.5457 10.004,11.5684 C 10.0273,12.077 10.3065,12.5428 10.7501,12.7989 C 11.2135,13.0664 11.7867,13.0664 12.2501,12.7989 C 12.7134,12.5313 13.0,12.0351 13.0,11.5 L 13.0,7.0 L 14.0,7.0 C 14.554,7.0 15.0,6.554 15.0,6.0 L 15.0,5.0 L 15.0,4.5 C 15.0,4.2239 14.7761,4.0 14.5,4.0 L 14.0,4.0 L 14.0,2.5 C 14.0,2.2239 13.7761,2.0 13.5,2.0 C 13.2239,2.0 13.0,2.2239 13.0,2.5 L 13.0,4.0 L 12.0,4.0 L 12.0,2.5 C 12.0,2.2239 11.7761,2.0 11.5,2.0 C 11.2239,2.0 11.0,2.2239 11.0,2.5 L 11.0,4.0 L 10.5,4.0 C 10.2239,4.0 10.0,4.2239 10.0,4.5 L 10.0,5.5 L 10.0,6.0 C 10.0,6.554 10.446,7.0 11.0,7.0 L 12.0,7.0 L 12.0,11.5 C 12.0,11.6794 11.9054,11.8439 11.75,11.9336 C 11.5946,12.0233 11.4054,12.0233 11.25,11.9336 C 11.0946,11.8439 11.0,11.6794 11.0,11.5 L 11.0,10.0 C 11.0001,9.9784 10.999,9.9569 10.996,9.9356 C 10.9613,8.8666 10.0768,8.0 9.0,8.0 L 9.0,3.0 C 9.0,2.446 8.554,2.0 8.0,2.0 L 3.0,2.0 M 3.5,4.0 L 7.5,4.0 C 7.7761,4.0 8.0,4.2239 8.0,4.5 L 8.0,6.5 C 8.0,6.7761 7.7761,7.0 7.5,7.0 L 3.5,7.0 C 3.2239,7.0 3.0,6.7761 3.0,6.5 L 3.0,4.5 C 3.0,4.2239 3.2239,4.0 3.5,4.0" fill="#000" /></svg>