<svg xmlns="http://www.w3.org/2000/svg" width="16" height="16"><path d="M 6.5,2.0 C 6.223,2.0 6.0,2.223 6.0,2.5 C 6.0,2.777 6.223,3.0 6.5,3.0 L 7.5,3.0 C 7.777,3.0 8.0,3.223 8.0,3.5 C 8.0,3.777 7.777,4.0 7.5,4.0 C 7.223,4.0 7.0,4.223 7.0,4.5 C 7.0,4.777 7.223,5.0 7.5,5.0 L 8.5,5.0 C 8.777,5.0 9.0,4.777 9.0,4.5 C 9.0,4.223 9.223,4.0 9.5,4.0 L 11.5,4.0 C 11.777,4.0 12.0,3.777 12.0,3.5 C 12.0,3.223 12.223,3.0 12.5,3.0 L 13.5,3.0 C 13.777,3.0 14.0,2.777 14.0,2.5 C 14.0,2.223 13.777,2.0 13.5,2.0 L 6.5,2.0 M 7.0,6.0 L 7.0,15.0 L 9.0,15.0 L 9.0,6.0 L 7.0,6.0" fill="#000" /></svg>