<svg xmlns="http://www.w3.org/2000/svg" width="16" height="16"><path d="M 6.5019,1.0059 C 6.3707,1.0069 6.2451,1.0596 6.1523,1.1523 C 5.9594,1.3453 5.9568,1.6573 6.1463,1.8535 C 6.2785,1.9857 6.3749,2.2361 6.3749,2.5 C 6.3749,2.7639 6.2785,3.0143 6.1463,3.1465 C 5.6933,3.6177 6.3821,4.3066 6.8534,3.8535 C 6.9855,3.7214 7.236,3.625 7.4999,3.625 C 7.7638,3.625 8.0142,3.7214 8.1463,3.8535 C 8.4192,4.1179 8.8757,3.9933 8.9764,3.6269 C 9.0233,3.4563 8.9765,3.2736 8.8534,3.1465 C 8.7212,3.0143 8.6249,2.7639 8.6249,2.5 C 8.6249,2.2361 8.7213,1.9857 8.8534,1.8535 C 9.1178,1.5806 8.9932,1.1242 8.6268,1.0234 C 8.4562,0.9765 8.2734,1.0233 8.1463,1.1465 C 8.0142,1.2786 7.7638,1.375 7.4999,1.375 C 7.236,1.375 6.9855,1.2786 6.8534,1.1465 C 6.7592,1.0554 6.6329,1.0048 6.5018,1.0059 L 6.5019,1.0059 M 7.5,4.0078 C 7.2269,4.0078 7.0043,4.2269 7.0,4.5 C 7.0,5.0833 6.6929,5.725 6.209,6.209 C 5.725,6.6929 5.0833,7.0 4.5,7.0 C 3.8427,7.009 3.8427,7.9907 4.5,8.0 L 5.7695,8.0 C 5.6503,8.4239 5.5514,8.8665 5.209,9.209 C 4.725,9.6929 4.0833,10.0 3.5,10.0 C 2.8427,10.009 2.8427,10.9907 3.5,11.0 L 4.7695,11.0 C 4.6503,11.4239 4.5514,11.8665 4.209,12.209 C 3.725,12.6929 3.0833,13.0 2.5,13.0 C 2.2269,13.004 2.0078,13.2269 2.0078,13.5 C 2.0078,13.7731 2.2269,13.9957 2.5,14.0 L 6.0,14.0 L 6.0,14.5 C 6.0,14.7761 6.2239,15.0 6.5,15.0 L 8.5,15.0 C 8.7761,15.0 9.0,14.7761 9.0,14.5 L 9.0,14.0 L 12.5,14.0 C 12.6771,13.998 12.8398,13.9019 12.9277,13.7481 C 13.0155,13.5943 13.0155,13.4057 12.9277,13.252 C 12.8398,13.0981 12.6771,13.0023 12.5,13.0 C 11.9167,13.0 11.275,12.6929 10.791,12.209 C 10.4486,11.8665 10.3497,11.4239 10.2305,11.0 L 11.5,11.0 C 11.881,10.995 12.1167,10.5828 11.9277,10.252 C 11.8398,10.0981 11.6771,10.0023 11.5,10.0 C 10.9167,10.0 10.275,9.6929 9.791,9.209 C 9.4486,8.8665 9.3497,8.4239 9.2305,8.0 L 10.5,8.0 C 11.1573,7.991 11.1573,7.0093 10.5,7.0 C 9.9167,7.0 9.275,6.6929 8.791,6.209 C 8.3071,5.725 8.0,5.0833 8.0,4.5 C 7.996,4.2269 7.7731,4.0078 7.5,4.0078 L 7.5,4.0078" fill="#000" /></svg>