<svg xmlns="http://www.w3.org/2000/svg" width="16" height="16"><path d="M 1.5,2.0 C 1.223,2.0 1.0,2.223 1.0,2.5 C 1.0,2.777 1.223,3.0 1.5,3.0 L 3.5,3.0 L 5.4961,3.0 L 5.5039,3.0 L 7.4941,3.0 L 7.5059,3.0 L 9.5,3.0 L 11.4961,3.0 L 11.5039,3.0 L 13.5,3.0 C 13.777,3.0 14.0,2.777 14.0,2.5 C 14.0,2.223 13.777,2.0 13.5,2.0 L 1.5,2.0 M 2.0,4.0 L 2.0,13.0 L 1.5,13.0 C 1.223,13.0 1.0,13.223 1.0,13.5 C 1.0,13.777 1.223,14.0 1.5,14.0 L 5.5,14.0 C 5.777,14.0 6.0,13.777 6.0,13.5 C 6.0,13.223 5.777,13.0 5.5,13.0 L 5.0,13.0 L 5.0,8.5 A 2.5,2.5 0.0 0,1 7.5,6.0 A 2.5,2.5 0.0 0,1 10.0,8.5 L 10.0,13.0 L 9.5,13.0 C 9.223,13.0 9.0,13.223 9.0,13.5 C 9.0,13.777 9.223,14.0 9.5,14.0 L 13.5,14.0 C 13.777,14.0 14.0,13.777 14.0,13.5 C 14.0,13.223 13.777,13.0 13.5,13.0 L 13.0,13.0 L 13.0,4.0 L 12.0,4.0 L 12.0,4.5 C 12.0,4.777 11.7792,5.0 11.5039,5.0 L 11.4961,5.0 C 11.2208,5.0 11.0,4.777 11.0,4.5 L 11.0,4.0 L 10.0,4.0 L 10.0,4.5 C 10.0,4.777 9.777,5.0 9.5,5.0 C 9.223,5.0 9.0,4.777 9.0,4.5 L 9.0,4.0 L 8.0,4.0 L 8.0,4.5 C 8.0,4.777 7.7794,5.0 7.5059,5.0 L 7.4941,5.0 C 7.2206,5.0 7.0,4.777 7.0,4.5 L 7.0,4.0 L 6.0,4.0 L 6.0,4.5 C 6.0,4.777 5.7792,5.0 5.5039,5.0 L 5.4961,5.0 C 5.2208,5.0 5.0,4.777 5.0,4.5 L 5.0,4.0 L 4.0,4.0 L 4.0,4.5 C 4.0,4.777 3.777,5.0 3.5,5.0 C 3.223,5.0 3.0,4.777 3.0,4.5 L 3.0,4.0 L 2.0,4.0 M 3.5,10.0 C 3.777,10.0 4.0,10.223 4.0,10.5 L 4.0,11.5 C 4.0,11.777 3.777,12.0 3.5,12.0 C 3.223,12.0 3.0,11.777 3.0,11.5 L 3.0,10.5 C 3.0,10.223 3.223,10.0 3.5,10.0 M 11.4922,10.0 L 11.5078,10.0 C 11.7809,10.0 12.0,10.223 12.0,10.5 L 12.0,11.5 C 12.0,11.777 11.7809,12.0 11.5078,12.0 L 11.4922,12.0 C 11.2191,12.0 11.0,11.777 11.0,11.5 L 11.0,10.5 C 11.0,10.223 11.2191,10.0 11.4922,10.0" fill="#000" /></svg>