<svg xmlns="http://www.w3.org/2000/svg" width="16" height="16"><path d="M 2.5,3.0 C 2.2239,3.0 2.0,3.2239 2.0,3.5 L 2.0,12.5 C 2.0,12.7761 2.2239,13.0 2.5,13.0 L 6.5,13.0 C 6.7448,13.0004 6.954,12.8235 6.9941,12.582 L 7.8828,7.25 L 9.0586,7.8379 L 10.0098,12.5977 C 10.0564,12.8315 10.2616,12.9999 10.5,13.0 L 11.5,13.0 C 11.752,13.0 11.9646,12.8125 11.9961,12.5625 L 12.9961,4.5625 C 13.026,4.3258 12.8845,4.1009 12.6582,4.0254 L 9.6582,3.0254 C 9.6072,3.0085 9.5538,2.9999 9.5,3.0 L 2.5,3.0" fill="#000" /></svg>