<svg xmlns="http://www.w3.org/2000/svg" width="16" height="16"><path d="M 6.5,13.0 L 2.5,13.0 C 2.2239,13.0 2.0,12.7761 2.0,12.5 L 2.0,3.5 C 2.0,3.5 2.0,3.5 2.0,3.5 C 2.0,3.2239 2.2239,3.0 2.5,3.0 L 9.5,3.0 C 9.5594,3.0 9.6164,3.0103 9.6692,3.0293 L 12.6472,4.022 C 12.8515,4.0848 13.0,4.2751 13.0,4.5 C 13.0,4.5237 12.9984,4.547 12.9952,4.5698 L 11.997,12.5554 C 11.9694,12.8055 11.7574,13.0 11.5,13.0 L 10.5,13.0 C 10.2542,13.0 10.0499,12.8227 10.0079,12.589 L 9.0577,7.8378 L 7.8819,7.25 L 6.9946,12.5741 C 6.9588,12.8151 6.751,13.0 6.5,13.0 L 6.5,13.0" fill="#000" /></svg>