<svg xmlns="http://www.w3.org/2000/svg" width="16" height="16"><path d="M 2.5,3.0 C 2.223,3.0 2.0,3.224 2.0,3.5 L 2.0,12.5 C 2.0,12.776 2.223,13.0 2.499,13.0 L 6.5,13.0 C 6.752,13.0 6.959,12.815 6.995,12.574 L 7.882,7.25 L 9.058,7.838 L 10.008,12.589 C 10.05,12.822 10.254,13.0 10.499,13.0 L 11.5,13.0 C 11.758,13.0 11.969,12.805 11.997,12.556 L 12.995,4.57 C 12.998,4.547 13.0,4.524 13.0,4.5 C 13.0,4.275 12.851,4.085 12.647,4.022 L 9.669,3.029 C 9.617,3.01 9.56,3.0 9.501,3.0 L 2.5,3.0" fill="#000" /></svg>