<svg xmlns="http://www.w3.org/2000/svg" width="16" height="16"><path d="M 5.0,3.0 C 4.446,3.0 4.0,3.446 4.0,4.0 L 4.0,11.0 C 4.0,11.554 4.446,12.0 5.0,12.0 L 12.0,12.0 C 12.554,12.0 13.0,11.554 13.0,11.0 L 13.0,4.0 C 13.0,3.446 12.554,3.0 12.0,3.0 L 5.0,3.0 M 8.5,4.0 C 10.433,4.0 12.0,5.567 12.0,7.5 C 12.0,9.433 10.433,11.0 8.5,11.0 C 6.567,11.0 5.0,9.433 5.0,7.5 C 5.0,5.567 6.567,4.0 8.5,4.0 M 8.5,5.0 C 8.223,5.0 8.0,5.223 8.0,5.5 L 8.0,7.5 C 8.0,7.777 8.223,8.0 8.5,8.0 L 10.5,8.0 C 10.777,8.0 11.0,7.777 11.0,7.5 C 11.0,7.223 10.777,7.0 10.5,7.0 L 9.0,7.0 L 9.0,5.5 C 9.0,5.223 8.777,5.0 8.5,5.0" fill="#000" /><path d="M 1.5,5.0 C 1.223,5.0 1.0,5.223 1.0,5.5 L 1.0,14.5 C 1.0,14.777 1.223,15.0 1.5,15.0 L 2.5,15.0 C 2.777,15.0 3.0,14.777 3.0,14.5 L 3.0,10.0 L 4.5,10.0 C 4.777,10.0 5.0,9.777 5.0,9.5 C 5.0,9.223 4.777,9.0 4.5,9.0 L 3.0,9.0 L 3.0,6.0 L 4.5,6.0 C 4.777,6.0 5.0,5.777 5.0,5.5 C 5.0,5.223 4.777,5.0 4.5,5.0 L 1.5,5.0" fill="#000" /></svg>