<svg xmlns="http://www.w3.org/2000/svg" width="16" height="16"><path d="M 8.0,3.0 C 7.7239,3.0 7.5,3.2239 7.5,3.5 L 7.5,4.5 C 7.5,4.7761 7.7239,5.0 8.0,5.0 C 9.2163,5.0 10.306,5.7279 10.7715,6.8516 C 11.2369,7.9752 10.9811,9.2611 10.1211,10.1211 C 9.2611,10.9811 7.9752,11.2369 6.8516,10.7715 C 5.8846,10.3709 5.2101,9.508 5.041,8.5 L 6.5,8.5 C 6.9453,8.4998 7.1683,7.9615 6.8535,7.6465 L 4.3535,5.1465 C 4.1582,4.9513 3.8418,4.9513 3.6465,5.1465 L 1.1465,7.6465 C 0.8317,7.9615 1.0547,8.4998 1.5,8.5 L 3.0254,8.5 C 3.208,10.3164 4.3756,11.9107 6.0859,12.6191 C 7.9517,13.392 10.1072,12.9631 11.5352,11.5352 C 12.9631,10.1072 13.4072,7.9453 12.6191,6.0859 C 11.8261,4.2148 10.0682,3.0 8.0,2.9999 L 8.0,3.0" fill="#000" /></svg>