<svg xmlns="http://www.w3.org/2000/svg" width="16" height="16"><path d="M 12.1465,1.1465 L 10.293,3.0 L 1.5,3.0 C 1.0547,3.0002 0.8317,3.5385 1.1465,3.8535 L 6.1465,8.8535 C 6.5286,9.2357 7.0,10.1667 7.0,11.0 L 7.0,12.5 C 7.0,12.7187 6.7188,13.0 6.5,13.0 L 5.5,13.0 C 5.2239,13.0 5.0,13.2239 5.0,13.5 C 5.0,13.7761 5.2239,14.0 5.5,14.0 L 9.5,14.0 C 9.7761,14.0 10.0,13.7761 10.0,13.5 C 10.0,13.2239 9.7761,13.0 9.5,13.0 L 8.5,13.0 C 8.2813,13.0 8.0,12.7188 8.0,12.5 L 8.0,11.0 C 8.0,10.1667 8.4714,9.2357 8.8535,8.8535 L 13.8535,3.8535 C 14.1683,3.5385 13.9453,3.0002 13.5,3.0 L 11.707,3.0 L 12.8535,1.8535 C 13.0487,1.6583 13.0487,1.3417 12.8535,1.1465 C 12.6587,0.9516 12.3413,0.9516 12.1465,1.1465 L 12.1465,1.1465 M 2.707,4.0 L 9.293,4.0 L 7.293,6.0 L 4.707,6.0 L 2.707,4.0 M 10.707,4.0 L 12.293,4.0 L 10.293,6.0 L 8.707,6.0 L 10.707,4.0" fill="#000" /></svg>