<svg xmlns="http://www.w3.org/2000/svg" width="16" height="16"><path d="M 12.5,1.0 A 0.5,0.5 0.0 0,0 12.1465,1.1465 L 10.293,3.0 L 1.5,3.0 A 0.5,0.5 0.0 0,0 1.1465,3.8535 L 6.1465,8.8535 C 6.5286,9.2357 7.0,10.1667 7.0,11.0 L 7.0,12.5 C 7.0,12.5833 6.9429,12.7251 6.834,12.834 C 6.7251,12.9429 6.5833,13.0 6.5,13.0 L 5.5,13.0 A 0.5,0.5 0.0 0,0 5.0,13.5 A 0.5,0.5 0.0 0,0 5.5,14.0 L 9.5,14.0 A 0.5,0.5 0.0 0,0 10.0,13.5 A 0.5,0.5 0.0 0,0 9.5,13.0 L 8.5,13.0 C 8.4167,13.0 8.2749,12.9429 8.166,12.834 C 8.0571,12.7251 8.0,12.5833 8.0,12.5 L 8.0,11.0 C 8.0,10.1667 8.4714,9.2357 8.8535,8.8535 L 13.8535,3.8535 A 0.5,0.5 0.0 0,0 13.5,3.0 L 11.707,3.0 L 12.8535,1.8535 A 0.5,0.5 0.0 0,0 12.8535,1.1465 A 0.5,0.5 0.0 0,0 12.5,1.0 M 2.707,4.0 L 9.293,4.0 L 8.293,5.0 L 3.707,5.0 L 2.707,4.0 M 10.707,4.0 L 12.293,4.0 L 11.293,5.0 L 9.707,5.0 L 10.707,4.0" fill="#000" /></svg>