<svg xmlns="http://www.w3.org/2000/svg" width="16" height="16"><path d="M 4.5,2.0 C 4.2239,2.0 4.0,2.2239 4.0,2.5 L 4.0,10.5 C 4.0,10.7761 4.2239,11.0 4.5,11.0 L 11.5,11.0 C 11.7761,11.0 12.0,10.7761 12.0,10.5 L 12.0,9.0 L 12.5,9.0 C 13.8748,9.0 15.0,7.8748 15.0,6.5 C 15.0,5.1252 13.8748,4.0 12.5,4.0 L 12.0,4.0 L 12.0,2.5 C 12.0,2.2239 11.7761,2.0 11.5,2.0 L 4.5,2.0 M 12.0,5.0 L 12.5,5.0 C 13.3344,5.0 14.0,5.6656 14.0,6.5 C 14.0,7.3344 13.3344,8.0 12.5,8.0 L 12.0,8.0 L 12.0,5.0 M 2.5,12.0 C 2.2239,12.0 2.0,12.2239 2.0,12.5 C 2.0,12.7761 2.2239,13.0 2.5,13.0 L 13.5,13.0 C 13.7761,13.0 14.0,12.7761 14.0,12.5 C 14.0,12.2239 13.7761,12.0 13.5,12.0 L 2.5,12.0" fill="#000" /></svg>