<svg xmlns="http://www.w3.org/2000/svg" width="16" height="16"><path d="M 2.5,2.0 C 2.2239,2.0 2.0,2.2239 2.0,2.5 C 2.0,6.5833 3.0286,9.2357 4.6465,10.8535 C 4.7402,10.9473 4.8674,11.0 5.0,11.0 L 10.0,11.0 C 10.1326,11.0 10.2598,10.9473 10.3535,10.8535 C 10.8649,10.3422 11.3175,9.7266 11.6973,8.9961 C 12.6906,8.9648 13.5024,8.6949 14.0801,8.1895 C 14.6955,7.6509 15.0,6.8611 15.0,6.0 C 15.0,5.3723 14.8734,4.7328 14.4082,4.2871 C 14.1756,4.0643 13.8717,3.928 13.5195,3.8828 C 13.3434,3.8602 13.1544,3.8612 12.957,3.8848 C 12.9849,3.4428 13.0,2.981 13.0,2.5 C 13.0,2.2239 12.7761,2.0 12.5,2.0 L 2.5,2.0 M 13.3164,4.8496 C 13.5126,4.8566 13.6283,4.9249 13.7168,5.0098 C 13.8766,5.1629 14.0,5.5232 14.0,6.0 C 14.0,6.6389 13.8045,7.0991 13.4199,7.4356 C 13.1358,7.6842 12.7238,7.8731 12.1582,7.9551 C 12.4858,7.079 12.727,6.0695 12.8652,4.9121 C 13.0521,4.8629 13.1987,4.8454 13.3164,4.8496 M 2.5,12.0 C 2.2239,12.0 2.0,12.2239 2.0,12.5 C 2.0,12.7761 2.2239,13.0 2.5,13.0 L 12.5,13.0 C 12.7761,13.0 13.0,12.7761 13.0,12.5 C 13.0,12.2239 12.7761,12.0 12.5,12.0 L 2.5,12.0" fill="#000" /></svg>