<svg xmlns="http://www.w3.org/2000/svg" width="16" height="16"><path d="M 3.4883,1.0 C 3.468,1.0007 3.4478,1.0027 3.4278,1.0059 C 3.41,1.0089 3.3924,1.0128 3.3751,1.0176 C 3.3661,1.0199 3.3568,1.0225 3.3478,1.0254 C 3.3332,1.0299 3.3189,1.0352 3.3048,1.041 C 3.2998,1.043 3.2958,1.0448 3.2911,1.0469 C 3.2778,1.0536 3.2647,1.0607 3.252,1.0684 C 3.2407,1.0745 3.2296,1.081 3.2188,1.088 C 3.2178,1.0886 3.2158,1.0893 3.2148,1.09 C 3.1817,1.1129 3.1516,1.1398 3.125,1.17 C 3.1243,1.1707 3.124,1.1713 3.123,1.172 C 3.1089,1.1881 3.0958,1.2051 3.0839,1.2228 L 3.0819,1.2248 C 3.0712,1.2412 3.0614,1.2581 3.0526,1.2756 C 2.4914,2.1485 2.25,3.324 2.25,4.5 C 2.25,5.676 2.4914,6.8515 3.0527,7.7246 C 3.0632,7.7409 3.0732,7.7612 3.0839,7.7773 C 3.1086,7.8143 3.1382,7.8478 3.1718,7.8769 C 3.1849,7.8881 3.1986,7.8985 3.2128,7.9082 C 3.2178,7.9122 3.2231,7.9161 3.2284,7.9199 C 3.2344,7.9233 3.2413,7.9266 3.2479,7.9297 C 3.26,7.9374 3.2723,7.9446 3.285,7.9512 C 3.288,7.9525 3.291,7.9538 3.295,7.9551 C 3.3153,7.9643 3.3362,7.9721 3.3575,7.9785 C 3.3635,7.9799 3.3692,7.9812 3.3751,7.9824 C 3.3931,7.9873 3.4114,7.9912 3.4298,7.9942 C 3.4511,7.9975 3.4727,7.9995 3.4943,8.0001 C 3.4963,8.0001 3.4983,8.0001 3.5003,8.0001 L 5.5003,8.0001 C 5.7765,8.0001 6.0003,7.7762 6.0003,7.5001 C 6.0003,7.2239 5.7765,7.0001 5.5003,7.0001 L 4.0,7.0001 C 3.7239,7.0001 3.5,6.7762 3.5,6.5001 C 3.5,6.2239 3.7239,6.0001 4.0,6.0001 L 5.5,6.0001 C 5.7761,6.0001 6.0,5.7762 6.0,5.5001 C 6.0,5.2239 5.7761,5.0001 5.5,5.0001 L 4.0,5.0001 C 3.7239,5.0001 3.5,4.7762 3.5,4.5001 C 3.5,4.2239 3.7239,4.0001 4.0,4.0001 L 5.5,4.0001 C 5.7761,4.0001 6.0,3.7762 6.0,3.5001 C 6.0,3.2239 5.7761,3.0001 5.5,3.0001 L 4.0,3.0001 C 3.7239,3.0001 3.5,2.7762 3.5,2.5001 C 3.5,2.2239 3.7239,2.0001 4.0,2.0001 L 5.5,2.0001 C 5.7761,2.0001 6.0,1.7762 6.0,1.5001 C 6.0,1.2239 5.7761,1.0001 5.5,1.0001 L 3.5,1.0001 C 3.496,1.0 3.492,1.0 3.4883,1.0001 L 3.4883,1.0 M 8.4941,3.0 C 8.4861,3.0004 8.4772,3.0011 8.4687,3.002 C 8.4597,3.0024 8.4504,3.0031 8.4414,3.004 C 8.4364,3.0046 8.4324,3.0052 8.4277,3.006 C 8.4227,3.0072 8.4187,3.0085 8.414,3.0099 C 8.3586,3.0191 8.3051,3.0376 8.2558,3.0646 C 8.2424,3.0725 8.2294,3.0809 8.2167,3.09 C 8.2097,3.0944 8.2023,3.0989 8.1952,3.1036 C 8.1872,3.1105 8.1793,3.1177 8.1718,3.1251 C 8.1638,3.1327 8.1559,3.1405 8.1484,3.1486 C 8.1404,3.1562 8.1325,3.1639 8.125,3.172 C 8.118,3.1796 8.1104,3.1874 8.1035,3.1954 C 8.0985,3.2024 8.0945,3.2097 8.0898,3.2169 C 8.0707,3.2439 8.0544,3.2727 8.041,3.3029 C 8.0263,3.3386 8.0158,3.376 8.0098,3.4142 C 8.0088,3.4207 8.0068,3.4272 8.0058,3.4337 C 8.0052,3.4363 8.0048,3.4389 8.0038,3.4415 L 7.1855,10.3927 C 6.853,10.1459 6.4428,10.0 6.0,10.0 C 4.9013,10.0 4.0,10.9014 4.0,12.0 C 4.0,12.8917 4.5932,13.6529 5.4043,13.9082 L 5.1621,14.1328 C 4.9599,14.3197 4.9468,14.6349 5.1328,14.8379 C 5.3197,15.0401 5.6349,15.0532 5.8379,14.8672 L 7.332,13.4922 C 7.3465,13.4793 7.3602,13.4656 7.373,13.4512 C 7.7528,13.0916 7.9925,12.5838 8.0,12.0254 L 8.2383,10.0 L 8.7617,10.0 L 9.0,12.0254 L 9.0,12.0274 C 9.0146,13.1138 9.9103,14.0 11.0,14.0 C 12.0987,14.0 13.0,13.0986 13.0,12.0 C 13.0,10.9014 12.0987,10.0 11.0,10.0 C 10.5572,10.0 10.147,10.1459 9.8145,10.3926 L 8.9961,3.4414 C 8.9955,3.4388 8.9951,3.4362 8.9941,3.4336 C 8.9861,3.3712 8.966,3.3109 8.9355,3.2559 C 8.924,3.2348 8.9109,3.2145 8.8964,3.1953 C 8.8894,3.1873 8.8823,3.1795 8.8749,3.1719 C 8.8669,3.1638 8.8595,3.156 8.8515,3.1484 C 8.8435,3.1403 8.8361,3.1326 8.8281,3.125 C 8.8201,3.1176 8.8127,3.1104 8.8047,3.1035 C 8.7716,3.0783 8.7356,3.0573 8.6973,3.041 C 8.6573,3.0239 8.6153,3.0121 8.5723,3.0059 C 8.5587,3.004 8.545,3.0027 8.5313,3.002 C 8.519,3.0009 8.5066,3.0002 8.4942,3.0 L 8.4941,3.0 M 6.0,11.0 C 6.5582,11.0 7.0,11.4418 7.0,12.0 C 7.0,12.002 7.0,12.0039 7.0,12.0059 C 6.998,12.2877 6.8841,12.5391 6.6992,12.7188 C 6.6835,12.7303 6.6685,12.7427 6.6543,12.7559 L 6.625,12.7813 C 6.4544,12.9173 6.2386,13.0 6.0,13.0 C 5.4418,13.0 5.0,12.5582 5.0,12.0 C 5.0,11.4418 5.4418,11.0 6.0,11.0 M 11.0,11.0 C 11.5582,11.0 12.0,11.4418 12.0,12.0 C 12.0,12.5582 11.5582,13.0 11.0,13.0 C 10.4438,13.0 10.0031,12.5613 10.0,12.0059 C 10.0,12.0039 10.0,12.002 10.0,12.0 C 10.0,11.4418 10.4418,11.0 11.0,11.0 L 11.0,11.0" fill="#000" /></svg>