<svg xmlns="http://www.w3.org/2000/svg" width="16" height="16"><path d="M 10.502,1.9922 A 0.5,0.5 0.0 0,0 10.2188,2.0801 A 0.5,0.5 0.0 0,0 10.2031,2.0918 A 0.5,0.5 0.0 0,0 10.168,2.1211 A 0.5,0.5 0.0 0,0 10.1601,2.125 A 0.5,0.5 0.0 0,0 10.1308,2.1562 A 0.5,0.5 0.0 0,0 10.1288,2.1582 A 0.5,0.5 0.0 0,0 10.1228,2.166 A 0.5,0.5 0.0 0,0 10.1091,2.1817 A 0.5,0.5 0.0 0,0 10.0974,2.1973 A 0.5,0.5 0.0 0,0 10.072,2.2344 A 0.5,0.5 0.0 0,0 10.07,2.2383 A 0.5,0.5 0.0 0,0 10.0563,2.2657 A 0.5,0.5 0.0 0,0 10.0463,2.2832 A 0.5,0.5 0.0 0,0 10.0346,2.3106 A 0.5,0.5 0.0 0,0 10.0131,2.377 A 0.5,0.5 0.0 0,0 10.0071,2.4063 A 0.5,0.5 0.0 0,0 9.9991,2.4766 L 9.1846,9.4004 C 8.8524,9.1522 8.4443,9.0 8.0,9.0 C 6.9013,9.0 6.0,9.9014 6.0,11.0 C 6.0,11.8936 6.6003,12.6467 7.4141,12.9004 L 7.1621,13.1328 A 0.5,0.5 0.0 1,0 7.8379,13.8672 L 9.332,12.4922 A 0.5,0.5 0.0 0,0 9.3906,12.4297 C 9.7412,12.0885 9.963,11.6211 9.9902,11.1035 A 0.5,0.5 0.0 0,0 9.9962,11.0586 L 10.2383,9.0 L 10.7617,9.0 L 11.0039,11.0586 A 0.5,0.5 0.0 0,0 11.0119,11.1152 C 11.0731,12.1601 11.9407,13.0 13.0,13.0 C 14.0987,13.0 15.0,12.0986 15.0,11.0 C 15.0,9.9014 14.0987,9.0 13.0,9.0 C 12.5557,9.0 12.1476,9.1522 11.8145,9.4004 L 11.0,2.4746 A 0.5,0.5 0.0 0,0 10.502,1.9922 M 4.5,2.0 A 0.5,0.5 0.0 0,0 4.3848,2.0117 C 3.1123,2.0715 2.0874,3.0885 2.0137,4.3574 A 0.5,0.5 0.0 0,0 2.0137,4.3594 A 0.5,0.5 0.0 0,0 2.0,4.582 L 2.0,6.4199 A 0.5,0.5 0.0 0,0 2.0,6.582 L 2.0,8.4199 A 0.5,0.5 0.0 0,0 2.0,8.582 L 2.0,12.5 A 0.5,0.5 0.0 1,0 3.0,12.5 L 3.0,9.0 L 5.5,9.0 A 0.5,0.5 0.0 1,0 5.5,8.0 L 3.0,8.0 L 3.0,7.0 L 5.5,7.0 A 0.5,0.5 0.0 1,0 5.5,6.0 L 3.0,6.0 L 3.0,5.0 L 5.5,5.0 A 0.5,0.5 0.0 1,0 5.5,4.0 L 3.0898,4.0 C 3.2945,3.4162 3.8423,3.0 4.5,3.0 L 5.5,3.0 A 0.5,0.5 0.0 1,0 5.5,2.0 L 4.5352,2.0 A 0.5,0.5 0.0 0,0 4.5,2.0 M 8.0,10.0 C 8.5547,10.0 8.9926,10.437 8.998,10.9902 A 0.5,0.5 0.0 0,0 8.998,11.0098 C 8.9926,11.563 8.5547,12.0 8.0,12.0 C 7.4418,12.0 7.0,11.5582 7.0,11.0 C 7.0,10.4418 7.4418,10.0 8.0,10.0 M 13.0,10.0 C 13.5582,10.0 14.0,10.4418 14.0,11.0 C 14.0,11.5582 13.5582,12.0 13.0,12.0 C 12.4453,12.0 12.0074,11.5611 12.002,11.0078 A 0.5,0.5 0.0 0,0 12.0,10.9941 C 12.0032,10.4388 12.4438,10.0 13.0,10.0" fill="#000" /></svg>