<svg xmlns="http://www.w3.org/2000/svg" width="16" height="16"><path d="M 3.5,1.0 C 3.3328,1.0 3.1767,1.0836 3.084,1.2227 C 2.4986,2.1007 2.25,3.3009 2.25,4.5 C 2.25,5.6991 2.4986,6.8993 3.084,7.7773 C 3.1767,7.9164 3.3328,8.0 3.5,8.0 L 5.5,8.0 C 5.7761,8.0 6.0,7.7761 6.0,7.5 C 6.0,7.2239 5.7761,7.0 5.5,7.0 L 4.0,7.0 C 3.7239,7.0 3.5,6.7761 3.5,6.5 C 3.5,6.2239 3.7239,6.0 4.0,6.0 L 5.5,6.0 C 5.7761,6.0 6.0,5.7761 6.0,5.5 C 6.0,5.2239 5.7761,5.0 5.5,5.0 L 4.0,5.0 C 3.7239,5.0 3.5,4.7761 3.5,4.5 C 3.5,4.2239 3.7239,4.0 4.0,4.0 L 5.5,4.0 C 5.7761,4.0 6.0,3.7761 6.0,3.5 C 6.0,3.2239 5.7761,3.0 5.5,3.0 L 4.0,3.0 C 3.7239,3.0 3.5,2.7761 3.5,2.5 C 3.5,2.2239 3.7239,2.0 4.0,2.0 L 5.5,2.0 C 5.7761,2.0 6.0,1.7761 6.0,1.5 C 6.0,1.2239 5.7761,1.0 5.5,1.0 L 3.5,1.0 M 8.5,3.0 C 8.2467,3.0003 8.0336,3.1899 8.0039,3.4414 L 7.1855,10.3926 C 6.853,10.1459 6.4428,10.0 6.0,10.0 C 4.9013,10.0 4.0,10.9014 4.0,12.0 C 4.0,12.8917 4.5932,13.6529 5.4043,13.9082 L 5.1621,14.1328 C 4.9599,14.3197 4.9468,14.6349 5.1328,14.8379 C 5.3197,15.0401 5.6349,15.0532 5.8379,14.8672 L 7.373,13.4512 C 7.7528,13.0916 7.9925,12.5838 8.0,12.0254 L 8.2383,10.0 L 8.7617,10.0 L 9.0,12.0254 L 9.0,12.0273 C 9.0146,13.1137 9.9103,14.0 11.0,14.0 C 12.0987,14.0 13.0,13.0986 13.0,12.0 C 13.0,10.9014 12.0987,10.0 11.0,10.0 C 10.5572,10.0 10.147,10.1459 9.8145,10.3926 L 8.9961,3.4414 C 8.9664,3.1899 8.7533,3.0003 8.5,3.0 M 6.0,11.0 A 1.0,1.0 0.0 0,1 7.0,12.0 A 1.0,1.0 0.0 0,1 6.0,13.0 A 1.0,1.0 0.0 0,1 5.0,12.0 A 1.0,1.0 0.0 0,1 6.0,11.0 M 11.0,11.0 A 1.0,1.0 0.0 0,1 12.0,12.0 A 1.0,1.0 0.0 0,1 11.0,13.0 A 1.0,1.0 0.0 0,1 10.0,12.0 A 1.0,1.0 0.0 0,1 11.0,11.0" fill="#000" /></svg>