<svg xmlns="http://www.w3.org/2000/svg" width="16" height="16"><path d="M 7.5,1.0 C 3.9101,1.0 1.0,3.9102 1.0,7.5 C 1.0,11.0898 3.9101,14.0 7.5,14.0 C 11.0899,14.0 14.0,11.0898 14.0,7.5 C 14.0,3.9102 11.0899,1.0 7.5,1.0 M 7.5,3.0 C 7.6896,3.0002 7.8628,3.1076 7.9473,3.2773 L 9.9473,7.2773 C 10.017,7.4176 10.017,7.5824 9.9473,7.7227 L 7.9473,11.7227 C 7.763,12.0913 7.237,12.0913 7.0527,11.7227 L 5.0527,7.7227 C 4.983,7.5824 4.983,7.4176 5.0527,7.2773 L 7.0527,3.2773 C 7.1372,3.1076 7.3104,3.0002 7.5,3.0 M 7.5,4.6172 L 6.0586,7.5 L 8.9414,7.5 L 7.5,4.6172 M 2.5,7.0 L 3.5,7.0 C 3.7761,7.0 4.0,7.2239 4.0,7.5 C 4.0,7.7761 3.7761,8.0 3.5,8.0 L 2.5,8.0 C 2.2239,8.0 2.0,7.7761 2.0,7.5 C 2.0,7.2239 2.2239,7.0 2.5,7.0 M 11.5,7.0 L 12.5,7.0 C 12.7761,7.0 13.0,7.2239 13.0,7.5 C 13.0,7.7761 12.7761,8.0 12.5,8.0 L 11.5,8.0 C 11.2239,8.0 11.0,7.7761 11.0,7.5 C 11.0,7.2239 11.2239,7.0 11.5,7.0" fill="#000" /></svg>