<svg xmlns="http://www.w3.org/2000/svg" width="16" height="16"><path d="M 7.5,1.0 C 7.3104,1.0002 7.1372,1.1076 7.0527,1.2773 L 5.1269,5.1269 L 1.2773,7.0527 C 0.9087,7.237 0.9087,7.763 1.2773,7.9473 L 5.1269,9.8731 L 7.0527,13.7227 C 7.237,14.0913 7.763,14.0913 7.9473,13.7227 L 9.8731,9.8731 L 13.7227,7.9473 C 14.0913,7.763 14.0913,7.237 13.7227,7.0527 L 9.8731,5.1269 L 7.9473,1.2773 C 7.8628,1.1076 7.6896,1.0002 7.5,1.0 M 7.5,2.6172 L 7.5,6.793 L 6.1074,5.4004 L 7.5,2.6172 M 6.793,7.5 L 5.4004,8.8926 L 2.6172,7.5 L 6.793,7.5 M 9.5996,6.1074 L 12.3828,7.5 L 8.207,7.5 L 9.5996,6.1074 M 7.5,8.207 L 8.8926,9.5996 L 7.5,12.3828 L 7.5,8.207" fill="#000" /></svg>