<svg xmlns="http://www.w3.org/2000/svg" width="16" height="16"><path d="M 8.0,2.0234 L 8.0,2.5 C 8.0,2.777 7.777,3.0 7.5,3.0 C 7.223,3.0 7.0,2.777 7.0,2.5 L 7.0,2.0371 C 5.3905,2.1852 3.9276,3.0338 3.0,4.3574 L 3.0,7.0 L 2.5,7.0 C 2.223,7.0 2.0,7.223 2.0,7.5 C 2.0,7.777 2.223,8.0 2.5,8.0 L 3.0,8.0 L 3.0,10.6426 C 3.9276,11.9662 5.3905,12.8148 7.0,12.9629 L 7.0,12.5 C 7.0,12.2317 7.2097,12.0133 7.4746,12.0 C 7.4836,11.9996 7.4913,12.0 7.5,12.0 C 7.777,12.0 8.0,12.223 8.0,12.5 L 8.0,12.9629 C 9.6095,12.8148 11.0724,11.9662 12.0,10.6426 L 12.0,8.0 L 12.5,8.0 C 12.777,8.0 13.0,7.777 13.0,7.5 L 13.0,7.498 C 13.0,7.221 12.777,6.998 12.5,6.998 L 12.0,6.998 L 12.0,4.3418 C 11.072,3.0189 9.6092,2.171 8.0,2.0234 L 8.0,2.0234 M 10.0,7.0 C 10.2845,7.2841 10.2845,7.7452 10.0,8.0293 C 9.7159,8.3138 9.2548,8.3138 8.9707,8.0293 C 8.6862,7.7452 8.6862,7.2841 8.9707,7.0 C 9.2542,6.7166 9.7166,6.7167 10.0,7.0 M 6.0,7.0 C 6.2845,7.2841 6.2845,7.7452 6.0,8.0293 C 5.7159,8.3138 5.2548,8.3138 4.9707,8.0293 C 4.6862,7.7452 4.6862,7.2841 4.9707,7.0 C 5.2523,6.7187 5.7147,6.7149 6.0,7.0" fill="#000" /></svg>