<svg xmlns="http://www.w3.org/2000/svg" width="16" height="16"><path d="M 7.5,2.0 C 4.4624,2.0 2.0,4.4624 2.0,7.5 C 2.0,10.5376 4.4624,13.0 7.5,13.0 C 10.5376,13.0 13.0,10.5376 13.0,7.5 C 13.0,4.4624 10.5376,2.0 7.5,2.0 M 5.5,4.0 C 6.3284,4.0 7.0,4.6716 7.0,5.5 C 7.0,6.3284 6.3284,7.0 5.5,7.0 C 4.6716,7.0 4.0,6.3284 4.0,5.5 C 4.0,4.6716 4.6716,4.0 5.5,4.0 M 9.5,4.0 C 10.3284,4.0 11.0,4.6716 11.0,5.5 C 11.0,6.3284 10.3284,7.0 9.5,7.0 C 8.6716,7.0 8.0,6.3284 8.0,5.5 C 8.0,4.6716 8.6716,4.0 9.5,4.0 M 5.0,8.0 C 5.2845,8.2841 5.2845,8.7452 5.0,9.0293 C 4.7159,9.3138 4.2548,9.3138 3.9707,9.0293 C 3.6862,8.7452 3.6862,8.2841 3.9707,8.0 C 4.2534,7.7169 4.7157,7.7153 5.0,8.0 M 11.0,8.0 C 11.2845,8.2841 11.2845,8.7452 11.0,9.0293 C 10.7159,9.3138 10.2548,9.3138 9.9707,9.0293 C 9.6862,8.7452 9.6862,8.2841 9.9707,8.0 C 10.2534,7.7169 10.7157,7.7153 11.0,8.0 M 7.5,9.0 C 8.3284,9.0 9.0,9.6716 9.0,10.5 C 9.0,11.3284 8.3284,12.0 7.5,12.0 C 6.6716,12.0 6.0,11.3284 6.0,10.5 C 6.0,9.6716 6.6716,9.0 7.5,9.0" fill="#000" /></svg>