<svg xmlns="http://www.w3.org/2000/svg" width="16" height="16"><path d="M 8.0,2.0234 L 8.0,2.5 C 8.0,2.777 7.777,3.0 7.5,3.0 C 7.223,3.0 7.0,2.777 7.0,2.5 L 7.0,2.0371 A 5.5,5.5 0.0 0,0 3.0,4.3574 L 3.0,7.0 L 2.5,7.0 C 2.223,7.0 2.0,7.223 2.0,7.5 C 2.0,7.777 2.223,8.0 2.5,8.0 L 3.0,8.0 L 3.0,10.6426 A 5.5,5.5 0.0 0,0 7.0,12.9629 L 7.0,12.5 C 7.0,12.2317 7.2097,12.0133 7.4746,12.0 C 7.4831,11.9996 7.4913,12.0 7.5,12.0 C 7.777,12.0 8.0,12.223 8.0,12.5 L 8.0,12.9629 A 5.5,5.5 0.0 0,0 12.0,10.6426 L 12.0,8.0 L 12.5,8.0 C 12.777,8.0 13.0,7.777 13.0,7.5 L 13.0,7.498 C 13.0,7.221 12.777,6.998 12.5,6.998 L 12.0,6.998 L 12.0,4.3418 A 5.5,5.5 0.0 0,0 8.0,2.0234 M 9.4863,6.7871 A 0.7273,0.7273 0.0 0,1 10.0,7.0 A 0.7273,0.7273 0.0 0,1 10.0,8.0293 A 0.7273,0.7273 0.0 0,1 8.9707,8.0293 A 0.7273,0.7273 0.0 0,1 8.9707,7.0 A 0.7273,0.7273 0.0 0,1 9.4863,6.7871 M 5.4336,6.7891 A 0.7273,0.7273 0.0 0,1 6.0,7.0 A 0.7273,0.7273 0.0 0,1 6.0,8.0293 A 0.7273,0.7273 0.0 0,1 4.9707,8.0293 A 0.7273,0.7273 0.0 0,1 4.9707,7.0 A 0.7273,0.7273 0.0 0,1 5.4336,6.7891" fill="#000" /></svg>