<svg xmlns="http://www.w3.org/2000/svg" width="16" height="16"><path d="M 7.5,2.0 C 4.4624,2.0 2.0,4.4624 2.0,7.5 C 2.0,10.5376 4.4624,13.0 7.5,13.0 C 10.5376,13.0 13.0,10.5376 13.0,7.5 C 13.0,4.4624 10.5376,2.0 7.5,2.0 M 6.8555,3.1484 L 7.5,3.793 L 8.1465,3.1484 C 8.3415,2.9533 8.6605,2.9534 8.8555,3.1484 C 9.0468,3.343 9.0468,3.655 8.8555,3.8496 L 8.207,4.5 L 8.8555,5.1484 C 9.0468,5.343 9.0468,5.655 8.8555,5.8496 C 8.66,6.0461 8.342,6.0461 8.1465,5.8496 L 7.5,5.2031 L 6.8555,5.8496 C 6.66,6.0461 6.342,6.0461 6.1465,5.8496 C 5.9551,5.655 5.9551,5.343 6.1465,5.1484 L 6.7969,4.5 L 6.1465,3.8496 C 5.9551,3.655 5.9551,3.343 6.1465,3.1484 C 6.3415,2.9533 6.6605,2.9534 6.8555,3.1484 M 4.5,6.0 C 5.3284,6.0 6.0,6.6716 6.0,7.5 C 6.0,8.3284 5.3284,9.0 4.5,9.0 C 3.6716,9.0 3.0,8.3284 3.0,7.5 C 3.0,6.6716 3.6716,6.0 4.5,6.0 M 10.5,6.0 C 11.3284,6.0 12.0,6.6716 12.0,7.5 C 12.0,8.3284 11.3284,9.0 10.5,9.0 C 9.6716,9.0 9.0,8.3284 9.0,7.5 C 9.0,6.6716 9.6716,6.0 10.5,6.0 M 6.8555,9.1504 L 7.5,9.793 L 8.1465,9.1504 C 8.3416,8.9531 8.6604,8.9531 8.8555,9.1504 C 9.0468,9.345 9.0468,9.657 8.8555,9.8516 L 8.209,10.4981 L 8.8555,11.1426 C 9.052,11.3381 9.052,11.6561 8.8555,11.8516 C 8.66,12.0481 8.342,12.0481 8.1465,11.8516 L 7.5,11.207 L 6.8555,11.8516 C 6.66,12.0481 6.342,12.0481 6.1465,11.8516 C 5.95,11.6561 5.95,11.3381 6.1465,11.1426 L 6.793,10.4981 L 6.1465,9.8516 C 5.9551,9.657 5.9551,9.345 6.1465,9.1504 C 6.3416,8.9531 6.6604,8.9531 6.8555,9.1504" fill="#000" /></svg>