<svg xmlns="http://www.w3.org/2000/svg" width="16" height="16"><path d="M 7.5,2.0 C 4.4624,2.0 2.0,4.4624 2.0,7.5 C 2.0,10.5376 4.4624,13.0 7.5,13.0 C 10.5376,13.0 13.0,10.5376 13.0,7.5 C 13.0,4.4624 10.5376,2.0 7.5,2.0 M 8.0,4.0 C 8.2846,4.2841 8.2846,4.7452 8.0,5.0293 C 7.7159,5.3138 7.2548,5.3138 6.9707,5.0293 C 6.6862,4.7452 6.6862,4.2841 6.9707,4.0 C 7.2534,3.7169 7.7158,3.7153 8.0,4.0 M 5.0,7.0 C 5.2846,7.2841 5.2846,7.7452 5.0,8.0293 C 4.7159,8.3138 4.2548,8.3138 3.9707,8.0293 C 3.6862,7.7452 3.6862,7.2841 3.9707,7.0 C 4.2534,6.7169 4.7158,6.7153 5.0,7.0 M 11.0,7.0 C 11.2846,7.2841 11.2846,7.7452 11.0,8.0293 C 10.7159,8.3138 10.2548,8.3138 9.9707,8.0293 C 9.6862,7.7452 9.6862,7.2841 9.9707,7.0 C 10.2534,6.7169 10.7158,6.7153 11.0,7.0" fill="#000" /></svg>