<svg xmlns="http://www.w3.org/2000/svg" width="16" height="16"><path d="M 3.1562,2.0 C 3.0208,2.0 2.8911,2.055 2.7969,2.1523 C 1.6446,3.341 1.0003,4.8909 1.0,6.5 C 1.0,10.1064 4.1607,13.0 8.0,13.0 C 11.8393,13.0 15.0,10.1064 15.0,6.5 C 14.9997,4.8909 14.3554,3.341 13.2031,2.1523 C 13.1089,2.0549 12.9792,2.0 12.8437,2.0 L 3.1562,2.0 M 6.5,4.0 C 6.7845,4.2841 6.7845,4.7452 6.5,5.0293 C 6.2159,5.3138 5.7548,5.3138 5.4707,5.0293 C 5.1862,4.7452 5.1862,4.2841 5.4707,4.0 C 5.7534,3.7169 6.2157,3.7153 6.5,4.0 M 10.5,4.0 C 10.7845,4.2841 10.7845,4.7452 10.5,5.0293 C 10.2159,5.3138 9.7548,5.3138 9.4707,5.0293 C 9.1862,4.7452 9.1862,4.2841 9.4707,4.0 C 9.7534,3.7169 10.2157,3.7153 10.5,4.0 M 4.0,6.0 C 4.5523,6.0 5.0,6.4477 5.0,7.0 C 5.0,7.5523 4.5523,8.0 4.0,8.0 C 3.4477,8.0 3.0,7.5523 3.0,7.0 C 3.0,6.4477 3.4477,6.0 4.0,6.0 M 8.0,6.0 C 8.5523,6.0 9.0,6.4477 9.0,7.0 C 9.0,7.5523 8.5523,8.0 8.0,8.0 C 7.4477,8.0 7.0,7.5523 7.0,7.0 C 7.0,6.4477 7.4477,6.0 8.0,6.0 M 12.0,6.0 C 12.5523,6.0 13.0,6.4477 13.0,7.0 C 13.0,7.5523 12.5523,8.0 12.0,8.0 C 11.4477,8.0 11.0,7.5523 11.0,7.0 C 11.0,6.4477 11.4477,6.0 12.0,6.0 M 6.0,9.0 C 6.5523,9.0 7.0,9.4477 7.0,10.0 C 7.0,10.5523 6.5523,11.0 6.0,11.0 C 5.4477,11.0 5.0,10.5523 5.0,10.0 C 5.0,9.4477 5.4477,9.0 6.0,9.0 M 10.0,9.0 C 10.5523,9.0 11.0,9.4477 11.0,10.0 C 11.0,10.5523 10.5523,11.0 10.0,11.0 C 9.4477,11.0 9.0,10.5523 9.0,10.0 C 9.0,9.4477 9.4477,9.0 10.0,9.0" fill="#000" /></svg>