<svg xmlns="http://www.w3.org/2000/svg" width="16" height="16"><path d="M 8.0,3.0 C 8.2761,3.0 8.5,3.2239 8.5,3.5 L 8.5,4.5 C 8.5,4.7761 8.2761,5.0 8.0,5.0 C 6.7837,5.0 5.694,5.7279 5.2285,6.8516 C 4.7631,7.9752 5.0189,9.2611 5.8789,10.1211 C 6.7389,10.9811 8.0248,11.2369 9.1484,10.7715 C 10.1154,10.3709 10.7899,9.508 10.959,8.5 L 9.5,8.5 C 9.0547,8.4998 8.8317,7.9615 9.1465,7.6465 L 11.6465,5.1465 C 11.8418,4.9513 12.1582,4.9513 12.3535,5.1465 L 14.8535,7.6465 C 15.1683,7.9615 14.9453,8.4998 14.5,8.5 L 12.9746,8.5 C 12.792,10.3164 11.6244,11.9107 9.9141,12.6191 C 8.0483,13.392 5.8928,12.9631 4.4648,11.5352 C 3.0369,10.1072 2.5942,7.9459 3.3809,6.0859 C 4.1808,4.1946 5.8821,3.0 8.0,2.9999 L 8.0,3.0" fill="#000" /></svg>