<svg xmlns="http://www.w3.org/2000/svg" width="16" height="16"><path d="M 2.5,2.0 A 0.5,0.5 0.0 0,0 2.0,2.5 L 2.0,3.5 A 0.5,0.5 0.0 0,0 2.5,4.0 L 4.0,4.0 L 4.0,7.5 L 4.0,10.5 L 4.0,14.5 A 0.5,0.5 0.0 0,0 4.8535,14.8535 L 6.0,13.707 L 6.0,14.5 A 0.5,0.5 0.0 0,0 6.5,15.0 A 0.5,0.5 0.0 0,0 7.0,14.5 L 7.0,12.5 L 7.0,10.5 L 7.0,7.5 L 7.0,4.0 L 8.5,4.0 L 11.0,4.0 L 11.0,8.5 A 0.5,0.5 0.0 0,0 11.5,9.0 C 11.7037,9.0 11.885,9.1204 11.9629,9.3086 C 12.0408,9.4967 11.9975,9.7095 11.8535,9.8535 C 11.7095,9.9975 11.4968,10.0408 11.3086,9.9629 C 11.1204,9.885 11.0,9.7037 11.0,9.5 A 0.5,0.5 0.0 0,0 10.5,9.0 A 0.5,0.5 0.0 0,0 10.0,9.5 C 10.0,10.1053 10.3666,10.6551 10.9258,10.8867 C 11.485,11.1183 12.1326,10.9885 12.5605,10.5605 C 12.9885,10.1326 13.1184,9.485 12.8867,8.9258 C 12.7245,8.5342 12.3837,8.2954 12.0,8.1523 L 12.0,4.0 L 13.5,4.0 A 0.5,0.5 0.0 0,0 14.0,3.5 A 0.5,0.5 0.0 0,0 13.5,3.0 L 8.707,3.0 L 7.8535,2.1465 A 0.5,0.5 0.0 0,0 7.5,2.0 L 2.5,2.0 M 5.707,4.0 L 6.0,4.0 L 6.0,4.293 L 5.707,4.0 M 5.0,4.707 L 6.0,5.707 L 6.0,6.293 L 5.0,7.293 L 5.0,4.707 M 6.0,7.707 L 6.0,10.293 L 5.0,9.293 L 5.0,8.707 L 6.0,7.707 M 5.0,10.707 L 6.0,11.707 L 6.0,12.293 L 5.0,13.293 L 5.0,10.707" fill="#000" /></svg>