<svg xmlns="http://www.w3.org/2000/svg" width="16" height="16"><path d="M 2.5,2.0 C 2.2702,1.9997 2.0696,2.156 2.0137,2.3789 L 1.8594,3.0 L 1.5,3.0 C 1.2239,3.0 1.0,3.2239 1.0,3.5 C 1.0,3.7761 1.2239,4.0 1.5,4.0 L 1.6094,4.0 L 1.0137,6.3789 C 1.0047,6.4186 0.9996,6.4592 1.0,6.5 L 1.0,14.5 C 1.002,14.9442 1.5381,15.1663 1.8535,14.8535 L 3.0,13.707 L 3.0,14.5 C 3.0004,14.776 3.224,14.9996 3.5,15.0 C 3.776,14.9996 3.9996,14.776 4.0,14.5 L 4.0,6.5 C 4.0004,6.4592 3.996,6.4186 3.9863,6.3789 L 3.3906,4.0 L 5.0,4.0 L 5.0,4.5 C 5.0,4.7761 5.2239,5.0 5.5,5.0 L 7.0,5.0 L 7.0,8.5 C 7.0,8.7761 7.2239,9.0 7.5,9.0 C 7.7037,9.0 7.885,9.1204 7.9629,9.3086 C 8.0408,9.4967 7.9975,9.7095 7.8535,9.8535 C 7.7095,9.9975 7.4968,10.0408 7.3086,9.9629 C 7.1204,9.885 7.0,9.7037 7.0,9.5 C 7.0,9.2239 6.7761,9.0 6.5,9.0 C 6.2239,9.0 6.0,9.2239 6.0,9.5 C 6.0,10.1053 6.3666,10.6551 6.9258,10.8867 C 7.485,11.1183 8.1326,10.9885 8.5605,10.5606 C 8.9885,10.1326 9.1183,9.485 8.8867,8.9258 C 8.7245,8.5342 8.3837,8.2954 8.0,8.1523 L 8.0,5.0 L 9.5,5.0 C 9.7761,5.0 10.0,4.7761 10.0,4.5 L 10.0,4.0 L 11.6094,4.0 L 11.0156,6.3789 C 11.0055,6.4185 11.0002,6.4591 11.0,6.5 L 11.0,14.5 C 11.0002,14.9453 11.5385,15.1683 11.8535,14.8535 L 13.0,13.707 L 13.0,14.5 C 13.0,14.7761 13.2239,15.0 13.5,15.0 C 13.7761,15.0 14.0,14.7761 14.0,14.5 L 14.0,6.5 C 13.9998,6.4592 13.995,6.4185 13.9844,6.3789 L 13.3906,4.0 L 13.5,4.0 C 13.7761,4.0 14.0,3.7761 14.0,3.5 C 14.0,3.2239 13.7761,3.0 13.5,3.0 L 13.1406,3.0 L 12.9844,2.3789 C 12.9289,2.1565 12.7292,2.0004 12.5,2.0 C 12.2708,2.0004 12.0711,2.1565 12.0156,2.3789 L 11.8594,3.0 L 10.0,3.0 L 10.0,2.5 C 10.0,2.2239 9.7761,2.0 9.5,2.0 L 5.5,2.0 C 5.2239,2.0 5.0,2.2239 5.0,2.5 L 5.0,3.0 L 3.1406,3.0 L 2.9863,2.3789 C 2.9304,2.156 2.7298,1.9997 2.5,2.0 M 12.5,4.5605 L 12.9453,6.3477 L 12.0,7.293 L 12.0,6.5625 L 12.5,4.5605 M 2.5,4.5645 L 2.9453,6.3478 L 2.0,7.293 L 2.0,6.5625 L 2.5,4.5645 M 3.0,7.7071 L 3.0,10.2931 L 2.0,9.2931 L 2.0,8.7071 L 3.0,7.7071 M 13.0,7.7071 L 13.0,10.2931 L 12.0,9.2931 L 12.0,8.7071 L 13.0,7.7071 M 2.0,10.7071 L 3.0,11.7071 L 3.0,12.2931 L 2.0,13.2931 L 2.0,10.7071 M 12.0,10.7071 L 13.0,11.7071 L 13.0,12.2931 L 12.0,13.2931 L 12.0,10.7071" fill="#000" /></svg>