<svg xmlns="http://www.w3.org/2000/svg" width="16" height="16"><path d="M 2.5,2.0 A 0.5,0.5 0.0 0,0 2.0098,2.4023 L 1.8906,3.0 L 1.5,3.0 A 0.5,0.5 0.0 0,0 1.0,3.5 A 0.5,0.5 0.0 0,0 1.5,4.0 L 1.6895,4.0 L 1.0098,7.4023 A 0.5,0.5 0.0 0,0 1.0,7.5 L 1.0,12.5 A 0.5,0.5 0.0 0,0 1.8535,12.8535 L 3.0,11.707 L 3.0,12.5 A 0.5,0.5 0.0 0,0 3.5,13.0 A 0.5,0.5 0.0 0,0 4.0,12.5 L 4.0,10.5 L 4.0,7.5 A 0.5,0.5 0.0 0,0 3.9902,7.4023 L 3.3105,4.0 L 5.0,4.0 L 5.0,4.5 A 0.5,0.5 0.0 0,0 5.5,5.0 L 7.0,5.0 L 7.0,8.5 A 0.5,0.5 0.0 0,0 7.5,9.0 C 7.7037,9.0 7.885,9.1204 7.9629,9.3086 C 8.0408,9.4967 7.9975,9.7095 7.8535,9.8535 C 7.7095,9.9975 7.4968,10.0408 7.3086,9.9629 C 7.1204,9.885 7.0,9.7037 7.0,9.5 A 0.5,0.5 0.0 0,0 6.5,9.0 A 0.5,0.5 0.0 0,0 6.0,9.5 C 6.0,10.1053 6.3666,10.6551 6.9258,10.8867 C 7.485,11.1183 8.1326,10.9885 8.5605,10.5605 C 8.9885,10.1326 9.1184,9.485 8.8867,8.9258 C 8.7245,8.5342 8.3837,8.2954 8.0,8.1523 L 8.0,5.0 L 9.5,5.0 A 0.5,0.5 0.0 0,0 10.0,4.5 L 10.0,4.0 L 11.6895,4.0 L 11.0098,7.4023 A 0.5,0.5 0.0 0,0 11.0,7.5 L 11.0,12.5 A 0.5,0.5 0.0 0,0 11.8535,12.8535 L 13.0,11.707 L 13.0,12.5 A 0.5,0.5 0.0 0,0 13.5,13.0 A 0.5,0.5 0.0 0,0 14.0,12.5 L 14.0,10.5 L 14.0,7.5 A 0.5,0.5 0.0 0,0 13.9902,7.4023 L 13.3105,4.0 L 13.5,4.0 A 0.5,0.5 0.0 0,0 14.0,3.5 A 0.5,0.5 0.0 0,0 13.5,3.0 L 13.1094,3.0 L 12.9902,2.4023 A 0.5,0.5 0.0 0,0 12.5,2.0 A 0.5,0.5 0.0 0,0 12.0098,2.4023 L 11.8906,3.0 L 10.0,3.0 L 10.0,2.5 A 0.5,0.5 0.0 0,0 9.5,2.0 L 5.5,2.0 A 0.5,0.5 0.0 0,0 5.0,2.5 L 5.0,3.0 L 3.1094,3.0 L 2.9902,2.4023 A 0.5,0.5 0.0 0,0 2.5,2.0 M 2.5,5.0488 L 3.0,7.5488 L 3.0,8.293 L 2.043,7.3359 L 2.5,5.0488 M 12.5,5.0488 L 13.0,7.5488 L 13.0,8.293 L 12.043,7.3359 L 12.5,5.0488 M 2.0,8.707 L 3.0,9.707 L 3.0,10.293 L 2.0,11.293 L 2.0,8.707 M 12.0,8.707 L 13.0,9.707 L 13.0,10.293 L 12.0,11.293 L 12.0,8.707" fill="#000" /></svg>