<svg xmlns="http://www.w3.org/2000/svg" width="16" height="16"><path d="M 14.0,5.5 L 14.0,10.5 C 14.0,11.3284 13.3284,12.0 12.5,12.0 L 3.5,12.0 C 2.6716,12.0 2.0,11.3284 2.0,10.5 L 2.0,5.5 C 2.0,4.6716 2.6716,4.0 3.5,4.0 L 12.5,4.0 C 13.3284,4.0 14.0,4.6716 14.0,5.5 M 3.0,5.5 L 3.0,6.0 L 13.0,6.0 L 13.0,5.5 C 13.0,5.2239 12.7761,5.0 12.5,5.0 L 3.5,5.0 C 3.2239,5.0 3.0,5.2239 3.0,5.5 M 3.0,10.5 C 3.0,10.7761 3.2239,11.0 3.5,11.0 L 12.5,11.0 C 12.7761,11.0 13.0,10.7761 13.0,10.5 L 13.0,8.0 L 3.0,8.0 L 3.0,10.5 M 7.0,9.5 C 7.0,9.2239 7.2239,9.0 7.5,9.0 L 8.5,9.0 C 8.7761,9.0 9.0,9.2239 9.0,9.5 C 9.0,9.7761 8.7761,10.0 8.5,10.0 L 7.5,10.0 C 7.2239,10.0 7.0,9.7761 7.0,9.5 M 10.0,9.5 C 10.0,9.2239 10.2239,9.0 10.5,9.0 L 11.5,9.0 C 11.7761,9.0 12.0,9.2239 12.0,9.5 C 12.0,9.7761 11.7761,10.0 11.5,10.0 L 10.5,10.0 C 10.2239,10.0 10.0,9.7761 10.0,9.5" fill="#000" /></svg>