<svg xmlns="http://www.w3.org/2000/svg" width="16" height="16"><path d="M 3.5,4.0 C 2.671,4.001 2.0,4.672 2.0,5.5 L 2.0,10.5 C 2.0,11.328 2.671,12.0 3.498,12.0 L 12.5,12.0 C 13.329,12.0 14.0,11.328 14.0,10.5 L 14.0,5.502 C 14.0,4.672 13.329,4.001 12.502,4.0 L 3.5,4.0 M 3.499,5.0 L 12.5,5.0 C 12.777,5.001 13.0,5.224 13.0,5.5 L 13.0,6.0 L 3.0,6.0 L 3.0,5.501 C 3.0,5.224 3.223,5.001 3.499,5.0 M 3.0,10.5 L 3.0,8.0 L 13.0,8.0 L 13.0,10.5 C 13.0,10.776 12.777,11.0 12.501,11.0 L 3.5,11.0 C 3.223,11.0 3.0,10.776 3.0,10.5 M 7.5,9.0 C 7.223,9.0 7.0,9.224 7.0,9.5 C 7.0,9.776 7.223,10.0 7.499,10.0 L 8.5,10.0 C 8.777,10.0 9.0,9.776 9.0,9.5 C 9.0,9.224 8.777,9.0 8.501,9.0 L 7.5,9.0 M 10.5,9.0 C 10.223,9.0 10.0,9.224 10.0,9.5 C 10.0,9.776 10.223,10.0 10.499,10.0 L 11.5,10.0 C 11.777,10.0 12.0,9.776 12.0,9.5 C 12.0,9.224 11.777,9.0 11.501,9.0 L 10.5,9.0" fill="#000" /></svg>