<svg xmlns="http://www.w3.org/2000/svg" width="16" height="16"><path d="M 4.043,3.4902 C 1.6706,5.5716 1.3191,9.1484 3.2402,11.6523 C 5.1618,14.1558 8.7078,14.7413 11.332,12.9883 C 13.2745,11.6734 13.9679,9.5719 13.9668,7.3984 C 13.9664,6.7888 13.0239,6.7932 12.9707,7.4004 C 12.8343,8.7712 12.003,9.9731 10.7695,10.586 C 9.0555,11.4317 6.9901,10.9516 5.8261,9.4356 C 4.6625,7.919 4.7314,5.8003 5.9921,4.3633 C 6.6669,3.5994 7.608,3.1231 8.623,3.0293 C 9.2306,2.9786 9.2359,2.0913 8.629,2.0332 C 7.8359,1.9491 5.8255,1.927 4.043,3.4902" fill="#000" /></svg>