<svg xmlns="http://www.w3.org/2000/svg" width="16" height="16"><path d="M 5.0,4.5 L 5.0,11.5 C 5.0,11.7761 4.7761,12.0 4.5,12.0 L 3.5,12.0 C 3.2239,12.0 3.0,11.7761 3.0,11.5 L 3.0,4.5 C 3.0,4.2239 3.2239,4.0 3.5,4.0 L 4.5,4.0 C 4.7761,4.0 5.0,4.2239 5.0,4.5 M 9.0,4.5 L 9.0,11.5 C 9.0,11.7761 8.7761,12.0 8.5,12.0 L 7.5,12.0 C 7.2239,12.0 7.0,11.7761 7.0,11.5 L 7.0,4.5 C 7.0,4.2239 7.2239,4.0 7.5,4.0 L 8.5,4.0 C 8.7761,4.0 9.0,4.2239 9.0,4.5 M 13.0,4.5 L 13.0,11.5 C 13.0,11.7761 12.7761,12.0 12.5,12.0 L 11.5,12.0 C 11.2239,12.0 11.0,11.7761 11.0,11.5 L 11.0,4.5 C 11.0,4.2239 11.2239,4.0 11.5,4.0 L 12.5,4.0 C 12.7761,4.0 13.0,4.2239 13.0,4.5" fill="#000" /></svg>