<svg xmlns="http://www.w3.org/2000/svg" width="16" height="16"><path d="M 3.5,4.0 C 3.223,4.001 3.0,4.224 3.0,4.5 L 3.0,11.5 C 3.0,11.776 3.223,12.0 3.499,12.0 L 4.5,12.0 C 4.777,12.0 5.0,11.776 5.0,11.5 L 5.0,4.501 C 5.0,4.224 4.777,4.001 4.501,4.0 L 3.5,4.0 M 7.5,4.0 C 7.223,4.001 7.0,4.224 7.0,4.5 L 7.0,11.5 C 7.0,11.776 7.223,12.0 7.499,12.0 L 8.5,12.0 C 8.777,12.0 9.0,11.776 9.0,11.5 L 9.0,4.501 C 9.0,4.224 8.777,4.001 8.501,4.0 L 7.5,4.0 M 11.5,4.0 C 11.223,4.001 11.0,4.224 11.0,4.5 L 11.0,11.5 C 11.0,11.776 11.223,12.0 11.499,12.0 L 12.5,12.0 C 12.777,12.0 13.0,11.776 13.0,11.5 L 13.0,4.501 C 13.0,4.224 12.777,4.001 12.501,4.0 L 11.5,4.0" fill="#000" /></svg>