<svg xmlns="http://www.w3.org/2000/svg" width="16" height="16"><path d="M 8.0,3.0 C 5.6389,3.0 3.9936,3.7809 3.1211,4.7988 C 2.6848,5.3078 2.4375,5.8831 2.4375,6.4531 C 2.4375,6.8307 2.5613,7.2022 2.791,7.5078 C 3.3128,7.0319 3.8902,6.75 4.5,6.75 C 5.0233,6.75 5.4942,7.0934 5.9551,7.4531 C 6.543,7.0048 7.2613,6.75 8.0,6.75 C 8.7387,6.75 9.457,7.0048 10.0449,7.4531 C 10.5058,7.0934 10.9767,6.75 11.5,6.75 C 12.1098,6.75 12.6872,7.0319 13.209,7.5078 C 13.4387,7.2022 13.5625,6.8307 13.5625,6.4531 C 13.5625,5.8831 13.3152,5.3078 12.8789,4.7988 C 12.0064,3.7809 10.3611,3.0 8.0,3.0 M 4.5,7.75 C 4.1667,7.75 3.7946,7.9124 3.3535,8.3535 C 3.3413,8.3657 3.3286,8.3787 3.3164,8.3906 L 5.0352,12.6856 C 5.1111,12.8756 5.2953,13.0002 5.5,13.0 L 10.5,13.0 C 10.7047,13.0002 10.8889,12.8756 10.9648,12.6856 L 12.6836,8.3887 C 12.6719,8.378 12.6595,8.3665 12.6465,8.3535 C 12.2054,7.9124 11.8333,7.75 11.5,7.75 C 11.1667,7.75 10.7946,7.9124 10.3535,8.3535 A 0.5,0.5 0.0 0,1 9.6465,8.3535 C 9.2643,7.9714 8.6389,7.75 8.0,7.75 C 7.3611,7.75 6.7357,7.9714 6.3535,8.3535 A 0.5,0.5 0.0 0,1 5.6465,8.3535 C 5.2054,7.9124 4.8333,7.75 4.5,7.75" fill="#000" /></svg>