<svg xmlns="http://www.w3.org/2000/svg" width="16" height="16"><path d="M 2.5,2.0 C 2.223,2.0 2.0,2.223 2.0,2.5 C 2.0,2.777 2.223,3.0 2.5,3.0 L 12.5,3.0 C 12.777,3.0 13.0,2.777 13.0,2.5 C 13.0,2.223 12.777,2.0 12.5,2.0 L 2.5,2.0 M 2.0,4.5 L 2.0,12.5 A 0.5,0.5 45.0 0,0 2.5,13.0 L 5.0,13.0 C 5.0,10.0 4.0,8.0 4.0,8.0 C 4.0,8.0 7.0,7.0 7.0,4.0 L 2.5,4.0 A 0.5,0.5 135.0 0,0 2.0,4.5 M 8.0,4.0 C 8.0,7.0 11.0,8.0 11.0,8.0 C 11.0,8.0 10.0,10.0 10.0,13.0 L 12.5,13.0 A 0.5,0.5 135.0 0,0 13.0,12.5 L 13.0,4.5 A 0.5,0.5 45.0 0,0 12.5,4.0 L 8.0,4.0" fill="#000" /></svg>