<svg xmlns="http://www.w3.org/2000/svg" width="16" height="16"><path d="M 7.0801,1.5586 C 7.2932,1.5666 7.4847,1.7103 7.543,1.9277 L 8.5176,5.5684 L 11.1816,2.9043 C 11.3775,2.7084 11.6928,2.7084 11.8887,2.9043 L 12.5957,3.6113 C 12.7916,3.8072 12.7916,4.1225 12.5957,4.3184 L 9.6289,7.2852 L 13.2637,9.3848 C 13.5036,9.5233 13.5838,9.8265 13.4453,10.0664 L 12.9453,10.9336 C 12.8068,11.1735 12.5036,11.2537 12.2637,11.1152 L 9.5898,9.5723 L 10.3887,12.5547 C 10.4604,12.8222 10.3027,13.0943 10.0352,13.166 L 9.0703,13.4258 C 8.8028,13.4975 8.5287,13.3398 8.457,13.0723 L 7.4824,9.4316 L 4.8184,12.0957 C 4.6225,12.2916 4.3072,12.2916 4.1113,12.0957 L 3.4043,11.3887 C 3.2084,11.1928 3.2084,10.8775 3.4043,10.6816 L 6.3711,7.7148 L 2.7363,5.6152 C 2.4964,5.4767 2.4162,5.1735 2.5547,4.9336 L 3.0547,4.0664 C 3.1932,3.8265 3.4964,3.7463 3.7363,3.8848 L 6.4102,5.4277 L 5.6113,2.4453 C 5.5396,2.1778 5.6973,1.9057 5.9648,1.834 L 6.9297,1.5742 C 6.9799,1.5608 7.0309,1.5567 7.0801,1.5586 L 7.0801,1.5586" fill="#000" /></svg>