<svg xmlns="http://www.w3.org/2000/svg" width="16" height="16"><path d="M 7.3125,0.926 C 6.9848,0.9851 6.6576,1.0457 6.33,1.1056 C 6.0575,1.1552 5.8762,1.4151 5.9257,1.6876 L 6.5039,4.8634 L 4.2832,2.9181 C 4.0747,2.7357 3.7585,2.7565 3.5761,2.965 L 2.9179,3.7189 C 2.7355,3.9274 2.7563,4.2416 2.9648,4.424 L 6.3829,7.4124 L 2.0177,10.4671 C 1.7907,10.6259 1.7359,10.9373 1.8946,11.1643 L 2.4669,11.9827 C 2.6257,12.2096 2.9372,12.2645 3.1641,12.1057 L 7.2952,9.215 L 8.1059,13.6702 C 8.1554,13.9428 8.4154,14.1221 8.6879,14.0726 L 9.6703,13.8947 C 9.9428,13.8451 10.1241,13.5852 10.0746,13.3127 L 9.4965,10.1369 L 11.7192,12.0822 C 11.9276,12.2646 12.2418,12.2438 12.4243,12.0353 L 13.0825,11.2834 C 13.2649,11.0749 13.244,10.7587 13.0356,10.5763 L 9.6176,7.588 L 13.9828,4.5333 C 14.2097,4.3745 14.2647,4.063 14.1058,3.8361 L 13.5336,3.0177 C 13.3747,2.7908 13.0632,2.7358 12.8363,2.8946 L 8.7054,5.7854 L 7.8948,1.3283 C 7.8405,1.0301 7.5585,0.8826 7.3125,0.926 L 7.3125,0.926" fill="#000" /></svg>