<svg xmlns="http://www.w3.org/2000/svg" width="16" height="16"><path d="M 6.5,1.0 C 6.2392,1.0002 6.0224,1.2009 6.002,1.4609 L 5.7832,4.2988 A 0.5,0.5 0.0 0,0 5.6465,4.3965 C 5.2054,4.8376 4.8333,5.0 4.5,5.0 C 4.1719,5.0 3.7859,4.8289 3.3535,4.3965 A 0.5,0.5 0.0 0,0 3.0,4.25 A 0.5,0.5 0.0 0,0 2.6465,4.3965 C 2.2054,4.8376 1.8333,5.0 1.5,5.0 A 0.5,0.5 0.0 0,0 1.0,5.5 A 0.5,0.5 0.0 0,0 1.5,6.0 C 2.0295,6.0 2.5345,5.7876 3.0,5.4199 C 3.4617,5.7844 3.9676,6.0 4.5,6.0 C 4.9104,6.0 5.3057,5.8732 5.6797,5.6445 L 5.6191,6.4238 C 5.1904,6.8438 4.8262,7.0 4.5,7.0 C 4.1719,7.0 3.7859,6.8289 3.3535,6.3965 A 0.5,0.5 0.0 0,0 3.0,6.25 A 0.5,0.5 0.0 0,0 2.6465,6.3965 C 2.2054,6.8376 1.8333,7.0 1.5,7.0 A 0.5,0.5 0.0 0,0 1.0,7.5 A 0.5,0.5 0.0 0,0 1.5,8.0 C 2.0295,8.0 2.5345,7.7876 3.0,7.4199 C 3.4617,7.7844 3.9676,8.0 4.5,8.0 C 4.8521,8.0 5.1935,7.9054 5.5195,7.7344 L 5.002,14.4609 C 4.9792,14.7514 5.2086,14.9997 5.5,15.0 L 10.5,15.0 C 10.7914,14.9997 11.0208,14.7514 10.998,14.4609 L 10.8789,12.9023 C 11.0813,12.9664 11.2881,13.0 11.5,13.0 C 12.0295,13.0 12.5345,12.7876 13.0,12.4199 C 13.4655,12.7876 13.9705,13.0 14.5,13.0 A 0.5,0.5 0.0 0,0 15.0,12.5 A 0.5,0.5 0.0 0,0 14.5,12.0 C 14.1667,12.0 13.7946,11.8376 13.3535,11.3965 A 0.5,0.5 0.0 0,0 13.25,11.3164 A 0.5,0.5 0.0 0,0 13.1289,11.2676 A 0.5,0.5 0.0 0,0 12.9355,11.2539 A 0.5,0.5 0.0 0,0 12.6465,11.3965 C 12.2054,11.8376 11.8333,12.0 11.5,12.0 C 11.2868,12.0 11.05,11.9271 10.791,11.7578 L 10.7207,10.8457 C 10.9726,10.9461 11.2326,11.0 11.5,11.0 C 12.0295,11.0 12.5345,10.7876 13.0,10.4199 C 13.4655,10.7876 13.9705,11.0 14.5,11.0 A 0.5,0.5 0.0 0,0 15.0,10.5 A 0.5,0.5 0.0 0,0 14.5,10.0 C 14.1667,10.0 13.7946,9.8376 13.3535,9.3965 A 0.5,0.5 0.0 0,0 13.25,9.3164 A 0.5,0.5 0.0 0,0 13.1289,9.2676 A 0.5,0.5 0.0 0,0 12.9355,9.2539 A 0.5,0.5 0.0 0,0 12.6465,9.3965 C 12.2054,9.8376 11.8333,10.0 11.5,10.0 C 11.2428,10.0 10.9497,9.8943 10.627,9.6406 L 9.998,1.4609 C 9.9776,1.2009 9.7608,1.0002 9.5,1.0 L 6.5,1.0" fill="#000" /></svg>