<svg xmlns="http://www.w3.org/2000/svg" width="16" height="16"><path d="M 9.5,1.0 C 9.2239,1.0 9.0,1.2239 9.0,1.5 L 9.0,4.4648 L 8.2676,3.7324 C 8.1739,3.6386 8.0467,3.586 7.9141,3.5859 C 7.7815,3.586 7.6543,3.6386 7.5606,3.7324 C 7.3653,3.9277 7.3653,4.2442 7.5606,4.4394 L 8.5606,5.4394 C 9.0423,5.9212 9.1395,6.66 8.7988,7.25 C 8.4582,7.84 7.7694,8.1256 7.1113,7.9492 C 6.4532,7.7729 6.0,7.1813 6.0,6.5 L 6.0,4.5 C 6.0,4.2239 5.7761,4.0 5.5,4.0 C 5.2239,4.0 5.0,4.2239 5.0,4.5 L 5.0,6.293 L 2.8535,4.1465 C 2.7598,4.0527 2.6326,4.0 2.5,4.0 C 2.3674,4.0 2.2402,4.0527 2.1465,4.1465 C 1.9513,4.3417 1.9513,4.6583 2.1465,4.8535 L 3.4844,6.1914 C 3.0086,6.316 2.5592,6.6088 2.1465,7.0215 C 1.9513,7.2167 1.9513,7.5333 2.1465,7.7285 C 2.3417,7.9237 2.6583,7.9237 2.8535,7.7285 C 3.2946,7.2874 3.6667,7.125 4.0,7.125 C 4.1798,7.125 4.371,7.1724 4.5781,7.2852 L 5.1465,7.8535 C 6.6072,9.3142 7.0,10.0833 7.0,12.0 L 7.0,14.5 C 7.0,14.7761 7.2239,15.0 7.5,15.0 L 8.5,15.0 C 8.7761,15.0 9.0,14.7761 9.0,14.5 L 9.0,11.5 C 9.0,10.0278 9.1254,9.2323 9.3926,8.6445 C 9.6597,8.0568 10.1035,7.6035 10.8535,6.8535 C 11.2946,6.4125 11.6667,6.25 12.0,6.25 C 12.3333,6.25 12.7054,6.4124 13.1465,6.8535 C 13.3417,7.0487 13.6583,7.0487 13.8535,6.8535 C 14.0487,6.6583 14.0487,6.3417 13.8535,6.1465 C 13.4117,5.7047 12.9272,5.4008 12.4141,5.293 L 13.8535,3.8535 C 14.0487,3.6583 14.0487,3.3417 13.8535,3.1465 C 13.7598,3.0527 13.6326,3.0 13.5,3.0 C 13.3674,3.0 13.2402,3.0527 13.1465,3.1465 L 10.1465,6.1465 C 10.0968,6.1962 10.048,6.245 10.0,6.293 L 10.0,4.5 C 10.0,3.6667 10.3535,3.3535 10.8535,2.8535 L 11.8535,1.8535 C 12.0487,1.6583 12.0487,1.3417 11.8535,1.1465 C 11.7598,1.0527 11.6326,1.0 11.5,1.0 C 11.3674,1.0 11.2402,1.0527 11.1465,1.1465 L 10.1465,2.1465 C 10.0988,2.1942 10.0497,2.2436 10.0,2.2949 L 10.0,1.5 C 10.0,1.2239 9.7761,1.0 9.5,1.0" fill="#000" /></svg>