<svg xmlns="http://www.w3.org/2000/svg" width="16" height="16"><path d="M 9.5,1.0 C 9.2239,1.0 9.0,1.2239 9.0,1.5 L 9.0,4.3848 L 8.2461,3.7129 C 8.1473,3.6243 8.0173,3.5786 7.8848,3.5859 C 7.7525,3.5939 7.6288,3.6545 7.541,3.7539 C 7.358,3.9601 7.3763,4.2755 7.582,4.459 L 9.0,5.7227 L 9.0,7.3145 C 8.5153,7.8006 8.0102,8.318 7.6289,8.9219 L 6.0,7.293 L 6.0,4.5 C 6.0,4.2239 5.7761,4.0 5.5,4.0 C 5.2239,4.0 5.0,4.2239 5.0,4.5 L 5.0,6.2949 L 4.875,6.1699 C 4.8604,6.1533 4.8448,6.1376 4.8281,6.123 L 2.8535,4.1465 C 2.7598,4.0527 2.6326,4.0 2.5,4.0 C 2.3674,4.0 2.2402,4.0527 2.1465,4.1465 C 1.9513,4.3417 1.9513,4.6583 2.1465,4.8535 L 3.6562,6.3633 L 2.2773,7.0527 C 2.0305,7.1759 1.93,7.4756 2.0527,7.7227 C 2.1758,7.9695 2.4756,8.07 2.7227,7.9473 L 4.4004,7.1074 L 5.1426,7.8496 L 5.1466,7.8536 C 5.1476,7.8546 5.1496,7.8566 5.1506,7.8576 C 6.6072,9.315 7.0,10.0854 7.0,12.0 L 7.0,14.5 C 7.0,14.7761 7.2239,15.0 7.5,15.0 L 8.5,15.0 C 8.7761,15.0 9.0,14.7761 9.0,14.5 L 9.0,11.5 C 9.0,10.0278 9.1254,9.2323 9.3926,8.6445 C 9.6597,8.0568 10.1035,7.6035 10.8535,6.8535 L 11.5996,6.1074 L 13.2773,6.9473 C 13.5244,7.07 13.8241,6.9695 13.9473,6.7227 C 14.07,6.4756 13.9695,6.1759 13.7227,6.0527 L 12.3438,5.3633 L 13.8535,3.8535 C 14.0487,3.6583 14.0487,3.3417 13.8535,3.1465 C 13.7598,3.0527 13.6326,3.0 13.5,3.0 C 13.3674,3.0 13.2402,3.0527 13.1465,3.1465 L 11.1719,5.123 C 11.1553,5.1376 11.1396,5.1532 11.125,5.1699 L 10.1465,6.1465 C 10.0968,6.1962 10.048,6.245 10.0,6.293 L 10.0,3.7071 L 11.8535,1.8536 C 12.0487,1.6583 12.0487,1.3418 11.8535,1.1465 C 11.7598,1.0527 11.6326,1.0001 11.5,1.0 C 11.3674,1.0001 11.2402,1.0527 11.1465,1.1465 L 10.0,2.293 L 10.0,1.5 C 10.0,1.2239 9.7761,1.0 9.5,1.0" fill="#000" /></svg>