<svg xmlns="http://www.w3.org/2000/svg" width="16" height="16"><path d="M 4.0,2.0039 C 3.2312,2.0039 2.4626,2.2952 1.8789,2.8789 C 0.727,4.0308 0.7147,5.9013 1.8359,7.0723 C 1.8491,7.0895 1.8635,7.1058 1.8789,7.1211 L 6.1465,11.3887 C 6.2561,11.4985 6.4105,11.5511 6.5644,11.5312 C 6.6739,11.5169 6.7755,11.4667 6.8535,11.3887 L 11.1211,7.1211 C 11.1365,7.1058 11.1508,7.0895 11.1641,7.0723 C 12.2853,5.9013 12.273,4.0308 11.1211,2.8789 C 10.5374,2.2952 9.7688,2.0039 9.0,2.0039 C 8.2312,2.0039 7.4626,2.2952 6.8789,2.8789 C 6.7348,3.023 6.6085,3.178 6.5,3.3418 C 6.3915,3.178 6.2652,3.023 6.1211,2.8789 C 5.5374,2.2952 4.7688,2.0039 4.0,2.0039 M 11.5098,9.0 C 11.2909,8.996 11.0946,9.1341 11.0254,9.3418 L 10.0254,12.3418 C 9.8946,12.733 10.267,13.1054 10.6582,12.9746 L 12.0,12.5273 L 12.0,14.5 C 11.9993,15.0679 12.7956,15.1972 12.9746,14.6582 L 13.9746,11.6582 C 14.1054,11.267 13.733,10.8946 13.3418,11.0254 L 12.0,11.4727 L 12.0,9.5 C 12.0003,9.2545 11.8224,9.0452 11.5801,9.0059 C 11.5568,9.0019 11.5333,8.9999 11.5098,8.9999 L 11.5098,9.0" fill="#000" /></svg>