<svg xmlns="http://www.w3.org/2000/svg" width="16" height="16"><path d="M 7.0,2.0 L 5.0,6.0 L 5.0,7.0 L 4.0,7.0 C 3.7796,7.0001 3.5852,7.1445 3.5215,7.3555 L 2.1289,12.0 L 1.5,12.0 C 0.8238,11.9904 0.8238,13.0096 1.5,13.0 L 3.5,13.0 C 4.1762,13.0096 4.1762,11.9904 3.5,12.0 L 3.1719,12.0 L 3.4727,11.0 C 3.4817,11.0002 3.4909,11.0002 3.5,11.0 L 12.5,11.0 C 12.509,10.9996 12.5182,10.9989 12.5273,10.998 L 12.8281,12.0 L 12.5,12.0 C 11.8238,11.9904 11.8238,13.0096 12.5,13.0 L 14.5,13.0 C 15.1762,13.0096 15.1762,11.9904 14.5,12.0 L 13.8711,12.0 L 12.4785,7.3555 C 12.4148,7.1445 12.2204,7.0001 12.0,7.0 L 11.0,7.0 L 11.0,6.0 L 9.0,2.0 L 7.0,2.0 M 8.0,5.5 C 8.8284,5.5 9.5,6.1716 9.5,7.0 C 9.5,7.8284 8.8284,8.5 8.0,8.5 C 7.1716,8.5 6.5,7.8284 6.5,7.0 C 6.5,6.1716 7.1716,5.5 8.0,5.5 M 4.3711,8.0 L 5.0,8.0 L 5.0,10.0 L 3.7715,10.0 L 4.3711,8.0 M 11.0,8.0 L 11.6289,8.0 L 12.2285,10.0 L 11.0,10.0 L 11.0,8.0 M 7.0,12.0 C 6.3238,11.9904 6.3238,13.0096 7.0,13.0 L 9.0,13.0 C 9.6762,13.0096 9.6762,11.9904 9.0,12.0 L 7.0,12.0" fill="#000" /></svg>