<svg xmlns="http://www.w3.org/2000/svg" width="16" height="16"><path d="M 7.5,2.0 C 7.3,2.0 7.128,2.117 7.048,2.286 L 5.057,6.267 C 5.021,6.337 5.0,6.416 5.0,6.5 L 5.0,7.0 L 4.0,7.0 C 3.769,7.001 3.576,7.156 3.518,7.367 L 2.128,12.0 L 1.5,12.0 C 1.223,12.0 1.0,12.224 1.0,12.5 C 1.0,12.776 1.223,13.0 1.499,13.0 L 3.5,13.0 C 3.777,13.0 4.0,12.776 4.0,12.5 C 4.0,12.224 3.777,12.0 3.501,12.0 L 3.172,12.0 L 3.472,11.0 C 3.472,11.0 3.499,11.0 3.499,11.0 L 12.5,11.0 C 12.5,11.0 12.528,11.0 12.528,11.0 L 12.828,12.0 L 12.5,12.0 C 12.223,12.0 12.0,12.224 12.0,12.5 C 12.0,12.776 12.223,13.0 12.499,13.0 L 14.5,13.0 C 14.777,13.0 15.0,12.776 15.0,12.5 C 15.0,12.224 14.777,12.0 14.501,12.0 L 13.872,12.0 L 12.482,7.367 C 12.424,7.156 12.231,7.001 12.0,7.0 L 11.0,7.0 L 11.0,6.501 C 11.0,6.416 10.979,6.337 10.943,6.267 L 8.952,2.286 C 8.872,2.117 8.7,2.0 8.501,2.0 L 7.5,2.0 M 6.5,7.0 C 6.5,6.172 7.172,5.5 8.0,5.5 C 8.828,5.5 9.5,6.172 9.5,7.0 C 9.5,7.828 8.828,8.5 8.0,8.5 C 7.172,8.5 6.5,7.828 6.5,7.0 M 3.772,10.0 L 4.372,8.0 L 5.0,8.0 L 5.0,10.0 L 3.772,10.0 M 11.0,10.0 L 11.0,8.0 L 11.628,8.0 L 12.228,10.0 L 11.0,10.0 M 7.0,12.0 C 6.723,12.0 6.5,12.224 6.5,12.5 C 6.5,12.776 6.723,13.0 6.999,13.0 L 9.0,13.0 C 9.277,13.0 9.5,12.776 9.5,12.5 C 9.5,12.224 9.277,12.0 9.0,12.0 L 7.0,12.0" fill="#000" /></svg>