<svg xmlns="http://www.w3.org/2000/svg" width="16" height="16"><path d="M 7.5,2.0 L 8.5,2.0 C 8.6996,2.0 8.8719,2.117 8.9521,2.2861 L 10.9427,6.2674 C 10.9793,6.3369 11.0,6.416 11.0,6.5 L 11.0,7.0 L 12.0,7.0 C 12.2301,7.0 12.4239,7.1555 12.4821,7.3671 L 13.872,12.0 L 14.5,12.0 C 14.7761,12.0 15.0,12.2239 15.0,12.5 C 15.0,12.7761 14.7761,13.0 14.5,13.0 L 12.5,13.0 C 12.2239,13.0 12.0,12.7761 12.0,12.5 C 12.0,12.2239 12.2239,12.0 12.5,12.0 L 12.828,12.0 L 12.5277,10.9992 C 12.5186,10.9997 12.5093,11.0 12.5,11.0 L 3.5,11.0 C 3.4907,11.0 3.4814,10.9997 3.4722,10.9992 L 3.172,12.0 L 3.5,12.0 C 3.7761,12.0 4.0,12.2239 4.0,12.5 C 4.0,12.7761 3.7761,13.0 3.5,13.0 L 1.5,13.0 C 1.2238,13.0 1.0,12.7761 1.0,12.5 C 1.0,12.2239 1.2238,12.0 1.5,12.0 L 2.128,12.0 L 3.5178,7.3671 C 3.576,7.1555 3.7698,7.0 4.0,7.0 L 5.0,7.0 L 5.0,6.5 C 5.0,6.416 5.0207,6.3369 5.0572,6.2674 L 7.0479,2.2861 C 7.1281,2.117 7.3004,2.0 7.5,2.0 L 7.5,2.0 M 11.628,8.0 L 11.0,8.0 L 11.0,10.0 L 12.228,10.0 L 11.628,8.0 M 5.0,8.0 L 4.372,8.0 L 3.772,10.0 L 5.0,10.0 L 5.0,8.0 M 6.5,12.5 C 6.5,12.2239 6.7239,12.0 7.0,12.0 L 9.0,12.0 C 9.2761,12.0 9.5,12.2239 9.5,12.5 C 9.5,12.7761 9.2761,13.0 9.0,13.0 L 7.0,13.0 C 6.7239,13.0 6.5,12.7761 6.5,12.5 M 8.0,8.5 C 8.8284,8.5 9.5,7.8284 9.5,7.0 C 9.5,6.1716 8.8284,5.5 8.0,5.5 C 7.1716,5.5 6.5,6.1716 6.5,7.0 C 6.5,7.8284 7.1716,8.5 8.0,8.5" fill="#000" /></svg>