<svg xmlns="http://www.w3.org/2000/svg" width="16" height="16"><path d="M 4.5,3.0 A 0.5,0.5 0.0 0,0 4.1465,3.1465 L 1.1465,6.1465 A 0.5,0.5 0.0 0,0 1.1465,6.8535 L 7.1465,12.8535 A 0.5,0.5 0.0 0,0 7.8535,12.8535 L 13.8535,6.8535 A 0.5,0.5 0.0 0,0 13.8535,6.1465 L 10.8535,3.1465 A 0.5,0.5 0.0 0,0 10.5,3.0 L 4.5,3.0 M 4.707,4.0 L 5.7305,4.0 L 4.6953,6.0 L 2.707,6.0 L 4.707,4.0 M 6.8555,4.0 L 8.1445,4.0 L 9.1777,6.0 L 5.8223,6.0 L 6.8555,4.0 M 9.2695,4.0 L 10.293,4.0 L 12.293,6.0 L 10.3047,6.0 L 9.2695,4.0 M 2.707,7.0 L 4.668,7.0 L 6.1094,10.4023 L 2.707,7.0 M 5.7559,7.0 L 9.2441,7.0 L 7.5,11.1172 L 5.7559,7.0 M 10.332,7.0 L 12.293,7.0 L 8.8906,10.4023 L 10.332,7.0" fill="#000" /></svg>