<svg xmlns="http://www.w3.org/2000/svg" width="16" height="16"><path d="M 14.0,4.0 L 14.0,11.0 C 14.0,11.5523 13.5523,12.0 13.0,12.0 L 2.0,12.0 C 1.4477,12.0 1.0,11.5523 1.0,11.0 L 1.0,4.0 C 1.0,3.4477 1.4477,3.0 2.0,3.0 L 13.0,3.0 C 13.5523,3.0 14.0,3.4477 14.0,4.0 M 2.5,5.0 C 2.2239,5.0 2.0,5.2239 2.0,5.5 C 2.0,5.7761 2.2239,6.0 2.5,6.0 L 4.0,6.0 C 4.0,6.0 4.0,6.5637 4.0,7.0 L 2.5,7.0 C 2.5,7.0 2.5,7.0 2.5,7.0 C 2.2239,7.0 2.0,7.2239 2.0,7.5 C 2.0,7.5 2.0,9.5 2.0,9.5 C 2.0,9.7761 2.2239,10.0 2.5,10.0 L 4.5,10.0 C 4.7761,10.0 5.0,9.7761 5.0,9.5 C 5.0,9.2239 4.7761,9.0 4.5,9.0 L 3.0,9.0 L 3.0,8.0 L 4.5,8.0 C 4.7761,8.0 5.0,7.7761 5.0,7.5 L 5.0,5.5 C 5.0,5.2239 4.7761,5.0 4.5,5.0 C 4.5,5.0 2.5,5.0 2.5,5.0 M 6.5,7.0 C 6.7761,7.0 7.0,6.7761 7.0,6.5 C 7.0,6.2239 6.7761,6.0 6.5,6.0 C 6.2239,6.0 6.0,6.2239 6.0,6.5 C 6.0,6.7761 6.2239,7.0 6.5,7.0 M 6.5,9.0 C 6.7761,9.0 7.0,8.7761 7.0,8.5 C 7.0,8.2239 6.7761,8.0 6.5,8.0 C 6.2239,8.0 6.0,8.2239 6.0,8.5 C 6.0,8.7761 6.2239,9.0 6.5,9.0 M 8.5,5.0 C 8.2239,5.0 8.0,5.2239 8.0,5.5 C 8.0,5.5 8.0,9.5 8.0,9.5 C 8.0,9.7761 8.2239,10.0 8.5,10.0 C 8.7761,10.0 9.0,9.7761 9.0,9.5 L 9.0,5.5 C 9.0,5.2239 8.7761,5.0 8.5,5.0 M 10.5,5.0 C 10.2239,5.0 10.0,5.2239 10.0,5.5 C 10.0,5.7761 10.2239,6.0 10.5,6.0 L 12.0,6.0 C 12.0,6.0 12.0,6.5637 12.0,7.0 L 10.5,7.0 C 10.5,7.0 10.5,7.0 10.5,7.0 C 10.2239,7.0 10.0,7.2239 10.0,7.5 C 10.0,7.5 10.0,9.5 10.0,9.5 C 10.0,9.7761 10.2239,10.0 10.5,10.0 L 12.5,10.0 C 12.7761,10.0 13.0,9.7761 13.0,9.5 C 13.0,9.2239 12.7761,9.0 12.5,9.0 L 11.0,9.0 L 11.0,8.0 L 12.5,8.0 C 12.7761,8.0 13.0,7.7761 13.0,7.5 L 13.0,5.5 C 13.0,5.2239 12.7761,5.0 12.5,5.0 C 12.5,5.0 10.5,5.0 10.5,5.0" fill="#000" /></svg>