<svg xmlns="http://www.w3.org/2000/svg" width="16" height="16"><path d="M 2.0,3.0 C 1.446,3.0 1.0,3.446 1.0,4.0 L 1.0,11.0 C 1.0,11.554 1.446,12.0 2.0,12.0 L 13.0,12.0 C 13.554,12.0 14.0,11.554 14.0,11.0 L 14.0,4.0 C 14.0,3.446 13.554,3.0 13.0,3.0 L 2.0,3.0 M 2.5,5.0 L 4.5,5.0 A 0.5,0.5 0.0 0,1 5.0,5.5 L 5.0,7.5 A 0.5,0.5 0.0 0,1 4.5,8.0 L 3.0,8.0 L 3.0,9.0 L 4.5,9.0 A 0.5,0.5 0.0 0,1 5.0,9.5 A 0.5,0.5 0.0 0,1 4.5,10.0 L 2.5,10.0 A 0.5,0.5 0.0 0,1 2.0,9.5 L 2.0,7.5 A 0.5,0.5 0.0 0,1 2.5,7.0 L 4.0,7.0 L 4.0,6.0 L 2.5,6.0 A 0.5,0.5 0.0 0,1 2.0,5.5 A 0.5,0.5 0.0 0,1 2.5,5.0 M 8.5,5.0 A 0.5,0.5 0.0 0,1 9.0,5.5 L 9.0,9.5 A 0.5,0.5 0.0 0,1 8.5,10.0 A 0.5,0.5 0.0 0,1 8.0,9.5 L 8.0,5.5 A 0.5,0.5 0.0 0,1 8.5,5.0 M 10.5,5.0 L 12.5,5.0 A 0.5,0.5 0.0 0,1 13.0,5.5 L 13.0,7.5 A 0.5,0.5 0.0 0,1 12.5,8.0 L 11.0,8.0 L 11.0,9.0 L 12.5,9.0 A 0.5,0.5 0.0 0,1 13.0,9.5 A 0.5,0.5 0.0 0,1 12.5,10.0 L 10.5,10.0 A 0.5,0.5 0.0 0,1 10.0,9.5 L 10.0,7.5 A 0.5,0.5 0.0 0,1 10.5,7.0 L 12.0,7.0 L 12.0,6.0 L 10.5,6.0 A 0.5,0.5 0.0 0,1 10.0,5.5 A 0.5,0.5 0.0 0,1 10.5,5.0 M 6.5,6.0 C 6.777,6.0 7.0,6.223 7.0,6.5 C 7.0,6.777 6.777,7.0 6.5,7.0 C 6.223,7.0 6.0,6.777 6.0,6.5 C 6.0,6.223 6.223,6.0 6.5,6.0 M 6.5,8.0 C 6.777,8.0 7.0,8.223 7.0,8.5 C 7.0,8.777 6.777,9.0 6.5,9.0 C 6.223,9.0 6.0,8.777 6.0,8.5 C 6.0,8.223 6.223,8.0 6.5,8.0" fill="#000" /></svg>