<svg xmlns="http://www.w3.org/2000/svg" width="16" height="16"><path d="M 2.0,3.0 C 1.447,3.0 1.0,3.448 1.0,4.0 L 1.0,11.0 C 1.0,11.552 1.447,12.0 1.998,12.0 L 13.0,12.0 C 13.553,12.0 14.0,11.552 14.0,11.0 L 14.0,4.001 C 14.0,3.448 13.553,3.0 13.002,3.0 L 2.0,3.0 M 2.499,5.0 L 4.5,5.0 C 4.777,5.001 5.0,5.224 5.0,5.5 L 5.0,7.5 C 5.0,7.776 4.777,7.999 4.501,8.0 L 3.0,8.0 L 3.0,9.0 L 4.5,9.0 C 4.777,9.0 5.0,9.224 5.0,9.5 C 5.0,9.776 4.777,10.0 4.501,10.0 L 2.5,10.0 C 2.223,10.0 2.0,9.776 2.0,9.5 L 2.0,7.501 C 2.0,7.224 2.223,7.001 2.499,7.0 L 4.0,7.0 L 4.0,6.0 L 2.5,6.0 C 2.223,5.999 2.0,5.776 2.0,5.5 C 2.0,5.224 2.223,5.001 2.499,5.0 M 8.0,5.5 C 8.0,5.224 8.224,5.0 8.5,5.0 C 8.776,5.0 9.0,5.224 9.0,5.5 L 9.0,9.5 C 9.0,9.776 8.776,10.0 8.5,10.0 C 8.224,10.0 8.0,9.776 8.0,9.5 L 8.0,5.5 M 10.499,5.0 L 12.5,5.0 C 12.777,5.001 13.0,5.224 13.0,5.5 L 13.0,7.5 C 13.0,7.776 12.777,7.999 12.501,8.0 L 11.0,8.0 L 11.0,9.0 L 12.5,9.0 C 12.777,9.0 13.0,9.224 13.0,9.5 C 13.0,9.776 12.777,10.0 12.501,10.0 L 10.5,10.0 C 10.223,10.0 10.0,9.776 10.0,9.5 L 10.0,7.501 C 10.0,7.224 10.223,7.001 10.499,7.0 L 12.0,7.0 L 12.0,6.0 L 10.5,6.0 C 10.223,5.999 10.0,5.776 10.0,5.5 C 10.0,5.224 10.223,5.001 10.499,5.0 M 6.0,6.5 C 6.0,6.224 6.224,6.0 6.5,6.0 C 6.776,6.0 7.0,6.224 7.0,6.5 C 7.0,6.776 6.776,7.0 6.5,7.0 C 6.224,7.0 6.0,6.776 6.0,6.5 M 6.0,8.5 C 6.0,8.224 6.224,8.0 6.5,8.0 C 6.776,8.0 7.0,8.224 7.0,8.5 C 7.0,8.776 6.776,9.0 6.5,9.0 C 6.224,9.0 6.0,8.776 6.0,8.5" fill="#000" /></svg>