<svg xmlns="http://www.w3.org/2000/svg" width="16" height="16"><path d="M 2.0,3.0 C 1.446,3.0 1.0,3.446 1.0,4.0 L 1.0,11.0 C 1.0,11.554 1.446,12.0 2.0,12.0 L 13.0,12.0 C 13.554,12.0 14.0,11.554 14.0,11.0 L 14.0,4.0 C 14.0,3.446 13.554,3.0 13.0,3.0 L 2.0,3.0 M 2.0,5.0 L 3.0,5.0 L 3.0,10.0 L 2.0,10.0 L 2.0,5.0 M 4.0,5.0 L 6.0,5.0 L 6.0,8.0 L 5.0,8.0 L 5.0,9.0 L 6.0,9.0 L 6.0,10.0 L 4.0,10.0 L 4.0,7.0 L 5.0,7.0 L 5.0,6.0 L 4.0,6.0 L 4.0,5.0 M 9.0,5.0 L 10.0,5.0 L 10.0,10.0 L 9.0,10.0 L 9.0,5.0 M 11.0,5.0 L 13.0,5.0 L 13.0,8.0 L 12.0,8.0 L 12.0,9.0 L 13.0,9.0 L 13.0,10.0 L 11.0,10.0 L 11.0,7.0 L 12.0,7.0 L 12.0,6.0 L 11.0,6.0 L 11.0,5.0 M 7.0,6.0 L 8.0,6.0 L 8.0,7.0 L 7.0,7.0 L 7.0,6.0 M 7.0,8.0 L 8.0,8.0 L 8.0,9.0 L 7.0,9.0 L 7.0,8.0" fill="#000" /></svg>