<svg xmlns="http://www.w3.org/2000/svg" width="16" height="16"><path d="M 2.5,2.0 C 1.7203,2.0 1.0,2.7203 1.0,3.5 L 1.0,5.5 C 1.0,5.7872 1.1791,5.996 1.5,6.0 L 4.5,6.0 C 4.8333,6.0 5.0072,6.1317 5.1152,6.3477 C 5.196,6.5093 5.2271,6.7364 5.1582,7.0 L 4.5,7.0 C 4.2239,7.0 4.0,7.2239 4.0,7.5 C 4.0,7.7761 4.2239,8.0 4.5,8.0 L 4.6914,8.0 L 4.1914,9.0 L 3.5,9.0 C 3.2239,9.0 3.0,9.2239 3.0,9.5 C 3.0,9.7761 3.2239,10.0 3.5,10.0 L 3.6914,10.0 L 3.1914,11.0 L 2.5,11.0 C 2.2239,11.0 2.0,11.2239 2.0,11.5 C 2.0,11.7761 2.2239,12.0 2.5,12.0 L 2.6914,12.0 L 2.0527,13.2773 C 1.8876,13.6096 2.129,13.9996 2.5,14.0 L 3.5,14.0 C 3.6896,13.9998 3.8628,13.8924 3.9473,13.7227 L 4.4473,12.7227 C 4.6675,12.2823 4.8136,12.1636 4.998,12.0898 C 5.1825,12.016 5.5,12.0 6.0,12.0 L 10.5,12.0 C 11.1532,11.991 11.1391,11.0083 10.5,11.0 L 6.0,11.0 L 5.3086,11.0 L 5.4473,10.7227 C 5.6675,10.2823 5.8136,10.1636 5.998,10.0898 C 6.1825,10.016 6.5,10.0 7.0,10.0 L 11.5,10.0 C 12.1532,9.991 12.1391,9.0083 11.5,9.0 L 7.0,9.0 L 6.3086,9.0 L 6.4473,8.7227 C 6.6675,8.2823 6.8136,8.1636 6.998,8.0898 C 7.1825,8.016 7.5,8.0 8.0,8.0 L 12.5,8.0 C 13.1532,7.991 13.1391,7.0083 12.5,7.0 L 8.0,7.0 L 7.3086,7.0 L 7.4473,6.7227 C 7.6675,6.2823 7.8136,6.1636 7.998,6.0898 C 8.1825,6.016 8.5,6.0 9.0,6.0 L 13.5,6.0 C 14.1573,5.991 14.1573,5.0093 13.5,5.0 L 10.0,5.0 L 10.0,3.5 C 10.0,2.7203 9.2797,2.0 8.5,2.0 L 2.5,2.0 M 2.5,3.0 L 5.0,3.0 L 5.0,5.0 L 2.0,5.0 L 2.0,3.5 C 2.0,3.2813 2.2812,3.0 2.5,3.0 M 6.0,3.0 L 8.5,3.0 C 8.7187,3.0 9.0,3.2812 9.0,3.5 L 9.0,5.0 L 6.0,5.0 L 6.0,3.0" fill="#000" /></svg>