<svg xmlns="http://www.w3.org/2000/svg" width="16" height="16"><path d="M 5.5312,1.0 C 5.7909,1.0 6.0,1.223 6.0,1.5 L 6.0,2.0 L 6.5312,2.0 C 6.7909,2.0 7.0,2.223 7.0,2.5 L 7.0,3.5 C 7.0,3.777 6.7909,4.0 6.5312,4.0 L 6.0,4.0 L 6.0,4.5 C 6.0,4.777 5.7909,5.0 5.5312,5.0 L 4.4688,5.0 C 4.2091,5.0 4.0,4.777 4.0,4.5 L 4.0,4.0 L 3.4688,4.0 C 3.2091,4.0 3.0,3.777 3.0,3.5 L 3.0,2.5 C 3.0,2.223 3.2091,2.0 3.4688,2.0 L 4.0,2.0 L 4.0,1.5 C 4.0,1.223 4.2091,1.0 4.4688,1.0 L 5.5312,1.0 M 12.0,3.5 L 12.0,4.6621 L 14.1856,5.5352 C 14.457,5.6438 14.5778,5.9611 14.4473,6.2227 L 13.9473,7.2227 C 13.8467,7.4245 13.6235,7.5341 13.4023,7.4902 L 11.3438,7.0781 C 10.9284,8.0123 10.5,9.2571 10.5,10.0 C 10.5,10.8056 10.375,11.5667 10.375,12.125 C 10.375,12.4042 10.4081,12.6257 10.4648,12.7676 C 10.5216,12.9095 10.577,12.9799 10.7226,13.0527 C 11.194,13.2885 11.027,13.9989 10.5,14.0 L 9.5,14.0 C 9.2238,14.0 9.0,13.7761 9.0,13.5 L 9.0,10.4375 C 7.7184,10.4153 6.5773,10.3577 5.3515,9.9766 C 4.9488,9.8513 4.7626,9.8869 4.6523,9.9375 C 4.542,9.9881 4.4505,10.0922 4.3418,10.2793 C 4.233,10.4663 4.1328,10.7161 3.9531,10.9707 C 3.8643,11.0964 3.6423,11.1323 3.4824,11.2324 C 3.4561,11.8607 3.375,12.3988 3.375,12.625 C 3.375,12.7569 3.3886,12.7909 3.416,12.832 C 3.4434,12.8731 3.5173,12.9501 3.7226,13.0527 C 4.194,13.2885 4.027,13.9989 3.4999,14.0 L 2.4999,14.0 C 2.2238,13.9999 2.0,13.7761 1.9999,13.5 L 1.9999,9.5 C 1.9999,8.9211 2.1371,8.3389 2.4531,7.8593 C 1.8519,7.7196 1.7338,7.4409 1.1464,6.8535 C 0.6626,6.3805 1.401,5.6832 1.8535,6.1464 C 2.7357,7.0287 3.0,7.0 4.0,7.0 C 6.8889,7.0 9.2404,5.988 10.084,4.7227 L 11.084,3.2227 C 11.3542,2.8174 12.0,3.0057 12.0,3.5" fill="#000" /></svg>