<svg xmlns="http://www.w3.org/2000/svg" width="16" height="16"><path d="M 7.5,4.0 A 0.5,0.5 0.0 0,0 7.0,4.5 L 7.0,5.0859 C 6.42,5.2939 6.0,5.8524 6.0,6.5 C 6.0,7.3225 6.6775,8.0 7.5,8.0 C 7.782,8.0 8.0,8.218 8.0,8.5 C 8.0,8.782 7.782,9.0 7.5,9.0 L 6.5,9.0 A 0.5,0.5 0.0 0,0 6.0,9.5 A 0.5,0.5 0.0 0,0 6.5,10.0 L 7.0,10.0 L 7.0,10.5 A 0.5,0.5 0.0 0,0 7.5,11.0 A 0.5,0.5 0.0 0,0 8.0,10.5 L 8.0,9.9141 C 8.58,9.7061 9.0,9.1476 9.0,8.5 C 9.0,7.6775 8.3225,7.0 7.5,7.0 C 7.218,7.0 7.0,6.782 7.0,6.5 C 7.0,6.218 7.218,6.0 7.5,6.0 L 8.5,6.0 A 0.5,0.5 0.0 0,0 9.0,5.5 A 0.5,0.5 0.0 0,0 8.5,5.0 L 8.0,5.0 L 8.0,4.5 A 0.5,0.5 0.0 0,0 7.5,4.0" fill="#000" /></svg>