<svg xmlns="http://www.w3.org/2000/svg" width="16" height="16"><path d="M 5.5,3.0 C 5.441,3.0 5.384,3.01 5.331,3.029 L 2.353,4.022 C 2.149,4.085 2.0,4.275 2.0,4.5 L 2.0,12.5 C 2.0,12.776 2.224,13.0 2.5,13.0 C 2.559,13.0 2.616,12.99 2.669,12.971 L 5.532,12.016 L 10.392,12.988 C 10.427,12.996 10.463,13.0 10.5,13.0 C 10.559,13.0 10.616,12.99 10.669,12.971 L 13.647,11.978 C 13.851,11.915 14.0,11.725 14.0,11.5 L 14.0,3.501 C 14.0,3.224 13.776,3.0 13.5,3.0 C 13.441,3.0 13.384,3.01 13.331,3.029 L 10.468,3.984 L 5.608,3.012 C 5.573,3.004 5.537,3.0 5.5,3.0 M 5.0,4.5 C 5.0,4.224 5.224,4.0 5.5,4.0 C 5.776,4.0 6.0,4.224 6.0,4.5 L 6.0,10.5 C 6.0,10.776 5.776,11.0 5.5,11.0 C 5.224,11.0 5.0,10.776 5.0,10.5 L 5.0,4.5 M 10.0,5.5 C 10.0,5.224 10.224,5.0 10.5,5.0 C 10.776,5.0 11.0,5.224 11.0,5.5 L 11.0,11.5 C 11.0,11.776 10.776,12.0 10.5,12.0 C 10.224,12.0 10.0,11.776 10.0,11.5 L 10.0,5.5" fill="#000" /></svg>