<svg xmlns="http://www.w3.org/2000/svg" width="16" height="16"><path d="M 5.5,3.0 C 5.5371,3.0 5.5733,3.004 5.6082,3.0117 L 10.4679,3.9837 L 13.3308,3.0293 C 13.3836,3.0103 13.4406,3.0 13.5,3.0 C 13.7761,3.0 14.0,3.2239 14.0,3.5 L 14.0,11.5 C 14.0,11.7249 13.8515,11.9151 13.6472,11.978 L 10.6692,12.9706 C 10.6164,12.9896 10.5594,13.0 10.5,13.0 C 10.4628,13.0 10.4267,12.9959 10.3918,12.9883 L 5.5321,12.0163 L 2.6692,12.9707 C 2.6163,12.9897 2.5594,13.0 2.5,13.0 C 2.2239,13.0 2.0,12.7761 2.0,12.5 L 2.0,4.5 C 2.0,4.5 2.0,4.5 2.0,4.5 C 2.0,4.2751 2.1485,4.0849 2.3528,4.022 L 5.3308,3.0294 C 5.3836,3.0104 5.4406,3.0 5.5,3.0 L 5.5,3.0 M 5.5,4.0 C 5.2239,4.0 5.0,4.2239 5.0,4.5 C 5.0,4.5 5.0,10.5 5.0,10.5 C 5.0,10.7761 5.2239,11.0 5.5,11.0 C 5.7761,11.0 6.0,10.7761 6.0,10.5 L 6.0,4.5 C 6.0,4.2239 5.7761,4.0 5.5,4.0 M 10.5,5.0 C 10.2239,5.0 10.0,5.2239 10.0,5.5 C 10.0,5.5 10.0,11.5 10.0,11.5 C 10.0,11.7761 10.2239,12.0 10.5,12.0 C 10.7761,12.0 11.0,11.7761 11.0,11.5 L 11.0,5.5 C 11.0,5.2239 10.7761,5.0 10.5,5.0" fill="#000" /></svg>