<svg xmlns="http://www.w3.org/2000/svg" width="16" height="16"><path d="M 1.4941,6.0 C 1.2203,6.003 1.0,6.2261 1.0,6.5 L 1.0,8.5 C 1.0,8.7761 1.2239,9.0 1.5,9.0 L 13.5,9.0 C 13.7761,9.0 14.0,8.7761 14.0,8.5 L 14.0,6.5 C 13.9999,6.1007 13.5549,5.8626 13.2227,6.084 L 10.5,7.8984 L 7.8106,6.1074 C 7.7867,6.0889 7.7612,6.0725 7.7344,6.0586 L 7.7264,6.0546 C 7.7142,6.0486 7.7019,6.0424 7.6893,6.037 L 7.6812,6.033 C 7.6684,6.029 7.6553,6.025 7.6422,6.0213 L 7.6322,6.0173 L 7.6166,6.0153 C 7.5922,6.0093 7.5674,6.0043 7.5424,6.0016 L 7.5344,6.0016 C 7.5037,5.9996 7.4731,5.9996 7.4425,6.0036 C 7.4294,6.0046 7.4164,6.0066 7.4035,6.0096 L 7.3935,6.0116 L 7.3854,6.0136 C 7.369,6.0176 7.3527,6.0216 7.3366,6.0273 C 7.324,6.0313 7.3117,6.0363 7.2995,6.041 L 7.2895,6.045 C 7.2776,6.051 7.2658,6.0575 7.2543,6.0645 C 7.243,6.0705 7.2319,6.0771 7.2211,6.084 L 7.2074,6.094 L 4.4985,7.8987 L 1.7758,6.0842 C 1.692,6.0283 1.5933,5.9991 1.4926,6.0002 L 1.4941,6.0" fill="#000" /></svg>