<svg xmlns="http://www.w3.org/2000/svg" width="16" height="16"><path d="M 3.5,6.0 C 3.2847,5.9999 3.0935,6.1376 3.0254,6.3418 L 2.0254,9.3418 C 1.9174,9.6657 2.1586,10.0002 2.5,10.0 L 6.5,10.0 C 6.8414,10.0002 7.0826,9.6657 6.9746,9.3418 L 5.9746,6.3418 C 5.9065,6.1376 5.7153,5.9999 5.5,6.0 L 3.5,6.0 M 10.5,6.0 C 10.2847,5.9999 10.0935,6.1376 10.0254,6.3418 L 9.0254,9.3418 C 8.9174,9.6657 9.1586,10.0002 9.5,10.0 L 13.5,10.0 C 13.8414,10.0002 14.0826,9.6657 13.9746,9.3418 L 12.9746,6.3418 C 12.9065,6.1376 12.7153,5.9999 12.5,6.0 L 10.5,6.0" fill="#000" /></svg>