<svg xmlns="http://www.w3.org/2000/svg" width="16" height="16"><path d="M 3.5,2.0 C 3.2239,2.0 3.0,2.2239 3.0,2.5 L 3.0,5.0 L 13.0,5.0 L 13.0,2.5 C 13.0,2.2239 12.7761,2.0 12.5,2.0 L 3.5,2.0 M 7.5,3.0 L 8.5,3.0 A 0.5,0.5 0.0 0,1 9.0,3.5 A 0.5,0.5 0.0 0,1 8.5,4.0 L 7.5,4.0 A 0.5,0.5 0.0 0,1 7.0,3.5 A 0.5,0.5 0.0 0,1 7.5,3.0 M 3.0,6.0 L 3.0,9.0 L 13.0,9.0 L 13.0,6.0 L 3.0,6.0 M 7.5,7.0 L 8.5,7.0 A 0.5,0.5 0.0 0,1 9.0,7.5 A 0.5,0.5 0.0 0,1 8.5,8.0 L 7.5,8.0 A 0.5,0.5 0.0 0,1 7.0,7.5 A 0.5,0.5 0.0 0,1 7.5,7.0 M 3.0,10.0 L 3.0,12.5 C 3.0,12.7761 3.2239,13.0 3.5,13.0 L 4.0,13.0 L 4.0,13.5 A 0.5,0.5 0.0 0,0 4.5,14.0 A 0.5,0.5 0.0 0,0 5.0,13.5 L 5.0,13.0 L 11.0,13.0 L 11.0,13.5 A 0.5,0.5 0.0 0,0 11.5,14.0 A 0.5,0.5 0.0 0,0 12.0,13.5 L 12.0,13.0 L 12.5,13.0 C 12.7761,13.0 13.0,12.7761 13.0,12.5 L 13.0,10.0 L 3.0,10.0 M 7.5,11.0 L 8.5,11.0 A 0.5,0.5 0.0 0,1 9.0,11.5 A 0.5,0.5 0.0 0,1 8.5,12.0 L 7.5,12.0 A 0.5,0.5 0.0 0,1 7.0,11.5 A 0.5,0.5 0.0 0,1 7.5,11.0" fill="#000" /></svg>