<svg xmlns="http://www.w3.org/2000/svg" width="16" height="16"><path d="M 3.5,2.0 C 3.223,2.0 3.0,2.224 3.0,2.5 L 3.0,5.0 L 13.0,5.0 L 13.0,2.501 C 13.0,2.224 12.777,2.0 12.501,2.0 L 3.5,2.0 M 7.499,3.0 L 8.5,3.0 C 8.777,3.0 9.0,3.224 9.0,3.5 C 9.0,3.776 8.777,4.0 8.501,4.0 L 7.5,4.0 C 7.223,4.0 7.0,3.776 7.0,3.5 C 7.0,3.224 7.223,3.0 7.499,3.0 M 3.0,6.0 L 3.0,9.0 L 13.0,9.0 L 13.0,6.0 L 3.0,6.0 M 7.499,7.0 L 8.5,7.0 C 8.777,7.001 9.0,7.224 9.0,7.5 C 9.0,7.776 8.777,7.999 8.501,8.0 L 7.5,8.0 C 7.223,7.999 7.0,7.776 7.0,7.5 C 7.0,7.224 7.223,7.001 7.499,7.0 M 3.0,10.0 L 3.0,12.5 C 3.0,12.776 3.223,13.0 3.499,13.0 L 4.0,13.0 L 4.0,13.5 C 4.0,13.776 4.224,14.0 4.5,14.0 C 4.776,14.0 5.0,13.776 5.0,13.5 L 5.0,13.0 L 11.0,13.0 L 11.0,13.5 C 11.0,13.776 11.224,14.0 11.5,14.0 C 11.776,14.0 12.0,13.776 12.0,13.5 L 12.0,13.0 L 12.5,13.0 C 12.777,13.0 13.0,12.776 13.0,12.5 L 13.0,10.0 L 3.0,10.0 M 7.0,11.5 C 7.0,11.224 7.223,11.0 7.499,11.0 L 8.5,11.0 C 8.777,11.0 9.0,11.224 9.0,11.5 C 9.0,11.776 8.777,12.0 8.501,12.0 L 7.5,12.0 C 7.223,12.0 7.0,11.776 7.0,11.5" fill="#000" /></svg>