<svg xmlns="http://www.w3.org/2000/svg" width="16" height="16"><path d="M 9.0,1.0 C 8.7239,1.0 8.5,1.2239 8.5,1.5 C 8.5,1.7761 8.7239,2.0 9.0,2.0 L 10.0,2.0 L 10.0,3.0 L 9.0,3.0 C 8.9785,2.9999 8.9569,3.001 8.9356,3.004 C 6.7897,3.0389 5.0389,4.7898 5.004,6.9356 C 5.001,6.957 5.0,6.9785 5.0,7.0001 C 5.0,7.2763 5.2238,7.5001 5.5,7.5001 L 6.5,7.5001 C 6.7761,7.5001 7.0,7.2763 7.0,7.0001 C 7.0,5.8837 7.8836,5.0001 9.0,5.0001 L 12.5,5.0001 C 12.7761,5.0001 12.9999,4.7763 13.0,4.5001 L 13.0,3.5001 C 12.9999,3.224 12.7761,3.0002 12.5,3.0001 L 11.0,3.0001 L 11.0,2.0001 L 12.0,2.0001 C 12.2761,2.0001 12.5,1.7763 12.5,1.5001 C 12.5,1.224 12.2761,1.0002 12.0,1.0001 L 9.0,1.0 M 3.5,9.0 C 3.1847,9.0001 2.9482,9.2884 3.0098,9.5977 L 4.0098,14.5977 C 4.0564,14.8315 4.2616,14.9999 4.5,15.0 L 7.5,15.0 C 7.7384,14.9999 7.9436,14.8315 7.9902,14.5977 L 8.9902,9.5977 C 9.0518,9.2884 8.8153,9.0001 8.5,9.0 L 3.5,9.0 M 4.1094,10.0 L 7.8906,10.0 L 7.6914,11.0 L 4.3086,11.0 L 4.1094,10.0" fill="#000" /></svg>