<svg xmlns="http://www.w3.org/2000/svg" width="16" height="16"><path d="M 4.0,4.0 C 3.446,4.0 3.0,4.446 3.0,5.0 C 2.446,5.0 2.0,5.446 2.0,6.0 L 2.0,9.0 C 2.0,9.554 2.446,10.0 3.0,10.0 C 3.0,10.554 3.446,11.0 4.0,11.0 C 4.554,11.0 5.0,10.554 5.0,10.0 L 5.0,5.0 C 5.0,4.446 4.554,4.0 4.0,4.0 M 12.0,4.0 C 11.446,4.0 11.0,4.446 11.0,5.0 L 11.0,10.0 C 11.0,10.554 11.446,11.0 12.0,11.0 C 12.554,11.0 13.0,10.554 13.0,10.0 C 13.554,10.0 14.0,9.554 14.0,9.0 L 14.0,6.0 C 14.0,5.446 13.554,5.0 13.0,5.0 C 13.0,4.446 12.554,4.0 12.0,4.0 M 5.5,7.0 L 5.5,8.0 L 10.5,8.0 L 10.5,7.0 L 5.5,7.0" fill="#000" /></svg>