<svg xmlns="http://www.w3.org/2000/svg" width="16" height="16"><path d="M 4.5,3.0 C 4.223,3.0 4.0,3.224 4.0,3.5 L 4.0,4.0 L 2.5,4.0 C 2.223,4.001 2.0,4.224 2.0,4.5 L 2.0,7.0 C 1.447,7.001 1.0,7.448 1.0,8.0 C 1.0,8.552 1.447,9.0 1.998,9.0 L 2.0,11.5 C 2.0,11.776 2.223,12.0 2.499,12.0 L 4.0,12.0 L 4.0,12.5 C 4.0,12.776 4.223,13.0 4.499,13.0 L 5.5,13.0 C 5.777,13.0 6.0,12.776 6.0,12.5 L 6.0,9.0 L 10.0,9.0 L 10.0,12.5 C 10.0,12.776 10.223,13.0 10.499,13.0 L 11.5,13.0 C 11.777,13.0 12.0,12.776 12.0,12.5 L 12.0,12.0 L 13.5,12.0 C 13.777,12.0 14.0,11.776 14.0,11.5 L 14.0,9.0 C 14.553,9.0 15.0,8.552 15.0,8.0 C 15.0,7.448 14.553,7.001 14.002,7.0 L 14.0,4.501 C 14.0,4.224 13.777,4.001 13.501,4.0 L 12.0,4.0 L 12.0,3.501 C 12.0,3.224 11.777,3.0 11.501,3.0 L 10.5,3.0 C 10.223,3.0 10.0,3.224 10.0,3.5 L 10.0,7.0 L 6.0,7.0 L 6.0,3.501 C 6.0,3.224 5.777,3.0 5.501,3.0 L 4.5,3.0" fill="#000" /></svg>