<svg xmlns="http://www.w3.org/2000/svg" width="16" height="16"><path d="M 4.0,3.0 C 4.0,6.0 5.0,5.0 7.0,6.0 C 7.0,3.0 6.0,4.0 4.0,3.0 M 11.0,3.0 C 9.0,4.0 8.0,3.0 8.0,6.0 C 10.0,5.0 11.0,6.0 11.0,3.0 M 4.0,6.0 C 4.0,9.0 5.0,8.0 7.0,9.0 C 7.0,6.0 6.0,7.0 4.0,6.0 M 11.0,6.0 C 9.0,7.0 8.0,6.0 8.0,9.0 C 10.0,8.0 11.0,9.0 11.0,6.0 M 4.0,9.0 C 4.0,12.0 5.0,11.0 7.0,12.0 C 7.0,9.0 6.0,10.0 4.0,9.0 M 11.0,9.0 C 9.0,10.0 8.0,9.0 8.0,12.0 C 10.0,11.0 11.0,12.0 11.0,9.0 M 7.5,13.0 C 7.223,13.0 7.0,13.223 7.0,13.5 L 7.0,14.5 C 7.0,14.777 7.223,15.0 7.5,15.0 C 7.777,15.0 8.0,14.777 8.0,14.5 L 8.0,13.5 C 8.0,13.223 7.777,13.0 7.5,13.0" fill="#000" /></svg>