<svg xmlns="http://www.w3.org/2000/svg" width="16" height="16"><path d="M 3.4824,2.002 C 3.2139,2.011 3.0009,2.2314 3.0,2.5 C 3.0,3.8167 3.2999,4.6634 3.9492,5.1504 C 4.5986,5.6374 5.3979,5.7391 6.3789,5.9844 C 6.6941,6.063 6.9995,5.8249 7.0,5.5 C 7.0,4.1833 6.7001,3.3366 6.0508,2.8496 C 5.4014,2.3626 4.6021,2.2609 3.6211,2.0156 C 3.5757,2.0046 3.5291,2.0 3.4824,2.0019 L 3.4824,2.002 M 11.5176,2.002 C 11.471,2.0 11.4243,2.005 11.3789,2.0156 C 10.3979,2.2609 9.5986,2.3626 8.9492,2.8496 C 8.2999,3.3366 8.0,4.1833 8.0,5.5 C 8.0005,5.8249 8.3059,6.063 8.6211,5.9844 C 9.6021,5.7391 10.4014,5.6374 11.0508,5.1504 C 11.7001,4.6634 12.0,3.8167 12.0,2.5 C 11.9991,2.2314 11.7861,2.0114 11.5176,2.002 M 3.4824,6.002 C 3.2139,6.011 3.0009,6.2314 3.0,6.5 C 3.0,7.8167 3.2999,8.6634 3.9492,9.1504 C 4.5986,9.6374 5.3979,9.7391 6.3789,9.9844 C 6.6941,10.063 6.9995,9.8249 7.0,9.5 C 7.0,8.1833 6.7001,7.3366 6.0508,6.8496 C 5.4014,6.3626 4.6021,6.2609 3.6211,6.0156 C 3.5757,6.0046 3.5291,6.0 3.4824,6.0019 L 3.4824,6.002 M 11.5176,6.002 C 11.471,6.0 11.4243,6.005 11.3789,6.0156 C 10.3979,6.2609 9.5986,6.3626 8.9492,6.8496 C 8.2999,7.3366 8.0,8.1833 8.0,9.5 C 8.0005,9.8249 8.3059,10.063 8.6211,9.9844 C 9.6021,9.7391 10.4014,9.6374 11.0508,9.1504 C 11.7001,8.6634 12.0,7.8167 12.0,6.5 C 11.9991,6.2314 11.7861,6.0114 11.5176,6.002 M 3.4824,10.002 C 3.2139,10.011 3.0009,10.2314 3.0,10.5 C 3.0,11.8167 3.2999,12.6634 3.9492,13.1504 C 4.5986,13.6374 5.3979,13.7391 6.3789,13.9844 C 6.6941,14.063 6.9995,13.8249 7.0,13.5 C 7.0,12.1833 6.7001,11.3366 6.0508,10.8496 C 5.4014,10.3626 4.6021,10.2609 3.6211,10.0156 C 3.5757,10.0046 3.5291,10.0 3.4824,10.0019 L 3.4824,10.002 M 11.5176,10.002 C 11.471,10.0 11.4243,10.005 11.3789,10.0156 C 10.3979,10.2609 9.5986,10.3626 8.9492,10.8496 C 8.2999,11.3366 8.0,12.1833 8.0,13.5 C 8.0005,13.8249 8.3059,14.063 8.6211,13.9844 C 9.6021,13.7391 10.4014,13.6374 11.0508,13.1504 C 11.7001,12.6634 12.0,11.8167 12.0,10.5 C 11.9991,10.2314 11.7861,10.0114 11.5176,10.002" fill="#000" /></svg>