<svg xmlns="http://www.w3.org/2000/svg" width="16" height="16"><path d="M 4.5234,2.0 C 4.4331,1.996 4.3434,2.0159 4.2637,2.0586 C 4.1011,2.1458 3.9997,2.3155 4.0,2.5 C 4.0,3.2917 4.0933,3.8616 4.3066,4.3086 C 4.52,4.7556 4.8778,5.0486 5.2344,5.207 C 5.9476,5.524 6.6007,5.5014 7.2227,5.916 C 7.5549,6.1375 7.9999,5.8993 8.0,5.5 C 8.0,4.7083 7.9067,4.1384 7.6934,3.6914 C 7.48,3.2444 7.1222,2.9515 6.7656,2.793 C 6.0524,2.476 5.3993,2.4987 4.7773,2.084 C 4.7019,2.0335 4.6141,2.0044 4.5234,2.0 L 4.5234,2.0 M 12.4766,2.0 C 12.3859,2.004 12.2981,2.0335 12.2227,2.084 C 11.6007,2.4987 10.9476,2.476 10.2344,2.793 C 9.8778,2.9515 9.52,3.2444 9.3066,3.6914 C 9.0933,4.1384 9.0,4.7083 9.0,5.5 C 9.0001,5.8993 9.4451,6.1374 9.7773,5.916 C 10.3993,5.5014 11.0524,5.524 11.7656,5.207 C 12.1222,5.0485 12.48,4.7556 12.6934,4.3086 C 12.9067,3.8616 13.0,3.2917 13.0,2.5 C 13.0003,2.3155 12.8989,2.1458 12.7363,2.0586 C 12.6566,2.016 12.5668,1.9957 12.4766,2.0 L 12.4766,2.0 M 4.5234,6.0 C 4.4331,5.996 4.3434,6.0159 4.2637,6.0586 C 4.1011,6.1458 3.9997,6.3155 4.0,6.5 C 4.0,7.2917 4.0933,7.8616 4.3066,8.3086 C 4.52,8.7556 4.8778,9.0486 5.2344,9.207 C 5.9476,9.524 6.6007,9.5014 7.2227,9.916 C 7.5549,10.1375 7.9999,9.8993 8.0,9.5 C 8.0,8.7083 7.9067,8.1384 7.6934,7.6914 C 7.48,7.2444 7.1222,6.9515 6.7656,6.793 C 6.0524,6.476 5.3993,6.4987 4.7773,6.084 C 4.7019,6.0335 4.6141,6.0044 4.5234,6.0 L 4.5234,6.0 M 12.4766,6.0 C 12.3859,6.004 12.2981,6.0335 12.2227,6.084 C 11.6007,6.4987 10.9476,6.476 10.2344,6.793 C 9.8778,6.9515 9.52,7.2444 9.3066,7.6914 C 9.0933,8.1384 9.0,8.7083 9.0,9.5 C 9.0001,9.8993 9.4451,10.1374 9.7773,9.916 C 10.3993,9.5014 11.0524,9.524 11.7656,9.207 C 12.1222,9.0485 12.48,8.7556 12.6934,8.3086 C 12.9067,7.8616 13.0,7.2917 13.0,6.5 C 13.0003,6.3155 12.8989,6.1458 12.7363,6.0586 C 12.6566,6.016 12.5668,5.9957 12.4766,6.0 L 12.4766,6.0 M 4.5234,10.0 C 4.4331,9.996 4.3434,10.0159 4.2637,10.0586 C 4.1011,10.1458 3.9997,10.3155 4.0,10.5 C 4.0,11.2917 4.0933,11.8616 4.3066,12.3086 C 4.52,12.7556 4.8778,13.0486 5.2344,13.207 C 5.9476,13.524 6.6007,13.5014 7.2227,13.916 C 7.5549,14.1374 7.9999,13.8993 8.0,13.5 C 8.0,12.7083 7.9067,12.1384 7.6934,11.6914 C 7.48,11.2444 7.1222,10.9515 6.7656,10.793 C 6.0524,10.476 5.3993,10.4987 4.7773,10.084 C 4.7019,10.0335 4.6141,10.0044 4.5234,10.0 L 4.5234,10.0 M 12.4766,10.0 C 12.3859,10.004 12.2981,10.0335 12.2227,10.084 C 11.6007,10.4987 10.9476,10.476 10.2344,10.793 C 9.8778,10.9515 9.52,11.2444 9.3066,11.6914 C 9.0933,12.1384 9.0,12.7083 9.0,13.5 C 9.0001,13.8993 9.4451,14.1374 9.7773,13.916 C 10.3993,13.5014 11.0524,13.524 11.7656,13.207 C 12.1222,13.0485 12.48,12.7556 12.6934,12.3086 C 12.9067,11.8616 13.0,11.2917 13.0,10.5 C 13.0003,10.3155 12.8989,10.1458 12.7363,10.0586 C 12.6566,10.016 12.5668,9.9957 12.4766,10.0 L 12.4766,10.0" fill="#000" /></svg>