<svg xmlns="http://www.w3.org/2000/svg" width="16" height="16"><path d="M 3.0,2.5 C 3.0,3.2917 3.0933,3.8616 3.3066,4.3086 C 3.52,4.7556 3.8778,5.0485 4.2344,5.207 C 4.9476,5.524 5.6007,5.5014 6.2227,5.916 C 6.5549,6.1375 6.9999,5.8993 7.0,5.5 C 7.0,4.7083 6.9067,4.1384 6.6934,3.6914 C 6.48,3.2444 6.1222,2.9515 5.7656,2.793 C 5.0524,2.476 4.3993,2.4987 3.7773,2.084 C 3.4474,1.863 2.9994,2.1009 3.0,2.5 L 3.0,2.5 M 11.2227,2.084 C 10.6007,2.4987 9.9476,2.476 9.2344,2.793 C 8.8778,2.9515 8.52,3.2444 8.3066,3.6914 C 8.0933,4.1384 8.0,4.7083 8.0,5.5 C 8.0001,5.8993 8.4451,6.1374 8.7773,5.916 C 9.3993,5.5014 10.0524,5.524 10.7656,5.207 C 11.1222,5.0485 11.48,4.7556 11.6934,4.3086 C 11.9067,3.8616 12.0,3.2917 12.0,2.5 C 12.0006,2.1019 11.5538,1.8623 11.2227,2.084 L 11.2227,2.084 M 3.0,6.5 C 3.0,7.2917 3.0933,7.8616 3.3066,8.3086 C 3.52,8.7556 3.8778,9.0485 4.2344,9.207 C 4.9476,9.524 5.6007,9.5014 6.2227,9.916 C 6.5549,10.1375 6.9999,9.8993 7.0,9.5 C 7.0,8.7083 6.9067,8.1384 6.6934,7.6914 C 6.48,7.2444 6.1222,6.9515 5.7656,6.793 C 5.0524,6.476 4.3993,6.4987 3.7773,6.084 C 3.4474,5.863 2.9994,6.1009 3.0,6.5 L 3.0,6.5 M 11.2227,6.084 C 10.6007,6.4987 9.9476,6.476 9.2344,6.793 C 8.8778,6.9515 8.52,7.2444 8.3066,7.6914 C 8.0933,8.1384 8.0,8.7083 8.0,9.5 C 8.0001,9.8993 8.4451,10.1374 8.7773,9.916 C 9.3993,9.5014 10.0524,9.524 10.7656,9.207 C 11.1222,9.0485 11.48,8.7556 11.6934,8.3086 C 11.9067,7.8616 12.0,7.2917 12.0,6.5 C 12.0006,6.1019 11.5538,5.8623 11.2227,6.084 L 11.2227,6.084 M 3.0,10.5 C 3.0,11.2917 3.0933,11.8616 3.3066,12.3086 C 3.52,12.7556 3.8778,13.0485 4.2344,13.207 C 4.9476,13.524 5.6007,13.5014 6.2227,13.916 C 6.5549,14.1374 6.9999,13.8993 7.0,13.5 C 7.0,12.7083 6.9067,12.1384 6.6934,11.6914 C 6.48,11.2444 6.1222,10.9515 5.7656,10.793 C 5.0524,10.476 4.3993,10.4987 3.7773,10.084 C 3.4474,9.863 2.9994,10.1009 3.0,10.5 L 3.0,10.5 M 11.2227,10.084 C 10.6007,10.4987 9.9476,10.476 9.2344,10.793 C 8.8778,10.9515 8.52,11.2444 8.3066,11.6914 C 8.0933,12.1384 8.0,12.7083 8.0,13.5 C 8.0001,13.8993 8.4451,14.1374 8.7773,13.916 C 9.3993,13.5014 10.0524,13.524 10.7656,13.207 C 11.1222,13.0485 11.48,12.7556 11.6934,12.3086 C 11.9067,11.8616 12.0,11.2917 12.0,10.5 C 12.0006,10.1019 11.5538,9.8623 11.2227,10.084 L 11.2227,10.084" fill="#000" /></svg>