<svg xmlns="http://www.w3.org/2000/svg" width="16" height="16"><path d="M 8.5,2.0 C 8.324,2.0 8.169,2.091 8.08,2.229 L 4.088,8.217 C 4.032,8.297 4.0,8.395 4.0,8.5 C 4.0,8.776 4.223,9.0 4.499,9.0 L 7.89,9.0 L 7.012,13.392 C 7.004,13.427 7.0,13.463 7.0,13.5 C 7.0,13.776 7.224,14.0 7.5,14.0 C 7.676,14.0 7.831,13.909 7.92,13.771 L 11.912,7.783 C 11.968,7.703 12.0,7.605 12.0,7.5 C 12.0,7.224 11.777,7.001 11.501,7.0 L 8.11,7.0 L 8.988,2.608 C 8.996,2.573 9.0,2.537 9.0,2.5 C 9.0,2.224 8.776,2.0 8.5,2.0" fill="#000" /></svg>