<svg xmlns="http://www.w3.org/2000/svg" width="16" height="16"><path d="M 4.0,8.5 C 4.0,8.3949 4.0324,8.2974 4.0878,8.217 L 8.0797,2.2291 C 8.1687,2.0913 8.3237,2.0 8.5,2.0 C 8.7761,2.0 9.0,2.2239 9.0,2.5 C 9.0,2.5372 8.996,2.5733 8.9883,2.6082 L 8.1099,7.0 L 11.5,7.0 C 11.7762,7.0 12.0,7.2239 12.0,7.5 C 12.0,7.6051 11.9676,7.7026 11.9122,7.783 L 7.9203,13.7709 C 7.8313,13.9088 7.6763,14.0 7.5,14.0 C 7.2239,14.0 7.0,13.7761 7.0,13.5 C 7.0,13.4629 7.0041,13.4267 7.0117,13.3918 L 7.8901,9.0 L 4.5,9.0 C 4.2239,9.0 4.0,8.7761 4.0,8.5 L 4.0,8.5" fill="#000" /></svg>