<svg xmlns="http://www.w3.org/2000/svg" width="16" height="16"><path d="M 3.0508,2.0508 C 2.4968,2.0508 2.0508,2.4968 2.0508,3.0508 L 2.0508,11.9492 C 2.0508,12.5032 2.4968,12.9492 3.0508,12.9492 L 12.0,12.9492 C 12.554,12.9492 13.0,12.5032 13.0,11.9492 L 13.0,3.0508 C 13.0,2.4968 12.554,2.0508 12.0,2.0508 L 3.0508,2.0508 M 7.4922,2.9922 A 0.5,0.5 0.0 0,1 8.0,3.5 L 8.0,11.5 A 0.5,0.5 0.0 1,1 7.0,11.5 L 7.0,3.5 A 0.5,0.5 0.0 0,1 7.4922,2.9922 M 4.5,4.5 L 6.0,7.0 L 5.0,7.0 L 5.0,9.5 A 0.5,0.5 0.0 1,1 4.0,9.5 L 4.0,7.0 L 3.0,7.0 L 4.5,4.5 M 10.4922,4.9922 A 0.5,0.5 0.0 0,1 11.0,5.5 L 11.0,8.0 L 12.0,8.0 L 10.5,10.5 L 9.0,8.0 L 10.0,8.0 L 10.0,5.5 A 0.5,0.5 0.0 0,1 10.4922,4.9922" fill="#000" /></svg>