<svg xmlns="http://www.w3.org/2000/svg" width="16" height="16"><path d="M 3.0,2.0 C 2.446,2.0 2.0,2.446 2.0,3.0 L 2.0,12.0 C 2.0,12.554 2.446,13.0 3.0,13.0 L 12.0,13.0 C 12.554,13.0 13.0,12.554 13.0,12.0 L 13.0,3.0 C 13.0,2.446 12.554,2.0 12.0,2.0 L 3.0,2.0 M 7.4922,2.9922 C 7.7745,2.9882 8.0044,3.2177 8.0,3.5 L 8.0,11.5 C 8.01,12.1762 6.9904,12.1762 7.0,11.5 L 7.0,3.5 C 6.996,3.2239 7.216,2.9965 7.4922,2.9922 M 4.5,4.5 L 6.0,7.0 L 5.0,7.0 L 5.0,9.5 C 5.01,10.1762 3.9904,10.1762 4.0,9.5 L 4.0,7.0 L 3.0,7.0 L 4.5,4.5 M 11.0,5.5 L 11.0,8.0 L 12.0,8.0 L 10.5,10.5 L 9.0,8.0 L 10.0,8.0 L 10.0,5.5 C 9.9896,4.8366 11.0104,4.8363 11.0,5.5" fill="#000" /></svg>