<svg xmlns="http://www.w3.org/2000/svg" width="16" height="16"><path d="M 5.5,1.0 A 0.5,0.5 0.0 0,0 5.1465,1.1465 L 4.1465,2.1465 A 0.5,0.5 0.0 0,0 4.5,3.0 L 5.0,3.0 L 5.0,3.5 A 0.5,0.5 0.0 0,0 5.5,4.0 A 0.5,0.5 0.0 0,0 6.0,3.5 L 6.0,3.0 L 6.5,3.0 A 0.5,0.5 0.0 0,0 6.8535,2.1465 L 5.8535,1.1465 A 0.5,0.5 0.0 0,0 5.5,1.0 M 10.5,1.0 A 0.5,0.5 0.0 0,0 10.0,1.5 L 10.0,2.0 L 9.5,2.0 A 0.5,0.5 0.0 0,0 9.1465,2.8535 L 10.1465,3.8535 A 0.5,0.5 0.0 0,0 10.8535,3.8535 L 11.8535,2.8535 A 0.5,0.5 0.0 0,0 11.5,2.0 L 11.0,2.0 L 11.0,1.5 A 0.5,0.5 0.0 0,0 10.5,1.0 M 3.5,5.0 C 3.223,5.0 3.0,5.223 3.0,5.5 L 3.0,14.5 C 3.0,14.777 3.223,15.0 3.5,15.0 L 12.5,15.0 C 12.777,15.0 13.0,14.777 13.0,14.5 L 13.0,5.5 C 13.0,5.223 12.777,5.0 12.5,5.0 L 3.5,5.0 M 8.0,6.0 C 8.554,6.0 9.0,6.446 9.0,7.0 C 9.0,7.554 8.554,8.0 8.0,8.0 C 7.446,8.0 7.0,7.554 7.0,7.0 C 7.0,6.446 7.446,6.0 8.0,6.0 M 6.5,9.0 L 9.5,9.0 C 9.777,9.0 10.0,9.223 10.0,9.5 L 10.0,10.5 C 10.0,10.777 9.777,11.0 9.5,11.0 L 9.0,11.0 L 9.0,13.5 C 9.0,13.777 8.777,14.0 8.5,14.0 L 7.5,14.0 C 7.223,14.0 7.0,13.777 7.0,13.5 L 7.0,11.0 L 6.5,11.0 C 6.223,11.0 6.0,10.777 6.0,10.5 L 6.0,9.5 C 6.0,9.223 6.223,9.0 6.5,9.0" fill="#000" /></svg>