<svg xmlns="http://www.w3.org/2000/svg" width="16" height="16"><path d="M 6.5,3.0 C 5.8238,2.99 5.8238,4.0096 6.5,4.0 L 8.0,4.0 L 8.0,5.0 L 9.0,5.0 L 9.0,4.0 L 10.5,4.0 C 11.1762,4.01 11.1762,2.9904 10.5,3.0 L 6.5,3.0 M 6.5,6.0 C 6.2239,6.0 6.0,6.2239 6.0,6.5 L 6.0,7.0 L 5.5,7.0 C 5.2239,7.0 5.0,7.2239 5.0,7.5 L 5.0,11.5 C 5.0,11.7761 5.2239,12.0 5.5,12.0 L 7.293,12.0 L 8.1465,12.8535 C 8.2402,12.9473 8.3674,13.0 8.5,13.0 L 11.5,13.0 C 11.6896,12.9998 11.8628,12.8924 11.9473,12.7227 L 12.8086,11.0 L 13.5,11.0 C 13.7761,11.0 14.0,10.7761 14.0,10.5 L 14.0,7.5 C 14.0,7.2239 13.7761,7.0 13.5,7.0 L 11.0,7.0 L 11.0,6.5 C 11.0,6.2239 10.7761,6.0 10.5,6.0 L 6.5,6.0 M 2.4922,6.9922 C 2.216,6.9965 1.9957,7.2239 2.0,7.5 L 2.0,11.5 C 1.9904,12.1762 3.0096,12.1762 3.0,11.5 L 3.0,10.0 L 4.0,10.0 L 4.0,9.0 L 3.0,9.0 L 3.0,7.5 C 3.0044,7.2177 2.7745,6.9878 2.4922,6.9922" fill="#000" /></svg>