<svg xmlns="http://www.w3.org/2000/svg" width="16" height="16"><path d="M 6.1465,1.8535 L 7.293,3.0 L 5.5,3.0 C 4.8333,3.0 4.2251,3.3179 3.7715,3.7715 C 3.3179,4.2251 3.0,4.8333 3.0,5.5 C 2.99,6.1762 4.0096,6.1762 4.0,5.5 C 4.0,5.1667 4.1821,4.7749 4.4785,4.4785 C 4.7749,4.1821 5.1667,4.0 5.5,4.0 L 7.293,4.0 L 6.1465,5.1465 C 5.6562,5.6178 6.3822,6.3438 6.8535,5.8535 L 8.8106,3.8965 C 9.0715,3.697 9.0725,3.3043 8.8126,3.1035 C 8.8106,3.1025 8.8086,3.1005 8.8066,3.0995 L 6.8534,1.1464 C 6.4004,0.678 5.6588,1.3816 6.1465,1.8535 M 12.0078,10.5019 C 12.0078,10.8353 11.8257,11.227 11.5293,11.5234 C 11.2329,11.8199 10.8411,12.0019 10.5078,12.0019 L 8.7148,12.0019 L 9.8613,10.8555 C 10.3449,10.3827 9.6071,9.685 9.1543,10.1484 L 7.1973,12.1055 C 6.9344,12.3069 6.9364,12.7036 7.2013,12.9023 L 9.1544,14.8555 C 9.6256,15.3464 10.3523,14.6197 9.8614,14.1484 L 8.7149,13.0019 L 10.5079,13.0019 C 11.1746,13.0019 11.7829,12.684 12.2364,12.2305 C 12.69,11.7769 13.0079,11.1686 13.0079,10.5019 C 13.0079,9.8369 12.0078,9.8368 12.0078,10.5019 L 12.0078,10.5019" fill="#000" /></svg>