<svg xmlns="http://www.w3.org/2000/svg" width="16" height="16"><path d="M 6.1465,1.8535 L 7.293,3.0 L 5.5,3.0 C 4.8333,3.0 4.2251,3.3179 3.7715,3.7715 C 3.3179,4.2251 3.0,4.8333 3.0,5.5 C 2.99,6.1762 4.0096,6.1762 4.0,5.5 C 4.0,5.1667 4.1821,4.7749 4.4785,4.4785 C 4.7749,4.1821 5.1667,4.0 5.5,4.0 L 7.293,4.0 L 6.1465,5.1465 C 5.6562,5.6178 6.3822,6.3438 6.8535,5.8535 L 8.8106,3.8965 C 9.0715,3.697 9.0725,3.3043 8.8126,3.1035 C 8.8106,3.1025 8.8086,3.1005 8.8066,3.0995 L 6.8534,1.1464 C 6.4004,0.678 5.6588,1.3816 6.1465,1.8535 M 12.0078,10.5019 C 12.0078,10.8353 11.8257,11.227 11.5293,11.5234 C 11.2329,11.8199 10.8411,12.0019 10.5078,12.0019 L 8.7148,12.0019 L 9.8613,10.8555 C 10.3449,10.3827 9.6071,9.685 9.1543,10.1484 L 7.1973,12.1055 C 6.9344,12.3069 6.9364,12.7036 7.2013,12.9023 L 9.1544,14.8555 C 9.6256,15.3464 10.3523,14.6197 9.8614,14.1484 L 8.7149,13.0019 L 10.5079,13.0019 C 11.1746,13.0019 11.7829,12.684 12.2364,12.2305 C 12.69,11.7769 13.0079,11.1686 13.0079,10.5019 C 13.0079,9.8369 12.0078,9.8368 12.0078,10.5019 L 12.0078,10.5019" fill="#000" /><path d="M 3.5,7.0 A 0.5,0.5 0.0 0,0 3.0,7.5 L 3.0,8.0859 C 2.42,8.2939 2.0,8.8524 2.0,9.5 C 2.0,10.3225 2.6775,11.0 3.5,11.0 C 3.782,11.0 4.0,11.218 4.0,11.5 C 4.0,11.782 3.782,12.0 3.5,12.0 L 2.5,12.0 A 0.5,0.5 0.0 0,0 2.0,12.5 A 0.5,0.5 0.0 0,0 2.5,13.0 L 3.0,13.0 L 3.0,13.5 A 0.5,0.5 0.0 0,0 3.5,14.0 A 0.5,0.5 0.0 0,0 4.0,13.5 L 4.0,12.9141 C 4.58,12.7061 5.0,12.1476 5.0,11.5 C 5.0,10.6775 4.3225,10.0 3.5,10.0 C 3.218,10.0 3.0,9.782 3.0,9.5 C 3.0,9.218 3.218,9.0 3.5,9.0 L 4.5,9.0 A 0.5,0.5 0.0 0,0 5.0,8.5 A 0.5,0.5 0.0 0,0 4.5,8.0 L 4.0,8.0 L 4.0,7.5 A 0.5,0.5 0.0 0,0 3.5,7.0" fill="#000" /><path d="M 12.5,2.0 C 11.6775,2.0 11.0,2.6775 11.0,3.5 L 11.0,5.0 L 10.5,5.0 A 0.5,0.5 0.0 0,0 10.0,5.5 A 0.5,0.5 0.0 0,0 10.5,6.0 L 10.9512,6.0 C 10.8847,6.2892 10.7541,6.4674 10.584,6.7227 C 10.334,7.0977 10.0,7.6389 10.0,8.5 A 0.5,0.5 0.0 0,0 10.5,9.0 L 13.5,9.0 A 0.5,0.5 0.0 0,0 14.0,8.5 A 0.5,0.5 0.0 0,0 13.5,8.0 L 11.1699,8.0 C 11.2421,7.7713 11.2682,7.499 11.416,7.2773 C 11.6137,6.9808 11.8629,6.5804 11.959,6.0 L 12.5,6.0 A 0.5,0.5 0.0 0,0 13.0,5.5 A 0.5,0.5 0.0 0,0 12.5,5.0 L 12.0,5.0 L 12.0,3.5 C 12.0,3.218 12.2179,3.0 12.5,3.0 C 12.7821,3.0 13.0,3.218 13.0,3.5 A 0.5,0.5 0.0 0,0 13.5,4.0 A 0.5,0.5 0.0 0,0 14.0,3.5 C 14.0,2.6775 13.3225,2.0 12.5,2.0" fill="#000" /></svg>