<svg xmlns="http://www.w3.org/2000/svg" width="16" height="16"><path d="M 5.5,3.0 C 5.223,3.0 5.0,3.223 5.0,3.5 L 5.0,12.5 C 5.0,12.777 5.223,13.0 5.5,13.0 L 10.5,13.0 C 10.777,13.0 11.0,12.777 11.0,12.5 L 11.0,10.0 L 8.5,10.0 C 7.669,10.0 7.0,9.331 7.0,8.5 C 7.0,7.669 7.669,7.0 8.5,7.0 L 11.0,7.0 L 11.0,3.5 C 11.0,3.223 10.777,3.0 10.5,3.0 L 5.5,3.0 M 12.1465,6.1465 C 11.9513,6.3417 11.9513,6.6583 12.1465,6.8535 L 13.293,8.0 L 8.5,8.0 C 8.2239,8.0 8.0,8.2239 8.0,8.5 C 8.0,8.7761 8.2239,9.0 8.5,9.0 L 13.293,9.0 L 12.1465,10.1465 C 11.9513,10.3417 11.9513,10.6583 12.1465,10.8535 C 12.3417,11.0487 12.6583,11.0487 12.8535,10.8535 L 14.8535,8.8535 C 15.0487,8.6583 15.0487,8.3417 14.8535,8.1465 L 12.8535,6.1465 C 12.6587,5.9516 12.3413,5.9516 12.1465,6.1465" fill="#000" /></svg>