<svg xmlns="http://www.w3.org/2000/svg" width="16" height="16"><path d="M 3.5,4.0 C 3.223,4.0 3.0,4.223 3.0,4.5 L 3.0,12.5 C 3.0,12.777 3.223,13.0 3.5,13.0 L 4.0,13.0 L 4.0,12.5 C 4.0,12.223 4.223,12.0 4.5,12.0 C 4.777,12.0 5.0,12.223 5.0,12.5 L 5.0,13.0 L 11.0,13.0 L 11.0,12.5 C 11.0,12.223 11.223,12.0 11.5,12.0 C 11.777,12.0 12.0,12.223 12.0,12.5 L 12.0,13.0 L 12.5,13.0 C 12.777,13.0 13.0,12.777 13.0,12.5 L 13.0,4.5 C 13.0,4.223 12.777,4.0 12.5,4.0 L 12.0,4.0 L 12.0,4.5 C 12.0,4.777 11.777,5.0 11.5,5.0 C 11.223,5.0 11.0,4.777 11.0,4.5 L 11.0,4.0 L 5.0,4.0 L 5.0,4.5 C 5.0,4.777 4.777,5.0 4.5,5.0 C 4.223,5.0 4.0,4.777 4.0,4.5 L 4.0,4.0 L 3.5,4.0 M 6.5,5.0 L 9.5,5.0 C 9.777,5.0 10.0,5.223 10.0,5.5 L 10.0,11.5 C 10.0,11.777 9.777,12.0 9.5,12.0 L 6.5,12.0 C 6.223,12.0 6.0,11.777 6.0,11.5 L 6.0,5.5 C 6.0,5.223 6.223,5.0 6.5,5.0 M 4.5,6.0 C 4.777,6.0 5.0,6.223 5.0,6.5 L 5.0,7.5 C 5.0,7.777 4.777,8.0 4.5,8.0 C 4.223,8.0 4.0,7.777 4.0,7.5 L 4.0,6.5 C 4.0,6.223 4.223,6.0 4.5,6.0 M 11.5,6.0 C 11.777,6.0 12.0,6.223 12.0,6.5 L 12.0,7.5 C 12.0,7.777 11.777,8.0 11.5,8.0 C 11.223,8.0 11.0,7.777 11.0,7.5 L 11.0,6.5 C 11.0,6.223 11.223,6.0 11.5,6.0 M 4.5,9.0 C 4.777,9.0 5.0,9.223 5.0,9.5 L 5.0,10.5 C 5.0,10.777 4.777,11.0 4.5,11.0 C 4.223,11.0 4.0,10.777 4.0,10.5 L 4.0,9.5 C 4.0,9.223 4.223,9.0 4.5,9.0 M 11.5,9.0 C 11.777,9.0 12.0,9.223 12.0,9.5 L 12.0,10.5 C 12.0,10.777 11.777,11.0 11.5,11.0 C 11.223,11.0 11.0,10.777 11.0,10.5 L 11.0,9.5 C 11.0,9.223 11.223,9.0 11.5,9.0" fill="#000" /></svg>