<svg xmlns="http://www.w3.org/2000/svg" width="16" height="16"><path d="M 1.0,2.0 L 1.0,3.0 L 14.0,3.0 L 14.0,2.0 L 1.0,2.0 M 2.0,4.0 L 2.0,14.0 L 13.0,14.0 L 13.0,4.0 L 2.0,4.0 M 7.5,6.0 A 3.5,3.5 0.0 0,1 11.0,9.5 L 11.0,12.5 C 11.0,12.777 10.777,13.0 10.5,13.0 L 7.5,13.0 L 4.5,13.0 C 4.223,13.0 4.0,12.777 4.0,12.5 L 4.0,9.5 A 3.5,3.5 0.0 0,1 7.5,6.0 M 7.5781,7.6406 C 6.3932,8.0918 5.9868,9.2986 6.0,10.5 C 6.0001,11.0358 6.286,11.5309 6.75,11.7988 C 7.2141,12.0668 7.7859,12.0668 8.25,11.7988 C 8.714,11.5309 8.9999,11.0358 9.0,10.5 C 9.0,9.6814 8.6322,9.1553 8.293,8.7031 C 8.297,9.1674 8.1175,9.511 7.877,9.7129 C 7.2402,9.1863 7.164,8.5121 7.5781,7.6406 L 7.5781,7.6406" fill="#000" /></svg>