<svg xmlns="http://www.w3.org/2000/svg" width="16" height="16"><path d="M 1.5,2.0 C 1.2239,2.0 1.0,2.2239 1.0,2.5 C 1.0,2.7761 1.2239,3.0 1.5,3.0 L 13.5,3.0 C 13.7761,3.0 14.0,2.7761 14.0,2.5 C 14.0,2.2239 13.7761,2.0 13.5,2.0 L 1.5,2.0 M 2.5,4.0 C 2.223,4.0 2.0,4.223 2.0,4.5 L 2.0,13.5 C 2.0,13.777 2.223,14.0 2.5,14.0 L 12.5,14.0 C 12.777,14.0 13.0,13.777 13.0,13.5 L 13.0,4.5 C 13.0,4.223 12.777,4.0 12.5,4.0 L 2.5,4.0 M 7.5,6.0 C 9.8421,6.0022 11.0,8.0434 11.0,9.5 L 11.0,12.5 C 11.0,12.777 10.777,13.0 10.5,13.0 L 4.5,13.0 C 4.223,13.0 4.0,12.777 4.0,12.5 L 4.0,9.5 C 4.0,8.0434 5.1579,6.0022 7.5,6.0 M 7.5781,7.6406 C 6.3932,8.0918 5.9868,9.2986 6.0,10.5 C 6.0001,11.0358 6.286,11.5309 6.75,11.7988 C 7.2141,12.0668 7.7859,12.0668 8.25,11.7988 C 8.714,11.5309 8.9999,11.0358 9.0,10.5 C 9.0,9.6814 8.6322,9.1553 8.293,8.7031 C 8.297,9.1674 8.1175,9.511 7.877,9.7129 C 7.2402,9.1863 7.164,8.5121 7.5781,7.6406 L 7.5781,7.6406" fill="#000" /></svg>