<svg xmlns="http://www.w3.org/2000/svg" width="16" height="16"><path d="M 7.5781,2.6406 C 6.3932,3.0918 5.9868,4.2986 6.0,5.5 C 6.0001,6.0358 6.286,6.5309 6.75,6.7988 C 7.2141,7.0668 7.7859,7.0668 8.25,6.7988 C 8.714,6.5309 8.9999,6.0358 9.0,5.5 C 9.0,4.6814 8.6322,4.1553 8.293,3.7031 C 8.297,4.1674 8.1175,4.511 7.877,4.7129 C 7.2402,4.1863 7.164,3.5121 7.5781,2.6406 M 3.4805,7.998 A 0.5,0.5 0.0 0,0 3.3242,8.9688 L 6.0742,10.0 L 3.3242,11.0312 A 0.5006,0.5006 0.0 1,0 3.6758,11.9688 L 7.5,10.5352 L 11.3242,11.9688 A 0.5006,0.5006 0.0 0,0 11.6758,11.0312 L 8.9258,10.0 L 11.6758,8.9688 A 0.5,0.5 0.0 0,0 11.5059,7.998 A 0.5,0.5 0.0 0,0 11.3242,8.0312 L 7.5,9.4648 L 3.6758,8.0312 A 0.5,0.5 0.0 0,0 3.4805,7.9981 L 3.4805,7.998" fill="#000" /></svg>