<svg xmlns="http://www.w3.org/2000/svg" width="16" height="16"><path d="M 8.0,2.5 C 7.8212,2.4998 7.6558,2.5951 7.5664,2.75 L 6.2676,5.0 C 5.784,5.8377 5.9739,6.9095 6.7148,7.5312 C 7.4558,8.153 8.5442,8.153 9.2852,7.5312 C 10.0261,6.9095 10.216,5.8377 9.7324,5.0 L 8.4336,2.75 C 8.3442,2.5951 8.1788,2.4998 8.0,2.5 M 3.0547,7.5664 L 2.5547,8.4336 C 2.4162,8.6735 2.4965,8.9767 2.7363,9.1152 L 6.002,11.0 L 2.7363,12.8848 C 2.4964,13.0233 2.4162,13.3265 2.5547,13.5664 L 3.0547,14.4336 C 3.1932,14.6735 3.4964,14.7537 3.7363,14.6152 L 8.0,12.1543 L 12.2637,14.6152 C 12.5036,14.7537 12.8068,14.6735 12.9453,14.4336 L 13.4453,13.5664 C 13.5838,13.3265 13.5035,13.0233 13.2637,12.8848 L 9.998,11.0 L 13.2637,9.1152 C 13.5036,8.9767 13.5838,8.6735 13.4453,8.4336 L 12.9453,7.5664 C 12.8068,7.3265 12.5036,7.2463 12.2637,7.3848 L 8.0,9.8457 L 3.7363,7.3848 C 3.4958,7.2459 3.1936,7.3257 3.0547,7.5664" fill="#000" /></svg>