<svg xmlns="http://www.w3.org/2000/svg" width="16" height="16"><path d="M 1.5,2.0 C 1.2239,2.0 1.0,2.2239 1.0,2.5 C 1.0,2.7761 1.2239,3.0 1.5,3.0 L 13.5,3.0 C 13.7761,3.0 14.0,2.7761 14.0,2.5 C 14.0,2.2239 13.7761,2.0 13.5,2.0 L 1.5,2.0 M 2.5,4.0 C 2.223,4.0 2.0,4.223 2.0,4.5 L 2.0,13.5 C 2.0,13.777 2.223,14.0 2.5,14.0 L 12.5,14.0 C 12.777,14.0 13.0,13.777 13.0,13.5 L 13.0,4.5 C 13.0,4.223 12.777,4.0 12.5,4.0 L 2.5,4.0 M 7.5,6.0 C 9.4066,6.002 10.961,7.5293 10.9961,9.4356 C 10.9991,9.4568 11.0001,9.4781 11.0001,9.5 L 11.0001,12.5 C 11.0001,12.777 10.7771,13.0 10.5001,13.0 L 7.5001,13.0 L 4.5001,13.0 C 4.2231,13.0 4.0001,12.777 4.0001,12.5 L 4.0001,9.5 C 4.0001,9.478 4.0011,9.4567 4.0041,9.4356 C 4.0392,7.5293 5.5936,6.0018 7.5002,6.0 L 7.5,6.0 M 7.5,8.0 C 7.3212,7.9998 7.1558,8.0951 7.0664,8.25 L 6.2012,9.75 C 5.8389,10.3775 5.9801,11.1827 6.5352,11.6484 C 7.0903,12.1142 7.9098,12.1142 8.4648,11.6484 C 9.0199,11.1827 9.1611,10.3775 8.7988,9.75 L 7.9336,8.25 C 7.8442,8.0951 7.6788,7.9998 7.5,8.0 L 7.5,8.0" fill="#000" /></svg>