<svg xmlns="http://www.w3.org/2000/svg" width="16" height="16"><path d="M 8.0,1.5 C 7.8212,1.4998 7.6558,1.5951 7.5664,1.75 L 6.2676,4.0 C 5.784,4.8377 5.9739,5.9095 6.7148,6.5312 C 7.4558,7.153 8.5442,7.153 9.2852,6.5312 C 10.0261,5.9095 10.216,4.8377 9.7324,4.0 L 8.4336,1.75 C 8.3442,1.5951 8.1788,1.4998 8.0,1.5 M 3.0547,6.5664 L 2.5547,7.4336 C 2.4162,7.6735 2.4965,7.9767 2.7363,8.1152 L 6.002,10.0 L 2.7363,11.8848 C 2.4964,12.0233 2.4162,12.3265 2.5547,12.5664 L 3.0547,13.4336 C 3.1932,13.6735 3.4964,13.7537 3.7363,13.6152 L 8.0,11.1543 L 12.2637,13.6152 C 12.5036,13.7537 12.8068,13.6735 12.9453,13.4336 L 13.4453,12.5664 C 13.5838,12.3265 13.5035,12.0233 13.2637,11.8848 L 9.998,10.0 L 13.2637,8.1152 C 13.5036,7.9767 13.5838,7.6735 13.4453,7.4336 L 12.9453,6.5664 C 12.8068,6.3265 12.5036,6.2463 12.2637,6.3848 L 8.0,8.8457 L 3.7363,6.3848 C 3.4958,6.2459 3.1936,6.3257 3.0547,6.5664" fill="#000" /></svg>