<svg xmlns="http://www.w3.org/2000/svg" width="16" height="16"><path d="M 7.5,1.0 C 7.0833,1.0 6.6796,1.2176 6.4121,1.5742 C 6.1446,1.9309 6.0,2.4167 6.0,3.0 C 6.0,3.6667 6.334,4.1523 6.584,4.5273 C 6.834,4.9023 7.0,5.1667 7.0,5.5 C 7.0,6.65 6.6707,7.4118 6.2559,8.123 C 5.841,8.8343 5.3123,9.4811 5.0254,10.3418 C 4.7323,11.2211 4.7395,12.3208 5.1836,13.2734 C 5.6277,14.226 6.5964,15.0 8.0,15.0 C 9.2083,15.0 10.1271,14.2271 10.6269,13.2988 C 11.493,11.3858 11.2386,9.7502 9.9473,8.2773 C 9.436,7.6942 8.7999,8.2107 9.0527,8.7227 C 9.2282,9.0736 9.2402,9.5722 9.0879,10.0293 C 8.9356,10.4864 8.6283,10.8773 8.2774,11.0527 C 7.7168,11.3612 8.1386,12.2087 8.7227,11.9473 L 10.0895,11.3284 C 10.0975,11.8256 10.0053,12.3485 9.7481,12.8262 C 9.3728,13.523 8.7917,14.0 8.0,14.0 C 6.9338,14.0 6.4033,13.524 6.0898,12.8516 C 5.7764,12.1791 5.7677,11.2789 5.9746,10.6582 C 6.1877,10.0189 6.659,9.4157 7.1191,8.627 C 7.5793,7.8382 8.0,6.85 8.0,5.5 C 8.0,5.1667 8.166,4.9023 8.416,4.5273 C 8.666,4.1523 9.0,3.6667 9.0,3.0 C 9.0,2.4167 8.8554,1.9309 8.5879,1.5742 C 8.3204,1.2176 7.9167,1.0 7.5,1.0 M 7.5,2.0 C 7.502,2.0 8.0,2.001 8.0,3.0 C 8.0,3.5 7.7027,3.8158 7.5,4.1914 C 7.2748,3.8127 7.0,3.5 7.0,3.0 C 7.0,2.0011 7.4979,2.0 7.5,2.0" fill="#000" /></svg>