<svg xmlns="http://www.w3.org/2000/svg" width="16" height="16"><path d="M 1.5,3.0002 C 1.2239,3.0002 1.0,3.2241 1.0,3.5002 L 1.0,13.5 C 0.99,14.1762 2.0096,14.1762 2.0,13.5 L 2.0,12.0 L 13.5,12.0 C 13.7761,12.0 14.0,11.7761 14.0,11.5 L 14.0,3.5 C 14.0,3.2239 13.7761,3.0 13.5,3.0 L 1.5,3.0002 M 2.5,4.0 C 2.7761,4.0 3.0,4.2239 3.0,4.5 C 3.0,4.7761 2.7761,5.0 2.5,5.0 C 2.2239,5.0 2.0,4.7761 2.0,4.5 C 2.0,4.2239 2.2239,4.0 2.5,4.0 M 4.5,4.0 C 4.7761,4.0 5.0,4.2239 5.0,4.5 C 5.0,4.7761 4.7761,5.0 4.5,5.0 C 4.2239,5.0 4.0,4.7761 4.0,4.5 C 4.0,4.2239 4.2239,4.0 4.5,4.0 M 6.5,4.0 C 6.7761,4.0 7.0,4.2239 7.0,4.5 C 7.0,4.7761 6.7761,5.0 6.5,5.0 C 6.2239,5.0 6.0,4.7761 6.0,4.5 C 6.0,4.2239 6.2239,4.0 6.5,4.0 M 8.0,4.0 L 13.0,4.0 L 13.0,5.0 L 8.0,5.0 L 8.0,4.0 M 2.5,6.0 C 2.7761,6.0 3.0,6.2239 3.0,6.5 C 3.0,6.7761 2.7761,7.0 2.5,7.0 C 2.2239,7.0 2.0,6.7761 2.0,6.5 C 2.0,6.2239 2.2239,6.0 2.5,6.0 M 4.5,6.0 C 4.7761,6.0 5.0,6.2239 5.0,6.5 C 5.0,6.7761 4.7761,7.0 4.5,7.0 C 4.2239,7.0 4.0,6.7761 4.0,6.5 C 4.0,6.2239 4.2239,6.0 4.5,6.0 M 6.5,6.0 C 6.7761,6.0 7.0,6.2239 7.0,6.5 C 7.0,6.7761 6.7761,7.0 6.5,7.0 C 6.2239,7.0 6.0,6.7761 6.0,6.5 C 6.0,6.2239 6.2239,6.0 6.5,6.0 M 8.0,6.0 L 13.0,6.0 L 13.0,7.0 L 8.0,7.0 L 8.0,6.0 M 2.0,8.0 L 13.0,8.0 L 13.0,9.0 L 2.0,9.0 L 2.0,8.0 M 2.0,10.0 L 13.0,10.0 L 13.0,11.0 L 2.0,11.0 L 2.0,10.0" fill="#000" /></svg>