<svg xmlns="http://www.w3.org/2000/svg" width="16" height="16"><path d="M 7.5,2.0 C 7.3328,2.0 7.1767,2.0836 7.084,2.2227 C 7.084,2.2227 6.6359,3.0965 6.3184,4.1602 C 5.5982,3.3317 4.5349,3.1651 3.5,3.0 C 2.9505,2.9476 2.8014,3.7613 3.3145,3.9648 C 3.8381,4.1743 4.0682,4.438 4.2441,4.7773 C 4.4201,5.1167 4.5118,5.547 4.6445,6.0117 C 4.7773,6.4764 4.966,6.9992 5.4238,7.3945 C 5.7965,7.7164 6.311,7.9156 7.0,7.9785 L 7.0,9.0 L 3.5,9.0 C 3.2239,9.0 3.0,9.2239 3.0,9.5 C 3.0,9.7761 3.2239,10.0 3.5,10.0 L 4.0898,10.0 L 5.0098,14.5977 C 5.0564,14.8315 5.2616,14.9999 5.5,15.0 L 9.5,15.0 C 9.7384,14.9999 9.9436,14.8315 9.9902,14.5977 L 10.9102,10.0 L 11.5,10.0 C 11.7761,10.0 12.0,9.7761 12.0,9.5 C 12.0,9.2239 11.7761,9.0 11.5,9.0 L 8.0,9.0 L 8.0,7.9785 C 8.689,7.9156 9.2035,7.7164 9.5762,7.3945 C 10.034,6.9992 10.2227,6.4764 10.3555,6.0117 C 10.4882,5.547 10.5799,5.1167 10.7559,4.7773 C 10.9318,4.438 11.1619,4.1743 11.6855,3.9648 C 12.1986,3.7612 12.0476,2.9303 11.5,3.0 C 10.4047,3.0918 9.505,3.5085 8.6811,4.1606 C 8.3636,3.0969 7.9155,2.2231 7.9155,2.2231 C 7.8233,2.0836 7.6672,2.0 7.5,2.0" fill="#000" /></svg>