<svg xmlns="http://www.w3.org/2000/svg" width="16" height="16"><path d="M 7.5,1.0 C 7.3328,1.0 7.1767,1.0836 7.084,1.2227 C 7.084,1.2227 6.6359,2.0965 6.3184,3.1602 C 5.5982,2.3317 4.5349,2.1651 3.5,2.0 C 2.9505,1.9476 2.8014,2.7613 3.3145,2.9648 C 3.8381,3.1743 4.0682,3.438 4.2441,3.7773 C 4.4201,4.1167 4.5118,4.547 4.6445,5.0117 C 4.7773,5.4764 4.966,5.9992 5.4238,6.3945 C 5.7965,6.7164 6.311,6.9156 7.0,6.9785 L 7.0,8.0 L 3.5,8.0 C 3.2239,8.0 3.0,8.2239 3.0,8.5 C 3.0,8.7761 3.2239,9.0 3.5,9.0 L 4.0898,9.0 L 5.0098,13.5977 C 5.0564,13.8315 5.2616,13.9999 5.5,14.0 L 9.5,14.0 C 9.7384,13.9999 9.9436,13.8315 9.9902,13.5977 L 10.9102,9.0 L 11.5,9.0 C 11.7761,9.0 12.0,8.7761 12.0,8.5 C 12.0,8.2239 11.7761,8.0 11.5,8.0 L 8.0,8.0 L 8.0,6.9785 C 8.689,6.9156 9.2035,6.7164 9.5762,6.3945 C 10.034,5.9992 10.2227,5.4764 10.3555,5.0117 C 10.4882,4.547 10.5799,4.1167 10.7559,3.7773 C 10.9318,3.438 11.1619,3.1743 11.6855,2.9648 C 12.1986,2.7612 12.0476,1.9303 11.5,2.0 C 10.4047,2.0918 9.505,2.5085 8.6811,3.1606 C 8.3636,2.0969 7.9155,1.2231 7.9155,1.2231 C 7.8233,1.0836 7.6672,1.0 7.5,1.0" fill="#000" /></svg>