<svg xmlns="http://www.w3.org/2000/svg" width="16" height="16"><path d="M 7.5,2.0 C 7.3328,2.0 7.1767,2.0836 7.084,2.2227 C 7.084,2.2227 6.6359,3.0965 6.3184,4.1602 C 6.1621,4.0054 6.0283,3.8347 5.8398,3.709 C 5.2531,3.3178 4.4942,3.1127 3.7207,3.0664 C 3.7197,3.066 3.7157,3.0634 3.7147,3.0624 L 3.7127,3.0624 C 3.7057,3.0564 3.6994,3.047 3.6932,3.0409 L 3.6912,3.0389 L 3.6892,3.0369 C 3.6882,3.0364 3.6862,3.0349 3.6852,3.0349 L 3.6812,3.0544 C 3.6154,3.0514 3.5668,3.0 3.5,3.0 C 2.948,2.999 2.8014,3.7613 3.3145,3.9648 C 3.8381,4.1743 4.0682,4.438 4.2441,4.7773 C 4.4201,5.1167 4.5118,5.547 4.6445,6.0117 C 4.7773,6.4764 4.966,6.9992 5.4238,7.3945 C 5.7965,7.7164 6.311,7.9156 7.0,7.9785 L 7.0,9.0 L 3.5,9.0 C 3.2239,9.0 3.0,9.2239 3.0,9.5 C 3.0,9.7761 3.2239,10.0 3.5,10.0 L 4.0898,10.0 L 5.0098,14.5977 C 5.0564,14.8315 5.2616,14.9999 5.5,15.0 L 9.5,15.0 C 9.7384,14.9999 9.9436,14.8315 9.9902,14.5977 L 10.9102,10.0 L 11.5,10.0 C 11.7761,10.0 12.0,9.7761 12.0,9.5 C 12.0,9.2239 11.7761,9.0 11.5,9.0 L 8.0,9.0 L 8.0,7.9785 C 8.689,7.9156 9.2035,7.7164 9.5762,7.3945 C 10.034,6.9992 10.2227,6.4764 10.3555,6.0117 C 10.4882,5.547 10.5799,5.1167 10.7559,4.7773 C 10.9318,4.438 11.1619,4.1743 11.6855,3.9648 C 12.1986,3.7612 12.052,2.9988 11.5,3.0 C 11.4332,3.0 11.3847,3.0514 11.3184,3.0547 L 11.3144,3.0352 C 11.3134,3.0356 11.3094,3.0382 11.3084,3.0392 L 11.3064,3.0412 L 11.3044,3.0432 C 11.2984,3.0482 11.2923,3.0553 11.2868,3.0608 L 11.2848,3.0628 L 11.2828,3.0648 C 11.2818,3.0653 11.2798,3.0668 11.2788,3.0668 C 10.5052,3.1131 9.7464,3.3182 9.1596,3.7094 C 8.9711,3.835 8.8374,4.0058 8.6811,4.1605 C 8.3635,3.0969 7.9155,2.223 7.9155,2.223 C 7.8233,2.0836 7.6672,2.0 7.5,2.0" fill="#000" /></svg>