<svg xmlns="http://www.w3.org/2000/svg" width="16" height="16"><path d="M 5.5,3.0 C 5.223,3.0 5.0,3.223 5.0,3.5 L 5.0,4.5 C 5.0,4.777 5.223,5.0 5.5,5.0 C 5.777,5.0 6.0,4.777 6.0,4.5 L 6.0,3.5 C 6.0,3.223 5.777,3.0 5.5,3.0 M 7.5,3.0 C 7.223,3.0 7.0,3.223 7.0,3.5 L 7.0,4.5 C 7.0,4.777 7.223,5.0 7.5,5.0 C 7.777,5.0 8.0,4.777 8.0,4.5 L 8.0,3.5 C 8.0,3.223 7.777,3.0 7.5,3.0 M 9.5,3.0 C 9.223,3.0 9.0,3.223 9.0,3.5 L 9.0,4.5 C 9.0,4.777 9.223,5.0 9.5,5.0 C 9.777,5.0 10.0,4.777 10.0,4.5 L 10.0,3.5 C 10.0,3.223 9.777,3.0 9.5,3.0 M 6.0,6.0 C 5.446,6.0 5.0,6.446 5.0,7.0 C 5.0,7.554 5.446,8.0 6.0,8.0 C 6.5523,8.0 7.0,8.4477 7.0,9.0 L 7.0,11.0 C 7.0,11.5523 6.5523,12.0 6.0,12.0 L 6.0,13.0 C 6.0,13.554 6.446,14.0 7.0,14.0 L 9.0,14.0 C 9.554,14.0 10.0,13.554 10.0,13.0 L 10.0,7.0 C 10.0,6.446 9.554,6.0 9.0,6.0 L 6.0,6.0" fill="#000" /></svg>