<svg xmlns="http://www.w3.org/2000/svg" width="16" height="16"><path d="M 11.1875,1.25 C 10.8715,1.25 10.6684,1.4181 10.502,1.5957 C 10.3355,1.7733 10.1926,1.9975 10.0527,2.2773 C 8.9542,4.4744 9.0,7.8049 9.0,9.5 C 9.0,9.7761 9.2239,10.0 9.5,10.0 L 11.0,10.0 L 11.0,13.5 C 11.0,13.7761 11.2239,14.0 11.5,14.0 C 11.7761,14.0 12.0,13.7761 12.0,13.5 L 12.0,9.5 L 12.0,2.5 C 12.0,2.2083 11.9733,1.9655 11.873,1.7363 C 11.7728,1.5072 11.5035,1.25 11.1875,1.25 M 3.5,2.0 C 3.2239,2.0 3.0,2.2239 3.0,2.5 L 3.0,6.5 C 3.0,7.8833 3.6522,8.6114 4.1699,9.0645 C 4.4288,9.291 4.6398,9.4683 4.7754,9.666 C 4.911,9.8637 5.0,10.0833 5.0,10.5 L 5.0,13.5 C 5.0,13.7761 5.2239,14.0 5.5,14.0 C 5.7761,14.0 6.0,13.7761 6.0,13.5 L 6.0,10.5 C 6.0,10.0833 6.089,9.8637 6.2246,9.666 C 6.3602,9.4683 6.5712,9.291 6.8301,9.0645 C 7.3478,8.6114 8.0,7.8833 8.0,6.5 L 8.0,2.5 C 8.0,2.2239 7.7761,2.0 7.5,2.0 C 7.2239,2.0 7.0,2.2239 7.0,2.5 L 7.0,6.0 C 7.0,6.2761 6.7761,6.5 6.5,6.5 C 6.2239,6.5 6.0,6.2761 6.0,6.0 L 6.0,2.5 C 6.0,2.2239 5.7761,2.0 5.5,2.0 C 5.2239,2.0 5.0,2.2239 5.0,2.5 L 5.0,6.0 C 5.0,6.2761 4.7761,6.5 4.5,6.5 C 4.2239,6.5 4.0,6.2761 4.0,6.0 L 4.0,2.5 C 4.0,2.2239 3.7761,2.0 3.5,2.0" fill="#000" /></svg>