<svg xmlns="http://www.w3.org/2000/svg" width="16" height="16"><path d="M 6.0,3.0 C 4.9013,3.0 4.0,3.9013 4.0,5.0 L 4.0,5.5 A 0.5,0.5 0.0 0,0 4.5,6.0 A 0.5,0.5 0.0 0,0 5.0,5.5 L 5.0,5.0 C 5.0,4.4418 5.4418,4.0 6.0,4.0 C 6.5582,4.0 7.0,4.4418 7.0,5.0 L 7.0,7.0 A 0.5,0.5 0.0 0,0 7.5,7.5 A 0.5,0.5 0.0 0,0 8.0,7.0 L 8.0,5.0 C 8.0,4.4418 8.4418,4.0 9.0,4.0 C 9.5582,4.0 10.0,4.4418 10.0,5.0 L 10.0,5.5 A 0.5,0.5 0.0 0,0 10.5,6.0 A 0.5,0.5 0.0 0,0 11.0,5.5 L 11.0,5.0 C 11.0,3.9013 10.0987,3.0 9.0,3.0 C 8.4048,3.0 7.8674,3.2645 7.5,3.6816 C 7.1326,3.2645 6.5952,3.0 6.0,3.0 M 3.5,8.0 C 3.223,8.0 3.0,8.223 3.0,8.5 C 3.0,8.777 3.223,9.0 3.5,9.0 L 4.0,9.0 L 6.0,11.0 L 6.0,12.0 L 5.5,12.0 C 5.223,12.0 5.0,12.223 5.0,12.5 C 5.0,12.777 5.223,13.0 5.5,13.0 L 9.5,13.0 C 9.777,13.0 10.0,12.777 10.0,12.5 C 10.0,12.223 9.777,12.0 9.5,12.0 L 9.0,12.0 L 9.0,11.0 L 11.0,9.0 L 11.5,9.0 C 11.777,9.0 12.0,8.777 12.0,8.5 C 12.0,8.223 11.777,8.0 11.5,8.0 L 3.5,8.0" fill="#000" /></svg>