<svg xmlns="http://www.w3.org/2000/svg" width="16" height="16"><path d="M 5.0,2.0 C 3.3491,2.0 2.0,3.3491 2.0,5.0 L 2.0,5.5 A 0.5,0.5 0.0 1,0 3.0,5.5 L 3.0,5.0 C 3.0,3.8895 3.8895,3.0 5.0,3.0 C 6.1105,3.0 7.0,3.8895 7.0,5.0 L 7.0,5.2812 C 6.7041,5.1077 6.3655,5.0 6.0,5.0 C 4.9013,5.0 4.0,5.9013 4.0,7.0 L 4.0,7.5 A 0.5,0.5 0.0 1,0 5.0,7.5 L 5.0,7.0 C 5.0,6.4418 5.4418,6.0 6.0,6.0 C 6.5582,6.0 7.0,6.4418 7.0,7.0 L 7.0,8.0 A 0.5,0.5 0.0 1,0 8.0,8.0 L 8.0,7.0352 A 0.5,0.5 0.0 0,0 8.0,7.0 C 8.0,6.4418 8.4418,6.0 9.0,6.0 C 9.5582,6.0 10.0,6.4418 10.0,7.0 L 10.0,7.5 A 0.5,0.5 0.0 1,0 11.0,7.5 L 11.0,7.0 C 11.0,5.9013 10.0987,5.0 9.0,5.0 C 8.6345,5.0 8.2959,5.1077 8.0,5.2812 L 8.0,5.0352 A 0.5,0.5 0.0 0,0 8.0,5.0 C 8.0,3.8895 8.8895,3.0 10.0,3.0 C 11.1105,3.0 12.0,3.8895 12.0,5.0 L 12.0,5.5 A 0.5,0.5 0.0 1,0 13.0,5.5 L 13.0,5.0 C 13.0,3.3491 11.6509,2.0 10.0,2.0 C 8.9579,2.0 8.0382,2.5399 7.5,3.3516 C 6.9618,2.5399 6.0421,2.0 5.0,2.0 M 3.5,9.0 A 0.5,0.5 0.0 1,0 3.5,10.0 L 3.793,10.0 L 4.6465,10.8535 A 0.5,0.5 0.0 0,0 5.0,11.0 L 7.0,11.0 L 7.0,12.0 L 2.5,12.0 A 0.5,0.5 0.0 1,0 2.5,13.0 L 2.793,13.0 L 3.6465,13.8535 A 0.5,0.5 0.0 0,0 4.0,14.0 L 11.0,14.0 A 0.5,0.5 0.0 0,0 11.3535,13.8535 L 12.207,13.0 L 12.5,13.0 A 0.5,0.5 0.0 1,0 12.5,12.0 L 8.0,12.0 L 8.0,11.0 L 10.0,11.0 A 0.5,0.5 0.0 0,0 10.3535,10.8535 L 11.207,10.0 L 11.5,10.0 A 0.5,0.5 0.0 1,0 11.5,9.0 L 3.5,9.0" fill="#000" /></svg>