<svg xmlns="http://www.w3.org/2000/svg" width="16" height="16"><path d="M 3.4922,0.9922 C 3.216,0.9962 2.9957,1.2239 3.0,1.5 C 3.0,1.9167 3.1929,2.2749 3.459,2.541 C 3.7251,2.8071 4.0833,3.0 4.5,3.0 L 5.1094,3.0 L 5.2441,3.5352 C 5.0737,3.5799 4.918,3.6688 4.793,3.793 C 4.6054,3.9805 4.5,4.2348 4.5,4.5 L 5.4844,4.5 L 6.0156,6.6211 C 6.0711,6.8435 6.2708,6.9996 6.5,7.0 L 8.5,7.0 C 8.7292,6.9996 8.9289,6.8435 8.9844,6.6211 L 9.5156,4.5 L 10.5,4.5 C 10.5,4.2348 10.3946,3.9805 10.207,3.793 C 10.082,3.6688 9.9263,3.5798 9.7559,3.5352 L 9.8906,3.0 L 10.5,3.0 C 10.9167,3.0 11.2749,2.8071 11.541,2.541 C 11.8071,2.2749 12.0,1.9167 12.0,1.5 C 12.004,1.2177 11.7745,0.9878 11.4922,0.9922 C 11.216,0.9962 10.9957,1.2239 11.0,1.5 C 11.0,1.5833 10.9429,1.7251 10.834,1.834 C 10.7251,1.9429 10.5833,2.0 10.5,2.0 L 4.4998,2.0 C 4.4165,2.0 4.2748,1.9429 4.1658,1.834 C 4.0571,1.7251 4.0,1.5833 4.0,1.5 C 4.004,1.2177 3.7745,0.9878 3.4922,0.9922 M 7.0,8.0 L 7.0,10.0 L 8.0,10.0 L 8.0,8.0 L 7.0,8.0 M 3.0,11.0 C 3.0001,11.7956 3.3163,12.5586 3.8789,13.1211 C 4.4414,13.6837 5.2044,13.9999 6.0,14.0 L 9.0,14.0 C 9.7956,13.9999 10.5586,13.6837 11.1211,13.1211 C 11.6837,12.5586 11.9999,11.7956 12.0,11.0 L 3.0,11.0" fill="#000" /></svg>