<svg xmlns="http://www.w3.org/2000/svg" width="16" height="16"><path d="M 3.5079,1.9922 C 3.784,1.9962 4.0044,2.2239 4.0001,2.5 L 4.0001,4.9785 C 4.1606,4.9668 4.3306,4.9515 4.4903,4.9238 C 4.8429,4.8627 5.1036,4.6934 5.0841,4.7226 L 6.0841,3.2226 C 6.1784,3.0812 6.3379,2.9974 6.5079,3.0 C 6.781,3.004 7.0001,3.2269 7.0001,3.5 L 7.0001,4.6621 L 9.1856,5.5351 C 9.4571,5.6437 9.5779,5.961 9.4473,6.2226 L 8.9473,7.2226 C 8.8468,7.4245 8.6236,7.5341 8.4024,7.4902 L 5.9845,7.0058 C 5.2363,7.0118 4.4325,7.3879 4.0001,7.7402 L 4.0001,9.0 L 11.5001,9.0 C 11.7762,9.0 12.0,9.2239 12.0001,9.5 C 12.0001,10.4167 11.5572,11.2749 10.9161,11.916 C 10.275,12.5571 9.4167,13.0 8.5001,13.0 L 4.0001,13.0 L 4.0001,13.5 C 4.0101,14.1762 2.9905,14.1762 3.0001,13.5 L 3.0001,2.5 C 2.9961,2.2178 3.2256,1.9878 3.5079,1.9922 L 3.5079,1.9922" fill="#000" /></svg>