<svg xmlns="http://www.w3.org/2000/svg" width="16" height="16"><path d="M 11.4922,1.9922 C 11.216,1.9962 10.9957,2.2239 11.0,2.5 L 11.0,4.9785 C 10.8395,4.9668 10.6695,4.9515 10.5098,4.9238 C 10.1571,4.8627 9.8965,4.6934 9.916,4.7226 L 8.916,3.2226 C 8.8217,3.0812 8.6621,2.9974 8.4922,3.0 C 8.2191,3.004 8.0,3.2269 8.0,3.5 L 8.0,4.6621 L 5.8144,5.5351 C 5.543,5.6437 5.4222,5.961 5.5527,6.2226 L 6.0527,7.2226 C 6.1533,7.4245 6.3765,7.5341 6.5977,7.4902 L 9.0156,7.0058 C 9.7638,7.0118 10.5676,7.3879 11.0,7.7402 L 11.0,9.0 L 3.5,9.0 C 3.2239,9.0 3.0,9.2239 3.0,9.5 C 3.0,10.4167 3.4429,11.2749 4.084,11.916 C 4.7251,12.5571 5.5833,13.0 6.5,13.0 L 11.0,13.0 L 11.0,13.5 C 10.99,14.1762 12.0096,14.1762 12.0,13.5 L 12.0,2.5 C 12.004,2.2178 11.7745,1.9878 11.4922,1.9922 L 11.4922,1.9922" fill="#000" /></svg>