<svg xmlns="http://www.w3.org/2000/svg" width="16" height="16"><path d="M 2.5,5.0 C 2.2239,5.0 2.0,5.2239 2.0,5.5 L 2.0,9.5 C 1.9904,10.1762 3.0096,10.1762 3.0,9.5 L 3.0,8.0 L 3.5,8.0 C 4.1762,8.01 4.1762,6.9904 3.5,7.0 L 3.0,7.0 L 3.0,6.0 L 3.5,6.0 C 4.1762,6.01 4.1762,4.9904 3.5,5.0 L 2.5,5.0 M 5.5,5.0 C 5.2239,5.0 5.0,5.2239 5.0,5.5 L 5.0,9.5 C 4.9904,10.1762 6.0096,10.1762 6.0,9.5 L 6.0,8.0 L 6.0703,8.0 L 7.0664,9.7481 C 7.385,10.3689 8.3073,9.8413 7.9336,9.252 L 7.1309,7.8398 C 7.2829,7.7609 7.4225,7.6595 7.541,7.541 C 7.8071,7.2749 8.0,6.9167 8.0,6.5 C 8.0,6.0833 7.8071,5.7251 7.541,5.459 C 7.2749,5.1929 6.9167,5.0 6.5,5.0 L 5.5,5.0 M 9.5,5.0 C 9.2239,5.0 9.0,5.2239 9.0,5.5 L 9.0,9.5 C 9.0,9.7761 9.2239,10.0 9.5,10.0 L 10.5,10.0 C 11.1762,10.01 11.1762,8.9904 10.5,9.0 L 10.0,9.0 L 10.0,8.0 L 10.5,8.0 C 11.1762,8.01 11.1762,6.9904 10.5,7.0 L 10.0,7.0 L 10.0,6.0 L 10.5,6.0 C 11.1762,6.01 11.1762,4.9904 10.5,5.0 L 9.5,5.0 M 12.5,5.0 C 12.2239,5.0 12.0,5.2239 12.0,5.5 L 12.0,9.5 C 12.0,9.7761 12.2239,10.0 12.5,10.0 L 13.5,10.0 C 14.1762,10.01 14.1762,8.9904 13.5,9.0 L 13.0,9.0 L 13.0,8.0 L 13.5,8.0 C 14.1762,8.01 14.1762,6.9904 13.5,7.0 L 13.0,7.0 L 13.0,6.0 L 13.5,6.0 C 14.1762,6.01 14.1762,4.9904 13.5,5.0 L 12.5,5.0 M 6.0,6.0 L 6.5,6.0 C 6.7929,6.0 7.0,6.2148 7.0,6.5 C 7.0,6.7851 6.8008,7.0 6.5,7.0 L 6.0,7.0 L 6.0,6.0" fill="#000" /></svg>