<svg xmlns="http://www.w3.org/2000/svg" width="16" height="16"><path d="M 3.0,2.0 C 2.446,2.0 2.0,2.446 2.0,3.0 L 2.0,13.0 C 2.0,13.554 2.446,14.0 3.0,14.0 L 8.0,14.0 C 8.554,14.0 9.0,13.554 9.0,13.0 L 9.0,9.0 C 9.5582,9.0 10.0,9.4418 10.0,10.0 L 10.0,11.5 C 10.0,12.0351 10.2866,12.5313 10.75,12.7988 C 11.2134,13.0664 11.7866,13.0664 12.25,12.7988 C 12.7134,12.5313 13.0,12.0351 13.0,11.5 L 13.0,6.5 C 13.0,5.3333 12.3535,4.6465 11.8535,4.1465 L 10.8535,3.1465 C 10.7598,3.0527 10.6326,3.0 10.5,3.0 C 10.3674,3.0 10.2402,3.0527 10.1465,3.1465 C 9.9513,3.3417 9.9513,3.6583 10.1465,3.8535 L 11.0,4.707 L 11.0,6.5 C 11.0,6.7761 11.2239,7.0 11.5,7.0 L 12.0,7.0 L 12.0,11.5 C 12.0,11.6794 11.9054,11.8439 11.75,11.9336 C 11.5946,12.0233 11.4054,12.0233 11.25,11.9336 C 11.0946,11.8439 11.0,11.6794 11.0,11.5 L 11.0,10.0 C 11.0,8.9013 10.0987,8.0 9.0,8.0 L 9.0,3.0 C 9.0,2.446 8.554,2.0 8.0,2.0 L 3.0,2.0 M 3.5,4.0 L 7.5,4.0 C 7.7761,4.0 8.0,4.2239 8.0,4.5 L 8.0,6.5 C 8.0,6.7761 7.7761,7.0 7.5,7.0 L 3.5,7.0 C 3.2239,7.0 3.0,6.7761 3.0,6.5 L 3.0,4.5 C 3.0,4.2239 3.2239,4.0 3.5,4.0" fill="#000" /></svg>