<svg xmlns="http://www.w3.org/2000/svg" width="16" height="16"><path d="M 2.0,3.0 C 1.446,3.0 1.0,3.446 1.0,4.0 L 1.0,12.5 A 0.5,0.5 45.0 0,0 1.5,13.0 A 0.5,0.5 135.0 0,0 2.0,12.5 L 2.0,4.0 L 14.0,4.0 L 14.0,12.5 A 0.5,0.5 45.0 0,0 14.5,13.0 A 0.5,0.5 135.0 0,0 15.0,12.5 L 15.0,4.0 C 15.0,3.446 14.554,3.0 14.0,3.0 L 2.0,3.0 M 3.0,5.5 L 3.0,6.5 A 0.5,0.5 45.0 0,0 3.5,7.0 L 12.5,7.0 A 0.5,0.5 135.0 0,0 13.0,6.5 L 13.0,5.5 A 0.5,0.5 45.0 0,0 12.5,5.0 L 3.5,5.0 A 0.5,0.5 135.0 0,0 3.0,5.5 M 3.0,8.5 L 3.0,9.5 A 0.5,0.5 45.0 0,0 3.5,10.0 L 12.5,10.0 A 0.5,0.5 135.0 0,0 13.0,9.5 L 13.0,8.5 A 0.5,0.5 45.0 0,0 12.5,8.0 L 3.5,8.0 A 0.5,0.5 135.0 0,0 3.0,8.5 M 3.0,11.5 L 3.0,12.5 A 0.5,0.5 45.0 0,0 3.5,13.0 L 12.5,13.0 A 0.5,0.5 135.0 0,0 13.0,12.5 L 13.0,11.5 A 0.5,0.5 45.0 0,0 12.5,11.0 L 3.5,11.0 A 0.5,0.5 135.0 0,0 3.0,11.5" fill="#000" /></svg>