<svg xmlns="http://www.w3.org/2000/svg" width="16" height="16"><path d="M 2.5,2.0 A 0.5,0.5 0.0 0,0 2.1465,2.1465 L 1.1465,3.1465 A 0.5,0.5 0.0 0,0 1.1465,3.8535 A 0.5,0.5 0.0 0,0 1.8535,3.8535 L 2.707,3.0 L 13.293,3.0 L 14.1465,3.8535 A 0.5,0.5 0.0 0,0 14.8535,3.8535 A 0.5,0.5 0.0 0,0 14.8535,3.1465 L 13.8535,2.1465 A 0.5,0.5 0.0 0,0 13.5,2.0 L 2.5,2.0 M 3.5,5.0 C 3.0408,4.9998 2.6405,5.3123 2.5293,5.7578 L 2.0293,7.7578 C 2.01,7.837 1.9999,7.9184 2.0,8.0 L 2.0,8.5 L 2.0,10.0 L 2.0,10.002 C 2.0007,11.1094 2.8924,12.0 4.0,12.0 C 4.9352,12.0 5.7166,11.3645 5.9375,10.5 L 10.0625,10.5 C 10.2834,11.3645 11.0648,12.0 12.0,12.0 C 13.1076,12.0 13.9993,11.1094 14.0,10.002 L 14.0,10.0 L 14.0,8.5 C 13.9998,8.0231 13.663,7.6127 13.1953,7.5195 L 11.0703,7.0938 L 9.8008,5.4004 C 9.6118,5.1482 9.3151,4.9999 9.0,5.0 L 3.5,5.0 M 4.0,9.0 C 4.554,9.0 5.0,9.446 5.0,10.0 C 5.0,10.554 4.554,11.0 4.0,11.0 C 3.446,11.0 3.0,10.554 3.0,10.0 C 3.0,9.446 3.446,9.0 4.0,9.0 M 12.0,9.0 C 12.554,9.0 13.0,9.446 13.0,10.0 C 13.0,10.554 12.554,11.0 12.0,11.0 C 11.446,11.0 11.0,10.554 11.0,10.0 C 11.0,9.446 11.446,9.0 12.0,9.0" fill="#000" /></svg>