<svg xmlns="http://www.w3.org/2000/svg" width="16" height="16"><path d="M 6.5,3.0 C 5.3333,3.0 4.6465,3.6465 4.1465,4.1465 C 3.6465,4.6465 3.3333,5.0 2.5,5.0 C 2.2239,5.0 2.0,5.2239 2.0,5.5 L 2.0,12.5 C 2.0,12.7761 2.2239,13.0 2.5,13.0 L 6.5,13.0 C 6.7761,13.0 7.0,12.7761 7.0,12.5 L 7.0,3.5 C 7.0,3.2239 6.7761,3.0 6.5,3.0 M 8.5,3.0 C 8.2239,3.0 8.0,3.2239 8.0,3.5 L 8.0,12.5 C 8.0,12.7761 8.2239,13.0 8.5,13.0 L 12.5,13.0 C 12.7761,13.0 13.0,12.7761 13.0,12.5 L 13.0,5.5 C 13.0,5.2239 12.7761,5.0 12.5,5.0 C 11.6667,5.0 11.3535,4.6465 10.8535,4.1465 C 10.3535,3.6465 9.6667,3.0 8.5,3.0 M 5.5,7.0 A 0.5,0.5 0.0 0,1 6.0,7.5 L 6.0,8.5 A 0.5,0.5 0.0 0,1 5.5,9.0 A 0.5,0.5 0.0 0,1 5.0,8.5 L 5.0,7.5 A 0.5,0.5 0.0 0,1 5.5,7.0 M 9.5,7.0 A 0.5,0.5 0.0 0,1 10.0,7.5 L 10.0,8.5 A 0.5,0.5 0.0 0,1 9.5,9.0 A 0.5,0.5 0.0 0,1 9.0,8.5 L 9.0,7.5 A 0.5,0.5 0.0 0,1 9.5,7.0" fill="#000" /></svg>