<svg xmlns="http://www.w3.org/2000/svg" width="16" height="16"><path d="M 9.1465,2.1465 L 5.1465,6.1465 C 4.9513,6.3417 4.9513,6.6583 5.1465,6.8535 L 7.1465,8.8535 C 7.3417,9.0487 7.6583,9.0487 7.8535,8.8535 L 9.5,7.207 L 13.1465,10.8535 C 13.3417,11.0487 13.6583,11.0487 13.8535,10.8535 C 14.0487,10.6583 14.0487,10.3417 13.8535,10.1465 L 10.207,6.5 L 11.8535,4.8535 C 12.0487,4.6583 12.0487,4.3417 11.8535,4.1465 L 9.8535,2.1465 C 9.6587,1.9516 9.3413,1.9516 9.1465,2.1465 M 3.0,11.0 C 2.446,11.0 2.0,11.446 2.0,12.0 L 2.0,13.0 L 9.0,13.0 L 9.0,12.0 C 9.0,11.446 8.554,11.0 8.0,11.0 L 3.0,11.0" fill="#000" /></svg>