<svg xmlns="http://www.w3.org/2000/svg" width="16" height="16"><path d="M 10.4688,2.0 C 10.3409,2.0 10.2229,2.0583 10.125,2.1562 L 5.875,6.4062 C 5.6791,6.6021 5.6791,6.9291 5.875,7.125 L 7.2812,8.5312 C 7.4771,8.7271 7.8041,8.7271 8.0,8.5312 L 9.75,6.75 L 13.6562,10.6562 C 13.8521,10.8521 14.1479,10.8521 14.3438,10.6562 C 14.5396,10.4604 14.5396,10.1334 14.3438,9.9375 L 10.4688,6.0625 L 12.2188,4.2812 C 12.4146,4.0854 12.4146,3.7584 12.2188,3.5625 L 10.8125,2.1562 C 10.7146,2.0583 10.5966,2.0 10.4688,2.0 M 3.0,11.0 C 2.446,11.0 2.0,11.446 2.0,12.0 L 2.0,13.0 L 9.0,13.0 L 9.0,12.0 C 9.0,11.446 8.554,11.0 8.0,11.0 L 3.0,11.0" fill="#000" /></svg>