<svg xmlns="http://www.w3.org/2000/svg" width="16" height="16"><path d="M 12.5,8.0 C 12.7761,8.0 13.0,8.2239 13.0,8.5 L 13.0,12.5 C 13.0,13.3284 12.3284,14.0 11.5,14.0 L 3.5,14.0 C 2.6716,14.0 2.0,13.3284 2.0,12.5 L 2.0,2.5 C 2.0,2.2239 2.2239,2.0 2.5,2.0 L 10.5,2.0 C 10.7761,2.0 11.0,2.2239 11.0,2.5 C 11.0,2.5 11.0,12.5 11.0,12.5 C 11.0,12.7761 11.2239,13.0 11.5,13.0 C 11.7761,13.0 12.0,12.7761 12.0,12.5 L 12.0,8.0 L 12.5,8.0 M 3.0,3.5 L 3.0,5.5 C 3.0,5.7761 3.2239,6.0 3.5,6.0 L 6.5,6.0 C 6.7761,6.0 7.0,5.7761 7.0,5.5 L 7.0,3.5 C 7.0,3.2239 6.7761,3.0 6.5,3.0 L 3.5,3.0 C 3.2239,3.0 3.0,3.2239 3.0,3.5 M 3.5,7.0 C 3.2239,7.0 3.0,7.2239 3.0,7.5 C 3.0,7.7761 3.2239,8.0 3.5,8.0 L 7.5,8.0 C 7.7761,8.0 8.0,7.7761 8.0,7.5 C 8.0,7.2239 7.7761,7.0 7.5,7.0 L 3.5,7.0 C 3.5,7.0 3.5,7.0 3.5,7.0 M 3.5,9.0 C 3.2239,9.0 3.0,9.2239 3.0,9.5 C 3.0,9.7761 3.2239,10.0 3.5,10.0 L 6.5,10.0 C 6.7761,10.0 7.0,9.7761 7.0,9.5 C 7.0,9.2239 6.7761,9.0 6.5,9.0 C 6.5,9.0 3.5,9.0 3.5,9.0 M 3.5,11.0 C 3.2239,11.0 3.0,11.2239 3.0,11.5 C 3.0,11.7761 3.2239,12.0 3.5,12.0 L 7.5,12.0 C 7.7761,12.0 8.0,11.7761 8.0,11.5 C 8.0,11.2239 7.7761,11.0 7.5,11.0 C 7.5,11.0 3.5,11.0 3.5,11.0" fill="#000" /></svg>