<svg xmlns="http://www.w3.org/2000/svg" width="16" height="16"><path d="M 2.5,2.0 C 2.223,2.0 2.0,2.223 2.0,2.5 C 2.002,5.8522 1.996,9.2046 2.002,12.5566 C 2.0317,13.3611 2.688,14.0 3.5,14.0 L 11.5,14.0 C 11.7591,14.0 12.0183,13.9326 12.25,13.7988 C 12.6936,13.5427 12.9728,13.077 12.9961,12.5684 L 13.0001,8.5 C 13.0004,8.223 12.777,8.0 12.5,8.0 L 12.0,8.0 L 12.0,12.5 C 12.0,12.6794 11.9054,12.8439 11.75,12.9336 C 11.5946,13.0233 11.4054,13.0233 11.25,12.9336 C 11.0946,12.8439 11.0,12.6794 11.0,12.5 L 11.0,2.5 C 11.0,2.223 10.777,2.0 10.5,2.0 L 2.5,2.0 M 3.5,3.0 L 6.5,3.0 C 6.777,3.0 7.0,3.223 7.0,3.5 L 7.0,5.5 C 7.0,5.777 6.777,6.0 6.5,6.0 L 3.5,6.0 C 3.223,6.0 3.0,5.777 3.0,5.5 L 3.0,3.5 C 3.0,3.223 3.223,3.0 3.5,3.0 M 3.5,7.0 L 7.5,7.0 C 7.777,7.0 8.0,7.223 8.0,7.5 C 8.0,7.777 7.777,8.0 7.5,8.0 L 3.5,8.0 C 3.223,8.0 3.0,7.777 3.0,7.5 C 3.0,7.223 3.223,7.0 3.5,7.0 M 3.5,9.0 L 6.5,9.0 C 6.777,9.0 7.0,9.223 7.0,9.5 C 7.0,9.777 6.777,10.0 6.5,10.0 L 3.5,10.0 C 3.223,10.0 3.0,9.777 3.0,9.5 C 3.0,9.223 3.223,9.0 3.5,9.0 M 3.5,11.0 L 7.5,11.0 C 7.777,11.0 8.0,11.223 8.0,11.5 C 8.0,11.777 7.777,12.0 7.5,12.0 L 3.5,12.0 C 3.223,12.0 3.0,11.777 3.0,11.5 C 3.0,11.223 3.223,11.0 3.5,11.0" fill="#000" /></svg>