<svg xmlns="http://www.w3.org/2000/svg" width="16" height="16"><path d="M 2.5,2.0 C 2.223,2.0 2.0,2.224 2.0,2.5 L 2.0,12.499 C 2.0,13.328 2.671,14.0 3.498,14.0 L 11.5,14.0 C 12.329,14.0 13.0,13.328 13.0,12.501 L 13.0,8.501 C 13.0,8.224 12.777,8.0 12.501,8.0 L 12.0,8.0 L 12.0,12.5 C 12.0,12.776 11.776,13.0 11.5,13.0 C 11.224,13.0 11.0,12.776 11.0,12.5 L 11.0,2.501 C 11.0,2.224 10.776,2.0 10.501,2.0 L 2.5,2.0 M 3.499,3.0 L 6.5,3.0 C 6.777,3.0 7.0,3.224 7.0,3.5 L 7.0,5.5 C 7.0,5.776 6.777,5.999 6.501,6.0 L 3.5,6.0 C 3.223,5.999 3.0,5.776 3.0,5.5 L 3.0,3.501 C 3.0,3.224 3.223,3.0 3.499,3.0 M 3.499,7.0 L 7.5,7.0 C 7.777,7.001 8.0,7.224 8.0,7.5 C 8.0,7.776 7.777,7.999 7.501,8.0 L 3.5,8.0 C 3.223,7.999 3.0,7.776 3.0,7.5 C 3.0,7.224 3.223,7.001 3.499,7.0 M 3.499,9.0 L 6.5,9.0 C 6.777,9.0 7.0,9.224 7.0,9.5 C 7.0,9.776 6.777,10.0 6.501,10.0 L 3.5,10.0 C 3.223,10.0 3.0,9.776 3.0,9.5 C 3.0,9.224 3.223,9.0 3.499,9.0 M 3.0,11.5 C 3.0,11.224 3.223,11.0 3.499,11.0 L 7.5,11.0 C 7.777,11.0 8.0,11.224 8.0,11.5 C 8.0,11.776 7.777,12.0 7.501,12.0 L 3.5,12.0 C 3.223,12.0 3.0,11.776 3.0,11.5" fill="#000" /></svg>