<svg xmlns="http://www.w3.org/2000/svg" width="16" height="16"><path d="M 3.5,3.0 C 3.223,3.0 3.0,3.223 3.0,3.5 L 3.0,11.5 C 3.0,12.331 3.669,13.0 4.5,13.0 L 8.0,13.0 L 9.5,13.0 L 11.5,13.0 C 11.7591,13.0 12.0183,12.9326 12.25,12.7988 C 12.7134,12.5313 13.0,12.0351 13.0,11.5 L 13.0,7.5 C 13.0,7.223 12.777,7.0 12.5,7.0 L 12.0,7.0 L 12.0,9.0 L 12.0,11.5 C 12.0,11.6794 11.9054,11.8439 11.75,11.9336 C 11.5946,12.0233 11.4054,12.0233 11.25,11.9336 C 11.0946,11.8439 11.0,11.6794 11.0,11.5 L 11.0,3.5 C 11.0,3.223 10.777,3.0 10.5,3.0 L 3.5,3.0 M 4.0,4.0 L 6.0,4.0 L 6.0,7.0 L 4.0,7.0 L 4.0,4.0 M 4.5,8.0 L 8.5,8.0 C 8.777,8.0 9.0,8.223 9.0,8.5 C 9.0,8.777 8.777,9.0 8.5,9.0 L 4.5,9.0 C 4.223,9.0 4.0,8.777 4.0,8.5 C 4.0,8.223 4.223,8.0 4.5,8.0 M 4.5,10.0 L 7.5,10.0 C 7.777,10.0 8.0,10.223 8.0,10.5 C 8.0,10.777 7.777,11.0 7.5,11.0 L 4.5,11.0 C 4.223,11.0 4.0,10.777 4.0,10.5 C 4.0,10.223 4.223,10.0 4.5,10.0" fill="#000" /></svg>