<svg xmlns="http://www.w3.org/2000/svg" width="16" height="16"><path d="M 4.8848,1.041 C 4.4224,1.1118 3.987,1.306 3.6465,1.6465 C 2.9971,2.2959 2.9918,3.2709 3.4902,3.9277 C 3.9887,4.5846 4.8904,5.0 6.0,5.0 L 8.0,5.0 L 9.0,5.0 C 10.1096,5.0 11.0113,4.5846 11.5098,3.9277 C 12.0082,3.2709 12.0029,2.2959 11.3535,1.6465 C 11.013,1.306 10.5776,1.1117 10.1152,1.041 C 9.6529,0.9703 9.1627,1.0237 8.7109,1.1797 C 8.2505,1.3386 7.8164,1.6319 7.5,2.0371 C 7.1836,1.6319 6.7495,1.3386 6.2891,1.1797 C 5.8195,1.0176 5.3469,0.9703 4.8848,1.041 M 5.2734,2.0234 C 5.4993,2.0164 5.7373,2.0478 5.9609,2.125 C 6.5573,2.3308 7.0,2.7516 7.0,3.5 L 7.0,4.0 L 6.0,4.0 C 5.1449,4.0 4.5475,3.6654 4.2871,3.3223 C 4.0267,2.9791 4.0029,2.7041 4.3535,2.3535 C 4.5529,2.1541 4.8971,2.035 5.2734,2.0234 L 5.2734,2.0234 M 9.6113,2.0234 C 10.031,2.012 10.4272,2.1342 10.6465,2.3535 C 10.9971,2.7041 10.9733,2.9791 10.7129,3.3223 C 10.4525,3.6654 9.8551,4.0 9.0,4.0 L 8.0,4.0 L 8.0,3.5 C 8.0,2.7516 8.4427,2.3308 9.0391,2.125 C 9.2254,2.0607 9.4206,2.0286 9.6113,2.0234 L 9.6113,2.0234 M 3.5,6.0 C 3.2239,6.0 3.0,6.2239 3.0,6.5 L 3.0,10.0 L 7.0,10.0 L 7.0,6.0 L 3.5,6.0 M 8.0,6.0 L 8.0,10.0 L 12.0,10.0 L 12.0,6.5 C 12.0,6.2239 11.7761,6.0 11.5,6.0 L 8.0,6.0 M 3.0,11.0 L 3.0,14.5 C 3.0,14.7761 3.2239,15.0 3.5,15.0 L 7.0,15.0 L 7.0,11.0 L 3.0,11.0 M 8.0,11.0 L 8.0,15.0 L 11.5,15.0 C 11.7761,15.0 12.0,14.7761 12.0,14.5 L 12.0,11.0 L 8.0,11.0" fill="#000" /></svg>