<svg xmlns="http://www.w3.org/2000/svg" width="16" height="16"><path d="M 3.4258,2.0566 C 3.3834,2.0587 3.3422,2.0621 3.3008,2.0684 C 2.6375,2.1679 2.1225,2.718 2.0059,3.418 A 0.5,0.5 0.0 0,0 2.0059,3.4297 L 1.0059,10.4297 A 0.5,0.5 0.0 0,0 1.0,10.5 L 1.0,11.0 A 0.5,0.5 0.0 0,0 1.0039,11.0644 C 1.0387,12.6857 2.3708,14.0 4.0,14.0 C 5.6292,14.0 6.9613,12.6857 6.9961,11.0644 A 0.5,0.5 0.0 0,0 7.0,11.0 L 7.0,10.5 C 7.0,10.2179 7.2179,10.0 7.5,10.0 C 7.7821,10.0 8.0,10.2179 8.0,10.5 L 8.0,11.0 C 8.0,12.6509 9.3491,14.0 11.0,14.0 C 12.6292,14.0 13.9613,12.6857 13.9961,11.0644 A 0.5,0.5 0.0 0,0 14.0,11.0 L 14.0,10.5 A 0.5,0.5 0.0 0,0 13.9941,10.4297 L 12.9941,3.4297 A 0.5,0.5 0.0 0,0 12.9902,3.4023 C 12.8529,2.7156 12.3498,2.1715 11.6895,2.0703 C 11.3593,2.0197 10.9899,2.1035 10.6934,2.3281 C 10.3968,2.5527 10.1736,2.8971 10.0254,3.3418 A 0.5,0.5 0.0 0,0 10.3418,3.9746 A 0.5,0.5 0.0 0,0 10.9746,3.6582 C 11.0764,3.3529 11.2026,3.1983 11.2969,3.1269 C 11.3911,3.0555 11.4547,3.046 11.5371,3.0586 C 11.702,3.0839 11.9483,3.2903 12.0098,3.5977 L 12.7148,8.543 C 12.228,8.2017 11.6368,8.0 11.0,8.0 C 9.9484,8.0 9.0184,8.5471 8.4824,9.3711 C 8.2183,9.1403 7.8746,9.0 7.5,9.0 C 7.1254,9.0 6.7817,9.1403 6.5176,9.3711 C 5.9816,8.5471 5.0516,8.0 4.0,8.0 C 3.3632,8.0 2.772,8.2017 2.2852,8.543 L 2.9941,3.5703 L 2.9941,3.582 C 3.0441,3.282 3.2792,3.0821 3.4492,3.0566 C 3.5342,3.0439 3.6024,3.0546 3.6992,3.1269 C 3.7961,3.1997 3.9241,3.3543 4.0254,3.6582 A 0.5,0.5 0.0 0,0 4.6582,3.9746 A 0.5,0.5 0.0 0,0 4.9746,3.3418 C 4.8259,2.8957 4.5997,2.5504 4.3008,2.3262 C 4.0392,2.13 3.7228,2.0423 3.4258,2.0566 M 4.0,9.0 C 5.1105,9.0 6.0,9.8895 6.0,11.0 C 6.0,12.1105 5.1105,13.0 4.0,13.0 C 2.8895,13.0 2.0,12.1105 2.0,11.0 C 2.0,9.8895 2.8895,9.0 4.0,9.0 M 11.0,9.0 C 12.1105,9.0 13.0,9.8895 13.0,11.0 C 13.0,12.1105 12.1105,13.0 11.0,13.0 C 9.8895,13.0 9.0,12.1105 9.0,11.0 C 9.0,9.8895 9.8895,9.0 11.0,9.0" fill="#000" /></svg>