<svg xmlns="http://www.w3.org/2000/svg" width="16" height="16"><path d="M 3.3008,2.0683 C 2.6386,2.1752 2.1225,2.718 2.0059,3.418 C 2.0058,3.422 2.0058,3.426 2.0059,3.4297 L 1.0059,10.4297 C 1.0019,10.453 0.9999,10.4765 0.9999,10.5 L 0.9999,11.0 C 0.993,12.6576 2.3435,14.0 4.0,14.0 C 5.6566,14.0 7.0,12.6796 7.0,11.0 L 7.0,10.5 C 7.0,10.2179 7.2179,10.0 7.5,10.0 C 7.7821,10.0 8.0,10.2179 8.0,10.5 L 8.0,11.0 C 8.0,12.6509 9.3491,14.0 11.0,14.0 C 12.6464,14.0 14.0001,12.6525 14.0001,11.0001 L 14.0001,10.5001 C 13.9998,10.4764 13.9981,10.4531 13.9941,10.4297 L 12.9941,3.4297 C 12.9931,3.4207 12.9921,3.4115 12.9901,3.4025 C 12.8528,2.7157 12.3497,2.1716 11.6893,2.0704 C 11.3591,2.0198 10.9898,2.1036 10.6932,2.3282 C 10.3967,2.5528 10.1735,2.8972 10.0253,3.3419 C 9.9378,3.604 10.0795,3.8875 10.3417,3.9747 C 10.6038,4.0622 10.8872,3.9205 10.9745,3.6583 C 11.0762,3.353 11.2025,3.1984 11.2967,3.1271 C 11.3909,3.0557 11.4545,3.0461 11.537,3.0587 C 11.7019,3.084 11.9482,3.2904 12.0096,3.5977 L 12.7147,8.543 C 12.228,8.2017 11.6368,8.0 11.0,8.0 C 9.9484,8.0 9.0184,8.5471 8.4824,9.3711 C 8.2183,9.1403 7.8746,9.0 7.5,9.0 C 7.1254,9.0 6.7817,9.1403 6.5176,9.3711 C 5.9816,8.5471 5.0516,8.0 4.0,8.0 C 3.3632,8.0 2.772,8.2017 2.2852,8.543 L 2.9941,3.5703 L 2.9941,3.582 C 3.0441,3.2819 3.2792,3.0821 3.4492,3.0566 C 3.5342,3.0439 3.6024,3.0546 3.6992,3.1269 C 3.7961,3.1996 3.9241,3.3543 4.0254,3.6582 C 4.1126,3.9204 4.3961,4.0621 4.6582,3.9746 C 4.9204,3.8874 5.0622,3.6039 4.9746,3.3418 C 4.8259,2.8956 4.5998,2.5504 4.3008,2.3261 C 3.9993,2.1 3.6846,2.0064 3.3008,2.0683 L 3.3008,2.0683 M 4.0,9.0 C 5.1105,9.0 6.0,9.8895 6.0,11.0 C 6.0,12.1105 5.1105,13.0 4.0,13.0 C 2.8895,13.0 2.0,12.1105 2.0,11.0 C 2.0,9.8895 2.8895,9.0 4.0,9.0 M 11.0,9.0 C 12.1105,9.0 13.0,9.8895 13.0,11.0 C 13.0,12.1105 12.1105,13.0 11.0,13.0 C 9.8895,13.0 9.0,12.1105 9.0,11.0 C 9.0,9.8895 9.8895,9.0 11.0,9.0" fill="#000" /></svg>