<svg xmlns="http://www.w3.org/2000/svg" width="16" height="16"><path d="M 6.5,2.0 C 6.223,2.0 6.0,2.224 6.0,2.5 L 6.0,4.5 C 6.0,4.776 6.223,4.999 6.499,5.0 L 8.5,5.0 C 8.777,4.999 9.0,4.776 9.0,4.5 L 9.0,2.501 C 9.0,2.224 8.777,2.0 8.501,2.0 L 6.5,2.0 M 10.5,6.0 C 10.223,6.001 10.0,6.224 10.0,6.5 L 10.0,8.5 C 10.0,8.776 10.223,9.0 10.499,9.0 L 12.5,9.0 C 12.777,9.0 13.0,8.776 13.0,8.5 L 13.0,6.501 C 13.0,6.224 12.777,6.001 12.501,6.0 L 10.5,6.0 M 2.5,10.0 C 2.223,10.0 2.0,10.224 2.0,10.5 L 2.0,12.5 C 2.0,12.776 2.223,13.0 2.499,13.0 L 4.5,13.0 C 4.777,13.0 5.0,12.776 5.0,12.5 L 5.0,10.501 C 5.0,10.224 4.777,10.0 4.501,10.0 L 2.5,10.0 M 6.5,10.0 C 6.223,10.0 6.0,10.224 6.0,10.5 L 6.0,12.5 C 6.0,12.776 6.223,13.0 6.499,13.0 L 8.5,13.0 C 8.777,13.0 9.0,12.776 9.0,12.5 L 9.0,10.501 C 9.0,10.224 8.777,10.0 8.501,10.0 L 6.5,10.0 M 10.5,10.0 C 10.223,10.0 10.0,10.224 10.0,10.5 L 10.0,12.5 C 10.0,12.776 10.223,13.0 10.499,13.0 L 12.5,13.0 C 12.777,13.0 13.0,12.776 13.0,12.5 L 13.0,10.501 C 13.0,10.224 12.777,10.0 12.501,10.0 L 10.5,10.0" fill="#000" /></svg>