<svg xmlns="http://www.w3.org/2000/svg" width="16" height="16"><path d="M 6.0,2.5 C 6.0,2.2239 6.2239,2.0 6.5,2.0 L 8.5,2.0 C 8.7761,2.0 9.0,2.2239 9.0,2.5 L 9.0,4.5 C 9.0,4.7761 8.7761,5.0 8.5,5.0 L 6.5,5.0 C 6.2239,5.0 6.0,4.7761 6.0,4.5 C 6.0,4.5 6.0,2.5 6.0,2.5 M 10.0,6.5 C 10.0,6.2239 10.2239,6.0 10.5,6.0 L 12.5,6.0 C 12.7761,6.0 13.0,6.2239 13.0,6.5 L 13.0,8.5 C 13.0,8.7761 12.7761,9.0 12.5,9.0 L 10.5,9.0 C 10.2239,9.0 10.0,8.7761 10.0,8.5 C 10.0,8.5 10.0,6.5 10.0,6.5 M 2.0,10.5 C 2.0,10.2239 2.2239,10.0 2.5,10.0 L 4.5,10.0 C 4.7761,10.0 5.0,10.2239 5.0,10.5 L 5.0,12.5 C 5.0,12.7761 4.7761,13.0 4.5,13.0 L 2.5,13.0 C 2.2239,13.0 2.0,12.7761 2.0,12.5 C 2.0,12.5 2.0,10.5 2.0,10.5 M 6.0,10.5 C 6.0,10.2239 6.2239,10.0 6.5,10.0 L 8.5,10.0 C 8.7761,10.0 9.0,10.2239 9.0,10.5 L 9.0,12.5 C 9.0,12.7761 8.7761,13.0 8.5,13.0 L 6.5,13.0 C 6.2239,13.0 6.0,12.7761 6.0,12.5 C 6.0,12.5 6.0,10.5 6.0,10.5 M 10.0,10.5 C 10.0,10.2239 10.2239,10.0 10.5,10.0 L 12.5,10.0 C 12.7761,10.0 13.0,10.2239 13.0,10.5 L 13.0,12.5 C 13.0,12.7761 12.7761,13.0 12.5,13.0 L 10.5,13.0 C 10.2239,13.0 10.0,12.7761 10.0,12.5 C 10.0,12.5 10.0,10.5 10.0,10.5" fill="#000" /></svg>