<svg xmlns="http://www.w3.org/2000/svg" width="16" height="16"><path d="M 10.0645,1.6738 A 0.5,0.5 0.0 0,0 9.5664,1.9199 A 0.5,0.5 0.0 0,0 9.75,2.6035 C 11.9074,3.8491 12.6421,6.5926 11.3965,8.75 C 10.5682,10.1846 9.0773,10.9895 7.5371,11.0019 A 0.5,0.5 0.0 0,0 7.5,11.0 A 0.5,0.5 0.0 0,0 7.4805,11.002 C 6.7229,10.999 5.9552,10.8037 5.25,10.3965 A 0.5,0.5 0.0 0,0 4.5664,10.5801 A 0.5,0.5 0.0 0,0 4.75,11.2637 C 5.4625,11.6751 6.2295,11.9077 7.0,11.9766 L 7.0,13.0 L 4.5,13.0 A 0.5,0.5 0.0 0,0 4.0,13.5 A 0.5,0.5 0.0 0,0 4.5,14.0 L 10.5,14.0 A 0.5,0.5 0.0 0,0 11.0,13.5 A 0.5,0.5 0.0 0,0 10.5,13.0 L 8.0,13.0 L 8.0,11.9727 C 9.7181,11.8128 11.3377,10.8538 12.2637,9.25 C 13.7795,6.6245 12.8755,3.2522 10.25,1.7363 A 0.5,0.5 0.0 0,0 10.0645,1.6738 M 7.5,3.0 A 3.5,3.5 0.0 0,0 4.0,6.5 A 3.5,3.5 0.0 0,0 7.5,10.0 A 3.5,3.5 0.0 0,0 11.0,6.5 A 3.5,3.5 0.0 0,0 7.5,3.0" fill="#000" /></svg>