<svg xmlns="http://www.w3.org/2000/svg" width="16" height="16"><path d="M 9.5664,1.9199 C 9.428,2.1594 9.5103,2.4656 9.75,2.6035 C 11.9074,3.8491 12.6421,6.5926 11.3965,8.75 C 10.5682,10.1847 9.0773,10.9895 7.5371,11.0019 C 7.5248,11.0009 7.5124,10.9999 7.5,10.9999 C 7.493,11.0005 7.487,11.001 7.4805,11.0019 C 6.7229,10.9989 5.9552,10.8036 5.25,10.3965 C 5.0106,10.2581 4.7043,10.3404 4.5664,10.5801 C 4.4281,10.8195 4.5103,11.1258 4.75,11.2637 C 5.4625,11.675 6.2296,11.9077 7.0,11.9766 L 7.0,12.5 C 7.0,13.0 6.5,13.0 6.0,13.0 L 4.5,13.0 C 4.2239,13.0 4.0,13.2239 4.0,13.5 C 4.0,13.7761 4.2239,14.0 4.5,14.0 L 10.5,14.0 C 10.7762,14.0 11.0,13.7761 11.0,13.5 C 11.0,13.2239 10.7762,13.0 10.5,13.0 L 9.0,13.0 C 8.5,13.0 8.0,13.0 8.0,12.5 L 8.0,11.9727 C 9.7181,11.8128 11.3377,10.8538 12.2637,9.25 C 13.7795,6.6245 12.8755,3.2522 10.25,1.7363 C 10.0241,1.6064 9.7112,1.6686 9.5664,1.9199 L 9.5664,1.9199 M 7.5,3.0 C 5.567,3.0 4.0,4.567 4.0,6.5 C 4.0,8.433 5.567,10.0 7.5,10.0 C 9.433,10.0 11.0,8.433 11.0,6.5 C 11.0,4.567 9.433,3.0 7.5,3.0" fill="#000" /></svg>