<svg xmlns="http://www.w3.org/2000/svg" width="16" height="16"><path d="M 3.0,2.5 L 3.0,13.5 C 3.0,13.7761 3.2239,14.0 3.5,14.0 C 3.7761,14.0 4.0,13.7761 4.0,13.5 L 4.0,6.8398 L 8.6856,4.9648 C 9.1065,4.7979 9.1065,4.2021 8.6856,4.0352 L 3.6856,2.0352 C 3.3739,1.9107 2.9997,2.1314 3.0,2.5 M 9.5,11.0 C 8.6265,11.0 7.836,11.1133 7.2207,11.3184 C 6.9131,11.4209 6.6471,11.5443 6.4258,11.7188 C 6.2044,11.8932 6.0,12.1593 6.0,12.5 C 6.0,12.8407 6.2044,13.1068 6.4258,13.2812 C 6.6471,13.4557 6.9131,13.5791 7.2207,13.6816 C 7.836,13.8867 8.6265,14.0 9.5,14.0 C 10.3735,14.0 11.164,13.8867 11.7793,13.6816 C 12.0869,13.5791 12.3529,13.4557 12.5742,13.2812 C 12.7956,13.1068 13.0,12.8407 13.0,12.5 C 13.0,12.1593 12.7956,11.8932 12.5742,11.7188 C 12.3529,11.5443 12.0869,11.4209 11.7793,11.3184 C 11.164,11.1133 10.3735,11.0 9.5,11.0" fill="#000" /></svg>