<svg xmlns="http://www.w3.org/2000/svg" width="16" height="16"><path d="M 13.5,2.0 C 13.2239,2.0 13.0,2.2239 13.0,2.5 L 13.0,7.0 A 1.0,1.0 135.0 0,1 12.0,8.0 L 8.5,8.0 C 7.5245,8.0003 6.8088,8.9168 7.0449,9.8633 L 7.5449,11.8633 C 7.7508,12.6857 8.5969,13.1742 9.4121,12.9414 L 12.9121,11.9414 C 13.5557,11.7575 13.9996,11.1694 14.0,10.5 L 14.0,2.5 C 14.0,2.2239 13.7761,2.0 13.5,2.0 L 13.5,2.0 M 4.0,6.0 C 2.8954,6.0 2.0,6.8954 2.0,8.0 C 2.0,9.1046 2.8954,10.0 4.0,10.0 C 5.1046,10.0 6.0,9.1046 6.0,8.0 C 6.0,6.8954 5.1046,6.0 4.0,6.0 M 2.5,11.0 C 2.2269,11.004 2.0078,11.2269 2.0078,11.5 C 2.0078,11.7731 2.2269,11.9957 2.5,12.0 C 2.8326,12.0 3.033,12.0764 3.1934,12.2637 C 3.3537,12.4509 3.5,12.8212 3.5,13.5 C 3.509,14.1573 4.4907,14.1573 4.5,13.5 C 4.5,12.8056 4.6274,12.4228 4.7656,12.25 C 4.9039,12.0772 5.0833,12.0 5.5,12.0 C 5.7731,11.996 5.9922,11.7731 5.9922,11.5 C 5.9922,11.2269 5.7731,11.0043 5.5,11.0 L 2.5,11.0" fill="#000" /></svg>