<svg xmlns="http://www.w3.org/2000/svg" width="16" height="16"><path d="M 7.0,1.0 L 7.0,4.0352 A 3.5,3.5 0.0 0,0 4.0352,7.0 L 3.5,7.0 C 3.223,7.0 3.0,7.223 3.0,7.5 C 3.0,7.777 3.223,8.0 3.5,8.0 L 11.5,8.0 C 11.777,8.0 12.0,7.777 12.0,7.5 C 12.0,7.223 11.777,7.0 11.5,7.0 L 10.9648,7.0 A 3.5,3.5 0.0 0,0 8.0,4.0352 L 8.0,3.0 L 11.0,3.0 L 11.0,1.0 L 7.0,1.0 M 4.0,9.0 L 4.0,13.0 L 3.5,13.0 C 3.223,13.0 3.0,13.223 3.0,13.5 C 3.0,13.777 3.223,14.0 3.5,14.0 L 11.5,14.0 C 11.777,14.0 12.0,13.777 12.0,13.5 C 12.0,13.223 11.777,13.0 11.5,13.0 L 10.9492,13.0 L 10.9492,9.0 L 4.0,9.0 M 5.5,10.0 C 5.777,10.0 6.0,10.223 6.0,10.5 L 6.0,13.0 L 5.0,13.0 L 5.0,10.5 C 5.0,10.223 5.223,10.0 5.5,10.0 M 7.4922,10.0 L 7.5078,10.0 C 7.7802,10.0 8.0,10.223 8.0,10.5 L 8.0,13.0 L 7.0,13.0 L 7.0,10.5 C 7.0,10.223 7.2198,10.0 7.4922,10.0 L 7.4922,10.0 M 9.5,10.0 C 9.777,10.0 10.0,10.223 10.0,10.5 L 10.0,13.0 L 9.0,13.0 L 9.0,10.5 C 9.0,10.223 9.223,10.0 9.5,10.0" fill="#000" /></svg>