<svg xmlns="http://www.w3.org/2000/svg" width="16" height="16"><path d="M 7.0,2.0 L 7.0,4.0547 A 2.5,2.5 0.0 0,1 7.5,4.0 A 2.5,2.5 0.0 0,1 8.0,4.0508 L 8.0,2.0 L 7.0,2.0 M 3.5,5.0 A 1.5,1.5 0.0 0,0 2.0,6.5 A 1.5,1.5 0.0 0,0 3.5,8.0 A 1.5,1.5 0.0 0,0 5.0,6.5 A 1.5,1.5 0.0 0,0 3.5,5.0 M 7.5,5.0 A 1.5,1.5 0.0 0,0 6.0,6.5 A 1.5,1.5 0.0 0,0 7.5,8.0 A 1.5,1.5 0.0 0,0 9.0,6.5 A 1.5,1.5 0.0 0,0 7.5,5.0 M 11.5,5.0 A 1.5,1.5 0.0 0,0 10.0,6.5 A 1.5,1.5 0.0 0,0 11.5,8.0 A 1.5,1.5 0.0 0,0 13.0,6.5 A 1.5,1.5 0.0 0,0 11.5,5.0 M 5.5,8.0 A 1.5,1.5 0.0 0,0 4.0,9.5 A 1.5,1.5 0.0 0,0 5.5,11.0 A 1.5,1.5 0.0 0,0 7.0,9.5 A 1.5,1.5 0.0 0,0 5.5,8.0 M 9.5,8.0 A 1.5,1.5 0.0 0,0 8.0,9.5 A 1.5,1.5 0.0 0,0 9.5,11.0 A 1.5,1.5 0.0 0,0 11.0,9.5 A 1.5,1.5 0.0 0,0 9.5,8.0 M 7.5,11.0 A 1.5,1.5 0.0 0,0 6.0,12.5 A 1.5,1.5 0.0 0,0 7.5,14.0 A 1.5,1.5 0.0 0,0 9.0,12.5 A 1.5,1.5 0.0 0,0 7.5,11.0" fill="#000" /></svg>