<svg xmlns="http://www.w3.org/2000/svg" width="16" height="16"><path d="M 7.5,3.0 C 7.223,3.0 7.0,3.223 7.0,3.5 L 7.0,6.5 C 7.0,6.777 7.223,7.0 7.5,7.0 C 7.777,7.0 8.0,6.777 8.0,6.5 L 8.0,3.5 C 8.0,3.223 7.777,3.0 7.5,3.0 M 5.5,7.0 A 1.5,1.5 0.0 0,0 4.0,8.5 A 1.5,1.5 0.0 0,0 5.5,10.0 A 1.5,1.5 0.0 0,0 7.0,8.5 A 1.5,1.5 0.0 0,0 5.5,7.0 M 9.5,7.0 A 1.5,1.5 0.0 0,0 8.0,8.5 A 1.5,1.5 0.0 0,0 9.5,10.0 A 1.5,1.5 0.0 0,0 11.0,8.5 A 1.5,1.5 0.0 0,0 9.5,7.0 M 7.5,10.0 A 1.5,1.5 0.0 0,0 6.0,11.5 A 1.5,1.5 0.0 0,0 7.5,13.0 A 1.5,1.5 0.0 0,0 9.0,11.5 A 1.5,1.5 0.0 0,0 7.5,10.0" fill="#000" /></svg>