<svg xmlns="http://www.w3.org/2000/svg" width="16" height="16"><path d="M 6.5,3.0 C 6.223,3.0 6.0,3.224 6.0,3.5 L 6.0,6.0 L 3.5,6.0 C 3.223,6.001 3.0,6.224 3.0,6.5 L 3.0,9.5 C 3.0,9.776 3.223,10.0 3.499,10.0 L 6.0,10.0 L 6.0,12.5 C 6.0,12.776 6.223,13.0 6.499,13.0 L 9.5,13.0 C 9.777,13.0 10.0,12.776 10.0,12.5 L 10.0,10.0 L 12.5,10.0 C 12.777,10.0 13.0,9.776 13.0,9.5 L 13.0,6.501 C 13.0,6.224 12.777,6.001 12.501,6.0 L 10.0,6.0 L 10.0,3.501 C 10.0,3.224 9.777,3.0 9.501,3.0 L 6.5,3.0" fill="#000" /></svg>