<svg xmlns="http://www.w3.org/2000/svg" width="16" height="16"><path d="M 13.0,6.5 L 13.0,9.5 C 13.0,9.7761 12.7761,10.0 12.5,10.0 L 10.0,10.0 L 10.0,12.5 C 10.0,12.7761 9.7761,13.0 9.5,13.0 L 6.5,13.0 C 6.2239,13.0 6.0,12.7761 6.0,12.5 L 6.0,10.0 L 3.5,10.0 C 3.2239,10.0 3.0,9.7761 3.0,9.5 L 3.0,6.5 C 3.0,6.2239 3.2239,6.0 3.5,6.0 L 6.0,6.0 L 6.0,3.5 C 6.0,3.2239 6.2239,3.0 6.5,3.0 L 9.5,3.0 C 9.7761,3.0 10.0,3.2239 10.0,3.5 L 10.0,6.0 L 12.5,6.0 C 12.7761,6.0 13.0,6.2239 13.0,6.5" fill="#000" /></svg>