<svg xmlns="http://www.w3.org/2000/svg" width="16" height="16"><path d="M 2.5,2.0 C 2.223,2.0 2.0,2.224 2.0,2.5 L 2.0,12.5 C 2.0,12.776 2.223,13.0 2.499,13.0 L 12.5,13.0 C 12.777,13.0 13.0,12.776 13.0,12.5 L 13.0,2.501 C 13.0,2.224 12.777,2.0 12.501,2.0 L 2.5,2.0 M 6.0,4.5 C 6.0,4.224 6.223,4.001 6.499,4.0 L 8.5,4.0 C 8.777,4.001 9.0,4.224 9.0,4.5 L 9.0,6.0 L 10.5,6.0 C 10.777,6.001 11.0,6.224 11.0,6.5 L 11.0,8.5 C 11.0,8.776 10.777,9.0 10.501,9.0 L 9.0,9.0 L 9.0,10.5 C 9.0,10.776 8.777,11.0 8.501,11.0 L 6.5,11.0 C 6.223,11.0 6.0,10.776 6.0,10.5 L 6.0,9.0 L 4.5,9.0 C 4.223,9.0 4.0,8.776 4.0,8.5 L 4.0,6.501 C 4.0,6.224 4.223,6.001 4.499,6.0 L 6.0,6.0 L 6.0,4.5" fill="#000" /></svg>