<svg xmlns="http://www.w3.org/2000/svg" width="16" height="16"><path d="M 7.5,2.0 C 7.223,2.0 7.0,2.223 7.0,2.5 L 7.0,3.0 L 9.0,3.0 L 9.0,2.5 C 9.0,2.223 8.777,2.0 8.5,2.0 L 7.5,2.0 M 4.5,4.0 C 4.2239,4.0 4.0,4.2239 4.0,4.5 L 4.0,6.5 C 4.0,6.7761 4.2239,7.0 4.5,7.0 L 11.5,7.0 C 11.5987,7.0 11.6952,6.9708 11.7773,6.916 L 13.2773,5.916 C 13.5741,5.7181 13.5741,5.2819 13.2773,5.084 L 11.7773,4.084 C 11.6952,4.0292 11.5987,4.0 11.5,4.0 L 4.5,4.0 M 7.0,8.0 L 7.0,13.5 C 7.0,13.777 7.223,14.0 7.5,14.0 L 8.5,14.0 C 8.777,14.0 9.0,13.777 9.0,13.5 L 9.0,8.0 L 7.0,8.0" fill="#000" /></svg>