<svg xmlns="http://www.w3.org/2000/svg" width="16" height="16"><path d="M 7.9746,1.0 C 6.9855,1.0121 6.0,1.816 6.0,3.0 C 6.0,3.2761 6.2239,3.5 6.5,3.5 C 6.7761,3.5 7.0,3.2761 7.0,3.0 C 7.0,2.545 7.3007,2.151 7.7402,2.0332 C 8.1798,1.9154 8.6377,2.1059 8.8652,2.5 C 9.0913,2.8916 9.0295,3.3793 8.7129,3.7012 C 8.7109,3.7032 8.709,3.7052 8.707,3.7072 C 8.3906,4.012 8.1213,4.2458 7.8984,4.5099 C 7.7229,4.7178 7.5721,4.9749 7.5195,5.2638 C 6.6587,6.0361 5.464,6.2764 4.3418,6.6505 C 3.7529,6.8468 3.1762,7.0856 2.7246,7.5372 C 2.273,7.9887 2.0,8.6528 2.0,9.5 L 2.0,10.5 C 2.0,10.7761 2.2239,11.0 2.5,11.0 C 2.7761,11.0 3.0,10.7761 3.0,10.5 L 3.0,10.0 L 5.0,10.0 L 5.0,13.5 C 5.0,13.7761 5.2239,14.0 5.5,14.0 L 10.5,14.0 C 10.7761,14.0 11.0,13.7761 11.0,13.5 L 11.0,10.0 L 13.0,10.0 L 13.0,10.5 C 13.0,10.7761 13.2239,11.0 13.5,11.0 C 13.7761,11.0 14.0,10.7761 14.0,10.5 L 14.0,9.5 C 14.0,8.6528 13.727,7.9887 13.2754,7.5371 C 12.8238,7.0855 12.2471,6.8467 11.6582,6.6504 C 10.5623,6.2851 9.3967,6.0483 8.541,5.3184 C 8.5654,5.2754 8.6029,5.2245 8.6621,5.1543 C 8.8073,4.9824 9.0718,4.7443 9.4082,4.4199 C 9.417,4.4109 9.4255,4.402 9.4336,4.3926 C 10.0543,3.7536 10.179,2.7735 9.7324,2.0 C 9.3657,1.3648 8.6846,0.992 7.9746,1.0 L 7.9746,1.0 M 8.0,6.0742 C 9.0805,6.9575 10.3709,7.276 11.3418,7.5996 C 11.8779,7.7783 12.3012,7.977 12.5684,8.2441 C 12.7564,8.4322 12.8923,8.6574 12.957,9.0 L 11.0,9.0 L 11.0,8.5 C 11.0,8.2239 10.7761,8.0 10.5,8.0 L 5.5,8.0 C 5.2239,8.0 5.0,8.2239 5.0,8.5 L 5.0,9.0 L 3.043,9.0 C 3.1077,8.6573 3.2436,8.4322 3.4316,8.2441 C 3.6988,7.977 4.1221,7.7783 4.6582,7.5996 C 5.6291,7.276 6.9195,6.9575 8.0,6.0742" fill="#000" /></svg>