<svg xmlns="http://www.w3.org/2000/svg" width="16" height="16"><path d="M 7.5,2.0 C 5.6548,2.0 4.2666,2.5346 3.3477,3.3828 C 2.4378,4.2227 2.0103,5.3525 2.0019,6.4668 C 2.0019,6.4779 2.0,6.4889 2.0,6.5 C 2.0,6.5108 2.0019,6.5205 2.0019,6.5312 C 2.0234,11.8407 7.3144,13.9648 7.3144,13.9648 C 7.4336,14.0124 7.5664,14.0124 7.6855,13.9648 C 7.6855,13.9648 12.9766,11.8407 12.998,6.5312 C 12.9981,6.5204 13.0,6.5108 13.0,6.5 C 13.0,6.4892 12.998,6.4777 12.998,6.4668 C 12.9879,5.5568 12.5585,4.4765 11.666,3.584 C 10.7629,2.6808 9.3691,2.0 7.5,2.0 M 7.5,6.0586 L 9.2773,6.9473 C 9.4376,7.0271 9.6283,7.0152 9.7773,6.9161 L 11.0,6.1016 L 11.9961,6.7637 L 11.9961,6.7657 C 11.8358,11.0517 7.8362,12.7731 7.5,12.9141 C 7.1638,12.7731 3.1642,11.0517 3.0039,6.7657 C 3.0039,6.765 3.0039,6.7647 3.0039,6.7637 L 4.0,6.1016 L 5.2227,6.916 C 5.3717,7.0152 5.5624,7.0271 5.7227,6.9472 L 7.5,6.0586" fill="#000" /></svg>