<svg xmlns="http://www.w3.org/2000/svg" width="16" height="16"><path d="M 5.0,1.0 C 4.446,1.0 4.0,1.446 4.0,2.0 L 4.0,13.0 C 4.0,13.554 4.446,14.0 5.0,14.0 L 11.0,14.0 C 11.554,14.0 12.0,13.554 12.0,13.0 L 12.0,2.0 C 12.0,1.446 11.554,1.0 11.0,1.0 L 5.0,1.0 M 8.0,3.0 A 1.0,1.0 0.0 0,1 9.0,4.0 A 1.0,1.0 0.0 0,1 8.0,5.0 A 1.0,1.0 0.0 0,1 7.0,4.0 A 1.0,1.0 0.0 0,1 8.0,3.0 M 8.0,7.0 A 3.0002,3.0013 0.0 0,1 11.0,10.002 A 3.0002,3.0013 0.0 0,1 8.0,13.002 A 3.0002,3.0013 0.0 0,1 5.0,10.002 A 3.0002,3.0013 0.0 0,1 8.0,7.0 M 8.0,9.0 A 1.0,1.0 0.0 0,0 7.0,10.0 A 1.0,1.0 0.0 0,0 8.0,11.0 A 1.0,1.0 0.0 0,0 9.0,10.0 A 1.0,1.0 0.0 0,0 8.0,9.0" fill="#000" /></svg>