<svg xmlns="http://www.w3.org/2000/svg" width="16" height="16"><path d="M 5.0,1.0 C 4.447,1.0 4.0,1.448 4.0,2.0 L 4.0,13.0 C 4.0,13.552 4.447,14.0 4.998,14.0 L 11.0,14.0 C 11.553,14.0 12.0,13.552 12.0,13.0 L 12.0,2.0 C 12.0,1.448 11.553,1.0 11.002,1.0 L 5.0,1.0 M 7.0,4.0 C 7.0,3.448 7.448,3.0 8.0,3.0 C 8.552,3.0 9.0,3.448 9.0,4.0 C 9.0,4.552 8.552,5.0 8.0,5.0 C 7.448,5.0 7.0,4.552 7.0,4.0 M 5.0,10.0 C 5.0,8.343 6.343,7.0 8.0,7.0 C 9.657,7.0 11.0,8.343 11.0,10.0 C 11.0,11.657 9.657,13.0 8.0,13.0 C 6.343,13.0 5.0,11.657 5.0,10.0 M 8.0,9.0 C 7.448,9.0 7.0,9.448 7.0,10.0 C 7.0,10.552 7.448,11.0 8.0,11.0 C 8.552,11.0 9.0,10.552 9.0,10.0 C 9.0,9.448 8.552,9.0 8.0,9.0" fill="#000" /></svg>