<svg xmlns="http://www.w3.org/2000/svg" width="16" height="16"><path d="M 12.0,2.0 L 12.0,13.0 C 12.0,13.5523 11.5523,14.0 11.0,14.0 L 5.0,14.0 C 4.4477,14.0 4.0,13.5523 4.0,13.0 L 4.0,2.0 C 4.0,1.4477 4.4477,1.0 5.0,1.0 L 11.0,1.0 C 11.5523,1.0 12.0,1.4477 12.0,2.0 M 8.0,5.0 C 8.5523,5.0 9.0,4.5523 9.0,4.0 C 9.0,3.4477 8.5523,3.0 8.0,3.0 C 7.4477,3.0 7.0,3.4477 7.0,4.0 C 7.0,4.5523 7.4477,5.0 8.0,5.0 M 8.0,13.0 C 9.6569,13.0 11.0,11.6569 11.0,10.0 C 11.0,8.3431 9.6569,7.0 8.0,7.0 C 6.3431,7.0 5.0,8.3431 5.0,10.0 C 5.0,11.6569 6.3431,13.0 8.0,13.0 M 7.0,10.0 C 7.0,9.4477 7.4477,9.0 8.0,9.0 C 8.5523,9.0 9.0,9.4477 9.0,10.0 C 9.0,10.5523 8.5523,11.0 8.0,11.0 C 7.4477,11.0 7.0,10.5523 7.0,10.0" fill="#000" /></svg>