<svg xmlns="http://www.w3.org/2000/svg" width="16" height="16"><path d="M 5.0,2.0 C 4.446,2.0 4.0,2.446 4.0,3.0 L 4.0,13.0 C 4.0,13.554 4.446,14.0 5.0,14.0 L 11.0,14.0 C 11.554,14.0 12.0,13.554 12.0,13.0 L 12.0,3.0 C 12.0,2.446 11.554,2.0 11.0,2.0 L 5.0,2.0 M 8.0,3.8594 A 1.1407,1.1407 0.0 0,1 9.1406,5.0 A 1.1407,1.1407 0.0 0,1 8.0,6.1406 A 1.1407,1.1407 0.0 0,1 6.8594,5.0 A 1.1407,1.1407 0.0 0,1 8.0,3.8594 M 8.041,7.1719 A 2.8284,2.8284 0.0 0,1 10.0,8.0 A 2.8284,2.8284 0.0 0,1 10.0,12.0 A 2.8284,2.8284 0.0 0,1 6.0,12.0 A 2.8284,2.8284 0.0 0,1 6.0,8.0 A 2.8284,2.8284 0.0 0,1 8.041,7.1719 L 8.041,7.1719 M 8.0,8.8594 A 1.1407,1.1407 0.0 0,0 6.8594,10.0 A 1.1407,1.1407 0.0 0,0 8.0,11.1406 A 1.1407,1.1407 0.0 0,0 9.1406,10.0 A 1.1407,1.1407 0.0 0,0 8.0,8.8594" fill="#000" /></svg>