<svg xmlns="http://www.w3.org/2000/svg" width="16" height="16"><path d="M 2.5859,2.5859 C 2.0139,3.1579 1.8428,4.0182 2.1523,4.7656 C 2.462,5.5128 3.1912,6.0 4.0,6.0 L 5.0,6.0 L 5.0,10.0 L 4.0,10.0 C 3.1912,10.0 2.462,10.4872 2.1523,11.2344 C 1.8428,11.9818 2.0139,12.8421 2.5859,13.4141 C 3.1579,13.9861 4.0182,14.1573 4.7656,13.8477 C 5.5128,13.538 6.0,12.8088 6.0,12.0 L 6.0,11.0 L 10.0,11.0 L 10.0,12.0 C 10.0,12.8088 10.4872,13.538 11.2344,13.8477 C 11.9818,14.1573 12.8421,13.9861 13.4141,13.4141 C 13.9861,12.8421 14.1572,11.9818 13.8477,11.2344 C 13.538,10.4872 12.8088,10.0 12.0,10.0 L 11.0,10.0 L 11.0,6.0 L 12.0,6.0 C 12.8088,6.0 13.538,5.5128 13.8477,4.7656 C 14.1572,4.0182 13.9861,3.1579 13.4141,2.5859 C 12.8207,1.9924 11.9506,1.8555 11.2344,2.1523 C 10.4872,2.462 10.0,3.1912 10.0,4.0 L 10.0,5.0 L 6.0,5.0 L 6.0,4.0 C 6.0,3.1912 5.5128,2.462 4.7656,2.1523 C 4.0534,1.857 3.1822,1.9894 2.5859,2.5859 M 4.0,3.0 C 4.5523,3.0 5.0,3.4477 5.0,4.0 L 5.0,5.0 L 4.0,5.0 C 3.4477,5.0 3.0,4.5523 3.0,4.0 C 3.0,3.4477 3.4477,3.0 4.0,3.0 M 12.0,3.0 C 12.5523,3.0 13.0,3.4477 13.0,4.0 C 13.0,4.5523 12.5523,5.0 12.0,5.0 L 11.0,5.0 L 11.0,4.0 C 11.0,3.4477 11.4477,3.0 12.0,3.0 M 6.0,6.0 L 10.0,6.0 L 10.0,10.0 L 6.0,10.0 L 6.0,6.0 M 4.0,11.0 L 5.0,11.0 L 5.0,12.0 C 5.0,12.5523 4.5523,13.0 4.0,13.0 C 3.4477,13.0 3.0,12.5523 3.0,12.0 C 3.0,11.4477 3.4477,11.0 4.0,11.0 M 11.0,11.0 L 12.0,11.0 C 12.5523,11.0 13.0,11.4477 13.0,12.0 C 13.0,12.5523 12.5523,13.0 12.0,13.0 C 11.4477,13.0 11.0,12.5523 11.0,12.0 L 11.0,11.0" fill="#000" /></svg>