<svg xmlns="http://www.w3.org/2000/svg" width="16" height="16"><path d="M 4.5,4.0 C 3.8333,4.0 3.2251,4.3179 2.7715,4.7715 C 2.3179,5.2251 2.0,5.8333 2.0,6.5 A 0.5,0.5 0.0 0,0 2.5,7.0 A 0.5,0.5 0.0 0,0 3.0,6.5 C 3.0,6.1667 3.1821,5.7749 3.4785,5.4785 C 3.6336,5.3234 3.8148,5.2 4.0,5.1172 L 4.0,8.0606 C 3.5314,8.1729 3.1087,8.4343 2.7715,8.7715 C 2.3179,9.2251 2.0,9.8333 2.0,10.5 A 0.5,0.5 0.0 0,0 2.5,11.0 A 0.5,0.5 0.0 0,0 3.0,10.5 C 3.0,10.1667 3.1821,9.7749 3.4785,9.4785 C 3.7749,9.1821 4.1667,9.0 4.5,9.0 L 10.5,9.0 C 10.8333,9.0 11.2251,9.1821 11.5215,9.4785 C 11.8179,9.7749 12.0,10.1667 12.0,10.5 A 0.5,0.5 0.0 0,0 12.5,11.0 A 0.5,0.5 0.0 0,0 13.0,10.5 C 13.0,9.8333 12.6821,9.2251 12.2285,8.7715 C 11.8913,8.4343 11.4686,8.1729 11.0,8.0606 L 11.0,5.1172 C 11.1852,5.2 11.3664,5.3234 11.5215,5.4785 C 11.8179,5.7749 12.0,6.1667 12.0,6.5 A 0.5,0.5 0.0 0,0 12.5,7.0 A 0.5,0.5 0.0 0,0 13.0,6.5 C 13.0,5.8333 12.6821,5.2251 12.2285,4.7715 C 11.7749,4.3179 11.1667,4.0 10.5,4.0 L 4.5,4.0 M 5.0,5.0 L 7.0,5.0 L 7.0,8.0 L 5.0,8.0 L 5.0,5.0 M 8.0,5.0 L 10.0,5.0 L 10.0,8.0 L 8.0,8.0 L 8.0,5.0" fill="#000" /></svg>