<svg xmlns="http://www.w3.org/2000/svg" width="16" height="16"><path d="M 1.5,3.0 C 1.223,3.0 1.0,3.223 1.0,3.5 C 1.0,3.777 1.223,4.0 1.5,4.0 L 2.0,4.0 L 2.0,9.0 L 1.5,9.0 C 1.223,9.0 1.0,9.223 1.0,9.5 C 1.0,9.777 1.223,10.0 1.5,10.0 L 13.5,10.0 C 13.777,10.0 14.0,9.777 14.0,9.5 C 14.0,9.223 13.777,9.0 13.5,9.0 L 11.0,9.0 L 11.0,4.0 L 13.5,4.0 C 13.777,4.0 14.0,3.777 14.0,3.5 C 14.0,3.223 13.777,3.0 13.5,3.0 L 1.5,3.0 M 3.5,5.0 L 5.5,5.0 C 5.777,5.0 6.0,5.223 6.0,5.5 L 6.0,6.5 C 6.0,6.777 5.777,7.0 5.5,7.0 L 3.5,7.0 C 3.223,7.0 3.0,6.777 3.0,6.5 L 3.0,5.5 C 3.0,5.223 3.223,5.0 3.5,5.0 M 7.5,5.0 L 9.5,5.0 C 9.777,5.0 10.0,5.223 10.0,5.5 L 10.0,6.5 C 10.0,6.777 9.777,7.0 9.5,7.0 L 7.5,7.0 C 7.223,7.0 7.0,6.777 7.0,6.5 L 7.0,5.5 C 7.0,5.223 7.223,5.0 7.5,5.0 M 2.6465,11.3965 C 2.2054,11.8376 1.8333,12.0 1.5,12.0 C 1.2239,12.0 1.0,12.2239 1.0,12.5 C 1.0,12.7761 1.2239,13.0 1.5,13.0 C 2.0394,13.0 2.5273,12.6558 3.0,12.2754 C 3.4696,12.6539 3.9564,13.0 4.5,13.0 C 5.0394,13.0 5.5273,12.6558 6.0,12.2754 C 6.4727,12.6558 6.9606,13.0 7.5,13.0 C 8.0394,13.0 8.5273,12.6558 9.0,12.2754 C 9.4696,12.6539 9.9564,13.0 10.5,13.0 C 11.0394,13.0 11.5273,12.6558 12.0,12.2754 C 12.4727,12.6558 12.9606,13.0 13.5,13.0 C 13.7761,13.0 14.0,12.7761 14.0,12.5 C 14.0,12.2239 13.7761,12.0 13.5,12.0 C 13.1667,12.0 12.7946,11.8376 12.3535,11.3965 C 12.1582,11.2013 11.8418,11.2013 11.6465,11.3965 C 11.2054,11.8376 10.8333,12.0 10.5,12.0 C 10.1718,12.0 9.7859,11.8289 9.3535,11.3965 C 9.1582,11.2013 8.8418,11.2013 8.6465,11.3965 C 8.2054,11.8376 7.8333,12.0 7.5,12.0 C 7.1667,12.0 6.7946,11.8376 6.3535,11.3965 C 6.1582,11.2013 5.8418,11.2013 5.6465,11.3965 C 5.2054,11.8376 4.8333,12.0 4.5,12.0 C 4.1718,12.0 3.7859,11.8289 3.3535,11.3965 C 3.1585,11.2015 2.8412,11.2017 2.6465,11.3965" fill="#000" /></svg>