<svg xmlns="http://www.w3.org/2000/svg" width="16" height="16"><path d="M 8.0,2.0 C 7.446,2.0 7.0,2.446 7.0,3.0 C 7.0,3.554 7.446,4.0 8.0,4.0 C 8.554,4.0 9.0,3.554 9.0,3.0 C 9.0,2.446 8.554,2.0 8.0,2.0 M 6.5,5.0 C 6.223,5.0 6.0,5.223 6.0,5.5 L 6.0,7.5 C 6.0,7.777 6.223,8.0 6.5,8.0 L 7.0,8.0 L 7.0,12.5 C 7.0,12.777 7.223,13.0 7.5,13.0 L 8.5,13.0 C 8.777,13.0 9.0,12.777 9.0,12.5 L 9.0,8.0 L 9.5,8.0 C 9.777,8.0 10.0,7.777 10.0,7.5 L 10.0,5.5 C 10.0,5.223 9.777,5.0 9.5,5.0 L 6.5,5.0" fill="#000" /></svg>