<svg xmlns="http://www.w3.org/2000/svg" width="16" height="16"><path d="M 8.0,6.0 C 6.3889,6.0 5.4785,6.5802 4.6758,7.0742 C 3.873,7.5682 3.1548,8.0 1.5,8.0 C 1.483,8.0005 1.466,8.002 1.4492,8.004 C 1.4,8.01 1.3519,8.0231 1.3066,8.0431 C 1.2913,8.0491 1.2763,8.0567 1.2617,8.0646 C 1.2176,8.089 1.1774,8.12 1.1426,8.1564 C 1.1316,8.1689 1.1211,8.182 1.1114,8.1955 C 1.1009,8.2087 1.0912,8.2223 1.0821,8.2365 C 1.0731,8.2504 1.0658,8.2648 1.0587,8.2795 C 1.0367,8.3245 1.0215,8.3726 1.0138,8.4221 C 1.0108,8.4389 1.0088,8.4559 1.0078,8.4729 C 1.0058,8.5061 1.0071,8.5395 1.0118,8.5725 C 1.0148,8.5889 1.0178,8.6052 1.0218,8.6213 C 1.0298,8.6536 1.0408,8.685 1.055,8.715 C 1.1056,8.8213 1.192,8.9064 1.2991,8.9552 C 1.3144,8.9622 1.3301,8.9677 1.346,8.9728 C 1.3777,8.9839 1.4104,8.9917 1.4437,8.9962 C 1.4624,8.9982 1.4812,9.0002 1.5,9.0002 L 14.5,9.0002 C 14.517,8.9998 14.534,8.9982 14.5508,8.9962 C 14.5672,8.9942 14.5835,8.9912 14.5996,8.9882 C 14.6649,8.9739 14.7267,8.9467 14.7813,8.9081 C 14.8088,8.8892 14.8343,8.8676 14.8575,8.8437 C 14.8685,8.8312 14.879,8.8182 14.8887,8.8046 C 14.9192,8.7648 14.9436,8.7207 14.961,8.6738 C 14.9726,8.6428 14.9811,8.6108 14.9864,8.5781 C 14.9894,8.5613 14.9914,8.5443 14.9924,8.5273 C 14.9932,8.511 14.9932,8.4948 14.9924,8.4785 C 14.9919,8.4615 14.9904,8.4445 14.9884,8.4277 C 14.9854,8.4113 14.9824,8.395 14.9784,8.3789 C 14.9704,8.3466 14.9594,8.3152 14.9452,8.2852 C 14.9382,8.2705 14.9303,8.2561 14.9218,8.2422 C 14.9128,8.2274 14.903,8.213 14.8925,8.1992 C 14.8728,8.173 14.8506,8.1488 14.8261,8.1269 C 14.8136,8.1159 14.8005,8.1054 14.787,8.0957 C 14.7731,8.0857 14.7588,8.0768 14.744,8.0684 C 14.7155,8.0518 14.6854,8.0381 14.6542,8.0274 C 14.6382,8.0224 14.6219,8.0174 14.6054,8.0137 C 14.5709,8.0057 14.5356,8.001 14.5,8.0003 C 12.8453,8.0003 12.127,7.5685 11.3242,7.0745 C 10.5215,6.5802 9.6111,6.0 8.0,6.0" fill="#000" /></svg>