<svg xmlns="http://www.w3.org/2000/svg" width="16" height="16"><path d="M 12.5,1.0 C 12.459,1.0 12.419,1.005 12.381,1.014 L 3.401,3.01 C 3.172,3.056 3.0,3.258 3.0,3.5 C 3.0,3.776 3.224,4.0 3.5,4.0 C 3.541,4.0 3.581,3.995 3.619,3.986 L 4.0,3.901 L 4.0,9.0 C 4.0,9.516 4.39,9.94 4.891,9.994 L 4.012,14.392 C 4.004,14.427 4.0,14.463 4.0,14.5 C 4.0,14.776 4.224,15.0 4.5,15.0 C 4.746,15.0 4.95,14.823 4.992,14.589 L 5.033,14.383 L 8.0,12.593 L 10.967,14.383 L 11.008,14.589 C 11.05,14.823 11.254,15.0 11.5,15.0 C 11.776,15.0 12.0,14.776 12.0,14.5 C 12.0,14.463 11.996,14.427 11.988,14.392 L 11.109,9.994 C 11.61,9.94 12.0,9.516 12.0,9.0 L 12.0,2.123 L 12.599,1.99 C 12.828,1.944 13.0,1.742 13.0,1.5 C 13.0,1.224 12.776,1.0 12.5,1.0 M 5.0,7.0 L 5.0,5.0 L 11.0,5.0 L 11.0,7.0 L 5.0,7.0 M 5.881,10.146 L 5.91,10.0 L 10.09,10.0 L 10.119,10.146 L 8.0,11.425 L 5.881,10.146 M 8.968,12.009 L 10.328,11.188 L 10.701,13.055 L 8.968,12.009 M 5.299,13.055 L 5.672,11.188 L 7.032,12.009 L 5.299,13.055" fill="#000" /></svg>