<svg xmlns="http://www.w3.org/2000/svg" width="16" height="16"><path d="M 12.5,1.0 C 12.7761,1.0 13.0,1.2239 13.0,1.5 C 13.0,1.7423 12.8277,1.9444 12.5989,1.9902 L 12.0,2.1233 L 12.0,9.0 C 12.0,9.5155 11.6099,9.94 11.1087,9.9942 L 11.9883,14.3918 C 11.9959,14.4267 12.0,14.4629 12.0,14.5 C 12.0,14.7761 11.7761,15.0 11.5,15.0 C 11.2542,15.0 11.0499,14.8227 11.0079,14.589 L 10.9666,14.3828 L 8.0,12.5926 L 5.0333,14.3828 L 4.9921,14.589 C 4.9501,14.8227 4.7458,15.0 4.5,15.0 C 4.2238,15.0 4.0,14.7761 4.0,14.5 C 4.0,14.4629 4.004,14.4267 4.0117,14.3918 L 4.8912,9.9942 C 4.3901,9.94 4.0,9.5156 4.0,9.0 L 4.0,3.9011 L 3.619,3.9858 C 3.5808,3.9951 3.541,4.0 3.5,4.0 C 3.2238,4.0 3.0,3.7761 3.0,3.5 C 3.0,3.2577 3.1723,3.0557 3.4011,3.0098 L 12.381,1.0143 C 12.4191,1.005 12.459,1.0 12.5,1.0 L 12.5,1.0 M 5.6723,11.188 L 5.299,13.0546 L 7.0323,12.0086 L 5.6723,11.188 M 10.0901,10.0 L 5.9099,10.0 L 5.8807,10.1458 L 8.0,11.4246 L 10.1192,10.1458 L 10.0901,10.0 M 10.701,13.0546 L 10.3277,11.188 L 8.9677,12.0086 L 10.701,13.0546 M 5.0,7.0 L 11.0,7.0 L 11.0,5.0 L 5.0,5.0 L 5.0,7.0" fill="#000" /></svg>