<svg xmlns="http://www.w3.org/2000/svg" width="16" height="16"><path d="M 12.3906,1.0117 L 3.3906,3.0117 C 3.1208,3.0719 2.9511,3.3397 3.0117,3.6094 C 3.0719,3.8792 3.3396,4.0489 3.6093,3.9883 L 4.0,3.9023 L 4.0,5.0 L 4.0,9.0 C 4.0,9.5167 4.3889,9.9396 4.8906,9.9941 L 4.0098,14.4023 C 3.9559,14.6731 4.1316,14.9362 4.4023,14.9902 C 4.6731,15.0441 4.9362,14.8684 4.9902,14.5977 L 5.1133,13.9844 C 5.1575,13.9754 5.2002,13.9601 5.2402,13.9395 L 8.0,12.4336 L 10.7598,13.9394 C 10.7999,13.96 10.8426,13.9751 10.8867,13.9843 L 11.0098,14.5976 C 11.0638,14.8683 11.3269,15.0441 11.5977,14.9902 C 11.8684,14.9362 12.0441,14.673 11.9902,14.4023 L 11.1094,9.9941 C 11.6111,9.9396 12.0,9.5167 12.0,9.0 L 12.0,5.0 L 12.0,2.123 L 12.6094,1.9883 C 12.8792,1.9281 13.0489,1.6603 12.9883,1.3906 C 12.9244,1.1069 12.6433,0.9558 12.3906,1.0117 L 12.3906,1.0117 M 5.0,5.0 L 11.0,5.0 L 11.0,7.0 L 5.0,7.0 L 5.0,5.0 M 5.9102,10.0 L 10.0898,10.0 L 10.1172,10.1387 L 8.0001,11.293 L 5.8829,10.1387 L 5.9102,10.0 M 5.6758,11.166 L 6.9551,11.8633 L 5.3633,12.7324 L 5.6758,11.166 M 10.3242,11.166 L 10.6367,12.7305 L 9.0469,11.8633 L 10.3242,11.166" fill="#000" /></svg>