<svg xmlns="http://www.w3.org/2000/svg" width="16" height="16"><path d="M 9.0,2.5 L 9.0,4.5 C 9.0,4.7761 8.7761,5.0 8.5,5.0 L 6.5,5.0 C 6.2239,5.0 6.0,4.7761 6.0,4.5 L 6.0,2.5 C 6.0,2.2239 6.2239,2.0 6.5,2.0 L 8.5,2.0 C 8.7761,2.0 9.0,2.2239 9.0,2.5 M 9.0,7.5 C 9.0,7.5 9.0,11.559 9.0,13.0 L 9.5,13.0 C 9.7761,13.0 10.0,13.2239 10.0,13.5 C 10.0,13.7761 9.7761,14.0 9.5,14.0 L 5.5,14.0 C 5.2239,14.0 5.0,13.7761 5.0,13.5 C 5.0,13.2239 5.2239,13.0 5.5,13.0 L 6.0,13.0 C 6.0,11.87 6.0,9.13 6.0,8.0 L 5.5,8.0 C 5.2239,8.0 5.0,7.7761 5.0,7.5 C 5.0,7.2239 5.2239,7.0 5.5,7.0 L 8.5,7.0 C 8.7761,7.0 9.0,7.2239 9.0,7.5" fill="#000" /></svg>