<svg xmlns="http://www.w3.org/2000/svg" width="16" height="16"><path d="M 6.5,2.0 C 6.223,2.0 6.0,2.224 6.0,2.5 L 6.0,4.5 C 6.0,4.776 6.223,4.999 6.499,5.0 L 8.5,5.0 C 8.777,4.999 9.0,4.776 9.0,4.5 L 9.0,2.501 C 9.0,2.224 8.777,2.0 8.501,2.0 L 6.5,2.0 M 5.5,7.0 C 5.223,7.001 5.0,7.224 5.0,7.5 C 5.0,7.776 5.223,7.999 5.499,8.0 L 6.0,8.0 L 6.0,13.0 L 5.5,13.0 C 5.223,13.0 5.0,13.224 5.0,13.5 C 5.0,13.776 5.223,14.0 5.499,14.0 L 9.5,14.0 C 9.777,14.0 10.0,13.776 10.0,13.5 C 10.0,13.224 9.777,13.0 9.501,13.0 L 9.0,13.0 L 9.0,7.501 C 9.0,7.224 8.777,7.001 8.501,7.0 L 6.5,7.0 L 5.5,7.0" fill="#000" /></svg>