<svg xmlns="http://www.w3.org/2000/svg" width="16" height="16"><path d="M 7.5,2.0 C 7.223,2.0 7.0,2.223 7.0,2.5 L 7.0,4.5 C 7.0,4.777 7.223,5.0 7.5,5.0 L 9.5,5.0 C 9.777,5.0 10.0,4.777 10.0,4.5 L 10.0,2.5 C 10.0,2.223 9.777,2.0 9.5,2.0 L 7.5,2.0 M 6.5,7.0 C 6.223,7.0 6.0,7.223 6.0,7.5 C 6.0,7.777 6.223,8.0 6.5,8.0 L 7.0,8.0 L 7.0,13.0 L 6.5,13.0 C 6.223,13.0 6.0,13.223 6.0,13.5 C 6.0,13.777 6.223,14.0 6.5,14.0 L 10.5,14.0 C 10.777,14.0 11.0,13.777 11.0,13.5 C 11.0,13.223 10.777,13.0 10.5,13.0 L 10.0,13.0 L 10.0,7.5 C 10.0,7.223 9.777,7.0 9.5,7.0 L 6.5,7.0" fill="#000" /></svg>