<svg xmlns="http://www.w3.org/2000/svg" width="16" height="16"><path d="M 14.0,3.5 L 14.0,11.5 C 14.0,11.7761 13.7761,12.0 13.5,12.0 L 4.5,12.0 C 4.2239,12.0 4.0,11.7761 4.0,11.5 L 4.0,3.5 C 4.0,3.2239 4.2239,3.0 4.5,3.0 L 13.5,3.0 C 13.7761,3.0 14.0,3.2239 14.0,3.5 M 8.0,4.5 L 8.0,5.5 C 8.0,5.7761 8.2239,6.0 8.5,6.0 L 9.5,6.0 C 9.7761,6.0 10.0,5.7761 10.0,5.5 L 10.0,4.5 C 10.0,4.2239 9.7761,4.0 9.5,4.0 L 8.5,4.0 C 8.2239,4.0 8.0,4.2239 8.0,4.5 M 10.5,10.5 C 10.5,10.2239 10.2761,10.0 10.0,10.0 L 10.0,7.5 C 10.0,7.2239 9.7761,7.0 9.5,7.0 C 9.5,7.0 8.0,7.0 8.0,7.0 C 7.7239,7.0 7.5,7.2239 7.5,7.5 C 7.5,7.7761 7.7239,8.0 8.0,8.0 L 8.0,10.0 C 7.7239,10.0 7.5,10.2239 7.5,10.5 C 7.5,10.7761 7.7239,11.0 8.0,11.0 L 10.0,11.0 C 10.2761,11.0 10.5,10.7761 10.5,10.5" fill="#000" /><path d="M 2.5,5.0 C 2.223,5.0 2.0,5.223 2.0,5.5 L 2.0,14.5 C 2.0,14.777 2.223,15.0 2.5,15.0 C 2.777,15.0 3.0,14.777 3.0,14.5 L 3.0,10.0 L 4.5,10.0 C 4.777,10.0 5.0,9.777 5.0,9.5 C 5.0,9.223 4.777,9.0 4.5,9.0 L 3.0,9.0 L 3.0,6.0 L 4.5,6.0 C 4.777,6.0 5.0,5.777 5.0,5.5 C 5.0,5.223 4.777,5.0 4.5,5.0 L 2.5,5.0" fill="#000" /></svg>