<svg xmlns="http://www.w3.org/2000/svg" width="16" height="16"><path d="M 4.5,3.0 C 4.223,3.0 4.0,3.224 4.0,3.5 L 4.0,11.5 C 4.0,11.776 4.223,12.0 4.499,12.0 L 13.5,12.0 C 13.777,12.0 14.0,11.776 14.0,11.5 L 14.0,3.501 C 14.0,3.224 13.777,3.0 13.501,3.0 L 4.5,3.0 M 8.499,4.0 L 9.5,4.0 C 9.777,4.001 10.0,4.224 10.0,4.5 L 10.0,5.5 C 10.0,5.776 9.777,5.999 9.501,6.0 L 8.5,6.0 C 8.223,5.999 8.0,5.776 8.0,5.5 L 8.0,4.501 C 8.0,4.224 8.223,4.001 8.499,4.0 M 7.999,7.0 L 9.5,7.0 C 9.777,7.001 10.0,7.224 10.0,7.5 L 10.0,10.0 C 10.277,10.0 10.5,10.224 10.5,10.5 C 10.5,10.776 10.277,11.0 10.0,11.0 L 8.0,11.0 C 7.723,11.0 7.5,10.776 7.5,10.5 C 7.5,10.224 7.723,10.0 7.999,10.0 L 8.0,8.0 C 7.723,7.999 7.5,7.776 7.5,7.5 C 7.5,7.224 7.723,7.001 7.999,7.0" fill="#000" /><path d="M 2.5,5.0 C 2.223,5.0 2.0,5.223 2.0,5.5 L 2.0,14.5 C 2.0,14.777 2.223,15.0 2.5,15.0 C 2.777,15.0 3.0,14.777 3.0,14.5 L 3.0,10.0 L 4.5,10.0 C 4.777,10.0 5.0,9.777 5.0,9.5 C 5.0,9.223 4.777,9.0 4.5,9.0 L 3.0,9.0 L 3.0,6.0 L 4.5,6.0 C 4.777,6.0 5.0,5.777 5.0,5.5 C 5.0,5.223 4.777,5.0 4.5,5.0 L 2.5,5.0" fill="#000" /></svg>