<svg xmlns="http://www.w3.org/2000/svg" width="16" height="16"><path d="M 8.0,1.0 C 6.0,1.0 5.0,2.0 5.0,4.0 L 5.0,10.5 C 5.0,10.777 5.223,11.0 5.5,11.0 L 7.0,11.0 L 7.0,14.0 C 7.0,14.554 7.446,15.0 8.0,15.0 C 8.554,15.0 9.0,14.554 9.0,14.0 L 9.0,11.0 L 10.5,11.0 C 10.777,11.0 11.0,10.777 11.0,10.5 L 11.0,4.0 C 11.0,2.0 10.0,1.0 8.0,1.0 M 6.9688,5.0 L 7.0312,5.0 C 7.5679,5.0 8.0,5.446 8.0,6.0 L 8.0,8.5 C 8.0,8.777 8.223,9.0 8.5,9.0 C 8.777,9.0 9.0,8.777 9.0,8.5 L 9.0,7.5 C 9.0,7.223 9.223,7.0 9.5,7.0 C 9.777,7.0 10.0,7.223 10.0,7.5 L 10.0,10.0 L 6.0,10.0 L 6.0,6.0 C 6.0,5.446 6.4321,5.0 6.9688,5.0" fill="#000" /></svg>