<svg xmlns="http://www.w3.org/2000/svg" width="16" height="16"><path d="M 8.0,1.0 C 6.344,1.0 5.001,2.343 5.0,4.0 L 5.0,10.5 C 5.0,10.776 5.223,11.0 5.499,11.0 L 7.0,11.0 L 7.0,14.0 C 7.0,14.552 7.448,15.0 8.0,15.0 C 8.552,15.0 9.0,14.552 9.0,14.0 L 9.0,11.0 L 10.5,11.0 C 10.777,11.0 11.0,10.776 11.0,10.5 L 11.0,4.002 C 11.0,2.343 9.656,1.0 8.0,1.0 M 6.0,6.0 C 6.0,5.448 6.448,5.0 7.0,5.0 C 7.552,5.0 8.0,5.448 8.0,6.0 L 8.0,8.5 C 8.0,8.776 8.224,9.0 8.5,9.0 C 8.776,9.0 9.0,8.776 9.0,8.5 L 9.0,7.501 C 9.0,7.223 9.224,7.0 9.5,7.0 C 9.776,7.0 10.0,7.224 10.0,7.5 L 10.0,10.0 L 6.0,10.0 L 6.0,6.0" fill="#000" /></svg>