<svg xmlns="http://www.w3.org/2000/svg" width="16" height="16"><path d="M 5.0,4.0 L 5.0,10.5 A 0.5,0.5 45.0 0,0 5.5,11.0 L 7.0,11.0 L 7.0,14.0 A 1.0,1.0 45.0 0,0 8.0,15.0 A 1.0,1.0 135.0 0,0 9.0,14.0 L 9.0,11.0 L 10.5,11.0 A 0.5,0.5 135.0 0,0 11.0,10.5 L 11.0,4.0 A 3.0,3.0 45.0 0,0 8.0,1.0 A 3.0,3.0 135.0 0,0 5.0,4.0 M 7.0,5.0 A 1.0,1.0 45.0 0,1 8.0,6.0 L 8.0,8.5 A 0.5,0.5 45.0 0,0 8.5,9.0 A 0.5,0.5 135.0 0,0 9.0,8.5 L 9.0,7.5 A 0.5,0.5 135.0 0,1 9.5,7.0 A 0.5,0.5 45.0 0,1 10.0,7.5 L 10.0,10.0 L 6.0,10.0 L 6.0,6.0 A 1.0,1.0 135.0 0,1 7.0,5.0" fill="#000" /></svg>