<svg xmlns="http://www.w3.org/2000/svg" width="16" height="16"><path d="M 8.0,1.0 C 9.6569,1.0 11.0,2.3431 11.0,4.0 L 11.0,10.5 C 11.0,10.7761 10.7761,11.0 10.5,11.0 L 9.0,11.0 L 9.0,14.0 C 9.0,14.5523 8.5523,15.0 8.0,15.0 C 7.4477,15.0 7.0,14.5523 7.0,14.0 L 7.0,11.0 L 5.5,11.0 C 5.2239,11.0 5.0,10.7761 5.0,10.5 L 5.0,4.0 C 5.0,2.3431 6.3431,1.0 8.0,1.0 M 7.0,5.0 C 6.4477,5.0 6.0,5.4477 6.0,6.0 L 6.0,10.0 L 10.0,10.0 L 10.0,7.5 C 10.0,7.2239 9.7761,7.0 9.5,7.0 C 9.2239,7.0 9.0,7.2239 9.0,7.5 L 9.0,8.5 C 9.0,8.7761 8.7761,9.0 8.5,9.0 C 8.2239,9.0 8.0,8.7761 8.0,8.5 L 8.0,6.0 C 8.0,5.4477 7.5523,5.0 7.0,5.0" fill="#000" /></svg>