<svg xmlns="http://www.w3.org/2000/svg" width="16" height="16"><path d="M 13.7676,2.9395 L 13.0605,2.2324 C 12.8647,2.0366 12.5494,2.0366 12.3535,2.2324 L 10.5859,4.0 L 5.4141,4.0 L 3.6465,2.2324 C 3.4506,2.0366 3.1353,2.0366 2.9395,2.2324 L 2.2324,2.9395 C 2.0366,3.1353 2.0366,3.4506 2.2324,3.6465 L 4.0,5.4141 L 4.0,10.5859 L 2.2324,12.3535 C 2.0366,12.5494 2.0366,12.8647 2.2324,13.0606 L 2.9395,13.7676 C 3.1353,13.9635 3.4506,13.9635 3.6465,13.7676 L 5.4141,12.0 L 10.5859,12.0 L 12.3535,13.7676 C 12.5494,13.9634 12.8647,13.9634 13.0605,13.7676 L 13.7676,13.0605 C 13.9634,12.8647 13.9635,12.5494 13.7676,12.3535 L 12.0,10.5859 L 12.0,5.4141 L 13.7676,3.6465 C 13.9626,3.4515 13.9628,3.1347 13.7676,2.9395 L 13.7676,2.9395 M 10.0,6.0 L 10.0,10.0 L 6.0,10.0 L 6.0,6.0 L 10.0,6.0" fill="#000" /></svg>