<svg xmlns="http://www.w3.org/2000/svg" width="16" height="16"><path d="M 2.5,3.0 C 2.223,3.0 2.0,3.223 2.0,3.5 L 2.0,6.5 C 2.0,6.777 2.223,7.0 2.5,7.0 L 3.5,7.0 C 3.777,7.0 4.0,6.777 4.0,6.5 L 4.0,6.0 L 7.0,6.0 L 7.0,13.5 C 7.0,13.777 7.223,14.0 7.5,14.0 L 8.5,14.0 C 8.777,14.0 9.0,13.777 9.0,13.5 L 9.0,6.0 L 12.0,6.0 L 12.0,6.5 C 12.0,6.777 12.223,7.0 12.5,7.0 L 13.5,7.0 C 13.777,7.0 14.0,6.777 14.0,6.5 L 14.0,3.5 C 14.0,3.223 13.777,3.0 13.5,3.0 L 12.5,3.0 C 12.223,3.0 12.0,3.223 12.0,3.5 L 12.0,4.0 L 4.0,4.0 L 4.0,3.5 C 4.0,3.223 3.777,3.0 3.5,3.0 L 2.5,3.0" fill="#000" /></svg>