<svg xmlns="http://www.w3.org/2000/svg" width="16" height="16"><path d="M 3.5,3.0 C 3.223,3.0 3.0,3.223 3.0,3.5 L 3.0,4.5 C 3.0,4.777 3.223,5.0 3.5,5.0 L 12.5,5.0 C 12.777,5.0 13.0,4.777 13.0,4.5 L 13.0,3.5 C 13.0,3.223 12.777,3.0 12.5,3.0 L 3.5,3.0 M 3.5,7.0 C 3.223,7.0 3.0,7.223 3.0,7.5 L 3.0,8.5 C 3.0,8.777 3.223,9.0 3.5,9.0 L 7.0,9.0 L 7.0,12.5 C 7.0,12.777 7.223,13.0 7.5,13.0 L 8.5,13.0 C 8.777,13.0 9.0,12.777 9.0,12.5 L 9.0,9.0 L 12.5,9.0 C 12.777,9.0 13.0,8.777 13.0,8.5 L 13.0,7.5 C 13.0,7.223 12.777,7.0 12.5,7.0 L 3.5,7.0" fill="#000" /></svg>