<svg xmlns="http://www.w3.org/2000/svg" width="16" height="16"><path d="M 7.5,2.0 C 7.223,2.0 7.0,2.223 7.0,2.5 L 7.0,4.0 L 2.5,4.0 C 2.223,4.0 2.0,4.223 2.0,4.5 L 2.0,5.5 C 2.0,5.777 2.223,6.0 2.5,6.0 L 3.4199,6.0 C 4.3082,7.5072 5.3182,8.854 6.5234,10.082 C 5.6445,10.793 4.6564,11.4656 3.5234,12.1211 C 3.5158,12.1255 3.5077,12.1303 3.5,12.1348 C 3.2601,12.2733 3.1779,12.5765 3.3164,12.8164 L 3.8164,13.6836 C 3.9549,13.9235 4.2601,14.0037 4.5,13.8652 C 4.5077,13.8608 4.5158,13.856 4.5234,13.8516 C 5.8285,13.0965 6.9768,12.2989 8.0,11.4434 C 9.0232,12.2989 10.1715,13.0965 11.4766,13.8516 C 11.4841,13.8564 11.4921,13.8607 11.5,13.8652 C 11.7399,14.0037 12.0451,13.9235 12.1836,13.6836 L 12.6836,12.8164 C 12.8221,12.5765 12.7399,12.2733 12.5,12.1348 C 11.3574,11.4751 10.3615,10.7978 9.4766,10.082 C 10.6818,8.854 11.6918,7.5072 12.5801,6.0 L 13.5,6.0 C 13.777,6.0 14.0,5.777 14.0,5.5 L 14.0,4.5 C 14.0,4.223 13.777,4.0 13.5,4.0 L 9.0,4.0 L 9.0,2.5 C 9.0,2.223 8.777,2.0 8.5,2.0 L 7.5,2.0 M 5.7773,6.0 L 10.2227,6.0 C 9.5604,7.0003 8.8351,7.9066 8.0,8.75 C 7.1649,7.9066 6.4396,7.0003 5.7773,6.0" fill="#000" /></svg>