<svg xmlns="http://www.w3.org/2000/svg" width="16" height="16"><path d="M 2.5,1.5 C 2.223,1.5 2.0,1.723 2.0,2.0 C 2.0,2.0226 2.001,2.0446 2.0039,2.0664 C 2.0275,4.1827 3.1643,6.1355 5.0,7.1953 C 5.1961,7.3085 5.3968,7.4088 5.6016,7.4981 C 5.3968,7.5873 5.1961,7.6895 5.0,7.8027 C 3.1643,8.8626 2.0275,10.8173 2.0039,12.9336 C 2.001,12.9554 2.0,12.9774 2.0,13.0 C 2.0,13.277 2.223,13.5 2.5,13.5 L 3.5,13.5 C 3.777,13.5 4.0,13.277 4.0,13.0 C 4.0,11.5693 4.761,10.2505 6.0,9.5352 C 6.3179,9.3516 6.6544,9.2144 7.0,9.125 L 7.0,13.0 C 7.0,13.277 7.223,13.5 7.5,13.5 L 8.5,13.5 C 8.777,13.5 9.0,13.277 9.0,13.0 L 9.0,9.125 C 9.3456,9.2144 9.6821,9.3516 10.0,9.5352 C 11.239,10.2505 12.0,11.5693 12.0,13.0 L 12.0,13.0625 C 12.0,13.3048 12.1952,13.5 12.4375,13.5 L 13.5625,13.5 C 13.8048,13.5 14.0,13.3048 14.0,13.0625 L 14.0,13.0 L 14.0,12.9375 C 14.0,12.9296 14.0004,12.9219 14.0,12.9141 C 13.9698,10.8051 12.8301,8.8594 11.0,7.8027 C 10.8039,7.6895 10.6032,7.5873 10.3984,7.4981 C 10.6032,7.4088 10.8039,7.3085 11.0,7.1953 C 12.855,6.1243 14.0,4.142 14.0,2.0 L 14.0,1.9375 C 14.0,1.6952 13.8048,1.5 13.5625,1.5 L 12.4375,1.5 C 12.1952,1.5 12.0,1.6952 12.0,1.9375 L 12.0,2.0 C 12.0,3.4307 11.239,4.7495 10.0,5.4648 C 9.6821,5.6484 9.3456,5.7856 9.0,5.875 L 9.0,2.0 C 9.0,1.723 8.777,1.5 8.5,1.5 L 7.5,1.5 C 7.223,1.5 7.0,1.723 7.0,2.0 L 7.0,5.875 C 6.6544,5.7856 6.3179,5.6484 6.0,5.4648 C 4.761,4.7495 4.0,3.4307 4.0,2.0 C 4.0,1.723 3.777,1.5 3.5,1.5 L 2.5,1.5" fill="#000" /></svg>