<svg xmlns="http://www.w3.org/2000/svg" width="16" height="16"><path d="M 11.6152,12.9257 L 12.4023,12.3085 C 12.6204,12.1376 12.6591,11.8234 12.4882,11.6053 L 9.2714,7.4999 L 12.4882,3.3924 C 12.6591,3.1744 12.6203,2.8621 12.4023,2.6913 L 11.6152,2.0741 C 11.3972,1.9033 11.0849,1.942 10.9141,2.16 L 8.0,5.8768 L 5.0879,2.16 C 4.9171,1.942 4.6028,1.9033 4.3848,2.0741 L 3.5977,2.6913 C 3.3796,2.8622 3.3409,3.1764 3.5117,3.3945 L 6.7285,7.4999 L 3.5117,11.6054 C 3.3409,11.8234 3.3796,12.1377 3.5977,12.3085 L 4.3848,12.9257 C 4.6028,13.0965 4.917,13.0578 5.0879,12.8398 L 8.0,9.121 L 10.9141,12.8397 C 11.0918,13.0666 11.4063,13.0894 11.6152,12.9256 L 11.6152,12.9257" fill="#000" /></svg>