<svg xmlns="http://www.w3.org/2000/svg" width="16" height="16"><path d="M 2.5,2.0 C 2.223,2.0 2.0,2.223 2.0,2.5 L 2.0,3.5 C 2.0,3.777 2.223,4.0 2.5,4.0 L 3.0,4.0 L 3.0,12.5 C 3.0,12.777 3.223,13.0 3.5,13.0 L 4.5,13.0 C 4.777,13.0 5.0,12.777 5.0,12.5 L 5.0,7.0 L 11.0,7.0 L 11.0,12.5 C 11.0,12.777 11.223,13.0 11.5,13.0 L 12.5,13.0 C 12.777,13.0 13.0,12.777 13.0,12.5 L 13.0,4.0 L 13.5,4.0 C 13.777,4.0 14.0,3.777 14.0,3.5 L 14.0,2.5 C 14.0,2.223 13.777,2.0 13.5,2.0 L 2.5,2.0 M 5.0,4.0 L 11.0,4.0 L 11.0,5.0 L 5.0,5.0 L 5.0,4.0" fill="#000" /></svg>