<svg xmlns="http://www.w3.org/2000/svg" width="16" height="16"><path d="M 5.5,3.0 C 5.223,3.0 5.0,3.223 5.0,3.5 L 5.0,7.0 L 2.5,7.0 C 2.223,7.0 2.0,7.223 2.0,7.5 L 2.0,12.5 C 2.0,12.777 2.223,13.0 2.5,13.0 L 3.5,13.0 C 3.777,13.0 4.0,12.777 4.0,12.5 L 4.0,9.0 L 6.5,9.0 C 6.777,9.0 7.0,8.777 7.0,8.5 L 7.0,5.0 L 9.0,5.0 L 9.0,8.5 C 9.0,8.777 9.223,9.0 9.5,9.0 L 12.0,9.0 L 12.0,12.5 C 12.0,12.777 12.223,13.0 12.5,13.0 L 13.5,13.0 C 13.777,13.0 14.0,12.777 14.0,12.5 L 14.0,7.5 C 14.0,7.223 13.777,7.0 13.5,7.0 L 11.0,7.0 L 11.0,3.5 C 11.0,3.223 10.777,3.0 10.5,3.0 L 5.5,3.0" fill="#000" /></svg>