<svg xmlns="http://www.w3.org/2000/svg" width="16" height="16"><path d="M 8.0,2.0059 C 6.4624,2.0059 4.9252,2.5904 3.7578,3.7578 C 1.423,6.0926 1.423,9.9074 3.7578,12.2422 C 6.0926,14.577 9.9094,14.577 12.2441,12.2422 C 14.5789,9.9074 14.5789,6.0926 12.2441,3.7578 C 11.0768,2.5904 9.5376,2.0059 8.0,2.0059 M 8.0,3.9941 C 9.0216,3.9941 10.0448,4.3866 10.8301,5.1719 C 12.4006,6.7423 12.4006,9.2577 10.8301,10.8281 C 9.2596,12.3986 6.7423,12.3986 5.1719,10.8281 C 3.6014,9.2577 3.6014,6.7423 5.1719,5.1719 C 5.9571,4.3866 6.9784,3.9941 8.0,3.9941 M 7.0,5.0 L 7.0,6.0 L 7.0,7.0 L 6.0,7.0 L 5.0,7.0 L 5.0,9.0 L 6.0,9.0 L 7.0,9.0 L 7.0,10.0 L 7.0,11.0 L 9.0,11.0 L 9.0,10.0 L 9.0,9.0 L 10.0,9.0 L 11.0,9.0 L 11.0,7.0 L 10.0,7.0 L 9.0,7.0 L 9.0,6.0 L 9.0,5.0 L 7.0,5.0" fill="#000" /></svg>