<svg xmlns="http://www.w3.org/2000/svg" width="16" height="16"><path d="M 4.6033,2.7244 C 4.3634,2.8629 4.2818,3.1675 4.4203,3.4074 L 5.1703,4.7065 L 1.2732,6.9565 C 1.0333,7.095 0.9516,7.3996 1.0901,7.6395 L 1.5901,8.5055 C 1.7286,8.7454 2.0333,8.827 2.2732,8.6885 L 3.0698,8.2285 C 4.5927,9.0897 6.1408,9.7511 7.7986,10.2119 C 7.4423,11.1385 6.9982,12.082 6.4528,13.0662 C 6.3189,13.3077 6.4005,13.6132 6.6397,13.7512 L 7.5059,14.2509 C 7.7444,14.3885 8.0499,14.3069 8.1834,14.0661 C 8.8276,12.9045 9.3479,11.7734 9.758,10.6526 C 10.9333,10.8578 12.1725,10.9728 13.5,10.9957 C 13.7761,11.0007 14.0001,10.7761 14.0002,10.5 L 14.0006,9.5021 C 14.0007,9.2256 13.7766,9.0019 13.5001,8.997 C 12.3753,8.9772 11.3364,8.8902 10.3561,8.7354 C 10.7859,7.0693 10.9871,5.3979 11.0028,3.6485 L 11.7994,3.1885 C 12.0393,3.05 12.1209,2.7454 11.9824,2.5055 L 11.4824,1.6395 C 11.3439,1.3996 11.0393,1.318 10.7994,1.4565 L 6.9023,3.7065 L 6.1523,2.4074 C 6.0138,2.1675 5.7092,2.0859 5.4693,2.2244 L 4.6033,2.7244 M 5.1114,7.0498 L 8.9612,4.8272 C 8.8878,6.0246 8.7128,7.1721 8.4113,8.3201 C 7.2663,8.0072 6.1851,7.585 5.1114,7.0498" fill="#000" /></svg>