<svg xmlns="http://www.w3.org/2000/svg" width="16" height="16"><path d="M 2.5,2.5 C 2.223,2.5 2.0,2.723 2.0,3.0 C 2.0,5.1414 3.164,7.1314 5.0,8.1953 C 5.6275,8.5589 6.306,8.797 7.0,8.9141 L 7.0,13.5 C 7.0,13.777 7.223,14.0 7.5,14.0 L 8.5,14.0 C 8.777,14.0 9.0,13.777 9.0,13.5 L 9.0,8.9141 C 9.694,8.797 10.3725,8.5589 11.0,8.1953 C 12.8362,7.1313 14.0,5.1561 14.0,3.0 C 14.0,2.723 13.777,2.5 13.5,2.5 L 12.5,2.5 C 12.223,2.5 12.0,2.723 12.0,3.0 C 12.0,4.4307 11.239,5.7495 10.0,6.4648 C 8.761,7.1802 7.239,7.1802 6.0,6.4648 C 4.761,5.7495 4.0,4.4307 4.0,3.0 C 4.0,2.723 3.777,2.5 3.5,2.5 L 2.5,2.5" fill="#000" /></svg>