<svg xmlns="http://www.w3.org/2000/svg" width="16" height="16"><path d="M 8.0,2.0 C 4.6981,2.0 2.0,4.6981 2.0,8.0 C 2.0,11.3019 4.6981,14.0 8.0,14.0 C 11.3019,14.0 14.0,11.3019 14.0,8.0 C 14.0,4.6981 11.3019,2.0 8.0,2.0 M 8.0,4.0 C 8.7437,4.0 9.4291,4.2138 10.0234,4.5625 L 8.0,6.5859 L 5.9766,4.5625 C 6.5709,4.2138 7.2563,4.0 8.0,4.0 M 4.5625,5.9766 L 6.5859,8.0 L 4.5625,10.0234 C 4.2138,9.4291 4.0,8.7437 4.0,8.0 C 4.0,7.2563 4.2138,6.5709 4.5625,5.9766 M 11.4375,5.9766 C 11.7862,6.5709 12.0,7.2563 12.0,8.0 C 12.0,8.7437 11.7862,9.4291 11.4375,10.0234 L 9.4141,8.0 L 11.4375,5.9766 M 8.0,9.4141 L 10.0234,11.4375 C 9.4291,11.7862 8.7437,12.0 8.0,12.0 C 7.2563,12.0 6.5709,11.7862 5.9766,11.4375 L 8.0,9.4141" fill="#000" /></svg>