<svg xmlns="http://www.w3.org/2000/svg" width="16" height="16"><path d="M 13.9927,8.0025 C 13.9927,6.4649 13.4101,4.9257 12.2427,3.7583 C 9.908,1.4236 6.0912,1.4236 3.7564,3.7583 C 1.4216,6.0931 1.4216,9.9099 3.7564,12.2447 C 6.0912,14.5794 9.9079,14.5794 12.2427,12.2447 C 13.4101,11.0773 13.9927,9.5401 13.9927,8.0025 L 13.9927,8.0025 M 12.0064,8.0025 C 12.0064,9.0241 11.6139,10.0454 10.8287,10.8306 C 9.2582,12.4011 6.7409,12.4011 5.1705,10.8306 C 3.6,9.2601 3.6,6.7448 5.1705,5.1744 C 6.7409,3.6039 9.2582,3.6039 10.8287,5.1744 C 11.6139,5.9596 12.0064,6.9809 12.0064,8.0025 M 11.0005,7.5025 C 11.0005,7.2255 10.7775,7.0025 10.5005,7.0025 L 9.0005,7.0025 L 9.0005,5.5025 C 9.0005,5.2255 8.7775,5.0025 8.5005,5.0025 L 7.5005,5.0025 C 7.2235,5.0025 7.0005,5.2255 7.0005,5.5025 L 7.0005,7.0025 L 5.5005,7.0025 C 5.2235,7.0025 5.0005,7.2255 5.0005,7.5025 L 5.0005,8.5025 C 5.0005,8.7795 5.2235,9.0025 5.5005,9.0025 L 7.0005,9.0025 L 7.0005,10.5025 C 7.0005,10.7795 7.2235,11.0025 7.5005,11.0025 L 8.5005,11.0025 C 8.7775,11.0025 9.0005,10.7795 9.0005,10.5025 L 9.0005,9.0025 L 10.5005,9.0025 C 10.7775,9.0025 11.0005,8.7795 11.0005,8.5025 L 11.0005,7.5025" fill="#000" /></svg>