<svg xmlns="http://www.w3.org/2000/svg" width="16" height="16"><path d="M 2.5,2.5 C 2.223,2.5 2.0,2.723 2.0,3.0 C 2.0,3.0226 2.001,3.0446 2.0039,3.0664 C 2.0275,5.1827 3.1643,7.1355 5.0,8.1953 C 5.6281,8.5579 6.306,8.797 7.0,8.9141 L 7.0,13.5 C 7.0,13.777 7.223,14.0 7.5,14.0 L 8.5,14.0 C 8.777,14.0 9.0,13.777 9.0,13.5 L 9.0,8.9141 C 9.694,8.797 10.3719,8.5579 11.0,8.1953 C 12.8301,7.1387 13.9697,5.1948 14.0,3.0859 C 14.0004,3.0572 14.0,3.0288 14.0,3.0 L 14.0,2.9375 C 14.0,2.6952 13.8048,2.5 13.5625,2.5 L 12.4375,2.5 C 12.1952,2.5 12.0,2.6952 12.0,2.9375 L 12.0,3.0 C 12.0,4.4307 11.239,5.7495 10.0,6.4648 C 8.761,7.1802 7.239,7.1802 6.0,6.4648 C 4.761,5.7495 4.0,4.4307 4.0,3.0 C 4.0,2.723 3.777,2.5 3.5,2.5 L 2.5,2.5" fill="#000" /></svg>