<svg xmlns="http://www.w3.org/2000/svg" width="16" height="16"><path d="M 3.5,2.0 C 3.223,2.0 3.0,2.223 3.0,2.5 L 3.0,3.0 L 2.5,3.0 C 2.223,3.0 2.0,3.223 2.0,3.5 L 2.0,4.5 C 2.0,4.777 2.223,5.0 2.5,5.0 L 3.0,5.0 L 3.0,10.0 L 2.5,10.0 C 2.223,10.0 2.0,10.223 2.0,10.5 L 2.0,11.5 C 2.0,11.777 2.223,12.0 2.5,12.0 L 3.0,12.0 L 3.0,12.5 C 3.0,12.777 3.223,13.0 3.5,13.0 L 4.5,13.0 C 4.777,13.0 5.0,12.777 5.0,12.5 L 5.0,12.0 L 10.0,12.0 L 10.0,12.5 C 10.0,12.777 10.223,13.0 10.5,13.0 L 11.5,13.0 C 11.777,13.0 12.0,12.777 12.0,12.5 L 12.0,12.0 L 12.5,12.0 C 12.777,12.0 13.0,11.777 13.0,11.5 L 13.0,10.5 C 13.0,10.223 12.777,10.0 12.5,10.0 L 12.0,10.0 L 12.0,5.0 L 12.5,5.0 C 12.777,5.0 13.0,4.777 13.0,4.5 L 13.0,3.5 C 13.0,3.223 12.777,3.0 12.5,3.0 L 12.0,3.0 L 12.0,2.5 C 12.0,2.223 11.777,2.0 11.5,2.0 L 10.5,2.0 C 10.223,2.0 10.0,2.223 10.0,2.5 L 10.0,3.0 L 5.0,3.0 L 5.0,2.5 C 5.0,2.223 4.777,2.0 4.5,2.0 L 3.5,2.0 M 5.0,5.0 L 10.0,5.0 L 10.0,10.0 L 5.0,10.0 L 5.0,5.0" fill="#000" /></svg>