<svg xmlns="http://www.w3.org/2000/svg" width="16" height="16"><path d="M 2.5,1.5 C 2.223,1.5 2.0,1.723 2.0,2.0 C 2.0,4.1703 3.1482,6.1376 5.0,7.1953 C 5.1966,7.3076 5.3968,7.4088 5.6016,7.498 C 5.3968,7.5873 5.1976,7.6923 5.0,7.8027 C 3.1241,8.851 1.9999,10.7985 1.9999,13.0 C 1.9999,13.277 2.2229,13.5 2.4999,13.5 L 3.4999,13.5 C 3.7769,13.5 3.9999,13.277 3.9999,13.0 C 3.9999,11.5693 4.7609,10.2505 5.9999,9.5351 C 6.3178,9.3516 6.6543,9.2143 6.9999,9.125 L 6.9999,13.0 C 6.9999,13.277 7.2229,13.5 7.4999,13.5 L 8.4999,13.5 C 8.7769,13.5 8.9999,13.277 8.9999,13.0 L 8.9999,9.125 C 9.3455,9.2144 9.682,9.3516 9.9999,9.5352 C 11.2389,10.2505 11.9999,11.5693 11.9999,13.0 C 11.9999,13.277 12.2229,13.5 12.4999,13.5 L 13.4999,13.5 C 13.7769,13.5 13.9999,13.277 13.9999,13.0 C 13.9999,10.7985 12.8556,8.8608 10.9998,7.8027 C 10.8031,7.6906 10.603,7.5873 10.3983,7.4981 C 10.603,7.4088 10.803,7.3073 10.9998,7.1953 C 12.8801,6.1255 14.0,4.1277 13.9999,2.0 C 13.9999,1.723 13.7769,1.5 13.4999,1.5 L 12.4999,1.5 C 12.2229,1.5 11.9999,1.723 11.9999,2.0 C 11.9999,3.4307 11.2389,4.7495 9.9999,5.4649 C 9.682,5.6484 9.3455,5.7857 8.9999,5.875 L 8.9999,2.0 C 8.9999,1.723 8.7769,1.5 8.4999,1.5 L 7.4999,1.5 C 7.2229,1.5 6.9999,1.723 6.9999,2.0 L 6.9999,5.875 C 6.6543,5.7856 6.3178,5.6484 5.9999,5.4648 C 4.7609,4.7495 3.9999,3.4307 3.9999,2.0 C 3.9999,1.723 3.7769,1.5 3.4999,1.5 L 2.5,1.5" fill="#000" /></svg>