<svg xmlns="http://www.w3.org/2000/svg" width="16" height="16"><path d="M 4.5,1.0 C 4.3674,1.0 4.2402,1.0527 4.1465,1.1465 L 1.1465,4.1465 C 0.8317,4.4615 1.0547,4.9998 1.5,5.0 L 13.5,5.0 C 13.9453,4.9998 14.1683,4.4615 13.8535,4.1465 L 10.8535,1.1465 C 10.7598,1.0527 10.6326,1.0 10.5,1.0 L 9.1074,1.0 L 11.0352,4.0 L 8.6777,4.0 L 8.0352,1.0 L 6.9648,1.0 L 6.3223,4.0 L 3.9648,4.0 L 5.8926,1.0 L 4.5,1.0 M 2.0,6.0 L 2.0,14.0 C 2.0,14.554 2.446,15.0 3.0,15.0 L 12.0,15.0 C 12.554,15.0 13.0,14.554 13.0,14.0 L 13.0,6.0 L 2.0,6.0 M 3.75,8.0 L 5.25,8.0 C 5.6655,8.0 6.0,8.3345 6.0,8.75 L 6.0,13.25 C 6.0,13.6655 5.6655,14.0 5.25,14.0 L 3.75,14.0 C 3.3345,14.0 3.0,13.6655 3.0,13.25 L 3.0,8.75 C 3.0,8.3345 3.3345,8.0 3.75,8.0 M 9.0,8.0 L 11.0,8.0 C 11.554,8.0 12.0,8.446 12.0,9.0 L 12.0,11.0 C 12.0,11.554 11.554,12.0 11.0,12.0 L 9.0,12.0 C 8.446,12.0 8.0,11.554 8.0,11.0 L 8.0,9.0 C 8.0,8.446 8.446,8.0 9.0,8.0" fill="#000" /></svg>