<svg xmlns="http://www.w3.org/2000/svg" width="16" height="16"><path d="M 9.5,2.0 C 9.0833,2.0 8.7251,2.1929 8.459,2.459 C 8.1929,2.7251 8.0,3.0833 8.0,3.5 L 8.0,8.5 C 8.0,8.7761 8.2239,9.0 8.5,9.0 L 10.8594,9.0 L 10.0156,12.3789 C 10.0055,12.4185 10.0002,12.4591 10.0,12.5 L 10.0,13.5 C 10.0,13.7761 10.2239,14.0 10.5,14.0 L 11.5,14.0 C 11.7761,14.0 12.0,13.7761 12.0,13.5 L 12.0,2.5 C 12.0,2.2239 11.7761,2.0 11.5,2.0 L 9.5,2.0 M 3.459,2.002 C 3.1997,2.0233 3.0002,2.2399 3.0,2.5 L 3.0,13.5 C 3.0,13.7761 3.2239,14.0 3.5,14.0 L 4.5,14.0 C 4.7761,14.0 5.0,13.7761 5.0,13.5 L 5.0,12.5 C 4.9998,12.4592 4.9945,12.4185 4.9844,12.3789 L 4.1406,9.0 L 5.5,9.0 C 5.7761,9.0 6.0,8.7761 6.0,8.5 C 6.0,6.4583 5.749,5.0248 5.3398,4.002 C 4.9307,2.9791 4.3419,2.3624 3.7227,2.0527 C 3.641,2.0121 3.5499,1.9945 3.459,2.002 M 10.5,2.793 A 0.7071,0.7071 45.0 0,1 11.0,3.0 A 0.7071,0.7071 45.0 0,1 11.0,4.0 A 0.7071,0.7071 45.0 0,1 10.0,4.0 A 0.7071,0.7071 45.0 0,1 10.0,3.0 A 0.7071,0.7071 45.0 0,1 10.5,2.793" fill="#000" /></svg>