<svg xmlns="http://www.w3.org/2000/svg" width="16" height="16"><path d="M 3.5234,2.0 C 3.4331,1.9957 3.3434,2.0159 3.2637,2.0586 C 3.1011,2.1458 2.9997,2.3155 3.0,2.5 L 3.0,14.5 C 3.0,14.7761 3.2239,15.0 3.5,15.0 L 4.5,15.0 C 4.7761,15.0 5.0,14.7761 5.0,14.5 L 5.0,13.5 C 5.0,11.7565 4.6043,10.6861 4.2832,10.0 L 6.5,10.0 C 6.7761,10.0 7.0,9.7761 7.0,9.5 C 7.0,7.1944 6.6145,5.6064 6.0039,4.4531 C 5.3934,3.2999 4.5593,2.6053 3.7773,2.084 C 3.7019,2.0335 3.6141,2.0044 3.5234,2.0 M 10.5,2.0 C 10.0833,2.0 9.7251,2.1929 9.459,2.459 C 9.1929,2.7251 9.0,3.0833 9.0,3.5 L 9.0,9.5 C 9.0,9.7761 9.2239,10.0 9.5,10.0 L 11.7168,10.0 C 11.3957,10.6861 11.0,11.7565 11.0,13.5 L 11.0,14.5 C 11.0,14.7761 11.2239,15.0 11.5,15.0 L 12.5,15.0 C 12.7761,15.0 13.0,14.7761 13.0,14.5 L 13.0,2.5 C 13.0,2.2239 12.7761,2.0 12.5,2.0 L 10.5,2.0 M 11.5,2.793 A 0.7071,0.7071 45.0 0,1 12.0,3.0 A 0.7071,0.7071 45.0 0,1 12.0,4.0 A 0.7071,0.7071 45.0 0,1 11.0,4.0 A 0.7071,0.7071 45.0 0,1 11.0,3.0 A 0.7071,0.7071 45.0 0,1 11.5,2.793" fill="#000" /></svg>