<svg xmlns="http://www.w3.org/2000/svg" width="16" height="16"><path d="M 3.5234,1.0 C 3.4345,0.9956 3.3451,1.0151 3.2637,1.0586 C 3.1011,1.1458 2.9997,1.3155 3.0,1.5 L 3.0,13.5 C 3.0,13.7761 3.2239,14.0 3.5,14.0 L 4.5,14.0 C 4.7761,14.0 5.0,13.7761 5.0,13.5 L 5.0,12.5 C 5.0,10.7565 4.6043,9.6861 4.2832,9.0 L 6.5,9.0 C 6.7761,9.0 7.0,8.7761 7.0,8.5 C 7.0,6.1944 6.6145,4.6064 6.0039,3.4531 C 5.3934,2.2999 4.5593,1.6053 3.7773,1.084 C 3.7006,1.0327 3.6123,1.0044 3.5234,1.0 M 10.5,1.0 C 10.0833,1.0 9.7251,1.1929 9.459,1.459 C 9.1929,1.7251 9.0,2.0833 9.0,2.5 L 9.0,8.5 C 9.0,8.7761 9.2239,9.0 9.5,9.0 L 11.7168,9.0 C 11.3957,9.6861 11.0,10.7565 11.0,12.5 L 11.0,13.5 C 11.0,13.7761 11.2239,14.0 11.5,14.0 L 12.5,14.0 C 12.7761,14.0 13.0,13.7761 13.0,13.5 L 13.0,1.5 C 13.0,1.2239 12.7761,1.0 12.5,1.0 L 10.5,1.0 M 11.5,1.793 A 0.7071,0.7071 0.0 0,1 12.207,2.5 A 0.7071,0.7071 0.0 0,1 11.5,3.207 A 0.7071,0.7071 0.0 0,1 10.793,2.5 A 0.7071,0.7071 0.0 0,1 11.5,1.793" fill="#000" /></svg>