<svg xmlns="http://www.w3.org/2000/svg" width="16" height="16"><path d="M 7.5,2.0 L 8.5,2.0 C 8.6381,2.0 8.7631,2.056 8.8536,2.1464 L 10.8536,4.1464 C 10.944,4.2369 11.0,4.3619 11.0,4.5 L 11.0,5.5 C 11.0,5.7761 10.7761,6.0 10.5,6.0 L 9.0,6.0 L 9.0,7.0 L 12.5,7.0 C 12.7458,7.0 12.9501,7.1773 12.9921,7.411 L 13.9099,12.0 L 14.5,12.0 C 14.7761,12.0 15.0,12.2239 15.0,12.5 C 15.0,12.7761 14.7761,13.0 14.5,13.0 L 12.5,13.0 C 12.2239,13.0 12.0,12.7761 12.0,12.5 C 12.0,12.2239 12.2239,12.0 12.5,12.0 L 12.8901,12.0 L 12.0901,8.0 L 11.0,8.0 L 11.0,10.0 C 11.0,10.5523 10.5523,11.0 10.0,11.0 L 6.0,11.0 C 5.4477,11.0 5.0,10.5523 5.0,10.0 L 5.0,8.0 L 3.9099,8.0 L 3.1099,12.0 C 3.1099,12.0 3.5,12.0 3.5,12.0 C 3.7761,12.0 4.0,12.2239 4.0,12.5 C 4.0,12.7761 3.7761,13.0 3.5,13.0 L 1.5,13.0 C 1.2239,13.0 1.0,12.7761 1.0,12.5 C 1.0,12.2239 1.2239,12.0 1.5,12.0 L 2.0901,12.0 L 3.0079,7.411 C 3.0499,7.1773 3.2542,7.0 3.5,7.0 L 7.0,7.0 L 7.0,6.0 L 5.5,6.0 C 5.2239,6.0 5.0,5.7761 5.0,5.5 L 5.0,4.5 C 5.0,4.3619 5.056,4.2369 5.1465,4.1464 L 7.1465,2.1464 C 7.2369,2.056 7.3619,2.0 7.5,2.0 L 7.5,2.0" fill="#000" /></svg>