<svg xmlns="http://www.w3.org/2000/svg" width="16" height="16"><path d="M 7.5,2.0 C 7.361,2.0 7.237,2.056 7.146,2.146 L 5.147,4.146 C 5.056,4.237 5.0,4.362 5.0,4.5 L 5.0,5.5 C 5.0,5.776 5.223,5.999 5.499,6.0 L 7.0,6.0 L 7.0,7.0 L 3.5,7.0 C 3.254,7.001 3.05,7.178 3.008,7.411 L 2.09,12.0 L 1.5,12.0 C 1.223,12.0 1.0,12.224 1.0,12.5 C 1.0,12.776 1.223,13.0 1.499,13.0 L 3.5,13.0 C 3.777,13.0 4.0,12.776 4.0,12.5 C 4.0,12.224 3.777,12.0 3.501,12.0 L 3.11,12.0 L 3.91,8.0 L 5.0,8.0 L 5.0,10.0 C 5.0,10.552 5.447,11.0 5.998,11.0 L 10.0,11.0 C 10.553,11.0 11.0,10.552 11.0,10.0 L 11.0,8.0 L 12.09,8.0 L 12.89,12.0 L 12.5,12.0 C 12.223,12.0 12.0,12.224 12.0,12.5 C 12.0,12.776 12.223,13.0 12.499,13.0 L 14.5,13.0 C 14.777,13.0 15.0,12.776 15.0,12.5 C 15.0,12.224 14.777,12.0 14.501,12.0 L 13.91,12.0 L 12.992,7.411 C 12.95,7.178 12.746,7.001 12.501,7.0 L 9.0,7.0 L 9.0,6.0 L 10.5,6.0 C 10.777,5.999 11.0,5.776 11.0,5.5 L 11.0,4.501 C 11.0,4.362 10.944,4.237 10.854,4.146 L 8.854,2.147 C 8.763,2.056 8.639,2.0 8.501,2.0 L 7.5,2.0" fill="#000" /></svg>