<svg xmlns="http://www.w3.org/2000/svg" width="16" height="16"><path d="M 7.0,2.0 L 5.0,4.0 L 5.0,5.0 C 5.0,5.554 5.446,6.0 6.0,6.0 L 7.0,6.0 L 7.0,7.0 L 3.5,7.0 C 3.2616,7.0001 3.0564,7.1685 3.0098,7.4023 L 2.0898,12.0 L 1.5,12.0 C 0.8238,11.9904 0.8238,13.0096 1.5,13.0 L 3.5,13.0 C 4.1762,13.0096 4.1762,11.9904 3.5,12.0 L 3.1094,12.0 L 3.9102,8.0 L 5.0,8.0 L 5.0,10.0 C 5.0,10.554 5.446,11.0 6.0,11.0 L 10.0,11.0 C 10.554,11.0 11.0,10.554 11.0,10.0 L 11.0,8.0 L 12.0898,8.0 L 12.8906,12.0 L 12.5,12.0 C 11.8238,11.9904 11.8238,13.0096 12.5,13.0 L 14.5,13.0 C 15.1762,13.0096 15.1762,11.9904 14.5,12.0 L 13.9102,12.0 L 12.9902,7.4023 C 12.9436,7.1685 12.7384,7.0001 12.5,7.0 L 9.0,7.0 L 9.0,6.0 L 10.0,6.0 C 10.554,6.0 11.0,5.554 11.0,5.0 L 11.0,4.0 L 9.0,2.0 L 7.0,2.0" fill="#000" /></svg>