<svg xmlns="http://www.w3.org/2000/svg" width="16" height="16"><path d="M 6.0001,2.5687 L 6.0001,13.43 C 6.0001,13.9064 6.5324,14.1776 6.8965,13.8128 L 8.0,12.707 L 8.0,13.5 C 7.99,14.1762 9.0096,14.1762 9.0,13.5 L 9.0,2.5 C 9.004,2.2177 8.7745,1.9878 8.4922,1.9922 C 8.216,1.9962 7.9957,2.2239 8.0,2.5 L 8.0,3.293 L 6.8984,2.1914 C 6.5364,1.8294 6.0001,2.0507 6.0001,2.5687 L 6.0001,2.5687 M 7.0,3.707 L 8.0,4.707 L 8.0,5.293 L 7.0,6.293 L 7.0,3.707 M 8.0,6.707 L 8.0,9.293 L 7.0,8.293 L 7.0,7.707 L 8.0,6.707 M 7.0,9.707 L 8.0,10.707 L 8.0,11.293 L 7.0,12.293 L 7.0,9.707" fill="#000" /><path d="M 2.0254,2.6582 C 2.5043,4.0949 2.5043,4.905 2.0254,6.3418 C 1.8582,6.8426 2.4804,7.2271 2.8535,6.8535 C 4.3142,5.3928 5.1111,5.0 6.5,5.0 C 6.7761,5.0 7.0,4.7761 7.0,4.5 C 7.0,4.2239 6.7761,4.0 6.5,4.0 C 5.1111,4.0 4.3142,3.6072 2.8535,2.1465 C 2.4847,1.7765 1.8589,2.1611 2.0254,2.6582 L 2.0254,2.6582" fill="#000" /><path d="M 12.1465,2.1465 C 10.7079,3.5851 9.8682,4.0 8.5,4.0 C 8.2238,4.0 8.0,4.2239 8.0,4.5 C 8.0,4.7761 8.2238,5.0 8.5,5.0 C 9.8889,5.0 10.6858,5.3928 12.1465,6.8535 C 12.5196,7.2271 13.1418,6.8426 12.9746,6.3418 C 12.4957,4.905 12.4957,4.095 12.9746,2.6582 C 13.1408,2.1556 12.51,1.7852 12.1465,2.1465 L 12.1465,2.1465" fill="#000" /></svg>