<svg xmlns="http://www.w3.org/2000/svg" width="16" height="16"><path d="M 6.4922,1.9922 A 0.5,0.5 0.0 0,0 6.4434,1.9962 A 0.5,0.5 0.0 0,0 6.3829,2.0062 A 0.5,0.5 0.0 0,0 6.0001,2.5687 L 6.0001,6.5003 L 6.0001,7.43 A 0.5,0.5 0.0 0,0 6.0001,7.5882 L 6.0001,8.4261 A 0.5,0.5 0.0 0,0 6.0001,8.5687 L 6.0001,9.5003 L 6.0001,13.43 A 0.5,0.5 0.0 0,0 6.4552,14.0062 A 0.5,0.5 0.0 0,0 6.5079,14.0082 A 0.5,0.5 0.0 0,0 6.5567,14.0042 A 0.5,0.5 0.0 0,0 6.8965,13.8128 A 0.5,0.5 0.0 0,0 6.9005,13.8068 L 8.0,12.707 L 8.0,13.5 A 0.5,0.5 0.0 1,0 9.0,13.5 L 9.0,11.5566 A 0.5,0.5 0.0 0,0 9.0,11.4336 L 9.0,10.5938 A 0.5,0.5 0.0 0,0 9.0,10.4258 L 9.0,9.5 L 9.0,6.5 L 9.0,5.5566 A 0.5,0.5 0.0 0,0 9.0,5.4336 L 9.0,4.5938 A 0.5,0.5 0.0 0,0 9.0,4.4258 L 9.0,2.5 A 0.5,0.5 0.0 0,0 8.4922,1.9922 A 0.5,0.5 0.0 0,0 8.0,2.5 L 8.0,3.293 L 6.8984,2.1914 A 0.5,0.5 0.0 0,0 6.4922,1.9922 M 7.0,3.707 L 8.0,4.707 L 8.0,5.293 L 7.0,6.293 L 7.0,3.707 M 8.0,6.707 L 8.0,9.293 L 7.0,8.293 L 7.0,7.707 L 8.0,6.707 M 7.0,9.707 L 8.0,10.707 L 8.0,11.293 L 7.0,12.293 L 7.0,9.707" fill="#000" /><path d="M 2.4746,2.0 C 2.3921,2.004 2.3104,2.0284 2.2363,2.0742 C 2.039,2.1963 1.9517,2.4382 2.0254,2.6582 C 2.5043,4.0949 2.5043,4.905 2.0254,6.3418 C 1.8582,6.8426 2.4804,7.2271 2.8535,6.8535 C 4.3142,5.3928 5.1111,5.0 6.5,5.0 A 0.5,0.5 0.0 0,0 7.0,4.5 A 0.5,0.5 0.0 0,0 6.5,4.0 C 5.1111,4.0 4.3142,3.6072 2.8535,2.1465 C 2.751,2.0437 2.6122,1.9934 2.4746,2.0" fill="#000" /><path d="M 12.4961,2.002 C 12.3656,2.0026 12.2401,2.0534 12.1465,2.1465 C 10.6949,3.5981 9.8983,3.9951 8.5254,4.0 C 8.5164,4.0 8.5087,4.0 8.5,4.0 A 0.5,0.5 0.0 0,0 8.0,4.5 A 0.5,0.5 0.0 0,0 8.5,5.0 C 9.8889,5.0 10.6858,5.3928 12.1465,6.8535 C 12.5196,7.2271 13.1418,6.8426 12.9746,6.3418 C 12.4957,4.905 12.4957,4.095 12.9746,2.6582 C 13.0747,2.3555 12.8698,2.0376 12.5527,2.0039 C 12.534,2.0019 12.5147,2.0019 12.4961,2.0019 L 12.4961,2.002" fill="#000" /></svg>