<svg xmlns="http://www.w3.org/2000/svg" width="16" height="16"><path d="M 6.0001,2.5687 L 6.0001,13.43 C 6.0001,13.9064 6.5324,14.1776 6.8965,13.8128 L 8.0,12.707 L 8.0,13.5 C 7.99,14.1762 9.0096,14.1762 9.0,13.5 L 9.0,2.5 C 9.004,2.2177 8.7745,1.9878 8.4922,1.9922 C 8.216,1.9962 7.9957,2.2239 8.0,2.5 L 8.0,3.293 L 6.8984,2.1914 C 6.5364,1.8294 6.0001,2.0507 6.0001,2.5687 L 6.0001,2.5687 M 7.0,3.707 L 8.0,4.707 L 8.0,5.293 L 7.0,6.293 L 7.0,3.707 M 8.0,6.707 L 8.0,9.293 L 7.0,8.293 L 7.0,7.707 L 8.0,6.707 M 7.0,9.707 L 8.0,10.707 L 8.0,11.293 L 7.0,12.293 L 7.0,9.707" fill="#000" /><path d="M 2.2773,2.9473 L 4.2773,3.9473 C 4.886,4.2822 5.3568,3.3365 4.7227,3.0527 L 2.7227,2.0527 C 2.1526,1.7554 1.6533,2.6493 2.2773,2.9473 M 4.2773,5.0527 L 2.2773,6.0527 C 1.6432,6.3365 2.114,7.2821 2.7227,6.9472 L 4.7227,5.9472 C 5.3479,5.6484 4.8463,4.7561 4.2773,5.0527" fill="#000" /><path d="M 12.2773,2.0527 L 10.2773,3.0527 C 9.6432,3.3365 10.114,4.2821 10.7227,3.9472 L 12.7227,2.9472 C 13.3479,2.6484 12.8463,1.7561 12.2773,2.0527 M 10.2773,5.9473 L 12.2773,6.9473 C 12.886,7.2822 13.3568,6.3365 12.7227,6.0527 L 10.7227,5.0527 C 10.1526,4.7554 9.6533,5.6493 10.2773,5.9473" fill="#000" /></svg>