<svg xmlns="http://www.w3.org/2000/svg" width="16" height="16"><path d="M 6.4922,1.9922 A 0.5,0.5 0.0 0,0 6.4434,1.9962 A 0.5,0.5 0.0 0,0 6.3829,2.0062 A 0.5,0.5 0.0 0,0 6.0001,2.5687 L 6.0001,6.5003 L 6.0001,7.43 A 0.5,0.5 0.0 0,0 6.0001,7.5882 L 6.0001,8.4261 A 0.5,0.5 0.0 0,0 6.0001,8.5687 L 6.0001,9.5003 L 6.0001,13.43 A 0.5,0.5 0.0 0,0 6.4552,14.0062 A 0.5,0.5 0.0 0,0 6.5079,14.0082 A 0.5,0.5 0.0 0,0 6.5567,14.0042 A 0.5,0.5 0.0 0,0 6.8965,13.8128 A 0.5,0.5 0.0 0,0 6.9005,13.8068 L 8.0,12.707 L 8.0,13.5 A 0.5,0.5 0.0 1,0 9.0,13.5 L 9.0,11.5566 A 0.5,0.5 0.0 0,0 9.0,11.4336 L 9.0,10.5938 A 0.5,0.5 0.0 0,0 9.0,10.4258 L 9.0,9.5 L 9.0,6.5 L 9.0,5.5566 A 0.5,0.5 0.0 0,0 9.0,5.4336 L 9.0,4.5938 A 0.5,0.5 0.0 0,0 9.0,4.4258 L 9.0,2.5 A 0.5,0.5 0.0 0,0 8.4922,1.9922 A 0.5,0.5 0.0 0,0 8.0,2.5 L 8.0,3.293 L 6.8984,2.1914 A 0.5,0.5 0.0 0,0 6.4922,1.9922 M 7.0,3.707 L 8.0,4.707 L 8.0,5.293 L 7.0,6.293 L 7.0,3.707 M 8.0,6.707 L 8.0,9.293 L 7.0,8.293 L 7.0,7.707 L 8.0,6.707 M 7.0,9.707 L 8.0,10.707 L 8.0,11.293 L 7.0,12.293 L 7.0,9.707" fill="#000" /><path d="M 2.4824,1.9961 A 0.5,0.5 0.0 0,0 2.2773,2.9473 L 4.2773,3.9473 A 0.5,0.5 0.0 1,0 4.7227,3.0527 L 2.7227,2.0527 A 0.5,0.5 0.0 0,0 2.4824,1.9961 L 2.4824,1.9961 M 4.5019,4.9961 A 0.5,0.5 0.0 0,0 4.2773,5.0527 L 2.2773,6.0527 A 0.5,0.5 0.0 1,0 2.7227,6.9472 L 4.7227,5.9472 A 0.5,0.5 0.0 0,0 4.5019,4.996 L 4.5019,4.9961" fill="#000" /><path d="M 12.5019,1.9961 A 0.5,0.5 0.0 0,0 12.2773,2.0527 L 10.2773,3.0527 A 0.5,0.5 0.0 1,0 10.7227,3.9472 L 12.7227,2.9472 A 0.5,0.5 0.0 0,0 12.5019,1.996 L 12.5019,1.9961 M 10.4824,4.9961 A 0.5,0.5 0.0 0,0 10.2773,5.9473 L 12.2773,6.9473 A 0.5,0.5 0.0 1,0 12.7227,6.0527 L 10.7227,5.0527 A 0.5,0.5 0.0 0,0 10.4824,4.9961 L 10.4824,4.9961" fill="#000" /></svg>