<svg xmlns="http://www.w3.org/2000/svg" width="16" height="16"><path d="M 6.0001,2.5687 L 6.0001,13.43 C 6.0001,13.9064 6.5324,14.1776 6.8965,13.8128 L 8.0,12.707 L 8.0,13.5 C 7.99,14.1762 9.0096,14.1762 9.0,13.5 L 9.0,2.5 C 9.004,2.2177 8.7745,1.9878 8.4922,1.9922 C 8.216,1.9962 7.9957,2.2239 8.0,2.5 L 8.0,3.293 L 6.8984,2.1914 C 6.5364,1.8294 6.0001,2.0507 6.0001,2.5687 L 6.0001,2.5687 M 7.0,3.707 L 8.0,4.707 L 8.0,5.293 L 7.0,6.293 L 7.0,3.707 M 8.0,6.707 L 8.0,9.293 L 7.0,8.293 L 7.0,7.707 L 8.0,6.707 M 7.0,9.707 L 8.0,10.707 L 8.0,11.293 L 7.0,12.293 L 7.0,9.707" fill="#000" /><path d="M 3.4453,1.2168 C 4.3349,1.6306 4.7469,2.6637 4.6699,3.793 C 4.6596,4.0522 4.597,4.3072 4.5156,4.5489 C 4.8797,4.83 6.0625,5.7449 6.7109,6.0469 C 7.2887,6.3376 6.8834,7.2081 6.2891,6.9532 C 5.6416,6.6516 4.1829,6.3348 3.7305,6.2364 C 3.5776,6.4461 3.4331,6.6652 3.252,6.8399 C 2.4373,7.626 1.3798,7.9764 0.4902,7.5625 C 0.2401,7.446 0.1317,7.1488 0.248,6.8985 L 1.5137,4.1778 L 2.7812,1.459 C 2.8978,1.2089 3.195,1.1005 3.4453,1.2168 L 3.4453,1.2168" fill="#000" /><path d="M 11.5547,1.2168 C 10.6651,1.6306 10.2531,2.6637 10.3301,3.793 C 10.3404,4.0522 10.3938,4.309 10.4844,4.5489 C 10.1203,4.83 8.9375,5.7449 8.2891,6.0469 C 7.7113,6.3376 8.1166,7.2081 8.7109,6.9532 C 9.3584,6.6516 10.8171,6.3348 11.2695,6.2364 C 11.4224,6.4461 11.5669,6.6652 11.748,6.8399 C 12.5627,7.626 13.6202,7.9764 14.5098,7.5625 C 14.7599,7.446 14.8683,7.1488 14.752,6.8985 L 13.4863,4.1778 L 12.2188,1.459 C 12.1022,1.2089 11.805,1.1005 11.5547,1.2168 L 11.5547,1.2168" fill="#000" /></svg>