<svg xmlns="http://www.w3.org/2000/svg" width="16" height="16"><path d="M 6.5,2.0 C 6.2308,2.0 6.0,2.2016 6.0,2.5 L 6.0001,8.3245 L 2.1095,13.1878 C 1.6927,13.7087 2.4739,14.3337 2.8907,13.8128 L 6.0,9.9238 L 6.0,13.4297 C 6.0,14.0 6.5005,14.1839 6.8837,13.8119 C 7.267,13.44 8.0,12.707 8.0,12.707 L 8.0,13.5 C 7.99,14.1762 9.0096,14.1762 9.0,13.5 L 9.0,9.9258 L 12.1094,13.8125 C 12.526,14.3334 13.3073,13.7084 12.8906,13.1875 L 9.0,8.3242 L 9.0,2.5 C 9.004,2.2177 8.7745,1.9878 8.4922,1.9922 C 8.216,1.9962 7.9957,2.2239 8.0,2.5 L 8.0,3.293 L 6.8984,2.1914 C 6.7857,2.0787 6.6633,2.0 6.5,2.0 M 7.0,3.707 L 8.0,4.707 L 8.0,5.293 L 7.0,6.293 L 7.0,3.707 M 8.0,6.707 L 8.0,9.293 L 7.0,8.293 L 7.0,7.707 L 8.0,6.707 M 7.0,9.707 L 8.0,10.707 L 8.0,11.293 L 7.0,12.293 L 7.0,9.707" fill="#000" /><path d="M 3.0254,2.0254 C 2.3691,2.6816 2.0,3.5719 2.0,4.5 C 2.0,5.4281 2.3691,6.3184 3.0254,6.9746 C 3.4966,7.4655 4.2233,6.7388 3.7324,6.2676 C 3.2635,5.7986 3.0,5.1632 3.0,4.5 C 3.0,3.8368 3.2635,3.2014 3.7324,2.7324 C 4.22,2.2605 3.4787,1.5569 3.0254,2.0254 M 4.4394,3.4395 C 4.1583,3.7206 4.0,4.1024 4.0,4.5 C 4.0,4.8976 4.1583,5.2794 4.4394,5.5605 C 4.9107,6.0515 5.6374,5.3248 5.1465,4.8535 C 5.0526,4.7596 5.0,4.6328 5.0,4.5 C 5.0,4.3672 5.0526,4.2404 5.1465,4.1465 C 5.634,3.6746 4.8927,2.971 4.4394,3.4395" fill="#000" /><path d="M 11.2676,2.7324 C 11.7365,3.2014 12.0,3.8368 12.0,4.5 C 12.0,5.1632 11.7365,5.7986 11.2676,6.2676 C 10.7767,6.7388 11.5034,7.4655 11.9746,6.9746 C 12.6309,6.3184 13.0,5.4281 13.0,4.5 C 13.0,3.5719 12.6309,2.6816 11.9746,2.0254 C 11.5213,1.5569 10.78,2.2605 11.2676,2.7324 M 9.8535,4.1465 C 9.9474,4.2404 10.0,4.3672 10.0,4.5 C 10.0,4.6328 9.9474,4.7596 9.8535,4.8535 C 9.3626,5.3248 10.0893,6.0515 10.5606,5.5605 C 10.8417,5.2794 11.0,4.8976 11.0,4.5 C 11.0,4.1024 10.8417,3.7206 10.5606,3.4395 C 10.1073,2.971 9.366,3.6746 9.8535,4.1465" fill="#000" /></svg>