<svg xmlns="http://www.w3.org/2000/svg" width="16" height="16"><path d="M 8.0,1.0 C 7.8481,0.9999 7.7043,1.0689 7.6094,1.1875 L 5.6094,3.6875 C 5.5385,3.7762 5.4999,3.8864 5.5,4.0 L 5.5,5.793 L 5.3535,5.6465 C 5.2836,5.5766 5.1946,5.5291 5.0977,5.5098 L 2.5977,5.0098 C 2.2482,4.9404 1.9404,5.2482 2.0098,5.5977 L 2.5098,8.0977 C 2.5291,8.1946 2.5767,8.2836 2.6465,8.3535 L 3.8926,9.5996 L 3.0527,11.2773 C 2.8651,11.6542 3.1985,12.0801 3.6094,11.9883 L 7.3594,11.1543 L 7.0098,12.9023 C 6.9483,13.2116 7.1847,13.4999 7.5,13.5 L 8.5,13.5 C 8.8153,13.4999 9.0518,13.2116 8.9902,12.9023 L 8.6406,11.1543 L 12.3906,11.9883 C 12.8014,12.0801 13.1349,11.6542 12.9473,11.2773 L 12.1074,9.5996 L 13.3535,8.3535 C 13.4234,8.2836 13.4709,8.1946 13.4902,8.0977 L 13.9902,5.5977 C 14.0596,5.2482 13.7518,4.9404 13.4023,5.0098 L 10.9023,5.5098 C 10.8054,5.5291 10.7164,5.5767 10.6465,5.6465 L 10.5,5.793 L 10.5,4.0 C 10.5001,3.8864 10.4615,3.7762 10.3906,3.6875 L 8.3906,1.1875 C 8.2957,1.0689 8.1519,0.9999 8.0,1.0" fill="#000" /></svg>