<svg xmlns="http://www.w3.org/2000/svg" width="16" height="16"><path d="M 1.5,5.0 C 1.223,5.0 1.0,5.223 1.0,5.5 L 1.0,10.5 C 1.0,10.777 1.223,11.0 1.5,11.0 L 2.5,11.0 C 2.777,11.0 3.0,10.777 3.0,10.5 L 3.0,7.0 L 7.0,7.0 L 7.0,10.5 C 7.0,10.777 7.223,11.0 7.5,11.0 L 8.5,11.0 C 8.777,11.0 9.0,10.777 9.0,10.5 L 9.0,9.0 L 13.0,9.0 L 13.0,10.5 C 13.0,10.777 13.223,11.0 13.5,11.0 L 14.5,11.0 C 14.777,11.0 15.0,10.777 15.0,10.5 L 15.0,7.5 C 15.0,7.223 14.777,7.0 14.5,7.0 L 13.5,7.0 C 13.223,7.0 13.0,7.223 13.0,7.5 L 13.0,8.0 L 9.0,8.0 L 9.0,5.5 C 9.0,5.223 8.777,5.0 8.5,5.0 L 7.5,5.0 C 7.223,5.0 7.0,5.223 7.0,5.5 L 7.0,6.0 L 3.0,6.0 L 3.0,5.5 C 3.0,5.223 2.777,5.0 2.5,5.0 L 1.5,5.0" fill="#000" /></svg>