<svg xmlns="http://www.w3.org/2000/svg" width="16" height="16"><path d="M 7.5,3.0 C 4.9333,3.0 2.8734,3.5149 1.3418,4.0254 C 0.8029,4.2044 0.9321,5.0007 1.5,5.0 L 2.1914,5.0 L 4.0527,8.7227 C 4.1372,8.8924 4.3104,8.9998 4.5,9.0 L 10.5,9.0 C 10.6896,8.9998 10.8628,8.8924 10.9473,8.7227 L 12.8086,5.0 L 13.5,5.0 C 14.0679,5.0007 14.1971,4.2044 13.6582,4.0254 C 12.1266,3.5149 10.0667,3.0 7.5,3.0 M 3.0,10.0 C 2.4477,10.0 2.0,10.4477 2.0,11.0 C 2.0,11.5523 2.4477,12.0 3.0,12.0 C 3.5523,12.0 4.0,11.5523 4.0,11.0 C 4.0,10.4477 3.5523,10.0 3.0,10.0 M 6.0,10.0 C 5.4477,10.0 5.0,10.4477 5.0,11.0 C 5.0,11.5523 5.4477,12.0 6.0,12.0 C 6.5523,12.0 7.0,11.5523 7.0,11.0 C 7.0,10.4477 6.5523,10.0 6.0,10.0 M 9.0,10.0 C 8.4477,10.0 8.0,10.4477 8.0,11.0 C 8.0,11.5523 8.4477,12.0 9.0,12.0 C 9.5523,12.0 10.0,11.5523 10.0,11.0 C 10.0,10.4477 9.5523,10.0 9.0,10.0 M 12.0,10.0 C 11.4477,10.0 11.0,10.4477 11.0,11.0 C 11.0,11.5523 11.4477,12.0 12.0,12.0 C 12.5523,12.0 13.0,11.5523 13.0,11.0 C 13.0,10.4477 12.5523,10.0 12.0,10.0" fill="#000" /></svg>