<svg xmlns="http://www.w3.org/2000/svg" width="16" height="16"><path d="M 4.0,3.0 C 3.446,3.0 3.0,3.446 3.0,4.0 L 3.0,13.0 C 3.0,13.554 3.446,14.0 4.0,14.0 L 4.0,13.5 C 4.0,12.669 4.6486,12.0 5.4551,12.0 L 10.5449,12.0 C 11.3514,12.0 12.0,12.669 12.0,13.5 L 12.0,14.0 C 12.554,14.0 13.0,13.554 13.0,13.0 L 13.0,4.0 C 13.0,3.446 12.554,3.0 12.0,3.0 L 4.0,3.0 M 4.75,4.0 L 11.25,4.0 C 11.6655,4.0 12.0,4.3345 12.0,4.75 L 12.0,8.25 C 12.0,8.6655 11.6655,9.0 11.25,9.0 L 4.75,9.0 C 4.3345,9.0 4.0,8.6655 4.0,8.25 L 4.0,4.75 C 4.0,4.3345 4.3345,4.0 4.75,4.0 M 4.5,10.0 L 6.5,10.0 C 6.777,10.0 7.0,10.223 7.0,10.5 C 7.0,10.777 6.777,11.0 6.5,11.0 L 4.5,11.0 C 4.223,11.0 4.0,10.777 4.0,10.5 C 4.0,10.223 4.223,10.0 4.5,10.0 M 9.5,10.0 L 11.5,10.0 C 11.777,10.0 12.0,10.223 12.0,10.5 C 12.0,10.777 11.777,11.0 11.5,11.0 L 9.5,11.0 C 9.223,11.0 9.0,10.777 9.0,10.5 C 9.0,10.223 9.223,10.0 9.5,10.0 M 5.5,13.0 C 5.223,13.0 5.0,13.223 5.0,13.5 L 5.0,15.0 L 11.0,15.0 L 11.0,13.5 C 11.0,13.223 10.777,13.0 10.5,13.0 L 5.5,13.0" fill="#000" /></svg>