<svg xmlns="http://www.w3.org/2000/svg" width="16" height="16"><path d="M 6.5,1.0 C 6.223,1.0 6.0,1.223 6.0,1.5 C 6.0,1.7761 5.7761,2.0 5.5,2.0 L 4.5,2.0 C 4.223,2.0 4.0,2.223 4.0,2.5 C 4.0,2.777 4.223,3.0 4.5,3.0 L 11.5,3.0 C 11.777,3.0 12.0,2.777 12.0,2.5 C 12.0,2.223 11.777,2.0 11.5,2.0 L 10.5,2.0 C 10.2239,2.0 10.0,1.7761 10.0,1.5 C 10.0,1.223 9.777,1.0 9.5,1.0 L 6.5,1.0 M 5.5,4.0 C 5.223,4.0 5.0,4.223 5.0,4.5 L 5.0,13.5 C 5.0,13.777 5.223,14.0 5.5,14.0 L 10.5,14.0 C 10.777,14.0 11.0,13.777 11.0,13.5 L 11.0,4.5 C 11.0,4.223 10.777,4.0 10.5,4.0 L 5.5,4.0 M 6.5,8.0 L 8.5,8.0 C 8.777,8.0 9.0,8.223 9.0,8.5 C 9.0,8.777 8.777,9.0 8.5,9.0 L 7.0,9.0 L 7.0,9.5 C 7.0,9.777 6.777,10.0 6.5,10.0 C 6.223,10.0 6.0,9.777 6.0,9.5 L 6.0,8.5 C 6.0,8.223 6.223,8.0 6.5,8.0" fill="#000" /></svg>