<svg xmlns="http://www.w3.org/2000/svg" width="16" height="16"><path d="M 7.5,2.0 A 5.5,5.5 0.0 0,0 2.0,7.5 A 5.5,5.5 0.0 0,0 7.5,13.0 A 5.5,5.5 0.0 0,0 13.0,7.5 A 5.5,5.5 0.0 0,0 7.5,2.0 M 6.5,3.0 C 6.777,3.0 7.0,3.223 7.0,3.5 L 7.0,6.5 C 7.0,6.777 6.777,7.0 6.5,7.0 C 6.223,7.0 6.0,6.777 6.0,6.5 L 6.0,3.5 C 6.0,3.223 6.223,3.0 6.5,3.0 M 8.5,3.0 C 8.777,3.0 9.0,3.223 9.0,3.5 L 9.0,6.5 C 9.0,6.777 8.777,7.0 8.5,7.0 C 8.223,7.0 8.0,6.777 8.0,6.5 L 8.0,3.5 C 8.0,3.223 8.223,3.0 8.5,3.0 M 4.5,5.0 C 4.777,5.0 5.0,5.223 5.0,5.5 L 5.0,6.5 C 5.0,6.777 4.777,7.0 4.5,7.0 C 4.223,7.0 4.0,6.777 4.0,6.5 L 4.0,5.5 C 4.0,5.223 4.223,5.0 4.5,5.0 M 10.5,5.0 C 10.777,5.0 11.0,5.223 11.0,5.5 L 11.0,6.5 C 11.0,6.777 10.777,7.0 10.5,7.0 C 10.223,7.0 10.0,6.777 10.0,6.5 L 10.0,5.5 C 10.0,5.223 10.223,5.0 10.5,5.0 M 4.5,8.0 C 4.777,8.0 5.0,8.223 5.0,8.5 L 5.0,9.5 C 5.0,9.777 4.777,10.0 4.5,10.0 C 4.223,10.0 4.0,9.777 4.0,9.5 L 4.0,8.5 C 4.0,8.223 4.223,8.0 4.5,8.0 M 6.5,8.0 C 6.777,8.0 7.0,8.223 7.0,8.5 L 7.0,11.5 C 7.0,11.777 6.777,12.0 6.5,12.0 C 6.223,12.0 6.0,11.777 6.0,11.5 L 6.0,8.5 C 6.0,8.223 6.223,8.0 6.5,8.0 M 8.5,8.0 C 8.777,8.0 9.0,8.223 9.0,8.5 L 9.0,11.5 C 9.0,11.777 8.777,12.0 8.5,12.0 C 8.223,12.0 8.0,11.777 8.0,11.5 L 8.0,8.5 C 8.0,8.223 8.223,8.0 8.5,8.0 M 10.5,8.0 C 10.777,8.0 11.0,8.223 11.0,8.5 L 11.0,9.5 C 11.0,9.777 10.777,10.0 10.5,10.0 C 10.223,10.0 10.0,9.777 10.0,9.5 L 10.0,8.5 C 10.0,8.223 10.223,8.0 10.5,8.0" fill="#000" /></svg>