<svg xmlns="http://www.w3.org/2000/svg" width="16" height="16"><path d="M 4.0,1.0 L 1.0,4.0 L 4.0,4.0 L 6.0,1.0 L 4.0,1.0 M 7.0,1.0 L 6.0,4.0 L 9.0,4.0 L 8.0,1.0 L 7.0,1.0 M 9.0,1.0 L 11.0,4.0 L 14.0,4.0 L 11.0,1.0 L 9.0,1.0 M 1.0,5.0 C 1.0,5.554 1.446,6.0 2.0,6.0 L 3.0,6.0 C 3.554,6.0 4.0,5.554 4.0,5.0 L 1.0,5.0 M 6.0,5.0 C 6.0,5.554 6.446,6.0 7.0,6.0 L 8.0,6.0 C 8.554,6.0 9.0,5.554 9.0,5.0 L 6.0,5.0 M 11.0,5.0 C 11.0,5.554 11.446,6.0 12.0,6.0 L 13.0,6.0 C 13.554,6.0 14.0,5.554 14.0,5.0 L 11.0,5.0 M 2.0,7.0 L 2.0,13.0 L 1.5,13.0 C 1.223,13.0 1.0,13.223 1.0,13.5 C 1.0,13.777 1.223,14.0 1.5,14.0 L 2.0,14.0 L 2.0,15.0 L 3.0,15.0 L 3.0,14.0 L 12.0,14.0 L 12.0,15.0 L 13.0,15.0 L 13.0,14.0 L 13.5,14.0 C 13.777,14.0 14.0,13.777 14.0,13.5 C 14.0,13.223 13.777,13.0 13.5,13.0 L 13.0,13.0 L 13.0,7.0 L 12.0,7.0 L 12.0,13.0 L 3.0,13.0 L 3.0,7.0 L 2.0,7.0 M 5.5,9.0 L 5.0,10.0 L 7.0,10.0 L 7.0,9.0 L 5.5,9.0 M 8.0,9.0 L 8.0,10.0 L 10.0,10.0 L 9.5,9.0 L 8.0,9.0 M 4.5,11.0 L 4.0,12.0 L 7.0,12.0 L 7.0,11.0 L 4.5,11.0 M 8.0,11.0 L 8.0,12.0 L 11.0,12.0 L 10.5,11.0 L 8.0,11.0" fill="#000" /></svg>