<svg xmlns="http://www.w3.org/2000/svg" width="16" height="16"><path d="M 4.5,1.0 C 4.3674,1.0 4.2402,1.0527 4.1465,1.1465 L 1.1465,4.1465 C 0.8317,4.4615 1.0547,4.9998 1.5,5.0 L 2.0,5.0 L 2.0,13.0 L 1.5,13.0 C 1.2239,13.0 1.0,13.2239 1.0,13.5 C 1.0,13.7761 1.2239,14.0 1.5,14.0 L 2.0,14.0 L 2.0,14.5 C 2.0,14.7761 2.2239,15.0 2.5,15.0 L 12.5,15.0 C 12.5215,15.0001 12.543,14.9991 12.5645,14.996 C 12.8137,14.9636 13.0002,14.7512 13.0,14.4999 L 13.0,14.0 L 13.5,14.0 C 13.7762,14.0 14.0,13.7761 14.0,13.5 C 14.0,13.2239 13.7762,13.0 13.5,13.0 L 13.0,13.0 L 13.0,5.0 L 13.5,5.0 C 13.9453,4.9998 14.1683,4.4615 13.8535,4.1465 L 10.8535,1.1465 C 10.7598,1.0527 10.6326,1.0 10.5,1.0 L 9.1074,1.0 L 11.0352,4.0 L 8.6777,4.0 L 8.0352,1.0 L 6.9648,1.0 L 6.3223,4.0 L 3.9648,4.0 L 5.8926,1.0 L 4.5,1.0 M 3.0,5.0 L 12.0,5.0 L 12.0,13.0 L 3.0,13.0 L 3.0,5.0 M 6.5,7.0 C 6.3104,7.0002 6.1372,7.1076 6.0527,7.2773 L 4.0527,11.2773 C 3.8876,11.6096 4.129,11.9996 4.5,12.0 L 10.5,12.0 C 10.871,11.9996 11.1124,11.6096 10.9473,11.2773 L 8.9473,7.2773 C 8.8628,7.1076 8.6896,7.0002 8.5,7.0 L 6.5,7.0" fill="#000" /></svg>