<svg xmlns="http://www.w3.org/2000/svg" width="16" height="16"><path d="M 6.0,2.0 C 6.554,2.0 7.0,2.446 7.0,3.0 C 7.0,3.554 6.554,4.0 6.0,4.0 C 5.446,4.0 5.0,3.554 5.0,3.0 C 5.0,2.446 5.446,2.0 6.0,2.0 M 5.0059,4.5 C 5.0812,4.501 5.1553,4.519 5.2227,4.5527 L 6.1992,5.041 C 6.2777,5.0761 6.3482,5.1277 6.4004,5.1992 L 7.75,7.0 L 8.5,7.0 C 9.1762,6.99 9.1762,8.0096 8.5,8.0 L 7.5,8.0 C 7.3426,8.0003 7.1943,7.9265 7.0996,7.8008 C 6.837,7.4712 6.5917,7.1817 6.3731,6.9082 L 6.2324,8.457 L 4.1856,8.7481 L 4.5019,4.959 C 4.5234,4.6975 4.7435,4.4971 5.0059,4.5 L 5.0059,4.5 M 9.5234,8.9941 C 9.7058,9.0041 9.8683,9.1126 9.9473,9.2773 L 10.4473,10.2773 L 11.3086,12.0 L 12.5,12.0 C 13.1762,11.99 13.1762,13.0096 12.5,13.0 L 11.0,13.0 C 10.8104,12.9998 10.6372,12.8924 10.5527,12.7227 L 9.6914,11.0 L 3.0,11.0 L 3.0,9.9238 L 9.4297,9.0059 C 9.4478,9.0029 9.4661,9.0029 9.4844,9.0019 C 9.4984,9.0015 9.5091,8.9929 9.5235,8.9939 L 9.5234,8.9941 M 12.0,9.0 C 12.554,9.0 13.0,9.446 13.0,10.0 C 13.0,10.554 12.554,11.0 12.0,11.0 C 11.446,11.0 11.0,10.554 11.0,10.0 C 11.0,9.446 11.446,9.0 12.0,9.0 M 8.5,12.0 C 8.777,12.0 9.0,12.223 9.0,12.5 C 9.0,12.777 8.777,13.0 8.5,13.0 L 3.0,13.0 L 3.0,12.0 L 8.5,12.0" fill="#000" /></svg>