<svg xmlns="http://www.w3.org/2000/svg" width="16" height="16"><path d="M 3.5,2.0 C 3.223,2.0 3.0,2.223 3.0,2.5 C 3.0,2.777 3.223,3.0 3.5,3.0 L 11.5,3.0 C 11.777,3.0 12.0,2.777 12.0,2.5 C 12.0,2.223 11.777,2.0 11.5,2.0 L 3.5,2.0 M 2.5,4.0 C 2.223,4.0 2.0,4.223 2.0,4.5 C 2.0,4.777 2.223,5.0 2.5,5.0 L 3.0,5.0 L 3.0,9.0 L 1.5,9.0 C 1.223,9.0 1.0,9.223 1.0,9.5 L 1.0,13.5 C 1.0,13.777 1.223,14.0 1.5,14.0 L 5.0,14.0 L 5.0,11.5 C 5.0,11.223 5.223,11.0 5.5,11.0 L 9.5,11.0 C 9.777,11.0 10.0,11.223 10.0,11.5 L 10.0,14.0 L 13.5,14.0 C 13.777,14.0 14.0,13.777 14.0,13.5 L 14.0,9.5 C 14.0,9.223 13.777,9.0 13.5,9.0 L 12.0,9.0 L 12.0,5.0 L 12.5,5.0 C 12.777,5.0 13.0,4.777 13.0,4.5 C 13.0,4.223 12.777,4.0 12.5,4.0 L 2.5,4.0 M 4.0,5.0 L 11.0,5.0 L 11.0,9.0 L 10.0,9.0 L 10.0,6.0 L 9.0,6.0 L 9.0,9.0 L 8.0,9.0 L 8.0,6.0 L 7.0,6.0 L 7.0,9.0 L 6.0,9.0 L 6.0,6.0 L 5.0,6.0 L 5.0,9.0 L 4.0,9.0 L 4.0,5.0 M 6.0,12.0 L 6.0,14.0 L 9.0,14.0 L 9.0,12.0 L 6.0,12.0" fill="#000" /></svg>