<svg xmlns="http://www.w3.org/2000/svg" width="16" height="16"><path d="M 1.5,3.0 C 1.2239,3.0 1.0,3.2239 1.0,3.5 L 1.0,11.5 C 1.0,11.7761 1.2239,12.0 1.5,12.0 L 9.5,12.0 C 9.7761,12.0 10.0,11.7761 10.0,11.5 L 10.0,7.5 C 10.0,7.2239 9.7761,7.0 9.5,7.0 C 9.2239,7.0 9.0,7.2239 9.0,7.5 L 9.0,11.0 L 6.0,11.0 L 6.0,10.0 L 7.5,10.0 C 7.7761,10.0 8.0,9.7761 8.0,9.5 C 8.0,9.2239 7.7761,9.0 7.5,9.0 L 5.5,9.0 C 5.2239,9.0 5.0,9.2239 5.0,9.5 L 5.0,11.0 L 2.0,11.0 L 2.0,8.0 L 3.0,8.0 L 3.0,9.5 C 3.0,9.7761 3.2239,10.0 3.5,10.0 C 3.7761,10.0 4.0,9.7761 4.0,9.5 L 4.0,5.5 C 4.0,5.2239 3.7761,5.0 3.5,5.0 C 3.2239,5.0 3.0,5.2239 3.0,5.5 L 3.0,7.0 L 2.0,7.0 L 2.0,4.0 L 9.0,4.0 L 9.0,5.0 L 7.5,5.0 C 7.2239,5.0 7.0,5.2239 7.0,5.5 L 7.0,7.0 L 6.0,7.0 L 6.0,5.5 C 6.0,5.2239 5.7761,5.0 5.5,5.0 C 5.2239,5.0 5.0,5.2239 5.0,5.5 L 5.0,7.5 C 5.0,7.7761 5.2239,8.0 5.5,8.0 L 7.5,8.0 C 7.7761,8.0 8.0,7.7761 8.0,7.5 L 8.0,6.0 L 9.5,6.0 C 9.7761,6.0 10.0,5.7761 10.0,5.5 L 10.0,3.5 C 10.0,3.2239 9.7761,3.0 9.5,3.0 L 1.5,3.0" fill="#000" /><path d="M 12.5,4.0 A 0.5,0.5 0.0 0,0 12.1465,4.1465 A 0.5,0.5 0.0 0,0 12.1465,4.8535 L 13.293,6.0 L 11.5,6.0 A 0.5,0.5 0.0 0,0 11.0,6.5 A 0.5,0.5 0.0 0,0 11.5,7.0 L 13.293,7.0 L 12.1465,8.1465 A 0.5,0.5 0.0 0,0 12.1465,8.8535 A 0.5,0.5 0.0 0,0 12.8535,8.8535 L 14.8535,6.8535 A 0.5,0.5 0.0 0,0 14.8535,6.1465 L 12.8535,4.1465 A 0.5,0.5 0.0 0,0 12.5,4.0" fill="#000" /></svg>