<svg xmlns="http://www.w3.org/2000/svg" width="16" height="16"><path d="M 3.5,3.0 C 3.2239,3.0 3.0,3.2239 3.0,3.5 L 3.0,11.5 C 3.0,11.7761 3.2239,12.0 3.5,12.0 L 11.5,12.0 C 11.5595,11.9994 11.6183,11.9881 11.6738,11.9668 C 11.6828,11.9638 11.6908,11.9608 11.6992,11.9568 C 11.7519,11.9334 11.8002,11.901 11.8418,11.8611 C 11.8488,11.8551 11.855,11.8483 11.8613,11.8416 C 11.9012,11.7999 11.9336,11.7517 11.957,11.699 C 11.961,11.691 11.964,11.6822 11.967,11.6736 C 11.9882,11.6181 11.9994,11.5594 12.0,11.5 L 12.0,9.5 L 12.0,7.5 C 12.0,7.2239 11.7761,7.0 11.5,7.0 C 11.2239,7.0 11.0,7.2239 11.0,7.5 L 11.0,9.5 L 11.0,11.0 L 8.0,11.0 L 8.0,10.0 L 9.5,10.0 C 9.7761,10.0 10.0,9.7761 10.0,9.5 C 10.0,9.2239 9.7761,9.0 9.5,9.0 L 7.5,9.0 C 7.2664,8.9996 7.0637,9.161 7.0117,9.3887 C 7.0037,9.4253 6.9997,9.4626 7.0,9.5 L 7.0,11.0 L 4.0,11.0 L 4.0,8.0 L 5.0,8.0 L 5.0,9.5 C 5.0,9.7761 5.2239,10.0 5.5,10.0 C 5.7762,10.0 6.0,9.7761 6.0,9.5 L 6.0,7.5 L 6.0,5.5 C 6.0,5.2239 5.7762,5.0 5.5,5.0 C 5.2239,5.0 5.0,5.2239 5.0,5.5 L 5.0,7.0 L 4.0,7.0 L 4.0,4.0 L 11.0,4.0 L 11.0,5.0 L 9.5,5.0 C 9.4626,4.9997 9.4252,5.004 9.3887,5.0117 C 9.161,5.0637 8.9996,5.2664 9.0,5.5 L 9.0,7.0 L 8.0,7.0 L 8.0,5.5 C 8.0,5.2239 7.7762,5.0 7.5,5.0 C 7.2239,5.0 7.0,5.2239 7.0,5.5 L 7.0,7.5 C 7.0,7.7761 7.2239,8.0 7.5,8.0 L 9.5,8.0 C 9.5374,8.0003 9.5748,7.996 9.6114,7.9883 C 9.8391,7.9363 10.0004,7.7336 10.0,7.5 L 10.0,6.0 L 11.5,6.0 C 11.5595,5.9994 11.6183,5.9881 11.6739,5.9668 C 11.6829,5.9638 11.6909,5.9608 11.6993,5.9568 C 11.752,5.9334 11.8002,5.901 11.8418,5.8611 C 11.8488,5.8551 11.855,5.8483 11.8613,5.8416 C 11.9012,5.7999 11.9336,5.7517 11.957,5.699 C 11.961,5.691 11.964,5.6822 11.967,5.6736 C 11.9882,5.6181 11.9994,5.5594 12.0,5.5 L 12.0,3.5 C 12.0,3.2239 11.7762,3.0 11.5,3.0 L 3.5,3.0" fill="#000" /></svg>