<svg xmlns="http://www.w3.org/2000/svg" width="16" height="16"><path d="M 4.5,2.0 C 4.223,2.0 4.0,2.224 4.0,2.5 L 4.0,4.0 L 12.0,4.0 L 12.0,2.501 C 12.0,2.224 11.777,2.0 11.501,2.0 L 4.5,2.0 M 4.0,5.0 L 4.0,13.5 C 4.0,13.776 4.223,14.0 4.499,14.0 L 11.5,14.0 C 11.777,14.0 12.0,13.776 12.0,13.5 L 12.0,5.0 L 4.0,5.0 M 7.0,6.5 C 7.0,6.224 7.223,6.001 7.499,6.0 L 8.5,6.0 C 8.777,6.001 9.0,6.224 9.0,6.5 L 9.0,8.0 L 10.5,8.0 C 10.777,8.0 11.0,8.224 11.0,8.5 L 11.0,9.5 C 11.0,9.776 10.777,10.0 10.501,10.0 L 9.0,10.0 L 9.0,11.5 C 9.0,11.776 8.777,12.0 8.501,12.0 L 7.5,12.0 C 7.223,12.0 7.0,11.776 7.0,11.5 L 7.0,10.0 L 5.5,10.0 C 5.223,10.0 5.0,9.776 5.0,9.5 L 5.0,8.501 C 5.0,8.224 5.223,8.0 5.499,8.0 L 7.0,8.0 L 7.0,6.5" fill="#000" /></svg>