<svg xmlns="http://www.w3.org/2000/svg" width="16" height="16"><path d="M 12.0,2.5 L 12.0,4.0 L 4.0,4.0 L 4.0,2.5 C 4.0,2.2239 4.2239,2.0 4.5,2.0 L 11.5,2.0 C 11.7761,2.0 12.0,2.2239 12.0,2.5 M 12.0,13.5 C 12.0,13.7761 11.7761,14.0 11.5,14.0 L 4.5,14.0 C 4.2239,14.0 4.0,13.7761 4.0,13.5 L 4.0,5.0 L 12.0,5.0 L 12.0,13.5 M 5.0,8.5 L 5.0,9.5 C 5.0,9.7761 5.2239,10.0 5.5,10.0 L 7.0,10.0 L 7.0,11.5 C 7.0,11.7761 7.2239,12.0 7.5,12.0 L 8.5,12.0 C 8.7761,12.0 9.0,11.7761 9.0,11.5 L 9.0,10.0 L 10.5,10.0 C 10.7761,10.0 11.0,9.7761 11.0,9.5 L 11.0,8.5 C 11.0,8.2239 10.7761,8.0 10.5,8.0 L 9.0,8.0 L 9.0,6.5 C 9.0,6.2239 8.7761,6.0 8.5,6.0 C 8.5,6.0 7.5,6.0 7.5,6.0 C 7.2239,6.0 7.0,6.2239 7.0,6.5 L 7.0,8.0 L 5.5,8.0 C 5.2239,8.0 5.0,8.2239 5.0,8.5" fill="#000" /></svg>