<svg xmlns="http://www.w3.org/2000/svg" width="16" height="16"><path d="M 8.0,2.5 C 7.8674,2.5 7.7402,2.5527 7.6465,2.6465 L 6.1465,4.1465 C 6.0527,4.2403 6.0,4.3674 6.0,4.5 L 6.0,10.5 C 6.0,10.7761 6.2239,11.0 6.5,11.0 L 9.5,11.0 C 9.7761,11.0 10.0,10.7761 10.0,10.5 L 10.0,4.5 C 10.0,4.3674 9.9473,4.2402 9.8535,4.1465 L 8.3535,2.6465 C 8.2598,2.5527 8.1326,2.5 8.0,2.5 M 4.5,12.0 C 4.3674,12.0 4.2402,12.0527 4.1465,12.1465 L 3.1465,13.1465 C 2.8317,13.4615 3.0547,13.9998 3.5,14.0 L 12.5,14.0 C 12.9453,13.9998 13.1683,13.4615 12.8535,13.1465 L 11.8535,12.1465 C 11.7598,12.0527 11.6326,12.0 11.5,12.0 L 4.5,12.0" fill="#000" /></svg>