<svg xmlns="http://www.w3.org/2000/svg" width="16" height="16"><path d="M 7.5,1.0 C 5.9833,1.0 4.5,2.2493 4.5,4.166 C 4.5,5.0246 4.8834,5.5924 5.2305,6.0 L 9.7695,6.0 C 10.1166,5.5924 10.5,5.0246 10.5,4.166 C 10.5,2.2493 9.0167,1.0 7.5,1.0 M 5.9394,7.0 C 5.9786,7.1386 6.0,7.3 6.0,7.5 L 6.0,11.5 C 5.9999,11.5635 6.0118,11.6265 6.0352,11.6856 L 7.0,13.0977 L 7.0,14.5 C 7.0,14.7761 7.2239,15.0 7.5,15.0 C 7.7761,15.0 8.0,14.7761 8.0,14.5 L 8.0,13.0977 L 8.9648,11.6855 C 8.9882,11.6264 9.0001,11.5635 9.0,11.5 L 9.0,7.5 C 9.0,7.3 9.0213,7.1386 9.0606,7.0 L 5.9394,7.0" fill="#000" /></svg>