<svg xmlns="http://www.w3.org/2000/svg" width="16" height="16"><path d="M 7.0,2.0 C 6.446,2.0 6.0,2.446 6.0,3.0 L 6.0,7.0 C 6.0,7.554 6.446,8.0 7.0,8.0 L 8.0,8.0 C 8.554,8.0 9.0,7.554 9.0,7.0 L 9.0,3.0 C 9.0,2.446 8.554,2.0 8.0,2.0 L 7.0,2.0 M 4.5,4.5 C 4.223,4.5 4.0,4.723 4.0,5.0 L 4.0,7.0 A 3.0,3.0 0.0 0,0 4.8789,9.1211 A 3.0,3.0 0.0 0,0 7.0,10.0 L 7.0,12.0 C 7.0,12.277 7.223,12.5 7.5,12.5 C 7.777,12.5 8.0,12.277 8.0,12.0 L 8.0,10.0 A 3.0,3.0 0.0 0,0 10.1211,9.1211 A 3.0,3.0 0.0 0,0 11.0,7.0 L 11.0,5.0 C 11.0,4.723 10.777,4.5 10.5,4.5 C 10.223,4.5 10.0,4.723 10.0,5.0 L 10.0,7.0 A 2.0,2.0 0.0 0,1 9.4141,8.4141 A 2.0,2.0 0.0 0,1 8.0,9.0 L 7.0,9.0 A 2.0,2.0 0.0 0,1 5.5859,8.4141 A 2.0,2.0 0.0 0,1 5.0,7.0 L 5.0,5.0 C 5.0,4.723 4.777,4.5 4.5,4.5" fill="#000" /></svg>