<svg xmlns="http://www.w3.org/2000/svg" width="16" height="16"><path d="M 7.0,2.0 C 6.4167,2.0 5.8893,2.1536 5.5215,2.5215 C 5.1536,2.8893 5.0,3.4167 5.0,4.0 L 5.0,13.0 L 4.5,13.0 C 4.2239,13.0 4.0,13.2239 4.0,13.5 C 4.0,13.7761 4.2239,14.0 4.5,14.0 L 11.5,14.0 C 11.7761,14.0 12.0,13.7761 12.0,13.5 C 12.0,13.2239 11.7761,13.0 11.5,13.0 L 11.0,13.0 L 11.0,4.0 C 11.0,3.4167 10.8464,2.8893 10.4785,2.5215 C 10.1107,2.1536 9.5833,2.0 9.0,2.0 L 7.0,2.0 M 6.5,5.0 L 9.5,5.0 C 9.7761,5.0 10.0,5.2239 10.0,5.5 L 10.0,6.5 C 10.0,6.7761 9.7761,7.0 9.5,7.0 L 6.5,7.0 C 6.2239,7.0 6.0,6.7761 6.0,6.5 L 6.0,5.5 C 6.0,5.2239 6.2239,5.0 6.5,5.0 M 6.5,9.0 L 9.5,9.0 C 9.7761,9.0 10.0,9.2239 10.0,9.5 L 10.0,10.5 C 10.0,10.7761 9.7761,11.0 9.5,11.0 L 6.5,11.0 C 6.2239,11.0 6.0,10.7761 6.0,10.5 L 6.0,9.5 C 6.0,9.2239 6.2239,9.0 6.5,9.0" fill="#000" /></svg>