<svg xmlns="http://www.w3.org/2000/svg" width="16" height="16"><path d="M 8.0,2.0 C 4.6922,2.0 2.0,4.6922 2.0,8.0 C 2.0,11.3078 4.6922,14.0 8.0,14.0 C 11.3078,14.0 14.0,11.3078 14.0,8.0 C 14.0,4.6922 11.3078,2.0 8.0,2.0 M 8.0,3.0 A 0.5,0.5 0.0 0,1 8.3535,3.1465 C 8.6896,3.4825 9.0,3.9196 9.0,4.5 C 9.0,5.0803 8.6896,5.5174 8.3535,5.8535 A 0.5,0.5 0.0 0,1 7.6465,5.8535 A 0.5,0.5 0.0 0,1 7.6465,5.1465 C 7.9354,4.8575 8.0,4.7946 8.0,4.5 C 8.0,4.2053 7.9354,4.1424 7.6465,3.8535 A 0.5,0.5 0.0 0,1 7.6465,3.1465 A 0.5,0.5 0.0 0,1 8.0,3.0 M 4.8184,4.3184 C 5.2936,4.3184 5.822,4.408 6.2324,4.8184 C 6.6428,5.2287 6.7324,5.7571 6.7324,6.2324 A 0.5,0.5 0.0 0,1 6.2324,6.7324 A 0.5,0.5 0.0 0,1 5.7324,6.2324 C 5.7324,5.8238 5.7337,5.7337 5.5254,5.5254 C 5.317,5.3174 5.2269,5.3184 4.8184,5.3184 A 0.5,0.5 0.0 0,1 4.3184,4.8184 A 0.5,0.5 0.0 0,1 4.8184,4.3184 M 11.1816,4.3184 A 0.5,0.5 0.0 0,1 11.6816,4.8184 C 11.6816,5.2936 11.592,5.822 11.1816,6.2324 C 10.7713,6.6428 10.2429,6.7324 9.7676,6.7324 A 0.5,0.5 0.0 0,1 9.2676,6.2324 A 0.5,0.5 0.0 0,1 9.7676,5.7324 C 10.1762,5.7324 10.2663,5.7337 10.4746,5.5254 C 10.6826,5.317 10.6816,5.2269 10.6816,4.8184 A 0.5,0.5 0.0 0,1 11.1816,4.3184 M 4.5,7.0 C 5.0803,7.0 5.5174,7.3104 5.8535,7.6465 A 0.5,0.5 0.0 0,1 5.8535,8.3535 A 0.5,0.5 0.0 0,1 5.1465,8.3535 C 4.8575,8.0646 4.7946,8.0 4.5,8.0 C 4.2053,8.0 4.1424,8.0646 3.8535,8.3535 A 0.5,0.5 0.0 0,1 3.1465,8.3535 A 0.5,0.5 0.0 0,1 3.1465,7.6465 C 3.4825,7.3104 3.9196,7.0 4.5,7.0 M 8.0,7.0 C 8.5582,7.0 9.0,7.4418 9.0,8.0 C 9.0,8.5582 8.5582,9.0 8.0,9.0 C 7.4418,9.0 7.0,8.5582 7.0,8.0 C 7.0,7.4418 7.4418,7.0 8.0,7.0 M 10.5,7.5 A 0.5,0.5 0.0 0,1 10.8535,7.6465 C 11.1425,7.9354 11.2054,8.0 11.5,8.0 C 11.7947,8.0 11.8576,7.9354 12.1465,7.6465 A 0.5,0.5 0.0 0,1 12.5,7.5 A 0.5,0.5 0.0 0,1 12.8535,7.6465 A 0.5,0.5 0.0 0,1 12.8535,8.3535 C 12.5175,8.6896 12.0804,9.0 11.5,9.0 C 10.9197,9.0 10.4826,8.6896 10.1465,8.3535 A 0.5,0.5 0.0 0,1 10.1465,7.6465 A 0.5,0.5 0.0 0,1 10.5,7.5 M 6.2324,9.2676 A 0.5,0.5 0.0 0,1 6.7324,9.7676 A 0.5,0.5 0.0 0,1 6.2324,10.2676 C 5.8238,10.2676 5.7337,10.2663 5.5254,10.4746 C 5.3174,10.683 5.3184,10.7731 5.3184,11.1816 A 0.5,0.5 0.0 0,1 4.8184,11.6816 A 0.5,0.5 0.0 0,1 4.3184,11.1816 C 4.3184,10.7064 4.408,10.178 4.8184,9.7676 C 5.2287,9.3572 5.7571,9.2676 6.2324,9.2676 M 9.7676,9.2676 A 0.5,0.5 0.0 0,1 10.2676,9.7676 C 10.2676,10.1762 10.2663,10.2663 10.4746,10.4746 C 10.683,10.6826 10.7731,10.6816 11.1816,10.6816 A 0.5,0.5 0.0 0,1 11.6816,11.1816 A 0.5,0.5 0.0 0,1 11.1816,11.6816 C 10.7064,11.6816 10.178,11.592 9.7676,11.1816 C 9.3572,10.7713 9.2676,10.2429 9.2676,9.7676 A 0.5,0.5 0.0 0,1 9.7676,9.2676 M 8.0,10.0 A 0.5,0.5 0.0 0,1 8.3535,10.1465 A 0.5,0.5 0.0 0,1 8.3535,10.8535 C 8.0646,11.1425 8.0,11.2054 8.0,11.5 C 8.0,11.7947 8.0646,11.8576 8.3535,12.1465 A 0.5,0.5 0.0 0,1 8.3535,12.8535 A 0.5,0.5 0.0 0,1 7.6465,12.8535 C 7.3104,12.5175 7.0,12.0804 7.0,11.5 C 7.0,10.9197 7.3104,10.4826 7.6465,10.1465 A 0.5,0.5 0.0 0,1 8.0,10.0" fill="#000" /></svg>