<svg xmlns="http://www.w3.org/2000/svg" width="16" height="16"><path d="M 6.2031,1.7969 C 6.0909,1.7969 6.0,1.8878 6.0,2.0 C 6.0,3.1046 6.8954,4.0 8.0,4.0 C 9.1046,4.0 10.0,3.1046 10.0,2.0 C 10.0,1.8878 9.9091,1.7969 9.7969,1.7969 C 9.7149,1.7969 9.6409,1.8462 9.6094,1.9219 L 9.6074,1.9219 C 9.3473,2.5541 8.726,3.0002 8.0,3.0 C 7.2739,3.0002 6.6526,2.5541 6.3925,1.9219 L 6.3905,1.9219 C 6.359,1.8462 6.2851,1.7969 6.203,1.7969 L 6.2031,1.7969 M 8.0,5.0 C 7.3333,5.0 6.8055,5.3486 6.4844,5.75 C 6.1633,6.1514 6.0,6.5833 6.0,7.0 L 5.5,7.0 C 5.2239,7.0 5.0,7.2239 5.0,7.5 L 5.0,9.5 C 5.0002,9.6896 5.1076,9.8628 5.2773,9.9473 C 5.6581,10.1376 5.7894,10.3412 5.8906,10.7461 C 5.9919,11.151 6.0,11.75 6.0,12.5 L 6.0,14.5 C 6.0,14.7761 6.2239,15.0 6.5,15.0 L 9.5,15.0 C 9.7761,15.0 10.0,14.7761 10.0,14.5 L 10.0,12.5 C 10.0,11.75 10.008,11.151 10.1094,10.7461 C 10.2106,10.3412 10.3419,10.1376 10.7227,9.9473 C 10.8924,9.8628 10.9998,9.6896 11.0,9.5 L 11.0,7.5 C 11.0,7.2239 10.7761,7.0 10.5,7.0 L 10.0,7.0 C 10.0,6.5833 9.8367,6.1514 9.5156,5.75 C 9.1945,5.3486 8.6667,5.0 8.0,5.0 M 8.0,10.0 C 8.6554,10.0004 9.0,10.5665 9.0,11.0 L 9.0,12.5 C 9.0,12.777 8.777,13.0 8.5,13.0 L 7.5,13.0 C 7.223,13.0 7.0,12.777 7.0,12.5 L 7.0,11.0 C 7.0,10.5781 7.3376,10.001 8.0001,10.0 L 8.0,10.0" fill="#000" /></svg>