<svg xmlns="http://www.w3.org/2000/svg" width="16" height="16"><path d="M 4.5,6.0 C 4.0139,6.0 3.599,6.1802 3.2969,6.4219 C 2.9948,6.6635 2.7871,6.9492 2.5996,7.1992 C 2.4121,7.4492 2.2448,7.6635 2.0781,7.7969 C 1.9115,7.9302 1.7639,8.0 1.5,8.0 C 1.483,8.0004 1.4661,8.002 1.4492,8.004 C 1.4,8.01 1.352,8.023 1.3066,8.0431 C 1.2913,8.0491 1.2763,8.0567 1.2617,8.0646 C 1.2176,8.089 1.1774,8.12 1.1426,8.1564 C 1.1315,8.1689 1.1211,8.1819 1.1114,8.1955 C 1.101,8.2087 1.0912,8.2224 1.0821,8.2365 C 1.0731,8.2504 1.0658,8.2648 1.0587,8.2795 C 1.0367,8.3245 1.0215,8.3726 1.0138,8.4221 C 1.0108,8.4389 1.0088,8.4559 1.0078,8.4729 C 1.0048,8.5228 1.0098,8.5728 1.0215,8.6213 C 1.0255,8.6372 1.0315,8.6528 1.0371,8.6682 C 1.0478,8.6994 1.0615,8.7295 1.0781,8.758 C 1.0871,8.7728 1.0969,8.7872 1.1074,8.801 C 1.1174,8.8139 1.1276,8.8262 1.1386,8.8381 C 1.1836,8.8875 1.2381,8.9273 1.2987,8.9553 C 1.314,8.9623 1.3297,8.9678 1.3456,8.9729 C 1.3773,8.984 1.41,8.9918 1.4433,8.9963 C 1.4621,8.9983 1.481,9.0003 1.4999,9.0003 L 14.4999,9.0003 C 14.5169,8.9999 14.5338,8.9983 14.5507,8.9963 C 14.5671,8.9943 14.5834,8.9923 14.5995,8.9883 C 14.6648,8.974 14.7266,8.9468 14.7812,8.9082 C 14.8087,8.8893 14.8342,8.8677 14.8574,8.8438 C 14.8802,8.8192 14.9005,8.7924 14.9179,8.7637 C 14.9352,8.7353 14.9496,8.7052 14.9609,8.6739 C 14.9669,8.6585 14.9721,8.6429 14.9765,8.627 C 14.9805,8.6109 14.9835,8.5946 14.9865,8.5782 C 14.9915,8.5453 14.9935,8.5119 14.9925,8.4786 C 14.992,8.4616 14.9905,8.4447 14.9885,8.4278 C 14.9865,8.4114 14.9825,8.3951 14.9785,8.379 C 14.9705,8.3467 14.9595,8.3153 14.9453,8.2853 C 14.9383,8.2706 14.9304,8.2563 14.9219,8.2423 C 14.9129,8.2275 14.9031,8.2131 14.8926,8.1993 C 14.8729,8.1731 14.8506,8.1489 14.8262,8.127 C 14.8137,8.1159 14.8007,8.1055 14.7871,8.0958 C 14.7733,8.0858 14.7589,8.0768 14.7441,8.0685 C 14.7156,8.0519 14.6855,8.0382 14.6543,8.0275 C 14.6383,8.0225 14.622,8.0175 14.6055,8.0138 C 14.5709,8.0058 14.5356,8.0009 14.5,8.0001 C 14.2361,8.0001 14.0885,7.9303 13.9219,7.797 C 13.7552,7.6636 13.5879,7.4493 13.4004,7.1993 C 13.2129,6.9493 13.0052,6.6636 12.7031,6.422 C 12.401,6.1802 11.9861,6.0 11.5,6.0 C 11.0139,6.0 10.599,6.1802 10.2969,6.4219 C 9.9948,6.6635 9.7871,6.9492 9.5996,7.1992 C 9.4121,7.4492 9.2448,7.6635 9.0781,7.7969 C 8.9115,7.9302 8.7639,8.0 8.5,8.0 L 7.5059,8.0 L 7.4999,8.0 C 7.236,8.0 7.0884,7.9302 6.9217,7.7969 C 6.7551,7.6635 6.5878,7.4492 6.4003,7.1992 C 6.2128,6.9492 6.0051,6.6635 5.703,6.4219 C 5.401,6.1802 4.9861,6.0 4.5,6.0" fill="#000" /></svg>