<svg xmlns="http://www.w3.org/2000/svg" width="16" height="16"><path d="M 3.0,4.0 C 2.446,4.0 2.0,4.446 2.0,5.0 L 2.0,9.0 C 2.0,9.554 2.446,10.0 3.0,10.0 L 13.0,10.0 C 13.554,10.0 14.0,9.554 14.0,9.0 L 14.0,5.0 C 14.0,4.446 13.554,4.0 13.0,4.0 L 3.0,4.0 M 3.0,5.0 L 4.0,5.0 C 4.0,5.554 3.554,6.0 3.0,6.0 L 3.0,5.0 M 8.0,5.0 A 2.0,2.0 0.0 0,1 10.0,7.0 A 2.0,2.0 0.0 0,1 8.0,9.0 A 2.0,2.0 0.0 0,1 6.0,7.0 A 2.0,2.0 0.0 0,1 8.0,5.0 M 12.0,5.0 L 13.0,5.0 L 13.0,6.0 C 12.446,6.0 12.0,5.554 12.0,5.0 M 3.0,8.0 C 3.554,8.0 4.0,8.446 4.0,9.0 L 3.0,9.0 L 3.0,8.0 M 13.0,8.0 L 13.0,9.0 L 12.0,9.0 C 12.0,8.446 12.446,8.0 13.0,8.0 M 2.5,11.0 C 2.223,11.0 2.0,11.223 2.0,11.5 C 2.0,11.777 2.223,12.0 2.5,12.0 L 13.5,12.0 C 13.777,12.0 14.0,11.777 14.0,11.5 C 14.0,11.223 13.777,11.0 13.5,11.0 L 2.5,11.0" fill="#000" /></svg>