<svg xmlns="http://www.w3.org/2000/svg" width="16" height="16"><path d="M 5.0,3.0 C 4.446,3.0 4.0,3.446 4.0,4.0 L 4.0,10.0 L 5.5,10.0 C 5.777,10.0 6.0,10.223 6.0,10.5 C 6.0,10.777 5.777,11.0 5.5,11.0 L 4.0,11.0 L 4.0,13.0 C 4.0,13.554 4.446,14.0 5.0,14.0 L 6.0,14.0 L 6.0,13.5 C 6.0,12.669 6.6486,12.0 7.4551,12.0 L 8.5449,12.0 C 9.3514,12.0 10.0,12.669 10.0,13.5 L 10.0,14.0 L 11.0,14.0 C 11.554,14.0 12.0,13.554 12.0,13.0 L 12.0,11.0 L 10.5,11.0 C 10.223,11.0 10.0,10.777 10.0,10.5 C 10.0,10.223 10.223,10.0 10.5,10.0 L 12.0,10.0 L 12.0,4.0 C 12.0,3.446 11.554,3.0 11.0,3.0 L 5.0,3.0 M 5.75,4.0 L 10.25,4.0 C 10.6655,4.0 11.0,4.3345 11.0,4.75 L 11.0,8.25 C 11.0,8.6655 10.6655,9.0 10.25,9.0 L 5.75,9.0 C 5.3345,9.0 5.0,8.6655 5.0,8.25 L 5.0,4.75 C 5.0,4.3345 5.3345,4.0 5.75,4.0 M 7.5,13.0 C 7.223,13.0 7.0,13.223 7.0,13.5 L 7.0,15.0 L 9.0,15.0 L 9.0,13.5 C 9.0,13.223 8.777,13.0 8.5,13.0 L 7.5,13.0" fill="#000" /></svg>