<svg xmlns="http://www.w3.org/2000/svg" width="16" height="16"><path d="M 8.0,1.0 C 7.448,1.0 7.0,1.448 7.0,2.0 C 7.0,2.552 7.448,3.0 8.0,3.0 C 8.552,3.0 9.0,2.552 9.0,2.0 C 9.0,1.448 8.552,1.0 8.0,1.0 M 7.5,4.0 C 7.223,4.001 7.0,4.224 7.0,4.5 L 7.0,5.0 L 6.5,5.0 C 6.223,5.001 6.0,5.224 6.0,5.5 L 6.0,6.0 C 6.0,6.2 6.117,6.372 6.286,6.452 L 6.968,6.793 L 6.548,11.0 L 6.0,11.0 C 5.723,11.0 5.5,11.224 5.5,11.5 C 5.5,11.776 5.723,12.0 5.999,12.0 L 6.0,14.0 L 5.5,14.0 C 5.223,14.0 5.0,14.224 5.0,14.5 C 5.0,14.776 5.223,15.0 5.499,15.0 L 10.5,15.0 C 10.777,15.0 11.0,14.776 11.0,14.5 C 11.0,14.224 10.777,14.0 10.501,14.0 L 10.0,14.0 L 10.0,12.0 C 10.277,12.0 10.5,11.776 10.5,11.5 C 10.5,11.224 10.277,11.0 10.0,11.0 L 9.452,11.0 L 9.032,6.793 L 9.714,6.452 C 9.883,6.372 10.0,6.2 10.0,6.0 L 10.0,5.501 C 10.0,5.224 9.777,5.001 9.501,5.0 L 9.0,5.0 L 9.0,4.501 C 9.0,4.224 8.777,4.001 8.501,4.0 L 7.5,4.0" fill="#000" /></svg>