<svg xmlns="http://www.w3.org/2000/svg" width="16" height="16"><path d="M 7.0,2.0 C 7.0,1.4477 7.4477,1.0 8.0,1.0 C 8.5523,1.0 9.0,1.4477 9.0,2.0 C 9.0,2.5523 8.5523,3.0 8.0,3.0 C 7.4477,3.0 7.0,2.5523 7.0,2.0 M 7.5,4.0 L 8.5,4.0 C 8.7761,4.0 9.0,4.2239 9.0,4.5 L 9.0,5.0 L 9.5,5.0 C 9.7761,5.0 10.0,5.2239 10.0,5.5 L 10.0,6.0 C 10.0,6.1996 9.883,6.3719 9.7139,6.4521 L 9.0318,6.7931 L 9.4525,11.0 L 10.0,11.0 C 10.2762,11.0 10.5,11.2239 10.5,11.5 C 10.5,11.7761 10.2762,12.0 10.0,12.0 C 10.0,12.0 10.0,13.2704 10.0,14.0 L 10.5,14.0 C 10.7762,14.0 11.0,14.2239 11.0,14.5 C 11.0,14.7761 10.7762,15.0 10.5,15.0 L 5.5,15.0 C 5.2239,15.0 5.0,14.7761 5.0,14.5 C 5.0,14.2239 5.2239,14.0 5.5,14.0 L 6.0,14.0 L 6.0,12.0 C 5.7239,12.0 5.5,11.7761 5.5,11.5 C 5.5,11.2239 5.7239,11.0 6.0,11.0 L 6.5475,11.0 L 6.9682,6.7931 L 6.2861,6.4521 C 6.117,6.3719 6.0,6.1996 6.0,6.0 C 6.0,6.0 6.0,5.5 6.0,5.5 C 6.0,5.2239 6.2239,5.0 6.5,5.0 L 7.0,5.0 L 7.0,4.5 C 7.0,4.2239 7.2239,4.0 7.5,4.0 L 7.5,4.0" fill="#000" /></svg>