<svg xmlns="http://www.w3.org/2000/svg" width="16" height="16"><path d="M 8.0,1.0 A 1.0,1.0 0.0 0,0 7.0,2.0 A 1.0,1.0 0.0 0,0 8.0,3.0 A 1.0,1.0 0.0 0,0 9.0,2.0 A 1.0,1.0 0.0 0,0 8.0,1.0 M 7.5,4.0 C 7.2239,4.0 7.0,4.2239 7.0,4.5 L 7.0,5.0 L 6.5,5.0 C 6.2239,5.0 6.0,5.2239 6.0,5.5 L 6.0,6.0 C 6.0002,6.1896 6.1076,6.3628 6.2773,6.4473 L 6.9688,6.793 L 6.5469,11.0 L 6.0,11.0 C 5.7239,11.0 5.5,11.2239 5.5,11.5 C 5.5,11.7761 5.7239,12.0 6.0,12.0 L 6.0,14.0 L 5.5,14.0 C 5.2239,14.0 5.0,14.2239 5.0,14.5 C 5.0,14.7761 5.2239,15.0 5.5,15.0 L 10.5,15.0 C 10.7761,15.0 11.0,14.7761 11.0,14.5 C 11.0,14.2239 10.7761,14.0 10.5,14.0 L 10.0,14.0 L 10.0,12.0 C 10.2761,12.0 10.5,11.7761 10.5,11.5 C 10.5,11.2239 10.2761,11.0 10.0,11.0 L 9.4531,11.0 L 9.0312,6.793 L 9.7227,6.4473 C 9.8924,6.3628 9.9998,6.1896 10.0,6.0 L 10.0,5.5 C 10.0,5.2239 9.7761,5.0 9.5,5.0 L 9.0,5.0 L 9.0,4.5 C 9.0,4.2239 8.7761,4.0 8.5,4.0 L 7.5,4.0" fill="#000" /></svg>