<svg xmlns="http://www.w3.org/2000/svg" width="16" height="16"><path d="M 5.0,1.0 L 5.0,2.0 L 3.5,2.0 C 3.224,2.0 3.0,2.224 3.0,2.5 L 3.0,4.5 C 3.0,4.776 3.224,5.0 3.5,5.0 L 5.0,5.0 L 5.0,6.0 L 3.5,6.0 C 3.224,6.0 3.0,6.224 3.0,6.5 L 3.0,8.5 C 3.0,8.776 3.224,9.0 3.5,9.0 L 5.0,9.0 L 5.0,10.0 L 3.5,10.0 C 3.224,10.0 3.0,10.224 3.0,10.5 L 3.0,12.5 C 3.0,12.776 3.224,13.0 3.5,13.0 L 5.0,13.0 L 5.0,14.0 L 6.0,14.0 L 6.0,13.0 L 10.0,13.0 L 10.0,14.0 L 11.0,14.0 L 11.0,13.0 L 12.5,13.0 C 12.776,13.0 13.0,12.776 13.0,12.5 L 13.0,10.5 C 13.0,10.224 12.776,10.0 12.5,10.0 L 11.0,10.0 L 11.0,9.0 L 12.5,9.0 C 12.776,9.0 13.0,8.776 13.0,8.5 L 13.0,6.5 C 13.0,6.224 12.776,6.0 12.5,6.0 L 11.0,6.0 L 11.0,5.0 L 12.5,5.0 C 12.776,5.0 13.0,4.776 13.0,4.5 L 13.0,2.5 C 13.0,2.224 12.776,2.0 12.5,2.0 L 11.0,2.0 L 11.0,1.0 L 10.0,1.0 L 10.0,2.0 L 6.0,2.0 L 6.0,1.0 L 5.0,1.0 M 4.0,3.5 C 4.0,3.224 4.224,3.0 4.5,3.0 C 4.776,3.0 5.0,3.224 5.0,3.5 C 5.0,3.776 4.776,4.0 4.5,4.0 C 4.224,4.0 4.0,3.776 4.0,3.5 M 11.0,3.5 C 11.0,3.224 11.224,3.0 11.5,3.0 C 11.776,3.0 12.0,3.224 12.0,3.5 C 12.0,3.776 11.776,4.0 11.5,4.0 C 11.224,4.0 11.0,3.776 11.0,3.5 M 6.0,6.0 L 6.0,5.0 L 10.0,5.0 L 10.0,6.0 L 6.0,6.0 M 4.0,7.5 C 4.0,7.224 4.224,7.0 4.5,7.0 C 4.776,7.0 5.0,7.224 5.0,7.5 C 5.0,7.776 4.776,8.0 4.5,8.0 C 4.224,8.0 4.0,7.776 4.0,7.5 M 11.0,7.5 C 11.0,7.224 11.224,7.0 11.5,7.0 C 11.776,7.0 12.0,7.224 12.0,7.5 C 12.0,7.776 11.776,8.0 11.5,8.0 C 11.224,8.0 11.0,7.776 11.0,7.5 M 6.0,10.0 L 6.0,9.0 L 10.0,9.0 L 10.0,10.0 L 6.0,10.0 M 4.0,11.5 C 4.0,11.224 4.224,11.0 4.5,11.0 C 4.776,11.0 5.0,11.224 5.0,11.5 C 5.0,11.776 4.776,12.0 4.5,12.0 C 4.224,12.0 4.0,11.776 4.0,11.5 M 11.0,11.5 C 11.0,11.224 11.224,11.0 11.5,11.0 C 11.776,11.0 12.0,11.224 12.0,11.5 C 12.0,11.776 11.776,12.0 11.5,12.0 C 11.224,12.0 11.0,11.776 11.0,11.5" fill="#000" /></svg>