<svg xmlns="http://www.w3.org/2000/svg" width="16" height="16"><path d="M 5.5,3.0 C 5.223,3.0 5.0,3.223 5.0,3.5 L 5.0,4.5 C 5.0,4.777 5.223,5.0 5.5,5.0 C 5.777,5.0 6.0,4.777 6.0,4.5 L 6.0,3.5 C 6.0,3.223 5.777,3.0 5.5,3.0 M 7.5,3.0 C 7.223,3.0 7.0,3.223 7.0,3.5 L 7.0,4.5 C 7.0,4.777 7.223,5.0 7.5,5.0 C 7.777,5.0 8.0,4.777 8.0,4.5 L 8.0,3.5 C 8.0,3.223 7.777,3.0 7.5,3.0 M 9.5,3.0 C 9.223,3.0 9.0,3.223 9.0,3.5 L 9.0,4.5 C 9.0,4.777 9.223,5.0 9.5,5.0 C 9.777,5.0 10.0,4.777 10.0,4.5 L 10.0,3.5 C 10.0,3.223 9.777,3.0 9.5,3.0 M 11.6465,4.1465 L 9.5918,6.2012 C 9.426,6.0773 9.2241,6.0 9.0,6.0 L 6.0,6.0 C 5.446,6.0 5.0,6.446 5.0,7.0 C 5.0,7.554 5.446,8.0 6.0,8.0 C 6.493,8.0 6.8811,8.3599 6.9648,8.8281 L 3.6465,12.1465 C 3.1549,12.6177 3.8822,13.3451 4.3535,12.8535 L 12.3535,4.8535 C 12.8371,4.3807 12.0993,3.683 11.6465,4.1465 M 10.0,8.6211 L 6.0,12.6211 L 6.0,13.0 C 6.0,13.554 6.446,14.0 7.0,14.0 L 9.0,14.0 C 9.554,14.0 10.0,13.554 10.0,13.0 L 10.0,8.6211" fill="#000" /></svg>