<svg xmlns="http://www.w3.org/2000/svg" width="16" height="16"><path d="M 11.1465,1.8535 L 12.293,3.0 L 11.1465,4.1465 C 10.6563,4.6178 11.3823,5.3438 11.8535,4.8535 L 13.0,3.707 L 14.1465,4.8535 C 14.6177,5.3438 15.3437,4.6178 14.8535,4.1465 L 13.707,3.0 L 14.8535,1.8535 C 15.3371,1.3807 14.5993,0.683 14.1465,1.1465 L 13.0,2.293 L 11.8535,1.1465 C 11.4002,0.678 10.6589,1.3816 11.1465,1.8535 M 3.5,2.0 C 2.8238,1.99 2.8238,3.0096 3.5,3.0 L 5.0898,3.0 L 5.8926,7.0098 C 5.888,7.0108 5.8834,7.0128 5.8789,7.0138 C 3.7327,7.0796 2.0,8.8383 2.0,11.0 C 2.0,13.2032 3.7968,15.0 6.0,15.0 C 8.2032,15.0 10.0,13.2032 10.0,11.0 C 10.0,9.8003 9.4563,8.7342 8.6152,8.0 L 11.0898,8.0 L 11.9141,12.1211 C 11.3787,12.3511 11.0,12.8847 11.0,13.5 C 11.0,14.3225 11.6775,15.0 12.5,15.0 C 13.3225,15.0 14.0,14.3225 14.0,13.5 C 14.0,12.8254 13.5416,12.256 12.9238,12.0703 L 11.9902,7.4023 C 11.9436,7.1685 11.7384,7.0001 11.5,7.0 L 6.9082,7.0 L 6.5098,5.0 L 9.5,5.0 C 10.1762,5.01 10.1762,3.9904 9.5,4.0 L 6.5,4.0 C 6.4373,3.9995 6.375,4.0107 6.3164,4.0332 L 5.9902,2.4023 C 5.9436,2.1685 5.7384,2.0001 5.5,2.0 L 3.5,2.0 M 6.0,8.0 C 7.6628,8.0 9.0,9.3372 9.0,11.0 C 9.0,12.6628 7.6628,14.0 6.0,14.0 C 4.3372,14.0 3.0,12.6628 3.0,11.0 C 3.0,9.3372 4.3372,8.0 6.0,8.0 M 12.5,13.0 C 12.8086,13.0004 13.0,13.2382 13.0,13.5 C 13.0,13.7821 12.7821,14.0 12.5,14.0 C 12.2179,14.0 12.0,13.7821 12.0,13.5 C 12.0,13.2376 12.1914,12.9996 12.5,13.0" fill="#000" /></svg>