<svg xmlns="http://www.w3.org/2000/svg" width="16" height="16"><path d="M 10.5,1.0 C 10.3674,1.0 10.2402,1.0527 10.1465,1.1465 C 9.9513,1.3417 9.9513,1.6583 10.1465,1.8535 L 11.293,3.0 L 10.1465,4.1465 C 9.9513,4.3417 9.9513,4.6583 10.1465,4.8535 C 10.3417,5.0487 10.6583,5.0487 10.8535,4.8535 L 12.0,3.707 L 13.1465,4.8535 C 13.3417,5.0487 13.6583,5.0487 13.8535,4.8535 C 14.0487,4.6583 14.0487,4.3417 13.8535,4.1465 L 12.707,3.0 L 13.8535,1.8535 C 14.0487,1.6583 14.0487,1.3417 13.8535,1.1465 C 13.7598,1.0527 13.6326,1.0 13.5,1.0 C 13.3674,1.0 13.2402,1.0527 13.1465,1.1465 L 12.0,2.293 L 10.8535,1.1465 C 10.7598,1.0527 10.6326,1.0 10.5,1.0 M 2.5,1.0 C 2.2239,1.0 2.0,1.2239 2.0,1.5 C 2.0,1.7761 2.2239,2.0 2.5,2.0 C 3.0051,1.9991 3.39,2.0812 3.6289,2.1992 C 3.8678,2.3173 3.9664,2.4378 4.0176,2.6289 L 4.2656,3.6211 C 4.2676,3.6311 4.2706,3.6407 4.2736,3.6504 L 4.6486,5.1484 C 4.6516,5.1622 4.6546,5.1759 4.6586,5.1894 L 4.8617,6.0019 C 2.7214,6.0754 1.0,7.8432 1.0,10.0 C 1.0,12.2032 2.7968,14.0 5.0,14.0 C 7.2032,14.0 9.0,12.2032 9.0,10.0 L 10.6894,10.0 L 10.9141,11.1211 C 10.3784,11.3512 10.0,11.8848 10.0,12.5 C 10.0,13.3225 10.6775,14.0 11.5,14.0 C 12.3225,14.0 13.0,13.3225 13.0,12.5 C 13.0,11.8238 12.5419,11.2448 11.9219,11.0606 L 10.9902,6.4023 C 10.9436,6.1685 10.7384,6.0001 10.5,6.0 L 5.8906,6.0 L 5.6816,5.1641 C 5.995,4.8069 6.8807,4.0 8.5,4.0 C 9.1573,3.991 9.1573,3.0093 8.5,3.0 L 5.1406,3.0 L 4.9844,2.3789 C 4.9837,2.3759 4.9835,2.3739 4.9824,2.3709 C 4.856,1.8991 4.5109,1.5193 4.0722,1.3025 C 3.6338,1.0865 3.1071,0.9989 2.5,1.0 M 5.0,7.0 C 5.0373,7.0 5.0744,7.0005 5.1113,7.002 C 6.7111,7.061 8.0,8.3864 8.0,10.0 C 8.0,10.1032 7.995,10.2061 7.9844,10.3067 L 7.9844,10.3087 C 7.9741,10.4086 7.9594,10.5068 7.9395,10.6036 L 7.9395,10.6056 C 7.9195,10.7024 7.8944,10.7976 7.8653,10.8908 C 7.5745,11.8344 6.8343,12.5746 5.8907,12.8654 C 5.6091,12.953 5.3096,13.0 5.0,13.0 C 4.8962,13.0 4.7926,12.995 4.6914,12.9844 C 4.5909,12.9743 4.4937,12.9592 4.3965,12.9395 L 4.3945,12.9395 C 4.2979,12.9199 4.2022,12.8939 4.1093,12.8653 C 3.1657,12.5745 2.4255,11.8343 2.1347,10.8907 C 2.1056,10.7975 2.0805,10.7023 2.0605,10.6055 L 2.0605,10.6035 C 2.0406,10.5067 2.0259,10.4085 2.0156,10.3086 L 2.0156,10.3066 C 2.0053,10.2061 2.0,10.1032 2.0,10.0 C 2.0,9.8967 2.006,9.7939 2.0156,9.6934 L 2.0156,9.6914 C 2.0257,9.5909 2.0408,9.4937 2.0605,9.3964 L 2.0605,9.3944 C 2.0801,9.2978 2.1061,9.2022 2.1347,9.1093 C 2.4255,8.1657 3.1657,7.4255 4.1093,7.1347 C 4.3906,7.0482 4.6895,7.0 5.0,7.0 M 5.3769,8.0352 L 5.7871,9.625 C 5.8441,9.8458 6.0434,10.0001 6.2715,10.0 L 7.0,10.0 C 7.0,9.0187 6.3048,8.21 5.3769,8.0352 M 11.5,12.0 C 11.7821,12.0 12.0,12.2179 12.0,12.5 C 12.0,12.7821 11.7821,13.0 11.5,13.0 C 11.2179,13.0 11.0,12.7821 11.0,12.5 C 11.0,12.2179 11.2179,12.0 11.5,12.0" fill="#000" /></svg>