<svg xmlns="http://www.w3.org/2000/svg" width="16" height="16"><path d="M 8.5,2.0 C 6.7205,2.0 5.2432,3.3416 5.0273,5.0644 C 4.5435,5.1975 4.1264,5.5256 3.7969,5.9375 C 3.3643,6.4782 3.0372,7.1812 2.7754,7.9668 C 2.2669,9.4922 2.0,11.5 2.0,13.0 C 2.0009,13.5746 2.8116,13.6943 2.9785,13.1445 C 3.5532,11.2289 4.0441,10.6324 4.5273,10.1641 L 5.0254,11.6582 C 5.1769,12.115 5.8231,12.115 5.9746,11.6582 L 6.4727,10.1641 C 6.9559,10.6324 7.4468,11.2289 8.0215,13.1445 C 8.1884,13.6943 9.0,13.5746 9.0,13.0 C 9.0,11.5 8.6977,9.614 8.2246,7.9668 C 7.9627,7.1812 7.6356,6.4782 7.2031,5.9375 C 6.8876,5.5431 6.4928,5.2251 6.0351,5.082 C 6.2325,3.8962 7.2558,3.0 8.5,3.0 C 9.8866,3.0 11.0,4.1134 11.0,5.5 C 11.0,5.7761 11.2239,6.0 11.5,6.0 C 11.7761,6.0 12.0,5.7761 12.0,5.5 C 12.0,3.5729 10.4271,2.0 8.5,2.0" fill="#000" /></svg>