<svg xmlns="http://www.w3.org/2000/svg" width="16" height="16"><path d="M 4.0,3.5762 L 4.0,4.5 C 4.0,4.777 4.223,5.0 4.5,5.0 C 4.777,5.0 5.0,4.777 5.0,4.5 L 5.0,4.2383 L 9.0,5.8398 L 9.0,6.5 C 9.0,6.777 9.223,7.0 9.5,7.0 C 9.777,7.0 10.0,6.777 10.0,6.5 L 10.0,6.2382 L 11.8144,6.9648 C 12.4342,7.2122 12.8053,6.2825 12.1855,6.0351 L 4.6855,3.0351 C 4.3991,2.9181 4.0,3.0749 4.0,3.5762 M 4.5,5.5 C 4.5,7.5 4.5,8.5 6.5,10.5 C 6.5,8.5 6.5,5.5 4.5,5.5 C 2.5,5.5 2.5,8.5 2.5,10.5 C 4.5,8.5 4.5,7.5 4.5,5.5 M 9.5,7.5 C 9.5,9.5 9.5,10.5 11.5,12.5 C 11.5,10.5 11.5,7.5 9.5,7.5 C 7.5,7.5 7.5,10.5 7.5,12.5 C 9.5,10.5 9.5,9.5 9.5,7.5" fill="#000" /></svg>