<svg xmlns="http://www.w3.org/2000/svg" width="16" height="16"><path d="M 4.0527,1.2773 C 3.93,1.5244 4.0305,1.8242 4.2773,1.9473 L 14.2773,6.9473 C 14.5244,7.07 14.8241,6.9695 14.9473,6.7227 C 15.07,6.4756 14.9695,6.1758 14.7227,6.0527 L 4.7227,1.0527 C 4.4837,0.9345 4.1793,1.0242 4.0527,1.2773 M 4.5,3.0 C 3.8128,3.0 3.2591,3.3976 2.9278,3.8947 C 2.5833,4.4114 2.3895,5.0611 2.2578,5.7853 C 1.9945,7.2336 2.0,9.0 2.0,10.5 C 2.001,11.1028 2.8711,11.1885 2.9902,10.5977 C 3.2285,9.4063 3.436,8.7563 3.6016,8.3868 L 4.0254,9.6582 C 4.1769,10.115 4.8231,10.115 4.9746,9.6582 L 5.3984,8.3868 C 5.564,8.7563 5.7715,9.4063 6.0098,10.5977 C 6.1289,11.1886 6.9986,11.1028 7.0,10.5 C 7.0,9.0 7.006,7.2336 6.7422,5.7852 C 6.6105,5.0609 6.4167,4.4112 6.0723,3.8945 C 5.7278,3.3778 5.1872,3.0 4.5,3.0 M 10.5,6.0 C 9.8578,6.0 9.2878,6.346 8.9278,6.8947 C 8.5871,7.4139 8.3895,8.0611 8.2578,8.7853 C 7.9945,10.2336 8.0,12.0 8.0,13.5 C 8.001,14.1028 8.8711,14.1885 8.9902,13.5977 C 9.2285,12.4063 9.436,11.7563 9.6016,11.3868 L 10.0254,12.6582 C 10.1769,13.115 10.8231,13.115 10.9746,12.6582 L 11.3984,11.3868 C 11.564,11.7563 11.7715,12.4063 12.0098,13.5977 C 12.1289,14.1886 12.9986,14.1028 13.0,13.5 C 13.0,12.0 13.006,10.2336 12.7422,8.7852 C 12.6105,8.0609 12.4167,7.4112 12.0723,6.8945 C 11.7278,6.3778 11.1667,6.0 10.5,6.0" fill="#000" /></svg>