<svg xmlns="http://www.w3.org/2000/svg" width="16" height="16"><path d="M 7.5,2.0 C 7.6996,2.0 7.8719,2.117 7.9521,2.2861 L 8.9427,4.2674 C 8.9721,4.3231 8.9912,4.3851 8.9976,4.4508 L 9.9475,13.0 L 10.5,13.0 C 10.7761,13.0 11.0,13.2239 11.0,13.5 C 11.0,13.7761 10.7761,14.0 10.5,14.0 L 4.5,14.0 C 4.2239,14.0 4.0,13.7761 4.0,13.5 C 4.0,13.2239 4.2239,13.0 4.5,13.0 L 5.0525,13.0 L 6.0024,4.4508 C 6.0088,4.3851 6.0279,4.3231 6.0573,4.2674 L 7.0479,2.2861 C 7.1281,2.117 7.3004,2.0 7.5,2.0 L 7.5,2.0" fill="#000" /></svg>