<svg xmlns="http://www.w3.org/2000/svg" width="16" height="16"><path d="M 7.5,2.0 C 7.3104,2.0002 7.1372,2.1076 7.0527,2.2773 L 6.0527,4.2773 C 6.0267,4.33 6.0102,4.3869 6.0039,4.4453 L 5.0527,13.0 L 4.5,13.0 A 0.5,0.5 135.0 0,0 4.0,13.5 L 4.0,13.501 A 0.499,0.499 45.0 0,0 4.499,14.0 L 10.5,14.0 A 0.5,0.5 135.0 0,0 11.0,13.5 A 0.5,0.5 45.0 0,0 10.5,13.0 L 9.9473,13.0 L 8.9961,4.4453 C 8.9901,4.3869 8.9733,4.33 8.9473,4.2773 L 7.9473,2.2773 C 7.8628,2.1076 7.6896,2.0002 7.5,2.0" fill="#000" /></svg>