<svg xmlns="http://www.w3.org/2000/svg" width="16" height="16"><path d="M 8.0,1.0 C 6.2145,1.0 4.5627,1.9537 3.6699,3.5 C 3.5316,3.7394 3.6138,4.0457 3.8535,4.1836 C 4.0925,4.3206 4.3973,4.2385 4.5352,4.0 C 5.2501,2.7617 6.5701,2.0 8.0,2.0 C 9.4299,2.0 10.7499,2.7617 11.4648,4.0 C 11.6027,4.2385 11.9075,4.3206 12.1465,4.1836 C 12.3862,4.0457 12.4684,3.7394 12.3301,3.5 C 11.4373,1.9537 9.7855,1.0 8.0,1.0 M 8.0,3.0 C 6.929,3.0 5.9378,3.5725 5.4023,4.5 C 5.2636,4.7389 5.3449,5.045 5.584,5.1836 C 5.8234,5.322 6.1297,5.2397 6.2676,5.0 C 6.6252,4.3805 7.2847,4.0 8.0,4.0 C 8.7153,4.0 9.3748,4.3805 9.7324,5.0 C 9.8703,5.2397 10.1766,5.322 10.416,5.1836 C 10.655,5.045 10.7364,4.7389 10.5977,4.5 C 10.0622,3.5725 9.071,3.0 8.0,3.0 M 8.0,5.0 C 7.4477,5.0 7.0,5.4477 7.0,6.0 L 6.5,6.0 C 6.2239,6.0 6.0,6.2239 6.0,6.5 L 6.0,8.0 L 5.0,8.0 L 5.0,7.5 C 5.0,7.2239 4.7761,7.0 4.5,7.0 L 1.5,7.0 C 1.2239,7.0 1.0,7.2239 1.0,7.5 L 1.0,11.5 C 1.0,11.7761 1.2239,12.0 1.5,12.0 L 4.5,12.0 C 4.7761,12.0 5.0,11.7761 5.0,11.5 L 5.0,11.0 L 6.0,11.0 L 6.0,12.5 C 6.0,12.7761 6.2239,13.0 6.5,13.0 L 7.0,13.0 C 7.0,13.5523 7.4477,14.0 8.0,14.0 C 8.5523,14.0 9.0,13.5523 9.0,13.0 L 9.5,13.0 C 9.7761,13.0 10.0,12.7761 10.0,12.5 L 10.0,11.0 L 11.0,11.0 L 11.0,11.5 C 11.0,11.7761 11.2239,12.0 11.5,12.0 L 14.5,12.0 C 14.7761,12.0 15.0,11.7761 15.0,11.5 L 15.0,7.5 C 15.0,7.2239 14.7761,7.0 14.5,7.0 L 11.5,7.0 C 11.2239,7.0 11.0,7.2239 11.0,7.5 L 11.0,8.0 L 10.0,8.0 L 10.0,6.5 C 10.0,6.2239 9.7761,6.0 9.5,6.0 L 9.0,6.0 C 9.0,5.4477 8.5523,5.0 8.0,5.0 M 5.0,9.0 L 6.0,9.0 L 6.0,10.0 L 5.0,10.0 L 5.0,9.0 M 10.0,9.0 L 11.0,9.0 L 11.0,10.0 L 10.0,10.0 L 10.0,9.0" fill="#000" /></svg>