<svg xmlns="http://www.w3.org/2000/svg" width="16" height="16"><path d="M 8.0,1.0 C 8.5523,1.0 9.0,1.4477 9.0,2.0 C 9.5523,2.0 10.0,2.4477 10.0,3.0 C 10.0,3.5523 9.5523,4.0 9.0,4.0 L 9.0,5.0 L 10.0,5.0 C 10.0,4.4477 10.4477,4.0 11.0,4.0 C 11.5523,4.0 12.0,4.4477 12.0,5.0 C 12.5523,5.0 13.0,5.4477 13.0,6.0 C 13.0,6.5523 12.5523,7.0 12.0,7.0 C 12.0,7.5523 11.5523,8.0 11.0,8.0 C 10.4477,8.0 10.0,7.5523 10.0,7.0 L 9.0,7.0 L 9.0,12.0 C 9.5523,12.0 10.0,12.4477 10.0,13.0 C 10.0,13.5523 9.5523,14.0 9.0,14.0 C 9.0,14.5523 8.5523,15.0 8.0,15.0 C 7.4477,15.0 7.0,14.5523 7.0,14.0 C 6.4477,14.0 6.0,13.5523 6.0,13.0 C 6.0,12.4477 6.4477,12.0 7.0,12.0 L 7.0,7.0 L 6.0,7.0 C 6.0,7.5523 5.5523,8.0 5.0,8.0 C 4.4477,8.0 4.0,7.5523 4.0,7.0 C 3.4477,7.0 3.0,6.5523 3.0,6.0 C 3.0,5.4477 3.4477,5.0 4.0,5.0 C 4.0,4.4477 4.4477,4.0 5.0,4.0 C 5.5523,4.0 6.0,4.4477 6.0,5.0 L 7.0,5.0 L 7.0,4.0 C 6.4477,4.0 6.0,3.5523 6.0,3.0 C 6.0,2.4477 6.4477,2.0 7.0,2.0 C 7.0,1.4477 7.4477,1.0 8.0,1.0" fill="#000" /></svg>