<svg xmlns="http://www.w3.org/2000/svg" width="16" height="16"><path d="M 8.0,1.0 C 7.448,1.0 7.0,1.448 7.0,2.0 C 6.447,2.0 6.0,2.448 6.0,3.0 C 6.0,3.552 6.447,4.0 6.998,4.0 L 7.0,5.0 L 6.0,5.0 C 6.0,4.448 5.552,4.0 5.0,4.0 C 4.448,4.0 4.0,4.448 4.0,5.0 C 3.447,5.001 3.0,5.448 3.0,6.0 C 3.0,6.552 3.447,6.999 3.998,7.0 C 4.0,7.552 4.448,8.0 5.0,8.0 C 5.552,8.0 6.0,7.552 6.0,7.0 L 7.0,7.0 L 7.0,12.0 C 6.447,12.0 6.0,12.448 6.0,13.0 C 6.0,13.552 6.447,14.0 6.998,14.0 C 7.0,14.552 7.448,15.0 8.0,15.0 C 8.552,15.0 9.0,14.552 9.0,14.0 C 9.553,14.0 10.0,13.552 10.0,13.0 C 10.0,12.448 9.553,12.0 9.002,12.0 L 9.0,7.0 L 10.0,7.0 C 10.0,7.552 10.448,8.0 11.0,8.0 C 11.552,8.0 12.0,7.552 12.0,7.0 C 12.553,6.999 13.0,6.552 13.0,6.0 C 13.0,5.448 12.553,5.001 12.002,5.0 C 12.0,4.448 11.552,4.0 11.0,4.0 C 10.448,4.0 10.0,4.448 10.0,5.0 L 9.0,5.0 L 9.0,4.0 C 9.553,4.0 10.0,3.552 10.0,3.0 C 10.0,2.448 9.553,2.0 9.002,2.0 C 9.0,1.448 8.552,1.0 8.0,1.0" fill="#000" /></svg>