<svg xmlns="http://www.w3.org/2000/svg" width="16" height="16"><path d="M 5.5,3.0 C 5.223,3.0 5.0,3.223 5.0,3.5 L 5.0,11.5 C 5.0,11.777 5.223,12.0 5.5,12.0 L 6.5,12.0 C 6.777,12.0 7.0,11.777 7.0,11.5 L 7.0,9.0 L 9.8438,9.0 L 10.0,9.0 C 11.645,9.0 13.0,7.645 13.0,6.0 C 13.0,4.355 11.645,3.0 10.0,3.0 L 9.8125,3.0 L 6.5,3.0 L 5.5,3.0 M 7.0,5.0 L 9.8438,5.0 L 10.0,5.0 C 10.5641,5.0 11.0,5.4359 11.0,6.0 C 11.0,6.5641 10.5641,7.0 10.0,7.0 L 9.9063,7.0 L 7.0,7.0 L 7.0,5.0 L 7.0,5.0" fill="#000" /><path d="M 11.4981,9.9981 A 0.5,0.5 0.0 0,0 11.1504,10.8574 L 12.2969,12.0039 L 9.5039,12.0039 A 0.5,0.5 0.0 1,0 9.5039,13.0039 L 12.2969,13.0039 L 11.1504,14.1504 A 0.5,0.5 0.0 1,0 11.8574,14.8574 L 13.8574,12.8574 A 0.5,0.5 0.0 0,0 13.8574,12.1504 L 11.8574,10.1504 A 0.5,0.5 0.0 0,0 11.4981,9.9981" fill="#000" /></svg>