<svg xmlns="http://www.w3.org/2000/svg" width="16" height="16"><path d="M 5.5,3.0 C 5.223,3.0 5.0,3.223 5.0,3.5 L 5.0,11.5 C 5.0,11.777 5.223,12.0 5.5,12.0 L 6.5,12.0 C 6.777,12.0 7.0,11.777 7.0,11.5 L 7.0,9.0 L 10.0,9.0 C 11.645,9.0 13.0,7.645 13.0,6.0 C 13.0,4.355 11.645,3.0 10.0,3.0 L 5.5,3.0 M 7.0,5.0 L 10.0,5.0 C 10.5641,5.0 11.0,5.4359 11.0,6.0 C 11.0,6.5641 10.5641,7.0 10.0,7.0 L 7.0,7.0 L 7.0,5.0 L 7.0,5.0" fill="#000" /><path d="M 11.4922,10.0 C 11.216,10.004 10.9957,10.2317 11.0,10.5078 L 11.0,13.3008 L 9.8535,12.1543 C 9.4003,11.6858 8.6589,12.3895 9.1465,12.8613 L 11.1465,14.8613 C 11.3418,15.0565 11.6582,15.0565 11.8535,14.8613 L 13.8535,12.8613 C 14.3441,12.3901 13.6177,11.6637 13.1465,12.1543 L 12.0,13.3008 L 12.0,10.5078 C 12.004,10.2255 11.7745,9.9956 11.4922,10.0" fill="#000" /></svg>