<svg xmlns="http://www.w3.org/2000/svg" width="16" height="16"><path d="M 5.5,3.0 C 5.223,3.0 5.0,3.223 5.0,3.5 L 5.0,11.5 C 5.0,11.777 5.223,12.0 5.5,12.0 L 6.5,12.0 C 6.777,12.0 7.0,11.777 7.0,11.5 L 7.0,9.0 L 10.0,9.0 C 11.645,9.0 13.0,7.645 13.0,6.0 C 13.0,4.355 11.645,3.0 10.0,3.0 L 5.5,3.0 M 7.0,5.0 L 10.0,5.0 C 10.5641,5.0 11.0,5.4359 11.0,6.0 C 11.0,6.5641 10.5641,7.0 10.0,7.0 L 7.0,7.0 L 7.0,5.0 L 7.0,5.0" fill="#000" /><path d="M 11.1504,10.8574 L 12.2969,12.0039 L 9.5039,12.0039 C 8.8278,11.9939 8.8278,13.0135 9.5039,13.0039 L 12.2969,13.0039 L 11.1504,14.1504 C 10.6595,14.6216 11.3862,15.3483 11.8574,14.8574 L 13.8574,12.8574 C 14.0526,12.6622 14.0526,12.3456 13.8574,12.1504 L 11.8574,10.1504 C 11.4042,9.6819 10.6628,10.3855 11.1504,10.8574" fill="#000" /></svg>