<svg xmlns="http://www.w3.org/2000/svg" width="16" height="16"><path d="M 2.5,2.0 C 2.223,2.0 2.0,2.2026 2.0,2.4551 L 2.0,6.4999 C 2.0,6.7769 2.223,6.9999 2.5,6.9999 C 2.777,6.9999 3.0,6.7769 3.0,6.4999 L 3.0,4.9999 L 4.5,4.9999 C 5.3284,4.9999 6.0,4.3284 6.0,3.4999 C 6.0,2.6715 5.3284,1.9999 4.5,1.9999 L 2.5,2.0 M 3.0,3.0 L 4.5,3.0 C 4.7761,3.0 5.0,3.2239 5.0,3.5 C 5.0,3.7761 4.7761,4.0 4.5,4.0 L 3.0,4.0 L 3.0,3.0" fill="#000" /><path d="M 7.5,6.0 A 0.5,0.5 0.0 0,0 7.084,6.2227 L 5.084,9.2227 A 0.5,0.5 0.0 0,0 5.5,10.0 L 9.5,10.0 A 0.5,0.5 0.0 0,0 9.916,9.2227 L 8.4336,7.0 L 9.1211,7.0 L 12.5606,10.4394 C 12.9906,10.8695 13.1194,11.5124 12.8867,12.0742 C 12.654,12.6361 12.1081,13.0 11.5,13.0 L 5.5,13.0 A 0.5,0.5 0.0 0,0 5.0,13.5 A 0.5,0.5 0.0 0,0 5.5,14.0 L 11.5,14.0 C 12.5097,14.0 13.4241,13.3899 13.8106,12.457 C 14.197,11.5242 13.9816,10.4464 13.2676,9.7324 L 9.6816,6.1465 A 0.5,0.5 0.0 0,0 9.3281,6.0 L 7.5,6.0 M 7.5,7.4023 L 8.5664,9.0 L 6.4336,9.0 L 7.5,7.4023" fill="#000" /></svg>