<svg xmlns="http://www.w3.org/2000/svg" width="16" height="16"><path d="M 2.5,2.0 C 2.223,2.0 2.0,2.2026 2.0,2.4551 L 2.0,6.4999 C 2.0,6.7769 2.223,6.9999 2.5,6.9999 C 2.777,6.9999 3.0,6.7769 3.0,6.4999 L 3.0,4.9999 L 4.5,4.9999 C 5.3284,4.9999 6.0,4.3284 6.0,3.4999 C 6.0,2.6715 5.3284,1.9999 4.5,1.9999 L 2.5,2.0 M 3.0,3.0 L 4.5,3.0 C 4.7761,3.0 5.0,3.2239 5.0,3.5 C 5.0,3.7761 4.7761,4.0 4.5,4.0 L 3.0,4.0 L 3.0,3.0" fill="#000" /><path d="M 6.0,7.0 C 5.1389,7.0 4.3725,7.2955 3.834,7.834 C 3.2955,8.3725 3.0,9.1389 3.0,10.0 L 3.0,14.0 L 4.0,14.0 L 4.0,10.0 C 4.0,9.3611 4.2045,8.8775 4.541,8.541 C 4.8775,8.2045 5.3611,8.0 6.0,8.0 L 10.0,8.0 C 10.6389,8.0 11.1225,8.2045 11.459,8.541 C 11.7955,8.8775 12.0,9.3611 12.0,10.0 L 12.0,14.0 L 13.0,14.0 L 13.0,10.0 C 13.0,9.1389 12.7045,8.3725 12.166,7.834 C 11.6275,7.2955 10.8611,7.0 10.0,7.0 L 6.0,7.0" fill="#000" /></svg>