<svg xmlns="http://www.w3.org/2000/svg" width="16" height="16"><path d="M 3.5,2.0 C 3.223,2.0 3.0,2.2026 3.0,2.4551 L 3.0,6.4999 C 3.0,6.7769 3.223,6.9999 3.5,6.9999 C 3.777,6.9999 4.0,6.7769 4.0,6.4999 L 4.0,4.9999 L 5.5,4.9999 C 6.3284,4.9999 7.0,4.3284 7.0,3.4999 C 7.0,2.6715 6.3284,1.9999 5.5,1.9999 L 3.5,2.0 M 4.0,3.0 L 5.5,3.0 C 5.7761,3.0 6.0,3.2239 6.0,3.5 C 6.0,3.7761 5.7761,4.0 5.5,4.0 L 4.0,4.0 L 4.0,3.0" fill="#000" /><path d="M 10.5,2.0 A 0.5,0.5 0.0 0,0 10.0,2.5 L 10.0,5.0 C 9.1389,5.0 8.3725,5.2955 7.834,5.834 C 7.2955,6.3725 7.0,7.1389 7.0,8.0 C 7.0,8.8611 7.2955,9.6275 7.834,10.166 C 8.3725,10.7045 9.1389,11.0 10.0,11.0 L 10.0,13.5 A 0.5,0.5 0.0 0,0 10.5,14.0 L 11.5,14.0 A 0.5,0.5 0.0 0,0 12.0,13.5 L 12.0,2.5 A 0.5,0.5 0.0 0,0 11.5,2.0 L 10.5,2.0 M 10.0,6.0 L 10.0,10.0 C 9.3611,10.0 8.8775,9.7955 8.541,9.459 C 8.2045,9.1225 8.0,8.6389 8.0,8.0 C 8.0,7.3611 8.2045,6.8775 8.541,6.541 C 8.8775,6.2045 9.3611,6.0 10.0,6.0" fill="#000" /></svg>