<svg xmlns="http://www.w3.org/2000/svg" width="16" height="16"><path d="M 2.5,2.0 C 2.223,2.0 2.0,2.2026 2.0,2.4551 L 2.0,6.4999 C 2.0,6.7769 2.223,6.9999 2.5,6.9999 C 2.777,6.9999 3.0,6.7769 3.0,6.4999 L 3.0,4.9999 L 4.5,4.9999 C 5.3284,4.9999 6.0,4.3284 6.0,3.4999 C 6.0,2.6715 5.3284,1.9999 4.5,1.9999 L 2.5,2.0 M 3.0,3.0 L 4.5,3.0 C 4.7761,3.0 5.0,3.2239 5.0,3.5 C 5.0,3.7761 4.7761,4.0 4.5,4.0 L 3.0,4.0 L 3.0,3.0" fill="#000" /><path d="M 7.0,6.0 C 6.1389,6.0 5.3725,6.2955 4.834,6.834 C 4.2955,7.3725 4.0,8.1389 4.0,9.0 L 4.0,13.5 A 0.5,0.5 0.0 0,0 4.5,14.0 A 0.5,0.5 0.0 0,0 5.0,13.5 L 5.0,9.0 C 5.0,8.3611 5.2045,7.8775 5.541,7.541 C 5.8775,7.2045 6.3611,7.0 7.0,7.0 L 11.0,7.0 C 11.6389,7.0 12.1225,7.2045 12.459,7.541 C 12.7955,7.8775 13.0,8.3611 13.0,9.0 L 13.0,13.5 A 0.5,0.5 0.0 0,0 13.5,14.0 A 0.5,0.5 0.0 0,0 14.0,13.5 L 14.0,9.0 C 14.0,8.1389 13.7045,7.3725 13.166,6.834 C 12.6275,6.2955 11.8611,6.0 11.0,6.0 L 7.0,6.0" fill="#000" /></svg>