<svg xmlns="http://www.w3.org/2000/svg" width="16" height="16"><path d="M 2.5,2.0 C 2.223,2.0 2.0,2.2026 2.0,2.4551 L 2.0,6.4999 C 2.0,6.7769 2.223,6.9999 2.5,6.9999 C 2.777,6.9999 3.0,6.7769 3.0,6.4999 L 3.0,4.9999 L 4.5,4.9999 C 5.3284,4.9999 6.0,4.3284 6.0,3.4999 C 6.0,2.6715 5.3284,1.9999 4.5,1.9999 L 2.5,2.0 M 3.0,3.0 L 4.5,3.0 C 4.7761,3.0 5.0,3.2239 5.0,3.5 C 5.0,3.7761 4.7761,4.0 4.5,4.0 L 3.0,4.0 L 3.0,3.0" fill="#000" /><path d="M 13.0,4.0 L 13.0,6.0 C 12.1389,6.0 11.3725,6.2955 10.834,6.834 C 10.2955,7.3725 10.0,8.1389 10.0,9.0 C 10.0,9.8611 10.2955,10.6275 10.834,11.166 C 11.3725,11.7045 12.1389,12.0 13.0,12.0 L 13.0,14.0 L 14.0,14.0 L 14.0,4.0 L 13.0,4.0 M 13.0,7.0 L 13.0,11.0 C 12.3611,11.0 11.8775,10.7955 11.541,10.459 C 11.2045,10.1225 11.0,9.6389 11.0,9.0 C 11.0,8.3611 11.2045,7.8775 11.541,7.541 C 11.8775,7.2045 12.3611,7.0 13.0,7.0" fill="#000" /></svg>