<svg xmlns="http://www.w3.org/2000/svg" width="16" height="16"><path d="M 7.4922,2.0 C 7.3623,2.002 7.2383,2.0546 7.1465,2.1465 L 6.1465,3.1465 C 5.6465,3.6465 5.3333,4.0 4.5,4.0 C 4.003,4.0 3.7379,4.0273 3.3594,3.6523 L 3.3534,3.6463 L 3.3514,3.6443 C 3.2578,3.5519 3.1316,3.5 3.0,3.5 C 2.7239,3.5 2.5,3.7239 2.5,4.0 C 2.5,4.1316 2.5519,4.258 2.6445,4.3516 L 2.6465,4.3536 C 2.6565,4.3638 2.6669,4.3736 2.6777,4.3829 C 3.1861,4.8948 4.1882,6.0 5.5,6.0 L 9.5,6.0 C 10.8292,6.0 11.846,4.8618 12.3477,4.3594 L 12.3537,4.3534 C 12.4107,4.2959 12.5001,4.1773 12.5,4.0 C 12.5,3.7239 12.2761,3.5 12.0,3.5 C 11.8684,3.5 11.742,3.5519 11.6484,3.6445 L 11.6464,3.6465 C 11.2646,4.0285 11.0,4.0 10.5,4.0 C 9.6667,4.0 9.3535,3.6465 8.8535,3.1465 L 7.8535,2.1465 C 7.7578,2.0508 7.6275,1.9979 7.4922,2.0 M 5.0,7.5 A 0.5,0.5 45.0 0,0 5.5,8.0 L 9.5,8.0 A 0.5,0.5 135.0 0,0 10.0,7.5 A 0.5,0.5 45.0 0,0 9.5,7.0 L 5.5,7.0 A 0.5,0.5 135.0 0,0 5.0,7.5 M 5.5,9.0 C 5.3674,9.0 5.2402,9.0527 5.1465,9.1465 C 4.6465,9.6465 4.3333,10.0 3.5,10.0 C 3.003,10.0 2.7379,10.0273 2.3594,9.6523 L 2.3534,9.6463 C 2.3432,9.6362 2.3331,9.6261 2.3222,9.617 C 2.3202,9.616 2.3182,9.614 2.3162,9.613 C 2.3053,9.604 2.2946,9.5954 2.283,9.5876 C 2.28,9.5866 2.278,9.5846 2.275,9.5836 C 2.1935,9.5294 2.0979,9.5003 2.0,9.5 C 1.7239,9.5 1.5,9.7239 1.5,10.0 C 1.5004,10.0957 1.5282,10.1892 1.5801,10.2696 C 1.5976,10.2976 1.6179,10.3237 1.6406,10.3477 L 1.6446,10.3517 C 1.6452,10.3523 1.6456,10.3527 1.6466,10.3537 C 1.6566,10.3639 1.667,10.3737 1.6778,10.383 C 2.1861,10.8948 3.1882,12.0 4.5,12.0 L 10.5,12.0 C 11.8292,12.0 12.846,10.8618 13.3477,10.3594 L 13.3537,10.3534 C 13.3638,10.3432 13.3739,10.3331 13.383,10.3222 C 13.384,10.3202 13.386,10.3182 13.387,10.3162 C 13.396,10.3053 13.4046,10.2946 13.4124,10.283 C 13.4134,10.28 13.4154,10.278 13.4164,10.275 C 13.4706,10.1935 13.4997,10.0979 13.5,10.0 C 13.5,9.7239 13.2761,9.5 13.0,9.5 C 12.8702,9.5 12.7455,9.5504 12.6523,9.6406 L 12.6483,9.6446 C 12.6476,9.6453 12.6473,9.6456 12.6463,9.6466 C 12.2644,10.0283 12.0,10.0 11.5,10.0 C 10.6667,10.0 10.3535,9.6465 9.8535,9.1465 C 9.7598,9.0527 9.6326,9.0 9.5,9.0 L 7.5,9.0 L 5.5,9.0 M 4.0,13.5 A 0.5,0.5 45.0 0,0 4.5,14.0 L 10.5,14.0 A 0.5,0.5 135.0 0,0 11.0,13.5 A 0.5,0.5 45.0 0,0 10.5,13.0 L 4.5,13.0 A 0.5,0.5 135.0 0,0 4.0,13.5" fill="#000" /></svg>