<svg xmlns="http://www.w3.org/2000/svg" width="16" height="16"><path d="M 7.5,2.0 C 7.3674,2.0 7.2402,2.0527 7.1465,2.1465 L 6.1465,3.1465 C 5.6465,3.6465 5.3333,4.0 4.5,4.0 C 4.0691,4.0 3.813,4.02 3.5059,3.7812 C 3.4616,3.7387 3.3924,3.6854 3.3535,3.6465 C 3.1583,3.4513 2.8417,3.4513 2.6465,3.6465 C 2.4513,3.8417 2.4513,4.1583 2.6465,4.3535 C 3.1465,4.8535 4.1667,6.0 5.5,6.0 L 9.5,6.0 C 10.8333,6.0 11.8535,4.8535 12.3535,4.3535 C 12.4795,4.2272 12.5286,4.0434 12.4824,3.8711 C 12.4362,3.6986 12.3014,3.5638 12.1289,3.5176 C 11.9566,3.4714 11.7728,3.5206 11.6465,3.6465 C 11.6076,3.6854 11.5384,3.7387 11.4941,3.7812 C 11.187,4.02 10.9309,4.0 10.5,4.0 C 9.6667,4.0 9.3535,3.6465 8.8535,3.1465 L 7.8535,2.1465 C 7.7598,2.0527 7.6326,2.0 7.5,2.0 M 5.5,7.0 C 5.2239,7.0 5.0,7.2239 5.0,7.5 C 5.0,7.7761 5.2239,8.0 5.5,8.0 L 9.5,8.0 C 9.7761,8.0 10.0,7.7761 10.0,7.5 C 10.0,7.2239 9.7761,7.0 9.5,7.0 L 5.5,7.0 M 5.5,9.0 C 5.3674,9.0 5.2402,9.0527 5.1465,9.1465 C 4.6465,9.6465 4.3333,10.0 3.5,10.0 C 3.0697,10.0 2.8143,10.0189 2.5078,9.7812 C 2.4632,9.7384 2.3927,9.6857 2.3535,9.6465 C 2.1583,9.4513 1.8417,9.4513 1.6465,9.6465 C 1.4513,9.8417 1.4513,10.1583 1.6465,10.3535 C 2.1465,10.8535 3.1667,12.0 4.5,12.0 L 10.5,12.0 C 11.8333,12.0 12.8535,10.8535 13.3535,10.3535 C 13.4795,10.2272 13.5286,10.0434 13.4824,9.8711 C 13.4362,9.6986 13.3014,9.5638 13.1289,9.5176 C 12.9566,9.4714 12.7728,9.5206 12.6465,9.6465 C 12.6073,9.6857 12.5368,9.7384 12.4922,9.7812 C 12.1857,10.0189 11.9303,10.0 11.5,10.0 C 10.6667,10.0 10.3535,9.6465 9.8535,9.1465 C 9.7598,9.0527 9.6326,9.0 9.5,9.0 L 7.5,9.0 L 5.5,9.0 M 4.5,13.0 C 4.2239,13.0 4.0,13.2239 4.0,13.5 C 4.0,13.7761 4.2239,14.0 4.5,14.0 L 10.5,14.0 C 10.7761,14.0 11.0,13.7761 11.0,13.5 C 11.0,13.2239 10.7761,13.0 10.5,13.0 L 4.5,13.0" fill="#000" /></svg>