<svg xmlns="http://www.w3.org/2000/svg" width="16" height="16"><path d="M 4.4648,1.4648 C 3.9367,1.4639 3.7679,2.1758 4.2402,2.4121 C 5.0207,2.8023 5.8279,3.4553 6.4883,4.1953 C 6.0086,3.9838 5.5055,3.875 5.0,3.875 C 3.9821,3.875 2.9751,4.3179 2.1465,5.1465 C 1.7729,5.5196 2.1574,6.1418 2.6582,5.9746 C 3.6588,5.6411 4.9583,5.5507 6.1211,5.7031 C 5.5263,5.8894 5.0031,6.2 4.584,6.6191 C 3.8643,7.3389 3.4648,8.3634 3.4648,9.5352 C 3.4639,10.0633 4.1758,10.2321 4.4121,9.7598 C 4.9395,8.7049 5.9453,7.6003 7.0,6.8769 L 7.0,13.5 C 7.0,13.7761 7.2239,14.0 7.5,14.0 L 8.5,14.0 C 8.7761,14.0 9.0,13.7761 9.0,13.5 L 9.0,6.8769 C 10.0547,7.6003 11.0604,8.7049 11.5879,9.7598 C 11.8241,10.2321 12.5361,10.0633 12.5352,9.5352 C 12.5352,8.3634 12.1357,7.3389 11.416,6.6191 C 10.9969,6.2 10.4737,5.8894 9.8789,5.7031 C 11.0417,5.5507 12.3412,5.6411 13.3418,5.9746 C 13.8426,6.1418 14.2271,5.5196 13.8535,5.1465 C 13.0249,4.3179 12.0179,3.875 11.0,3.875 C 10.4945,3.875 9.9914,3.9838 9.5117,4.1953 C 10.1721,3.4553 10.9793,2.8023 11.7598,2.4121 C 12.2321,2.1758 12.0633,1.4639 11.5352,1.4648 C 10.3634,1.4648 9.3389,1.8643 8.6191,2.584 C 8.3741,2.829 8.1677,3.1104 8.0,3.4199 C 7.8323,3.1104 7.6259,2.829 7.3809,2.584 C 6.6611,1.8643 5.6366,1.4648 4.4648,1.4648 L 4.4648,1.4648" fill="#000" /><path d="M 3.5,13.0 A 0.5,0.5 0.0 0,0 3.1465,13.8535 L 4.1465,14.8535 A 0.5,0.5 0.0 0,0 4.5,15.0 L 11.5,15.0 A 0.5,0.5 0.0 0,0 11.8535,14.8535 L 12.8535,13.8535 A 0.5,0.5 0.0 0,0 12.5,13.0 L 3.5,13.0" fill="#000" /></svg>