<svg xmlns="http://www.w3.org/2000/svg" width="16" height="16"><path d="M 13.499,2.0 C 13.259,2.0 13.032,2.076 12.843,2.196 C 12.654,2.316 12.5,2.477 12.377,2.662 C 12.131,3.031 12.0,3.495 12.0,4.0 C 12.0,5.23 13.0,5.833 13.0,6.499 L 13.0,12.5 C 13.0,12.776 13.224,13.0 13.5,13.0 C 13.776,13.0 14.0,12.776 14.0,12.5 L 14.0,6.501 C 14.0,5.833 15.0,5.23 15.0,4.001 C 15.0,3.495 14.869,3.031 14.623,2.662 C 14.5,2.477 14.346,2.316 14.157,2.196 C 13.968,2.076 13.741,2.0 13.502,2.0 L 13.499,2.0 M 5.5,3.0 C 5.224,3.0 5.0,3.224 5.0,3.5 L 5.0,4.0 L 1.5,4.0 C 1.223,4.001 1.0,4.224 1.0,4.5 C 1.0,4.776 1.223,4.999 1.499,5.0 L 10.5,5.0 C 10.777,4.999 11.0,4.776 11.0,4.5 C 11.0,4.224 10.777,4.001 10.501,4.0 L 7.0,4.0 L 7.0,3.5 C 7.0,3.224 6.776,3.0 6.5,3.0 L 5.5,3.0 M 2.0,6.0 L 2.0,12.0 C 2.0,12.552 2.448,13.0 3.0,13.0 L 9.0,13.0 C 9.552,13.0 10.0,12.552 10.0,12.0 L 10.0,6.0 L 2.0,6.0" fill="#000" /></svg>