<svg xmlns="http://www.w3.org/2000/svg" width="16" height="16"><path d="M 5.5684,3.1133 C 6.0032,3.1837 6.4198,3.3519 6.7773,3.6094 C 5.7098,4.8077 5.249,6.1396 5.1875,7.3691 C 5.1193,8.734 5.5216,9.9676 6.0781,10.8457 C 6.226,11.0785 6.5345,11.1475 6.7676,11.0 C 7.0004,10.8521 7.0694,10.5436 6.9219,10.3105 C 6.4784,9.6108 6.1307,8.5551 6.1875,7.4199 C 6.2443,6.2847 6.6837,5.0652 7.8477,3.9375 C 7.8517,3.9335 7.8557,3.9285 7.8594,3.9238 C 7.8674,3.9158 7.875,3.9084 7.8828,3.9004 C 8.7273,3.0452 10.1043,2.8202 11.2089,3.3906 C 12.3239,3.9664 13.2394,5.3425 13.0019,7.9551 C 12.8336,9.806 11.9038,11.3214 10.7734,12.3789 C 9.643,13.4365 8.2902,14.0 7.5,14.0 C 6.7097,14.0 5.357,13.4365 4.2265,12.3789 C 3.0961,11.3214 2.1663,9.806 1.998,7.9551 C 1.7605,5.3425 2.676,3.9664 3.791,3.3906 C 4.5187,3.0148 5.2215,3.0571 5.5684,3.1133 L 5.5684,3.1133" fill="#000" /></svg>