<svg xmlns="http://www.w3.org/2000/svg" width="16" height="16"><path d="M 8.2773,1.0527 C 7.4901,1.4464 6.9615,2.1328 6.6973,3.0254 C 6.1666,3.1164 5.7301,3.4409 5.459,3.8477 C 5.1379,4.3293 5.0,4.9167 5.0,5.5 C 5.0,6.6167 4.6094,7.0625 4.1094,7.6875 C 3.6094,8.3125 3.0,9.1167 3.0,10.5 C 3.0,11.625 3.4482,12.5492 4.1875,13.1406 C 4.9268,13.732 5.9167,14.0 7.0,14.0 C 8.0833,14.0 9.0732,13.732 9.8125,13.1406 C 10.5518,12.5492 11.0,11.625 11.0,10.5 C 11.0,9.1167 10.3906,8.3125 9.8906,7.6875 C 9.3906,7.0625 9.0,6.6167 9.0,5.5 C 9.0,4.9167 8.8621,4.3293 8.541,3.8477 C 8.3388,3.5443 8.0443,3.2877 7.6875,3.1387 C 7.8809,2.5722 8.2247,2.1963 8.7227,1.9473 C 8.9695,1.8242 9.07,1.5244 8.9473,1.2773 C 8.8175,1.0174 8.5093,0.9379 8.2773,1.0527" fill="#000" /></svg>