<svg xmlns="http://www.w3.org/2000/svg" width="16" height="16"><path d="M 5.382,5.0 L 6.0959,3.5722 C 6.2562,3.2339 6.6008,3.0 7.0,3.0 L 9.0,3.0 C 9.3992,3.0 9.7438,3.2339 9.9041,3.5722 L 10.6181,5.0 L 12.0,5.0 C 12.5523,5.0 13.0,5.4477 13.0,6.0 L 13.0,11.0 C 13.0,11.5523 12.5523,12.0 12.0,12.0 L 4.0,12.0 C 3.4477,12.0 3.0,11.5523 3.0,11.0 L 3.0,6.0 C 3.0,6.0 3.0,6.0 3.0,6.0 C 3.0,5.4477 3.4477,5.0 4.0,5.0 L 5.382,5.0 M 3.0,3.5 C 3.0,3.2239 3.2239,3.0 3.5,3.0 L 4.5,3.0 C 4.7761,3.0 5.0,3.2239 5.0,3.5 C 5.0,3.7761 4.7761,4.0 4.5,4.0 L 3.5,4.0 C 3.2239,4.0 3.0,3.7761 3.0,3.5 M 8.0,10.0 C 9.1046,10.0 10.0,9.1046 10.0,8.0 C 10.0,6.8954 9.1046,6.0 8.0,6.0 C 6.8954,6.0 6.0,6.8954 6.0,8.0 C 6.0,9.1046 6.8954,10.0 8.0,10.0" fill="#000" /></svg>