<svg xmlns="http://www.w3.org/2000/svg" width="16" height="16"><path d="M 3.5,3.0 C 3.223,3.0 3.0,3.224 3.0,3.5 C 3.0,3.776 3.223,4.0 3.499,4.0 L 4.5,4.0 C 4.777,4.0 5.0,3.776 5.0,3.5 C 5.0,3.224 4.777,3.0 4.501,3.0 L 3.5,3.0 M 7.0,3.0 C 6.6,3.0 6.256,3.234 6.096,3.572 L 5.382,5.0 L 4.0,5.0 C 3.447,5.001 3.0,5.448 3.0,6.0 L 3.0,11.0 C 3.0,11.552 3.447,12.0 3.998,12.0 L 12.0,12.0 C 12.553,12.0 13.0,11.552 13.0,11.0 L 13.0,6.001 C 13.0,5.448 12.553,5.001 12.002,5.0 L 10.618,5.0 L 9.904,3.572 C 9.744,3.234 9.4,3.0 9.002,3.0 L 7.0,3.0 M 6.0,8.0 C 6.0,6.895 6.895,6.0 8.0,6.0 C 9.105,6.0 10.0,6.895 10.0,8.0 C 10.0,9.105 9.105,10.0 8.0,10.0 C 6.895,10.0 6.0,9.105 6.0,8.0" fill="#000" /></svg>