<svg xmlns="http://www.w3.org/2000/svg" width="16" height="16"><path d="M 2.5,3.0 C 2.223,3.0 2.0,3.223 2.0,3.5 L 2.0,5.0 L 2.5,5.0 C 2.777,5.0 3.0,5.223 3.0,5.5 L 3.0,6.5 C 3.0,6.777 2.777,7.0 2.5,7.0 L 2.0,7.0 L 2.0,9.0 L 2.5,9.0 C 2.777,9.0 3.0,9.223 3.0,9.5 L 3.0,10.5 C 3.0,10.777 2.777,11.0 2.5,11.0 L 2.0,11.0 L 2.0,12.5 C 2.0,12.777 2.223,13.0 2.5,13.0 L 4.0,13.0 L 4.0,12.5 C 4.0,12.223 4.223,12.0 4.5,12.0 C 4.777,12.0 5.0,12.223 5.0,12.5 L 5.0,13.0 L 7.0,13.0 L 7.0,12.5 C 7.0,12.223 7.223,12.0 7.5,12.0 L 8.5,12.0 C 8.777,12.0 9.0,12.223 9.0,12.5 L 9.0,13.0 L 11.0,13.0 L 11.0,12.5 C 11.0,12.223 11.223,12.0 11.5,12.0 C 11.777,12.0 12.0,12.223 12.0,12.5 L 12.0,13.0 L 13.5,13.0 C 13.777,13.0 14.0,12.777 14.0,12.5 L 14.0,11.0 L 13.5,11.0 C 13.223,11.0 13.0,10.777 13.0,10.5 L 13.0,9.5 C 13.0,9.223 13.223,9.0 13.5,9.0 L 14.0,9.0 L 14.0,7.0 L 13.5,7.0 C 13.223,7.0 13.0,6.777 13.0,6.5 L 13.0,5.5 C 13.0,5.223 13.223,5.0 13.5,5.0 L 14.0,5.0 L 14.0,3.5 C 14.0,3.223 13.777,3.0 13.5,3.0 L 12.0,3.0 L 12.0,3.5 C 12.0,3.777 11.777,4.0 11.5,4.0 C 11.223,4.0 11.0,3.777 11.0,3.5 L 11.0,3.0 L 9.0,3.0 L 9.0,3.5 C 9.0,3.777 8.777,4.0 8.5,4.0 L 7.5,4.0 C 7.223,4.0 7.0,3.777 7.0,3.5 L 7.0,3.0 L 5.0,3.0 L 5.0,3.5 C 5.0,3.777 4.7803,4.0 4.5078,4.0 L 4.4922,4.0 C 4.2197,4.0 4.0,3.777 4.0,3.5 L 4.0,3.0 L 2.5,3.0 M 4.5,5.0 L 11.5,5.0 C 11.777,5.0 12.0,5.223 12.0,5.5 L 12.0,10.5 C 12.0,10.777 11.777,11.0 11.5,11.0 L 4.5,11.0 C 4.223,11.0 4.0,10.777 4.0,10.5 L 4.0,5.5 C 4.0,5.223 4.223,5.0 4.5,5.0 M 5.5,6.0 C 5.223,6.0 5.0,6.223 5.0,6.5 L 5.0,9.5 C 5.0,9.777 5.223,10.0 5.5,10.0 L 10.5,10.0 C 10.777,10.0 11.0,9.777 11.0,9.5 L 11.0,6.5 C 11.0,6.223 10.777,6.0 10.5,6.0 L 5.5,6.0" fill="#000" /></svg>