<svg xmlns="http://www.w3.org/2000/svg" width="16" height="16"><path d="M 5.0,2.0 L 5.0,2.5 C 5.0,2.777 5.223,3.0 5.5,3.0 L 6.0,3.0 C 6.0,3.277 6.223,3.5 6.5,3.5 L 7.0,3.5 L 7.0,12.5 L 6.5,12.5 C 6.223,12.5 6.0,12.723 6.0,13.0 L 5.5,13.0 C 5.223,13.0 5.0,13.223 5.0,13.5 L 5.0,14.0 L 10.9492,14.0 L 10.9492,13.5 C 10.9492,13.223 10.7262,13.0 10.4492,13.0 L 10.0,13.0 C 10.0,12.723 9.777,12.5 9.5,12.5 L 9.0,12.5 L 9.0,3.5 L 9.5,3.5 C 9.777,3.5 10.0,3.277 10.0,3.0 L 10.4492,3.0 C 10.7262,3.0 10.9492,2.777 10.9492,2.5 L 10.9492,2.0 L 5.0,2.0" fill="#000" /></svg>