<svg xmlns="http://www.w3.org/2000/svg" width="16" height="16"><path d="M 5.5,2.0 A 0.5,0.5 0.0 0,0 5.0,2.5 A 0.5,0.5 0.0 0,0 5.5,3.0 L 6.0,3.0 L 6.0,3.5 A 0.5,0.5 0.0 0,0 6.5,4.0 L 7.0,4.0 L 7.0,12.0 L 6.5,12.0 A 0.5,0.5 0.0 0,0 6.0,12.5 L 6.0,13.0 L 5.5,13.0 A 0.5,0.5 0.0 0,0 5.0,13.5 A 0.5,0.5 0.0 0,0 5.5,14.0 L 10.5,14.0 A 0.5,0.5 0.0 0,0 11.0,13.5 A 0.5,0.5 0.0 0,0 10.5,13.0 L 10.0,13.0 L 10.0,12.5 A 0.5,0.5 0.0 0,0 9.5,12.0 L 9.0,12.0 L 9.0,4.0 L 9.5,4.0 A 0.5,0.5 0.0 0,0 10.0,3.5 L 10.0,3.0 L 10.5,3.0 A 0.5,0.5 0.0 0,0 11.0,2.5 A 0.5,0.5 0.0 0,0 10.5,2.0 L 5.5,2.0" fill="#000" /></svg>