<svg xmlns="http://www.w3.org/2000/svg" width="16" height="16"><path d="M 7.5,2.5 C 7.2248,2.5 7.0,2.7027 7.0,3.0 L 5.5,3.0 C 5.223,3.0 5.0,3.223 5.0,3.5 C 5.0,3.777 5.223,4.0 5.5,4.0 L 7.0,4.0 L 7.0,5.0 L 8.0,5.0 L 8.0,4.0 L 9.5,4.0 C 9.777,4.0 10.0,3.777 10.0,3.5 C 10.0,3.223 9.777,3.0 9.5,3.0 L 8.0,3.0 C 8.0,2.7027 7.7751,2.5 7.5,2.5 M 2.5,6.0 C 2.223,6.0 2.0,6.2138 2.0,6.4785 L 2.0,10.5215 C 2.0,10.7862 2.223,11.0 2.5,11.0 C 2.777,11.0 3.0,10.7862 3.0,10.5215 L 3.0,10.0 L 5.0,10.0 L 5.0,10.5215 C 5.0,10.7862 5.223,11.0 5.5,11.0 L 9.5,11.0 C 9.777,11.0 10.0,10.7862 10.0,10.5215 L 10.0,10.0 L 12.0,10.0 L 12.0,10.5215 C 12.0,10.7862 12.223,11.0 12.5,11.0 C 12.777,11.0 13.0,10.7862 13.0,10.5215 L 13.0,6.4785 C 13.0,6.2138 12.777,6.0 12.5,6.0 C 12.223,6.0 12.0,6.2138 12.0,6.4785 L 12.0,7.0 L 10.0,7.0 L 10.0,6.4785 C 10.0,6.2138 9.777,6.0 9.5,6.0 L 5.5,6.0 C 5.223,6.0 5.0,6.2138 5.0,6.4785 L 5.0,7.0 L 3.0,7.0 L 3.0,6.4785 C 3.0,6.2138 2.777,6.0 2.5,6.0" fill="#000" /></svg>