<svg xmlns="http://www.w3.org/2000/svg" width="16" height="16"><path d="M 2.5,6.0 C 2.7761,6.0 3.0,6.2239 3.0,6.5 L 3.0,7.0 L 5.0,7.0 L 5.0,6.5 C 5.0,6.2239 5.2239,6.0 5.5,6.0 L 9.5,6.0 C 9.7761,6.0 10.0,6.2239 10.0,6.5 L 10.0,7.0 L 12.0,7.0 L 12.0,6.5 C 12.0,6.2239 12.2239,6.0 12.5,6.0 C 12.7761,6.0 13.0,6.2239 13.0,6.5 L 13.0,10.5 C 13.0,10.7761 12.7761,11.0 12.5,11.0 C 12.2239,11.0 12.0,10.7761 12.0,10.5 L 12.0,10.0 L 10.0,10.0 L 10.0,10.5 C 10.0,10.7761 9.7761,11.0 9.5,11.0 L 5.5,11.0 C 5.2239,11.0 5.0,10.7761 5.0,10.5 L 5.0,10.0 L 3.0,10.0 L 3.0,10.5 C 3.0,10.7761 2.7761,11.0 2.5,11.0 C 2.2239,11.0 2.0,10.7761 2.0,10.5 L 2.0,6.5 C 2.0,6.2239 2.2239,6.0 2.5,6.0 M 7.0,4.0 L 5.5,4.0 C 5.2239,4.0 5.0,3.7761 5.0,3.5 C 5.0,3.2239 5.2239,3.0 5.5,3.0 L 7.0,3.0 C 7.0,2.7239 7.2239,2.5 7.5,2.5 C 7.7761,2.5 8.0,2.7239 8.0,3.0 L 9.5,3.0 C 9.7761,3.0 10.0,3.2239 10.0,3.5 C 10.0,3.7761 9.7761,4.0 9.5,4.0 L 8.0,4.0 L 8.0,5.0 L 7.0,5.0 L 7.0,4.0" fill="#000" /></svg>