<svg xmlns="http://www.w3.org/2000/svg" width="16" height="16"><path d="M 7.5,2.5 C 7.224,2.5 7.0,2.724 7.0,3.0 L 5.5,3.0 C 5.223,3.0 5.0,3.224 5.0,3.5 C 5.0,3.776 5.223,4.0 5.499,4.0 L 7.0,4.0 L 7.0,5.0 L 8.0,5.0 L 8.0,4.0 L 9.5,4.0 C 9.777,4.0 10.0,3.776 10.0,3.5 C 10.0,3.224 9.777,3.0 9.501,3.0 L 8.0,3.0 C 8.0,2.724 7.776,2.5 7.5,2.5 M 2.5,6.0 C 2.224,6.0 2.0,6.224 2.0,6.5 L 2.0,10.5 C 2.0,10.776 2.224,11.0 2.5,11.0 C 2.776,11.0 3.0,10.776 3.0,10.5 L 3.0,10.0 L 5.0,10.0 L 5.0,10.5 C 5.0,10.776 5.223,11.0 5.499,11.0 L 9.5,11.0 C 9.777,11.0 10.0,10.776 10.0,10.5 L 10.0,10.0 L 12.0,10.0 L 12.0,10.5 C 12.0,10.776 12.224,11.0 12.5,11.0 C 12.776,11.0 13.0,10.776 13.0,10.5 L 13.0,6.501 C 13.0,6.224 12.776,6.0 12.5,6.0 C 12.224,6.0 12.0,6.224 12.0,6.5 L 12.0,7.0 L 10.0,7.0 L 10.0,6.501 C 10.0,6.224 9.777,6.001 9.501,6.0 L 5.5,6.0 C 5.223,6.001 5.0,6.224 5.0,6.5 L 5.0,7.0 L 3.0,7.0 L 3.0,6.501 C 3.0,6.224 2.776,6.0 2.5,6.0" fill="#000" /></svg>