<svg xmlns="http://www.w3.org/2000/svg" width="16" height="16"><path d="M 3.5,1.0 C 3.224,1.0 3.0,1.224 3.0,1.5 C 3.0,1.584 2.943,1.725 2.834,1.834 C 2.725,1.943 2.583,2.0 2.5,2.0 C 2.223,2.0 2.0,2.224 2.0,2.5 C 2.0,2.776 2.223,3.0 2.499,3.0 C 2.583,3.0 2.725,3.057 2.834,3.166 C 2.943,3.275 3.0,3.416 3.0,3.499 C 3.0,3.776 3.224,4.0 3.5,4.0 C 3.776,4.0 4.0,3.776 4.0,3.5 C 4.0,3.416 4.057,3.275 4.166,3.166 C 4.275,3.057 4.417,3.0 4.5,3.0 C 4.777,3.0 5.0,2.776 5.0,2.5 C 5.0,2.224 4.777,2.0 4.501,2.0 C 4.417,2.0 4.275,1.943 4.166,1.834 C 4.057,1.725 4.0,1.584 4.0,1.501 C 4.0,1.224 3.776,1.0 3.5,1.0 M 13.5,3.0 C 13.224,3.0 13.0,3.224 13.0,3.5 C 13.0,3.584 12.943,3.725 12.834,3.834 C 12.725,3.943 12.583,4.0 12.5,4.0 C 12.223,4.001 12.0,4.224 12.0,4.5 C 12.0,4.776 12.223,4.999 12.499,5.0 C 12.583,5.0 12.725,5.057 12.834,5.166 C 12.943,5.275 13.0,5.416 13.0,5.499 C 13.0,5.776 13.224,6.0 13.5,6.0 C 13.776,6.0 14.0,5.776 14.0,5.5 C 14.0,5.416 14.057,5.275 14.166,5.166 C 14.275,5.057 14.417,5.0 14.5,5.0 C 14.777,4.999 15.0,4.776 15.0,4.5 C 15.0,4.224 14.777,4.001 14.501,4.0 C 14.417,4.0 14.275,3.943 14.166,3.834 C 14.057,3.725 14.0,3.584 14.0,3.501 C 14.0,3.224 13.776,3.0 13.5,3.0 M 7.5,4.0 C 5.736,4.0 4.208,5.017 3.47,6.496 C 2.917,6.653 2.442,6.843 2.054,7.067 C 1.758,7.238 1.509,7.43 1.319,7.663 C 1.13,7.897 1.0,8.187 1.0,8.499 C 1.0,8.813 1.13,9.103 1.319,9.337 C 1.509,9.57 1.758,9.762 2.054,9.933 C 2.442,10.157 2.917,10.347 3.47,10.504 C 4.208,11.983 5.736,13.0 7.5,13.0 C 9.264,13.0 10.792,11.983 11.53,10.504 C 12.083,10.347 12.558,10.157 12.946,9.933 C 13.242,9.762 13.491,9.57 13.681,9.337 C 13.87,9.103 14.0,8.813 14.0,8.501 C 14.0,8.187 13.87,7.897 13.681,7.663 C 13.491,7.43 13.242,7.238 12.946,7.067 C 12.558,6.843 12.083,6.653 11.53,6.496 C 10.792,5.017 9.264,4.0 7.5,4.0 M 2.554,7.933 C 2.7,7.849 2.874,7.766 3.074,7.686 C 3.032,7.912 3.008,8.143 3.002,8.38 C 3.063,8.417 3.179,8.474 3.334,8.528 C 3.706,8.657 4.304,8.782 5.052,8.869 C 5.052,8.869 5.064,8.87 5.064,8.87 C 6.561,9.042 8.439,9.042 9.936,8.87 C 9.936,8.87 9.948,8.869 9.948,8.869 C 10.696,8.782 11.294,8.657 11.666,8.528 C 11.821,8.474 11.937,8.417 11.998,8.38 C 11.992,8.143 11.968,7.912 11.926,7.686 C 12.126,7.766 12.3,7.849 12.446,7.933 C 12.668,8.061 12.821,8.191 12.904,8.293 C 12.987,8.395 13.0,8.454 13.0,8.499 C 13.058,8.5 13.096,8.5 13.114,8.5 C 13.146,8.5 13.109,8.5 13.0,8.5 C 13.0,8.657 12.944,8.803 12.872,8.91 C 12.8,9.018 12.714,9.096 12.624,9.163 C 12.444,9.296 12.239,9.388 11.994,9.472 C 11.505,9.642 10.858,9.77 10.064,9.862 C 10.064,9.862 10.051,9.863 10.051,9.863 C 8.461,10.047 6.539,10.047 4.949,9.863 C 4.949,9.863 4.936,9.862 4.936,9.862 C 4.142,9.77 3.495,9.642 3.006,9.472 C 2.761,9.388 2.556,9.296 2.376,9.163 C 2.286,9.096 2.2,9.018 2.128,8.91 C 2.056,8.803 2.0,8.657 2.0,8.502 C 2.0,8.454 2.013,8.395 2.096,8.293 C 2.179,8.191 2.332,8.061 2.554,7.933" fill="#000" /></svg>