<svg xmlns="http://www.w3.org/2000/svg" width="16" height="16"><path d="M 7.5,3.0 C 5.736,3.0 4.208,4.017 3.47,5.496 C 2.917,5.653 2.442,5.843 2.054,6.067 C 1.758,6.238 1.509,6.43 1.319,6.663 C 1.13,6.897 1.0,7.187 1.0,7.499 C 1.0,7.813 1.13,8.103 1.319,8.337 C 1.509,8.57 1.758,8.762 2.054,8.933 C 2.442,9.157 2.917,9.347 3.47,9.504 C 4.208,10.983 5.736,12.0 7.5,12.0 C 9.264,12.0 10.792,10.983 11.53,9.504 C 12.083,9.347 12.558,9.157 12.946,8.933 C 13.242,8.762 13.491,8.57 13.681,8.337 C 13.87,8.103 14.0,7.813 14.0,7.501 C 14.0,7.187 13.87,6.897 13.681,6.663 C 13.491,6.43 13.242,6.238 12.946,6.067 C 12.558,5.843 12.083,5.653 11.53,5.496 C 10.792,4.017 9.264,3.0 7.5,3.0 M 2.554,6.933 C 2.7,6.849 2.874,6.766 3.074,6.686 C 3.032,6.912 3.008,7.143 3.002,7.38 C 3.063,7.417 3.179,7.474 3.334,7.528 C 3.706,7.657 4.304,7.782 5.052,7.869 C 5.052,7.869 5.064,7.87 5.064,7.87 C 6.561,8.042 8.439,8.042 9.936,7.87 C 9.936,7.87 9.948,7.869 9.948,7.869 C 10.696,7.782 11.294,7.657 11.666,7.528 C 11.821,7.474 11.937,7.417 11.998,7.38 C 11.992,7.143 11.968,6.912 11.926,6.686 C 12.126,6.766 12.3,6.849 12.446,6.933 C 12.668,7.061 12.821,7.191 12.904,7.293 C 12.987,7.395 13.0,7.454 13.0,7.499 C 13.058,7.5 13.096,7.5 13.114,7.5 C 13.146,7.5 13.109,7.5 13.0,7.5 C 13.0,7.657 12.944,7.803 12.872,7.91 C 12.8,8.018 12.714,8.096 12.624,8.163 C 12.444,8.296 12.239,8.388 11.994,8.472 C 11.505,8.642 10.858,8.77 10.064,8.862 C 10.064,8.862 10.051,8.863 10.051,8.863 C 8.461,9.047 6.539,9.047 4.949,8.863 C 4.949,8.863 4.936,8.862 4.936,8.862 C 4.142,8.77 3.495,8.642 3.006,8.472 C 2.761,8.388 2.556,8.296 2.376,8.163 C 2.286,8.096 2.2,8.018 2.128,7.91 C 2.056,7.803 2.0,7.657 2.0,7.502 C 2.0,7.454 2.013,7.395 2.096,7.293 C 2.179,7.191 2.332,7.061 2.554,6.933" fill="#000" /></svg>