<svg xmlns="http://www.w3.org/2000/svg" width="16" height="16"><path d="M 12.0,3.5 L 12.0,12.5 C 12.0,12.7761 11.7761,13.0 11.5,13.0 L 4.5,13.0 C 4.2239,13.0 4.0,12.7761 4.0,12.5 L 4.0,3.5 C 4.0,3.2239 4.2239,3.0 4.5,3.0 L 11.5,3.0 C 11.7761,3.0 12.0,3.2239 12.0,3.5 M 5.5,5.0 C 5.2239,5.0 5.0,5.2239 5.0,5.5 C 5.0,5.7761 5.2239,6.0 5.5,6.0 L 10.5,6.0 C 10.7761,6.0 11.0,5.7761 11.0,5.5 C 11.0,5.2239 10.7761,5.0 10.5,5.0 L 5.5,5.0 C 5.5,5.0 5.5,5.0 5.5,5.0 M 5.5,7.0 C 5.2239,7.0 5.0,7.2239 5.0,7.5 C 5.0,7.7761 5.2239,8.0 5.5,8.0 L 10.5,8.0 C 10.7761,8.0 11.0,7.7761 11.0,7.5 C 11.0,7.2239 10.7761,7.0 10.5,7.0 L 5.5,7.0 C 5.5,7.0 5.5,7.0 5.5,7.0 M 5.5,9.0 C 5.2239,9.0 5.0,9.2239 5.0,9.5 C 5.0,9.7761 5.2239,10.0 5.5,10.0 L 10.5,10.0 C 10.7761,10.0 11.0,9.7761 11.0,9.5 C 11.0,9.2239 10.7761,9.0 10.5,9.0 C 10.5,9.0 5.5,9.0 5.5,9.0" fill="#000" /></svg>