<svg xmlns="http://www.w3.org/2000/svg" width="16" height="16"><path d="M 4.5,3.0 C 4.223,3.0 4.0,3.224 4.0,3.5 L 4.0,12.5 C 4.0,12.776 4.223,13.0 4.499,13.0 L 11.5,13.0 C 11.777,13.0 12.0,12.776 12.0,12.5 L 12.0,3.501 C 12.0,3.224 11.777,3.0 11.501,3.0 L 4.5,3.0 M 5.499,5.0 L 10.5,5.0 C 10.777,5.001 11.0,5.224 11.0,5.5 C 11.0,5.776 10.777,5.999 10.501,6.0 L 5.5,6.0 C 5.223,5.999 5.0,5.776 5.0,5.5 C 5.0,5.224 5.223,5.001 5.499,5.0 M 5.499,7.0 L 10.5,7.0 C 10.777,7.001 11.0,7.224 11.0,7.5 C 11.0,7.776 10.777,7.999 10.501,8.0 L 5.5,8.0 C 5.223,7.999 5.0,7.776 5.0,7.5 C 5.0,7.224 5.223,7.001 5.499,7.0 M 5.0,9.5 C 5.0,9.224 5.223,9.0 5.499,9.0 L 10.5,9.0 C 10.777,9.0 11.0,9.224 11.0,9.5 C 11.0,9.776 10.777,10.0 10.501,10.0 L 5.5,10.0 C 5.223,10.0 5.0,9.776 5.0,9.5" fill="#000" /></svg>