<svg xmlns="http://www.w3.org/2000/svg" width="16" height="16"><path d="M 2.5,3.0 C 2.223,3.0 2.0,3.223 2.0,3.5 C 2.0,3.777 2.223,4.0 2.5,4.0 L 3.3125,4.0 L 6.3125,7.0 L 4.5,7.0 C 4.223,7.0 4.0,7.223 4.0,7.5 C 4.0,7.777 4.223,8.0 4.5,8.0 L 7.0,8.0 L 7.0,13.5 C 7.0,13.777 7.223,14.0 7.5,14.0 C 7.777,14.0 8.0,13.777 8.0,13.5 L 8.0,8.0 L 10.5,8.0 C 10.777,8.0 11.0,7.777 11.0,7.5 C 11.0,7.223 10.777,7.0 10.5,7.0 L 8.6875,7.0 L 11.6875,4.0 L 12.5,4.0 C 12.777,4.0 13.0,3.777 13.0,3.5 C 13.0,3.223 12.777,3.0 12.5,3.0 C 9.0,3.0 6.0,3.0 2.5,3.0 M 4.6875,4.0 L 7.0,4.0 L 7.0,6.3125 L 4.6875,4.0 M 8.0,4.0 L 10.3125,4.0 L 8.0,6.3125 L 8.0,4.0" fill="#000" /></svg>