<svg xmlns="http://www.w3.org/2000/svg" width="16" height="16"><path d="M 10.0,1.25 C 8.9972,1.25 7.9863,1.4391 7.3047,2.0039 C 6.3084,2.036 5.4767,2.3163 4.8965,2.8965 C 4.2786,3.5143 4.0,4.4167 4.0,5.5 L 4.0,9.3828 L 3.0527,11.2773 A 0.5,0.5 0.0 0,0 3.0,11.5 L 3.0,13.5 A 0.5,0.5 0.0 0,0 3.5,14.0 L 5.5,14.0 A 0.5,0.5 0.0 0,0 6.0,13.5 L 6.0,11.5 A 0.5,0.5 0.0 0,0 5.9473,11.2773 L 5.0,9.3828 L 5.0,5.5 C 5.0,4.5833 5.2214,3.9857 5.6036,3.6035 C 5.9278,3.2793 6.4077,3.0713 7.1055,3.0156 C 7.5305,4.456 8.7709,5.25 10.0,5.25 C 11.3473,5.25 12.7086,4.2953 12.9942,2.582 A 0.5,0.5 0.0 0,0 12.8535,2.1465 C 12.1768,1.4697 11.0834,1.25 10.0,1.25 L 10.0,1.25 M 8.2695,3.0 L 11.7305,3.0 C 11.3758,3.8172 10.7243,4.25 10.0,4.25 C 9.2757,4.25 8.6242,3.8172 8.2695,3.0" fill="#000" /></svg>