<svg xmlns="http://www.w3.org/2000/svg" width="16" height="16"><path d="M 10.0,2.25 C 8.9971,2.25 7.9863,2.4391 7.3047,3.0039 C 6.3084,3.036 5.4767,3.3163 4.8965,3.8965 C 4.2786,4.5143 4.0,5.4167 4.0,6.5 L 4.0,10.3828 L 3.0527,12.2773 A 0.5,0.5 0.0 0,0 3.0,12.5 L 3.0,14.5 A 0.5,0.5 0.0 0,0 3.5,15.0 L 5.5,15.0 A 0.5,0.5 0.0 0,0 6.0,14.5 L 6.0,12.5 A 0.5,0.5 0.0 0,0 5.9473,12.2773 L 5.0,10.3828 L 5.0,6.5 C 5.0,5.5833 5.2214,4.9857 5.6035,4.6035 C 5.9278,4.2792 6.4076,4.0713 7.1055,4.0156 C 7.5304,5.456 8.7709,6.25 10.0,6.25 C 11.3472,6.25 12.7086,5.2953 12.9941,3.582 A 0.5,0.5 0.0 0,0 12.8535,3.1465 C 12.1767,2.4697 11.0833,2.25 10.0,2.25 M 8.2695,4.0 L 11.7305,4.0 C 11.3758,4.8172 10.7243,5.25 10.0,5.25 C 9.2757,5.25 8.6242,4.8172 8.2695,4.0" fill="#000" /></svg>