<svg xmlns="http://www.w3.org/2000/svg" width="16" height="16"><path d="M 7.5,4.0 C 6.6775,4.0 6.0,4.6775 6.0,5.5 L 6.0,7.0 L 5.5,7.0 A 0.5,0.5 0.0 0,0 5.0,7.5 A 0.5,0.5 0.0 0,0 5.5,8.0 L 5.9512,8.0 C 5.8847,8.2892 5.7541,8.4674 5.584,8.7227 C 5.334,9.0977 5.0,9.6389 5.0,10.5 A 0.5,0.5 0.0 0,0 5.5,11.0 L 8.5,11.0 A 0.5,0.5 0.0 0,0 9.0,10.5 A 0.5,0.5 0.0 0,0 8.5,10.0 L 6.1699,10.0 C 6.2421,9.7713 6.2682,9.499 6.416,9.2773 C 6.6137,8.9808 6.8629,8.5804 6.959,8.0 L 7.5,8.0 A 0.5,0.5 0.0 0,0 8.0,7.5 A 0.5,0.5 0.0 0,0 7.5,7.0 L 7.0,7.0 L 7.0,5.5 C 7.0,5.218 7.2179,5.0 7.5,5.0 C 7.7821,5.0 8.0,5.218 8.0,5.5 A 0.5,0.5 0.0 0,0 8.5,6.0 A 0.5,0.5 0.0 0,0 9.0,5.5 C 9.0,4.6775 8.3225,4.0 7.5,4.0" fill="#000" /></svg>