<svg xmlns="http://www.w3.org/2000/svg" width="16" height="16"><path d="M 4.0,14.5 C 4.0,14.416 4.0207,14.3369 4.0573,14.2674 L 6.0,10.382 L 6.0,5.0 L 4.5,5.0 C 4.2239,5.0 4.0,4.7761 4.0,4.5 C 4.0,4.2239 4.2239,4.0 4.5,4.0 L 6.0,4.0 L 6.0,3.5 C 6.0,3.416 6.0207,3.3369 6.0573,3.2674 L 7.0479,1.2861 C 7.1281,1.117 7.3004,1.0 7.5,1.0 C 7.6996,1.0 7.8719,1.117 7.9521,1.2861 L 8.9427,3.2674 C 8.9793,3.3369 9.0,3.416 9.0,3.5 L 9.0,4.0 L 10.5,4.0 C 10.7761,4.0 11.0,4.2239 11.0,4.5 C 11.0,4.7761 10.7761,5.0 10.5,5.0 L 9.0,5.0 L 9.0,10.382 L 10.9427,14.2674 C 10.9793,14.3369 11.0,14.416 11.0,14.5 C 11.0,14.7761 10.7761,15.0 10.5,15.0 C 10.3004,15.0 10.1281,14.883 10.0479,14.7139 L 9.691,14.0 L 5.309,14.0 L 4.9521,14.7139 C 4.8719,14.883 4.6996,15.0 4.5,15.0 C 4.2239,15.0 4.0,14.7761 4.0,14.5 L 4.0,14.5 M 8.0,8.0 L 7.0,8.0 L 7.0,10.0 L 8.0,10.0 L 8.0,8.0 M 5.809,13.0 L 9.191,13.0 L 8.191,11.0 L 6.809,11.0 L 5.809,13.0 M 8.0,3.618 L 7.5,2.618 L 7.0,3.618 L 7.0,4.0 L 8.0,4.0 L 8.0,3.618 M 7.0,7.0 L 8.0,7.0 L 8.0,5.0 L 7.0,5.0 L 7.0,7.0 M 4.5,5.5 C 4.7761,5.5 5.0,5.7239 5.0,6.0 L 5.0,7.0 C 5.0,7.2761 4.7761,7.5 4.5,7.5 C 4.2239,7.5 4.0,7.2761 4.0,7.0 L 4.0,6.0 C 4.0,5.7239 4.2239,5.5 4.5,5.5 M 10.5,5.5 C 10.7761,5.5 11.0,5.7239 11.0,6.0 L 11.0,7.0 C 11.0,7.2761 10.7761,7.5 10.5,7.5 C 10.2239,7.5 10.0,7.2761 10.0,7.0 L 10.0,6.0 C 10.0,5.7239 10.2239,5.5 10.5,5.5" fill="#000" /></svg>