<svg xmlns="http://www.w3.org/2000/svg" width="16" height="16"><path d="M 4.0,14.5 C 4.0,14.416 4.0207,14.3369 4.0573,14.2674 L 5.691,11.0 L 3.5,11.0 C 3.2239,11.0 3.0,10.7761 3.0,10.5 C 3.0,10.3619 3.056,10.2369 3.1465,10.1464 L 5.2929,8.0 L 2.5,8.0 C 2.2239,8.0 2.0,7.7761 2.0,7.5 C 2.0,7.3343 2.0806,7.1875 2.2047,7.0965 L 5.0,5.0 L 3.5,5.0 C 3.2239,5.0 3.0,4.7761 3.0,4.5 C 3.0,4.3619 3.056,4.2369 3.1465,4.1464 L 6.1465,1.1464 C 6.2369,1.056 6.3619,1.0 6.5,1.0 L 8.5,1.0 C 8.6381,1.0 8.7631,1.056 8.8536,1.1464 L 11.8536,4.1464 C 11.944,4.2369 12.0,4.3619 12.0,4.5 C 12.0,4.7761 11.7762,5.0 11.5,5.0 L 10.0,5.0 L 12.7954,7.0965 C 12.9194,7.1875 13.0,7.3343 13.0,7.5 C 13.0,7.7761 12.7762,8.0 12.5,8.0 L 9.7071,8.0 L 11.8536,10.1464 C 11.944,10.2369 12.0,10.3619 12.0,10.5 C 12.0,10.7761 11.7762,11.0 11.5,11.0 L 9.309,11.0 L 10.9427,14.2674 C 10.9793,14.3369 11.0,14.416 11.0,14.5 C 11.0,14.7761 10.7762,15.0 10.5,15.0 C 10.3004,15.0 10.1281,14.883 10.048,14.7139 L 9.691,14.0 L 5.309,14.0 L 4.9521,14.7139 C 4.8719,14.883 4.6996,15.0 4.5,15.0 C 4.2239,15.0 4.0,14.7761 4.0,14.5 L 4.0,14.5 M 6.0,10.0 C 6.0,9.7032 6.0,9.2512 6.0,8.7071 L 4.7071,10.0 L 6.0,10.0 M 9.0,8.7071 L 9.0,10.0 L 10.2929,10.0 L 9.0,8.7071 M 6.0,7.0 C 6.0,6.5097 6.0,6.0011 6.0,5.5 L 4.0,7.0 L 6.0,7.0 M 9.0,5.5 L 9.0,7.0 L 11.0,7.0 L 9.0,5.5 M 6.0,4.0 C 6.0,3.5219 6.0,3.0811 6.0,2.7071 L 4.7071,4.0 L 6.0,4.0 M 9.0,2.7071 L 9.0,4.0 L 10.2929,4.0 L 9.0,2.7071 M 8.0,8.0 L 7.0,8.0 L 7.0,10.0 L 8.0,10.0 L 8.0,8.0 M 5.809,13.0 L 9.191,13.0 L 8.191,11.0 L 6.809,11.0 L 5.809,13.0 M 8.0,5.0 L 7.0,5.0 L 7.0,7.0 L 8.0,7.0 L 8.0,5.0 M 8.0,2.0 L 7.0,2.0 L 7.0,4.0 L 8.0,4.0 L 8.0,2.0" fill="#000" /></svg>