<svg xmlns="http://www.w3.org/2000/svg" width="16" height="16"><path d="M 7.0,11.618 L 7.0,13.0 L 8.0,13.0 L 8.0,11.618 L 7.5,10.618 L 7.0,11.618 M 7.0,14.5 C 7.0,14.7761 6.7761,15.0 6.5,15.0 C 6.2239,15.0 6.0,14.7761 6.0,14.5 C 6.0,14.5 6.0,12.2282 6.0,11.6385 L 3.0755,6.7643 C 3.0276,6.6876 3.0,6.597 3.0,6.5 L 3.0,5.0 L 2.0,5.0 C 1.7239,5.0 1.5,4.7761 1.5,4.5 C 1.5,4.2239 1.7239,4.0 2.0,4.0 L 3.0,4.0 L 3.0,3.5 C 3.0,3.2239 3.2239,3.0 3.5,3.0 C 3.7761,3.0 4.0,3.2239 4.0,3.5 L 4.0,4.0 L 11.0,4.0 L 11.0,3.5 C 11.0,3.2239 11.2239,3.0 11.5,3.0 C 11.7761,3.0 12.0,3.2239 12.0,3.5 L 12.0,4.0 L 13.0,4.0 C 13.2761,4.0 13.5,4.2239 13.5,4.5 C 13.5,4.7761 13.2761,5.0 13.0,5.0 L 12.0,5.0 L 12.0,6.5 C 12.0,6.597 11.9724,6.6876 11.9245,6.7643 L 9.0,11.6385 L 9.0,14.5 C 9.0,14.7761 8.7761,15.0 8.5,15.0 C 8.2239,15.0 8.0,14.7761 8.0,14.5 L 8.0,14.0 L 7.0,14.0 L 7.0,14.5 M 4.0,6.25 L 7.5,8.875 L 11.0,6.25 L 11.0,5.0 L 4.0,5.0 L 4.0,6.25 M 8.1338,9.6496 L 8.5399,10.4617 L 9.758,8.4315 L 8.1338,9.6496 M 6.8662,9.6496 L 5.242,8.4315 L 6.4601,10.4617 L 6.8662,9.6496" fill="#000" /></svg>