<svg xmlns="http://www.w3.org/2000/svg" width="16" height="16"><path d="M 2.5,3.0 C 2.223,3.0 2.0,3.223 2.0,3.5 L 2.0,12.0 C 2.0,13.1046 2.8954,14.0 4.0,14.0 C 5.1046,14.0 6.0,13.1046 6.0,12.0 L 11.1914,12.0 L 12.0527,13.7227 C 12.1372,13.8924 12.3104,13.9998 12.5,14.0 L 13.5,14.0 C 13.7761,14.0 14.0,13.7761 14.0,13.5 L 14.0,3.5 C 14.0,3.223 13.777,3.0 13.5,3.0 L 2.5,3.0 M 3.5,4.0 L 5.5,4.0 C 5.777,4.0 6.0,4.223 6.0,4.5 C 6.0,4.777 5.777,5.0 5.5,5.0 L 3.5,5.0 C 3.223,5.0 3.0,4.777 3.0,4.5 C 3.0,4.223 3.223,4.0 3.5,4.0 M 11.0,4.5 L 11.0,6.6914 L 12.2773,6.0527 C 12.7355,5.8256 13.1989,6.3513 12.916,6.7773 L 10.916,9.7773 C 10.6415,10.1887 10.0002,9.9946 10.0,9.5 L 10.0,7.3086 L 8.7227,7.9473 C 8.2645,8.1744 7.8011,7.6487 8.084,7.2227 L 10.084,4.2227 C 10.3557,3.8142 10.9998,4.0091 11.0,4.5 M 3.5,6.0 L 5.5,6.0 C 5.777,6.0 6.0,6.223 6.0,6.5 C 6.0,6.777 5.777,7.0 5.5,7.0 L 3.5,7.0 C 3.223,7.0 3.0,6.777 3.0,6.5 C 3.0,6.223 3.223,6.0 3.5,6.0 M 3.5,8.0 L 5.5,8.0 C 5.777,8.0 6.0,8.223 6.0,8.5 C 6.0,8.777 5.777,9.0 5.5,9.0 L 3.5,9.0 C 3.223,9.0 3.0,8.777 3.0,8.5 C 3.0,8.223 3.223,8.0 3.5,8.0 M 4.0,11.0 C 4.5523,11.0 5.0,11.4477 5.0,12.0 C 5.0,12.5523 4.5523,13.0 4.0,13.0 C 3.4477,13.0 3.0,12.5523 3.0,12.0 C 3.0,11.4477 3.4477,11.0 4.0,11.0" fill="#000" /></svg>