<svg xmlns="http://www.w3.org/2000/svg" width="16" height="16"><path d="M 3.5,2.0 C 3.7761,2.0 4.0,2.2239 4.0,2.5 C 4.0,2.516 3.9992,2.5318 3.9978,2.5473 L 3.9601,3.0 L 11.0399,3.0 L 11.0022,2.5473 C 11.0008,2.5318 11.0,2.516 11.0,2.5 C 11.0,2.2239 11.2239,2.0 11.5,2.0 C 11.7638,2.0 11.9798,2.2042 11.9987,2.4632 L 12.0434,3.0 L 12.5,3.0 C 12.7762,3.0 13.0,3.2239 13.0,3.5 C 13.0,3.7761 12.7762,4.0 12.5,4.0 L 12.1267,4.0 L 12.9978,14.4526 C 12.9992,14.4682 13.0,14.484 13.0,14.5 C 13.0,14.7761 12.7761,15.0 12.5,15.0 C 12.2362,15.0 12.0202,14.7958 12.0013,14.5368 L 11.1233,4.0 L 3.8767,4.0 L 2.9987,14.5368 C 2.9798,14.7958 2.7638,15.0 2.5,15.0 C 2.2239,15.0 2.0,14.7761 2.0,14.5 C 2.0,14.484 2.0007,14.4682 2.0022,14.4526 L 2.8732,4.0 L 2.5,4.0 C 2.2238,4.0 2.0,3.7761 2.0,3.5 C 2.0,3.2239 2.2238,3.0 2.5,3.0 L 2.9566,3.0 L 3.0013,2.4632 C 3.0201,2.2042 3.2362,2.0 3.5,2.0 L 3.5,2.0 M 5.5,4.5 C 5.7761,4.5 6.0,4.7239 6.0,5.0 L 6.0,6.0 C 6.0,6.2761 5.7761,6.5 5.5,6.5 C 5.2239,6.5 5.0,6.2761 5.0,6.0 L 5.0,5.0 C 5.0,4.7239 5.2239,4.5 5.5,4.5 M 9.5,4.5 C 9.7761,4.5 10.0,4.7239 10.0,5.0 L 10.0,6.0 C 10.0,6.2761 9.7761,6.5 9.5,6.5 C 9.2239,6.5 9.0,6.2761 9.0,6.0 L 9.0,5.0 C 9.0,4.7239 9.2239,4.5 9.5,4.5" fill="#000" /></svg>