<svg xmlns="http://www.w3.org/2000/svg" width="16" height="16"><path d="M 4.5,2.0 C 4.7761,2.0 5.0,2.2239 5.0,2.5 L 5.0,3.0 L 10.0,3.0 L 10.0,2.5 C 10.0,2.2239 10.2239,2.0 10.5,2.0 C 10.7761,2.0 11.0,2.2239 11.0,2.5 L 11.0,3.0 L 12.5,3.0 C 12.7761,3.0 13.0,3.2239 13.0,3.5 C 13.0,3.7761 12.7761,4.0 12.5,4.0 L 11.0,4.0 L 11.0,14.5 C 11.0,14.7761 10.7761,15.0 10.5,15.0 C 10.2239,15.0 10.0,14.7761 10.0,14.5 L 10.0,12.0 L 5.0,12.0 C 5.0,12.0 5.0,12.0 5.0,12.0 L 5.0,14.5 C 5.0,14.7761 4.7761,15.0 4.5,15.0 C 4.2239,15.0 4.0,14.7761 4.0,14.5 L 4.0,4.0 L 2.5,4.0 C 2.2239,4.0 2.0,3.7761 2.0,3.5 C 2.0,3.2239 2.2239,3.0 2.5,3.0 L 4.0,3.0 L 4.0,2.5 C 4.0,2.2239 4.2239,2.0 4.5,2.0 M 10.0,4.0 L 5.0,4.0 L 5.0,11.0 L 10.0,11.0 L 10.0,4.0 M 2.5,4.5 C 2.7761,4.5 3.0,4.7239 3.0,5.0 L 3.0,6.0 C 3.0,6.2761 2.7761,6.5 2.5,6.5 C 2.2239,6.5 2.0,6.2761 2.0,6.0 L 2.0,5.0 C 2.0,4.7239 2.2239,4.5 2.5,4.5 M 7.5,4.5 C 7.7761,4.5 8.0,4.7239 8.0,5.0 L 8.0,6.0 C 8.0,6.2761 7.7761,6.5 7.5,6.5 C 7.2239,6.5 7.0,6.2761 7.0,6.0 L 7.0,5.0 C 7.0,4.7239 7.2239,4.5 7.5,4.5 M 12.5,4.5 C 12.7761,4.5 13.0,4.7239 13.0,5.0 L 13.0,6.0 C 13.0,6.2761 12.7761,6.5 12.5,6.5 C 12.2239,6.5 12.0,6.2761 12.0,6.0 L 12.0,5.0 C 12.0,4.7239 12.2239,4.5 12.5,4.5" fill="#000" /></svg>