<svg xmlns="http://www.w3.org/2000/svg" width="16" height="16"><path d="M 4.5,2.0 C 4.7761,2.0 5.0,2.2239 5.0,2.5 C 5.0,2.516 4.9992,2.5318 4.9978,2.5473 L 4.9601,3.0 L 10.0399,3.0 L 10.0022,2.5473 C 10.0008,2.5318 10.0,2.516 10.0,2.5 C 10.0,2.2239 10.2239,2.0 10.5,2.0 C 10.7638,2.0 10.9798,2.2042 10.9987,2.4632 L 11.0434,3.0 L 12.5,3.0 C 12.7762,3.0 13.0,3.2239 13.0,3.5 C 13.0,3.7761 12.7762,4.0 12.5,4.0 L 11.1267,4.0 L 11.9978,14.4526 C 11.9992,14.4682 12.0,14.484 12.0,14.5 C 12.0,14.7761 11.7761,15.0 11.5,15.0 C 11.2362,15.0 11.0202,14.7958 11.0013,14.5368 L 10.1233,4.0 L 4.8767,4.0 L 3.9987,14.5368 C 3.9798,14.7958 3.7638,15.0 3.5,15.0 C 3.2239,15.0 3.0,14.7761 3.0,14.5 C 3.0,14.484 3.0007,14.4682 3.0022,14.4526 L 3.8732,4.0 L 2.5,4.0 C 2.2238,4.0 2.0,3.7761 2.0,3.5 C 2.0,3.2239 2.2238,3.0 2.5,3.0 L 3.9566,3.0 L 4.0013,2.4632 C 4.0202,2.2042 4.2362,2.0 4.5,2.0 L 4.5,2.0 M 2.5,4.5 C 2.7761,4.5 3.0,4.7239 3.0,5.0 L 3.0,6.0 C 3.0,6.2761 2.7761,6.5 2.5,6.5 C 2.2239,6.5 2.0,6.2761 2.0,6.0 L 2.0,5.0 C 2.0,4.7239 2.2239,4.5 2.5,4.5 M 7.5,4.5 C 7.7761,4.5 8.0,4.7239 8.0,5.0 L 8.0,6.0 C 8.0,6.2761 7.7761,6.5 7.5,6.5 C 7.2239,6.5 7.0,6.2761 7.0,6.0 L 7.0,5.0 C 7.0,4.7239 7.2239,4.5 7.5,4.5 M 12.5,4.5 C 12.7761,4.5 13.0,4.7239 13.0,5.0 L 13.0,6.0 C 13.0,6.2761 12.7761,6.5 12.5,6.5 C 12.2239,6.5 12.0,6.2761 12.0,6.0 L 12.0,5.0 C 12.0,4.7239 12.2239,4.5 12.5,4.5" fill="#000" /></svg>