<svg xmlns="http://www.w3.org/2000/svg" width="16" height="16"><path d="M 5.0,14.5 C 5.0,14.4543 5.0061,14.41 5.0176,14.3678 L 6.0,10.4384 L 6.0,9.6514 L 2.0878,3.783 C 2.0324,3.7025 2.0,3.6051 2.0,3.5 C 2.0,3.2238 2.2239,3.0 2.5,3.0 C 2.6196,3.0 2.7294,3.042 2.8155,3.112 L 7.5,6.8597 L 12.1845,3.112 C 12.2706,3.042 12.3804,3.0 12.5,3.0 C 12.7761,3.0 13.0,3.2238 13.0,3.5 C 13.0,3.605 12.9676,3.7025 12.9122,3.783 L 9.0,9.6514 L 9.0,10.4384 L 9.9824,14.3678 C 9.9939,14.4099 10.0,14.4542 10.0,14.5 C 10.0,14.7761 9.7761,15.0 9.5,15.0 C 9.262,15.0 9.0629,14.8338 9.0124,14.6111 L 8.8596,14.0 L 6.1404,14.0 L 5.9876,14.6111 C 5.9371,14.8338 5.738,15.0 5.5,15.0 C 5.2239,15.0 5.0,14.7761 5.0,14.5 M 8.1096,11.0 L 6.8904,11.0 L 6.3904,13.0 L 8.6096,13.0 L 8.1096,11.0 M 8.0,9.618 L 7.5,8.618 L 7.0,9.618 L 7.0,10.0 L 8.0,10.0 L 8.0,9.618 M 4.7024,5.9023 L 6.4381,8.5058 L 6.872,7.6379 L 4.7024,5.9023 M 8.5619,8.5058 L 10.2976,5.9023 L 8.128,7.6379 L 8.5619,8.5058" fill="#000" /></svg>