<svg xmlns="http://www.w3.org/2000/svg" width="16" height="16"><path d="M 7.5,2.0 C 7.223,2.0 7.0,2.224 7.0,2.5 L 7.0,3.0 L 5.5,3.0 C 5.223,3.0 5.0,3.224 5.0,3.5 C 5.0,3.776 5.223,4.0 5.499,4.0 L 7.0,4.0 L 7.0,5.0 L 5.5,5.0 C 5.223,5.001 5.0,5.224 5.0,5.5 C 5.0,5.776 5.223,5.999 5.499,6.0 L 7.0,6.0 L 7.0,7.0 L 5.5,7.0 C 5.223,7.001 5.0,7.224 5.0,7.5 C 5.0,7.776 5.223,7.999 5.499,8.0 L 7.0,8.0 L 7.0,14.5 C 7.0,14.776 7.223,15.0 7.499,15.0 L 8.5,15.0 C 8.777,15.0 9.0,14.776 9.0,14.5 L 9.0,2.501 C 9.0,2.224 8.777,2.0 8.501,2.0 L 7.5,2.0 M 5.5,8.5 C 5.224,8.5 5.0,8.724 5.0,9.0 L 5.0,10.0 C 5.0,10.276 5.224,10.5 5.5,10.5 C 5.776,10.5 6.0,10.276 6.0,10.0 L 6.0,9.0 C 6.0,8.724 5.776,8.5 5.5,8.5" fill="#000" /></svg>