<svg xmlns="http://www.w3.org/2000/svg" width="16" height="16"><path d="M 3.5,2.0 C 3.7761,2.0 4.0,2.2239 4.0,2.5 C 4.0,2.516 3.9992,2.5318 3.9978,2.5473 L 3.9601,3.0 L 11.0399,3.0 L 11.0022,2.5473 C 11.0008,2.5318 11.0,2.516 11.0,2.5 C 11.0,2.2239 11.2239,2.0 11.5,2.0 C 11.7638,2.0 11.9798,2.2042 11.9987,2.4632 L 12.0434,3.0 L 12.5,3.0 C 12.7762,3.0 13.0,3.2239 13.0,3.5 C 13.0,3.7761 12.7762,4.0 12.5,4.0 L 12.1267,4.0 L 12.2101,5.0 L 12.5,5.0 C 12.7761,5.0 13.0,5.2239 13.0,5.5 C 13.0,5.7761 12.7761,6.0 12.5,6.0 L 12.2934,6.0 L 12.3767,7.0 L 12.5,7.0 C 12.7761,7.0 13.0,7.2239 13.0,7.5 C 13.0,7.7761 12.7761,8.0 12.5,8.0 L 12.4601,8.0 L 12.9978,14.4526 C 12.9992,14.4682 13.0,14.484 13.0,14.5 C 13.0,14.7761 12.7761,15.0 12.5,15.0 C 12.2362,15.0 12.0202,14.7958 12.0013,14.5368 L 11.4566,8.0 L 3.5434,8.0 L 2.9987,14.5368 C 2.9798,14.7958 2.7638,15.0 2.5,15.0 C 2.2239,15.0 2.0,14.7761 2.0,14.5 C 2.0,14.484 2.0008,14.4682 2.0022,14.4526 L 2.5399,8.0 L 2.5,8.0 C 2.2239,8.0 2.0,7.7761 2.0,7.5 C 2.0,7.2239 2.2239,7.0 2.5,7.0 L 2.6233,7.0 L 2.7066,6.0 L 2.5,6.0 C 2.2239,6.0 2.0,5.7761 2.0,5.5 C 2.0,5.2239 2.2239,5.0 2.5,5.0 L 2.7899,5.0 L 2.8733,4.0 L 2.5,4.0 C 2.2239,4.0 2.0,3.7761 2.0,3.5 C 2.0,3.2239 2.2239,3.0 2.5,3.0 L 2.9566,3.0 L 3.0013,2.4632 C 3.0202,2.2042 3.2362,2.0 3.5,2.0 L 3.5,2.0 M 11.2899,6.0 L 3.7101,6.0 L 3.6267,7.0 L 11.3733,7.0 L 11.2899,6.0 M 11.1233,4.0 L 3.8767,4.0 L 3.7934,5.0 L 11.2066,5.0 L 11.1233,4.0 M 5.5,8.5 C 5.7761,8.5 6.0,8.7239 6.0,9.0 L 6.0,10.0 C 6.0,10.2761 5.7761,10.5 5.5,10.5 C 5.2239,10.5 5.0,10.2761 5.0,10.0 L 5.0,9.0 C 5.0,8.7239 5.2239,8.5 5.5,8.5 M 9.5,8.5 C 9.7761,8.5 10.0,8.7239 10.0,9.0 L 10.0,10.0 C 10.0,10.2761 9.7761,10.5 9.5,10.5 C 9.2239,10.5 9.0,10.2761 9.0,10.0 L 9.0,9.0 C 9.0,8.7239 9.2239,8.5 9.5,8.5" fill="#000" /></svg>