<svg xmlns="http://www.w3.org/2000/svg" width="16" height="16"><path d="M 4.4922,1.9922 C 4.216,1.9962 3.9957,2.2239 4.0,2.5 L 4.0,3.0 L 2.5,3.0 C 1.8238,2.99 1.8238,4.0096 2.5,4.0 L 4.0,4.0 L 4.0,14.5 C 3.99,15.1762 5.0096,15.1762 5.0,14.5 L 5.0,12.0 L 10.0,12.0 L 10.0,14.5 C 9.99,15.1762 11.0096,15.1762 11.0,14.5 L 11.0,4.0 L 12.5,4.0 C 13.1762,4.01 13.1762,2.9904 12.5,3.0 L 11.0,3.0 L 11.0,2.5 C 11.004,2.2177 10.7745,1.9878 10.4922,1.9922 C 10.216,1.9962 9.9957,2.2239 10.0,2.5 L 10.0,3.0 L 5.0,3.0 L 5.0,2.5 C 5.004,2.2177 4.7745,1.9878 4.4922,1.9922 M 5.0,4.0 L 10.0,4.0 L 10.0,11.0 L 5.0,11.0 L 5.0,4.0 M 2.4922,4.4922 C 2.216,4.4965 1.9957,4.7239 2.0,5.0 L 2.0,6.0 C 1.99,6.6762 3.0096,6.6762 3.0,6.0 L 3.0,5.0 C 3.004,4.7177 2.7745,4.4878 2.4922,4.4922 M 7.4922,4.4922 C 7.216,4.4965 6.9957,4.7239 7.0,5.0 L 7.0,6.0 C 6.99,6.6762 8.0096,6.6762 8.0,6.0 L 8.0,5.0 C 8.004,4.7177 7.7745,4.4878 7.4922,4.4922 M 12.4922,4.4922 C 12.216,4.4965 11.9957,4.7239 12.0,5.0 L 12.0,6.0 C 11.99,6.6762 13.0096,6.6762 13.0,6.0 L 13.0,5.0 C 13.004,4.7177 12.7745,4.4878 12.4922,4.4922" fill="#000" /></svg>