<svg xmlns="http://www.w3.org/2000/svg" width="16" height="16"><path d="M 2.084,3.7773 L 6.0,9.6523 L 6.0,10.4375 L 5.0156,14.3789 C 4.9491,14.6464 5.1116,14.9172 5.3789,14.9844 C 5.6464,15.0509 5.9172,14.8884 5.9844,14.6211 L 6.1406,14.0 L 8.8594,14.0 L 9.0156,14.6211 C 9.0828,14.8883 9.3536,15.0508 9.6211,14.9844 C 9.8883,14.9172 10.0508,14.6464 9.9844,14.3789 L 9.0,10.4375 L 9.0,9.6523 L 12.916,3.7773 C 13.2336,3.3019 12.6336,2.7519 12.1875,3.1094 L 7.5,6.8594 L 2.8125,3.1094 C 2.3823,2.7657 1.7634,3.2963 2.084,3.7773 M 4.7031,5.9043 L 6.8711,7.6387 L 6.4375,8.5059 L 4.7031,5.9043 M 10.2969,5.9043 L 8.5625,8.5059 L 8.1289,7.6387 L 10.2969,5.9043 M 7.5,8.6191 L 8.0,9.6172 L 8.0,10.0 L 7.0,10.0 L 7.0,9.6172 L 7.5,8.6191 M 6.8906,11.0 L 8.1094,11.0 L 8.6094,13.0 L 6.3906,13.0 L 6.8906,11.0" fill="#000" /></svg>