<svg xmlns="http://www.w3.org/2000/svg" width="16" height="16"><path d="M 4.4844,1.9922 A 0.5,0.5 0.0 0,0 4.0019,2.459 L 3.957,3.0 L 2.5,3.0 A 0.5,0.5 0.0 1,0 2.5,4.0 L 3.8731,4.0 L 3.0019,14.459 A 0.5,0.5 0.0 1,0 3.9981,14.541 L 4.8769,4.0 L 10.1231,4.0 L 11.0019,14.541 A 0.5,0.5 0.0 1,0 11.9981,14.459 L 11.1269,4.0 L 12.5,4.0 A 0.5,0.5 0.0 1,0 12.5,3.0 L 11.043,3.0 L 10.9981,2.459 A 0.5,0.5 0.0 0,0 10.5,1.9922 A 0.5,0.5 0.0 0,0 10.002,2.541 L 10.041,3.0 L 4.9589,3.0 L 4.998,2.541 A 0.5,0.5 0.0 0,0 4.4844,1.9922 L 4.4844,1.9922 M 2.4922,4.4922 A 0.5,0.5 0.0 0,0 2.0,5.0 L 2.0,6.0 A 0.5,0.5 0.0 1,0 3.0,6.0 L 3.0,5.0 A 0.5,0.5 0.0 0,0 2.4922,4.4922 M 7.4922,4.4922 A 0.5,0.5 0.0 0,0 7.0,5.0 L 7.0,6.0 A 0.5,0.5 0.0 1,0 8.0,6.0 L 8.0,5.0 A 0.5,0.5 0.0 0,0 7.4922,4.4922 M 12.4922,4.4922 A 0.5,0.5 0.0 0,0 12.0,5.0 L 12.0,6.0 A 0.5,0.5 0.0 1,0 13.0,6.0 L 13.0,5.0 A 0.5,0.5 0.0 0,0 12.4922,4.4922" fill="#000" /></svg>