<svg xmlns="http://www.w3.org/2000/svg" width="16" height="16"><path d="M 3.5,2.0 C 3.224,2.0 3.0,2.224 3.0,2.5 C 3.0,2.546 3.006,2.59 3.018,2.632 L 3.11,3.0 L 2.5,3.0 C 2.223,3.0 2.0,3.224 2.0,3.5 C 2.0,3.776 2.223,4.0 2.499,4.0 L 3.36,4.0 L 6.012,14.611 C 6.063,14.834 6.262,15.0 6.5,15.0 C 6.776,15.0 7.0,14.776 7.0,14.5 C 7.0,14.454 6.994,14.41 6.982,14.368 L 4.39,4.0 L 10.61,4.0 L 8.018,14.368 C 8.006,14.41 8.0,14.454 8.0,14.5 C 8.0,14.776 8.224,15.0 8.5,15.0 C 8.738,15.0 8.937,14.834 8.988,14.611 L 11.64,4.0 L 12.5,4.0 C 12.777,4.0 13.0,3.776 13.0,3.5 C 13.0,3.224 12.777,3.0 12.501,3.0 L 11.89,3.0 L 11.982,2.632 C 11.994,2.59 12.0,2.546 12.0,2.5 C 12.0,2.224 11.776,2.0 11.5,2.0 C 11.262,2.0 11.063,2.166 11.012,2.389 L 10.86,3.0 L 4.14,3.0 L 3.988,2.389 C 3.937,2.166 3.738,2.0 3.5,2.0 M 2.5,4.5 C 2.224,4.5 2.0,4.724 2.0,5.0 L 2.0,6.0 C 2.0,6.276 2.224,6.5 2.5,6.5 C 2.776,6.5 3.0,6.276 3.0,6.0 L 3.0,5.001 C 3.0,4.724 2.776,4.5 2.5,4.5 M 7.5,4.5 C 7.224,4.5 7.0,4.724 7.0,5.0 L 7.0,6.0 C 7.0,6.276 7.224,6.5 7.5,6.5 C 7.776,6.5 8.0,6.276 8.0,6.0 L 8.0,5.001 C 8.0,4.724 7.776,4.5 7.5,4.5 M 12.5,4.5 C 12.224,4.5 12.0,4.724 12.0,5.0 L 12.0,6.0 C 12.0,6.276 12.224,6.5 12.5,6.5 C 12.776,6.5 13.0,6.276 13.0,6.0 L 13.0,5.001 C 13.0,4.724 12.776,4.5 12.5,4.5" fill="#000" /></svg>