<svg xmlns="http://www.w3.org/2000/svg" width="16" height="16"><path d="M 2.1094,3.8125 L 6.0,8.6758 L 6.0,9.4043 L 4.0352,14.3145 C 3.846,14.7881 4.4041,15.2077 4.8066,14.8945 L 7.5,12.7988 L 10.1934,14.8945 C 10.5959,15.2077 11.154,14.7881 10.9648,14.3145 L 9.0,9.4043 L 9.0,8.6758 L 12.8906,3.8125 C 13.2446,3.3765 12.7218,2.7781 12.2422,3.0703 L 7.5,5.916 L 2.7578,3.0703 C 2.2986,2.7922 1.7497,3.3677 2.1094,3.8125 L 2.1094,3.8125 M 4.6309,5.3613 L 6.8457,6.6914 L 6.4023,7.5781 L 4.6309,5.3613 M 10.3691,5.3613 L 8.5977,7.5781 L 8.1543,6.6914 L 10.3691,5.3613 M 7.5,7.6191 L 8.0,8.6172 L 8.0,9.0 L 7.0,9.0 L 7.0,8.6172 L 7.5,7.6191 M 6.8398,10.0 L 8.1602,10.0 L 8.4707,10.7773 L 7.5,11.5332 L 6.5273,10.7773 L 6.8398,10.0 M 6.1426,11.7441 L 6.6856,12.166 L 5.6504,12.9727 L 6.1426,11.7441 M 8.8574,11.7441 L 9.3496,12.9727 L 8.3145,12.166 L 8.8574,11.7441" fill="#000" /></svg>