<svg xmlns="http://www.w3.org/2000/svg" width="16" height="16"><path d="M 8.5,15.0 L 7.5,15.0 C 7.2239,15.0 7.0,14.7761 7.0,14.5 C 7.0,14.5 7.0,11.157 7.0,8.0 L 5.5,8.0 C 5.2239,8.0 5.0,7.7761 5.0,7.5 C 5.0,7.2239 5.2239,7.0 5.5,7.0 L 7.0,7.0 C 7.0,5.8642 7.0,4.8051 7.0,4.0 L 5.5,4.0 C 5.2239,4.0 5.0,3.7761 5.0,3.5 C 5.0,3.2239 5.2239,3.0 5.5,3.0 L 7.0,3.0 C 7.0,2.6815 7.0,2.5 7.0,2.5 C 7.0,2.2239 7.2239,2.0 7.5,2.0 L 8.5,2.0 C 8.7761,2.0 9.0,2.2239 9.0,2.5 L 9.0,5.0 L 10.5,5.0 C 10.7761,5.0 11.0,5.2239 11.0,5.5 C 11.0,5.7761 10.7761,6.0 10.5,6.0 L 9.0,6.0 L 9.0,14.5 C 9.0,14.7761 8.7761,15.0 8.5,15.0 M 5.5,8.5 C 5.7761,8.5 6.0,8.7239 6.0,9.0 L 6.0,10.0 C 6.0,10.2761 5.7761,10.5 5.5,10.5 C 5.2239,10.5 5.0,10.2761 5.0,10.0 L 5.0,9.0 C 5.0,8.7239 5.2239,8.5 5.5,8.5 M 10.5,6.5 C 10.7761,6.5 11.0,6.7239 11.0,7.0 L 11.0,8.0 C 11.0,8.2761 10.7761,8.5 10.5,8.5 C 10.2239,8.5 10.0,8.2761 10.0,8.0 L 10.0,7.0 C 10.0,6.7239 10.2239,6.5 10.5,6.5" fill="#000" /></svg>