<svg xmlns="http://www.w3.org/2000/svg" width="16" height="16"><path d="M 4.0,14.5 C 4.0,14.416 4.0207,14.3369 4.0573,14.2674 L 5.691,11.0 L 3.0,11.0 C 2.7239,11.0 2.5,10.7761 2.5,10.5 C 2.5,10.347 2.5688,10.21 2.6771,10.1183 L 6.0,7.27 C 6.0,6.853 6.0,6.4231 6.0,6.0 L 3.0,6.0 C 2.7239,6.0 2.5,5.7761 2.5,5.5 C 2.5,5.347 2.5688,5.21 2.6771,5.1183 L 6.1725,2.1222 C 6.2602,2.0461 6.3747,2.0 6.5,2.0 L 8.5,2.0 C 8.7761,2.0 9.0,2.2239 9.0,2.5 L 9.0,7.27 L 12.3229,10.1183 C 12.4312,10.21 12.5,10.347 12.5,10.5 C 12.5,10.7761 12.2761,11.0 12.0,11.0 L 9.309,11.0 L 10.9427,14.2674 C 10.9793,14.3369 11.0,14.416 11.0,14.5 C 11.0,14.7761 10.7761,15.0 10.5,15.0 C 10.3004,15.0 10.1281,14.883 10.0479,14.7139 L 9.691,14.0 L 5.309,14.0 L 4.952,14.7139 C 4.8719,14.883 4.6996,15.0 4.5,15.0 C 4.2238,15.0 4.0,14.7761 4.0,14.5 L 4.0,14.5 M 6.0,10.0 C 6.0,9.6796 6.0,9.18 6.0,8.5871 L 4.3516,10.0 L 6.0,10.0 M 9.0,8.5871 L 9.0,10.0 L 10.6484,10.0 L 9.0,8.5871 M 6.0,3.5871 L 4.3516,5.0 L 6.0,5.0 C 6.0,4.4742 6.0,3.9882 6.0,3.5871 M 8.0,8.0 L 7.0,8.0 L 7.0,10.0 L 8.0,10.0 L 8.0,8.0 M 5.809,13.0 L 9.191,13.0 L 8.191,11.0 L 6.809,11.0 L 5.809,13.0 M 8.0,6.0 L 7.0,6.0 L 7.0,7.0 L 8.0,7.0 L 8.0,6.0 M 8.0,3.0 L 7.0,3.0 L 7.0,5.0 L 8.0,5.0 L 8.0,3.0" fill="#000" /></svg>