<svg xmlns="http://www.w3.org/2000/svg" width="16" height="16"><path d="M 2.5,2.0 C 2.2239,2.0 2.0,2.2239 2.0,2.5 C 2.0,2.7761 2.2239,3.0 2.5,3.0 L 7.0,3.0 L 7.0,4.0 L 2.5,4.0 C 2.2239,4.0 2.0,4.2239 2.0,4.5 C 2.0,4.7761 2.2239,5.0 2.5,5.0 L 7.0,5.0 L 7.0,6.0 L 2.5,6.0 C 2.2239,6.0 2.0,6.2239 2.0,6.5 C 2.0,6.7761 2.2239,7.0 2.5,7.0 L 7.0,7.0 L 7.0,14.5 C 7.0,14.777 7.223,15.0 7.5,15.0 L 8.5,15.0 C 8.777,15.0 9.0,14.777 9.0,14.5 L 9.0,7.0 L 13.5,7.0 C 13.7761,7.0 14.0,6.7761 14.0,6.5 C 14.0,6.2239 13.7761,6.0 13.5,6.0 L 9.0,6.0 L 9.0,5.0 L 13.5,5.0 C 13.7761,5.0 14.0,4.7761 14.0,4.5 C 14.0,4.2239 13.7761,4.0 13.5,4.0 L 9.0,4.0 L 9.0,3.0 L 13.5,3.0 C 13.7761,3.0 14.0,2.7761 14.0,2.5 C 14.0,2.2239 13.7761,2.0 13.5,2.0 L 2.5,2.0 M 2.5,7.5 C 2.2239,7.5 2.0,7.7239 2.0,8.0 L 2.0,9.0 C 2.0,9.2761 2.2239,9.5 2.5,9.5 C 2.7761,9.5 3.0,9.2761 3.0,9.0 L 3.0,8.0 C 3.0,7.7239 2.7761,7.5 2.5,7.5 M 13.5,7.5 C 13.2239,7.5 13.0,7.7239 13.0,8.0 L 13.0,9.0 C 13.0,9.2761 13.2239,9.5 13.5,9.5 C 13.7761,9.5 14.0,9.2761 14.0,9.0 L 14.0,8.0 C 14.0,7.7239 13.7761,7.5 13.5,7.5" fill="#000" /></svg>