<svg xmlns="http://www.w3.org/2000/svg" width="16" height="16"><path d="M 4.0,14.5 C 4.0,14.416 4.0207,14.3369 4.0573,14.2674 L 6.0,10.382 C 6.0,10.382 6.0,9.2623 6.0,8.0 L 3.0,8.0 C 2.7239,8.0 2.5,7.7761 2.5,7.5 C 2.5,7.347 2.5688,7.21 2.6771,7.1183 L 6.0694,4.2105 L 7.022,1.3528 C 7.0848,1.1485 7.2751,1.0 7.5,1.0 C 7.7249,1.0 7.9152,1.1485 7.978,1.3528 L 8.9306,4.2105 L 12.3229,7.1183 C 12.4312,7.21 12.5,7.347 12.5,7.5 C 12.5,7.7761 12.2761,8.0 12.0,8.0 L 9.0,8.0 L 9.0,10.382 L 10.9427,14.2674 C 10.9793,14.3369 11.0,14.416 11.0,14.5 C 11.0,14.7761 10.7761,15.0 10.5,15.0 C 10.3004,15.0 10.1281,14.883 10.0479,14.7139 L 9.691,14.0 L 5.309,14.0 L 4.952,14.7139 C 4.8719,14.883 4.6996,15.0 4.5,15.0 C 4.2238,15.0 4.0,14.7761 4.0,14.5 L 4.0,14.5 M 6.0,7.0 C 6.0,6.4898 6.0,5.9978 6.0,5.5871 L 4.3516,7.0 L 6.0,7.0 M 9.0,5.5871 L 9.0,7.0 L 10.6484,7.0 L 9.0,5.5871 M 7.5,3.0811 L 7.1937,4.0 L 7.8063,4.0 L 7.5,3.0811 M 7.0,10.0 L 8.0,10.0 L 8.0,8.0 L 7.0,8.0 L 7.0,10.0 M 8.0,5.0 L 7.0,5.0 L 7.0,7.0 L 8.0,7.0 L 8.0,5.0 M 5.809,13.0 L 9.191,13.0 L 8.191,11.0 L 6.809,11.0 L 5.809,13.0" fill="#000" /></svg>