<svg xmlns="http://www.w3.org/2000/svg" width="16" height="16"><path d="M 6.0,9.4037 L 6.0,8.6754 L 2.112,3.8155 C 2.042,3.7294 2.0,3.6196 2.0,3.5 C 2.0,3.2239 2.2239,3.0 2.5,3.0 C 2.597,3.0 2.6876,3.0276 2.7643,3.0755 L 7.5,5.9169 L 12.2357,3.0755 C 12.3124,3.0276 12.403,3.0 12.5,3.0 C 12.7761,3.0 13.0,3.2239 13.0,3.5 C 13.0,3.6196 12.958,3.7294 12.888,3.8155 L 9.0,8.6754 L 9.0,9.4037 L 10.96,14.3038 C 10.9858,14.364 11.0,14.4304 11.0,14.5 C 11.0,14.7761 10.7761,15.0 10.5,15.0 C 10.3827,15.0 10.2748,14.9596 10.1895,14.8919 L 7.5,12.8001 L 4.8105,14.8919 C 4.7252,14.9596 4.6173,15.0 4.5,15.0 C 4.2239,15.0 4.0,14.7761 4.0,14.5 C 4.0,14.4304 4.0142,14.364 4.04,14.3038 L 6.0,9.4037 M 8.8588,11.7433 L 8.3144,12.1667 L 9.3505,12.9725 L 8.8588,11.7433 M 8.1615,10.0 L 6.8385,10.0 L 6.5277,10.777 L 7.5,11.5332 L 8.4723,10.777 L 8.1615,10.0 M 5.6495,12.9725 L 6.6856,12.1667 L 6.1412,11.7433 L 5.6495,12.9725 M 8.0,8.618 L 7.5,7.618 L 7.0,8.618 L 7.0,9.0 L 8.0,9.0 L 8.0,8.618 M 4.6284,5.3602 L 6.4023,7.5774 L 6.8457,6.6905 L 4.6284,5.3602 M 8.5977,7.5774 L 10.3716,5.3602 L 8.1543,6.6905 L 8.5977,7.5774" fill="#000" /></svg>