<svg xmlns="http://www.w3.org/2000/svg" width="16" height="16"><path d="M 4.0,14.5 C 4.0,14.416 4.0207,14.3369 4.0573,14.2674 L 5.691,11.0 L 3.5,11.0 C 3.2239,11.0 3.0,10.7761 3.0,10.5 C 3.0,10.2239 3.2239,10.0 3.5,10.0 L 6.0,10.0 L 6.0,8.0 L 3.5,8.0 C 3.2239,8.0 3.0,7.7761 3.0,7.5 C 3.0,7.2239 3.2239,7.0 3.5,7.0 L 6.0,7.0 L 6.0,5.0 L 3.5,5.0 C 3.2239,5.0 3.0,4.7761 3.0,4.5 C 3.0,4.2239 3.2239,4.0 3.5,4.0 L 6.1396,4.0 L 7.022,1.3528 C 7.0848,1.1485 7.2751,1.0 7.5,1.0 C 7.7249,1.0 7.9152,1.1485 7.978,1.3528 L 8.9707,4.3308 C 8.9897,4.3836 9.0,4.4406 9.0,4.5 L 9.0,10.382 L 10.9427,14.2674 C 10.9793,14.3369 11.0,14.416 11.0,14.5 C 11.0,14.7761 10.7761,15.0 10.5,15.0 C 10.3004,15.0 10.1281,14.883 10.0479,14.7139 L 9.691,14.0 L 5.309,14.0 L 4.9521,14.7139 C 4.8719,14.883 4.6996,15.0 4.5,15.0 C 4.2239,15.0 4.0,14.7761 4.0,14.5 L 4.0,14.5 M 7.5,3.0811 L 7.1937,4.0 L 7.8063,4.0 L 7.5,3.0811 M 8.0,8.0 L 7.0,8.0 L 7.0,10.0 L 8.0,10.0 L 8.0,8.0 M 8.0,5.0 L 7.0,5.0 L 7.0,7.0 L 8.0,7.0 L 8.0,5.0 M 5.809,13.0 L 9.191,13.0 L 8.191,11.0 L 6.809,11.0 L 5.809,13.0" fill="#000" /></svg>