<svg xmlns="http://www.w3.org/2000/svg" width="16" height="16"><path d="M 8.5,15.0 L 7.5,15.0 C 7.2239,15.0 7.0,14.7761 7.0,14.5 C 7.0,14.5 7.0,12.4246 7.0,10.0 L 2.5,10.0 C 2.2239,10.0 2.0,9.7761 2.0,9.5 C 2.0,9.2239 2.2239,9.0 2.5,9.0 L 7.0,9.0 C 7.0,8.6674 7.0,8.3326 7.0,8.0 L 2.5,8.0 C 2.2239,8.0 2.0,7.7761 2.0,7.5 C 2.0,7.2239 2.2239,7.0 2.5,7.0 L 7.0,7.0 C 7.0,6.6581 7.0,6.3232 7.0,6.0 L 2.5,6.0 C 2.2239,6.0 2.0,5.7761 2.0,5.5 C 2.0,5.2239 2.2239,5.0 2.5,5.0 L 7.0,5.0 C 7.0,4.6374 7.0,4.3009 7.0,4.0 L 2.5,4.0 C 2.2239,4.0 2.0,3.7761 2.0,3.5 C 2.0,3.2239 2.2239,3.0 2.5,3.0 L 7.0,3.0 C 7.0,2.6815 7.0,2.5 7.0,2.5 C 7.0,2.2239 7.2239,2.0 7.5,2.0 L 8.5,2.0 C 8.7761,2.0 9.0,2.2239 9.0,2.5 L 9.0,3.0 L 13.5,3.0 C 13.7761,3.0 14.0,3.2239 14.0,3.5 C 14.0,3.7761 13.7761,4.0 13.5,4.0 L 9.0,4.0 L 9.0,5.0 L 13.5,5.0 C 13.7761,5.0 14.0,5.2239 14.0,5.5 C 14.0,5.7761 13.7761,6.0 13.5,6.0 L 9.0,6.0 L 9.0,7.0 L 13.5,7.0 C 13.7761,7.0 14.0,7.2239 14.0,7.5 C 14.0,7.7761 13.7761,8.0 13.5,8.0 L 9.0,8.0 L 9.0,9.0 L 13.5,9.0 C 13.7761,9.0 14.0,9.2239 14.0,9.5 C 14.0,9.7761 13.7761,10.0 13.5,10.0 L 9.0,10.0 L 9.0,14.5 C 9.0,14.7761 8.7761,15.0 8.5,15.0 M 2.5,10.5 C 2.7761,10.5 3.0,10.7239 3.0,11.0 L 3.0,12.0 C 3.0,12.2761 2.7761,12.5 2.5,12.5 C 2.2239,12.5 2.0,12.2761 2.0,12.0 L 2.0,11.0 C 2.0,10.7239 2.2239,10.5 2.5,10.5 M 13.5,10.5 C 13.7761,10.5 14.0,10.7239 14.0,11.0 L 14.0,12.0 C 14.0,12.2761 13.7761,12.5 13.5,12.5 C 13.2239,12.5 13.0,12.2761 13.0,12.0 L 13.0,11.0 C 13.0,10.7239 13.2239,10.5 13.5,10.5" fill="#000" /></svg>