<svg xmlns="http://www.w3.org/2000/svg" width="16" height="16"><path d="M 7.5,1.0 C 7.3,1.0 7.128,1.117 7.048,1.286 L 6.057,3.267 C 6.021,3.337 6.0,3.416 6.0,3.5 L 6.0,4.0 L 4.5,4.0 C 4.223,4.001 4.0,4.224 4.0,4.5 C 4.0,4.776 4.223,4.999 4.499,5.0 L 6.0,5.0 L 6.0,10.382 L 4.057,14.267 C 4.021,14.337 4.0,14.416 4.0,14.5 C 4.0,14.776 4.224,15.0 4.5,15.0 C 4.7,15.0 4.872,14.883 4.952,14.714 L 5.309,14.0 L 9.691,14.0 L 10.048,14.714 C 10.128,14.883 10.3,15.0 10.5,15.0 C 10.776,15.0 11.0,14.776 11.0,14.5 C 11.0,14.416 10.979,14.337 10.943,14.267 L 9.0,10.382 L 9.0,5.0 L 10.5,5.0 C 10.777,4.999 11.0,4.776 11.0,4.5 C 11.0,4.224 10.777,4.001 10.501,4.0 L 9.0,4.0 L 9.0,3.501 C 9.0,3.416 8.979,3.337 8.943,3.267 L 7.952,1.286 C 7.872,1.117 7.7,1.0 7.5,1.0 M 7.0,3.618 L 7.5,2.618 L 8.0,3.618 L 8.0,4.0 L 7.0,4.0 L 7.0,3.618 M 7.0,7.0 L 7.0,5.0 L 8.0,5.0 L 8.0,7.0 L 7.0,7.0 M 7.0,10.0 L 7.0,8.0 L 8.0,8.0 L 8.0,10.0 L 7.0,10.0 M 5.809,13.0 L 6.809,11.0 L 8.191,11.0 L 9.191,13.0 L 5.809,13.0 M 4.5,5.5 C 4.224,5.5 4.0,5.724 4.0,6.0 L 4.0,7.0 C 4.0,7.276 4.224,7.5 4.5,7.5 C 4.776,7.5 5.0,7.276 5.0,7.0 L 5.0,6.001 C 5.0,5.724 4.776,5.5 4.5,5.5 M 10.5,5.5 C 10.224,5.5 10.0,5.724 10.0,6.0 L 10.0,7.0 C 10.0,7.276 10.224,7.5 10.5,7.5 C 10.776,7.5 11.0,7.276 11.0,7.0 L 11.0,6.001 C 11.0,5.724 10.776,5.5 10.5,5.5" fill="#000" /></svg>