<svg xmlns="http://www.w3.org/2000/svg" width="16" height="16"><path d="M 2.5,1.0 C 2.2239,1.0 2.0,1.2239 2.0,1.5 C 2.0,1.7761 2.2239,2.0 2.5,2.0 L 7.0,2.0 L 7.0,3.0 L 2.5,3.0 C 2.2239,3.0 2.0,3.2239 2.0,3.5 C 2.0,3.7761 2.2239,4.0 2.5,4.0 L 7.0,4.0 L 7.0,5.0 L 2.5,5.0 C 2.2239,5.0 2.0,5.2239 2.0,5.5 C 2.0,5.7761 2.2239,6.0 2.5,6.0 L 7.0,6.0 L 7.0,7.0 L 2.5,7.0 C 2.2239,7.0 2.0,7.2239 2.0,7.5 C 2.0,7.7761 2.2239,8.0 2.5,8.0 L 7.0,8.0 L 7.0,14.5 C 7.0,14.777 7.223,15.0 7.5,15.0 L 8.5,15.0 C 8.777,15.0 9.0,14.777 9.0,14.5 L 9.0,8.0 L 13.5,8.0 C 13.7761,8.0 14.0,7.7761 14.0,7.5 C 14.0,7.2239 13.7761,7.0 13.5,7.0 L 9.0,7.0 L 9.0,6.0 L 13.5,6.0 C 13.7761,6.0 14.0,5.7761 14.0,5.5 C 14.0,5.2239 13.7761,5.0 13.5,5.0 L 9.0,5.0 L 9.0,4.0 L 13.5,4.0 C 13.7761,4.0 14.0,3.7761 14.0,3.5 C 14.0,3.2239 13.7761,3.0 13.5,3.0 L 9.0,3.0 L 9.0,2.0 L 13.5,2.0 C 13.7761,2.0 14.0,1.7761 14.0,1.5 C 14.0,1.2239 13.7761,1.0 13.5,1.0 L 2.5,1.0 M 2.5,8.5 C 2.2239,8.5 2.0,8.7239 2.0,9.0 L 2.0,10.0 C 2.0,10.2761 2.2239,10.5 2.5,10.5 C 2.7761,10.5 3.0,10.2761 3.0,10.0 L 3.0,9.0 C 3.0,8.7239 2.7761,8.5 2.5,8.5 M 13.5,8.5 C 13.2239,8.5 13.0,8.7239 13.0,9.0 L 13.0,10.0 C 13.0,10.2761 13.2239,10.5 13.5,10.5 C 13.7761,10.5 14.0,10.2761 14.0,10.0 L 14.0,9.0 C 14.0,8.7239 13.7761,8.5 13.5,8.5" fill="#000" /></svg>