<svg xmlns="http://www.w3.org/2000/svg" width="16" height="16"><path d="M 4.0,14.5 C 4.0,14.416 4.0207,14.3369 4.0573,14.2674 L 5.691,11.0 L 3.0,11.0 C 2.7239,11.0 2.5,10.7761 2.5,10.5 C 2.5,10.347 2.5688,10.21 2.6771,10.1183 L 6.0,7.27 C 6.0,6.5364 6.0,5.7495 6.0,5.0 L 3.0,5.0 C 2.7239,5.0 2.5,4.7761 2.5,4.5 C 2.5,4.347 2.5688,4.21 2.6771,4.1183 L 6.1725,1.1222 C 6.2602,1.0461 6.3747,1.0 6.5,1.0 L 8.5,1.0 C 8.7761,1.0 9.0,1.2239 9.0,1.5 L 9.0,4.27 L 12.3229,7.1183 C 12.4312,7.21 12.5,7.347 12.5,7.5 C 12.5,7.7761 12.2761,8.0 12.0,8.0 L 9.0,8.0 L 9.0,10.382 L 10.9427,14.2674 C 10.9793,14.3369 11.0,14.416 11.0,14.5 C 11.0,14.7761 10.7761,15.0 10.5,15.0 C 10.3004,15.0 10.1281,14.883 10.0479,14.7139 L 9.691,14.0 L 5.309,14.0 L 4.952,14.7139 C 4.8719,14.883 4.6996,15.0 4.5,15.0 C 4.2238,15.0 4.0,14.7761 4.0,14.5 L 4.0,14.5 M 6.0,8.5871 L 4.3516,10.0 L 6.0,10.0 C 6.0,9.6817 6.0,9.1847 6.0,8.5871 M 9.0,5.5871 L 9.0,7.0 L 10.6484,7.0 L 9.0,5.5871 M 6.0,2.5871 L 4.3516,4.0 L 6.0,4.0 C 6.0,3.4697 6.0,2.9853 6.0,2.5871 M 8.0,8.0 L 7.0,8.0 L 7.0,10.0 L 8.0,10.0 L 8.0,8.0 M 5.809,13.0 L 9.191,13.0 L 8.1752,10.9684 C 8.1207,10.9888 8.0616,11.0 8.0,11.0 L 6.809,11.0 L 5.809,13.0 M 8.0,5.0 L 7.0,5.0 L 7.0,7.0 L 8.0,7.0 L 8.0,5.0 M 8.0,2.0 L 7.0,2.0 L 7.0,4.0 L 8.0,4.0 L 8.0,2.0" fill="#000" /></svg>