<svg xmlns="http://www.w3.org/2000/svg" width="16" height="16"><path d="M 2.5,2.0 C 2.223,2.0 2.0,2.223 2.0,2.5 L 2.0,11.0 C 2.0,12.1046 2.8954,13.0 4.0,13.0 C 5.1046,13.0 6.0,12.1046 6.0,11.0 L 11.1914,11.0 L 12.0527,12.7227 C 12.1372,12.8924 12.3104,12.9998 12.5,13.0 L 13.5,13.0 C 13.7761,13.0 14.0,12.7761 14.0,12.5 L 14.0,2.5 C 14.0,2.223 13.777,2.0 13.5,2.0 L 2.5,2.0 M 3.5,3.0 L 5.5,3.0 C 5.777,3.0 6.0,3.223 6.0,3.5 C 6.0,3.777 5.777,4.0 5.5,4.0 L 3.5,4.0 C 3.223,4.0 3.0,3.777 3.0,3.5 C 3.0,3.223 3.223,3.0 3.5,3.0 M 11.0,3.5 L 11.0,5.6914 L 12.2773,5.0527 C 12.7355,4.8256 13.1989,5.3513 12.916,5.7773 L 10.916,8.7773 C 10.6415,9.1887 10.0002,8.9946 10.0,8.5 L 10.0,6.3086 L 8.7227,6.9473 C 8.2645,7.1744 7.8011,6.6487 8.084,6.2227 L 10.084,3.2227 C 10.3557,2.8142 10.9998,3.0091 11.0,3.5 M 3.5,5.0 L 5.5,5.0 C 5.777,5.0 6.0,5.223 6.0,5.5 C 6.0,5.777 5.777,6.0 5.5,6.0 L 3.5,6.0 C 3.223,6.0 3.0,5.777 3.0,5.5 C 3.0,5.223 3.223,5.0 3.5,5.0 M 3.5,7.0 L 5.5,7.0 C 5.777,7.0 6.0,7.223 6.0,7.5 C 6.0,7.777 5.777,8.0 5.5,8.0 L 3.5,8.0 C 3.223,8.0 3.0,7.777 3.0,7.5 C 3.0,7.223 3.223,7.0 3.5,7.0 M 4.0,10.0 C 4.5523,10.0 5.0,10.4477 5.0,11.0 C 5.0,11.5523 4.5523,12.0 4.0,12.0 C 3.4477,12.0 3.0,11.5523 3.0,11.0 C 3.0,10.4477 3.4477,10.0 4.0,10.0" fill="#000" /></svg>