<svg xmlns="http://www.w3.org/2000/svg" width="16" height="16"><path d="M 4.4922,1.9922 A 0.5,0.5 0.0 0,0 4.0,2.5 L 4.0,3.0 L 2.5,3.0 A 0.5,0.5 0.0 1,0 2.5,4.0 L 4.0,4.0 L 4.0,11.4199 A 0.5,0.5 0.0 0,0 4.0,11.582 L 4.0,14.5 A 0.5,0.5 0.0 1,0 5.0,14.5 L 5.0,12.0 L 10.0,12.0 L 10.0,14.5 A 0.5,0.5 0.0 1,0 11.0,14.5 L 11.0,11.5801 A 0.5,0.5 0.0 0,0 11.0,11.418 L 11.0,4.0 L 12.5,4.0 A 0.5,0.5 0.0 1,0 12.5,3.0 L 11.0,3.0 L 11.0,2.5 A 0.5,0.5 0.0 0,0 10.4922,1.9922 A 0.5,0.5 0.0 0,0 10.0,2.5 L 10.0,3.0 L 5.0,3.0 L 5.0,2.5 A 0.5,0.5 0.0 0,0 4.4922,1.9922 M 5.0,4.0 L 10.0,4.0 L 10.0,11.0 L 5.0,11.0 L 5.0,4.0 M 2.4922,4.4922 A 0.5,0.5 0.0 0,0 2.0,5.0 L 2.0,6.0 A 0.5,0.5 0.0 1,0 3.0,6.0 L 3.0,5.0 A 0.5,0.5 0.0 0,0 2.4922,4.4922 M 7.4922,4.4922 A 0.5,0.5 0.0 0,0 7.0,5.0 L 7.0,6.0 A 0.5,0.5 0.0 1,0 8.0,6.0 L 8.0,5.0 A 0.5,0.5 0.0 0,0 7.4922,4.4922 M 12.4922,4.4922 A 0.5,0.5 0.0 0,0 12.0,5.0 L 12.0,6.0 A 0.5,0.5 0.0 1,0 13.0,6.0 L 13.0,5.0 A 0.5,0.5 0.0 0,0 12.4922,4.4922" fill="#000" /></svg>