<svg xmlns="http://www.w3.org/2000/svg" width="16" height="16"><path d="M 3.4844,1.9922 A 0.5,0.5 0.0 0,0 3.0019,2.459 L 2.957,3.0 L 2.5,3.0 A 0.5,0.5 0.0 1,0 2.5,4.0 L 2.873,4.0 L 2.789,5.0 L 2.5,5.0 A 0.5,0.5 0.0 1,0 2.5,6.0 L 2.707,6.0 L 2.623,7.0 L 2.5,7.0 A 0.5,0.5 0.0 1,0 2.5,8.0 L 2.541,8.0 L 2.0019,14.459 A 0.5,0.5 0.0 1,0 2.998,14.541 L 3.543,8.0 L 11.457,8.0 L 12.002,14.541 A 0.5,0.5 0.0 1,0 12.9981,14.459 L 12.459,8.0 L 12.5,8.0 A 0.5,0.5 0.0 1,0 12.5,7.0 L 12.3769,7.0 L 12.2929,6.0 L 12.5,6.0 A 0.5,0.5 0.0 1,0 12.5,5.0 L 12.2109,5.0 L 12.1269,4.0 L 12.5,4.0 A 0.5,0.5 0.0 1,0 12.5,3.0 L 12.043,3.0 L 11.9981,2.459 A 0.5,0.5 0.0 0,0 11.5,1.9922 A 0.5,0.5 0.0 0,0 11.002,2.541 L 11.041,3.0 L 3.9589,3.0 L 3.998,2.541 A 0.5,0.5 0.0 0,0 3.4844,1.9922 L 3.4844,1.9922 M 3.877,4.0 L 11.1231,4.0 L 11.2071,5.0 L 3.793,5.0 L 3.877,4.0 M 3.7109,6.0 L 11.2891,6.0 L 11.3731,7.0 L 3.627,7.0 L 3.7109,6.0 M 5.4922,8.4922 A 0.5,0.5 0.0 0,0 5.0,9.0 L 5.0,10.0 A 0.5,0.5 0.0 1,0 6.0,10.0 L 6.0,9.0 A 0.5,0.5 0.0 0,0 5.4922,8.4922 L 5.4922,8.4922 M 9.4922,8.4922 A 0.5,0.5 0.0 0,0 9.0,9.0 L 9.0,10.0 A 0.5,0.5 0.0 1,0 10.0,10.0 L 10.0,9.0 A 0.5,0.5 0.0 0,0 9.4922,8.4922 L 9.4922,8.4922" fill="#000" /></svg>