<svg xmlns="http://www.w3.org/2000/svg" width="16" height="16"><path d="M 2.0,3.5 C 2.0,3.2239 2.2239,3.0 2.5,3.0 L 3.1096,3.0 L 3.0176,2.6322 C 3.0061,2.5901 3.0,2.5457 3.0,2.5 C 3.0,2.2239 3.2239,2.0 3.5,2.0 C 3.7379,2.0 3.9371,2.1662 3.9876,2.3889 L 4.1404,3.0 L 10.8596,3.0 L 11.0124,2.3889 C 11.0629,2.1662 11.2621,2.0 11.5,2.0 C 11.7761,2.0 12.0,2.2239 12.0,2.5 C 12.0,2.5457 11.9939,2.59 11.9824,2.6322 L 11.8904,3.0 L 12.5,3.0 C 12.7761,3.0 13.0,3.2239 13.0,3.5 C 13.0,3.7761 12.7761,4.0 12.5,4.0 L 11.6404,4.0 L 8.9876,14.6111 C 8.9371,14.8338 8.7379,15.0 8.5,15.0 C 8.2239,15.0 8.0,14.7761 8.0,14.5 C 8.0,14.4543 8.0061,14.41 8.0176,14.3679 L 10.6096,4.0 L 4.3904,4.0 L 6.9824,14.3679 C 6.9939,14.4099 7.0,14.4543 7.0,14.5 C 7.0,14.7761 6.7761,15.0 6.5,15.0 C 6.2621,15.0 6.0629,14.8338 6.0124,14.6111 L 3.3596,4.0 L 2.5,4.0 C 2.2239,4.0 2.0,3.7761 2.0,3.5 M 2.5,4.5 C 2.7761,4.5 3.0,4.7239 3.0,5.0 L 3.0,6.0 C 3.0,6.2761 2.7761,6.5 2.5,6.5 C 2.2239,6.5 2.0,6.2761 2.0,6.0 L 2.0,5.0 C 2.0,4.7239 2.2239,4.5 2.5,4.5 M 7.5,4.5 C 7.7761,4.5 8.0,4.7239 8.0,5.0 L 8.0,6.0 C 8.0,6.2761 7.7761,6.5 7.5,6.5 C 7.2239,6.5 7.0,6.2761 7.0,6.0 L 7.0,5.0 C 7.0,4.7239 7.2239,4.5 7.5,4.5 M 12.5,4.5 C 12.7761,4.5 13.0,4.7239 13.0,5.0 L 13.0,6.0 C 13.0,6.2761 12.7761,6.5 12.5,6.5 C 12.2239,6.5 12.0,6.2761 12.0,6.0 L 12.0,5.0 C 12.0,4.7239 12.2239,4.5 12.5,4.5" fill="#000" /></svg>