<svg xmlns="http://www.w3.org/2000/svg" width="16" height="16"><path d="M 2.5,1.0 C 2.223,1.0 2.0,1.223 2.0,1.5 C 2.0,1.777 2.223,2.0 2.5,2.0 L 3.0,2.0 L 3.0,5.0 L 2.5,5.0 C 2.223,5.0 2.0,5.223 2.0,5.5 L 2.0,9.5 C 2.0,9.777 2.223,10.0 2.5,10.0 L 3.0,10.0 L 3.0,13.0 L 2.5,13.0 C 2.223,13.0 2.0,13.223 2.0,13.5 C 2.0,13.777 2.223,14.0 2.5,14.0 L 6.5,14.0 L 13.5,14.0 C 13.777,14.0 14.0,13.777 14.0,13.5 C 14.0,13.223 13.777,13.0 13.5,13.0 L 13.0,13.0 L 13.0,2.0 L 13.5,2.0 C 13.777,2.0 14.0,1.777 14.0,1.5 C 14.0,1.223 13.777,1.0 13.5,1.0 L 6.5,1.0 L 2.5,1.0 M 4.0,2.0 L 6.0,2.0 L 6.0,5.0 L 4.0,5.0 L 4.0,2.0 M 7.0,2.0 L 9.0,2.0 L 9.0,13.0 L 7.0,13.0 L 7.0,10.0 L 7.5,10.0 C 7.777,10.0 8.0,9.777 8.0,9.5 L 8.0,5.5 C 8.0,5.223 7.777,5.0 7.5,5.0 L 7.0,5.0 L 7.0,2.0 M 10.0,2.0 L 12.0,2.0 L 12.0,13.0 L 10.0,13.0 L 10.0,2.0 M 5.0,6.0 C 5.5523,6.0 6.0,6.4477 6.0,7.0 C 5.9999,7.3668 5.799,7.7041 5.4766,7.8789 C 5.4867,7.9186 5.5,7.9571 5.5,8.0 L 5.5,9.0 C 5.5,9.277 5.277,9.5 5.0,9.5 C 4.723,9.5 4.5,9.277 4.5,9.0 L 4.5,8.0 C 4.5,7.9571 4.5134,7.9186 4.5234,7.8789 C 4.2009,7.7041 4.0001,7.3668 4.0,7.0 C 4.0,6.4477 4.4477,6.0 5.0,6.0 M 4.0,10.0 L 6.0,10.0 L 6.0,13.0 L 4.0,13.0 L 4.0,10.0" fill="#000" /></svg>