<svg xmlns="http://www.w3.org/2000/svg" width="16" height="16"><path d="M 2.5,3.0 C 2.223,3.0 2.0,3.223 2.0,3.5 C 2.0,3.777 2.223,4.0 2.5,4.0 L 3.0,4.0 L 3.0,6.0 L 2.5,6.0 C 2.223,6.0 2.0,6.223 2.0,6.5 L 2.0,10.5 C 2.0,10.777 2.223,11.0 2.5,11.0 L 3.0,11.0 L 3.0,13.0 L 2.5,13.0 C 2.223,13.0 2.0,13.223 2.0,13.5 C 2.0,13.777 2.223,14.0 2.5,14.0 L 6.5,14.0 L 13.5,14.0 C 13.777,14.0 14.0,13.777 14.0,13.5 C 14.0,13.223 13.777,13.0 13.5,13.0 L 13.0,13.0 L 13.0,4.0 L 13.5,4.0 C 13.777,4.0 14.0,3.777 14.0,3.5 C 14.0,3.223 13.777,3.0 13.5,3.0 L 6.5,3.0 L 2.5,3.0 M 4.0,4.0 L 6.0,4.0 L 6.0,6.0 L 4.0,6.0 L 4.0,4.0 M 7.0,4.0 L 9.0,4.0 L 9.0,13.0 L 7.0,13.0 L 7.0,11.0 L 7.5,11.0 C 7.777,11.0 8.0,10.777 8.0,10.5 L 8.0,6.5 C 8.0,6.223 7.777,6.0 7.5,6.0 L 7.0,6.0 L 7.0,4.0 M 10.0,4.0 L 12.0,4.0 L 12.0,13.0 L 10.0,13.0 L 10.0,4.0 M 5.0,7.0 A 1.0,1.0 0.0 0,1 6.0,8.0 A 1.0,1.0 0.0 0,1 5.4766,8.8789 C 5.4867,8.9186 5.5,8.9571 5.5,9.0 L 5.5,10.0 C 5.5,10.277 5.277,10.5 5.0,10.5 C 4.723,10.5 4.5,10.277 4.5,10.0 L 4.5,9.0 C 4.5,8.9571 4.5134,8.9186 4.5234,8.8789 A 1.0,1.0 0.0 0,1 4.0,8.0 A 1.0,1.0 0.0 0,1 5.0,7.0 M 4.0,11.0 L 6.0,11.0 L 6.0,13.0 L 4.0,13.0 L 4.0,11.0" fill="#000" /></svg>