<svg xmlns="http://www.w3.org/2000/svg" width="16" height="16"><path d="M 6.0,1.4297 A 0.5,0.5 0.0 0,1 6.3008,1.498 L 11.3008,4.498 A 0.5,0.5 0.0 0,1 11.3262,4.5176 A 3.5,3.5 0.0 0,1 13.0,7.5 A 3.5,3.5 0.0 0,1 11.3262,10.4824 A 0.5,0.5 0.0 0,1 11.3008,10.502 L 6.3008,13.502 A 0.5,0.5 0.0 0,1 5.6152,13.3301 A 0.5,0.5 0.0 0,1 5.7871,12.6445 L 8.6973,10.8984 A 3.5,3.5 0.0 0,1 6.0352,8.0 L 2.0,8.0 A 0.5,0.5 0.0 0,1 1.5,7.5 A 0.5,0.5 0.0 0,1 2.0,7.0 L 6.0352,7.0 A 3.5,3.5 0.0 0,1 8.6894,4.0957 L 5.7871,2.3555 A 0.5,0.5 0.0 0,1 5.6152,1.6699 A 0.5,0.5 0.0 0,1 6.0,1.4297" fill="#000" /></svg>