<svg xmlns="http://www.w3.org/2000/svg" width="16" height="16"><path d="M 6.3008,1.498 L 11.3262,4.5176 C 12.3649,5.1529 12.9988,6.2824 13.0,7.5 C 12.999,8.7176 12.3649,9.8471 11.3262,10.4824 L 6.3008,13.502 C 6.064,13.6437 5.7572,13.5667 5.6152,13.3301 C 5.4735,13.0933 5.5504,12.7865 5.7871,12.6445 L 8.6973,10.8984 C 7.2993,10.5699 6.2439,9.4208 6.0352,8.0 L 2.0,8.0 C 1.7239,8.0 1.5,7.7761 1.5,7.5 C 1.5,7.2239 1.7239,7.0 2.0,7.0 L 6.0352,7.0 C 6.2406,5.5792 7.2928,4.4278 8.6894,4.0957 L 5.7871,2.3555 C 5.5504,2.2135 5.4735,1.9067 5.6152,1.6699 C 5.7594,1.4305 6.0686,1.3598 6.3008,1.498" fill="#000" /></svg>