<svg xmlns="http://www.w3.org/2000/svg" width="16" height="16"><path d="M 4.0,1.0 L 4.0,2.0 L 2.5,2.0 C 2.224,2.0 2.0,2.224 2.0,2.5 L 2.0,4.5 C 2.0,4.776 2.224,5.0 2.5,5.0 L 4.0,5.0 L 4.0,6.0 L 2.5,6.0 C 2.224,6.0 2.0,6.224 2.0,6.5 L 2.0,8.5 C 2.0,8.776 2.224,9.0 2.5,9.0 L 4.0,9.0 L 4.0,10.0 L 2.5,10.0 C 2.224,10.0 2.0,10.224 2.0,10.5 L 2.0,12.5 C 2.0,12.776 2.224,13.0 2.5,13.0 L 4.0,13.0 L 4.0,14.0 L 5.0,14.0 L 5.0,13.0 L 11.0,13.0 L 11.0,14.0 L 12.0,14.0 L 12.0,13.0 L 13.5,13.0 C 13.776,13.0 14.0,12.776 14.0,12.5 L 14.0,10.5 C 14.0,10.224 13.776,10.0 13.5,10.0 L 12.0,10.0 L 12.0,9.0 L 13.5,9.0 C 13.776,9.0 14.0,8.776 14.0,8.5 L 14.0,6.5 C 14.0,6.224 13.776,6.0 13.5,6.0 L 12.0,6.0 L 12.0,5.0 L 13.5,5.0 C 13.776,5.0 14.0,4.776 14.0,4.5 L 14.0,2.5 C 14.0,2.224 13.776,2.0 13.5,2.0 L 12.0,2.0 L 12.0,1.0 L 11.0,1.0 L 11.0,2.0 L 5.0,2.0 L 5.0,1.0 L 4.0,1.0 M 3.0,3.5 C 3.0,3.224 3.224,3.0 3.5,3.0 C 3.776,3.0 4.0,3.224 4.0,3.5 C 4.0,3.776 3.776,4.0 3.5,4.0 C 3.224,4.0 3.0,3.776 3.0,3.5 M 12.0,3.5 C 12.0,3.224 12.224,3.0 12.5,3.0 C 12.776,3.0 13.0,3.224 13.0,3.5 C 13.0,3.776 12.776,4.0 12.5,4.0 C 12.224,4.0 12.0,3.776 12.0,3.5 M 5.0,6.0 L 5.0,5.0 L 11.0,5.0 L 11.0,6.0 L 5.0,6.0 M 3.0,7.5 C 3.0,7.224 3.224,7.0 3.5,7.0 C 3.776,7.0 4.0,7.224 4.0,7.5 C 4.0,7.776 3.776,8.0 3.5,8.0 C 3.224,8.0 3.0,7.776 3.0,7.5 M 12.0,7.5 C 12.0,7.224 12.224,7.0 12.5,7.0 C 12.776,7.0 13.0,7.224 13.0,7.5 C 13.0,7.776 12.776,8.0 12.5,8.0 C 12.224,8.0 12.0,7.776 12.0,7.5 M 5.0,10.0 L 5.0,9.0 L 11.0,9.0 L 11.0,10.0 L 5.0,10.0 M 3.0,11.5 C 3.0,11.224 3.224,11.0 3.5,11.0 C 3.776,11.0 4.0,11.224 4.0,11.5 C 4.0,11.776 3.776,12.0 3.5,12.0 C 3.224,12.0 3.0,11.776 3.0,11.5 M 12.0,11.5 C 12.0,11.224 12.224,11.0 12.5,11.0 C 12.776,11.0 13.0,11.224 13.0,11.5 C 13.0,11.776 12.776,12.0 12.5,12.0 C 12.224,12.0 12.0,11.776 12.0,11.5" fill="#000" /></svg>