<svg xmlns="http://www.w3.org/2000/svg" width="16" height="16"><path d="M 3.2715,2.4902 C 3.1668,2.6715 3.1333,2.8853 3.1778,3.0898 L 3.1758,3.0878 C 2.7739,2.8562 2.2603,2.9933 2.0273,3.3945 C 1.7944,3.7968 1.9316,4.3119 2.334,4.5449 C 2.4364,4.6045 2.5502,4.6417 2.668,4.6542 C 2.6024,4.7129 2.5463,4.7814 2.5019,4.8574 C 2.2693,5.2602 2.4075,5.7754 2.8105,6.0078 C 3.2134,6.2404 3.7286,6.1023 3.9609,5.6992 C 3.9753,5.6732 3.9884,5.6465 4.0,5.6191 C 4.0718,5.7822 4.1936,5.9182 4.3477,6.0077 C 4.7506,6.2404 5.2658,6.1022 5.4981,5.6992 C 5.6965,5.3543 5.6264,4.9177 5.3301,4.6523 C 5.5986,4.6247 5.8376,4.4699 5.9727,4.2363 C 6.2044,3.8344 6.0672,3.3208 5.6661,3.0878 C 5.4048,2.9373 5.0829,2.9381 4.8223,3.0898 C 4.8995,2.7329 4.7378,2.3668 4.4219,2.1836 C 4.032,1.9575 3.5102,2.0777 3.2715,2.4902 L 3.2715,2.4902 M 7.5,4.0 C 7.223,4.0 7.0,4.223 7.0,4.5 L 7.0,6.293 L 6.8535,6.1465 C 6.4004,5.678 5.6588,6.3816 6.1465,6.8535 L 7.0,7.707 L 7.0,12.293 L 6.8535,12.1465 C 6.4004,11.678 5.6588,12.3816 6.1465,12.8535 L 7.1465,13.8535 C 7.4868,14.2066 8.0791,13.9097 8.0,13.4258 L 8.0,10.707 L 8.8535,9.8535 C 9.3373,9.3805 8.5989,8.6832 8.1465,9.1465 L 8.0,9.293 L 8.0,4.5 C 8.0,4.223 7.777,4.0 7.5,4.0 M 10.2715,5.4902 C 10.1668,5.6715 10.1333,5.8853 10.1778,6.0898 L 10.1758,6.0878 C 9.7739,5.8562 9.2603,5.9933 9.0273,6.3945 C 8.7944,6.7968 8.9316,7.3119 9.334,7.5449 C 9.4364,7.6045 9.5502,7.6417 9.668,7.6542 C 9.6024,7.7129 9.5463,7.7814 9.5019,7.8574 C 9.2693,8.2602 9.4075,8.7754 9.8105,9.0078 C 10.2134,9.2404 10.7286,9.1023 10.9609,8.6992 C 10.9753,8.6732 10.9884,8.6465 11.0,8.6191 C 11.0718,8.7822 11.1936,8.9182 11.3477,9.0077 C 11.7506,9.2404 12.2658,9.1022 12.4981,8.6992 C 12.6965,8.3543 12.6264,7.9177 12.3301,7.6523 C 12.5986,7.6247 12.8376,7.4699 12.9727,7.2363 C 13.2044,6.8344 13.0672,6.3208 12.6661,6.0878 C 12.4048,5.9373 12.0829,5.9381 11.8223,6.0898 C 11.8995,5.7329 11.7378,5.3668 11.4219,5.1836 C 11.032,4.9575 10.5102,5.0777 10.2715,5.4902 L 10.2715,5.4902 M 3.2715,8.4902 C 3.1668,8.6715 3.1333,8.8853 3.1778,9.0898 L 3.1758,9.0878 C 2.7739,8.8562 2.2603,8.9933 2.0273,9.3945 C 1.7944,9.7968 1.9316,10.3119 2.334,10.5449 C 2.4364,10.6045 2.5502,10.6417 2.668,10.6542 C 2.6024,10.7129 2.5463,10.7814 2.5019,10.8574 C 2.2693,11.2602 2.4075,11.7754 2.8105,12.0078 C 3.2134,12.2404 3.7286,12.1023 3.9609,11.6992 C 3.9753,11.6732 3.9884,11.6465 4.0,11.6191 C 4.0718,11.7822 4.1936,11.9182 4.3477,12.0077 C 4.7506,12.2404 5.2658,12.1022 5.4981,11.6992 C 5.6965,11.3543 5.6264,10.9177 5.3301,10.6523 C 5.5986,10.6247 5.8376,10.4699 5.9727,10.2363 C 6.2044,9.8344 6.0672,9.3208 5.6661,9.0878 C 5.4048,8.9373 5.0829,8.9381 4.8223,9.0898 C 4.8995,8.7329 4.7378,8.3668 4.4219,8.1836 C 4.032,7.9575 3.5102,8.0777 3.2715,8.4902 L 3.2715,8.4902" fill="#000" /></svg>