<svg xmlns="http://www.w3.org/2000/svg" width="16" height="16"><path d="M 4.0,3.0 C 3.4477,3.0 3.0,3.4477 3.0,4.0 C 2.4477,4.0 2.0,4.4477 2.0,5.0 C 2.0,5.5523 2.4477,6.0 3.0,6.0 C 3.0,6.5523 3.4477,7.0 4.0,7.0 C 4.5523,7.0 5.0,6.5523 5.0,6.0 C 5.5523,6.0 6.0,5.5523 6.0,5.0 C 6.0,4.4477 5.5523,4.0 5.0,4.0 C 5.0,3.4477 4.5523,3.0 4.0,3.0 M 7.5,4.0 C 7.223,4.0 7.0,4.223 7.0,4.5 L 7.0,6.293 L 6.8535,6.1465 C 6.7593,6.0491 6.6296,5.9941 6.4941,5.9941 C 6.0447,5.9942 5.8235,6.541 6.1465,6.8535 L 7.0,7.707 L 7.0,12.293 L 6.8535,12.1465 C 6.7593,12.0491 6.6296,11.9941 6.4941,11.9941 C 6.0447,11.9942 5.8235,12.541 6.1465,12.8535 L 7.1465,13.8535 C 7.4868,14.2066 8.0791,13.9097 8.0,13.4258 L 8.0,10.707 L 8.8535,9.8535 C 9.1788,9.5355 8.9449,8.9836 8.4902,8.9961 C 8.3605,9.0001 8.2372,9.0536 8.1465,9.1465 L 8.0,9.293 L 8.0,4.5 C 8.0,4.223 7.777,4.0 7.5,4.0 M 11.0,6.0 C 10.4477,6.0 10.0,6.4477 10.0,7.0 C 9.4477,7.0 9.0,7.4477 9.0,8.0 C 9.0,8.5523 9.4477,9.0 10.0,9.0 C 10.0,9.5523 10.4477,10.0 11.0,10.0 C 11.5523,10.0 12.0,9.5523 12.0,9.0 C 12.5523,9.0 13.0,8.5523 13.0,8.0 C 13.0,7.4477 12.5523,7.0 12.0,7.0 C 12.0,6.4477 11.5523,6.0 11.0,6.0 M 4.0,9.0 C 3.4477,9.0 3.0,9.4477 3.0,10.0 C 2.4477,10.0 2.0,10.4477 2.0,11.0 C 2.0,11.5523 2.4477,12.0 3.0,12.0 C 3.0,12.5523 3.4477,13.0 4.0,13.0 C 4.5523,13.0 5.0,12.5523 5.0,12.0 C 5.5523,12.0 6.0,11.5523 6.0,11.0 C 6.0,10.4477 5.5523,10.0 5.0,10.0 C 5.0,9.4477 4.5523,9.0 4.0,9.0" fill="#000" /></svg>