<svg xmlns="http://www.w3.org/2000/svg" width="16" height="16"><path d="M 11.0,1.0 C 10.8104,1.0002 10.6372,1.1076 10.5527,1.2773 L 10.0898,2.2031 L 9.1465,3.1465 C 9.0527,3.2403 9.0,3.3674 9.0,3.5 L 9.0,5.0 C 9.0004,5.371 9.3904,5.6124 9.7227,5.4473 L 10.0,5.3086 L 10.0,7.293 L 9.1465,8.1465 C 9.0527,8.2403 9.0,8.3674 9.0,8.5 L 9.0,10.0 C 9.0004,10.371 9.3904,10.6124 9.7227,10.4473 L 10.6172,10.0 L 11.3828,10.0 L 12.2773,10.4473 C 12.6096,10.6124 12.9996,10.371 13.0,10.0 L 13.0,8.5 C 13.0,8.3674 12.9473,8.2402 12.8535,8.1465 L 12.0,7.293 L 12.0,5.3086 L 12.2773,5.4473 C 12.6096,5.6124 12.9996,5.371 13.0,5.0 L 13.0,3.5 C 13.0,3.3674 12.9473,3.2402 12.8535,3.1465 L 11.9102,2.2031 L 11.4473,1.2773 C 11.3628,1.1076 11.1896,1.0002 11.0,1.0 M 3.5,3.0 C 3.2239,3.0 3.0,3.2239 3.0,3.5 L 3.0,14.5 C 3.0,14.7761 3.2239,15.0 3.5,15.0 C 3.7761,15.0 4.0,14.7761 4.0,14.5 L 4.0,13.707 L 5.0,12.707 L 5.0,14.5 C 5.0,14.7761 5.2239,15.0 5.5,15.0 C 5.7761,15.0 6.0,14.7761 6.0,14.5 L 6.0,5.0 L 7.5,5.0 C 7.7761,5.0 8.0,4.7761 8.0,4.5 C 8.0,4.2239 7.7761,4.0 7.5,4.0 L 6.0,4.0 L 6.0,3.5 C 6.0,3.2239 5.7761,3.0 5.5,3.0 C 5.2239,3.0 5.0,3.2239 5.0,3.5 L 5.0,4.0 L 4.0,4.0 L 4.0,3.5 C 4.0,3.2239 3.7761,3.0 3.5,3.0 M 4.0,5.0 L 5.0,5.0 L 5.0,5.293 L 4.0,6.293 L 4.0,5.0 M 5.0,6.707 L 5.0,9.293 L 4.0,8.293 L 4.0,7.707 L 5.0,6.707 M 4.0,9.707 L 5.0,10.707 L 5.0,11.293 L 4.0,12.293 L 4.0,9.707 M 11.0,11.002 C 10.6567,11.002 10.3127,11.1187 10.0352,11.3516 C 9.4801,11.8173 9.3389,12.6225 9.7012,13.25 L 10.5664,14.75 C 10.7586,15.0846 11.2414,15.0846 11.4336,14.75 L 12.2988,13.25 C 12.6611,12.6225 12.5199,11.8173 11.9648,11.3516 C 11.6873,11.1187 11.3433,11.002 11.0,11.002 L 11.0,11.002" fill="#000" /></svg>