<svg xmlns="http://www.w3.org/2000/svg" width="16" height="16"><path d="M 11.0,0.5 C 10.8674,0.5 10.7402,0.5527 10.6465,0.6465 C 10.2121,1.0808 10.0702,1.572 10.0234,2.0 L 10.0,2.0 L 9.0,3.5 L 9.0,4.5 L 10.0,4.0 L 10.0,8.0 L 9.0,10.0 L 9.0,11.0 L 10.0,10.5 C 10.0,10.7761 10.2239,11.0 10.5,11.0 L 11.5,11.0 C 11.7761,11.0 12.0,10.7761 12.0,10.5 L 13.0,11.0 L 13.0,10.0 L 12.0,8.0 L 12.0,4.0 L 13.0,4.5 L 13.0,3.5 L 12.0,2.0 L 11.9766,2.0 C 11.9299,1.572 11.7879,1.0808 11.3536,0.6465 C 11.2598,0.5527 11.1326,0.5 11.0,0.5 M 3.5,3.0 C 3.2239,3.0 3.0,3.2239 3.0,3.5 L 3.0,14.5 C 3.0,14.7761 3.2239,15.0 3.5,15.0 C 3.7761,15.0 4.0,14.7761 4.0,14.5 L 4.0,13.707 L 5.0,12.707 L 5.0,14.5 C 5.0,14.7761 5.2239,15.0 5.5,15.0 C 5.7761,15.0 6.0,14.7761 6.0,14.5 L 6.0,5.0 L 7.5,5.0 C 7.7761,5.0 8.0,4.7761 8.0,4.5 C 8.0,4.2239 7.7761,4.0 7.5,4.0 L 6.0,4.0 L 6.0,3.5 C 6.0,3.2239 5.7761,3.0 5.5,3.0 C 5.2239,3.0 5.0,3.2239 5.0,3.5 L 5.0,4.0 L 4.0,4.0 L 4.0,3.5 C 4.0,3.2239 3.7761,3.0 3.5,3.0 M 4.0,5.0 L 5.0,5.0 L 5.0,5.293 L 4.0,6.293 L 4.0,5.0 M 5.0,6.707 L 5.0,9.293 L 4.0,8.293 L 4.0,7.707 L 5.0,6.707 M 4.0,9.707 L 5.0,10.707 L 5.0,11.293 L 4.0,12.293 L 4.0,9.707 M 10.5,12.0 C 9.0,13.5 11.0,15.0 11.0,15.0 C 11.0,15.0 13.0,13.5 11.5,12.0 C 11.0,12.5 11.0,12.5 10.5,12.0" fill="#000" /></svg>