<svg xmlns="http://www.w3.org/2000/svg" width="16" height="16"><path d="M 3.5,2.0 C 3.2239,2.0 3.0,2.2239 3.0,2.5 L 3.0,13.5 C 3.0,13.7761 3.2239,14.0 3.5,14.0 C 3.7761,14.0 4.0,13.7761 4.0,13.5 L 4.0,12.707 L 5.0,11.707 L 5.0,13.5 C 5.0,13.7761 5.2239,14.0 5.5,14.0 C 5.7761,14.0 6.0,13.7761 6.0,13.5 L 6.0,4.0 L 7.5,4.0 C 7.7761,4.0 8.0,3.7761 8.0,3.5 C 8.0,3.2239 7.7761,3.0 7.5,3.0 L 6.0,3.0 L 6.0,2.5 C 6.0,2.2239 5.7761,2.0 5.5,2.0 C 5.2239,2.0 5.0,2.2239 5.0,2.5 L 5.0,3.0 L 4.0,3.0 L 4.0,2.5 C 4.0,2.2239 3.7761,2.0 3.5,2.0 M 11.0,2.0 C 10.8104,2.0002 10.6372,2.1076 10.5527,2.2773 L 10.0898,3.2031 L 9.1465,4.1465 C 9.0527,4.2403 9.0,4.3674 9.0,4.5 L 9.0,6.0 C 9.0004,6.371 9.3904,6.6124 9.7227,6.4473 L 10.0,6.3086 L 10.0,10.793 L 9.1465,11.6465 C 9.0527,11.7402 9.0,11.8674 9.0,12.0 L 9.0,13.5 C 9.0004,13.871 9.3904,14.1124 9.7227,13.9473 L 10.6172,13.5 L 11.3828,13.5 L 12.2773,13.9473 C 12.6096,14.1124 12.9996,13.871 13.0,13.5 L 13.0,12.0 C 13.0,11.8674 12.9473,11.7402 12.8535,11.6465 L 12.0,10.793 L 12.0,6.3086 L 12.2773,6.4473 C 12.6096,6.6124 12.9996,6.371 13.0,6.0 L 13.0,4.5 C 13.0,4.3674 12.9473,4.2402 12.8535,4.1465 L 11.9102,3.2031 L 11.4473,2.2773 C 11.3628,2.1076 11.1896,2.0002 11.0,2.0 M 4.0,4.0 L 5.0,4.0 L 5.0,4.293 L 4.0,5.293 L 4.0,4.0 M 5.0,5.707 L 5.0,8.293 L 4.0,7.293 L 4.0,6.707 L 5.0,5.707 M 4.0,8.707 L 5.0,9.707 L 5.0,10.293 L 4.0,11.293 L 4.0,8.707" fill="#000" /></svg>