<svg xmlns="http://www.w3.org/2000/svg" width="16" height="16"><path d="M 3.4941,1.0 C 3.2279,1.003 2.9998,1.2197 3.0,1.5 L 3.0,3.5 L 3.0,13.5 C 3.0,13.777 3.223,14.0 3.5,14.0 L 9.0,14.0 L 9.0,12.5 C 9.0,12.223 9.223,12.0 9.5,12.0 L 10.5,12.0 C 10.777,12.0 11.0,12.223 11.0,12.5 L 11.0,14.0 L 12.5,14.0 C 12.777,14.0 13.0,13.777 13.0,13.5 L 13.0,3.5 C 13.0,3.498 13.0,3.496 13.0,3.494 C 12.9995,3.3077 12.9035,3.1232 12.6992,3.0409 C 12.6815,3.0339 12.6619,3.0288 12.6426,3.0233 C 12.6313,3.0203 12.621,3.0143 12.6094,3.0116 L 12.6014,3.0096 C 12.6014,3.0096 12.5994,3.0096 12.5994,3.0096 L 3.6092,1.0115 C 3.5701,1.0025 3.532,0.9994 3.494,0.9998 L 3.4941,1.0 M 5.4746,4.0 C 5.4836,3.9996 5.4913,4.0 5.5,4.0 L 6.5,4.0 C 6.777,4.0 7.0,4.223 7.0,4.5 C 7.0,4.777 6.777,5.0 6.5,5.0 L 5.5,5.0 C 5.223,5.0 5.0,4.777 5.0,4.5 C 5.0,4.2317 5.2097,4.0133 5.4746,4.0 L 5.4746,4.0 M 9.4746,4.0 C 9.4836,3.9996 9.4913,4.0 9.5,4.0 L 10.5,4.0 C 10.777,4.0 11.0,4.223 11.0,4.5 C 11.0,4.777 10.777,5.0 10.5,5.0 L 9.5,5.0 C 9.223,5.0 9.0,4.777 9.0,4.5 C 9.0,4.2317 9.2097,4.0133 9.4746,4.0 L 9.4746,4.0 M 5.4746,6.0 C 5.4836,5.9996 5.4913,6.0 5.5,6.0 L 6.5,6.0 C 6.777,6.0 7.0,6.223 7.0,6.5 C 7.0,6.777 6.777,7.0 6.5,7.0 L 5.5,7.0 C 5.223,7.0 5.0,6.777 5.0,6.5 C 5.0,6.2317 5.2097,6.0133 5.4746,6.0 L 5.4746,6.0 M 9.4746,6.0 C 9.4836,5.9996 9.4913,6.0 9.5,6.0 L 10.5,6.0 C 10.777,6.0 11.0,6.223 11.0,6.5 C 11.0,6.777 10.777,7.0 10.5,7.0 L 9.5,7.0 C 9.223,7.0 9.0,6.777 9.0,6.5 C 9.0,6.2317 9.2097,6.0133 9.4746,6.0 L 9.4746,6.0 M 5.4746,8.0 C 5.4836,7.9996 5.4913,8.0 5.5,8.0 L 6.5,8.0 C 6.777,8.0 7.0,8.223 7.0,8.5 C 7.0,8.777 6.777,9.0 6.5,9.0 L 5.5,9.0 C 5.223,9.0 5.0,8.777 5.0,8.5 C 5.0,8.2317 5.2097,8.0133 5.4746,8.0 L 5.4746,8.0 M 9.4746,8.0 C 9.4836,7.9996 9.4913,8.0 9.5,8.0 L 10.5,8.0 C 10.777,8.0 11.0,8.223 11.0,8.5 C 11.0,8.777 10.777,9.0 10.5,9.0 L 9.5,9.0 C 9.223,9.0 9.0,8.777 9.0,8.5 C 9.0,8.2317 9.2097,8.0133 9.4746,8.0 L 9.4746,8.0 M 5.4746,10.0 C 5.4836,9.9996 5.4913,10.0 5.5,10.0 L 6.5,10.0 C 6.777,10.0 7.0,10.223 7.0,10.5 C 7.0,10.777 6.777,11.0 6.5,11.0 L 5.5,11.0 C 5.223,11.0 5.0,10.777 5.0,10.5 C 5.0,10.2317 5.2097,10.0133 5.4746,10.0 L 5.4746,10.0 M 9.4746,10.0 C 9.4836,9.9996 9.4913,10.0 9.5,10.0 L 10.5,10.0 C 10.777,10.0 11.0,10.223 11.0,10.5 C 11.0,10.777 10.777,11.0 10.5,11.0 L 9.5,11.0 C 9.223,11.0 9.0,10.777 9.0,10.5 C 9.0,10.2317 9.2097,10.0133 9.4746,10.0 L 9.4746,10.0 M 5.4746,12.0 C 5.4836,11.9996 5.4913,12.0 5.5,12.0 L 6.5,12.0 C 6.777,12.0 7.0,12.223 7.0,12.5 C 7.0,12.777 6.777,13.0 6.5,13.0 L 5.5,13.0 C 5.223,13.0 5.0,12.777 5.0,12.5 C 5.0,12.2317 5.2097,12.0133 5.4746,12.0 L 5.4746,12.0" fill="#000" /></svg>