<?xml version="1.0" encoding="utf-8" ?>
<svg baseProfile="full" height="16" version="1.1" width="16" xmlns="http://www.w3.org/2000/svg" xmlns:ev="http://www.w3.org/2001/xml-events" xmlns:xlink="http://www.w3.org/1999/xlink"><defs /><path d="M 13.0,5.0 A 1.0,1.0 0.0 0,0 12.0,6.0 L 2.0,6.0 L 3.0,10.0 L 10.0,11.0 C 10.277,11.0 10.5,11.2138 10.5,11.4785 L 10.5,11.5215 C 10.5,11.7862 10.277,12.0 10.0,12.0 L 8.5,12.0 L 4.5,12.0 C 4.223,12.0 4.0,12.223 4.0,12.5 C 4.0,12.777 4.223,13.0 4.5,13.0 L 5.0,13.0 L 5.0,13.5 C 5.0,13.777 5.223,14.0 5.5,14.0 C 5.777,14.0 6.0,13.777 6.0,13.5 L 6.0,13.0 L 9.0,13.0 L 9.0,13.5 C 9.0,13.777 9.2197,14.0 9.4922,14.0 L 9.5078,14.0 C 9.7803,14.0 10.0,13.777 10.0,13.5 L 10.0,13.0 L 10.5,13.0 C 10.777,13.0 11.0,12.777 11.0,12.5 L 13.0,6.0 L 14.5,6.0 C 14.777,6.0 15.0,5.7862 15.0,5.5215 L 15.0,5.4785 C 15.0,5.2138 14.777,5.0 14.5,5.0 L 13.0,5.0" fill="#000" /></svg>