<svg xmlns="http://www.w3.org/2000/svg" width="16" height="16"><path d="M 2.5,3.0 C 2.223,3.0 2.0,3.223 2.0,3.5 L 2.0,11.5 C 2.0,11.777 2.223,12.0 2.5,12.0 L 3.0,12.0 L 3.0,13.0 L 4.0,13.0 L 4.5,12.0 L 9.0,12.0 C 9.0,10.8954 9.8954,10.0 11.0,10.0 C 12.1046,10.0 13.0,10.8954 13.0,12.0 L 13.5,12.0 C 13.777,12.0 14.0,11.777 14.0,11.5 L 14.0,3.5 C 14.0,3.223 13.777,3.0 13.5,3.0 L 2.5,3.0 M 3.5,4.0 L 5.5,4.0 C 5.777,4.0 6.0,4.223 6.0,4.5 C 6.0,4.777 5.777,5.0 5.5,5.0 L 3.5,5.0 C 3.223,5.0 3.0,4.777 3.0,4.5 C 3.0,4.223 3.223,4.0 3.5,4.0 M 10.0,3.5 L 10.0,6.0 L 12.5,5.5 L 10.0,9.5 L 10.0,7.0 L 7.5,7.5 L 10.0,3.5 M 3.5,6.0 L 5.5,6.0 C 5.777,6.0 6.0,6.223 6.0,6.5 C 6.0,6.777 5.777,7.0 5.5,7.0 L 3.5,7.0 C 3.223,7.0 3.0,6.777 3.0,6.5 C 3.0,6.223 3.223,6.0 3.5,6.0 M 3.5,8.0 L 5.5,8.0 C 5.777,8.0 6.0,8.223 6.0,8.5 C 6.0,8.777 5.777,9.0 5.5,9.0 L 3.5,9.0 C 3.223,9.0 3.0,8.777 3.0,8.5 C 3.0,8.223 3.223,8.0 3.5,8.0 M 11.0,11.0 C 10.4477,11.0 10.0,11.4477 10.0,12.0 C 10.0,12.5523 10.4477,13.0 11.0,13.0 C 11.5523,13.0 12.0,12.5523 12.0,12.0 C 12.0,11.4477 11.5523,11.0 11.0,11.0" fill="#000" /></svg>