<?xml version="1.0" encoding="utf-8" ?>
<svg baseProfile="full" height="16" version="1.1" width="16" xmlns="http://www.w3.org/2000/svg" xmlns:ev="http://www.w3.org/2001/xml-events" xmlns:xlink="http://www.w3.org/1999/xlink"><defs /><path d="M 3.5,4.0 C 3.223,4.0 3.0,4.223 3.0,4.5 L 3.0,11.5 C 3.0,11.777 3.223,12.0 3.5,12.0 L 4.5,12.0 C 4.777,12.0 5.0,11.777 5.0,11.5 L 5.0,4.5 C 5.0,4.223 4.777,4.0 4.5,4.0 L 3.5,4.0 M 7.5,4.0 C 7.223,4.0 7.0,4.223 7.0,4.5 L 7.0,11.5 C 7.0,11.777 7.223,12.0 7.5,12.0 L 8.5,12.0 C 8.777,12.0 9.0,11.777 9.0,11.5 L 9.0,4.5 C 9.0,4.223 8.777,4.0 8.5,4.0 L 7.5,4.0 M 11.5,4.0 C 11.223,4.0 11.0,4.223 11.0,4.5 L 11.0,11.5 C 11.0,11.777 11.223,12.0 11.5,12.0 L 12.5,12.0 C 12.777,12.0 13.0,11.777 13.0,11.5 L 13.0,4.5 C 13.0,4.223 12.777,4.0 12.5,4.0 L 11.5,4.0" fill="#000" /></svg>