<?xml version="1.0" encoding="utf-8" ?>
<svg baseProfile="full" height="16" version="1.1" width="16" xmlns="http://www.w3.org/2000/svg" xmlns:ev="http://www.w3.org/2001/xml-events" xmlns:xlink="http://www.w3.org/1999/xlink"><defs /><path d="m 231.5,564 c -0.78246,0 -1.42673,0.61498 -1.48828,1.38281 A 0.50005,0.50005 0 0 0 230,565.5 v 1.5 h -0.5 a 0.50005,0.50005 0 1 0 0,1 h 0.44531 c -0.067,0.28456 -0.19274,0.46978 -0.36133,0.72266 -0.25,0.375 -0.58398,0.91623 -0.58398,1.77734 a 0.50005,0.50005 0 0 0 0.5,0.5 h 3 a 0.50005,0.50005 0 1 0 0,-1 h -2.33008 c 0.0722,-0.22867 0.0983,-0.50099 0.2461,-0.72266 0.19683,-0.29525 0.4382,-0.70099 0.53515,-1.27734 H 231.5 a 0.50005,0.50005 0 1 0 0,-1 H 231 v -1.46484 a 0.50005,0.50005 0 0 0 0,-0.0352 c 0,-0.28206 0.21794,-0.5 0.5,-0.5 0.28206,0 0.5,0.21794 0.5,0.5 a 0.50005,0.50005 0 1 0 1,0 c 0,-0.8225 -0.6775,-1.5 -1.5,-1.5 z" fill="#000" transform="translate(8.0,8.0) translate(-232.0,-568.0)" /></svg>