<?xml version="1.0" encoding="utf-8" ?>
<svg baseProfile="full" height="16" version="1.1" width="16" xmlns="http://www.w3.org/2000/svg" xmlns:ev="http://www.w3.org/2001/xml-events" xmlns:xlink="http://www.w3.org/1999/xlink"><defs /><path d="M 3.0,3.0 L 2.334,5.0 L 7.0,5.0 L 7.0,3.0 L 3.0,3.0 M 8.0,3.0 L 8.0,5.0 L 12.666,5.0 L 12.0,3.0 L 8.0,3.0 M 2.0,6.0 L 1.0,9.0 L 7.0,9.0 L 7.0,6.0 L 2.0,6.0 M 8.0,6.0 L 8.0,9.0 L 14.0,9.0 L 13.0,6.0 L 8.0,6.0 M 6.0,10.0 L 6.0,11.0 L 2.498,11.0 C 2.2219,11.0 2.0,11.223 2.0,11.5 C 2.0,11.777 2.2219,12.0 2.498,12.0 L 12.5,12.0 C 12.7761,12.0 12.998,11.777 12.998,11.5 C 12.998,11.223 12.7761,11.0 12.5,11.0 L 9.0,11.0 L 9.0,10.0 L 6.0,10.0" fill="#000" /></svg>