<svg xmlns="http://www.w3.org/2000/svg" width="16" height="16"><path d="M 4.5,2.0 C 4.223,2.0 4.0,2.223 4.0,2.5 C 4.0,2.777 4.223,3.0 4.5,3.0 L 5.5,3.0 C 5.777,3.0 6.0,2.777 6.0,2.5 C 6.0,2.223 5.777,2.0 5.5,2.0 L 4.5,2.0 M 10.5,2.0 C 10.223,2.0 10.0,2.223 10.0,2.5 C 10.0,2.777 10.223,3.0 10.5,3.0 L 11.5,3.0 C 11.777,3.0 12.0,2.777 12.0,2.5 C 12.0,2.223 11.777,2.0 11.5,2.0 L 10.5,2.0 M 3.5,4.0 C 3.223,4.0 3.0,4.223 3.0,4.5 C 3.0,4.777 3.223,5.0 3.5,5.0 L 6.5,5.0 C 6.777,5.0 7.0,4.777 7.0,4.5 C 7.0,4.223 6.777,4.0 6.5,4.0 L 3.5,4.0 M 9.5,4.0 C 9.223,4.0 9.0,4.223 9.0,4.5 C 9.0,4.777 9.223,5.0 9.5,5.0 L 12.5,5.0 C 12.777,5.0 13.0,4.777 13.0,4.5 C 13.0,4.223 12.777,4.0 12.5,4.0 L 9.5,4.0 M 2.5,6.0 C 2.223,6.0 2.0,6.223 2.0,6.5 L 2.0,12.5 C 2.0,12.777 2.223,13.0 2.5,13.0 L 13.5,13.0 C 13.777,13.0 14.0,12.777 14.0,12.5 L 14.0,6.5 C 14.0,6.223 13.777,6.0 13.5,6.0 L 2.5,6.0 M 10.0,6.5 L 10.0,9.0 L 12.5,8.5 L 10.0,12.5 L 10.0,10.0 L 7.5,10.5 L 10.0,6.5 M 3.5,7.0 L 5.5,7.0 C 5.777,7.0 6.0,7.223 6.0,7.5 C 6.0,7.777 5.777,8.0 5.5,8.0 L 3.5,8.0 C 3.223,8.0 3.0,7.777 3.0,7.5 C 3.0,7.223 3.223,7.0 3.5,7.0 M 3.5,9.0 L 5.5,9.0 C 5.777,9.0 6.0,9.223 6.0,9.5 C 6.0,9.777 5.777,10.0 5.5,10.0 L 3.5,10.0 C 3.223,10.0 3.0,9.777 3.0,9.5 C 3.0,9.223 3.223,9.0 3.5,9.0 M 3.5,11.0 L 5.5,11.0 C 5.777,11.0 6.0,11.223 6.0,11.5 C 6.0,11.777 5.777,12.0 5.5,12.0 L 3.5,12.0 C 3.223,12.0 3.0,11.777 3.0,11.5 C 3.0,11.223 3.223,11.0 3.5,11.0" fill="#000" /></svg>