<svg xmlns="http://www.w3.org/2000/svg" width="16" height="16"><path d="M 7.5,7.0 C 7.3328,7.0 7.1767,7.0836 7.084,7.2227 C 6.1409,8.6373 4.1566,10.6316 2.1992,12.0996 C 1.8138,12.3881 2.0186,13.0011 2.5,13.0 L 13.5,13.0 C 13.9814,13.0011 14.1862,12.3881 13.8008,12.0996 C 11.8434,10.6316 9.8591,8.6373 8.916,7.2227 C 8.8233,7.0836 8.6672,7.0 8.5,7.0 L 7.5,7.0" fill="#000" /><path d="M 6.0,2.5 C 4.3922,2.5 3.0718,3.7793 3.0039,5.3711 C 3.0017,5.4135 3.0,5.457 3.0,5.5 A 0.5,0.5 0.0 0,0 3.0234,5.6445 A 0.5,0.5 0.0 0,0 3.0371,5.6777 A 0.5,0.5 0.0 0,0 3.0879,5.7773 A 0.5,0.5 0.0 0,0 3.1133,5.8105 A 0.5,0.5 0.0 0,0 3.1895,5.8867 A 0.5,0.5 0.0 0,0 3.2227,5.9121 A 0.5,0.5 0.0 0,0 3.3223,5.9629 A 0.5,0.5 0.0 0,0 3.3555,5.9766 A 0.5,0.5 0.0 0,0 3.5,6.0 A 0.5,0.5 0.0 0,0 3.6445,5.9766 A 0.5,0.5 0.0 0,0 3.6777,5.9629 A 0.5,0.5 0.0 0,0 3.7773,5.9121 A 0.5,0.5 0.0 0,0 3.8105,5.8867 A 0.5,0.5 0.0 0,0 3.8867,5.8105 A 0.5,0.5 0.0 0,0 3.9121,5.7773 A 0.5,0.5 0.0 0,0 3.9629,5.6777 A 0.5,0.5 0.0 0,0 3.9766,5.6445 A 0.5,0.5 0.0 0,0 4.0,5.5 C 4.0,5.4738 4.001,5.4478 4.002,5.4219 C 4.0418,4.6243 4.6917,4.0 5.5,4.0 C 6.3343,4.0 7.0,4.6657 7.0,5.5 A 0.5,0.5 0.0 0,0 7.0156,5.6211 A 0.5,0.5 0.0 0,0 7.0196,5.6367 A 0.5,0.5 0.0 0,0 7.0938,5.7891 A 0.5,0.5 0.0 0,0 7.0998,5.7969 A 0.5,0.5 0.0 0,0 7.1408,5.8457 A 0.5,0.5 0.0 0,0 7.1545,5.8594 A 0.5,0.5 0.0 0,0 7.2033,5.9004 A 0.5,0.5 0.0 0,0 7.2113,5.9063 A 0.5,0.5 0.0 0,0 7.3636,5.9805 A 0.5,0.5 0.0 0,0 7.3792,5.9844 A 0.5,0.5 0.0 0,0 7.5,6.0 L 8.5,6.0 A 0.5,0.5 0.0 0,0 8.6367,5.9805 A 0.5,0.5 0.0 0,0 8.6447,5.9766 A 0.5,0.5 0.0 0,0 9.0,5.5 C 9.0,4.6657 9.6657,4.0 10.5,4.0 C 11.3343,4.0 12.0,4.6657 12.0,5.5 L 12.0,6.5 A 0.5,0.5 0.0 0,0 12.5,7.0 A 0.5,0.5 0.0 0,0 13.0,6.5 L 13.0,5.5 A 0.5,0.5 0.0 0,0 12.998,5.4688 C 12.9976,5.4363 12.9977,5.4032 12.996,5.3711 C 12.9282,3.7793 11.6078,2.5 10.0,2.5 C 9.2336,2.5 8.5315,2.7908 8.0,3.2676 C 7.4685,2.7908 6.7664,2.5 6.0,2.5 M 14.5,6.0 A 0.5,0.5 0.0 0,0 14.0,6.5 A 0.5,0.5 0.0 0,0 14.5,7.0 A 0.5,0.5 0.0 0,0 15.0,6.5 A 0.5,0.5 0.0 0,0 14.5,6.0 M 4.5,7.0 A 0.5,0.5 0.0 0,0 4.0,7.5 A 0.5,0.5 0.0 0,0 4.5,8.0 A 0.5,0.5 0.0 0,0 5.0,7.5 A 0.5,0.5 0.0 0,0 4.5,7.0 M 2.5,8.0 A 0.5,0.5 0.0 0,0 2.0,8.5 A 0.5,0.5 0.0 0,0 2.5,9.0 A 0.5,0.5 0.0 0,0 3.0,8.5 A 0.5,0.5 0.0 0,0 2.5,8.0 M 13.5,8.0 A 0.5,0.5 0.0 0,0 13.0,8.5 A 0.5,0.5 0.0 0,0 13.5,9.0 A 0.5,0.5 0.0 0,0 14.0,8.5 A 0.5,0.5 0.0 0,0 13.5,8.0" fill="#000" /></svg>