<?xml version="1.0" encoding="utf-8" ?>
<svg baseProfile="full" height="16" version="1.1" width="16" xmlns="http://www.w3.org/2000/svg" xmlns:ev="http://www.w3.org/2001/xml-events" xmlns:xlink="http://www.w3.org/1999/xlink"><defs /><path d="M 7.5,2.0 A 5.5,5.5 0.0 0,0 2.0,7.5 A 5.5,5.5 0.0 0,0 7.5,13.0 A 5.5,5.5 0.0 0,0 13.0,7.5 A 5.5,5.5 0.0 0,0 7.5,2.0 M 5.5,4.0 A 1.5,1.5 0.0 0,1 7.0,5.5 A 1.5,1.5 0.0 0,1 5.5,7.0 A 1.5,1.5 0.0 0,1 4.0,5.5 A 1.5,1.5 0.0 0,1 5.5,4.0 M 9.5,4.0 A 1.5,1.5 0.0 0,1 11.0,5.5 A 1.5,1.5 0.0 0,1 9.5,7.0 A 1.5,1.5 0.0 0,1 8.0,5.5 A 1.5,1.5 0.0 0,1 9.5,4.0 M 4.459,7.7871 A 0.7273,0.7273 0.0 0,1 5.0,8.0 A 0.7273,0.7273 0.0 0,1 5.0,9.0293 A 0.7273,0.7273 0.0 0,1 3.9707,9.0293 A 0.7273,0.7273 0.0 0,1 3.9707,8.0 A 0.7273,0.7273 0.0 0,1 4.459,7.7871 M 10.459,7.7871 A 0.7273,0.7273 0.0 0,1 11.0,8.0 A 0.7273,0.7273 0.0 0,1 11.0,9.0293 A 0.7273,0.7273 0.0 0,1 9.9707,9.0293 A 0.7273,0.7273 0.0 0,1 9.9707,8.0 A 0.7273,0.7273 0.0 0,1 10.459,7.7871 M 7.5,9.0 A 1.5,1.5 0.0 0,1 9.0,10.5 A 1.5,1.5 0.0 0,1 7.5,12.0 A 1.5,1.5 0.0 0,1 6.0,10.5 A 1.5,1.5 0.0 0,1 7.5,9.0" fill="#000" /></svg>