<svg xmlns="http://www.w3.org/2000/svg" width="16" height="16"><path d="M 5.0,2.0 C 4.446,2.0 4.0,2.446 4.0,3.0 L 4.0,13.0 C 4.0,13.554 4.446,14.0 5.0,14.0 L 11.0,14.0 C 11.554,14.0 12.0,13.554 12.0,13.0 L 12.0,3.0 C 12.0,2.446 11.554,2.0 11.0,2.0 L 5.0,2.0 M 5.5,3.0 L 10.5,3.0 C 10.777,3.0 11.0,3.223 11.0,3.5 L 11.0,10.5 C 11.0,10.777 10.777,11.0 10.5,11.0 L 5.5,11.0 C 5.223,11.0 5.0,10.777 5.0,10.5 L 5.0,3.5 C 5.0,3.223 5.223,3.0 5.5,3.0 M 7.5,12.0 L 8.5,12.0 C 8.777,12.0 9.0,12.223 9.0,12.5 C 9.0,12.777 8.777,13.0 8.5,13.0 L 7.5,13.0 C 7.223,13.0 7.0,12.777 7.0,12.5 C 7.0,12.223 7.223,12.0 7.5,12.0" fill="#000" /></svg>