<?xml version="1.0" encoding="utf-8" ?>
<svg baseProfile="full" height="16" version="1.1" width="16" xmlns="http://www.w3.org/2000/svg" xmlns:ev="http://www.w3.org/2001/xml-events" xmlns:xlink="http://www.w3.org/1999/xlink"><defs /><path d="m 488,145 c -0.12794,0 -0.25588,0.0489 -0.35352,0.14648 l -5,5 c -0.31479,0.315 -0.0918,0.85335 0.35352,0.85352 h 1 v 5.5 c 3e-5,0.27613 0.22387,0.49997 0.5,0.5 h 2.5 v -2.5 c 0,-0.277 0.223,-0.5 0.5,-0.5 h 1 c 0.277,0 0.5,0.223 0.5,0.5 v 2.5 h 2.5 c 0.27613,-3e-5 0.49997,-0.22387 0.5,-0.5 V 151 h 1 c 0.44533,-1.7e-4 0.66831,-0.53852 0.35352,-0.85352 l -5,-5 C 488.25588,145.04889 488.12794,145 488,145 Z" fill="#000" transform="translate(8.0,8.0) translate(-488.0,-152.0)" /></svg>