<svg xmlns="http://www.w3.org/2000/svg" width="16" height="16"><path d="M 7.0,1.0 L 7.0,4.041 A 3.5,3.5 0.0 0,0 4.041,7.0 L 3.5508,7.0 C 3.2738,7.0 3.0508,7.2091 3.0508,7.4688 L 3.0508,7.5312 C 3.0508,7.7909 3.2738,8.0 3.5508,8.0 L 11.4492,8.0 C 11.7262,8.0 11.9492,7.7909 11.9492,7.5312 L 11.9492,7.4688 C 11.9492,7.2091 11.7262,7.0 11.4492,7.0 L 10.9609,7.0 A 3.5,3.5 0.0 0,0 8.0,4.0391 L 8.0,3.0 L 11.0,3.0 L 11.0,1.0 L 8.0,1.0 L 7.0,1.0 M 4.0,9.0 L 4.0449,13.0 L 3.5508,13.0 C 3.2738,13.0 3.0508,13.2091 3.0508,13.4688 L 3.0508,13.5312 C 3.0508,13.7909 3.2738,14.0 3.5508,14.0 L 11.4492,14.0 C 11.7262,14.0 11.9492,13.7909 11.9492,13.5312 L 11.9492,13.4688 C 11.9492,13.2091 11.7262,13.0 11.4492,13.0 L 10.9433,13.0 L 10.8984,9.0 L 4.0,9.0 M 5.5,10.0 C 5.777,10.0 6.0,10.223 6.0,10.5 L 6.0,13.0 L 5.0,13.0 L 5.0,10.5 C 5.0,10.223 5.223,10.0 5.5,10.0 M 7.5,10.0 C 7.777,10.0 8.0,10.223 8.0,10.5 L 8.0,13.0 L 7.0,13.0 L 7.0,10.5 C 7.0,10.223 7.223,10.0 7.5,10.0 M 9.5,10.0 C 9.777,10.0 10.0,10.223 10.0,10.5 L 10.0,13.0 L 9.0,13.0 L 9.0,10.5 C 9.0,10.223 9.223,10.0 9.5,10.0" fill="#000" /></svg>