<?xml version="1.0" encoding="utf-8" ?>
<svg baseProfile="full" height="16" version="1.1" width="16" xmlns="http://www.w3.org/2000/svg" xmlns:ev="http://www.w3.org/2001/xml-events" xmlns:xlink="http://www.w3.org/1999/xlink"><defs /><path d="M 3.5,4.0 C 3.41,4.0 3.3306,4.0309 3.2578,4.0723 A 0.5,0.5 0.0 0,1 3.3125,4.1094 L 8.0,7.8594 L 12.6875,4.1094 A 0.5002,0.5002 0.0 0,1 12.7422,4.0703 C 12.6696,4.0293 12.5897,4.0 12.5,4.0 L 3.5,4.0 M 3.0,5.1406 L 3.0,11.5 C 3.0,11.777 3.223,12.0 3.5,12.0 L 12.5,12.0 C 12.777,12.0 13.0,11.777 13.0,11.5 L 13.0,5.1406 L 8.3125,8.8906 A 0.5,0.5 0.0 0,1 7.6875,8.8906 L 3.0,5.1406" fill="#000" /></svg>