<?xml version="1.0" encoding="utf-8" ?>
<svg baseProfile="full" height="16" version="1.1" width="16" xmlns="http://www.w3.org/2000/svg" xmlns:ev="http://www.w3.org/2001/xml-events" xmlns:xlink="http://www.w3.org/1999/xlink"><defs /><path d="M 3.4922,2.9922 A 0.5,0.5 0.0 0,0 3.0,3.5 L 3.0,4.0 L 2.0,4.0 A 0.5,0.5 0.0 1,0 2.0,5.0 L 3.0,5.0 L 3.0,6.418 A 0.5,0.5 0.0 0,0 3.0898,6.7891 L 6.0,11.6387 L 6.0,14.5 A 0.5,0.5 0.0 1,0 7.0,14.5 L 7.0,14.0 L 8.0,14.0 L 8.0,14.5 A 0.5,0.5 0.0 1,0 9.0,14.5 L 9.0,11.6387 L 11.9062,6.7949 A 0.5,0.5 0.0 0,0 11.9143,6.7849 A 0.5,0.5 0.0 0,0 12.0,6.418 L 12.0,5.0 L 13.0,5.0 A 0.5,0.5 0.0 1,0 13.0,4.0 L 12.0,4.0 L 12.0,3.5 A 0.5,0.5 0.0 0,0 11.4922,2.9922 A 0.5,0.5 0.0 0,0 11.0,3.5 L 11.0,4.0 L 4.0,4.0 L 4.0,3.5 A 0.5,0.5 0.0 0,0 3.4922,2.9922 M 4.0,5.0 L 11.0,5.0 L 11.0,6.25 L 7.5,8.875 L 4.0,6.25 L 4.0,5.0 M 5.2441,8.4355 L 6.8652,9.6504 L 6.4609,10.4609 L 5.2441,8.4355 M 9.7559,8.4355 L 8.5391,10.4609 L 8.1348,9.6504 L 9.7559,8.4355 M 7.5,10.6191 L 8.0,11.6172 L 8.0,13.0 L 7.0,13.0 L 7.0,11.6172 L 7.5,10.6191" fill="#000" /></svg>