<?xml version="1.0" encoding="utf-8" ?>
<svg baseProfile="full" height="16" version="1.1" width="16" xmlns="http://www.w3.org/2000/svg" xmlns:ev="http://www.w3.org/2001/xml-events" xmlns:xlink="http://www.w3.org/1999/xlink"><defs /><path d="M 8.0,1.0 C 7.4477,1.0 7.0,1.4477 7.0,2.0 C 7.0,2.5523 7.4477,3.0 8.0,3.0 C 8.5523,3.0 9.0,2.5523 9.0,2.0 C 9.0,1.4477 8.5523,1.0 8.0,1.0 M 6.0,4.0 L 7.0,5.0 C 6.7239,5.0 6.5,5.2239 6.5,5.5 C 6.5005,5.7441 6.6772,5.9521 6.918,5.9922 L 6.084,11.0 L 6.0,11.0 C 5.7239,11.0 5.5,11.2239 5.5,11.5 C 5.5,11.7761 5.7239,12.0 6.0,12.0 L 6.0,14.0 L 5.5,14.0 L 5.0,14.5 L 5.0,15.0 L 11.0,15.0 L 11.0,14.5 L 10.5,14.0 L 10.0,14.0 L 10.0,12.0 C 10.2761,12.0 10.5,11.7761 10.5,11.5 C 10.5,11.2239 10.2761,11.0 10.0,11.0 L 9.916,11.0 L 9.082,5.9922 C 9.3228,5.9521 9.4995,5.7441 9.5,5.5 C 9.5,5.2239 9.2761,5.0 9.0,5.0 L 10.0,4.0 L 6.0,4.0" fill="#000" /></svg>