<?xml version="1.0" encoding="utf-8" ?>
<svg baseProfile="full" height="16" version="1.1" width="16" xmlns="http://www.w3.org/2000/svg" xmlns:ev="http://www.w3.org/2001/xml-events" xmlns:xlink="http://www.w3.org/1999/xlink"><defs /><path d="M 6.0,1.0 L 7.0,3.0 L 6.0,5.0 L 8.0,4.0 L 10.0,5.0 L 9.0,3.0 L 10.0,1.0 L 8.0,2.0 L 6.0,1.0 M 8.0,5.0 C 7.5,6.25 6.25,7.25 5.0,8.0 L 7.0,8.0 C 6.5,9.25 5.25,10.25 4.0,11.0 L 6.0,11.0 C 5.5,12.25 4.25,13.25 3.0,14.0 L 7.0,14.0 L 7.0,15.0 L 9.0,15.0 L 9.0,14.0 L 13.0,14.0 C 11.75,13.25 10.5,12.25 10.0,11.0 L 12.0,11.0 C 10.75,10.25 9.5,9.25 9.0,8.0 L 11.0,8.0 C 9.75,7.25 8.5,6.25 8.0,5.0" fill="#000" /></svg>