<?xml version="1.0" encoding="utf-8" ?>
<svg baseProfile="full" height="16" version="1.1" width="16" xmlns="http://www.w3.org/2000/svg" xmlns:ev="http://www.w3.org/2001/xml-events" xmlns:xlink="http://www.w3.org/1999/xlink"><defs /><path d="M 4.5,1.0 A 0.5,0.5 0.0 0,0 4.0,1.5 L 4.0,2.5 A 0.5,0.5 0.0 0,0 4.0234,2.6465 A 0.5,0.5 0.0 0,0 4.0273,2.6582 A 0.5,0.5 0.0 0,0 4.0938,2.7891 A 0.5,0.5 0.0 0,0 4.1016,2.7988 A 0.5,0.5 0.0 0,0 4.2012,2.8984 A 0.5,0.5 0.0 0,0 4.2109,2.9062 A 0.5,0.5 0.0 0,0 4.3418,2.9727 A 0.5,0.5 0.0 0,0 4.3535,2.9766 A 0.5,0.5 0.0 0,0 4.5,3.0 L 11.5,3.0 A 0.5,0.5 0.0 0,0 11.6543,2.9746 A 0.5,0.5 0.0 0,0 11.6582,2.9727 A 0.5,0.5 0.0 0,0 11.793,2.9043 A 0.5,0.5 0.0 0,0 11.7988,2.8984 A 0.5,0.5 0.0 0,0 11.9043,2.793 A 0.5,0.5 0.0 0,0 11.9062,2.7891 A 0.5,0.5 0.0 0,0 11.9746,2.6543 A 0.5,0.5 0.0 0,0 11.9766,2.6465 A 0.5,0.5 0.0 0,0 12.0,2.5 L 12.0,1.5 A 0.5,0.5 0.0 0,0 11.5,1.0 L 10.5,1.0 A 0.5,0.5 0.0 0,0 10.0,1.5 L 10.0,2.0 L 9.0,2.0 L 9.0,1.5 A 0.5,0.5 0.0 0,0 8.5,1.0 L 7.5,1.0 A 0.5,0.5 0.0 0,0 7.0,1.5 L 7.0,2.0 L 6.0,2.0 L 6.0,1.5 A 0.5,0.5 0.0 0,0 5.5,1.0 L 4.5,1.0 M 5.0,4.0 L 4.0,12.0 L 12.0,12.0 L 11.0,4.0 L 5.0,4.0 M 8.0,6.0 C 8.554,6.0 9.0,6.446 9.0,7.0 L 9.0,8.5 A 0.5,0.5 0.0 0,1 8.5,9.0 L 7.5,9.0 A 0.5,0.5 0.0 0,1 7.0,8.5 L 7.0,7.0 C 7.0,6.446 7.446,6.0 8.0,6.0 M 3.5,13.0 A 0.5,0.5 0.0 0,0 3.0,13.5 A 0.5,0.5 0.0 0,0 3.5,14.0 L 12.5,14.0 A 0.5,0.5 0.0 0,0 13.0,13.5 A 0.5,0.5 0.0 0,0 12.5,13.0 L 3.5,13.0" fill="#000" /></svg>