<?xml version="1.0" encoding="utf-8" ?>
<svg baseProfile="full" height="16" version="1.1" width="16" xmlns="http://www.w3.org/2000/svg" xmlns:ev="http://www.w3.org/2001/xml-events" xmlns:xlink="http://www.w3.org/1999/xlink"><defs /><path d="M 13.0,2.0 L 13.0,6.0 L 14.0,6.0 L 14.0,2.0 L 13.0,2.0 M 4.0,6.0 A 2.0,2.0 0.0 0,0 2.0,8.0 A 2.0,2.0 0.0 0,0 4.0,10.0 A 2.0,2.0 0.0 0,0 6.0,8.0 A 2.0,2.0 0.0 0,0 4.0,6.0 M 13.0,7.0 A 1.0,1.0 0.0 0,1 12.0,8.0 L 9.5,8.0 A 1.5002,1.5002 0.0 0,0 8.0,9.5 L 8.0,10.5 A 1.5002,1.5002 0.0 0,0 9.5,12.0 L 11.5,12.0 A 1.5002,1.5002 0.0 0,0 12.5606,11.5606 L 13.5606,10.5606 A 1.5002,1.5002 0.0 0,0 14.0,9.5 A 1.5002,1.5002 0.0 0,0 14.0,9.4785 L 14.0,7.0 L 13.0,7.0 M 2.5,11.0 C 2.223,11.0 2.0,11.223 2.0,11.5 C 2.0,11.777 2.223,12.0 2.5,12.0 L 3.0,12.0 L 3.5,14.0 L 4.5,14.0 L 5.0,12.0 L 5.5,12.0 C 5.777,12.0 6.0,11.777 6.0,11.5 C 6.0,11.223 5.777,11.0 5.5,11.0 L 2.5,11.0" fill="#000" /></svg>