<?xml version="1.0" encoding="utf-8" ?>
<svg baseProfile="full" height="16" version="1.1" width="16" xmlns="http://www.w3.org/2000/svg" xmlns:ev="http://www.w3.org/2001/xml-events" xmlns:xlink="http://www.w3.org/1999/xlink"><defs /><path d="M 7.5,1.0 C 6.5,2.0 6.5,3.0 7.5,4.0 C 8.5,3.0 8.5,2.0 7.5,1.0 M 4.25,1.8711 C 3.884,3.2371 4.384,4.1027 5.75,4.4688 C 6.116,3.1027 5.616,2.2371 4.25,1.8711 M 10.75,1.8711 C 9.384,2.2371 8.884,3.1027 9.25,4.4688 C 10.616,4.1027 11.116,3.2371 10.75,1.8711 M 2.8008,4.1387 C 2.5218,4.122 2.2126,4.1585 1.8711,4.25 C 2.2371,5.616 3.1027,6.116 4.4688,5.75 C 4.1942,4.7255 3.6378,4.1889 2.8008,4.1387 M 12.1992,4.1387 C 11.3622,4.1889 10.8058,4.7255 10.5313,5.75 C 11.8973,6.116 12.7629,5.616 13.1289,4.25 C 12.7874,4.1585 12.4782,4.1219 12.1992,4.1387 M 7.5,4.5 C 5.8432,4.5 4.5,5.8431 4.5,7.5 C 4.5,9.1569 5.8432,10.5 7.5,10.5 C 9.1568,10.5 10.5,9.1569 10.5,7.5 C 10.5,5.8431 9.1568,4.5 7.5,4.5 M 2.5,6.75 C 2.0,6.75 1.5,7.0 1.0,7.5 C 2.0,8.5 3.0,8.5 4.0,7.5 C 3.5,7.0 3.0,6.75 2.5,6.75 M 12.5,6.75 C 12.0,6.75 11.5,7.0 11.0,7.5 C 12.0,8.5 13.0,8.5 14.0,7.5 C 13.5,7.0 13.0,6.75 12.5,6.75 M 3.5391,9.1387 C 2.702,9.1889 2.1456,9.7255 1.8711,10.75 C 3.2371,11.116 4.1027,10.616 4.4688,9.25 C 4.1272,9.1585 3.8181,9.1219 3.5391,9.1387 M 11.4609,9.1387 C 11.1819,9.122 10.8728,9.1585 10.5312,9.25 C 10.8973,10.616 11.7629,11.116 13.1289,10.75 C 12.8544,9.7255 12.298,9.1889 11.4609,9.1387 M 5.75,10.5312 C 4.384,10.8973 3.884,11.7629 4.25,13.1289 C 5.616,12.7629 6.116,11.8973 5.75,10.5312 M 9.25,10.5312 C 8.884,11.8973 9.384,12.7629 10.75,13.1289 C 11.116,11.7629 10.616,10.8973 9.25,10.5312 M 7.5,11.0 C 7.223,11.0 7.0,11.223 7.0,11.5 L 7.0,14.5 C 7.0,14.777 7.223,15.0 7.5,15.0 C 7.777,15.0 8.0,14.777 8.0,14.5 L 8.0,11.5 C 8.0,11.223 7.777,11.0 7.5,11.0" fill="#000" /></svg>