<svg xmlns="http://www.w3.org/2000/svg" width="16" height="16"><path d="M 2.5,2.0 A 0.5,0.5 0.0 0,0 2.0,2.5 A 0.5,0.5 0.0 0,0 2.5,3.0 L 7.0,3.0 L 7.0,4.0 L 2.5,4.0 A 0.5,0.5 0.0 0,0 2.0,4.5 A 0.5,0.5 0.0 0,0 2.5,5.0 L 7.0,5.0 L 7.0,6.0 L 2.5,6.0 A 0.5,0.5 0.0 0,0 2.0,6.5 A 0.5,0.5 0.0 0,0 2.5,7.0 L 7.0,7.0 L 7.0,14.5 C 7.0,14.777 7.223,15.0 7.5,15.0 L 8.5,15.0 C 8.777,15.0 9.0,14.777 9.0,14.5 L 9.0,7.0 L 13.5,7.0 A 0.5,0.5 0.0 0,0 14.0,6.5 A 0.5,0.5 0.0 0,0 13.5,6.0 L 9.0,6.0 L 9.0,5.0 L 13.5,5.0 A 0.5,0.5 0.0 0,0 14.0,4.5 A 0.5,0.5 0.0 0,0 13.5,4.0 L 9.0,4.0 L 9.0,3.0 L 13.5,3.0 A 0.5,0.5 0.0 0,0 14.0,2.5 A 0.5,0.5 0.0 0,0 13.5,2.0 L 8.5,2.0 L 7.5,2.0 L 2.5,2.0 M 2.5,7.5 A 0.5,0.5 0.0 0,0 2.0,8.0 L 2.0,9.0 A 0.5,0.5 0.0 0,0 2.5,9.5 A 0.5,0.5 0.0 0,0 3.0,9.0 L 3.0,8.0 A 0.5,0.5 0.0 0,0 2.5,7.5 M 13.5,7.5 A 0.5,0.5 0.0 0,0 13.0,8.0 L 13.0,9.0 A 0.5,0.5 0.0 0,0 13.5,9.5 A 0.5,0.5 0.0 0,0 14.0,9.0 L 14.0,8.0 A 0.5,0.5 0.0 0,0 13.5,7.5" fill="#000" /></svg>