<?xml version="1.0" encoding="utf-8" ?>
<svg baseProfile="full" height="16" version="1.1" width="16" xmlns="http://www.w3.org/2000/svg" xmlns:ev="http://www.w3.org/2001/xml-events" xmlns:xlink="http://www.w3.org/1999/xlink"><defs /><path d="M 8.5,2.0 A 0.5,0.5 0.0 1,0 8.5,3.0 C 10.4389,3.0 12.0,4.5611 12.0,6.5 A 0.5,0.5 0.0 1,0 13.0,6.5 C 13.0,4.0206 10.9794,2.0 8.5,2.0 M 4.6113,2.6113 A 5.5,5.5 0.0 0,0 4.6113,10.3887 A 5.5,5.5 0.0 0,0 12.3887,10.3887 L 8.5,6.5 L 4.6113,2.6113 M 8.5,4.0 A 0.5,0.5 0.0 1,0 8.5,5.0 C 9.3343,5.0 10.0,5.6656 10.0,6.5 A 0.5,0.5 0.0 1,0 11.0,6.5 C 11.0,5.1252 9.8748,4.0 8.5,4.0 M 4.0,11.1816 L 4.0,14.0 L 3.5,14.0 C 3.223,14.0 3.0,14.2091 3.0,14.4688 L 3.0,14.5312 C 3.0,14.7909 3.223,15.0 3.5,15.0 L 4.5,15.0 L 8.5,15.0 L 9.5,15.0 C 9.777,15.0 10.0,14.7909 10.0,14.5312 L 10.0,14.4688 C 10.0,14.2091 9.777,14.0 9.5,14.0 L 9.0,14.0 L 9.0,12.9688 C 7.2123,13.1053 5.3819,12.51 4.0,11.1816" fill="#000" /></svg>