<?xml version="1.0" encoding="utf-8" ?>
<svg baseProfile="full" height="16" version="1.1" width="16" xmlns="http://www.w3.org/2000/svg" xmlns:ev="http://www.w3.org/2001/xml-events" xmlns:xlink="http://www.w3.org/1999/xlink"><defs /><path d="M 6.5,6.0 C 5.1167,6.0 4.3125,6.6094 3.6875,7.1094 C 3.0625,7.6094 2.6167,8.0 1.5,8.0 C 1.483,8.0005 1.466,8.002 1.4492,8.004 C 1.4328,8.006 1.4165,8.009 1.4004,8.012 C 1.3518,8.0226 1.3051,8.0403 1.2617,8.0647 C 1.2176,8.0891 1.1774,8.1201 1.1426,8.1565 C 1.0971,8.2056 1.0619,8.2634 1.0391,8.3264 C 1.0214,8.3734 1.0109,8.4228 1.0079,8.4729 C 1.0059,8.5062 1.0072,8.5395 1.0119,8.5725 C 1.0169,8.6052 1.0257,8.6372 1.0373,8.6682 C 1.048,8.6994 1.0617,8.7295 1.0783,8.758 C 1.0873,8.7728 1.0971,8.7872 1.1076,8.801 C 1.1273,8.8272 1.1496,8.8514 1.174,8.8733 C 1.2113,8.9067 1.2535,8.9344 1.299,8.9553 C 1.3298,8.9689 1.3618,8.9793 1.3947,8.9865 C 1.4108,8.9905 1.4271,8.9935 1.4435,8.9965 C 1.4623,8.9985 1.4811,8.9995 1.5,8.9995 L 14.5,8.9995 C 14.517,8.999 14.534,8.9975 14.5508,8.9955 C 14.5672,8.9935 14.5835,8.9905 14.5996,8.9875 C 14.6649,8.9732 14.7266,8.946 14.7812,8.9074 C 14.8087,8.8885 14.8342,8.8669 14.8574,8.843 C 14.8914,8.8064 14.9197,8.7649 14.9414,8.72 C 14.9484,8.7047 14.9552,8.689 14.9609,8.6731 C 14.9669,8.6577 14.9721,8.6421 14.9765,8.6262 C 14.9805,8.6101 14.9835,8.5938 14.9865,8.5774 C 14.9915,8.5445 14.9935,8.5111 14.9925,8.4778 C 14.992,8.4608 14.9905,8.4438 14.9885,8.427 C 14.9855,8.4106 14.9825,8.3943 14.9785,8.3782 C 14.9745,8.3623 14.9685,8.3467 14.9629,8.3313 C 14.9579,8.3154 14.952,8.2997 14.9453,8.2844 C 14.9383,8.2697 14.9304,8.2553 14.9219,8.2414 C 14.9129,8.2266 14.9031,8.2122 14.8926,8.1984 C 14.8523,8.1453 14.8019,8.1008 14.7442,8.0675 C 14.6718,8.0251 14.5898,8.0015 14.5059,7.9991 L 14.4999,7.9991 C 13.3832,7.9991 12.9374,7.6085 12.3124,7.1085 C 11.6875,6.6094 10.8833,6.0 9.5,6.0 L 6.5,6.0" fill="#000" /></svg>