<svg xmlns="http://www.w3.org/2000/svg" width="16" height="16"><path d="M 3.1562,2.0 C 3.0208,2.0 2.8911,2.055 2.7969,2.1523 C 1.6446,3.341 1.0003,4.8909 1.0,6.5 C 1.0,10.1064 4.1607,13.0 8.0,13.0 C 11.8393,13.0 15.0,10.1064 15.0,6.5 C 14.9997,4.8909 14.3554,3.341 13.2031,2.1523 C 13.1089,2.0549 12.9792,2.0 12.8437,2.0 L 3.1562,2.0 M 5.959,3.7871 A 0.7273,0.7273 0.0 0,1 6.5,4.0 A 0.7273,0.7273 0.0 0,1 6.5,5.0293 A 0.7273,0.7273 0.0 0,1 5.4707,5.0293 A 0.7273,0.7273 0.0 0,1 5.4707,4.0 A 0.7273,0.7273 0.0 0,1 5.959,3.7871 L 5.959,3.7871 M 9.959,3.7871 A 0.7273,0.7273 0.0 0,1 10.5,4.0 A 0.7273,0.7273 0.0 0,1 10.5,5.0293 A 0.7273,0.7273 0.0 0,1 9.4707,5.0293 A 0.7273,0.7273 0.0 0,1 9.4707,4.0 A 0.7273,0.7273 0.0 0,1 9.959,3.7871 L 9.959,3.7871 M 4.0,6.0 A 1.0,1.0 0.0 0,1 5.0,7.0 A 1.0,1.0 0.0 0,1 4.0,8.0 A 1.0,1.0 0.0 0,1 3.0,7.0 A 1.0,1.0 0.0 0,1 4.0,6.0 M 8.0,6.0 A 1.0,1.0 0.0 0,1 9.0,7.0 A 1.0,1.0 0.0 0,1 8.0,8.0 A 1.0,1.0 0.0 0,1 7.0,7.0 A 1.0,1.0 0.0 0,1 8.0,6.0 M 12.0,6.0 A 1.0,1.0 0.0 0,1 13.0,7.0 A 1.0,1.0 0.0 0,1 12.0,8.0 A 1.0,1.0 0.0 0,1 11.0,7.0 A 1.0,1.0 0.0 0,1 12.0,6.0 M 6.0,9.0 A 1.0,1.0 0.0 0,1 7.0,10.0 A 1.0,1.0 0.0 0,1 6.0,11.0 A 1.0,1.0 0.0 0,1 5.0,10.0 A 1.0,1.0 0.0 0,1 6.0,9.0 M 10.0,9.0 A 1.0,1.0 0.0 0,1 11.0,10.0 A 1.0,1.0 0.0 0,1 10.0,11.0 A 1.0,1.0 0.0 0,1 9.0,10.0 A 1.0,1.0 0.0 0,1 10.0,9.0" fill="#000" /></svg>