<svg xmlns="http://www.w3.org/2000/svg" width="16" height="16"><path d="M 7.0,9.0 C 6.7729,8.9998 6.5525,9.077 6.375,9.2188 L 4.1484,11.0 L 3.0,11.0 C 2.4477,11.0001 2.0001,11.4477 2.0,12.0 L 2.0,13.0 C 2.0001,13.5523 2.4477,13.9999 3.0,14.0 C 3.0,12.892 3.892,12.0 5.0,12.0 C 6.108,12.0 7.0,12.892 7.0,14.0 L 9.0,14.0 C 9.0,12.892 9.892,12.0 11.0,12.0 C 12.108,12.0 13.0,12.892 13.0,14.0 C 13.5523,13.9999 13.9999,13.5523 14.0,13.0 L 14.0,12.0 C 13.9999,11.4477 13.5523,11.0001 13.0,11.0 L 12.4141,11.0 L 10.707,9.293 C 10.5195,9.1054 10.2652,9.0 10.0,9.0 L 7.0,9.0 M 5.0,13.0 C 4.446,13.0 4.0,13.446 4.0,14.0 C 4.0,14.554 4.446,15.0 5.0,15.0 C 5.554,15.0 6.0,14.554 6.0,14.0 C 6.0,13.446 5.554,13.0 5.0,13.0 M 11.0,13.0 C 10.446,13.0 10.0,13.446 10.0,14.0 C 10.0,14.554 10.446,15.0 11.0,15.0 C 11.554,15.0 12.0,14.554 12.0,14.0 C 12.0,13.446 11.554,13.0 11.0,13.0" fill="#000" /><path d="M 1.5,2.0 A 0.5,0.5 0.0 0,0 1.0,2.5 L 1.0,8.5 A 0.5,0.5 0.0 0,0 1.5,9.0 A 0.5,0.5 0.0 0,0 2.0,8.5 L 2.0,7.0 L 14.0,7.0 L 14.0,8.5 A 0.5,0.5 0.0 0,0 14.5,9.0 A 0.5,0.5 0.0 0,0 15.0,8.5 L 15.0,4.5 A 0.5,0.5 0.0 0,0 14.5,4.0 A 0.5,0.5 0.0 0,0 14.0,4.5 L 14.0,6.0 L 2.0,6.0 L 2.0,2.5 A 0.5,0.5 0.0 0,0 1.5,2.0 M 4.0,3.0 A 1.0,1.0 0.0 0,0 3.0,4.0 A 1.0,1.0 0.0 0,0 4.0,5.0 L 5.0,5.0 A 1.0,1.0 0.0 0,0 6.0,4.0 A 1.0,1.0 0.0 0,0 5.0,3.0 L 4.0,3.0 M 7.4512,3.002 A 0.5,0.5 0.0 0,0 7.0,3.5 L 7.0,4.5 A 0.5,0.5 0.0 0,0 7.5,5.0 L 12.5,5.0 A 0.5,0.5 0.0 0,0 12.5977,4.0098 L 7.5977,3.0098 A 0.5,0.5 0.0 0,0 7.4512,3.0018 L 7.4512,3.002" fill="#000" /></svg>