<?xml version="1.0" encoding="utf-8" ?>
<svg baseProfile="full" height="16" version="1.1" width="16" xmlns="http://www.w3.org/2000/svg" xmlns:ev="http://www.w3.org/2001/xml-events" xmlns:xlink="http://www.w3.org/1999/xlink"><defs /><path d="M 6.4922,1.9922 A 0.5,0.5 0.0 0,0 6.4434,1.9962 A 0.5,0.5 0.0 0,0 6.3829,2.0062 A 0.5,0.5 0.0 0,0 6.0001,2.5687 L 6.0001,7.43 A 0.5,0.5 0.0 0,0 6.0001,7.5882 L 6.0001,8.3246 L 2.1095,13.1878 A 0.5002,0.5002 0.0 1,0 2.8907,13.8128 L 6.0,9.9238 L 6.0,13.4297 A 0.5,0.5 0.0 0,0 6.4551,14.0059 A 0.5,0.5 0.0 0,0 6.5078,14.0079 A 0.5,0.5 0.0 0,0 6.5566,14.0039 A 0.5,0.5 0.0 0,0 6.8964,13.8124 A 0.5,0.5 0.0 0,0 6.9004,13.8064 L 8.0,12.707 L 8.0,13.5 A 0.5,0.5 0.0 1,0 9.0,13.5 L 9.0,11.5566 A 0.5,0.5 0.0 0,0 9.0,11.4336 L 9.0,10.5938 A 0.5,0.5 0.0 0,0 9.0,10.4258 L 9.0,9.9258 L 12.1094,13.8125 A 0.5002,0.5002 0.0 1,0 12.8906,13.1875 L 9.0,8.3242 L 9.0,5.5566 A 0.5,0.5 0.0 0,0 9.0,5.4336 L 9.0,4.5938 A 0.5,0.5 0.0 0,0 9.0,4.4258 L 9.0,2.5 A 0.5,0.5 0.0 0,0 8.4922,1.9922 A 0.5,0.5 0.0 0,0 8.0,2.5 L 8.0,3.293 L 6.8984,2.1914 A 0.5,0.5 0.0 0,0 6.4922,1.9922 M 7.0,3.707 L 8.0,4.707 L 8.0,5.293 L 7.0,6.293 L 7.0,3.707 M 8.0,6.707 L 8.0,8.4297 A 0.5,0.5 0.0 0,0 8.0,8.5625 L 8.0,9.293 L 7.0,8.293 L 7.0,7.707 L 8.0,6.707 M 7.0,9.707 L 8.0,10.707 L 8.0,11.293 L 7.0,12.293 L 7.0,9.707" fill="#000" /><path d="M 3.3848,1.873 A 0.5,0.5 0.0 0,0 3.0254,2.0254 C 2.3691,2.6816 2.0,3.5719 2.0,4.5 C 2.0,5.4281 2.3691,6.3184 3.0254,6.9746 A 0.5,0.5 0.0 1,0 3.7324,6.2676 C 3.2635,5.7986 3.0,5.1632 3.0,4.5 C 3.0,3.8368 3.2635,3.2014 3.7324,2.7324 A 0.5,0.5 0.0 0,0 3.3848,1.873 M 4.7988,3.2871 A 0.5,0.5 0.0 0,0 4.4395,3.4394 C 4.1583,3.7206 4.0,4.1024 4.0,4.5 C 4.0,4.8976 4.1583,5.2794 4.4394,5.5605 A 0.5,0.5 0.0 1,0 5.1465,4.8535 C 5.0526,4.7596 5.0,4.6328 5.0,4.5 C 5.0,4.3672 5.0526,4.2404 5.1465,4.1465 A 0.5,0.5 0.0 0,0 4.7988,3.2871" fill="#000" /><path d="M 11.6152,1.873 A 0.5,0.5 0.0 0,0 11.2676,2.7324 C 11.7365,3.2014 12.0,3.8368 12.0,4.5 C 12.0,5.1632 11.7365,5.7986 11.2676,6.2676 A 0.5,0.5 0.0 1,0 11.9746,6.9746 C 12.6309,6.3184 13.0,5.4281 13.0,4.5 C 13.0,3.5719 12.6309,2.6816 11.9746,2.0254 A 0.5,0.5 0.0 0,0 11.6152,1.8731 L 11.6152,1.873 M 10.2012,3.2871 A 0.5,0.5 0.0 0,0 9.8535,4.1465 C 9.9474,4.2404 10.0,4.3672 10.0,4.5 C 10.0,4.6328 9.9474,4.7596 9.8535,4.8535 A 0.5,0.5 0.0 1,0 10.5606,5.5605 C 10.8417,5.2794 11.0,4.8976 11.0,4.5 C 11.0,4.1024 10.8417,3.7206 10.5606,3.4395 A 0.5,0.5 0.0 0,0 10.2012,3.2871 L 10.2012,3.2871" fill="#000" /></svg>