<svg xmlns="http://www.w3.org/2000/svg" width="16" height="16"><path d="M 8.0,1.0 C 7.446,1.0 7.0,1.4439 7.0,2.0 C 6.446,2.0 6.0,2.446 6.0,3.0 C 6.0,3.554 6.446,4.0 7.0,4.0 L 7.0,5.0 L 6.0,5.0 C 6.0,4.446 5.554,4.0 5.0,4.0 C 4.446,4.0 4.0,4.446 4.0,5.0 C 3.446,5.0 3.0,5.446 3.0,6.0 C 3.0,6.554 3.446,7.0 4.0,7.0 C 4.0,7.554 4.446,8.0 5.0,8.0 C 5.554,8.0 6.0,7.554 6.0,7.0 L 7.0,7.0 L 7.0,12.0 C 6.446,12.0 6.0,12.446 6.0,13.0 C 6.0,13.554 6.446,14.0 7.0,14.0 C 7.0,14.5561 7.446,15.0 8.0,15.0 C 8.554,15.0 9.0,14.5561 9.0,14.0 C 9.554,14.0 10.0,13.554 10.0,13.0 C 10.0,12.446 9.554,12.0 9.0,12.0 L 9.0,7.0 L 10.0,7.0 C 10.0,7.554 10.446,8.0 11.0,8.0 C 11.554,8.0 12.0,7.554 12.0,7.0 C 12.554,7.0 13.0,6.554 13.0,6.0 C 13.0,5.446 12.554,5.0 12.0,5.0 C 12.0,4.446 11.554,4.0 11.0,4.0 C 10.446,4.0 10.0,4.446 10.0,5.0 L 9.0,5.0 L 9.0,4.0 C 9.554,4.0 10.0,3.554 10.0,3.0 C 10.0,2.446 9.554,2.0 9.0,2.0 C 9.0,1.4439 8.554,1.0 8.0,1.0" fill="#000" /></svg>