<svg xmlns="http://www.w3.org/2000/svg" width="16" height="16"><path d="M 3.5,3.0 C 3.223,3.0 3.0,3.223 3.0,3.5 C 3.0,3.777 3.223,4.0 3.5,4.0 L 4.5,4.0 C 4.777,4.0 5.0,3.777 5.0,3.5 C 5.0,3.223 4.777,3.0 4.5,3.0 L 3.5,3.0 M 7.0,3.0 C 6.6212,3.0 6.2749,3.214 6.1055,3.5527 L 5.3828,5.0 L 4.0,5.0 C 3.4477,5.0001 3.0001,5.4477 3.0,6.0 L 3.0,11.0 C 3.0001,11.5523 3.4477,11.9999 4.0,12.0 L 12.0,12.0 C 12.5523,11.9999 12.9999,11.5523 13.0,11.0 L 13.0,6.0 C 12.9999,5.4477 12.5523,5.0001 12.0,5.0 L 10.6172,5.0 L 9.8945,3.5527 C 9.7251,3.214 9.3788,3.0 9.0,3.0 L 7.0,3.0 M 8.0,6.0 A 2.0,2.0 0.0 0,1 10.0,8.0 A 2.0,2.0 0.0 0,1 8.0,10.0 A 2.0,2.0 0.0 0,1 6.0,8.0 A 2.0,2.0 0.0 0,1 8.0,6.0" fill="#000" /></svg>