<?xml version="1.0" encoding="utf-8" ?>
<svg baseProfile="full" height="16" version="1.1" width="16" xmlns="http://www.w3.org/2000/svg" xmlns:ev="http://www.w3.org/2001/xml-events" xmlns:xlink="http://www.w3.org/1999/xlink"><defs /><path d="M 7.5,3.0 A 4.5,4.5 0.0 0,0 3.0,7.5 A 4.5,4.5 0.0 0,0 7.5,12.0 A 4.5,4.5 0.0 0,0 12.0,7.5 A 4.5,4.5 0.0 0,0 7.5,3.0 M 7.5,3.7734 A 0.7273,0.7273 0.0 0,1 8.2266,4.5 A 0.7273,0.7273 0.0 0,1 7.5,5.2266 A 0.7273,0.7273 0.0 0,1 6.7734,4.5 A 0.7273,0.7273 0.0 0,1 7.5,3.7734 M 5.5,4.7734 A 0.7273,0.7273 0.0 0,1 6.2266,5.5 A 0.7273,0.7273 0.0 0,1 5.5,6.2266 A 0.7273,0.7273 0.0 0,1 4.7734,5.5 A 0.7273,0.7273 0.0 0,1 5.5,4.7734 M 7.5,5.7734 A 0.7273,0.7273 0.0 0,1 8.2266,6.5 A 0.7273,0.7273 0.0 0,1 7.5,7.2266 A 0.7273,0.7273 0.0 0,1 6.7734,6.5 A 0.7273,0.7273 0.0 0,1 7.5,5.7734" fill="#000" /></svg>