<?xml version="1.0" encoding="utf-8" ?>
<svg baseProfile="full" height="16" version="1.1" width="16" xmlns="http://www.w3.org/2000/svg" xmlns:ev="http://www.w3.org/2001/xml-events" xmlns:xlink="http://www.w3.org/1999/xlink"><defs /><path d="M 4.5,2.0 C 4.223,2.0 4.0,2.223 4.0,2.5 L 4.0,7.5 L 4.0,9.0 C 4.0,9.277 4.223,9.5 4.5,9.5 C 5.3284,9.5 6.0,10.1716 6.0,11.0 L 6.0,13.5 C 6.0,13.777 6.223,14.0 6.5,14.0 C 6.777,14.0 7.0,13.777 7.0,13.5 L 7.0,11.0 C 7.0,10.1716 7.6716,9.5 8.5,9.5 C 8.777,9.5 9.0,9.277 9.0,9.0 L 9.0,7.5 L 9.0,2.5 C 9.0,2.223 8.777,2.0 8.5,2.0 C 8.223,2.0 8.0,2.223 8.0,2.5 L 8.0,7.0 L 7.0,7.0 L 7.0,2.5 C 7.0,2.223 6.777,2.0 6.5,2.0 C 6.223,2.0 6.0,2.223 6.0,2.5 L 6.0,7.0 L 5.0,7.0 L 5.0,2.5 C 5.0,2.223 4.777,2.0 4.5,2.0 M 11.0,2.0 C 10.446,2.0 10.0,2.446 10.0,3.0 L 10.0,10.0 C 10.0,10.554 10.446,11.0 11.0,11.0 L 11.0,13.5 C 11.0,13.777 11.2317,14.0 11.5,14.0 C 11.7683,14.0 12.0,13.777 12.0,13.5 L 12.0,10.0 L 12.0,4.5 L 12.0,3.0 C 12.0,2.446 11.554,2.0 11.0,2.0" fill="#000" /></svg>