<svg xmlns="http://www.w3.org/2000/svg" width="16" height="16"><path d="M 7.5,1.0 C 7.223,1.0 7.0,1.223 7.0,1.5 L 7.0,3.0 L 5.5,3.0 C 5.223,3.0 5.0,3.223 5.0,3.5 L 5.0,4.5 C 5.0,4.777 5.223,5.0 5.5,5.0 L 7.0,5.0 L 7.0,6.0 L 3.5,6.0 C 3.223,6.0 3.0,6.223 3.0,6.5 L 3.0,7.5 C 3.0,7.777 3.223,8.0 3.5,8.0 L 7.0,8.0 L 7.0,10.1875 L 5.8438,9.875 C 5.5762,9.8033 5.2904,9.9824 5.2188,10.25 L 4.9688,11.2188 C 4.8971,11.4863 5.0449,11.7408 5.3125,11.8125 L 7.0,12.2812 L 7.0,14.5 C 7.0,14.777 7.223,15.0 7.5,15.0 L 8.5,15.0 C 8.777,15.0 9.0,14.777 9.0,14.5 L 9.0,12.8125 L 10.1562,13.125 C 10.4238,13.1967 10.7096,13.0176 10.7812,12.75 L 11.0312,11.7812 C 11.1029,11.5137 10.9551,11.2592 10.6875,11.1875 L 9.0,10.7188 L 9.0,8.0 L 12.5,8.0 C 12.777,8.0 13.0,7.777 13.0,7.5 L 13.0,6.5 C 13.0,6.223 12.777,6.0 12.5,6.0 L 9.0,6.0 L 9.0,5.0 L 10.5,5.0 C 10.777,5.0 11.0,4.777 11.0,4.5 L 11.0,3.5 C 11.0,3.223 10.777,3.0 10.5,3.0 L 9.0,3.0 L 9.0,1.5 C 9.0,1.223 8.777,1.0 8.5,1.0 L 7.5,1.0" fill="#000" /></svg>