<?xml version="1.0" encoding="utf-8" ?>
<svg baseProfile="full" height="16" version="1.1" width="16" xmlns="http://www.w3.org/2000/svg" xmlns:ev="http://www.w3.org/2001/xml-events" xmlns:xlink="http://www.w3.org/1999/xlink"><defs /><path d="M 2.4941,2.9941 A 0.5,0.5 0.0 0,0 2.3457,3.0175 A 0.5,0.5 0.0 0,0 2.3397,3.0195 A 0.5,0.5 0.0 0,0 2.3241,3.0255 A 0.5,0.5 0.0 0,0 2.2987,3.0355 A 0.5,0.5 0.0 0,0 2.2947,3.0375 A 0.5,0.5 0.0 0,0 2.2498,3.0609 A 0.5,0.5 0.0 0,0 2.2068,3.0882 A 0.5,0.5 0.0 0,0 2.1716,3.1136 A 0.5,0.5 0.0 0,0 2.1676,3.1176 A 0.5,0.5 0.0 0,0 2.1344,3.1488 A 0.5,0.5 0.0 0,0 2.1304,3.1528 A 0.5,0.5 0.0 0,0 2.1031,3.186 A 0.5,0.5 0.0 0,0 2.0991,3.19 A 0.5,0.5 0.0 0,0 2.0737,3.2271 A 0.5,0.5 0.0 0,0 2.0581,3.2545 A 0.5,0.5 0.0 0,0 2.0481,3.2701 A 0.5,0.5 0.0 0,0 2.0461,3.2761 A 0.5,0.5 0.0 0,0 2.0129,3.364 A 0.5,0.5 0.0 0,0 2.0109,3.37 A 0.5,0.5 0.0 0,0 1.9953,3.5126 A 0.5,0.5 0.0 0,0 1.9953,3.5186 A 0.5,0.5 0.0 0,0 1.9993,3.5616 A 0.5,0.5 0.0 0,0 1.9993,3.5676 A 0.5,0.5 0.0 0,0 2.0093,3.6106 A 0.5,0.5 0.0 0,0 2.103,3.8059 L 6.0,9.6523 L 6.0,10.4199 A 0.5,0.5 0.0 0,0 5.994,10.457 A 0.5,0.5 0.0 0,0 5.994,10.461 L 5.0155,14.379 A 0.5,0.5 0.0 1,0 5.9842,14.6212 L 6.1406,14.0 L 8.8594,14.0 L 9.0156,14.6211 A 0.5,0.5 0.0 1,0 9.9844,14.3789 L 9.0059,10.457 A 0.5,0.5 0.0 0,0 8.9999,10.4179 L 8.9999,9.6523 L 12.8846,3.8222 A 0.5,0.5 0.0 0,0 12.8946,3.8085 A 0.5,0.5 0.0 0,0 12.9942,3.5937 A 0.5,0.5 0.0 0,0 13.0022,3.5507 A 0.5,0.5 0.0 0,0 13.0022,3.5447 A 0.5,0.5 0.0 0,0 13.0022,3.4451 A 0.5,0.5 0.0 0,0 12.9942,3.3963 A 0.5,0.5 0.0 0,0 12.9842,3.3533 A 0.5,0.5 0.0 0,0 12.9822,3.3473 A 0.5,0.5 0.0 0,0 12.9666,3.3043 A 0.5,0.5 0.0 0,0 12.9646,3.3003 A 0.5,0.5 0.0 0,0 12.9431,3.2554 A 0.5,0.5 0.0 0,0 12.9255,3.2242 A 0.5,0.5 0.0 0,0 12.9175,3.2125 A 0.5,0.5 0.0 0,0 12.8902,3.1773 A 0.5,0.5 0.0 0,0 12.8862,3.1713 A 0.5,0.5 0.0 0,0 12.8569,3.14 A 0.5,0.5 0.0 0,0 12.8529,3.136 A 0.5,0.5 0.0 0,0 12.8197,3.1067 A 0.5,0.5 0.0 0,0 12.8157,3.1027 A 0.5,0.5 0.0 0,0 12.7786,3.0773 A 0.5,0.5 0.0 0,0 12.6985,3.0343 A 0.5,0.5 0.0 0,0 12.6905,3.0303 A 0.5,0.5 0.0 0,0 12.6845,3.0283 A 0.5,0.5 0.0 0,0 12.5946,3.0029 A 0.5,0.5 0.0 0,0 12.4892,2.9929 A 0.5,0.5 0.0 0,0 12.3955,3.0066 A 0.5,0.5 0.0 0,0 12.2568,3.0593 A 0.5,0.5 0.0 0,0 12.2138,3.0866 A 0.5,0.5 0.0 0,0 12.1669,3.1237 L 7.4989,6.8581 L 2.827,3.1217 L 2.8153,3.11 A 0.5,0.5 0.0 0,0 2.8113,3.108 A 0.5,0.5 0.0 0,0 2.5867,3.0026 A 0.5,0.5 0.0 0,0 2.493,2.9926 L 2.4941,2.9941 M 4.7031,5.9023 L 6.873,7.6387 L 6.4394,8.5059 L 4.7031,5.9023 M 10.2969,5.9023 L 8.5605,8.5059 L 8.1269,7.6387 L 10.2969,5.9023 M 7.5,8.6191 L 8.0,9.6172 L 8.0,10.0 L 7.0,10.0 L 7.0,9.6172 L 7.5,8.6191 M 6.8906,11.0 L 8.1094,11.0 L 8.6094,13.0 L 6.3906,13.0 L 6.8906,11.0" fill="#000" /></svg>