<svg xmlns="http://www.w3.org/2000/svg" width="16" height="16"><path d="M 1.5,3.0 C 1.2239,3.0 1.0,3.2239 1.0,3.5 L 1.0,11.5 C 1.0,11.7761 1.2239,12.0 1.5,12.0 L 9.5,12.0 C 9.5595,11.9994 9.6183,11.9881 9.6738,11.9668 C 9.6828,11.9638 9.6908,11.9608 9.6992,11.9568 C 9.7519,11.9334 9.8002,11.901 9.8418,11.8611 C 9.8488,11.8551 9.855,11.8483 9.8613,11.8416 C 9.9012,11.7999 9.9336,11.7517 9.957,11.699 C 9.961,11.691 9.964,11.6822 9.967,11.6736 C 9.9882,11.6181 9.9994,11.5594 10.0,11.5 L 10.0,9.5 L 10.0,7.5 C 10.0,7.2239 9.7761,7.0 9.5,7.0 C 9.2239,7.0 9.0,7.2239 9.0,7.5 L 9.0,9.5 L 9.0,11.0 L 6.0,11.0 L 6.0,10.0 L 7.5,10.0 C 7.7761,10.0 8.0,9.7761 8.0,9.5 C 8.0,9.2239 7.7761,9.0 7.5,9.0 L 5.5,9.0 C 5.2664,8.9996 5.0637,9.161 5.0117,9.3887 C 5.0037,9.4253 4.9997,9.4626 5.0,9.5 L 5.0,11.0 L 2.0,11.0 L 2.0,8.0 L 3.0,8.0 L 3.0,9.5 C 3.0,9.7761 3.2239,10.0 3.5,10.0 C 3.7762,10.0 4.0,9.7761 4.0,9.5 L 4.0,7.5 L 4.0,5.5 C 4.0,5.2239 3.7762,5.0 3.5,5.0 C 3.2239,5.0 3.0,5.2239 3.0,5.5 L 3.0,7.0 L 2.0,7.0 L 2.0,4.0 L 9.0,4.0 L 9.0,5.0 L 7.5,5.0 C 7.4626,4.9997 7.4252,5.004 7.3887,5.0117 C 7.161,5.0637 6.9996,5.2664 7.0,5.5 L 7.0,7.0 L 6.0,7.0 L 6.0,5.5 C 6.0,5.2239 5.7762,5.0 5.5,5.0 C 5.2239,5.0 5.0,5.2239 5.0,5.5 L 5.0,7.5 C 5.0,7.7761 5.2239,8.0 5.5,8.0 L 7.5,8.0 C 7.5374,8.0003 7.5748,7.996 7.6114,7.9883 C 7.8391,7.9363 8.0004,7.7336 8.0,7.5 L 8.0,6.0 L 9.5,6.0 C 9.5595,5.9994 9.6183,5.9881 9.6739,5.9668 C 9.6829,5.9638 9.6909,5.9608 9.6993,5.9568 C 9.752,5.9334 9.8002,5.901 9.8418,5.8611 C 9.8488,5.8551 9.855,5.8483 9.8613,5.8416 C 9.9012,5.7999 9.9336,5.7517 9.957,5.699 C 9.961,5.691 9.964,5.6822 9.967,5.6736 C 9.9882,5.6181 9.9994,5.5594 10.0,5.5 L 10.0,3.5 C 10.0,3.2239 9.7762,3.0 9.5,3.0 L 1.5,3.0" fill="#000" /><path d="M 12.5,4.0 A 0.5,0.5 0.0 0,0 12.1465,4.1465 A 0.5,0.5 0.0 0,0 12.1465,4.8535 L 13.293,6.0 L 11.5,6.0 A 0.5,0.5 0.0 0,0 11.0,6.5 A 0.5,0.5 0.0 0,0 11.5,7.0 L 13.293,7.0 L 12.1465,8.1465 A 0.5,0.5 0.0 0,0 12.1465,8.8535 A 0.5,0.5 0.0 0,0 12.8535,8.8535 L 14.8535,6.8535 A 0.5,0.5 0.0 0,0 14.8867,6.8164 A 0.5,0.5 0.0 0,0 14.8907,6.8124 A 0.5,0.5 0.0 0,0 14.8967,6.8044 A 0.5,0.5 0.0 0,0 14.9475,6.7224 A 0.5,0.5 0.0 0,0 14.9515,6.7164 A 0.5,0.5 0.0 0,0 14.9615,6.691 A 0.5,0.5 0.0 0,0 14.983,6.6246 A 0.5,0.5 0.0 0,0 14.991,6.6012 A 0.5,0.5 0.0 0,0 14.991,6.5972 A 0.5,0.5 0.0 0,0 15.001,6.4995 A 0.5,0.5 0.0 0,0 14.999,6.4507 A 0.5,0.5 0.0 0,0 14.997,6.439 A 0.5,0.5 0.0 0,0 14.991,6.4019 A 0.5,0.5 0.0 0,0 14.985,6.3765 A 0.5,0.5 0.0 0,0 14.979,6.355 A 0.5,0.5 0.0 0,0 14.973,6.3374 A 0.5,0.5 0.0 0,0 14.9613,6.3081 A 0.5,0.5 0.0 0,0 14.9573,6.2981 A 0.5,0.5 0.0 0,0 14.9417,6.2629 A 0.5,0.5 0.0 0,0 14.9397,6.2609 A 0.5,0.5 0.0 0,0 14.9163,6.2218 A 0.5,0.5 0.0 0,0 14.8948,6.1925 A 0.5,0.5 0.0 0,0 14.8868,6.1825 A 0.5,0.5 0.0 0,0 14.8673,6.161 A 0.5,0.5 0.0 0,0 14.8536,6.1454 L 14.838,6.1317 L 12.8536,4.1454 A 0.5,0.5 0.0 0,0 12.5,4.0" fill="#000" /></svg>