<svg xmlns="http://www.w3.org/2000/svg" width="16" height="16"><path d="M 10.5019,3.9922 A 0.5,0.5 0.0 0,0 10.414,4.0002 L 6.582,4.0002 A 0.5,0.5 0.0 0,0 6.4843,3.9942 A 0.5,0.5 0.0 0,0 6.4257,4.0002 L 5.0,4.0002 A 0.5,0.5 0.0 1,0 5.0,5.0002 L 5.8379,5.0002 L 4.9805,8.0002 L 2.5,8.0002 A 0.5,0.5 0.0 1,0 2.5,9.0002 L 4.6953,9.0002 L 4.0195,11.3635 A 0.5,0.5 0.0 1,0 4.9805,11.6369 L 5.7344,9.0 L 11.2656,9.0 L 12.0195,11.6367 A 0.5,0.5 0.0 1,0 12.9805,11.3633 L 12.3047,9.0 L 14.5,9.0 A 0.5,0.5 0.0 1,0 14.5,8.0 L 12.0195,8.0 L 11.1621,5.0 L 12.0,5.0 A 0.5,0.5 0.0 1,0 12.0,4.0 L 10.5781,4.0 A 0.5,0.5 0.0 0,0 10.5019,3.992 L 10.5019,3.9922 M 6.8769,5.0 L 10.123,5.0 L 10.9805,8.0 L 6.0195,8.0 L 6.8769,5.0" fill="#000" /></svg>