<?xml version="1.0" encoding="utf-8" ?>
<svg baseProfile="full" height="16" version="1.1" width="16" xmlns="http://www.w3.org/2000/svg" xmlns:ev="http://www.w3.org/2001/xml-events" xmlns:xlink="http://www.w3.org/1999/xlink"><defs /><path d="M 11.5,2.0 A 0.5,0.5 0.0 0,0 11.1465,2.1465 L 10.293,3.0 L 6.5,3.0 A 0.5,0.5 0.0 0,0 6.0,3.5 A 0.5,0.5 0.0 0,0 6.5,4.0 L 7.0,4.0 L 7.0,5.5 C 7.0,5.777 7.223,6.0 7.5,6.0 C 7.777,6.0 8.0,5.777 8.0,5.5 L 8.0,4.0 L 11.0,4.0 L 11.0,14.5 C 11.0,14.777 11.223,15.0 11.5,15.0 L 12.5,15.0 C 12.777,15.0 13.0,14.777 13.0,14.5 L 13.0,4.0 L 13.5,4.0 A 0.5,0.5 0.0 0,0 14.0,3.5 L 14.0,2.5 A 0.5,0.5 0.0 0,0 13.5,2.0 L 11.5,2.0 M 2.5,4.0 C 2.223,4.0 2.0,4.223 2.0,4.5 L 2.0,5.5 L 2.0,14.5 C 2.0,14.777 2.223,15.0 2.5,15.0 L 8.5,15.0 C 8.5173,15.0 8.5339,14.9998 8.5508,14.998 C 8.8035,14.9725 9.0,14.7597 9.0,14.5 L 9.0,7.5 C 9.0,7.223 8.777,7.0 8.5,7.0 C 8.223,7.0 8.0,7.223 8.0,7.5 L 8.0,8.0 L 6.0,8.0 L 6.0,5.5 C 6.0,5.4654 5.997,5.431 5.99,5.3984 C 5.983,5.3658 5.9733,5.3346 5.9607,5.3047 C 5.9481,5.2748 5.9318,5.2473 5.9138,5.2207 C 5.8959,5.1941 5.8759,5.1691 5.8533,5.1465 C 5.8307,5.1239 5.8057,5.1039 5.7791,5.086 C 5.7525,5.0681 5.725,5.0517 5.6951,5.0391 C 5.6652,5.0265 5.634,5.0164 5.6014,5.0098 C 5.5688,5.0028 5.5345,4.9998 5.4998,4.9998 L 3.0,4.9998 L 3.0,4.4998 C 3.0,4.2228 2.777,3.9998 2.5,3.9998 L 2.5,4.0 M 3.0,6.0 L 5.0,6.0 L 5.0,8.0 L 3.0,8.0 L 3.0,6.0 M 3.0,9.0 L 5.0,9.0 L 5.0,11.0 L 3.0,11.0 L 3.0,9.0 M 6.0,9.0 L 8.0,9.0 L 8.0,11.0 L 6.0,11.0 L 6.0,9.0 M 3.0,12.0 L 5.0,12.0 L 5.0,14.0 L 3.0,14.0 L 3.0,12.0 M 6.0,12.0 L 8.0,12.0 L 8.0,14.0 L 6.0,14.0 L 6.0,12.0" fill="#000" /></svg>