<svg xmlns="http://www.w3.org/2000/svg" width="16" height="16"><path d="M 2.4844,2.0 C 2.216,2.0 2.0,2.223 2.0,2.5 L 2.0,10.5 C 2.0,10.777 2.216,11.0 2.4844,11.0 L 4.0,11.0 L 4.0,13.5 C 4.0,13.777 4.216,14.0 4.4844,14.0 L 10.5156,14.0 C 10.784,14.0 11.0,13.777 11.0,13.5 L 11.0,11.0 L 12.5156,11.0 C 12.784,11.0 13.0,10.777 13.0,10.5 L 13.0,2.5 C 13.0,2.223 12.784,2.0 12.5156,2.0 L 2.4844,2.0 M 3.4844,3.0 L 6.5156,3.0 C 6.784,3.0 7.0,3.223 7.0,3.5 C 7.0,3.777 6.784,4.0 6.5156,4.0 L 3.4844,4.0 C 3.216,4.0 3.0,3.777 3.0,3.5 C 3.0,3.223 3.216,3.0 3.4844,3.0 M 8.4844,3.0 L 11.5156,3.0 C 11.784,3.0 12.0,3.223 12.0,3.5 C 12.0,3.777 11.784,4.0 11.5156,4.0 L 8.4844,4.0 C 8.216,4.0 8.0,3.777 8.0,3.5 C 8.0,3.223 8.216,3.0 8.4844,3.0 M 3.4844,5.0 L 6.5156,5.0 C 6.784,5.0 7.0,5.223 7.0,5.5 C 7.0,5.777 6.784,6.0 6.5156,6.0 L 3.4844,6.0 C 3.216,6.0 3.0,5.777 3.0,5.5 C 3.0,5.223 3.216,5.0 3.4844,5.0 M 8.4844,5.0 L 11.5156,5.0 C 11.784,5.0 12.0,5.223 12.0,5.5 C 12.0,5.777 11.784,6.0 11.5156,6.0 L 8.4844,6.0 C 8.216,6.0 8.0,5.777 8.0,5.5 C 8.0,5.223 8.216,5.0 8.4844,5.0 M 3.4844,7.0 L 6.5156,7.0 C 6.784,7.0 7.0,7.223 7.0,7.5 C 7.0,7.777 6.784,8.0 6.5156,8.0 L 3.4844,8.0 C 3.216,8.0 3.0,7.777 3.0,7.5 C 3.0,7.223 3.216,7.0 3.4844,7.0 M 8.4844,7.0 L 11.5156,7.0 C 11.784,7.0 12.0,7.223 12.0,7.5 C 12.0,7.777 11.784,8.0 11.5156,8.0 L 8.4844,8.0 C 8.216,8.0 8.0,7.777 8.0,7.5 C 8.0,7.223 8.216,7.0 8.4844,7.0 M 3.4844,9.0 L 6.5156,9.0 C 6.784,9.0 7.0,9.223 7.0,9.5 C 7.0,9.777 6.784,10.0 6.5156,10.0 L 3.4844,10.0 C 3.216,10.0 3.0,9.777 3.0,9.5 C 3.0,9.223 3.216,9.0 3.4844,9.0 M 8.4844,9.0 L 11.5156,9.0 C 11.784,9.0 12.0,9.223 12.0,9.5 C 12.0,9.777 11.784,10.0 11.5156,10.0 L 8.4844,10.0 C 8.216,10.0 8.0,9.777 8.0,9.5 C 8.0,9.223 8.216,9.0 8.4844,9.0" fill="#000" /></svg>