<?xml version="1.0" encoding="utf-8" ?>
<svg baseProfile="full" height="16" version="1.1" width="16" xmlns="http://www.w3.org/2000/svg" xmlns:ev="http://www.w3.org/2001/xml-events" xmlns:xlink="http://www.w3.org/1999/xlink"><defs /><path d="M 7.0,1.0 L 7.0,2.293 L 3.1465,6.1465 C 3.0561,6.2369 3.0,6.3615 3.0,6.5 L 3.0,8.0 L 3.0,8.5 L 3.0,14.0 L 12.0,14.0 L 12.0,8.5 L 12.0,8.0 L 12.0,6.5 C 12.0,6.4787 11.999,6.4581 11.996,6.4375 C 11.996,6.4375 11.996,6.4355 11.996,6.4355 A 0.5,0.5 0.0 0,0 11.996,6.4335 C 11.993,6.4121 11.988,6.3914 11.9823,6.371 C 11.9743,6.341 11.9622,6.3126 11.9491,6.2851 A 0.5,0.5 0.0 0,0 11.9159,6.2226 A 0.5,0.5 0.0 0,0 11.9139,6.2206 C 11.9139,6.2206 11.9119,6.2186 11.9119,6.2186 A 0.5,0.5 0.0 0,0 11.8533,6.1463 L 10.8318,5.1248 L 11.5388,4.4178 L 9.4177,2.2967 L 9.0642,2.6502 L 8.7107,3.0037 L 8.0,2.293 L 8.0,1.0 L 7.0,1.0 M 7.5,3.207 L 8.0039,3.7109 L 10.125,5.832 L 10.293,6.0 L 4.707,6.0 L 7.5,3.207 M 4.5,9.0 L 10.5,9.0 C 10.777,9.0 11.0,9.223 11.0,9.5 L 11.0,10.5 C 11.0,10.777 10.777,11.0 10.5,11.0 L 4.5,11.0 C 4.223,11.0 4.0,10.777 4.0,10.5 L 4.0,9.5 C 4.0,9.223 4.223,9.0 4.5,9.0" fill="#000" /></svg>