<svg xmlns="http://www.w3.org/2000/svg" width="16" height="16"><path d="M 11.0,2.5 C 10.8674,2.5 10.7402,2.5527 10.6465,2.6465 C 10.2121,3.0808 10.0702,3.572 10.0234,4.0 L 10.0,4.0 L 9.0,5.5 L 9.0,6.5 L 10.0,6.0 L 10.0,12.0 L 9.0,14.0 L 9.0,15.0 L 10.0,14.5 C 10.0,14.7761 10.2239,15.0 10.5,15.0 L 11.5,15.0 C 11.7761,15.0 12.0,14.7761 12.0,14.5 L 13.0,15.0 L 13.0,14.0 L 12.0,12.0 L 12.0,6.0 L 13.0,6.5 L 13.0,5.5 L 12.0,4.0 L 11.9766,4.0 C 11.9299,3.572 11.7879,3.0808 11.3536,2.6465 C 11.2598,2.5527 11.1326,2.5 11.0,2.5 M 3.5,3.0 C 3.2239,3.0 3.0,3.2239 3.0,3.5 L 3.0,7.5 L 3.0,10.5 L 3.0,14.5 C 3.0,14.7761 3.2239,15.0 3.5,15.0 C 3.7761,15.0 4.0,14.7761 4.0,14.5 L 4.0,13.707 L 5.0,12.707 L 5.0,14.5 C 5.0,14.7761 5.2239,15.0 5.5,15.0 C 5.7761,15.0 6.0,14.7761 6.0,14.5 L 6.0,11.5215 C 6.0006,11.5072 6.0006,11.4928 6.0,11.4785 L 6.0,10.5215 C 6.0006,10.5072 6.0006,10.4928 6.0,10.4785 L 6.0,7.5 L 6.0,5.5215 C 6.0006,5.5072 6.0006,5.4928 6.0,5.4785 L 6.0,5.0 L 7.5,5.0 C 7.7761,5.0 8.0,4.7761 8.0,4.5 C 8.0,4.2239 7.7761,4.0 7.5,4.0 L 6.0,4.0 L 6.0,3.5 C 6.0,3.2239 5.7761,3.0 5.5,3.0 C 5.2239,3.0 5.0,3.2239 5.0,3.5 L 5.0,4.0 L 4.0,4.0 L 4.0,3.5 C 4.0,3.2239 3.7761,3.0 3.5,3.0 M 4.0,5.0 L 5.0,5.0 L 5.0,5.293 L 4.0,6.293 L 4.0,5.0 M 5.0,6.707 L 5.0,7.5 L 5.0,9.293 L 4.0,8.293 L 4.0,7.707 L 5.0,6.707 M 4.0,9.707 L 5.0,10.707 L 5.0,11.293 L 4.0,12.293 L 4.0,10.5 L 4.0,9.707" fill="#000" /></svg>