<?xml version="1.0" encoding="utf-8" ?>
<svg baseProfile="full" height="16" version="1.1" width="16" xmlns="http://www.w3.org/2000/svg" xmlns:ev="http://www.w3.org/2001/xml-events" xmlns:xlink="http://www.w3.org/1999/xlink"><defs /><path d="M 12.4883,1.0 A 0.5,0.5 0.0 0,0 12.3906,1.0117 L 3.3906,3.0117 A 0.5,0.5 0.0 0,0 3.0117,3.6094 A 0.5,0.5 0.0 0,0 3.6093,3.9883 L 4.0,3.9023 L 4.0,5.0 L 4.0,9.0 C 4.0,9.5167 4.3889,9.9396 4.8906,9.9941 L 4.0098,14.4023 A 0.5,0.5 0.0 0,0 4.4023,14.9902 A 0.5,0.5 0.0 0,0 4.9902,14.5977 L 5.1133,13.9844 A 0.5,0.5 0.0 0,0 5.2402,13.9395 L 8.0,12.4336 L 10.7598,13.9394 A 0.5,0.5 0.0 0,0 10.8867,13.9843 L 11.0098,14.5976 A 0.5,0.5 0.0 0,0 11.5977,14.9902 A 0.5,0.5 0.0 0,0 11.9902,14.4023 L 11.1094,9.9941 C 11.6111,9.9396 12.0,9.5167 12.0,9.0 L 12.0,5.0 L 12.0,2.123 L 12.6094,1.9883 A 0.5,0.5 0.0 0,0 12.9883,1.3906 A 0.5,0.5 0.0 0,0 12.5859,1.0078 A 0.5,0.5 0.0 0,0 12.4882,0.9998 L 12.4883,1.0 M 5.0,5.0 L 11.0,5.0 L 11.0,7.0 L 5.0,7.0 L 5.0,5.0 M 5.9102,10.0 L 10.0898,10.0 L 10.1172,10.1387 L 8.0001,11.293 L 5.8829,10.1387 L 5.9102,10.0 M 5.6758,11.166 L 6.9551,11.8633 L 5.3633,12.7324 L 5.6758,11.166 M 10.3242,11.166 L 10.6367,12.7305 L 9.0469,11.8633 L 10.3242,11.166" fill="#000" /></svg>