<?xml version="1.0" encoding="utf-8" ?>
<svg baseProfile="full" height="16" version="1.1" width="16" xmlns="http://www.w3.org/2000/svg" xmlns:ev="http://www.w3.org/2001/xml-events" xmlns:xlink="http://www.w3.org/1999/xlink"><defs /><path d="M 8.0,2.3594 L 6.416,5.1328 L 3.1387,5.1328 L 3.5664,5.8809 L 4.7773,8.0 L 3.1387,10.8672 L 4.0,10.8672 L 6.416,10.8672 L 8.0,13.6406 L 9.584,10.8672 L 12.8613,10.8672 L 11.2227,8.0 L 12.8613,5.1328 L 9.584,5.1328 L 8.0,2.3594 M 8.0,4.375 L 8.4336,5.1328 L 7.5664,5.1328 L 8.0,4.375 M 4.8613,6.1328 L 5.8438,6.1328 L 5.3535,6.9922 L 4.8613,6.1328 M 6.9961,6.1328 L 9.0039,6.1328 L 10.0723,8.0 L 9.0039,9.8672 L 6.9961,9.8672 L 5.9277,8.0 L 6.9961,6.1328 M 10.1562,6.1328 L 11.1387,6.1328 L 10.6465,6.9922 L 10.1562,6.1328 M 5.3535,9.0078 L 5.8438,9.8672 L 4.8613,9.8672 L 5.3535,9.0078 M 10.6465,9.0078 L 11.1387,9.8672 L 10.1562,9.8672 L 10.6465,9.0078 M 7.5664,10.8672 L 8.4336,10.8672 L 8.0,11.625 L 7.5664,10.8672" fill="#000" /></svg>