<?xml version="1.0" encoding="utf-8" ?>
<svg baseProfile="full" height="16" version="1.1" width="16" xmlns="http://www.w3.org/2000/svg" xmlns:ev="http://www.w3.org/2001/xml-events" xmlns:xlink="http://www.w3.org/1999/xlink"><defs /><path d="M 3.0,2.0 C 2.446,2.0 2.0,2.446 2.0,3.0 L 2.0,13.0 C 2.0,13.554 2.446,14.0 3.0,14.0 L 8.0,14.0 C 8.554,14.0 9.0,13.554 9.0,13.0 L 9.0,9.0 C 9.5582,9.0 10.0,9.4418 10.0,10.0 L 10.0,11.5 C 10.0,12.0351 10.2866,12.5313 10.75,12.7988 C 11.2134,13.0664 11.7866,13.0664 12.25,12.7988 C 12.7134,12.5313 13.0,12.0351 13.0,11.5 L 13.0,7.0 L 14.0,7.0 C 14.554,7.0 15.0,6.554 15.0,6.0 L 15.0,5.0 L 15.0,4.0 L 14.0,4.0 L 14.0,2.5 A 0.5,0.5 0.0 0,0 13.5,2.0 A 0.5,0.5 0.0 0,0 13.0,2.5 L 13.0,4.0 L 12.0,4.0 L 12.0,2.5 A 0.5,0.5 0.0 0,0 11.5,2.0 A 0.5,0.5 0.0 0,0 11.0,2.5 L 11.0,4.0 L 10.0,4.0 L 10.0,5.0 L 10.0,6.0 C 10.0,6.554 10.446,7.0 11.0,7.0 L 12.0,7.0 L 12.0,11.5 C 12.0,11.6794 11.9054,11.8439 11.75,11.9336 C 11.5946,12.0233 11.4054,12.0233 11.25,11.9336 C 11.0946,11.8439 11.0,11.6794 11.0,11.5 L 11.0,10.0 C 11.0,8.9013 10.0987,8.0 9.0,8.0 L 9.0,3.0 C 9.0,2.446 8.554,2.0 8.0,2.0 L 3.0,2.0 M 3.0,4.0 L 8.0,4.0 L 8.0,7.0 L 3.0,7.0 L 3.0,4.0" fill="#000" /></svg>