<?xml version="1.0" encoding="utf-8" ?>
<svg baseProfile="full" height="16" version="1.1" width="16" xmlns="http://www.w3.org/2000/svg" xmlns:ev="http://www.w3.org/2001/xml-events" xmlns:xlink="http://www.w3.org/1999/xlink"><defs /><path d="M 6.0,7.0 C 5.1389,7.0 4.3725,7.2955 3.834,7.834 C 3.2955,8.3725 3.0,9.1389 3.0,10.0 L 3.0,13.5 L 3.0,14.0 L 4.0,14.0 L 4.0,13.5 L 4.0,10.0 C 4.0,9.3611 4.2045,8.8775 4.541,8.541 C 4.8775,8.2045 5.3611,8.0 6.0,8.0 L 10.0,8.0 C 10.6389,8.0 11.1225,8.2045 11.459,8.541 C 11.7955,8.8775 12.0,9.3611 12.0,10.0 L 12.0,13.5 L 12.0,14.0 L 13.0,14.0 L 13.0,13.5 L 13.0,10.0 C 13.0,9.1389 12.7045,8.3725 12.166,7.834 C 11.6275,7.2955 10.8611,7.0 10.0,7.0 L 6.0,7.0" fill="#000" /></svg>