<?xml version="1.0" encoding="utf-8" ?>
<svg baseProfile="full" height="16" version="1.1" width="16" xmlns="http://www.w3.org/2000/svg" xmlns:ev="http://www.w3.org/2001/xml-events" xmlns:xlink="http://www.w3.org/1999/xlink"><defs /><path d="M 7.0,5.0 L 7.0,5.5 C 7.0,5.777 6.777,6.0 6.5,6.0 L 5.0,6.0 C 4.446,6.0 4.0,6.446 4.0,7.0 L 11.0,7.0 C 11.0,6.446 10.554,6.0 10.0,6.0 L 8.5,6.0 C 8.223,6.0 8.0,5.777 8.0,5.5 L 8.0,5.0 L 7.0,5.0 M 6.5,8.0 C 6.5,8.0 6.0334,8.9332 6.002,9.4473 L 6.002,9.4493 L 6.002,9.4513 C 6.0,9.4675 6.0,9.4835 6.0,9.5001 C 6.0,9.7771 6.223,10.0001 6.5,10.0001 C 6.777,10.0001 7.0,9.7771 7.0,9.5001 C 7.0,9.4845 6.999,9.4659 6.998,9.4493 L 6.998,9.4473 C 6.9666,8.9332 6.5,8.0 6.5,8.0 M 10.5,8.0 C 10.5,8.0 10.0334,8.9332 10.002,9.4473 L 10.002,9.4493 L 10.002,9.4513 C 10.0,9.4675 10.0,9.4835 10.0,9.5001 C 10.0,9.7771 10.223,10.0001 10.5,10.0001 C 10.777,10.0001 11.0,9.7771 11.0,9.5001 C 11.0,9.4845 10.999,9.4659 10.998,9.4493 L 10.998,9.4473 C 10.9666,8.9332 10.5,8.0 10.5,8.0 M 4.5,9.0 C 4.5,9.0 4.0334,9.9332 4.002,10.4473 L 4.002,10.4493 L 4.002,10.4513 C 4.0,10.4675 4.0,10.4835 4.0,10.5001 C 4.0,10.7771 4.223,11.0001 4.5,11.0001 C 4.7769,11.0001 5.0,10.7771 5.0,10.5001 C 5.0,10.4845 4.999,10.4659 4.998,10.4493 L 4.998,10.4473 C 4.9666,9.9332 4.5,9.0 4.5,9.0 M 8.5,9.0 C 8.5,9.0 8.0334,9.9332 8.002,10.4473 L 8.002,10.4493 L 8.002,10.4513 C 8.0,10.4675 8.0,10.4835 8.0,10.5001 C 8.0,10.7771 8.223,11.0001 8.5,11.0001 C 8.777,11.0001 9.0,10.7771 9.0,10.5001 C 9.0,10.4845 8.999,10.4678 8.998,10.4513 L 8.998,10.4493 L 8.998,10.4473 C 8.9666,9.9332 8.5,9.0 8.5,9.0" fill="#000" /></svg>