<?xml version="1.0" encoding="utf-8" ?>
<svg baseProfile="full" height="16" version="1.1" width="16" xmlns="http://www.w3.org/2000/svg" xmlns:ev="http://www.w3.org/2001/xml-events" xmlns:xlink="http://www.w3.org/1999/xlink"><defs /><path d="M 6.4941,5.9941 A 0.5,0.5 0.0 0,0 6.1465,6.8535 L 7.293,8.0 L 6.1465,9.1465 A 0.5,0.5 0.0 1,0 6.8535,9.8535 L 8.0,8.707 L 9.1465,9.8535 A 0.5,0.5 0.0 1,0 9.8535,9.1465 L 8.707,8.0 L 9.8535,6.8535 A 0.5,0.5 0.0 0,0 9.4902,5.9961 A 0.5,0.5 0.0 0,0 9.1465,6.1465 L 8.0,7.293 L 6.8535,6.1465 A 0.5,0.5 0.0 0,0 6.4941,5.9941" fill="#000" /></svg>