<?xml version="1.0" encoding="utf-8" ?>
<svg baseProfile="full" height="16" version="1.1" width="16" xmlns="http://www.w3.org/2000/svg" xmlns:ev="http://www.w3.org/2001/xml-events" xmlns:xlink="http://www.w3.org/1999/xlink"><defs /><path d="m 244,435 c 0,3 1,2 3,3 0,-3 -1,-2 -3,-3 z m 7,0 c -2,1 -3,0 -3,3 2,-1 3,0 3,-3 z m -7,3 c 0,3 1,2 3,3 0,-3 -1,-2 -3,-3 z m 7,0 c -2,1 -3,0 -3,3 2,-1 3,0 3,-3 z m -7,3 c 0,3 1,2 3,3 0,-3 -1,-2 -3,-3 z m 7,0 c -2,1 -3,0 -3,3 2,-1 3,0 3,-3 z m -3.5,4 c -0.277,0 -0.5,0.223 -0.5,0.5 v 1 c 0,0.277 0.223,0.5 0.5,0.5 0.277,0 0.5,-0.223 0.5,-0.5 v -1 c 0,-0.277 -0.223,-0.5 -0.5,-0.5 z" fill="#000" transform="translate(8.0,8.0) translate(-248.0,-440.0)" /></svg>