<?xml version="1.0" encoding="utf-8" ?>
<svg baseProfile="full" height="16" version="1.1" width="16" xmlns="http://www.w3.org/2000/svg" xmlns:ev="http://www.w3.org/2001/xml-events" xmlns:xlink="http://www.w3.org/1999/xlink"><defs /><path d="M 3.0,2.0 L 1.3105,2.9746 L 2.3105,4.707 L 3.0,4.3086 L 3.0,7.9492 L 7.0,7.9492 L 7.0,4.3086 L 7.6895,4.707 L 8.6895,2.9746 L 7.0,2.0 L 6.0,2.0 A 1.0,1.0 0.0 0,1 5.0,3.0 A 1.0,1.0 0.0 0,1 4.0,2.0 L 3.0,2.0 M 10.502,2.9922 A 0.5,0.5 0.0 0,0 10.2188,3.0801 A 0.5,0.5 0.0 0,0 10.2031,3.0918 A 0.5,0.5 0.0 0,0 10.168,3.1211 A 0.5,0.5 0.0 0,0 10.1601,3.1251 A 0.5,0.5 0.0 0,0 10.1308,3.1563 A 0.5,0.5 0.0 0,0 10.1288,3.1583 A 0.5,0.5 0.0 0,0 10.1228,3.1663 A 0.5,0.5 0.0 0,0 10.1091,3.1819 A 0.5,0.5 0.0 0,0 10.0974,3.1975 A 0.5,0.5 0.0 0,0 10.072,3.2346 A 0.5,0.5 0.0 0,0 10.07,3.2386 A 0.5,0.5 0.0 0,0 10.0563,3.2659 A 0.5,0.5 0.0 0,0 10.0463,3.2835 A 0.5,0.5 0.0 0,0 10.0346,3.3109 A 0.5,0.5 0.0 0,0 10.0131,3.3773 A 0.5,0.5 0.0 0,0 10.0071,3.4066 A 0.5,0.5 0.0 0,0 9.9991,3.4769 L 9.1846,10.4007 C 8.8524,10.1522 8.4443,10.0 8.0,10.0 C 6.9013,10.0 6.0,10.9013 6.0,12.0 C 6.0,13.0987 6.9013,14.0 8.0,14.0 C 9.0633,14.0 9.9349,13.1539 9.9902,12.1035 A 0.5,0.5 0.0 0,0 9.9962,12.0586 L 10.2383,10.0 L 10.7617,10.0 L 11.0039,12.0586 A 0.5,0.5 0.0 0,0 11.0119,12.1152 C 11.0731,13.1601 11.9407,14.0 13.0,14.0 C 14.0987,14.0 15.0,13.0987 15.0,12.0 C 15.0,10.9013 14.0987,10.0 13.0,10.0 C 12.5557,10.0 12.1476,10.1522 11.8145,10.4004 L 11.0,3.4746 A 0.5,0.5 0.0 0,0 10.502,2.9922 M 8.0,11.0 C 8.5547,11.0 8.9926,11.4369 8.998,11.9902 A 0.5,0.5 0.0 0,0 8.998,12.0097 C 8.9926,12.5631 8.5547,13.0 8.0,13.0 C 7.4418,13.0 7.0,12.5582 7.0,12.0 C 7.0,11.4418 7.4418,11.0 8.0,11.0 M 13.0,11.0 C 13.5582,11.0 14.0,11.4418 14.0,12.0 C 14.0,12.5582 13.5582,13.0 13.0,13.0 C 12.4453,13.0 12.0074,12.5611 12.002,12.0078 A 0.5,0.5 0.0 0,0 12.0,11.9941 C 12.0032,11.4388 12.4438,11.0 13.0,11.0" fill="#000" /></svg>