<svg xmlns="http://www.w3.org/2000/svg" width="16" height="16"><path d="M 7.4922,3.9922 A 0.5,0.5 0.0 0,0 7.0,4.5 L 7.0,5.0938 C 6.421,5.3022 6.0,5.8532 6.0,6.5 C 6.0,7.3225 6.6775,8.0 7.5,8.0 C 7.782,8.0 8.0,8.2179 8.0,8.5 C 8.0,8.7709 7.7971,8.9778 7.5312,8.9941 A 0.5,0.5 0.0 0,0 7.4922,8.9921 A 0.5,0.5 0.0 0,0 7.418,9.0001 L 6.5,9.0001 A 0.5,0.5 0.0 1,0 6.5,10.0001 L 7.0,10.0001 L 7.0,10.5001 A 0.5,0.5 0.0 1,0 8.0,10.5001 L 8.0,9.9064 C 8.579,9.6979 9.0,9.147 9.0,8.5001 C 9.0,7.6776 8.3225,7.0001 7.5,7.0001 C 7.218,7.0001 7.0,6.7822 7.0,6.5001 C 7.0,6.2292 7.2029,6.0223 7.4688,6.006 A 0.5,0.5 0.0 0,0 7.582,6.0 L 8.5,6.0 A 0.5,0.5 0.0 1,0 8.5,5.0 L 8.0,5.0 L 8.0,4.5 A 0.5,0.5 0.0 0,0 7.4922,3.9922" fill="#000" /></svg>