<?xml version="1.0" encoding="utf-8" ?>
<svg baseProfile="full" height="16" version="1.1" width="16" xmlns="http://www.w3.org/2000/svg" xmlns:ev="http://www.w3.org/2001/xml-events" xmlns:xlink="http://www.w3.org/1999/xlink"><defs /><path d="M 3.4922,2.0 C 3.2191,2.004 3.0,2.2269 3.0,2.5 L 3.0,12.5 C 3.0,12.7761 3.2239,13.0 3.5,13.0 L 4.0,13.0 C 4.1896,12.9998 4.3628,12.8924 4.4473,12.7227 C 4.7569,12.1034 4.875,11.3056 4.875,10.5 C 4.875,9.9563 4.7161,9.4844 4.5859,9.0 L 5.5,9.0 C 5.8249,8.9995 6.063,8.6941 5.9844,8.3789 C 5.4891,6.3979 5.0156,3.872 3.916,2.2227 C 3.8217,2.0812 3.6621,1.9974 3.4922,2.0 M 9.0,2.0 L 9.0,2.5 L 9.0,7.5 L 9.0,8.0 L 9.5,8.0 L 10.0,8.0 L 10.8164,8.0 C 10.3738,9.1645 10.0,10.7512 10.0,12.5 C 10.0,12.7761 10.2239,13.0 10.5,13.0 L 11.5,13.0 C 11.7761,13.0 12.0,12.7761 12.0,12.5 L 12.0,7.4824 L 12.0,2.5 C 12.0,2.2239 11.7761,2.0 11.5,2.0 L 10.0,2.0 L 9.5,2.0 L 9.0,2.0" fill="#000" /></svg>