<svg xmlns="http://www.w3.org/2000/svg" width="16" height="16"><path d="M 3.5,4.0 C 2.669,4.0 2.0,4.669 2.0,5.5 C 2.0,7.1667 2.0,8.8333 2.0,10.5 C 2.0,11.331 2.669,12.0 3.5,12.0 L 12.5,12.0 C 13.331,12.0 14.0,11.331 14.0,10.5 C 14.0,8.8333 14.0,7.1667 14.0,5.5 C 14.0,4.669 13.331,4.0 12.5,4.0 L 3.5,4.0 M 3.5,5.0 L 12.5,5.0 C 12.777,5.0 13.0,5.223 13.0,5.5 L 13.0,6.0 L 3.0,6.0 L 3.0,5.5 C 3.0,5.223 3.223,5.0 3.5,5.0 M 3.0,8.0 L 13.0,8.0 L 13.0,10.5 C 13.0,10.777 12.777,11.0 12.5,11.0 L 3.5,11.0 C 3.223,11.0 3.0,10.777 3.0,10.5 L 3.0,8.0 M 7.5,9.0 C 7.223,9.0 7.0,9.223 7.0,9.5 C 7.0,9.777 7.223,10.0 7.5,10.0 L 8.5,10.0 C 8.777,10.0 9.0,9.777 9.0,9.5 C 9.0,9.223 8.777,9.0 8.5,9.0 L 7.5,9.0 M 10.5,9.0 C 10.223,9.0 10.0,9.223 10.0,9.5 C 10.0,9.777 10.223,10.0 10.5,10.0 L 11.5,10.0 C 11.777,10.0 12.0,9.777 12.0,9.5 C 12.0,9.223 11.777,9.0 11.5,9.0 L 10.5,9.0" fill="#000" /></svg>