<?xml version="1.0" encoding="utf-8" ?>
<svg baseProfile="full" height="16" version="1.1" width="16" xmlns="http://www.w3.org/2000/svg" xmlns:ev="http://www.w3.org/2001/xml-events" xmlns:xlink="http://www.w3.org/1999/xlink"><defs /><path d="M 6.4922,1.9922 A 0.5,0.5 0.0 0,0 6.4434,1.9962 A 0.5,0.5 0.0 0,0 6.3829,2.0062 A 0.5,0.5 0.0 0,0 6.0001,2.5687 L 6.0001,6.5003 L 6.0001,7.43 A 0.5,0.5 0.0 0,0 6.0001,7.5882 L 6.0001,8.4261 A 0.5,0.5 0.0 0,0 6.0001,8.5687 L 6.0001,9.5003 L 6.0001,13.43 A 0.5,0.5 0.0 0,0 6.4552,14.0062 A 0.5,0.5 0.0 0,0 6.5079,14.0082 A 0.5,0.5 0.0 0,0 6.5567,14.0042 A 0.5,0.5 0.0 0,0 6.8965,13.8128 A 0.5,0.5 0.0 0,0 6.9005,13.8068 L 8.0,12.707 L 8.0,13.5 A 0.5,0.5 0.0 1,0 9.0,13.5 L 9.0,11.5566 A 0.5,0.5 0.0 0,0 9.0,11.4336 L 9.0,10.5938 A 0.5,0.5 0.0 0,0 9.0,10.4258 L 9.0,9.5 L 9.0,6.5 L 9.0,5.5566 A 0.5,0.5 0.0 0,0 9.0,5.4336 L 9.0,4.5938 A 0.5,0.5 0.0 0,0 9.0,4.4258 L 9.0,2.5 A 0.5,0.5 0.0 0,0 8.4922,1.9922 A 0.5,0.5 0.0 0,0 8.0,2.5 L 8.0,3.293 L 6.8984,2.1914 A 0.5,0.5 0.0 0,0 6.4922,1.9922 M 7.0,3.707 L 8.0,4.707 L 8.0,5.293 L 7.0,6.293 L 7.0,3.707 M 8.0,6.707 L 8.0,9.293 L 7.0,8.293 L 7.0,7.707 L 8.0,6.707 M 7.0,9.707 L 8.0,10.707 L 8.0,11.293 L 7.0,12.293 L 7.0,9.707" fill="#000" /></svg>