<svg xmlns="http://www.w3.org/2000/svg" width="16" height="16"><path d="M 7.5,1.0 C 7.223,1.0 7.0,1.223 7.0,1.5 L 7.0,2.5 C 7.0,2.777 7.223,3.0 7.5,3.0 L 8.5,3.0 C 8.777,3.0 9.0,2.777 9.0,2.5 L 9.0,1.5 C 9.0,1.223 8.777,1.0 8.5,1.0 L 7.5,1.0 M 6.5,4.0 C 6.223,4.0 6.0,4.223 6.0,4.5 L 6.0,6.5 C 6.0,6.777 6.223,7.0 6.5,7.0 L 7.0,7.0 L 7.0,11.5 C 7.0,11.777 7.223,12.0 7.5,12.0 L 8.5,12.0 C 8.777,12.0 9.0,11.777 9.0,11.5 L 9.0,7.0 L 9.5,7.0 C 9.777,7.0 10.0,6.777 10.0,6.5 L 10.0,4.5 C 10.0,4.223 9.777,4.0 9.5,4.0 L 6.5,4.0 M 5.5,13.0 C 5.223,13.0 5.0,13.206 5.0,13.4609 L 5.0,13.5391 C 5.0,13.794 5.223,14.0 5.5,14.0 L 6.0,14.0 L 6.0,14.5 L 6.0,15.0 L 10.0,15.0 L 10.0,14.5 L 10.0,14.0 L 10.5,14.0 C 10.777,14.0 11.0,13.794 11.0,13.5391 L 11.0,13.4609 C 11.0,13.206 10.777,13.0 10.5,13.0 L 5.5,13.0" fill="#000" /></svg>