<svg xmlns="http://www.w3.org/2000/svg" width="16" height="16"><path d="M 10.0,2.25 C 8.9974,2.25 7.9863,2.4394 7.3047,3.0039 C 6.3081,3.0359 5.4768,3.3161 4.8965,3.8965 C 4.2786,4.5143 4.0,5.4167 4.0,6.5 L 4.0,10.3828 L 3.0527,12.2773 A 0.5,0.5 0.0 0,0 3.0,12.5 L 3.0,14.5 A 0.5,0.5 0.0 0,0 3.5,15.0 L 5.5,15.0 A 0.5,0.5 0.0 0,0 6.0,14.5 L 6.0,12.5 A 0.5,0.5 0.0 0,0 5.9473,12.2773 L 5.0,10.3828 L 5.0,6.5 C 5.0,5.5833 5.2214,4.9857 5.6035,4.6035 C 5.9273,4.2797 6.4092,4.0736 7.1055,4.0176 C 7.5313,5.4558 8.7718,6.25 10.0,6.25 C 11.3472,6.25 12.7086,5.2953 12.9941,3.582 A 0.5,0.5 0.0 0,0 12.9961,3.5605 A 0.5,0.5 0.0 0,0 12.9121,3.2168 A 0.5,0.5 0.0 0,0 12.8535,3.1465 C 12.8464,3.1393 12.8393,3.132 12.832,3.125 A 0.5,0.5 0.0 0,0 12.8184,3.1133 C 12.1393,2.463 11.0651,2.25 10.0,2.25 M 8.1543,4.0 L 11.8457,4.0 C 11.4949,4.8705 10.7522,5.25 10.0,5.25 C 9.2478,5.25 8.5051,4.8705 8.1543,4.0" fill="#000" /></svg>