<?xml version="1.0" encoding="utf-8" ?>
<svg baseProfile="full" height="16" version="1.1" width="16" xmlns="http://www.w3.org/2000/svg" xmlns:ev="http://www.w3.org/2001/xml-events" xmlns:xlink="http://www.w3.org/1999/xlink"><defs /><path d="M 7.5,1.5 C 6.6716,1.5 6.0,2.1716 6.0,3.0 C 5.1716,3.0 4.5,3.6716 4.5,4.5 C 4.5,5.3284 5.1716,6.0 6.0,6.0 C 6.0,6.8284 6.6716,7.5 7.5,7.5 C 8.3284,7.5 9.0,6.8284 9.0,6.0 C 9.8284,6.0 10.5,5.3284 10.5,4.5 C 10.5,3.6716 9.8284,3.0 9.0,3.0 C 9.0,2.1716 8.3284,1.5 7.5,1.5 M 7.5,3.5 C 8.0523,3.5 8.5,3.9477 8.5,4.5 C 8.5,5.0523 8.0523,5.5 7.5,5.5 C 6.9477,5.5 6.5,5.0523 6.5,4.5 C 6.5,3.9477 6.9477,3.5 7.5,3.5 M 7.0,8.0 L 7.0,9.0 L 3.5,9.0 C 3.2239,9.0 3.0,9.2239 3.0,9.5 C 3.0,9.7761 3.2239,10.0 3.5,10.0 L 4.0898,10.0 L 5.0098,14.5977 C 5.0564,14.8315 5.2616,14.9999 5.5,15.0 L 9.5,15.0 C 9.7384,14.9999 9.9436,14.8315 9.9902,14.5977 L 10.9102,10.0 L 11.5,10.0 C 11.7761,10.0 12.0,9.7761 12.0,9.5 C 12.0,9.2239 11.7761,9.0 11.5,9.0 L 8.0,9.0 L 8.0,8.0 L 7.0,8.0" fill="#000" /></svg>