<?xml version="1.0" encoding="utf-8" ?>
<svg baseProfile="full" height="16" version="1.1" width="16" xmlns="http://www.w3.org/2000/svg" xmlns:ev="http://www.w3.org/2001/xml-events" xmlns:xlink="http://www.w3.org/1999/xlink"><defs /><path d="M 6.0,1.0 C 5.723,1.0 5.5,1.223 5.5,1.5 C 5.5,1.777 5.723,2.0 6.0,2.0 L 7.0,2.0 L 7.0,6.832 L 4.0996,10.6992 A 0.5,0.5 0.0 0,0 4.5977,11.4902 L 7.0488,11.0 L 7.5,11.0 L 8.9512,11.0 L 11.4023,11.4902 A 0.5,0.5 0.0 0,0 11.9004,10.6992 L 9.0,6.832 L 9.0,2.0 L 10.0,2.0 C 10.277,2.0 10.5,1.777 10.5,1.5 C 10.5,1.223 10.277,1.0 10.0,1.0 L 9.0,1.0 L 8.0,1.0 L 6.0,1.0 M 7.0,8.502 L 7.0,10.0 A 0.5,0.5 0.0 0,0 6.9023,10.01 L 5.6855,10.2539 L 7.0,8.502 M 9.0,8.502 L 10.3145,10.2539 L 9.0977,10.0098 A 0.5,0.5 0.0 0,0 9.0,10.0 L 9.0,8.502 M 7.5,12.0 C 6.0,13.5 8.0,15.0 8.0,15.0 C 8.0,15.0 10.0,13.5 8.5,12.0 C 8.0,12.5 8.0,12.5 7.5,12.0" fill="#000" /></svg>