<svg xmlns="http://www.w3.org/2000/svg" width="16" height="16"><path d="M 5.0,6.0 A 0.5,0.5 0.0 0,0 4.5352,6.3144 L 3.5352,8.8144 A 0.5,0.5 0.0 0,0 3.9023,9.4902 L 5.0508,9.7207 A 0.5,0.5 0.0 0,0 5.084,9.7773 L 7.084,12.7773 A 0.5,0.5 0.0 0,0 7.9238,12.7656 L 10.2773,9.0 L 11.0,9.0 A 0.5,0.5 0.0 1,0 11.0,8.0 L 10.0879,8.0 A 0.5,0.5 0.0 0,0 9.9746,7.994 A 0.5,0.5 0.0 0,0 9.9258,8.0 L 9.0,8.0 A 0.5,0.5 0.0 1,0 9.0,9.0 L 9.0977,9.0 L 8.8145,9.4531 L 4.6875,8.6269 L 5.3379,7.0 L 6.5,7.0 A 0.5,0.5 0.0 1,0 6.5,6.0 L 5.0,6.0 M 6.4316,9.9961 L 8.2481,10.3594 L 7.4863,11.5781 L 6.4316,9.9961 M 3.5,10.0 C 2.1252,10.0 1.0,11.1252 1.0,12.5 C 1.0,13.8748 2.1252,15.0 3.5,15.0 C 4.8748,15.0 6.0,13.8748 6.0,12.5 C 6.0,11.1252 4.8748,10.0 3.5,10.0 M 11.5,10.0 C 10.1252,10.0 9.0,11.1252 9.0,12.5 C 9.0,13.8748 10.1252,15.0 11.5,15.0 C 12.8748,15.0 14.0,13.8748 14.0,12.5 C 14.0,11.1252 12.8748,10.0 11.5,10.0 M 3.5,11.0 C 4.3343,11.0 5.0,11.6656 5.0,12.5 C 5.0,13.3344 4.3343,14.0 3.5,14.0 C 2.6657,14.0 2.0,13.3344 2.0,12.5 C 2.0,11.6656 2.6657,11.0 3.5,11.0 M 11.5,11.0 C 12.3343,11.0 13.0,11.6656 13.0,12.5 C 13.0,13.3344 12.3343,14.0 11.5,14.0 C 10.6657,14.0 10.0,13.3344 10.0,12.5 C 10.0,11.6656 10.6657,11.0 11.5,11.0" fill="#000" /><path d="M 1.4941,1.9941 A 0.5,0.5 0.0 0,0 1.1465,2.8535 L 2.293,4.0 L 1.1465,5.1465 A 0.5,0.5 0.0 1,0 1.8535,5.8535 L 3.0,4.707 L 4.1465,5.8535 A 0.5,0.5 0.0 1,0 4.8535,5.1465 L 3.707,4.0 L 4.8535,2.8535 A 0.5,0.5 0.0 0,0 4.4902,1.9961 A 0.5,0.5 0.0 0,0 4.1465,2.1465 L 3.0,3.293 L 1.8535,2.1465 A 0.5,0.5 0.0 0,0 1.4941,1.9941" fill="#000" /></svg>