<?xml version="1.0" encoding="utf-8" ?>
<svg baseProfile="full" height="16" version="1.1" width="16" xmlns="http://www.w3.org/2000/svg" xmlns:ev="http://www.w3.org/2001/xml-events" xmlns:xlink="http://www.w3.org/1999/xlink"><defs /><path d="M 3.0,2.0 L 3.0,12.0 L 5.0,12.0 L 5.0,4.0 L 10.0,4.0 L 10.0,2.0 L 3.0,2.0 M 6.0,5.0 L 6.0,14.0 L 13.0,14.0 L 13.0,5.0 L 6.0,5.0 M 7.5,7.0 L 11.5,7.0 C 11.777,7.0 12.0,7.223 12.0,7.5 C 12.0,7.777 11.777,8.0 11.5,8.0 L 7.5,8.0 C 7.223,8.0 7.0,7.777 7.0,7.5 C 7.0,7.223 7.223,7.0 7.5,7.0 M 7.5,9.0 L 10.5,9.0 C 10.777,9.0 11.0,9.223 11.0,9.5 C 11.0,9.777 10.777,10.0 10.5,10.0 L 7.5,10.0 C 7.223,10.0 7.0,9.777 7.0,9.5 C 7.0,9.223 7.223,9.0 7.5,9.0" fill="#000" /></svg>