<svg xmlns="http://www.w3.org/2000/svg" width="16" height="16"><path d="M 6.4688,2.0 C 6.2091,2.0 6.0,2.223 6.0,2.5 L 6.0,4.5 C 6.0,4.777 6.2091,5.0 6.4688,5.0 L 8.5312,5.0 C 8.7909,5.0 9.0,4.777 9.0,4.5 L 9.0,2.5 C 9.0,2.223 8.7909,2.0 8.5312,2.0 L 6.4688,2.0 M 10.4688,6.0 C 10.2091,6.0 10.0,6.223 10.0,6.5 L 10.0,8.5 C 10.0,8.777 10.2091,9.0 10.4688,9.0 L 12.5312,9.0 C 12.7909,9.0 13.0,8.777 13.0,8.5 L 13.0,6.5 C 13.0,6.223 12.7909,6.0 12.5312,6.0 L 10.4688,6.0 M 2.4688,10.0 C 2.2091,10.0 2.0,10.223 2.0,10.5 L 2.0,12.5 C 2.0,12.777 2.2091,13.0 2.4688,13.0 L 4.5312,13.0 C 4.7909,13.0 5.0,12.777 5.0,12.5 L 5.0,10.5 C 5.0,10.223 4.7909,10.0 4.5312,10.0 L 2.4688,10.0 M 6.4688,10.0 C 6.2091,10.0 6.0,10.223 6.0,10.5 L 6.0,12.5 C 6.0,12.777 6.2091,13.0 6.4688,13.0 L 8.5312,13.0 C 8.7909,13.0 9.0,12.777 9.0,12.5 L 9.0,10.5 C 9.0,10.223 8.7909,10.0 8.5312,10.0 L 6.4688,10.0 M 10.4688,10.0 C 10.2091,10.0 10.0,10.223 10.0,10.5 L 10.0,12.5 C 10.0,12.777 10.2091,13.0 10.4688,13.0 L 12.5312,13.0 C 12.7909,13.0 13.0,12.777 13.0,12.5 L 13.0,10.5 C 13.0,10.223 12.7909,10.0 12.5312,10.0 L 10.4688,10.0" fill="#000" /></svg>