<svg xmlns="http://www.w3.org/2000/svg" width="16" height="16"><path d="M 7.5,1.0 C 7.223,1.0 7.0,1.223 7.0,1.5 L 7.0,2.5 C 7.0,2.777 7.223,3.0 7.5,3.0 C 7.777,3.0 8.0,2.777 8.0,2.5 L 8.0,1.5 C 8.0,1.223 7.777,1.0 7.5,1.0 M 5.5,3.0 A 1.5,1.5 0.0 0,0 4.0,4.5 A 1.5,1.5 0.0 0,0 5.5,6.0 A 1.5,1.5 0.0 0,0 7.0,4.5 A 1.5,1.5 0.0 0,0 5.5,3.0 M 9.5,3.0 A 1.5,1.5 0.0 0,0 8.0,4.5 A 1.5,1.5 0.0 0,0 9.5,6.0 A 1.5,1.5 0.0 0,0 11.0,4.5 A 1.5,1.5 0.0 0,0 9.5,3.0 M 3.5,6.0 A 1.5,1.5 0.0 0,0 2.0,7.5 A 1.5,1.5 0.0 0,0 3.5,9.0 A 1.5,1.5 0.0 0,0 5.0,7.5 A 1.5,1.5 0.0 0,0 3.5,6.0 M 7.5,6.0 A 1.5,1.5 0.0 0,0 6.0,7.5 A 1.5,1.5 0.0 0,0 7.5,9.0 A 1.5,1.5 0.0 0,0 9.0,7.5 A 1.5,1.5 0.0 0,0 7.5,6.0 M 11.5,6.0 A 1.5,1.5 0.0 0,0 10.0,7.5 A 1.5,1.5 0.0 0,0 11.5,9.0 A 1.5,1.5 0.0 0,0 13.0,7.5 A 1.5,1.5 0.0 0,0 11.5,6.0 M 5.5,9.0 A 1.5,1.5 0.0 0,0 4.0,10.5 A 1.5,1.5 0.0 0,0 5.5,12.0 A 1.5,1.5 0.0 0,0 7.0,10.5 A 1.5,1.5 0.0 0,0 5.5,9.0 M 9.5,9.0 A 1.5,1.5 0.0 0,0 8.0,10.5 A 1.5,1.5 0.0 0,0 9.5,12.0 A 1.5,1.5 0.0 0,0 11.0,10.5 A 1.5,1.5 0.0 0,0 9.5,9.0 M 7.5,12.0 A 1.5,1.5 0.0 0,0 6.0,13.5 A 1.5,1.5 0.0 0,0 7.5,15.0 A 1.5,1.5 0.0 0,0 9.0,13.5 A 1.5,1.5 0.0 0,0 7.5,12.0" fill="#000" /></svg>