<?xml version="1.0" encoding="utf-8" ?>
<svg baseProfile="full" height="16" version="1.1" width="16" xmlns="http://www.w3.org/2000/svg" xmlns:ev="http://www.w3.org/2001/xml-events" xmlns:xlink="http://www.w3.org/1999/xlink"><defs /><path d="M 3.4844,1.9922 A 0.5,0.5 0.0 0,0 3.0019,2.459 L 2.957,3.0 L 2.5,3.0 A 0.5,0.5 0.0 1,0 2.5,4.0 L 2.873,4.0 L 2.0019,14.459 A 0.5,0.5 0.0 1,0 2.998,14.541 L 3.877,4.0 L 11.1231,4.0 L 12.002,14.541 A 0.5,0.5 0.0 1,0 12.9981,14.459 L 12.127,4.0 L 12.5,4.0 A 0.5,0.5 0.0 1,0 12.5,3.0 L 12.043,3.0 L 11.9981,2.459 A 0.5,0.5 0.0 0,0 11.5,1.9922 A 0.5,0.5 0.0 0,0 11.002,2.541 L 11.041,3.0 L 3.9589,3.0 L 3.998,2.541 A 0.5,0.5 0.0 0,0 3.4844,1.9922 L 3.4844,1.9922 M 5.4922,4.4922 A 0.5,0.5 0.0 0,0 5.0,5.0 L 5.0,6.0 A 0.5,0.5 0.0 1,0 6.0,6.0 L 6.0,5.0 A 0.5,0.5 0.0 0,0 5.4922,4.4922 M 9.4922,4.4922 A 0.5,0.5 0.0 0,0 9.0,5.0 L 9.0,6.0 A 0.5,0.5 0.0 1,0 10.0,6.0 L 10.0,5.0 A 0.5,0.5 0.0 0,0 9.4922,4.4922" fill="#000" /></svg>