<?xml version="1.0" encoding="utf-8" ?>
<svg baseProfile="full" height="16" version="1.1" width="16" xmlns="http://www.w3.org/2000/svg" xmlns:ev="http://www.w3.org/2001/xml-events" xmlns:xlink="http://www.w3.org/1999/xlink"><defs /><path d="M 7.5,1.0 C 7.223,1.0 7.0,1.223 7.0,1.5 L 7.0,5.0 L 3.5,5.0 C 3.223,5.0 3.0,5.223 3.0,5.5 L 3.0,6.5 C 3.0,6.777 3.223,7.0 3.5,7.0 L 7.0,7.0 L 7.0,14.5 C 7.0,14.777 7.223,15.0 7.5,15.0 L 8.5,15.0 C 8.777,15.0 9.0,14.777 9.0,14.5 L 9.0,7.0 L 12.5,7.0 C 12.777,7.0 13.0,6.777 13.0,6.5 L 13.0,5.5 C 13.0,5.223 12.777,5.0 12.5,5.0 L 9.0,5.0 L 9.0,1.5 C 9.0,1.223 8.777,1.0 8.5,1.0 L 7.5,1.0" fill="#000" /></svg>