<?xml version="1.0" encoding="utf-8" ?>
<svg baseProfile="full" height="16" version="1.1" width="16" xmlns="http://www.w3.org/2000/svg" xmlns:ev="http://www.w3.org/2001/xml-events" xmlns:xlink="http://www.w3.org/1999/xlink"><defs /><path d="M 6.5,1.0 C 6.223,1.0 6.0,1.223 6.0,1.5 L 6.0,2.0 L 6.0,3.0 L 4.0,3.0 L 4.0,4.0 C 5.1046,4.0 6.0,4.8954 6.0,6.0 L 6.0,6.7812 L 7.1562,7.1562 C 7.2467,7.0659 7.3615,7.0 7.5,7.0 L 8.5,7.0 C 8.777,7.0 9.0,7.223 9.0,7.5 L 9.0,7.7812 L 10.8438,8.375 C 11.17,8.1437 11.5696,8.0 12.0,8.0 L 12.0,7.0 L 10.0,7.0 L 10.0,6.0 C 10.0,4.8954 10.8954,4.0 12.0,4.0 L 12.0,3.0 L 10.0,3.0 L 10.0,2.0 L 10.0,1.5 C 10.0,1.223 9.777,1.0 9.5,1.0 L 6.5,1.0 M 7.5,3.0 L 8.5,3.0 C 8.777,3.0 9.0,3.223 9.0,3.5 L 9.0,4.5 C 9.0,4.777 8.777,5.0 8.5,5.0 L 7.5,5.0 C 7.223,5.0 7.0,4.777 7.0,4.5 L 7.0,3.5 C 7.0,3.223 7.223,3.0 7.5,3.0 M 2.1562,6.5312 L 1.8438,7.4688 L 5.5,8.6875 C 5.8074,9.0392 6.0,9.4963 6.0,10.0 L 6.0,11.0 L 4.0,11.0 L 4.0,12.0 C 5.1046,12.0 6.0,12.8954 6.0,14.0 L 6.0,14.5 C 6.0,14.777 6.223,15.0 6.5,15.0 L 9.5,15.0 C 9.777,15.0 10.0,14.777 10.0,14.5 L 10.0,14.0 C 10.0,12.8954 10.8954,12.0 12.0,12.0 L 12.0,11.0 L 10.0,11.0 L 10.0,10.1875 L 13.8438,11.4688 L 14.1562,10.5312 L 10.1562,9.2188 C 10.1603,9.2108 10.1522,9.1959 10.1562,9.1875 L 8.9062,8.7813 L 7.0,8.1563 L 4.0,7.1563 L 2.1562,6.5312 M 7.5,11.0 L 8.5,11.0 C 8.777,11.0 9.0,11.223 9.0,11.5 L 9.0,12.5 C 9.0,12.777 8.777,13.0 8.5,13.0 L 7.5,13.0 C 7.223,13.0 7.0,12.777 7.0,12.5 L 7.0,11.5 C 7.0,11.223 7.223,11.0 7.5,11.0" fill="#000" /></svg>