<svg xmlns="http://www.w3.org/2000/svg" width="16" height="16"><path d="M 3.5,2.0 C 3.2239,2.0 3.0,2.2239 3.0,2.5 L 3.0,11.5 C 3.0,11.7761 3.2239,12.0 3.5,12.0 L 5.0,12.0 L 5.0,5.5 C 5.0,4.669 5.669,4.0 6.5,4.0 L 10.0,4.0 L 10.0,2.5 C 10.0,2.2239 9.7761,2.0 9.5,2.0 L 3.5,2.0 M 6.5,5.0 C 6.2239,5.0 6.0,5.2239 6.0,5.5 L 6.0,13.5 C 6.0,13.7761 6.2239,14.0 6.5,14.0 L 12.5,14.0 C 12.7761,14.0 13.0,13.7761 13.0,13.5 L 13.0,5.5 C 13.0,5.2239 12.7761,5.0 12.5,5.0 L 6.5,5.0 M 7.5,7.0 L 11.5,7.0 A 0.5,0.5 0.0 0,1 12.0,7.5 A 0.5,0.5 0.0 0,1 11.5,8.0 L 7.5,8.0 A 0.5,0.5 0.0 0,1 7.0,7.5 A 0.5,0.5 0.0 0,1 7.5,7.0 M 7.5,9.0 L 10.5,9.0 A 0.5,0.5 0.0 0,1 11.0,9.5 A 0.5,0.5 0.0 0,1 10.5,10.0 L 7.5,10.0 A 0.5,0.5 0.0 0,1 7.0,9.5 A 0.5,0.5 0.0 0,1 7.5,9.0" fill="#000" /></svg>