<?xml version="1.0" encoding="utf-8" ?>
<svg baseProfile="full" height="16" version="1.1" width="16" xmlns="http://www.w3.org/2000/svg" xmlns:ev="http://www.w3.org/2001/xml-events" xmlns:xlink="http://www.w3.org/1999/xlink"><defs /><path d="m 34.5,565 a 0.50005,0.50005 0 0 0 -0.5,0.5 v 1.91992 a 0.50005,0.50005 0 0 0 0,0.16211 V 569.5 a 0.50005,0.50005 0 1 0 1,0 V 568 h 0.5 a 0.50005,0.50005 0 1 0 0,-1 H 35 v -1 h 0.5 a 0.50005,0.50005 0 1 0 0,-1 z m 3,0 a 0.50005,0.50005 0 0 0 -0.5,0.5 v 1.91992 a 0.50005,0.50005 0 0 0 0,0.16211 V 569.5 a 0.50005,0.50005 0 1 0 1,0 V 568 h 0.07031 l 0.996094,1.74805 a 0.50005,0.50005 0 1 0 0.867188,-0.4961 l -0.802735,-1.41211 c 0.152082,-0.0789 0.291665,-0.18034 0.410157,-0.29882 C 39.807083,567.27495 40,566.91667 40,566.5 40,566.08333 39.807083,565.72505 39.541016,565.45898 39.274948,565.19292 38.916667,565 38.5,565 Z m 4,0 a 0.50005,0.50005 0 0 0 -0.5,0.5 v 1.91992 a 0.50005,0.50005 0 0 0 0,0.16211 V 569.5 a 0.50005,0.50005 0 0 0 0.5,0.5 h 1 a 0.50005,0.50005 0 1 0 0,-1 H 42 v -1 h 0.5 a 0.50005,0.50005 0 1 0 0,-1 H 42 v -1 h 0.5 a 0.50005,0.50005 0 1 0 0,-1 z m 3,0 a 0.50005,0.50005 0 0 0 -0.5,0.5 v 1.91992 a 0.50005,0.50005 0 0 0 0,0.16211 V 569.5 a 0.50005,0.50005 0 0 0 0.5,0.5 h 1 a 0.50005,0.50005 0 1 0 0,-1 H 45 v -1 h 0.5 a 0.50005,0.50005 0 1 0 0,-1 H 45 v -1 h 0.5 a 0.50005,0.50005 0 1 0 0,-1 z m -6.5,1 h 0.5 c 0.08333,0 0.225052,0.0571 0.333984,0.16602 C 38.942917,566.27495 39,566.41667 39,566.5 c 0,0.0833 -0.05708,0.22505 -0.166016,0.33398 C 38.725052,566.94292 38.583333,567 38.5,567 H 38.44141 A 0.50005,0.50005 0 0 0 38.3418,566.994 0.50005,0.50005 0 0 0 38.28125,567 H 38 Z" fill="#000" transform="translate(8.0,8.0) translate(-40.0,-568.0)" /></svg>