<?xml version="1.0" encoding="utf-8" ?>
<svg baseProfile="full" height="16" version="1.1" width="16" xmlns="http://www.w3.org/2000/svg" xmlns:ev="http://www.w3.org/2001/xml-events" xmlns:xlink="http://www.w3.org/1999/xlink"><defs /><path d="M 8.0,2.0 A 1.0,1.0 0.0 0,0 7.0,3.0 A 1.0,1.0 0.0 0,0 8.0,4.0 A 1.0,1.0 0.0 0,0 9.0,3.0 A 1.0,1.0 0.0 0,0 8.0,2.0 M 6.5,5.0 C 6.223,5.0 6.0,5.223 6.0,5.5 L 6.0,7.5 C 6.0,7.777 6.223,8.0 6.5,8.0 L 7.0,8.0 L 7.0,10.5 C 7.0,10.777 7.223,11.0 7.5,11.0 L 8.5,11.0 C 8.777,11.0 9.0,10.777 9.0,10.5 L 9.0,8.0 L 9.5,8.0 C 9.777,8.0 10.0,7.777 10.0,7.5 L 10.0,5.5 C 10.0,5.223 9.777,5.0 9.5,5.0 L 6.5,5.0 M 5.0,12.043 L 4.6465,12.3965 C 4.2054,12.8376 3.8333,13.0 3.5,13.0 C 3.1667,13.0 2.7946,12.8376 2.3535,12.3965 L 1.6465,13.1035 C 2.2054,13.6624 2.8333,14.0 3.5,14.0 C 4.0394,14.0 4.5273,13.6558 5.0,13.2754 C 5.4727,13.6558 5.9606,14.0 6.5,14.0 C 7.0394,14.0 7.5273,13.6558 8.0,13.2754 C 8.4727,13.6558 8.9606,14.0 9.5,14.0 C 10.0394,14.0 10.5273,13.6558 11.0,13.2754 C 11.4727,13.6558 11.9606,14.0 12.5,14.0 C 13.1667,14.0 13.7946,13.6624 14.3535,13.1035 L 13.6465,12.3965 C 13.2054,12.8376 12.8333,13.0 12.5,13.0 C 12.1667,13.0 11.7946,12.8376 11.3535,12.3965 L 11.0,12.043 L 10.6465,12.3965 C 10.2054,12.8376 9.8333,13.0 9.5,13.0 C 9.1667,13.0 8.7946,12.8376 8.3535,12.3965 L 8.0,12.043 L 7.6465,12.3965 C 7.2054,12.8376 6.8333,13.0 6.5,13.0 C 6.1667,13.0 5.7946,12.8376 5.3535,12.3965 L 5.0,12.043" fill="#000" /></svg>