<svg xmlns="http://www.w3.org/2000/svg" width="16" height="16"><path d="M 1.4961,2.9961 C 1.1897,2.9951 0.9546,3.2673 1.0,3.5703 L 1.0,11.4199 C 0.9983,11.4316 0.997,11.4433 0.9961,11.4551 C 0.9946,11.472 0.9939,11.4889 0.9941,11.5059 C 0.9945,11.5159 0.9951,11.5254 0.9961,11.5352 C 0.9965,11.5452 0.9971,11.5547 0.9981,11.5645 C 0.9986,11.5705 0.9993,11.5762 1.0001,11.5821 L 1.0001,13.5 C 0.9905,14.1762 2.0097,14.1762 2.0001,13.5 L 2.0001,12.0 L 13.5001,12.0 C 13.7762,12.0 14.0001,11.7761 14.0001,11.5 L 14.0001,3.5 C 14.0001,3.2239 13.7762,3.0 13.5001,3.0 L 1.5566,3.0 C 1.5366,2.997 1.5163,2.996 1.4961,2.996 L 1.4961,2.9961 M 3.1523,4.0 L 13.0,4.0 L 13.0,11.0 L 3.1523,11.0 L 7.7773,7.916 C 8.0741,7.7181 8.0741,7.2819 7.7773,7.084 L 3.1523,4.0" fill="#000" /></svg>