<?xml version="1.0" encoding="utf-8" ?>
<svg baseProfile="full" height="16" version="1.1" width="16" xmlns="http://www.w3.org/2000/svg" xmlns:ev="http://www.w3.org/2001/xml-events" xmlns:xlink="http://www.w3.org/1999/xlink"><defs /><path d="M 7.9062,3.0 C 7.3827,3.0245 6.9286,3.5233 6.9531,4.0469 C 6.9776,4.5705 7.4764,5.0245 8.0,5.0 C 9.6687,5.0 11.0,6.3313 11.0,8.0 C 11.0,9.6687 9.6687,11.0 8.0,11.0 C 6.3313,11.0 5.0,9.6687 5.0,8.0 C 7.0,8.0 7.0,8.0 7.0,8.0 L 4.0,5.0 L 1.0,8.0 C 1.0,8.0 1.0,8.0 3.0,8.0 C 3.0,10.7496 5.2504,13.0 8.0,13.0 C 10.7496,13.0 13.0,10.7496 13.0,8.0 C 13.0,5.2504 10.7496,3.0 8.0,3.0 C 7.9688,2.999 7.9375,2.999 7.9063,3.0 L 7.9062,3.0" fill="#000" /></svg>