<?xml version="1.0" encoding="utf-8" ?>
<svg baseProfile="full" height="16" version="1.1" width="16" xmlns="http://www.w3.org/2000/svg" xmlns:ev="http://www.w3.org/2001/xml-events" xmlns:xlink="http://www.w3.org/1999/xlink"><defs /><path d="M 3.0,2.0 L 3.0,3.0 L 2.0,3.0 L 2.0,5.0 L 3.0,5.0 L 3.0,10.0 L 2.0,10.0 L 2.0,12.0 L 3.0,12.0 L 3.0,13.0 L 5.0,13.0 L 5.0,12.0 L 10.0,12.0 L 10.0,13.0 L 12.0,13.0 L 12.0,12.0 L 13.0,12.0 L 13.0,10.0 L 12.0,10.0 L 12.0,5.0 L 13.0,5.0 L 13.0,3.0 L 12.0,3.0 L 12.0,2.0 L 10.0,2.0 L 10.0,3.0 L 5.0,3.0 L 5.0,2.0 L 3.0,2.0 M 5.0,5.0 L 10.0,5.0 L 10.0,10.0 L 5.0,10.0 L 5.0,5.0" fill="#000" /></svg>