<svg xmlns="http://www.w3.org/2000/svg" width="16" height="16"><path d="M 6.0,4.0 A 3.0,3.0 0.0 0,0 3.1699,6.0156 A 1.0,1.0 0.0 0,0 3.0,6.0 A 1.0,1.0 0.0 0,0 2.0,7.0 A 1.0,1.0 0.0 0,0 3.0,8.0 A 1.0,1.0 0.0 0,0 3.1699,7.9863 A 3.0,3.0 0.0 0,0 5.0254,9.8359 A 2.5,2.5 0.0 0,1 5.0,9.5 A 2.5,2.5 0.0 0,1 7.5,7.0 A 2.5,2.5 0.0 0,1 9.8984,8.8008 L 15.0,7.0 L 14.5,4.0 L 6.0,4.0 M 7.5,8.0 A 1.5,1.5 0.0 0,0 6.0,9.5 A 1.5,1.5 0.0 0,0 7.5,11.0 A 1.5,1.5 0.0 0,0 9.0,9.5 A 1.5,1.5 0.0 0,0 7.5,8.0" fill="#000" /></svg>