<?xml version="1.0" encoding="utf-8" ?>
<svg baseProfile="full" height="16" version="1.1" width="16" xmlns="http://www.w3.org/2000/svg" xmlns:ev="http://www.w3.org/2001/xml-events" xmlns:xlink="http://www.w3.org/1999/xlink"><defs /><path d="M 7.0,2.0 A 4.0,4.0 0.0 0,1 11.0,6.0 L 11.0,11.5078 C 10.7854,11.6523 10.6026,11.7958 10.5,11.8945 C 10.3974,11.7955 10.2146,11.6523 10.0,11.5078 L 10.0,6.0 A 3.0,3.0 0.0 0,0 7.7422,3.0957 A 4.0,4.0 0.0 0,1 9.0,6.0 L 9.0,11.0606 C 8.8402,11.0256 8.6749,10.9996 8.5,10.9996 C 8.3251,10.9996 8.1598,11.0246 8.0,11.0606 L 8.0,6.0 A 3.0,3.0 0.0 0,0 5.7422,3.0957 A 4.0,4.0 0.0 0,1 7.0,6.0 L 7.0,11.5078 C 6.7854,11.6523 6.6026,11.7958 6.5,11.8945 C 6.3974,11.7955 6.2146,11.6523 6.0,11.5078 L 6.0,6.0 A 3.0,3.0 0.0 0,0 3.0,3.0 L 2.0,3.0 L 2.0,2.0 L 7.0,2.0 M 12.5,12.0 C 13.1667,12.0 13.6035,12.3965 13.8535,12.6465 C 14.1035,12.8965 14.1667,13.0 14.5,13.0 L 14.5,14.0 C 13.8333,14.0 13.3965,13.6035 13.1465,13.3535 C 12.8965,13.1035 12.8333,13.0 12.5,13.0 C 12.1667,13.0 12.1035,13.1035 11.8535,13.3535 C 11.6035,13.6035 11.1667,14.0 10.5,14.0 C 9.8333,14.0 9.3965,13.6035 9.1465,13.3535 C 8.8965,13.1035 8.8333,13.0 8.5,13.0 C 8.1667,13.0 8.1035,13.1035 7.8535,13.3535 C 7.6035,13.6035 7.1667,14.0 6.5,14.0 C 5.8333,14.0 5.3965,13.6035 5.1465,13.3535 C 4.8965,13.1035 4.8333,13.0 4.5,13.0 C 4.1667,13.0 4.1035,13.1035 3.8535,13.3535 C 3.6035,13.6035 3.1667,14.0 2.5,14.0 L 2.5,13.0 C 2.8333,13.0 2.8965,12.8965 3.1465,12.6465 C 3.3965,12.3965 3.8333,12.0 4.5,12.0 C 5.1667,12.0 5.6035,12.3965 5.8535,12.6465 C 6.1035,12.8965 6.1667,13.0 6.5,13.0 C 6.8333,13.0 6.8965,12.8965 7.1465,12.6465 C 7.3965,12.3965 7.8333,12.0 8.5,12.0 C 9.1667,12.0 9.6035,12.3965 9.8535,12.6465 C 10.1035,12.8965 10.1667,13.0 10.5,13.0 C 10.8333,13.0 10.8965,12.8965 11.1465,12.6465 C 11.3965,12.3965 11.8333,12.0 12.5,12.0" fill="#000" /></svg>