<svg xmlns="http://www.w3.org/2000/svg" width="16" height="16"><path d="M 2.0,4.0 L 2.0,10.0 L 14.0,10.0 L 14.0,4.0 L 2.0,4.0 M 3.0,5.0 L 4.0,5.0 C 4.0,5.554 3.554,6.0 3.0,6.0 L 3.0,5.0 M 8.0,5.0 A 2.0,2.0 0.0 0,1 10.0,7.0 A 2.0,2.0 0.0 0,1 8.0,9.0 A 2.0,2.0 0.0 0,1 6.0,7.0 A 2.0,2.0 0.0 0,1 8.0,5.0 M 12.0,5.0 L 13.0,5.0 L 13.0,6.0 C 12.446,6.0 12.0,5.554 12.0,5.0 M 3.0,8.0 C 3.554,8.0 4.0,8.446 4.0,9.0 L 3.0,9.0 L 3.0,8.0 M 13.0,8.0 L 13.0,9.0 L 12.0,9.0 C 12.0,8.446 12.446,8.0 13.0,8.0 M 2.0,11.0 L 2.0,12.0 L 14.0,12.0 L 14.0,11.0 L 2.0,11.0" fill="#000" /></svg>