<?xml version="1.0" encoding="utf-8" ?>
<svg baseProfile="full" height="16" version="1.1" width="16" xmlns="http://www.w3.org/2000/svg" xmlns:ev="http://www.w3.org/2001/xml-events" xmlns:xlink="http://www.w3.org/1999/xlink"><defs /><path d="M 5.875,0.9062 C 5.7727,0.9112 5.6614,0.9153 5.5625,0.9375 C 5.1668,1.0276 4.8089,1.2535 4.5312,1.5312 C 3.9759,2.0865 3.6556,2.9989 4.125,3.7812 C 4.5475,4.4853 5.4853,4.891 7.0,4.9687 L 7.0,4.9999 L 8.0,4.9999 L 8.0,4.9687 C 9.5147,4.891 10.4525,4.4853 10.875,3.7812 C 11.3444,2.9989 11.0241,2.0865 10.4688,1.5312 C 10.1911,1.2535 9.8332,1.0275 9.4375,0.9375 C 9.0418,0.8474 8.6099,0.8903 8.2188,1.125 C 7.9254,1.301 7.6913,1.5523 7.5,1.9062 C 7.3087,1.5523 7.0746,1.301 6.7812,1.125 C 6.4879,0.9489 6.1817,0.8913 5.875,0.9062 L 5.875,0.9062 M 5.8125,1.875 C 5.8792,1.8629 5.9353,1.867 6.0,1.875 C 6.0863,1.8853 6.1721,1.922 6.25,1.9687 C 6.5103,2.1249 6.8005,2.7751 6.9062,3.9062 C 5.7752,3.8005 5.125,3.5103 4.9688,3.25 C 4.7819,2.9385 4.8991,2.5384 5.2188,2.2187 C 5.3986,2.0389 5.6126,1.9111 5.8125,1.875 L 5.8125,1.875 M 9.0,1.875 C 9.2589,1.8441 9.5415,1.979 9.7812,2.2188 C 10.1009,2.5384 10.2181,2.9385 10.0312,3.25 C 9.875,3.5103 9.2248,3.8005 8.0938,3.9062 C 8.1995,2.7751 8.4897,2.125 8.75,1.9688 C 8.8279,1.9221 8.9137,1.8854 9.0,1.875 L 9.0,1.875 M 5.0,6.0 C 3.892,6.0 3.0,6.892 3.0,8.0 L 3.0,10.0 L 7.0,10.0 L 7.0,6.0 L 5.0,6.0 M 8.0,6.0 L 8.0,10.0 L 12.0,10.0 L 12.0,8.0 C 12.0,6.892 11.108,6.0 10.0,6.0 L 8.0,6.0 M 3.0,11.0 L 3.0,13.0 C 3.0,14.108 3.892,15.0 5.0,15.0 L 7.0,15.0 L 7.0,11.0 L 3.0,11.0 M 8.0,11.0 L 8.0,15.0 L 10.0,15.0 C 11.108,15.0 12.0,14.108 12.0,13.0 L 12.0,11.0 L 8.0,11.0" fill="#000" /></svg>