<?xml version="1.0" encoding="utf-8" ?>
<svg baseProfile="full" height="16" version="1.1" width="16" xmlns="http://www.w3.org/2000/svg" xmlns:ev="http://www.w3.org/2001/xml-events" xmlns:xlink="http://www.w3.org/1999/xlink"><defs /><path d="m 196,531 c -0.554,0 -1,0.446 -1,1 v 9 c 0,0.554 0.446,1 1,1 v -0.5 c 0,-0.831 0.64856,-1.5 1.45508,-1.5 h 5.08984 c 0.80652,0 1.45508,0.669 1.45508,1.5 v 0.5 c 0.554,0 1,-0.446 1,-1 v -9 c 0,-0.554 -0.446,-1 -1,-1 z m 0.75,1 h 6.5 c 0.4155,0 0.75,0.3345 0.75,0.75 v 3.5 c 0,0.4155 -0.3345,0.75 -0.75,0.75 h -6.5 c -0.4155,0 -0.75,-0.3345 -0.75,-0.75 v -3.5 c 0,-0.4155 0.3345,-0.75 0.75,-0.75 z m -0.25,6 h 2 c 0.277,0 0.5,0.223 0.5,0.5 0,0.277 -0.223,0.5 -0.5,0.5 h -2 c -0.277,0 -0.5,-0.223 -0.5,-0.5 0,-0.277 0.223,-0.5 0.5,-0.5 z m 5,0 h 2 c 0.277,0 0.5,0.223 0.5,0.5 0,0.277 -0.223,0.5 -0.5,0.5 h -2 c -0.277,0 -0.5,-0.223 -0.5,-0.5 0,-0.277 0.223,-0.5 0.5,-0.5 z m -4,3 c -0.277,0 -0.5,0.223 -0.5,0.5 v 0.5 0.5 0.5 h 0.5 5 0.5 v -0.5 -0.5 -0.5 c 0,-0.277 -0.223,-0.5 -0.5,-0.5 z" fill="#000" transform="translate(8.0,8.0) translate(-200.0,-536.0)" /></svg>