<?xml version="1.0" encoding="utf-8" ?>
<svg baseProfile="full" height="16" version="1.1" width="16" xmlns="http://www.w3.org/2000/svg" xmlns:ev="http://www.w3.org/2001/xml-events" xmlns:xlink="http://www.w3.org/1999/xlink"><defs /><path d="m 789.49414,148.99414 a 0.50005,0.50005 0 0 0 -0.34766,0.85938 l 1.64649,1.64648 -1.64649,1.64648 a 0.50005,0.50005 0 1 0 0.70704,0.70704 l 1.64648,-1.64649 1.64648,1.64649 a 0.50005,0.50005 0 1 0 0.70704,-0.70704 l -1.64649,-1.64648 1.64649,-1.64648 a 0.50005,0.50005 0 0 0 -0.36329,-0.85743 0.50005,0.50005 0 0 0 -0.34375,0.15039 l -1.64648,1.64649 -1.64648,-1.64649 a 0.50005,0.50005 0 0 0 -0.35938,-0.15234 z" fill="#000" transform="translate(8.0,8.0) translate(-792.0,-152.0)" /></svg>