<svg xmlns="http://www.w3.org/2000/svg" width="16" height="16"><path d="M 3.5,2.0 C 3.223,2.0 3.0,2.223 3.0,2.5 L 3.0,4.5 C 3.0,4.777 3.223,5.0 3.5,5.0 L 4.0,5.0 L 4.0,3.0 L 12.0,3.0 L 12.0,5.0 L 12.5,5.0 C 12.777,5.0 13.0,4.777 13.0,4.5 L 13.0,2.5 C 13.0,2.223 12.777,2.0 12.5,2.0 L 3.5,2.0 M 5.0,4.0 L 5.0,13.0 L 11.0,13.0 L 11.0,4.0 L 5.0,4.0 M 7.9492,5.0 A 2.0,2.0 0.0 0,1 7.9512,5.0 A 2.0,2.0 0.0 0,1 8.0,5.0 A 2.0,2.0 0.0 0,1 10.0,7.0 A 2.0,2.0 0.0 0,1 8.0,9.0 A 2.0,2.0 0.0 0,1 6.0,7.0 A 2.0,2.0 0.0 0,1 7.9492,5.0 L 7.9492,5.0 M 6.0,11.0 C 6.554,11.0 7.0,11.446 7.0,12.0 L 6.0,12.0 L 6.0,11.0 M 10.0,11.0 L 10.0,12.0 L 9.0,12.0 C 9.0,11.446 9.446,11.0 10.0,11.0" fill="#000" /></svg>