<?xml version="1.0" encoding="utf-8" ?>
<svg baseProfile="full" height="16" version="1.1" width="16" xmlns="http://www.w3.org/2000/svg" xmlns:ev="http://www.w3.org/2001/xml-events" xmlns:xlink="http://www.w3.org/1999/xlink"><defs /><path d="M 4.5,5.0 C 4.2708,5.0004 4.0711,5.1565 4.0156,5.3789 C 3.5251,7.3409 3.0876,8.2054 2.1465,9.1465 C 1.8317,9.4615 2.0547,9.9998 2.5,10.0 L 13.5,10.0 C 13.9453,9.9998 14.1683,9.4615 13.8535,9.1465 C 12.9124,8.2054 12.4749,7.3409 11.9844,5.3789 C 11.8559,4.8778 11.1441,4.8778 11.0156,5.3789 C 10.5632,7.1887 9.2778,8.0 8.0,8.0 C 6.7222,8.0 5.4368,7.1887 4.9844,5.3789 C 4.9288,5.1565 4.7292,5.0004 4.5,5.0" fill="#000" /></svg>