<svg xmlns="http://www.w3.org/2000/svg" width="16" height="16"><path d="M 9.5,2.0 C 7.5358,2.0 5.7184,3.049 4.7363,4.75 C 4.3313,5.4515 4.0963,6.2211 4.0254,7.002 A 0.5,0.5 0.0 0,0 4.0,7.0 L 3.0,7.0 L 3.0,6.0 A 0.5,0.5 0.0 0,0 2.5,5.5 A 0.5,0.5 0.0 0,0 2.0,6.0 L 2.0,9.5 A 0.5,0.5 0.0 0,0 2.5,10.0 A 0.5,0.5 0.0 0,0 3.0,9.5 L 3.0,8.0 L 4.0,8.0 A 0.5,0.5 0.0 0,0 4.0254,7.998 C 4.0963,8.7789 4.3313,9.5484 4.7363,10.25 C 5.7184,11.951 7.5358,13.0 9.5,13.0 L 10.5,13.0 A 0.5,0.5 0.0 0,0 11.0,12.5 A 0.5,0.5 0.0 0,0 10.5,12.0 L 9.5,12.0 C 7.8915,12.0 6.4078,11.143 5.6035,9.75 C 4.7993,8.357 4.7993,6.643 5.6035,5.25 C 6.4078,3.857 7.8915,3.0 9.5,3.0 L 10.5,3.0 A 0.5,0.5 0.0 0,0 11.0,2.5 A 0.5,0.5 0.0 0,0 10.5,2.0 L 9.5,2.0 M 9.5,4.0 A 3.5,3.5 0.0 0,0 6.0,7.5 A 3.5,3.5 0.0 0,0 9.5,11.0 A 3.5,3.5 0.0 0,0 13.0,7.5 A 3.5,3.5 0.0 0,0 9.5,4.0 M 9.5,5.0 A 0.5,0.5 0.0 0,1 10.0,5.5 A 0.5,0.5 0.0 0,1 9.5,6.0 C 8.6657,6.0 8.0,6.6657 8.0,7.5 A 0.5,0.5 0.0 0,1 7.5,8.0 A 0.5,0.5 0.0 0,1 7.0,7.5 C 7.0,6.1252 8.1252,5.0 9.5,5.0" fill="#000" /></svg>