<?xml version="1.0" encoding="utf-8" ?>
<svg baseProfile="full" height="16" version="1.1" width="16" xmlns="http://www.w3.org/2000/svg" xmlns:ev="http://www.w3.org/2001/xml-events" xmlns:xlink="http://www.w3.org/1999/xlink"><defs /><path d="M 4.0,1.5 A 2.5,2.5 0.0 0,0 1.5,4.0 A 2.5,2.5 0.0 0,0 2.2344,5.7676 L 6.5,10.0352 L 10.7422,5.793 A 2.5,2.5 0.0 0,0 10.7652,5.7676 L 10.7652,5.7676 A 2.5,2.5 0.0 0,0 11.5,4.0 A 2.5,2.5 0.0 0,0 9.0,1.5 A 2.5,2.5 0.0 0,0 6.5,4.0 A 2.5,2.5 0.0 0,0 4.0,1.5 M 12.0,8.5 L 9.5,12.5 L 12.0,12.0 L 12.0,14.5 L 14.5,10.5 L 12.0,11.0 L 12.0,8.5" fill="#000" /></svg>