<?xml version="1.0" encoding="utf-8" ?>
<svg baseProfile="full" height="16" version="1.1" width="16" xmlns="http://www.w3.org/2000/svg" xmlns:ev="http://www.w3.org/2001/xml-events" xmlns:xlink="http://www.w3.org/1999/xlink"><defs /><path d="M 5.1758,1.6562 C 4.7374,1.6373 4.2636,1.668 3.7578,1.7578 C 5.0653,2.106 6.2589,3.0172 7.0918,4.1973 C 5.8626,3.3154 3.6355,3.6584 2.0,6.0 C 3.1694,5.3224 4.6562,5.123 6.0781,5.3672 C 4.5868,5.6151 3.2589,7.4322 3.7578,10.2422 C 4.2249,8.4879 5.6967,6.9316 7.4883,6.1953 L 7.0,13.0 L 7.0,15.0 L 9.0,15.0 L 9.0,13.0 L 8.5117,6.1953 C 10.3033,6.9317 11.7751,8.4879 12.2422,10.2422 C 12.7411,7.4322 11.4132,5.6151 9.9219,5.3672 C 11.3438,5.123 12.8306,5.3224 14.0,6.0 C 12.3645,3.6584 10.1374,3.3154 8.9082,4.1973 C 9.7411,3.0172 10.9347,2.106 12.2422,1.7578 C 10.2749,1.4085 8.7976,1.9572 8.0,2.8281 C 7.4075,2.1811 6.4423,1.7109 5.1758,1.6563 L 5.1758,1.6562" fill="#000" /><path d="M 10.0,14.0 L 10.0,15.0 L 15.0,15.0 L 15.0,14.0 L 10.0,14.0" fill="#000" /></svg>