<?xml version="1.0" encoding="utf-8" ?>
<svg baseProfile="full" height="16" version="1.1" width="16" xmlns="http://www.w3.org/2000/svg" xmlns:ev="http://www.w3.org/2001/xml-events" xmlns:xlink="http://www.w3.org/1999/xlink"><defs /><path d="M 2.3438,4.0 C 2.2697,4.0356 2.2046,4.0898 2.1562,4.1562 L 1.1562,5.1562 C 0.8993,5.3134 0.8506,5.7234 1.0635,5.9364 C 1.2766,6.1494 1.6865,6.1007 1.8437,5.8437 L 2.6875,5.0 L 13.3125,5.0 L 14.1562,5.8438 C 14.3134,6.1007 14.7234,6.1494 14.9364,5.9365 C 15.1494,5.7234 15.1007,5.3135 14.8437,5.1563 L 13.8437,4.1563 C 13.7551,4.0624 13.629,4.0051 13.5,4.0 L 2.5,4.0 C 2.4688,3.997 2.4374,3.997 2.4063,4.0 C 2.3855,3.999 2.3646,3.999 2.3438,4.0 L 2.3438,4.0 M 6.9062,7.0 C 6.7129,7.0192 6.5258,7.0963 6.375,7.2188 L 4.1562,9.0 L 3.0,9.0 C 2.4764,9.0 2.0,9.4764 2.0,10.0 L 2.0,11.0 C 2.0,11.5236 2.4764,12.0 3.0,12.0 C 3.0,10.892 3.892,10.0 5.0,10.0 C 6.108,10.0 7.0,10.892 7.0,12.0 L 9.0,12.0 C 9.0,10.892 9.892,10.0 11.0,10.0 C 12.108,10.0 13.0,10.892 13.0,12.0 C 13.5236,12.0 14.0,11.5236 14.0,11.0 L 14.0,10.0 C 14.0,9.4764 13.5236,9.0 13.0,9.0 L 12.4375,9.0 L 10.7188,7.2812 C 10.529,7.0976 10.2641,6.9939 10.0,7.0 L 7.0,7.0 C 6.9688,6.999 6.9375,6.999 6.9063,7.0 L 6.9062,7.0 M 5.0,11.0 C 4.446,11.0 4.0,11.446 4.0,12.0 C 4.0,12.554 4.446,13.0 5.0,13.0 C 5.554,13.0 6.0,12.554 6.0,12.0 C 6.0,11.446 5.554,11.0 5.0,11.0 M 11.0,11.0 C 10.446,11.0 10.0,11.446 10.0,12.0 C 10.0,12.554 10.446,13.0 11.0,13.0 C 11.554,13.0 12.0,12.554 12.0,12.0 C 12.0,11.446 11.554,11.0 11.0,11.0" fill="#000" /></svg>