<?xml version="1.0" encoding="utf-8" ?>
<svg baseProfile="full" height="16" version="1.1" width="16" xmlns="http://www.w3.org/2000/svg" xmlns:ev="http://www.w3.org/2001/xml-events" xmlns:xlink="http://www.w3.org/1999/xlink"><defs /><path d="m 292.01953,434.07031 c -0.30731,-0.007 -0.59407,0.15387 -0.74805,0.41992 -0.10471,0.18126 -0.13814,0.39504 -0.0937,0.59961 l -0.002,-0.002 c -0.40191,-0.23166 -0.9155,-0.0945 -1.14844,0.30664 -0.23299,0.40235 -0.0957,0.91739 0.30664,1.15039 0.1024,0.0596 0.2162,0.0968 0.33399,0.10938 -0.0656,0.0586 -0.12163,0.12715 -0.16602,0.20312 -0.23266,0.40286 -0.0944,0.91806 0.3086,1.15039 0.40286,0.23266 0.91806,0.0945 1.15039,-0.30859 0.0144,-0.026 0.0275,-0.0527 0.0391,-0.0801 0.0718,0.16309 0.19356,0.29917 0.34766,0.38867 0.40286,0.23266 0.91806,0.0945 1.15039,-0.30859 0.19839,-0.34482 0.12833,-0.78144 -0.16797,-1.04688 0.2685,-0.0276 0.50746,-0.18235 0.64258,-0.41601 0.23166,-0.40191 0.0945,-0.9155 -0.30664,-1.14844 -0.2613,-0.15051 -0.58315,-0.14976 -0.84375,0.002 0.0772,-0.35695 -0.0845,-0.723 -0.40039,-0.90625 -0.12246,-0.071 -0.26084,-0.10995 -0.40235,-0.11328 z M 295.5,436 c -0.277,0 -0.5,0.223 -0.5,0.5 v 1.79297 l -0.14648,-0.14649 c -0.0942,-0.0974 -0.2239,-0.15234 -0.35938,-0.15234 -0.44941,8e-5 -0.6706,0.54684 -0.34766,0.85938 L 295,439.70703 v 2.72266 c -0.008,0.0524 -0.008,0.1058 0,0.1582 v 1.70508 l -0.14648,-0.14649 c -0.0942,-0.0974 -0.2239,-0.15234 -0.35938,-0.15234 -0.44941,8e-5 -0.6706,0.54684 -0.34766,0.85938 l 1,1 c 0.34033,0.35308 0.93267,0.0562 0.85352,-0.42774 v -2.71875 l 0.85352,-0.85351 c 0.32529,-0.31801 0.0914,-0.86992 -0.36329,-0.85743 -0.12976,0.004 -0.25303,0.0575 -0.34375,0.15039 L 296,441.29297 v -1.69922 c 0.009,-0.0556 0.009,-0.11238 0,-0.16797 V 436.5 c 0,-0.277 -0.223,-0.5 -0.5,-0.5 z m 3.51953,1.07031 c -0.30731,-0.007 -0.59407,0.15387 -0.74805,0.41992 -0.10471,0.18126 -0.13814,0.39504 -0.0937,0.59961 l -0.002,-0.002 c -0.40191,-0.23166 -0.9155,-0.0945 -1.14844,0.30664 -0.23299,0.40235 -0.0957,0.91739 0.30664,1.15039 0.1024,0.0596 0.2162,0.0968 0.33399,0.10938 -0.0656,0.0586 -0.12163,0.12715 -0.16602,0.20312 -0.23266,0.40286 -0.0944,0.91806 0.3086,1.15039 0.40286,0.23266 0.91806,0.0945 1.15039,-0.30859 0.0144,-0.026 0.0275,-0.0527 0.0391,-0.0801 0.0718,0.16309 0.19356,0.29917 0.34766,0.38867 0.40286,0.23266 0.91806,0.0945 1.15039,-0.30859 0.19839,-0.34482 0.12833,-0.78144 -0.16797,-1.04688 0.2685,-0.0276 0.50746,-0.18235 0.64258,-0.41601 0.23166,-0.40191 0.0945,-0.9155 -0.30664,-1.14844 -0.2613,-0.15051 -0.58315,-0.14976 -0.84375,0.002 0.0772,-0.35695 -0.0845,-0.723 -0.40039,-0.90625 -0.12246,-0.071 -0.26084,-0.10995 -0.40235,-0.11328 z m -7,3 c -0.30731,-0.007 -0.59407,0.15387 -0.74805,0.41992 -0.10471,0.18126 -0.13814,0.39504 -0.0937,0.59961 l -0.002,-0.002 c -0.40191,-0.23166 -0.9155,-0.0945 -1.14844,0.30664 -0.23299,0.40235 -0.0957,0.91739 0.30664,1.15039 0.1024,0.0596 0.2162,0.0968 0.33399,0.10938 -0.0656,0.0586 -0.12163,0.12715 -0.16602,0.20312 -0.23266,0.40286 -0.0944,0.91806 0.3086,1.15039 0.40286,0.23266 0.91806,0.0945 1.15039,-0.30859 0.0144,-0.026 0.0275,-0.0527 0.0391,-0.0801 0.0718,0.16309 0.19356,0.29917 0.34766,0.38867 0.40286,0.23266 0.91806,0.0945 1.15039,-0.30859 0.19839,-0.34482 0.12833,-0.78144 -0.16797,-1.04688 0.2685,-0.0276 0.50746,-0.18235 0.64258,-0.41601 0.23166,-0.40191 0.0945,-0.9155 -0.30664,-1.14844 -0.2613,-0.15051 -0.58315,-0.14976 -0.84375,0.002 0.0772,-0.35695 -0.0845,-0.723 -0.40039,-0.90625 -0.12246,-0.071 -0.26084,-0.10995 -0.40235,-0.11328 z" fill="#000" transform="translate(8.0,8.0) translate(-296.0,-440.0)" /></svg>