<?xml version="1.0" encoding="utf-8" ?>
<svg baseProfile="full" height="16" version="1.1" width="16" xmlns="http://www.w3.org/2000/svg" xmlns:ev="http://www.w3.org/2001/xml-events" xmlns:xlink="http://www.w3.org/1999/xlink"><defs /><path d="M 6.5,4.0 C 6.3721,4.0 6.2441,4.0489 6.1465,4.1465 L 3.293,7.0 L 12.707,7.0 L 10.8535,5.1465 C 10.6583,4.9513 10.3417,4.9513 10.1465,5.1465 L 9.0,6.293 L 6.8535,4.1465 C 6.7559,4.0489 6.6279,4.0 6.5,4.0 M 2.5,8.0 C 2.223,8.0 2.0,8.223 2.0,8.5 C 2.0,8.777 2.223,9.0 2.5,9.0 L 3.0,9.0 L 3.0,11.0 L 13.0,11.0 L 13.0,9.0 L 13.5,9.0 C 13.777,9.0 14.0,8.777 14.0,8.5 C 14.0,8.223 13.777,8.0 13.5,8.0 L 13.0,8.0 L 3.0,8.0 L 2.5,8.0" fill="#000" /></svg>