<?xml version="1.0" encoding="utf-8" ?>
<svg baseProfile="full" height="16" version="1.1" width="16" xmlns="http://www.w3.org/2000/svg" xmlns:ev="http://www.w3.org/2001/xml-events" xmlns:xlink="http://www.w3.org/1999/xlink"><defs /><path d="M 7.5,2.0 C 7.223,2.0 7.0,2.223 7.0,2.5 L 7.0,8.3242 L 3.1094,13.1875 A 0.5002,0.5002 0.0 1,0 3.8906,13.8125 L 7.0,9.9258 L 7.0,13.5 C 7.0,13.777 7.223,14.0 7.5,14.0 L 8.5,14.0 C 8.777,14.0 9.0,13.777 9.0,13.5 L 9.0,9.9258 L 12.1094,13.8125 A 0.5002,0.5002 0.0 1,0 12.8906,13.1875 L 9.0,8.3242 L 9.0,2.5 C 9.0,2.223 8.777,2.0 8.5,2.0 L 7.5,2.0" fill="#000" /><path d="M 3.4746,2.0 C 3.3921,2.004 3.3104,2.0284 3.2363,2.0742 C 3.039,2.1963 2.9517,2.4382 3.0254,2.6582 C 3.5043,4.0949 3.5043,4.905 3.0254,6.3418 C 2.8582,6.8426 3.4804,7.2271 3.8535,6.8535 C 5.3142,5.3928 6.1111,5.0 7.5,5.0 A 0.5,0.5 0.0 0,0 8.0,4.5 A 0.5,0.5 0.0 0,0 7.5,4.0 C 6.1111,4.0 5.3142,3.6072 3.8535,2.1465 C 3.751,2.0437 3.6122,1.9934 3.4746,2.0" fill="#000" /><path d="M 12.4961,2.002 C 12.3656,2.0026 12.2401,2.0534 12.1465,2.1465 C 10.6949,3.5981 9.8983,3.9951 8.5254,4.0 C 8.5164,4.0 8.5087,4.0 8.5,4.0 A 0.5,0.5 0.0 0,0 8.0,4.5 A 0.5,0.5 0.0 0,0 8.5,5.0 C 9.8889,5.0 10.6858,5.3928 12.1465,6.8535 C 12.5196,7.2271 13.1418,6.8426 12.9746,6.3418 C 12.4957,4.905 12.4957,4.095 12.9746,2.6582 C 13.0747,2.3555 12.8698,2.0376 12.5527,2.0039 C 12.534,2.0019 12.5147,2.0019 12.4961,2.0019 L 12.4961,2.002" fill="#000" /></svg>