<?xml version="1.0" encoding="utf-8" ?>
<svg baseProfile="full" height="16" version="1.1" width="16" xmlns="http://www.w3.org/2000/svg" xmlns:ev="http://www.w3.org/2001/xml-events" xmlns:xlink="http://www.w3.org/1999/xlink"><defs /><path d="M 2.5,5.0 A 0.5,0.5 0.0 0,0 2.0,5.5 L 2.0,7.4199 A 0.5,0.5 0.0 0,0 2.0,7.582 L 2.0,9.5 A 0.5,0.5 0.0 1,0 3.0,9.5 L 3.0,8.0 L 3.5,8.0 A 0.5,0.5 0.0 1,0 3.5,7.0 L 3.0,7.0 L 3.0,6.0 L 3.5,6.0 A 0.5,0.5 0.0 1,0 3.5,5.0 L 2.5,5.0 M 5.5,5.0 A 0.5,0.5 0.0 0,0 5.0,5.5 L 5.0,7.4199 A 0.5,0.5 0.0 0,0 5.0,7.582 L 5.0,9.5 A 0.5,0.5 0.0 1,0 6.0,9.5 L 6.0,8.0 L 6.0703,8.0 L 7.0664,9.7481 A 0.5,0.5 0.0 1,0 7.9336,9.252 L 7.1309,7.8398 C 7.2829,7.7609 7.4225,7.6595 7.541,7.541 C 7.8071,7.2749 8.0,6.9167 8.0,6.5 C 8.0,6.0833 7.8071,5.7251 7.541,5.459 C 7.2749,5.1929 6.9167,5.0 6.5,5.0 L 5.5,5.0 M 9.5,5.0 A 0.5,0.5 0.0 0,0 9.0,5.5 L 9.0,7.4199 A 0.5,0.5 0.0 0,0 9.0,7.582 L 9.0,9.5 A 0.5,0.5 0.0 0,0 9.5,10.0 L 10.5,10.0 A 0.5,0.5 0.0 1,0 10.5,9.0 L 10.0,9.0 L 10.0,8.0 L 10.5,8.0 A 0.5,0.5 0.0 1,0 10.5,7.0 L 10.0,7.0 L 10.0,6.0 L 10.5,6.0 A 0.5,0.5 0.0 1,0 10.5,5.0 L 9.5,5.0 M 12.5,5.0 A 0.5,0.5 0.0 0,0 12.0,5.5 L 12.0,7.4199 A 0.5,0.5 0.0 0,0 12.0,7.582 L 12.0,9.5 A 0.5,0.5 0.0 0,0 12.5,10.0 L 13.5,10.0 A 0.5,0.5 0.0 1,0 13.5,9.0 L 13.0,9.0 L 13.0,8.0 L 13.5,8.0 A 0.5,0.5 0.0 1,0 13.5,7.0 L 13.0,7.0 L 13.0,6.0 L 13.5,6.0 A 0.5,0.5 0.0 1,0 13.5,5.0 L 12.5,5.0 M 6.0,6.0 L 6.5,6.0 C 6.5833,6.0 6.7251,6.0571 6.834,6.166 C 6.9429,6.2749 7.0,6.4167 7.0,6.5 C 7.0,6.5833 6.9429,6.7251 6.834,6.834 C 6.7251,6.9429 6.5833,7.0 6.5,7.0 L 6.4414,7.0 A 0.5,0.5 0.0 0,0 6.3418,6.994 A 0.5,0.5 0.0 0,0 6.2812,7.0 L 6.0,7.0 L 6.0,6.0" fill="#000" /></svg>