<?xml version="1.0" encoding="utf-8" ?>
<svg baseProfile="full" height="16" version="1.1" width="16" xmlns="http://www.w3.org/2000/svg" xmlns:ev="http://www.w3.org/2001/xml-events" xmlns:xlink="http://www.w3.org/1999/xlink"><defs /><path d="m 311.875,465.5 a 0.50005,0.50005 0 0 0 -0.0312,0.0312 l -5.5,2 a 0.50005,0.50005 0 1 0 0.3125,0.9375 l 5.3437,-1.93745 5.34375,1.9375 a 0.50005,0.50005 0 1 0 0.3125,-0.9375 l -5.5,-2 a 0.50005,0.50005 0 0 0 -0.21875,-0.0312 0.50005,0.50005 0 0 0 -0.0625,0 z M 307.5,473 c -0.277,0 -0.5,0.223 -0.5,0.5 v 0.5 h -0.5 c -0.277,0 -0.5,0.223 -0.5,0.5 v 1 c 0,0.277 0.223,0.5 0.5,0.5 h 0.5 v 1.5 c 0,0.277 0.223,0.5 0.5,0.5 0.277,0 0.5,-0.223 0.5,-0.5 V 476 h 8 v 1.5 c 0,0.277 0.223,0.5 0.5,0.5 0.277,0 0.5,-0.223 0.5,-0.5 V 476 h 0.5 c 0.277,0 0.5,-0.223 0.5,-0.5 v -1 c 0,-0.277 -0.223,-0.5 -0.5,-0.5 H 317 v -0.5 c 0,-0.277 -0.223,-0.5 -0.5,-0.5 -0.277,0 -0.5,0.223 -0.5,0.5 v 0.5 h -8 v -0.5 c 0,-0.277 -0.223,-0.5 -0.5,-0.5 z" fill="#000" transform="translate(8.0,8.0) translate(-312.0,-472.0)" /></svg>