<?xml version="1.0" encoding="utf-8" ?>
<svg baseProfile="full" height="16" version="1.1" width="16" xmlns="http://www.w3.org/2000/svg" xmlns:ev="http://www.w3.org/2001/xml-events" xmlns:xlink="http://www.w3.org/1999/xlink"><defs /><path d="M 4.0,2.0 L 4.0,13.0 L 11.0,13.0 L 11.0,11.0 L 11.9062,11.0 L 11.9999,11.0 L 11.9999,10.9688 C 12.5472,11.0209 13.0653,10.8292 13.4062,10.4688 C 13.7697,10.0844 14.0,9.5516 14.0,9.0 L 14.0,6.0 C 14.0,4.9013 13.1566,4.0 12.0,4.0 L 11.0,4.0 L 11.0,2.0 L 4.0,2.0 M 5.5,3.0 L 6.5,3.0 L 9.5,3.0 C 9.777,3.0 10.0,3.223 10.0,3.5 C 10.0,3.777 9.777,4.0 9.5,4.0 L 8.0,4.0 C 7.4477,4.0 7.0,4.4477 7.0,5.0 L 7.0,7.5 C 7.0,7.777 6.777,8.0 6.5,8.0 C 6.223,8.0 6.0,7.777 6.0,7.5 L 6.0,6.5625 C 6.003,6.5409 6.0,6.5224 6.0,6.5 C 6.0,6.2593 5.8203,6.0789 5.5938,6.0312 C 5.5611,6.0105 5.5346,6.0 5.5,6.0 C 5.223,6.0 5.0,5.777 5.0,5.5 L 5.0,3.5 C 5.0,3.223 5.223,3.0 5.5,3.0 M 11.0,5.0 L 12.0,5.0 C 12.5582,5.0 13.0,5.4418 13.0,6.0 L 13.0,9.0 C 13.0,9.2768 12.8698,9.5886 12.6875,9.7812 C 12.5052,9.9739 12.3219,10.038 12.0938,10.0 L 12.0312,10.0 L 12.0001,10.0 L 11.0001,10.0 L 11.0,5.0" fill="#000" /></svg>