<svg xmlns="http://www.w3.org/2000/svg" width="16" height="16"><path d="M 2.0,2.0 C 2.0,4.142 3.145,6.1243 5.0,7.1953 C 5.2003,7.311 5.4078,7.4093 5.6172,7.5 C 5.4081,7.5906 5.2001,7.6872 5.0,7.8027 C 3.145,8.8737 2.0,10.858 2.0,13.0 L 4.0,13.0 C 4.0,11.5693 4.761,10.2505 6.0,9.5352 C 6.318,9.3515 6.6542,9.2163 7.0,9.1269 L 7.0,12.0 L 7.0,13.0 L 9.0,13.0 L 9.0,12.0 L 9.0,9.1269 C 9.3458,9.2164 9.682,9.3515 10.0,9.5352 C 11.239,10.2505 12.0,11.5693 12.0,13.0 L 14.0,13.0 C 14.0,10.858 12.855,8.8737 11.0,7.8027 C 10.7999,7.6872 10.5919,7.5906 10.3828,7.5 C 10.5922,7.4093 10.7997,7.311 11.0,7.1953 C 12.855,6.1243 14.0,4.142 14.0,2.0 L 12.0,2.0 C 12.0,3.4307 11.239,4.7495 10.0,5.4648 C 9.682,5.6485 9.3458,5.7837 9.0,5.8731 L 9.0,3.0 L 9.0,2.0 L 7.0,2.0 L 7.0,3.0 L 7.0,5.8731 C 6.6542,5.7836 6.318,5.6485 6.0,5.4648 C 4.761,4.7495 4.0,3.4307 4.0,2.0 L 2.0,2.0" fill="#000" /></svg>