<svg xmlns="http://www.w3.org/2000/svg" width="16" height="16"><path d="M 2.5,2.0 C 2.223,2.0 2.0,2.223 2.0,2.5 L 2.0,12.5 C 2.0,12.777 2.223,13.0 2.5,13.0 L 12.5,13.0 C 12.777,13.0 13.0,12.777 13.0,12.5 L 13.0,2.5 C 13.0,2.223 12.777,2.0 12.5,2.0 L 2.5,2.0 M 6.5,4.0 L 8.4492,4.0 C 8.7262,4.0 8.9492,4.223 8.9492,4.5 L 8.9492,6.0 L 10.4492,6.0 C 10.7262,6.0 10.9492,6.223 10.9492,6.5 L 10.9492,8.4492 C 10.9492,8.7262 10.7262,8.9492 10.4492,8.9492 L 8.9492,8.9492 L 8.9492,10.4492 C 8.9492,10.7262 8.7262,10.9492 8.4492,10.9492 L 6.5,10.9492 C 6.223,10.9492 6.0,10.7262 6.0,10.4492 L 6.0,8.9492 L 4.5,8.9492 C 4.223,8.9492 4.0,8.7262 4.0,8.4492 L 4.0,6.5 C 4.0,6.223 4.223,6.0 4.5,6.0 L 6.0,6.0 L 6.0,4.5 C 6.0,4.223 6.223,4.0 6.5,4.0" fill="#000" /></svg>