<?xml version="1.0" encoding="utf-8" ?>
<svg baseProfile="full" height="16" version="1.1" width="16" xmlns="http://www.w3.org/2000/svg" xmlns:ev="http://www.w3.org/2001/xml-events" xmlns:xlink="http://www.w3.org/1999/xlink"><defs /><path d="M 4.4902,2.998 A 0.5,0.5 0.0 0,0 4.0,3.5762 L 4.0,4.5 C 4.0,4.777 4.223,5.0 4.5,5.0 C 4.777,5.0 5.0,4.777 5.0,4.5 L 5.0,4.2383 L 8.9141,5.8047 L 9.0,5.8398 L 9.0,6.5 C 9.0,6.777 9.223,7.0 9.5,7.0 C 9.777,7.0 10.0,6.777 10.0,6.5 L 10.0,6.2382 L 11.8144,6.9648 A 0.5005,0.5005 0.0 1,0 12.1855,6.0351 L 9.2871,4.8769 L 4.6855,3.0351 A 0.5,0.5 0.0 0,0 4.4902,2.998 L 4.4902,2.998 M 4.5,5.5 C 4.5,7.5 4.5,8.5 6.5,10.5 C 6.5,8.5 6.5,5.5 4.5,5.5 C 2.5,5.5 2.5,8.5 2.5,10.5 C 4.5,8.5 4.5,7.5 4.5,5.5 M 9.5,7.5 C 9.5,9.5 9.5,10.5 11.5,12.5 C 11.5,10.5 11.5,7.5 9.5,7.5 C 7.5,7.5 7.5,10.5 7.5,12.5 C 9.5,10.5 9.5,9.5 9.5,7.5" fill="#000" /></svg>