<?xml version="1.0" encoding="utf-8" ?>
<svg baseProfile="full" height="16" version="1.1" width="16" xmlns="http://www.w3.org/2000/svg" xmlns:ev="http://www.w3.org/2001/xml-events" xmlns:xlink="http://www.w3.org/1999/xlink"><defs /><path d="M 6.5,1.0 A 0.5,0.5 0.0 0,0 6.1738,1.1211 A 0.5,0.5 0.0 0,0 6.1718,1.1231 L 2.6738,4.1211 A 0.5,0.5 0.0 0,0 3.0,5.0 L 6.0,5.0 L 6.0,7.2695 L 2.6738,10.1211 A 0.5,0.5 0.0 0,0 3.0,11.0 L 5.6914,11.0 L 4.0527,14.2773 A 0.5,0.5 0.0 1,0 4.9473,14.7227 L 5.3086,14.0 L 9.6914,14.0 L 10.0527,14.7227 A 0.5,0.5 0.0 1,0 10.9473,14.2773 L 9.0,10.3828 L 9.0,8.0 L 12.0,8.0 A 0.5,0.5 0.0 0,0 12.3262,7.1211 L 9.0,4.2695 L 9.0,1.5 A 0.5,0.5 0.0 0,0 8.5,1.0 L 6.5,1.0 M 7.0,2.0 L 8.0,2.0 L 8.0,4.0 L 7.0,4.0 L 7.0,2.0 M 6.0,2.5879 L 6.0,4.0 L 4.3516,4.0 L 6.0,2.5879 M 7.0,5.0 L 8.0,5.0 L 8.0,7.0 L 7.0,7.0 L 7.0,5.0 M 9.0,5.5879 L 10.6484,7.0 L 9.0,7.0 L 9.0,5.5879 M 7.0,8.0 L 8.0,8.0 L 8.0,10.0 L 7.0,10.0 L 7.0,8.0 M 6.0,8.5879 L 6.0,10.0 L 4.3516,10.0 L 6.0,8.5879 M 6.8086,11.0 L 8.1914,11.0 L 9.1914,13.0 L 5.8086,13.0 L 6.8086,11.0" fill="#000" /></svg>