<?xml version="1.0" encoding="utf-8" ?>
<svg baseProfile="full" height="16" version="1.1" width="16" xmlns="http://www.w3.org/2000/svg" xmlns:ev="http://www.w3.org/2001/xml-events" xmlns:xlink="http://www.w3.org/1999/xlink"><defs /><path d="M 13.1211,3.1113 C 13.0573,3.1043 12.9907,3.1093 12.9238,3.1269 C 12.6563,3.1986 12.4932,3.4533 12.5586,3.6973 L 12.959,5.1894 L 8.7324,6.3223 A 1.0,1.0 0.0 0,0 8.0,6.0 A 1.0,1.0 0.0 0,0 7.0254,6.7793 L 3.3008,7.7773 L 2.9004,6.2852 C 2.835,6.0412 2.5664,5.9029 2.2988,5.9746 C 2.0313,6.0463 1.8682,6.301 1.9336,6.5449 L 2.334,8.0371 L 1.8516,8.166 C 1.584,8.2377 1.421,8.4905 1.4863,8.7344 L 1.5078,8.8203 C 1.5732,9.0642 1.8418,9.2025 2.1094,9.1308 L 3.0762,8.873 C 3.0782,8.8725 3.0802,8.872 3.0822,8.871 L 7.3224,7.7343 A 1.0,1.0 0.0 0,0 8.0,8.0 A 1.0,1.0 0.0 0,0 8.9551,7.2969 L 13.7012,6.0254 C 13.7032,6.0248 13.7052,6.0244 13.7072,6.0234 L 14.6662,5.7656 C 14.9337,5.6939 15.0967,5.4411 15.0314,5.1972 L 15.0099,5.1113 C 14.9445,4.8674 14.6759,4.7291 14.4083,4.8008 L 13.9259,4.9297 L 13.5255,3.4375 C 13.4765,3.2546 13.3125,3.1315 13.1212,3.1113 L 13.1211,3.1113 M 8.0,8.0 L 5.0,12.0 L 11.0,12.0 L 8.0,8.0" fill="#000" /></svg>