<?xml version="1.0" encoding="utf-8" ?>
<svg baseProfile="full" height="16" version="1.1" width="16" xmlns="http://www.w3.org/2000/svg" xmlns:ev="http://www.w3.org/2001/xml-events" xmlns:xlink="http://www.w3.org/1999/xlink"><defs /><path d="M 4.0,2.0 C 3.446,2.0 3.0,2.446 3.0,3.0 L 3.0,11.0 C 3.0,11.554 3.446,12.0 4.0,12.0 L 8.0,12.0 L 8.0,10.0 C 8.0,8.892 8.892,8.0 10.0,8.0 L 10.0,3.0 C 10.0,2.446 9.554,2.0 9.0,2.0 L 4.0,2.0 M 6.5,4.0 L 8.5,7.0 L 6.5,10.0 L 4.5,7.0 L 6.5,4.0 M 10.0,9.0 C 9.446,9.0 9.0,9.446 9.0,10.0 L 9.0,13.0 C 9.0,13.554 9.446,14.0 10.0,14.0 L 13.0,14.0 C 13.554,14.0 14.0,13.554 14.0,13.0 L 14.0,10.0 C 14.0,9.446 13.554,9.0 13.0,9.0 L 10.0,9.0 M 10.5,9.7734 A 0.7273,0.7273 0.0 0,1 11.2266,10.5 A 0.7273,0.7273 0.0 0,1 10.5,11.2266 A 0.7273,0.7273 0.0 0,1 9.7734,10.5 A 0.7273,0.7273 0.0 0,1 10.5,9.7734 M 12.5,11.7734 A 0.7273,0.7273 0.0 0,1 13.2266,12.5 A 0.7273,0.7273 0.0 0,1 12.5,13.2266 A 0.7273,0.7273 0.0 0,1 11.7734,12.5 A 0.7273,0.7273 0.0 0,1 12.5,11.7734" fill="#000" /></svg>