<?xml version="1.0" encoding="utf-8" ?>
<svg baseProfile="full" height="16" version="1.1" width="16" xmlns="http://www.w3.org/2000/svg" xmlns:ev="http://www.w3.org/2001/xml-events" xmlns:xlink="http://www.w3.org/1999/xlink"><defs /><path d="M 7.5,1.5 C 6.0,3.0 6.0,4.0 7.5,5.5 C 9.0,4.0 9.0,3.0 7.5,1.5 M 4.0,5.0 C 4.0,8.0 5.0,7.0 7.0,8.0 C 7.0,5.0 6.0,6.0 4.0,5.0 M 11.0,5.0 C 9.0,6.0 8.0,5.0 8.0,8.0 C 10.0,7.0 11.0,8.0 11.0,5.0 M 4.0,8.0 C 4.0,11.0 5.0,10.0 7.0,11.0 C 7.0,8.0 6.0,9.0 4.0,8.0 M 11.0,8.0 C 9.0,9.0 8.0,8.0 8.0,11.0 C 10.0,10.0 11.0,11.0 11.0,8.0 M 7.5,12.0 C 7.223,12.0 7.0,12.223 7.0,12.5 L 7.0,14.5 C 7.0,14.777 7.223,15.0 7.5,15.0 C 7.777,15.0 8.0,14.777 8.0,14.5 L 8.0,12.5 C 8.0,12.223 7.777,12.0 7.5,12.0" fill="#000" /></svg>