<?xml version="1.0" encoding="utf-8" ?>
<svg baseProfile="full" height="16" version="1.1" width="16" xmlns="http://www.w3.org/2000/svg" xmlns:ev="http://www.w3.org/2001/xml-events" xmlns:xlink="http://www.w3.org/1999/xlink"><defs /><path d="M 7.5,4.0 C 6.7175,4.0 6.0733,4.615 6.0117,5.3828 A 0.5,0.5 0.0 0,0 6.0,5.5 L 6.0,7.0 L 5.5,7.0 A 0.5,0.5 0.0 1,0 5.5,8.0 L 5.9453,8.0 C 5.8783,8.2846 5.7526,8.4698 5.584,8.7227 C 5.334,9.0977 5.0,9.6389 5.0,10.5 A 0.5,0.5 0.0 0,0 5.5,11.0 L 8.5,11.0 A 0.5,0.5 0.0 1,0 8.5,10.0 L 6.1699,10.0 C 6.2421,9.7713 6.2682,9.499 6.416,9.2773 C 6.6129,8.9821 6.8542,8.5763 6.9512,8.0 L 7.5,8.0 A 0.5,0.5 0.0 1,0 7.5,7.0 L 7.0,7.0 L 7.0,5.5352 A 0.5,0.5 0.0 0,0 7.0,5.5 C 7.0,5.2179 7.2179,5.0 7.5,5.0 C 7.7821,5.0 8.0,5.2179 8.0,5.5 A 0.5,0.5 0.0 1,0 9.0,5.5 C 9.0,4.6775 8.3225,4.0 7.5,4.0 L 7.5,4.0" fill="#000" /></svg>