<?xml version="1.0" encoding="utf-8" ?>
<svg baseProfile="full" height="16" version="1.1" width="16" xmlns="http://www.w3.org/2000/svg" xmlns:ev="http://www.w3.org/2001/xml-events" xmlns:xlink="http://www.w3.org/1999/xlink"><defs /><path d="M 5.4941,4.9941 A 0.5,0.5 0.0 0,0 5.1465,5.8535 L 6.793,7.5 L 5.1465,9.1465 A 0.5,0.5 0.0 1,0 5.8535,9.8535 L 7.5,8.207 L 9.1465,9.8535 A 0.5,0.5 0.0 1,0 9.8535,9.1465 L 8.207,7.5 L 9.8535,5.8535 A 0.5,0.5 0.0 0,0 9.4902,4.9961 A 0.5,0.5 0.0 0,0 9.1465,5.1465 L 7.5,6.793 L 5.8535,5.1465 A 0.5,0.5 0.0 0,0 5.4941,4.9941 L 5.4941,4.9941" fill="#000" /></svg>