<svg xmlns="http://www.w3.org/2000/svg" width="16" height="16"><path d="M 9.0,1.4297 A 0.5,0.5 0.0 0,0 8.6992,1.498 L 3.6992,4.498 A 0.5,0.5 0.0 0,0 3.6738,4.5176 A 3.5,3.5 0.0 0,0 2.0,7.5 A 3.5,3.5 0.0 0,0 3.6738,10.4824 A 0.5,0.5 0.0 0,0 3.6992,10.502 L 8.6992,13.502 A 0.5,0.5 0.0 0,0 9.3848,13.3301 A 0.5,0.5 0.0 0,0 9.2129,12.6445 L 6.3027,10.8984 A 3.5,3.5 0.0 0,0 8.9648,8.0 L 13.0,8.0 A 0.5,0.5 0.0 0,0 13.5,7.5 A 0.5,0.5 0.0 0,0 13.0,7.0 L 8.9648,7.0 A 3.5,3.5 0.0 0,0 6.3106,4.0957 L 9.2129,2.3555 A 0.5,0.5 0.0 0,0 9.3848,1.6699 A 0.5,0.5 0.0 0,0 9.0,1.4297" fill="#000" /></svg>