<?xml version="1.0" encoding="utf-8" ?>
<svg baseProfile="full" height="16" version="1.1" width="16" xmlns="http://www.w3.org/2000/svg" xmlns:ev="http://www.w3.org/2001/xml-events" xmlns:xlink="http://www.w3.org/1999/xlink"><defs /><path d="M 4.0,2.0 C 3.446,2.0 3.0,2.446 3.0,3.0 L 3.0,13.0 C 3.0,13.554 3.446,14.0 4.0,14.0 L 9.0,14.0 C 9.554,14.0 10.0,13.554 10.0,13.0 L 10.0,9.0 A 1.0,1.0 0.0 0,1 11.0,10.0 L 11.0,11.5 A 1.5,1.5 0.0 0,0 12.5,13.0 A 1.5,1.5 0.0 0,0 14.0,11.5 L 14.0,6.0 A 2.0,2.0 0.0 0,0 12.0,4.0 L 11.0,4.0 L 11.0,5.0 L 12.0,5.0 A 1.0,1.0 0.0 0,1 13.0,6.0 L 13.0,11.5 A 0.5,0.5 0.0 0,1 12.5,12.0 A 0.5,0.5 0.0 0,1 12.0,11.5 L 12.0,10.0 A 2.0,2.0 0.0 0,0 10.0,8.0 L 10.0,3.0 C 10.0,2.446 9.554,2.0 9.0,2.0 L 4.0,2.0 M 4.0,4.0 L 9.0,4.0 L 9.0,7.0 L 4.0,7.0 L 4.0,4.0" fill="#000" /></svg>