<?xml version="1.0" encoding="utf-8" ?>
<svg baseProfile="full" height="16" version="1.1" width="16" xmlns="http://www.w3.org/2000/svg" xmlns:ev="http://www.w3.org/2001/xml-events" xmlns:xlink="http://www.w3.org/1999/xlink"><defs /><path d="M 215.49219,563.99219 A 0.50005,0.50005 0 0 0 215,564.5 v 0.59375 c -0.57903,0.20848 -1,0.75941 -1,1.40625 0,0.82251 0.67749,1.5 1.5,1.5 0.28205,0 0.5,0.21795 0.5,0.5 0,0.2709 -0.20295,0.47782 -0.46875,0.49414 a 0.50005,0.50005 0 0 0 -0.0391,-0.002 0.50005,0.50005 0 0 0 -0.0742,0.008 H 214.5 a 0.50005,0.50005 0 1 0 0,1 h 0.5 v 0.5 a 0.50005,0.50005 0 1 0 1,0 v -0.59375 c 0.57903,-0.20848 1,-0.75941 1,-1.40625 0,-0.82251 -0.67749,-1.5 -1.5,-1.5 -0.28205,0 -0.5,-0.21795 -0.5,-0.5 0,-0.2709 0.20295,-0.47782 0.46875,-0.49414 A 0.50005,0.50005 0 0 0 215.58203,566 H 216.5 a 0.50005,0.50005 0 1 0 0,-1 H 216 v -0.5 a 0.50005,0.50005 0 0 0 -0.50781,-0.50781 z" fill="#000" transform="translate(8.0,8.0) translate(-216.0,-568.0)" /></svg>