<?xml version="1.0" encoding="utf-8" ?>
<svg baseProfile="full" height="16" version="1.1" width="16" xmlns="http://www.w3.org/2000/svg" xmlns:ev="http://www.w3.org/2001/xml-events" xmlns:xlink="http://www.w3.org/1999/xlink"><defs /><path d="M 3.4844,9.0 C 3.216,9.0 3.0,9.223 3.0,9.5 L 3.0,10.0 L 1.5,10.0 C 1.2239,10.0 1.0,10.2239 1.0,10.5 C 1.0,10.7761 1.2239,11.0 1.5,11.0 L 13.5,11.0 C 13.7761,11.0 14.0,10.7761 14.0,10.5 C 14.0,10.2239 13.7761,10.0 13.5,10.0 L 12.0,10.0 L 12.0,9.5 C 12.0,9.223 11.784,9.0 11.5156,9.0 L 11.4844,9.0 C 11.216,9.0 11.0,9.223 11.0,9.5 L 11.0,10.0 L 10.0,10.0 L 10.0,9.5 C 10.0,9.223 9.784,9.0 9.5156,9.0 L 9.4844,9.0 C 9.216,9.0 9.0,9.223 9.0,9.5 L 9.0,10.0 L 8.0,10.0 L 8.0,9.5 C 8.0,9.223 7.784,9.0 7.5156,9.0 L 7.4844,9.0 C 7.216,9.0 7.0,9.223 7.0,9.5 L 7.0,10.0 L 6.0,10.0 L 6.0,9.5 C 6.0,9.223 5.784,9.0 5.5156,9.0 L 5.4844,9.0 C 5.216,9.0 5.0,9.223 5.0,9.5 L 5.0,10.0 L 4.0,10.0 L 4.0,9.5 C 4.0,9.223 3.784,9.0 3.5156,9.0 L 3.4844,9.0 L 3.4844,9.0" fill="#000" /><path d="M 5.4941,1.9941 A 0.5,0.5 0.0 0,0 5.1465,2.8535 L 6.793,4.5 L 5.1465,6.1465 A 0.5,0.5 0.0 1,0 5.8535,6.8535 L 7.5,5.207 L 9.1465,6.8535 A 0.5,0.5 0.0 1,0 9.8535,6.1465 L 8.207,4.5 L 9.8535,2.8535 A 0.5,0.5 0.0 0,0 9.4902,1.9961 A 0.5,0.5 0.0 0,0 9.1465,2.1465 L 7.5,3.793 L 5.8535,2.1465 A 0.5,0.5 0.0 0,0 5.4941,1.9941 L 5.4941,1.9941" fill="#000" /></svg>