<?xml version="1.0" encoding="utf-8" ?>
<svg baseProfile="full" height="16" version="1.1" width="16" xmlns="http://www.w3.org/2000/svg" xmlns:ev="http://www.w3.org/2001/xml-events" xmlns:xlink="http://www.w3.org/1999/xlink"><defs /><path d="M 7.5,1.0 C 7.223,1.0 7.0,1.223 7.0,1.5 L 7.0,2.5 C 7.0,2.777 7.223,3.0 7.5,3.0 L 8.5,3.0 C 8.777,3.0 9.0,2.777 9.0,2.5 L 9.0,1.5 C 9.0,1.223 8.777,1.0 8.5,1.0 L 7.5,1.0 M 6.5,4.0 C 6.223,4.0 6.0,4.223 6.0,4.5 L 6.0,6.5 C 6.0,6.777 6.223,7.0 6.5,7.0 L 7.0,7.0 L 7.0,11.5 C 7.0,11.777 7.223,12.0 7.5,12.0 L 8.5,12.0 C 8.777,12.0 9.0,11.777 9.0,11.5 L 9.0,7.0 L 9.5,7.0 C 9.777,7.0 10.0,6.777 10.0,6.5 L 10.0,4.5 C 10.0,4.223 9.777,4.0 9.5,4.0 L 6.5,4.0 M 4.0,13.0 L 3.0,14.0 L 3.0,15.0 L 13.0,15.0 L 13.0,14.0 L 12.0,13.0 L 4.0,13.0" fill="#000" /></svg>