<svg xmlns="http://www.w3.org/2000/svg" width="16" height="16"><path d="M 2.5,1.0 C 2.223,1.0 2.0,1.223 2.0,1.5 L 2.0,4.0 L 13.0,4.0 L 13.0,1.5 C 13.0,1.223 12.777,1.0 12.5,1.0 L 2.5,1.0 M 3.5,2.0 A 0.5,0.5 0.0 0,1 4.0,2.5 A 0.5,0.5 0.0 0,1 3.5,3.0 A 0.5,0.5 0.0 0,1 3.0,2.5 A 0.5,0.5 0.0 0,1 3.5,2.0 M 5.5,2.0 A 0.5,0.5 0.0 0,1 6.0,2.5 A 0.5,0.5 0.0 0,1 5.5,3.0 A 0.5,0.5 0.0 0,1 5.0,2.5 A 0.5,0.5 0.0 0,1 5.5,2.0 M 9.5,2.0 L 11.5,2.0 C 11.777,2.0 12.0,2.223 12.0,2.5 C 12.0,2.777 11.777,3.0 11.5,3.0 L 9.5,3.0 C 9.223,3.0 9.0,2.777 9.0,2.5 C 9.0,2.223 9.223,2.0 9.5,2.0 M 2.0,5.0 L 2.0,13.5 C 2.0,13.777 2.223,14.0 2.5,14.0 L 12.5,14.0 C 12.777,14.0 13.0,13.777 13.0,13.5 L 13.0,5.0 L 2.0,5.0 M 7.5,6.0 A 3.5,3.5 0.0 0,1 11.0,9.5 A 3.5,3.5 0.0 0,1 7.5,13.0 A 3.5,3.5 0.0 0,1 4.0,9.5 A 3.5,3.5 0.0 0,1 7.5,6.0 M 6.25,8.75 C 5.75,8.75 5.25,9.0 5.0,9.5 A 2.5,2.5 0.0 0,0 7.5,12.0 A 2.5,2.5 0.0 0,0 10.0,9.5 C 9.5,10.5 8.0,10.5 7.5,9.5 C 7.25,9.0 6.75,8.75 6.25,8.75" fill="#000" /></svg>