<svg xmlns="http://www.w3.org/2000/svg" width="16" height="16"><path d="M 8.0,2.0 A 3.0,3.0 0.0 0,0 5.0,5.0 L 5.0,7.0 C 4.446,7.0 4.0,7.446 4.0,8.0 L 4.0,12.0 C 4.0,12.554 4.446,13.0 5.0,13.0 L 11.0,13.0 C 11.554,13.0 12.0,12.554 12.0,12.0 L 12.0,8.0 C 12.0,7.446 11.554,7.0 11.0,7.0 L 11.0,5.0 A 3.0,3.0 0.0 0,0 8.0,2.0 M 8.0,3.0 A 2.0,2.0 0.0 0,1 10.0,5.0 L 10.0,7.0 L 6.0,7.0 L 6.0,5.0 A 2.0,2.0 0.0 0,1 8.0,3.0 M 8.0,8.5 A 1.0,1.0 0.0 0,1 9.0,9.5 A 1.0,1.0 0.0 0,1 8.5,10.3652 L 8.5,11.5 C 8.5,11.777 8.277,12.0 8.0,12.0 C 7.723,12.0 7.5,11.777 7.5,11.5 L 7.5,10.3633 A 1.0,1.0 0.0 0,1 7.0,9.5 A 1.0,1.0 0.0 0,1 8.0,8.5" fill="#000" /></svg>