<?xml version="1.0" encoding="utf-8" ?>
<svg baseProfile="full" height="16" version="1.1" width="16" xmlns="http://www.w3.org/2000/svg" xmlns:ev="http://www.w3.org/2001/xml-events" xmlns:xlink="http://www.w3.org/1999/xlink"><defs /><path d="M 1.5,2.0 A 0.5,0.5 0.0 0,0 1.0,2.5 L 1.0,13.5 A 0.5,0.5 0.0 0,0 1.5,14.0 A 0.5,0.5 0.0 0,0 2.0,13.5 L 2.0,4.0 L 5.0,4.0 L 5.0,4.5 A 0.5,0.5 0.0 0,0 5.5,5.0 L 7.0,5.0 L 7.0,7.5 A 0.5,0.5 0.0 0,0 7.3711,7.9824 A 0.5,0.5 0.0 0,0 7.5,8.0 C 7.7037,8.0 7.885,8.1204 7.9629,8.3086 C 8.0408,8.4968 7.9975,8.7095 7.8535,8.8535 C 7.7095,8.9975 7.4968,9.0408 7.3086,8.9629 C 7.1204,8.885 7.0,8.7037 7.0,8.5 A 0.5,0.5 0.0 0,0 6.5,8.0 A 0.5,0.5 0.0 0,0 6.0,8.5 C 6.0,9.1053 6.3666,9.6551 6.9258,9.8867 C 7.485,10.1183 8.1326,9.9885 8.5605,9.5606 C 8.9885,9.1326 9.1183,8.485 8.8867,7.9258 C 8.7215,7.5269 8.3936,7.2276 8.0,7.0879 L 8.0,5.0 L 9.5,5.0 A 0.5,0.5 0.0 0,0 10.0,4.5 L 10.0,4.0 L 13.0,4.0 L 13.0,13.5 A 0.5,0.5 0.0 0,0 13.5,14.0 A 0.5,0.5 0.0 0,0 14.0,13.5 L 14.0,2.5 A 0.5,0.5 0.0 0,0 13.5,2.0 A 0.5,0.5 0.0 0,0 13.0,2.5 L 13.0,3.0 L 10.0,3.0 L 10.0,2.5 A 0.5,0.5 0.0 0,0 9.5,2.0 L 5.5,2.0 A 0.5,0.5 0.0 0,0 5.0,2.5 L 5.0,3.0 L 2.0,3.0 L 2.0,2.5 A 0.5,0.5 0.0 0,0 1.5,2.0 L 1.5,2.0 M 6.0,12.043 L 5.6465,12.3965 C 5.2054,12.8376 4.8333,13.0 4.5,13.0 C 4.1667,13.0 3.7946,12.8376 3.3535,12.3965 L 2.6465,13.1035 C 3.2054,13.6624 3.8333,14.0 4.5,14.0 C 5.0394,14.0 5.5274,13.6558 6.0,13.2754 C 6.4726,13.6558 6.9606,14.0 7.5,14.0 C 8.0394,14.0 8.5274,13.6558 9.0,13.2754 C 9.4726,13.6558 9.9606,14.0 10.5,14.0 C 11.1667,14.0 11.7946,13.6624 12.3535,13.1035 L 11.6465,12.3965 C 11.2054,12.8376 10.8333,13.0 10.5,13.0 C 10.1667,13.0 9.7946,12.8376 9.3535,12.3965 L 9.0,12.043 L 8.6465,12.3965 C 8.2054,12.8376 7.8333,13.0 7.5,13.0 C 7.1667,13.0 6.7946,12.8376 6.3535,12.3965 L 6.0,12.043" fill="#000" /></svg>