<svg xmlns="http://www.w3.org/2000/svg" width="16" height="16"><path d="M 7.0,2.0 L 5.0,6.0 L 5.0,7.0 L 4.0,7.0 A 0.5,0.5 0.0 0,0 3.5215,7.3555 L 2.1289,12.0 L 1.5,12.0 A 0.5,0.5 0.0 1,0 1.5,13.0 L 2.3848,13.0 A 0.5,0.5 0.0 0,0 2.6074,13.0 L 3.5,13.0 A 0.5,0.5 0.0 1,0 3.5,12.0 L 3.1719,12.0 L 3.4727,11.0 A 0.5,0.5 0.0 0,0 3.5,11.0 L 12.5,11.0 A 0.5,0.5 0.0 0,0 12.5273,10.998 L 12.8281,12.0 L 12.5,12.0 A 0.5,0.5 0.0 1,0 12.5,13.0 L 13.3945,13.0 A 0.5,0.5 0.0 0,0 13.6152,13.0 L 14.5,13.0 A 0.5,0.5 0.0 1,0 14.5,12.0 L 13.8711,12.0 L 12.4785,7.3555 A 0.5,0.5 0.0 0,0 12.0,7.0 L 11.0,7.0 L 11.0,6.0 L 9.0,2.0 L 7.0,2.0 M 8.0,5.5 A 1.5,1.5 0.0 0,1 9.5,7.0 A 1.5,1.5 0.0 0,1 8.0,8.5 A 1.5,1.5 0.0 0,1 6.5,7.0 A 1.5,1.5 0.0 0,1 8.0,5.5 M 4.3711,8.0 L 5.0,8.0 L 5.0,10.0 L 3.7715,10.0 L 4.3711,8.0 M 11.0,8.0 L 11.6289,8.0 L 12.2285,10.0 L 11.0,10.0 L 11.0,8.0 M 7.0,12.0 A 0.5,0.5 0.0 1,0 7.0,13.0 L 9.0,13.0 A 0.5,0.5 0.0 1,0 9.0,12.0 L 7.0,12.0" fill="#000" /></svg>