<svg xmlns="http://www.w3.org/2000/svg" width="16" height="16"><path d="M 8.0,1.0 C 6.8954,1.0 6.0,1.8954 6.0,3.0 C 6.002,3.7126 6.3829,4.3703 7.0,4.7266 L 7.0,6.0 L 5.5,6.0 C 5.223,6.0 5.0,6.223 5.0,6.5 C 5.0,6.777 5.223,7.0 5.5,7.0 L 7.0,7.0 L 7.0,12.0 C 4.5,12.0 3.0,11.5 3.0,9.0 L 3.5,9.0 C 3.9453,8.9998 4.1683,8.4615 3.8535,8.1465 C 3.8535,8.1465 3.7845,8.0836 3.6172,7.8047 C 3.4499,7.5258 3.2141,7.0602 2.9746,6.3418 C 2.9065,6.1376 2.7153,5.9999 2.5,6.0 C 2.2847,5.9999 2.0935,6.1376 2.0254,6.3418 C 1.7859,7.0602 1.5501,7.5258 1.3828,7.8047 C 1.2155,8.0836 1.1465,8.1465 1.1465,8.1465 C 0.8317,8.4615 1.0547,8.9998 1.5,9.0 L 2.0,9.0 C 2.0,13.0 5.0,14.0 8.0,14.0 C 11.0,14.0 14.0,13.0 14.0,9.0 L 14.5,9.0 C 14.9453,8.9998 15.1683,8.4615 14.8535,8.1465 C 14.8535,8.1465 14.7845,8.0836 14.6172,7.8047 C 14.4499,7.5258 14.2141,7.0602 13.9746,6.3418 C 13.9065,6.1376 13.7153,5.9999 13.5,6.0 C 13.2847,5.9999 13.0935,6.1376 13.0254,6.3418 C 12.7859,7.0602 12.5501,7.5258 12.3828,7.8047 C 12.2155,8.0836 12.1465,8.1465 12.1465,8.1465 C 11.8317,8.4615 12.0547,8.9998 12.5,9.0 L 13.0,9.0 C 13.0,11.5 11.5,12.0 9.0,12.0 L 9.0,7.0 L 10.5,7.0 C 10.777,7.0 11.0,6.777 11.0,6.5 C 11.0,6.223 10.777,6.0 10.5,6.0 L 9.0,6.0 L 9.0,4.7266 C 9.6171,4.3703 9.998,3.7126 10.0,3.0 C 10.0,1.8954 9.1046,1.0 8.0,1.0 M 8.0,2.0 C 8.5523,2.0 9.0,2.4477 9.0,3.0 C 9.0,3.5523 8.5523,4.0 8.0,4.0 C 7.4477,4.0 7.0,3.5523 7.0,3.0 C 7.0,2.4477 7.4477,2.0 8.0,2.0" fill="#000" /></svg>