<svg xmlns="http://www.w3.org/2000/svg" width="16" height="16"><path d="M 6.0,3.0039 C 4.7193,3.0039 3.4391,3.4906 2.4648,4.4648 C 0.5164,6.4133 0.5164,9.5867 2.4648,11.5352 C 4.4133,13.4836 7.5867,13.4836 9.5352,11.5352 C 9.7303,11.3399 9.7303,11.0234 9.5352,10.8281 L 6.707,8.0 L 9.5352,5.1719 C 9.7303,4.9766 9.7303,4.6601 9.5352,4.4648 C 8.5609,3.4906 7.2807,3.0039 6.0,3.0039 L 6.0,3.0039 M 11.0,7.0 A 1.0,1.0 0.0 0,0 10.0,8.0 A 1.0,1.0 0.0 0,0 11.0,9.0 A 1.0,1.0 0.0 0,0 12.0,8.0 A 1.0,1.0 0.0 0,0 11.0,7.0 M 14.0,7.0 A 1.0,1.0 0.0 0,0 13.0,8.0 A 1.0,1.0 0.0 0,0 14.0,9.0 A 1.0,1.0 0.0 0,0 15.0,8.0 A 1.0,1.0 0.0 0,0 14.0,7.0" fill="#000" /></svg>