<?xml version="1.0" encoding="utf-8" ?>
<svg baseProfile="full" height="16" version="1.1" width="16" xmlns="http://www.w3.org/2000/svg" xmlns:ev="http://www.w3.org/2001/xml-events" xmlns:xlink="http://www.w3.org/1999/xlink"><defs /><path d="M 3.5,5.0 C 3.2953,4.9998 3.1111,5.1244 3.0352,5.3144 L 1.0352,10.3144 C 0.9039,10.6431 1.1461,11.0003 1.5,11.0 L 14.5,11.0 C 14.8539,11.0003 15.0961,10.6431 14.9648,10.3144 L 12.9648,5.3144 C 12.8889,5.1244 12.7047,4.9998 12.5,5.0 L 3.5,5.0 M 5.0,6.0 L 7.0,6.0 L 7.0,8.0 L 9.0,8.0 L 9.0,6.0 L 11.0,6.0 L 11.0,8.0 L 13.0,8.0 L 13.0,10.0 L 11.0,10.0 L 11.0,8.0 L 9.0,8.0 L 9.0,10.0 L 7.0,10.0 L 7.0,8.0 L 5.0,8.0 L 5.0,10.0 L 3.0,10.0 L 3.0,8.0 L 5.0,8.0 L 5.0,6.0" fill="#000" /></svg>