<svg xmlns="http://www.w3.org/2000/svg" width="16" height="16"><path d="M 6.4922,1.9922 A 0.5,0.5 0.0 0,0 6.4434,1.9962 A 0.5,0.5 0.0 0,0 6.3829,2.0062 A 0.5,0.5 0.0 0,0 6.0001,2.5687 L 6.0001,7.43 A 0.5,0.5 0.0 0,0 6.0001,7.5882 L 6.0001,8.3246 L 2.1095,13.1878 A 0.5002,0.5002 0.0 1,0 2.8907,13.8128 L 6.0,9.9238 L 6.0,13.4297 A 0.5,0.5 0.0 0,0 6.4551,14.0059 A 0.5,0.5 0.0 0,0 6.5078,14.0079 A 0.5,0.5 0.0 0,0 6.5566,14.0039 A 0.5,0.5 0.0 0,0 6.8964,13.8124 A 0.5,0.5 0.0 0,0 6.9004,13.8064 L 8.0,12.707 L 8.0,13.5 A 0.5,0.5 0.0 1,0 9.0,13.5 L 9.0,11.5566 A 0.5,0.5 0.0 0,0 9.0,11.4336 L 9.0,10.5938 A 0.5,0.5 0.0 0,0 9.0,10.4258 L 9.0,9.9258 L 12.1094,13.8125 A 0.5002,0.5002 0.0 1,0 12.8906,13.1875 L 9.0,8.3242 L 9.0,5.5566 A 0.5,0.5 0.0 0,0 9.0,5.4336 L 9.0,4.5938 A 0.5,0.5 0.0 0,0 9.0,4.4258 L 9.0,2.5 A 0.5,0.5 0.0 0,0 8.4922,1.9922 A 0.5,0.5 0.0 0,0 8.0,2.5 L 8.0,3.293 L 6.8984,2.1914 A 0.5,0.5 0.0 0,0 6.4922,1.9922 M 7.0,3.707 L 8.0,4.707 L 8.0,5.293 L 7.0,6.293 L 7.0,3.707 M 8.0,6.707 L 8.0,8.4297 A 0.5,0.5 0.0 0,0 8.0,8.5625 L 8.0,9.293 L 7.0,8.293 L 7.0,7.707 L 8.0,6.707 M 7.0,9.707 L 8.0,10.707 L 8.0,11.293 L 7.0,12.293 L 7.0,9.707" fill="#000" /></svg>