<?xml version="1.0" encoding="utf-8" ?>
<svg baseProfile="full" height="16" version="1.1" width="16" xmlns="http://www.w3.org/2000/svg" xmlns:ev="http://www.w3.org/2001/xml-events" xmlns:xlink="http://www.w3.org/1999/xlink"><defs /><path d="M 202,180.86523 A 1.1342664,1.1342664 0 0 0 200.86523,182 a 1.1342664,1.1342664 0 0 0 0.0156,0.16992 l -2.07031,1.03516 A 1.1342664,1.1342664 0 0 0 198,182.86523 1.1342664,1.1342664 0 0 0 196.86523,184 1.1342664,1.1342664 0 0 0 198,185.13477 a 1.1342664,1.1342664 0 0 0 0.80859,-0.33985 l 2.07227,1.03516 A 1.1342664,1.1342664 0 0 0 200.86523,186 1.1342664,1.1342664 0 0 0 202,187.13477 1.1342664,1.1342664 0 0 0 203.13477,186 1.1342664,1.1342664 0 0 0 202,184.86523 a 1.1342664,1.1342664 0 0 0 -0.80859,0.33985 l -2.07227,-1.03516 a 1.1342664,1.1342664 0 0 0 0.0156,-0.16992 1.1342664,1.1342664 0 0 0 -0.0156,-0.16992 l 2.07031,-1.03516 A 1.1342664,1.1342664 0 0 0 202,183.13477 1.1342664,1.1342664 0 0 0 203.13477,182 1.1342664,1.1342664 0 0 0 202,180.86523 Z" fill="#000" transform="translate(8.0,8.0) translate(-200.0,-184.0)" /></svg>