<?xml version="1.0" encoding="utf-8" ?>
<svg baseProfile="full" height="16" version="1.1" width="16" xmlns="http://www.w3.org/2000/svg" xmlns:ev="http://www.w3.org/2001/xml-events" xmlns:xlink="http://www.w3.org/1999/xlink"><defs /><path d="M 3.5156,2.0 C 3.246,1.991 3.0,2.2059 3.0,2.5 L 3.0,6.5 L 3.0,12.5 C 3.0,12.777 3.223,13.0 3.5,13.0 L 9.0,13.0 L 9.0,10.5 C 9.0,10.223 9.223,10.0 9.5,10.0 L 10.5,10.0 C 10.777,10.0 11.0,10.223 11.0,10.5 L 11.0,13.0 L 12.5,13.0 C 12.777,13.0 13.0,12.777 13.0,12.5 L 13.0,6.5234 C 13.0006,6.5131 13.0,6.5025 13.0,6.4922 C 12.9999,6.4609 12.996,6.4293 12.99,6.3985 C 12.9669,6.2766 12.8995,6.1641 12.7791,6.086 C 12.7549,6.0697 12.7299,6.055 12.7029,6.043 L 12.6912,6.037 L 3.7029,2.0429 C 3.6409,2.0153 3.5776,2.0019 3.5154,1.9999 L 3.5156,2.0 M 5.5,8.0 L 6.5,8.0 C 6.777,8.0 7.0,8.223 7.0,8.5 L 7.0,10.5 C 7.0,10.777 6.777,11.0 6.5,11.0 L 5.5,11.0 C 5.223,11.0 5.0,10.777 5.0,10.5 L 5.0,8.5 C 5.0,8.223 5.223,8.0 5.5,8.0" fill="#000" /></svg>