<svg xmlns="http://www.w3.org/2000/svg" width="16" height="16"><path d="M 6.5,1.0 A 0.5,0.5 0.0 0,0 6.1738,1.1211 L 2.6738,4.1211 A 0.5,0.5 0.0 0,0 3.0,5.0 L 5.1484,5.0 L 2.6738,7.1211 A 0.5,0.5 0.0 0,0 3.0,8.0 L 5.1484,8.0 L 2.6738,10.1211 A 0.5,0.5 0.0 0,0 3.0,11.0 L 5.6914,11.0 L 4.0527,14.2773 A 0.5,0.5 0.0 1,0 4.9473,14.7227 L 5.3086,14.0 L 9.6914,14.0 L 10.0527,14.7227 A 0.5,0.5 0.0 1,0 10.9473,14.2773 L 9.3086,11.0 L 12.0,11.0 A 0.5,0.5 0.0 0,0 12.3262,10.1211 L 9.8516,8.0 L 12.0,8.0 A 0.5,0.5 0.0 0,0 12.3262,7.1211 L 9.8516,5.0 L 12.0,5.0 A 0.5,0.5 0.0 0,0 12.3262,4.1211 L 8.8262,1.1211 A 0.5,0.5 0.0 0,0 8.5,1.0 L 6.5,1.0 M 7.0,2.0 L 8.0,2.0 L 8.0,4.0 L 7.0,4.0 L 7.0,2.0 M 6.0,2.5879 L 6.0,4.0 L 4.3516,4.0 L 6.0,2.5879 M 9.0,2.5879 L 10.6484,4.0 L 9.0,4.0 L 9.0,2.5879 M 7.0,5.0 L 8.0,5.0 L 8.0,7.0 L 7.0,7.0 L 7.0,5.0 M 6.0,5.5879 L 6.0,7.0 L 4.3516,7.0 L 6.0,5.5879 M 9.0,5.5879 L 10.6484,7.0 L 9.0,7.0 L 9.0,5.5879 M 7.0,8.0 L 8.0,8.0 L 8.0,10.0 L 7.0,10.0 L 7.0,8.0 M 6.0,8.5879 L 6.0,10.0 L 4.3516,10.0 L 6.0,8.5879 M 9.0,8.5879 L 10.6484,10.0 L 9.0,10.0 L 9.0,8.5879 M 6.8086,11.0 L 8.1914,11.0 L 9.1914,13.0 L 5.8086,13.0 L 6.8086,11.0" fill="#000" /></svg>