<?xml version="1.0" encoding="utf-8" ?>
<svg baseProfile="full" height="16" version="1.1" width="16" xmlns="http://www.w3.org/2000/svg" xmlns:ev="http://www.w3.org/2001/xml-events" xmlns:xlink="http://www.w3.org/1999/xlink"><defs /><path d="m 130,146 c 0,2.14199 1.14498,4.12432 3,5.19531 0.20035,0.11567 0.40779,0.214 0.61719,0.30469 -0.20913,0.0906 -0.41709,0.18721 -0.61719,0.30273 -1.85502,1.071 -3,3.05528 -3,5.19727 h 2 c 0,-1.43067 0.76101,-2.74951 2,-3.46484 0.31805,-0.18363 0.65423,-0.31885 1,-0.40821 V 156 v 1 h 2 v -1 -2.87305 c 0.34577,0.0894 0.68195,0.22458 1,0.40821 1.23899,0.71533 2,2.03417 2,3.46484 h 2 c 0,-2.14199 -1.14498,-4.12627 -3,-5.19727 -0.2001,-0.11552 -0.40806,-0.21213 -0.61719,-0.30273 0.2094,-0.0907 0.41684,-0.18902 0.61719,-0.30469 1.85502,-1.07099 3,-3.05332 3,-5.19531 h -2 c 0,1.43067 -0.76101,2.74951 -2,3.46484 -0.31805,0.18363 -0.65423,0.31885 -1,0.40821 V 147 146 h -2 v 1 2.87305 c -0.34577,-0.0894 -0.68195,-0.22458 -1,-0.40821 -1.23899,-0.71533 -2,-2.03417 -2,-3.46484 z" fill="#000" transform="translate(8.0,8.0) translate(-136.0,-152.0)" /></svg>