<svg xmlns="http://www.w3.org/2000/svg" width="16" height="16"><path d="M 5.0,2.0 C 3.3491,2.0 2.0,3.3491 2.0,5.0 L 2.0,5.5 C 1.99,6.1762 3.0096,6.1762 3.0,5.5 L 3.0,5.0 C 3.0,3.8895 3.8895,3.0 5.0,3.0 C 6.1105,3.0 7.0,3.8895 7.0,5.0 L 7.0,5.2812 C 6.7041,5.1077 6.3655,5.0 6.0,5.0 C 4.9013,5.0 4.0,5.9013 4.0,7.0 L 4.0,7.5 C 3.99,8.1762 5.0096,8.1762 5.0,7.5 L 5.0,7.0 C 5.0,6.4418 5.4418,6.0 6.0,6.0 C 6.5582,6.0 7.0,6.4418 7.0,7.0 L 7.0,9.0 C 6.99,9.6762 8.0096,9.6762 8.0,9.0 L 8.0,7.0352 C 8.0004,7.0235 8.0004,7.0118 8.0,7.0 C 8.0,6.4418 8.4418,6.0 9.0,6.0 C 9.5582,6.0 10.0,6.4418 10.0,7.0 L 10.0,7.5 C 9.99,8.1761 11.0096,8.1761 11.0,7.5 L 11.0,7.0 C 11.0,5.9013 10.0987,5.0 9.0,5.0 C 8.6345,5.0 8.2959,5.1077 8.0,5.2812 L 8.0,5.0352 C 8.0004,5.0235 8.0004,5.0118 8.0,5.0 C 8.0,3.8895 8.8895,3.0 10.0,3.0 C 11.1105,3.0 12.0,3.8895 12.0,5.0 L 12.0,5.5 C 11.99,6.1761 13.0096,6.1761 13.0,5.5 L 13.0,5.0 C 13.0,3.3491 11.6509,2.0 10.0,2.0 C 8.9579,2.0 8.0382,2.5399 7.5,3.3516 C 6.9618,2.5399 6.0421,2.0 5.0,2.0 M 2.5,10.0 C 1.8238,9.99 1.8238,11.0096 2.5,11.0 L 2.793,11.0 L 4.793,13.0 L 4.5,13.0 C 3.8238,12.99 3.8238,14.0096 4.5,14.0 L 10.5,14.0 C 11.1762,14.01 11.1762,12.9904 10.5,13.0 L 10.207,13.0 L 12.207,11.0 L 12.5,11.0 C 13.1762,11.01 13.1762,9.9904 12.5,10.0 L 2.5,10.0" fill="#000" /></svg>