<svg xmlns="http://www.w3.org/2000/svg" width="16" height="16"><path d="M 2.5,2.9941 A 0.5,0.5 0.0 0,0 2.4727,2.9961 A 0.5,0.5 0.0 0,0 2.4707,2.9961 A 0.5,0.5 0.0 0,0 2.4277,3.0001 A 0.5,0.5 0.0 0,0 2.3965,3.0061 A 0.5,0.5 0.0 0,0 2.3711,3.0101 A 0.5,0.5 0.0 0,0 2.3516,3.0161 A 0.5,0.5 0.0 0,0 2.3086,3.0298 A 0.5,0.5 0.0 0,0 2.2986,3.0338 A 0.5,0.5 0.0 0,0 2.2771,3.0438 A 0.5,0.5 0.0 0,0 2.2595,3.0538 A 0.5,0.5 0.0 0,0 2.2341,3.0675 A 0.5,0.5 0.0 0,0 2.2165,3.0792 A 0.5,0.5 0.0 0,0 2.1755,3.1105 A 0.5,0.5 0.0 0,0 2.1403,3.1437 A 0.5,0.5 0.0 0,0 2.1051,3.1808 A 0.5,0.5 0.0 0,0 2.1422,3.8566 L 6.0,8.6758 L 6.0,9.4043 L 4.0625,14.2461 A 0.5,0.5 0.0 0,0 4.7598,14.9297 A 0.5,0.5 0.0 0,0 4.7618,14.9277 A 0.5005,0.5005 0.0 0,0 4.7755,14.9177 A 0.5,0.5 0.0 0,0 4.8067,14.8943 L 4.8419,14.867 L 7.5001,12.7986 L 10.1817,14.8846 A 0.5005,0.5005 0.0 0,0 10.2266,14.9197 A 0.5,0.5 0.0 0,0 10.2326,14.9237 A 0.5,0.5 0.0 0,0 10.9357,14.242 L 9.0,9.4043 L 9.0,8.6758 L 12.8594,3.8516 A 0.5,0.5 0.0 0,0 12.9824,3.3418 A 0.5,0.5 0.0 0,0 12.916,3.207 A 0.5,0.5 0.0 0,0 12.906,3.1933 A 0.5,0.5 0.0 0,0 12.8845,3.1679 A 0.5,0.5 0.0 0,0 12.8493,3.1327 A 0.5,0.5 0.0 0,0 12.8376,3.121 A 0.5,0.5 0.0 0,0 12.8122,3.0995 A 0.5,0.5 0.0 0,0 12.7985,3.0895 A 0.5,0.5 0.0 0,0 12.7614,3.0641 A 0.5,0.5 0.0 0,0 12.7574,3.0621 A 0.5,0.5 0.0 0,0 12.7281,3.0465 A 0.5,0.5 0.0 0,0 12.7125,3.0385 A 0.5,0.5 0.0 0,0 12.7045,3.0345 A 0.5,0.5 0.0 0,0 12.6654,3.0208 A 0.5,0.5 0.0 0,0 12.6342,3.0108 A 0.5,0.5 0.0 0,0 12.6166,3.0068 A 0.5,0.5 0.0 0,0 12.4838,2.9931 A 0.5,0.5 0.0 0,0 12.2182,3.0829 A 0.5,0.5 0.0 0,0 12.2045,3.0929 L 7.4994,5.9152 L 2.7904,3.089 L 2.7824,3.083 A 0.5,0.5 0.0 0,0 2.757,3.0693 A 0.5,0.5 0.0 0,0 2.6203,3.0107 A 0.5,0.5 0.0 0,0 2.5715,3.0007 A 0.5,0.5 0.0 0,0 2.5207,2.9947 A 0.5,0.5 0.0 0,0 2.4992,2.9927 L 2.5,2.9941 M 4.6309,5.3633 L 6.8457,6.6914 L 6.4023,7.5781 L 4.6309,5.3633 M 10.3691,5.3633 L 8.5977,7.5781 L 8.1543,6.6914 L 10.3691,5.3633 M 7.5,7.6191 L 8.0,8.6172 L 8.0,9.0 L 7.0,9.0 L 7.0,8.6172 L 7.5,7.6191 M 6.8398,10.0 L 8.1602,10.0 L 8.4727,10.7773 L 7.5,11.5332 L 6.5273,10.7773 L 6.8398,10.0 M 6.1426,11.7441 L 6.6856,12.166 L 5.6504,12.9707 L 6.1426,11.7441 M 8.8574,11.7441 L 9.3496,12.9707 L 8.3145,12.166 L 8.8574,11.7441" fill="#000" /></svg>