<?xml version="1.0" encoding="utf-8" ?>
<svg baseProfile="full" height="16" version="1.1" width="16" xmlns="http://www.w3.org/2000/svg" xmlns:ev="http://www.w3.org/2001/xml-events" xmlns:xlink="http://www.w3.org/1999/xlink"><defs /><path d="M 6.4648,6.0 A 1.5,1.5 0.0 0,0 5.75,6.2012 A 1.5,1.5 0.0 0,0 5.0,7.5 L 5.0,8.0 L 6.0,8.0 L 6.0,7.5 A 0.5,0.5 0.0 0,1 6.25,7.0664 A 0.5,0.5 0.0 0,1 6.75,7.0664 A 0.5,0.5 0.0 0,1 7.0,7.5 L 7.0,8.5 L 8.0,8.5 L 8.0,7.5 A 0.5,0.5 0.0 0,1 8.25,7.0664 A 0.5,0.5 0.0 0,1 8.75,7.0664 A 0.5,0.5 0.0 0,1 9.0,7.5 L 9.0,8.0 L 10.0,8.0 L 10.0,7.5 A 1.5,1.5 0.0 0,0 9.25,6.2012 A 1.5,1.5 0.0 0,0 8.5352,6.0 A 1.5,1.5 0.0 0,0 7.75,6.2012 A 1.5,1.5 0.0 0,0 7.5,6.3848 A 1.5,1.5 0.0 0,0 7.25,6.2012 A 1.5,1.5 0.0 0,0 6.4648,6.0 M 3.5,9.0 C 3.223,9.0 3.0,9.223 3.0,9.5 C 3.0,9.777 3.223,10.0 3.5,10.0 L 4.0,10.0 L 6.0,12.0 L 6.0,13.0 L 5.5,13.0 C 5.223,13.0 5.0,13.223 5.0,13.5 C 5.0,13.777 5.223,14.0 5.5,14.0 L 9.5,14.0 C 9.777,14.0 10.0,13.777 10.0,13.5 C 10.0,13.223 9.777,13.0 9.5,13.0 L 9.0,13.0 L 9.0,12.0 L 11.0,10.0 L 11.5,10.0 C 11.777,10.0 12.0,9.777 12.0,9.5 C 12.0,9.223 11.777,9.0 11.5,9.0 L 3.5,9.0" fill="#000" /></svg>