<?xml version="1.0" encoding="utf-8" ?>
<svg baseProfile="full" height="16" version="1.1" width="16" xmlns="http://www.w3.org/2000/svg" xmlns:ev="http://www.w3.org/2001/xml-events" xmlns:xlink="http://www.w3.org/1999/xlink"><defs /><path d="M 8.0,2.0234 L 8.0,2.5 C 8.0,2.777 7.777,3.0 7.5,3.0 C 7.223,3.0 7.0,2.777 7.0,2.5 L 7.0,2.0254 A 5.5,5.5 0.0 0,0 2.0254,7.0 L 2.5,7.0 C 2.777,7.0 3.0,7.223 3.0,7.5 C 3.0,7.777 2.777,8.0 2.5,8.0 L 2.0254,8.0 A 5.5,5.5 0.0 0,0 7.0,12.9746 L 7.0,12.5 C 7.0,12.2317 7.2097,12.0133 7.4746,12.0 C 7.4836,11.9996 7.4913,12.0 7.5,12.0 C 7.777,12.0 8.0,12.223 8.0,12.5 L 8.0,12.9746 A 5.5,5.5 0.0 0,0 12.9746,8.0 L 12.5,8.0 C 12.223,8.0 12.0,7.777 12.0,7.5 C 12.0,7.2317 12.2097,7.0133 12.4746,7.0 C 12.4836,6.9996 12.4913,7.0 12.5,7.0 L 12.9766,7.0 A 5.5,5.5 0.0 0,0 8.0,2.0234 M 5.459,6.7871 A 0.7273,0.7273 0.0 0,1 6.0,7.0 A 0.7273,0.7273 0.0 0,1 6.0,8.0293 A 0.7273,0.7273 0.0 0,1 4.9707,8.0293 A 0.7273,0.7273 0.0 0,1 4.9707,7.0 A 0.7273,0.7273 0.0 0,1 5.459,6.7871 M 9.459,6.7871 A 0.7273,0.7273 0.0 0,1 10.0,7.0 A 0.7273,0.7273 0.0 0,1 10.0,8.0293 A 0.7273,0.7273 0.0 0,1 8.9707,8.0293 A 0.7273,0.7273 0.0 0,1 8.9707,7.0 A 0.7273,0.7273 0.0 0,1 9.459,6.7871" fill="#000" /></svg>