<?xml version="1.0" encoding="utf-8" ?>
<svg baseProfile="full" height="16" version="1.1" width="16" xmlns="http://www.w3.org/2000/svg" xmlns:ev="http://www.w3.org/2001/xml-events" xmlns:xlink="http://www.w3.org/1999/xlink"><defs /><path d="M 6.5,3.0 C 5.6716,3.0 5.0,3.6716 5.0,4.5 C 5.0009,5.1349 5.4014,5.7005 6.0,5.9121 L 6.0,10.5 C 5.9997,11.3935 6.4762,12.2193 7.25,12.666 C 8.0235,13.1126 8.9765,13.1126 9.75,12.666 C 10.5238,12.2193 11.0003,11.3935 11.0,10.5 L 11.0,7.5 C 10.5,9.0 10.0,10.0 8.5,10.5 L 10.0,10.5 C 9.9999,11.0358 9.714,11.5309 9.25,11.7988 C 8.7859,12.0668 8.2141,12.0668 7.75,11.7988 C 7.286,11.5309 7.0001,11.0358 7.0,10.5 L 7.0,5.9121 C 7.5986,5.7005 7.9991,5.1349 8.0,4.5 C 8.0,3.6716 7.3284,3.0 6.5,3.0 M 6.5,4.0 C 6.7761,4.0 7.0,4.2239 7.0,4.5 C 7.0,4.7761 6.7761,5.0 6.5,5.0 C 6.2239,5.0 6.0,4.7761 6.0,4.5 C 6.0,4.2239 6.2239,4.0 6.5,4.0" fill="#000" /></svg>