<svg xmlns="http://www.w3.org/2000/svg" width="16" height="16"><path d="M 1.5078,7.9922 A 0.5,0.5 0.0 0,0 1.0059,8.582 L 2.0059,14.582 A 0.5009,0.5009 0.0 1,0 2.9941,14.418 L 2.9238,14.0 L 4.5762,14.0 L 4.5059,14.418 A 0.5009,0.5009 0.0 1,0 5.4942,14.582 L 5.9942,11.582 A 0.5,0.5 0.0 0,0 5.5,11.0 L 2.5,11.0 A 0.5,0.5 0.0 0,0 2.4258,11.004 L 1.9942,8.4181 A 0.5,0.5 0.0 0,0 1.5078,7.9923 L 1.5078,7.9922 M 13.4746,7.9942 A 0.5,0.5 0.0 0,0 13.0059,8.418 L 12.5742,11.0059 A 0.5,0.5 0.0 0,0 12.498,11.0 L 9.498,11.0 A 0.5,0.5 0.0 0,0 9.0059,11.582 L 9.5059,14.582 A 0.5,0.5 0.0 1,0 10.4922,14.418 L 10.4219,14.0 L 12.0762,14.0 L 12.0059,14.418 A 0.5,0.5 0.0 1,0 12.9922,14.582 L 13.9922,8.582 A 0.5,0.5 0.0 0,0 13.4746,7.9941 L 13.4746,7.9942 M 4.5,8.0 C 4.223,8.0 4.0,8.223 4.0,8.5 C 4.0,8.777 4.223,9.0 4.5,9.0 L 7.0,9.0 L 7.0,14.5 C 7.0,14.777 7.223,15.0 7.5,15.0 C 7.777,15.0 8.0,14.777 8.0,14.5 L 8.0,9.0 L 10.5,9.0 C 10.777,9.0 11.0,8.777 11.0,8.5 C 11.0,8.223 10.777,8.0 10.5,8.0 L 4.5,8.0" fill="#000" /><path d="M 1.5019,1.0 C 1.2251,0.999 1.0,1.2231 1.0,1.5 L 1.0,4.5 C 1.0,4.7761 1.2239,5.0 1.5,5.0 L 13.0,5.0 L 13.0,5.5 C 13.0,5.777 13.223,6.0 13.5,6.0 C 13.777,6.0 14.0,5.777 14.0,5.5 L 14.0,4.5 C 14.0,4.4779 13.991,4.4588 13.9883,4.4375 C 13.9879,4.4345 13.9873,4.4315 13.9863,4.4275 C 13.9833,4.4078 13.9793,4.3882 13.9746,4.3689 C 13.9637,4.3292 13.9495,4.2926 13.9297,4.2576 C 13.9181,4.2372 13.905,4.2176 13.8906,4.199 L 13.8826,4.1873 C 13.866,4.1669 13.8495,4.1481 13.8299,4.1307 L 13.8239,4.1247 C 13.7929,4.0985 13.7588,4.0762 13.7223,4.0583 C 13.7064,4.0503 13.6922,4.0412 13.6754,4.0349 C 13.6365,4.0195 13.5958,4.009 13.5544,4.0037 C 9.0948,3.5082 5.1441,2.5181 1.6969,1.0408 C 1.6352,1.0141 1.5688,1.0002 1.5016,0.9998 L 1.5019,1.0" fill="#000" /></svg>