<svg xmlns="http://www.w3.org/2000/svg" width="16" height="16"><path d="M 7.0,8.0 C 6.7729,7.9998 6.5525,8.077 6.375,8.2188 L 4.1484,10.0 L 3.0,10.0 C 2.4477,10.0001 2.0001,10.4477 2.0,11.0 L 2.0,12.0 C 2.0001,12.5523 2.4477,12.9999 3.0,13.0 C 3.0,11.892 3.892,11.0 5.0,11.0 C 6.108,11.0 7.0,11.892 7.0,13.0 L 9.0,13.0 C 9.0,11.892 9.892,11.0 11.0,11.0 C 12.108,11.0 13.0,11.892 13.0,13.0 C 13.5523,12.9999 13.9999,12.5523 14.0,12.0 L 14.0,11.0 C 13.9999,10.4477 13.5523,10.0001 13.0,10.0 L 12.4141,10.0 L 10.707,8.293 C 10.5195,8.1054 10.2652,8.0 10.0,8.0 L 7.0,8.0 M 5.0,12.0 C 4.446,12.0 4.0,12.446 4.0,13.0 C 4.0,13.554 4.446,14.0 5.0,14.0 C 5.554,14.0 6.0,13.554 6.0,13.0 C 6.0,12.446 5.554,12.0 5.0,12.0 M 11.0,12.0 C 10.446,12.0 10.0,12.446 10.0,13.0 C 10.0,13.554 10.446,14.0 11.0,14.0 C 11.554,14.0 12.0,13.554 12.0,13.0 C 12.0,12.446 11.554,12.0 11.0,12.0" fill="#000" /><path d="M 7.0,1.0 L 7.0,1.5 C 7.0,1.777 6.777,2.0 6.5,2.0 L 5.0,2.0 C 4.446,2.0 4.0,2.446 4.0,3.0 L 11.0,3.0 C 11.0,2.446 10.554,2.0 10.0,2.0 L 8.5,2.0 C 8.223,2.0 8.0,1.777 8.0,1.5 L 8.0,1.0 L 7.0,1.0 M 6.5,4.0 C 6.5,4.0 6.0334,4.9332 6.002,5.4473 L 6.002,5.4493 L 6.002,5.4513 C 6.0,5.4675 6.0,5.4835 6.0,5.5001 C 6.0,5.7771 6.223,6.0001 6.5,6.0001 C 6.777,6.0001 7.0,5.7771 7.0,5.5001 C 7.0,5.4845 6.999,5.4659 6.998,5.4493 L 6.998,5.4473 C 6.9666,4.9332 6.5,4.0 6.5,4.0 M 10.5,4.0 C 10.5,4.0 10.0334,4.9332 10.002,5.4473 L 10.002,5.4493 L 10.002,5.4513 C 10.0,5.4675 10.0,5.4835 10.0,5.5001 C 10.0,5.7771 10.223,6.0001 10.5,6.0001 C 10.777,6.0001 11.0,5.7771 11.0,5.5001 C 11.0,5.4845 10.999,5.4659 10.998,5.4493 L 10.998,5.4473 C 10.9666,4.9332 10.5,4.0 10.5,4.0 M 4.5,5.0 C 4.5,5.0 4.0334,5.9332 4.002,6.4473 L 4.002,6.4493 L 4.002,6.4513 C 4.0,6.4675 4.0,6.4835 4.0,6.5001 C 4.0,6.7771 4.223,7.0001 4.5,7.0001 C 4.7769,7.0001 5.0,6.7771 5.0,6.5001 C 5.0,6.4845 4.999,6.4659 4.998,6.4493 L 4.998,6.4473 C 4.9666,5.9332 4.5,5.0 4.5,5.0 M 8.5,5.0 C 8.5,5.0 8.0334,5.9332 8.002,6.4473 L 8.002,6.4493 L 8.002,6.4513 C 8.0,6.4675 8.0,6.4835 8.0,6.5001 C 8.0,6.7771 8.223,7.0001 8.5,7.0001 C 8.777,7.0001 9.0,6.7771 9.0,6.5001 C 9.0,6.4845 8.999,6.4678 8.998,6.4513 L 8.998,6.4493 L 8.998,6.4473 C 8.9666,5.9332 8.5,5.0 8.5,5.0" fill="#000" /></svg>