<?xml version="1.0" encoding="utf-8" ?>
<svg baseProfile="full" height="16" version="1.1" width="16" xmlns="http://www.w3.org/2000/svg" xmlns:ev="http://www.w3.org/2001/xml-events" xmlns:xlink="http://www.w3.org/1999/xlink"><defs /><path d="m 134,247 c -0.86111,0 -1.6275,0.29547 -2.16602,0.83398 C 131.29547,248.3725 131,249.13889 131,250 v 3.5 0.5 h 1 v -0.5 -3.5 c 0,-0.63889 0.20453,-1.1225 0.54102,-1.45898 C 132.8775,248.20453 133.36111,248 134,248 h 4 c 0.63889,0 1.1225,0.20453 1.45898,0.54102 C 139.79547,248.8775 140,249.36111 140,250 v 3.5 0.5 h 1 v -0.5 -3.5 c 0,-0.86111 -0.29547,-1.6275 -0.83398,-2.16602 C 139.6275,247.29547 138.86111,247 138,247 Z" fill="#000" transform="translate(8.0,8.0) translate(-136.0,-248.0)" /></svg>