<?xml version="1.0" encoding="utf-8" ?>
<svg baseProfile="full" height="16" version="1.1" width="16" xmlns="http://www.w3.org/2000/svg" xmlns:ev="http://www.w3.org/2001/xml-events" xmlns:xlink="http://www.w3.org/1999/xlink"><defs /><path d="M 4.0,3.0 A 1.0,1.0 0.0 0,0 3.0,4.0 A 1.0,1.0 0.0 0,0 2.0,5.0 A 1.0,1.0 0.0 0,0 3.0,6.0 A 1.0,1.0 0.0 0,0 4.0,7.0 A 1.0,1.0 0.0 0,0 5.0,6.0 A 1.0,1.0 0.0 0,0 6.0,5.0 A 1.0,1.0 0.0 0,0 5.0,4.0 A 1.0,1.0 0.0 0,0 4.0,3.0 M 7.5,4.0 C 7.223,4.0 7.0,4.223 7.0,4.5 L 7.0,6.293 L 6.8535,6.1465 A 0.5,0.5 0.0 0,0 6.4941,5.9941 A 0.5,0.5 0.0 0,0 6.1465,6.8535 L 7.0,7.707 L 7.0,10.4297 A 0.5,0.5 0.0 0,0 7.0,10.5879 L 7.0,12.293 L 6.8535,12.1465 A 0.5,0.5 0.0 0,0 6.4941,11.9941 A 0.5,0.5 0.0 0,0 6.1465,12.8535 L 7.1465,13.8535 A 0.5,0.5 0.0 0,0 8.0,13.4258 L 8.0,10.707 L 8.8535,9.8535 A 0.5,0.5 0.0 0,0 8.4902,8.9961 A 0.5,0.5 0.0 0,0 8.1465,9.1465 L 8.0,9.293 L 8.0,7.5938 A 0.5,0.5 0.0 0,0 8.0,7.4258 L 8.0,4.5 C 8.0,4.223 7.777,4.0 7.5,4.0 M 11.0,6.0 A 1.0,1.0 0.0 0,0 10.0,7.0 A 1.0,1.0 0.0 0,0 9.0,8.0 A 1.0,1.0 0.0 0,0 10.0,9.0 A 1.0,1.0 0.0 0,0 11.0,10.0 A 1.0,1.0 0.0 0,0 12.0,9.0 A 1.0,1.0 0.0 0,0 13.0,8.0 A 1.0,1.0 0.0 0,0 12.0,7.0 A 1.0,1.0 0.0 0,0 11.0,6.0 M 4.0,9.0 A 1.0,1.0 0.0 0,0 3.0,10.0 A 1.0,1.0 0.0 0,0 2.0,11.0 A 1.0,1.0 0.0 0,0 3.0,12.0 A 1.0,1.0 0.0 0,0 4.0,13.0 A 1.0,1.0 0.0 0,0 5.0,12.0 A 1.0,1.0 0.0 0,0 6.0,11.0 A 1.0,1.0 0.0 0,0 5.0,10.0 A 1.0,1.0 0.0 0,0 4.0,9.0" fill="#000" /></svg>