<svg xmlns="http://www.w3.org/2000/svg" width="16" height="16"><path d="M 8.0,1.0 C 6.338,1.0 5.0,2.338 5.0,4.0 L 4.5,4.0 C 4.223,4.0 4.0,4.223 4.0,4.5 C 4.0,4.777 4.223,5.0 4.5,5.0 L 5.0,5.0 L 5.0,6.0 L 3.5,6.0 C 3.223,6.0 3.0,6.223 3.0,6.5 L 3.0,7.0 L 2.5,7.0 C 2.223,7.0 2.0,7.223 2.0,7.5 L 2.0,8.5 C 2.0,8.777 2.223,9.0 2.5,9.0 L 3.0,9.0 L 3.0,9.5 C 3.0,9.777 3.223,10.0 3.5,10.0 L 5.0,10.0 L 5.0,14.0 L 3.5,14.0 C 3.223,14.0 3.0,14.223 3.0,14.5 C 3.0,14.777 3.223,15.0 3.5,15.0 L 12.5,15.0 C 12.777,15.0 13.0,14.777 13.0,14.5 C 13.0,14.223 12.777,14.0 12.5,14.0 L 11.0,14.0 L 11.0,10.0 L 12.5,10.0 C 12.777,10.0 13.0,9.777 13.0,9.5 L 13.0,9.0 L 13.5,9.0 C 13.777,9.0 14.0,8.777 14.0,8.5 L 14.0,7.5 C 14.0,7.223 13.777,7.0 13.5,7.0 L 13.0,7.0 L 13.0,6.5 C 13.0,6.223 12.777,6.0 12.5,6.0 L 11.0,6.0 L 11.0,5.0 L 11.5,5.0 C 11.777,5.0 12.0,4.777 12.0,4.5 C 12.0,4.223 11.777,4.0 11.5,4.0 L 11.0,4.0 C 11.0,2.338 9.662,1.0 8.0,1.0 M 8.0,6.0 C 9.1046,6.0 10.0,6.8954 10.0,8.0 C 10.0,9.1046 9.1046,10.0 8.0,10.0 C 6.8954,10.0 6.0,9.1046 6.0,8.0 C 6.0,6.8954 6.8954,6.0 8.0,6.0" fill="#000" /></svg>