<?xml version="1.0" encoding="utf-8" ?>
<svg baseProfile="full" height="16" version="1.1" width="16" xmlns="http://www.w3.org/2000/svg" xmlns:ev="http://www.w3.org/2001/xml-events" xmlns:xlink="http://www.w3.org/1999/xlink"><defs /><path d="M 7.0,8.0 C 6.7729,7.9998 6.5525,8.077 6.375,8.2188 L 4.1484,10.0 L 3.0,10.0 C 2.4477,10.0001 2.0001,10.4477 2.0,11.0 L 2.0,12.0 C 2.0001,12.5523 2.4477,12.9999 3.0,13.0 C 3.0,11.892 3.892,11.0 5.0,11.0 C 6.108,11.0 7.0,11.892 7.0,13.0 L 9.0,13.0 C 9.0,11.892 9.892,11.0 11.0,11.0 C 12.108,11.0 13.0,11.892 13.0,13.0 C 13.5523,12.9999 13.9999,12.5523 14.0,12.0 L 14.0,11.0 C 13.9999,10.4477 13.5523,10.0001 13.0,10.0 L 12.4141,10.0 L 10.707,8.293 C 10.5195,8.1054 10.2652,8.0 10.0,8.0 L 7.0,8.0 M 5.0,12.0 C 4.446,12.0 4.0,12.446 4.0,13.0 C 4.0,13.554 4.446,14.0 5.0,14.0 C 5.554,14.0 6.0,13.554 6.0,13.0 C 6.0,12.446 5.554,12.0 5.0,12.0 M 11.0,12.0 C 10.446,12.0 10.0,12.446 10.0,13.0 C 10.0,13.554 10.446,14.0 11.0,14.0 C 11.554,14.0 12.0,13.554 12.0,13.0 C 12.0,12.446 11.554,12.0 11.0,12.0" fill="#000" /><path d="M 10.0,0.8652 A 1.1343,1.1343 0.0 0,0 8.8652,2.0 A 1.1343,1.1343 0.0 0,0 8.8808,2.1699 L 6.8105,3.2051 A 1.1343,1.1343 0.0 0,0 6.0,2.8652 A 1.1343,1.1343 0.0 0,0 4.8652,4.0 A 1.1343,1.1343 0.0 0,0 6.0,5.1348 A 1.1343,1.1343 0.0 0,0 6.8086,4.7949 L 8.8809,5.8301 A 1.1343,1.1343 0.0 0,0 8.8652,6.0 A 1.1343,1.1343 0.0 0,0 10.0,7.1348 A 1.1343,1.1343 0.0 0,0 11.1348,6.0 A 1.1343,1.1343 0.0 0,0 10.0,4.8652 A 1.1343,1.1343 0.0 0,0 9.1914,5.2051 L 7.1191,4.1699 A 1.1343,1.1343 0.0 0,0 7.1347,4.0 A 1.1343,1.1343 0.0 0,0 7.1191,3.8301 L 9.1894,2.7949 A 1.1343,1.1343 0.0 0,0 10.0,3.1348 A 1.1343,1.1343 0.0 0,0 11.1348,2.0 A 1.1343,1.1343 0.0 0,0 10.0,0.8652" fill="#000" /></svg>