<svg xmlns="http://www.w3.org/2000/svg" width="16" height="16"><path d="M 7.4824,1.0 A 0.5,0.5 0.0 0,0 7.4492,1.002 A 0.5,0.5 0.0 0,0 7.4043,1.01 A 0.5,0.5 0.0 0,0 7.3594,1.0217 A 0.5,0.5 0.0 0,0 7.3534,1.0217 A 0.5,0.5 0.0 0,0 7.3085,1.0393 A 0.5,0.5 0.0 0,0 7.2773,1.053 A 0.5,0.5 0.0 0,0 7.2558,1.063 L 3.3007,3.0415 A 0.5,0.5 0.0 0,0 3.1933,3.106 A 0.5,0.5 0.0 0,0 3.1621,3.1314 A 0.5,0.5 0.0 0,0 3.1541,3.1394 A 0.5,0.5 0.0 0,0 3.0896,3.2156 A 0.5,0.5 0.0 0,0 3.0681,3.2488 A 0.5,0.5 0.0 0,0 3.0525,3.2781 A 0.5,0.5 0.0 0,0 3.0388,3.3035 L 1.0525,7.2781 A 0.5,0.5 0.0 0,0 1.0445,7.2957 A 0.5,0.5 0.0 0,0 1.0365,7.3152 A 0.5,0.5 0.0 0,0 1.0305,7.3328 A 0.5,0.5 0.0 0,0 1.0188,7.364 A 0.5,0.5 0.0 0,0 1.0148,7.3816 A 0.5,0.5 0.0 0,0 1.0088,7.4148 A 0.5,0.5 0.0 0,0 1.0048,7.4304 A 0.5,0.5 0.0 0,0 1.0008,7.4636 A 0.5,0.5 0.0 0,0 1.0008,7.4753 A 0.5,0.5 0.0 0,0 0.9988,7.5046 A 0.5,0.5 0.0 0,0 1.0028,7.5476 A 0.5,0.5 0.0 0,0 1.0068,7.5847 A 0.5,0.5 0.0 0,0 1.0108,7.6023 A 0.5,0.5 0.0 0,0 1.0188,7.6335 A 0.5,0.5 0.0 0,0 1.0268,7.6628 A 0.5,0.5 0.0 0,0 1.0288,7.6668 A 0.5,0.5 0.0 0,0 1.0388,7.6922 A 0.5,0.5 0.0 0,0 1.0525,7.7234 A 0.5,0.5 0.0 0,0 1.0605,7.7371 L 3.041,11.6981 A 0.5,0.5 0.0 0,0 3.047,11.7137 L 3.053,11.7237 A 0.5,0.5 0.0 0,0 3.1057,11.8077 A 0.5,0.5 0.0 0,0 3.1389,11.8468 A 0.5,0.5 0.0 0,0 3.2151,11.9113 A 0.5,0.5 0.0 0,0 3.2561,11.9367 A 0.5,0.5 0.0 0,0 3.2776,11.9484 A 0.5,0.5 0.0 0,0 3.3128,11.966 L 7.2776,13.9484 A 0.5,0.5 0.0 0,0 7.2952,13.9564 A 0.5,0.5 0.0 0,0 7.3147,13.9644 A 0.5,0.5 0.0 0,0 7.3323,13.9704 A 0.5,0.5 0.0 0,0 7.3635,13.9821 A 0.5,0.5 0.0 0,0 7.3811,13.9861 A 0.5,0.5 0.0 0,0 7.4202,13.9941 A 0.5,0.5 0.0 0,0 7.4302,13.9961 A 0.5,0.5 0.0 0,0 7.4751,14.0001 A 0.5,0.5 0.0 0,0 7.5044,14.0021 A 0.5,0.5 0.0 0,0 7.5474,13.9981 A 0.5,0.5 0.0 0,0 7.5689,13.9961 A 0.5,0.5 0.0 0,0 7.5845,13.9941 A 0.5,0.5 0.0 0,0 7.5962,13.9921 A 0.5,0.5 0.0 0,0 7.6022,13.9901 A 0.5,0.5 0.0 0,0 7.6334,13.9821 A 0.5,0.5 0.0 0,0 7.6451,13.9801 A 0.5,0.5 0.0 0,0 7.6666,13.9721 A 0.5,0.5 0.0 0,0 7.692,13.9621 A 0.5,0.5 0.0 0,0 7.7232,13.9484 L 7.7369,13.9404 L 11.6978,11.9599 L 11.7134,11.9539 A 0.5,0.5 0.0 0,0 11.7234,11.9479 A 0.5,0.5 0.0 0,0 11.8074,11.8952 A 0.5,0.5 0.0 0,0 11.8465,11.862 A 0.5,0.5 0.0 0,0 11.911,11.7858 A 0.5,0.5 0.0 0,0 11.9481,11.7233 A 0.5,0.5 0.0 0,0 11.9657,11.6881 L 13.9482,7.7233 A 0.5,0.5 0.0 0,0 13.9562,7.7057 A 0.5,0.5 0.0 0,0 13.9602,7.6977 A 0.5,0.5 0.0 0,0 13.9682,7.6782 A 0.5,0.5 0.0 0,0 13.9782,7.6509 A 0.5,0.5 0.0 0,0 13.9842,7.6294 A 0.5,0.5 0.0 0,0 13.9902,7.604 A 0.5,0.5 0.0 0,0 13.9942,7.5806 A 0.5,0.5 0.0 0,0 13.9982,7.5532 A 0.5,0.5 0.0 0,0 14.0002,7.5317 A 0.5,0.5 0.0 0,0 14.0022,7.5044 A 0.5,0.5 0.0 0,0 14.0022,7.4964 A 0.5,0.5 0.0 0,0 13.9982,7.4534 A 0.5,0.5 0.0 0,0 13.9962,7.4319 A 0.5,0.5 0.0 0,0 13.9922,7.4046 A 0.5,0.5 0.0 0,0 13.9922,7.4006 A 0.5,0.5 0.0 0,0 13.9822,7.3635 A 0.5,0.5 0.0 0,0 13.9802,7.3555 A 0.5,0.5 0.0 0,0 13.9722,7.334 A 0.5,0.5 0.0 0,0 13.9622,7.3086 A 0.5,0.5 0.0 0,0 13.9485,7.2774 L 13.9405,7.2637 L 11.96,3.3028 L 11.954,3.2872 A 0.5,0.5 0.0 0,0 11.948,3.2772 A 0.5,0.5 0.0 0,0 11.8953,3.1932 A 0.5,0.5 0.0 0,0 11.8621,3.1541 A 0.5,0.5 0.0 0,0 11.7859,3.0896 A 0.5,0.5 0.0 0,0 11.7449,3.0642 A 0.5,0.5 0.0 0,0 11.7234,3.0525 A 0.5,0.5 0.0 0,0 11.6882,3.0349 L 7.7507,1.0661 L 7.7447,1.0621 A 0.5,0.5 0.0 0,0 7.7232,1.0521 A 0.5,0.5 0.0 0,0 7.6783,1.0326 A 0.5,0.5 0.0 0,0 7.6334,1.017 A 0.5,0.5 0.0 0,0 7.6294,1.017 A 0.5,0.5 0.0 0,0 7.604,1.011 A 0.5,0.5 0.0 0,0 7.5552,1.003 A 0.5,0.5 0.0 0,0 7.5044,0.999 A 0.5,0.5 0.0 0,0 7.4829,0.999 L 7.4824,1.0 M 7.5,2.6172 L 8.2793,4.1738 L 7.5,4.4668 L 6.7207,4.1738 L 7.5,2.6172 M 6.3809,2.6192 L 5.7793,3.8204 L 4.75,3.4336 L 6.3809,2.6192 M 8.6192,2.6192 L 10.25,3.4336 L 9.2207,3.8204 L 8.6192,2.6192 M 4.3555,4.3555 L 5.3301,4.7208 L 5.127,5.127 L 4.7207,5.3301 L 4.3555,4.3555 M 10.6445,4.3555 L 10.2793,5.3301 L 9.8731,5.127 L 9.6699,4.7208 L 10.6445,4.3555 M 3.4336,4.75 L 3.8203,5.7793 L 2.6192,6.3809 L 3.4336,4.75 M 11.5664,4.75 L 12.3809,6.3809 L 11.1797,5.7793 L 11.5664,4.75 M 6.2715,5.0743 L 7.3242,5.4688 A 0.5,0.5 0.0 0,0 7.6758,5.4688 L 8.7285,5.0743 L 9.0527,5.7227 A 0.5,0.5 0.0 0,0 9.2774,5.9473 L 9.9258,6.2715 L 9.5313,7.3243 A 0.5,0.5 0.0 0,0 9.5313,7.6758 L 9.9258,8.7286 L 9.2774,9.0528 A 0.5,0.5 0.0 0,0 9.0527,9.2774 L 8.7285,9.9258 L 7.6758,9.5313 A 0.5,0.5 0.0 0,0 7.3242,9.5313 L 6.2715,9.9258 L 5.9473,9.2774 A 0.5,0.5 0.0 0,0 5.7227,9.0528 L 5.0742,8.7286 L 5.4688,7.6758 A 0.5,0.5 0.0 0,0 5.4688,7.3243 L 5.0742,6.2715 L 5.7227,5.9473 A 0.5,0.5 0.0 0,0 5.9473,5.7227 L 6.2715,5.0743 M 7.5,6.0 C 6.6775,6.0 6.0,6.6775 6.0,7.5 C 6.0,8.3225 6.6775,9.0 7.5,9.0 C 8.3225,9.0 9.0,8.3225 9.0,7.5 C 9.0,6.6775 8.3225,6.0 7.5,6.0 M 4.1738,6.7207 L 4.4668,7.5 L 4.1738,8.2793 L 2.6172,7.5 L 4.1738,6.7207 M 10.8262,6.7207 L 12.3828,7.5 L 10.8262,8.2793 L 10.5332,7.5 L 10.8262,6.7207 M 7.5,7.0 C 7.7821,7.0 8.0,7.2179 8.0,7.5 C 8.0,7.7821 7.7821,8.0 7.5,8.0 C 7.2179,8.0 7.0,7.7821 7.0,7.5 C 7.0,7.2179 7.2179,7.0 7.5,7.0 M 2.6191,8.6191 L 3.8203,9.2207 L 3.4336,10.25 L 2.6191,8.6191 M 12.3809,8.6191 L 11.5664,10.25 L 11.1797,9.2207 L 12.3809,8.6191 M 4.7207,9.6699 L 5.127,9.873 L 5.3301,10.2793 L 4.3555,10.6445 L 4.7207,9.6699 M 10.2793,9.6699 L 10.6445,10.6445 L 9.6699,10.2793 L 9.8731,9.873 L 10.2793,9.6699 M 7.5,10.5332 L 8.2793,10.8262 L 7.5,12.3828 L 6.7207,10.8262 L 7.5,10.5332 M 5.7793,11.1797 L 6.3809,12.3809 L 4.75,11.5664 L 5.7793,11.1797 M 9.2207,11.1797 L 10.25,11.5664 L 8.6191,12.3809 L 9.2207,11.1797" fill="#000" /></svg>