<?xml version="1.0" encoding="utf-8" ?>
<svg baseProfile="full" height="16" version="1.1" width="16" xmlns="http://www.w3.org/2000/svg" xmlns:ev="http://www.w3.org/2001/xml-events" xmlns:xlink="http://www.w3.org/1999/xlink"><defs /><path d="M 4.0,3.0 C 2.892,3.0 2.0,3.892 2.0,5.0 L 2.0,6.0 L 2.0,7.5 C 2.0,7.777 2.223,8.0 2.5,8.0 L 6.5,8.0 C 6.777,8.0 7.0,7.777 7.0,7.5 L 7.0,6.0 L 7.0,5.0 C 7.0,3.892 6.108,3.0 5.0,3.0 L 4.0,3.0 M 11.0,3.0 C 9.892,3.0 9.0,3.892 9.0,5.0 L 9.0,6.0 L 9.0,7.5 C 9.0,7.777 9.223,8.0 9.5,8.0 L 13.5,8.0 C 13.777,8.0 14.0,7.777 14.0,7.5 L 14.0,6.0 L 14.0,5.0 C 14.0,3.892 13.108,3.0 12.0,3.0 L 11.0,3.0 M 2.0,9.0 C 1.723,9.0 1.5,9.2138 1.5,9.4785 L 1.5,9.5215 C 1.5,9.7863 1.723,10.0 2.0,10.0 L 4.0,10.0 L 4.0,11.0 L 1.5,11.0 C 1.223,11.0 1.0,11.2138 1.0,11.4786 L 1.0,11.5216 C 1.0,11.7863 1.223,12.0001 1.5,12.0001 L 14.5,12.0001 C 14.777,12.0001 15.0,11.7863 15.0,11.5216 L 15.0,11.4786 C 15.0,11.2138 14.777,11.0 14.5,11.0 L 12.0,11.0 L 12.0,10.0 L 14.0,10.0 C 14.277,10.0 14.5,9.7862 14.5,9.5215 L 14.5,9.4785 C 14.5,9.2138 14.277,9.0 14.0,9.0 L 9.0,9.0 C 8.723,9.0 8.5,9.2138 8.5,9.4785 L 8.5,9.5215 C 8.5,9.7863 8.723,10.0 9.0,10.0 L 11.0,10.0 L 11.0,11.0 L 5.0,11.0 L 5.0,10.0 L 7.0,10.0 C 7.277,10.0 7.5,9.7863 7.5,9.5215 L 7.5,9.4785 C 7.5,9.2138 7.277,9.0 7.0,9.0 L 2.0,9.0" fill="#000" /></svg>