<?xml version="1.0" encoding="utf-8" ?>
<svg baseProfile="full" height="16" version="1.1" width="16" xmlns="http://www.w3.org/2000/svg" xmlns:ev="http://www.w3.org/2001/xml-events" xmlns:xlink="http://www.w3.org/1999/xlink"><defs /><path d="M 7.5,2.0 C 7.223,2.0 7.0,2.223 7.0,2.5 C 7.0,2.777 7.223,3.0 7.5,3.0 L 8.0,3.0 L 8.0,4.0 C 5.7909,4.0 4.0,5.7909 4.0,8.0 L 6.0,8.0 C 6.0,6.8954 6.8954,6.0 8.0,6.0 L 14.0,6.0 L 14.0,4.0 L 9.0,4.0 L 9.0,3.0 L 9.5,3.0 C 9.777,3.0 10.0,2.777 10.0,2.5 C 10.0,2.223 9.777,2.0 9.5,2.0 L 7.5,2.0 M 2.0,9.0 L 3.0,15.0 L 7.0,15.0 L 8.0,9.0 L 2.0,9.0" fill="#000" /></svg>