<?xml version="1.0" encoding="utf-8" ?>
<svg baseProfile="full" height="16" version="1.1" width="16" xmlns="http://www.w3.org/2000/svg" xmlns:ev="http://www.w3.org/2001/xml-events" xmlns:xlink="http://www.w3.org/1999/xlink"><defs /><path d="M 7.7852,2.0039 C 6.4043,2.0533 5.0818,2.5792 4.043,3.4902 C 1.6706,5.5716 1.3191,9.1484 3.2402,11.6523 C 5.1618,14.1558 8.7078,14.7413 11.332,12.9883 C 13.1199,11.7922 14.0806,9.7222 13.9356,7.5859 C 13.9396,7.5541 13.9637,7.53 13.9668,7.498 L 13.9492,7.498 C 13.9461,7.4633 13.9703,7.4332 13.9668,7.3984 C 13.9111,6.7914 13.0239,6.7932 12.9707,7.4004 C 12.8343,8.7712 12.003,9.9731 10.7695,10.586 C 9.0555,11.4317 6.9901,10.9516 5.8261,9.4356 C 4.6625,7.919 4.7314,5.8003 5.9921,4.3633 C 6.6669,3.5994 7.608,3.1231 8.623,3.0293 C 9.2306,2.9786 9.2359,2.0913 8.629,2.0332 C 8.3488,2.0035 8.0669,1.9941 7.7853,2.0039 L 7.7852,2.0039" fill="#000" /></svg>