<svg xmlns="http://www.w3.org/2000/svg" width="16" height="16"><path d="M 7.4922,2.0 C 7.3623,2.002 7.2383,2.0546 7.1465,2.1465 L 6.1465,3.1465 C 5.6465,3.6465 5.3333,4.0 4.5,4.0 C 4.003,4.0 3.7379,4.0273 3.3594,3.6523 A 0.5,0.5 0.0 0,0 3.3534,3.6463 C 3.3534,3.6463 3.3514,3.6443 3.3514,3.6443 A 0.5,0.5 0.0 0,0 3.0,3.5 A 0.5,0.5 0.0 0,0 2.5,4.0 A 0.5,0.5 0.0 0,0 2.6445,4.3516 C 2.6445,4.3516 2.6465,4.3536 2.6465,4.3536 A 0.5,0.5 0.0 0,0 2.6777,4.3829 C 3.1861,4.8948 4.1882,6.0 5.5,6.0 L 9.5,6.0 C 10.8292,6.0 11.846,4.8618 12.3477,4.3594 A 0.5,0.5 0.0 0,0 12.3537,4.3534 C 12.3638,4.3432 12.3739,4.3331 12.383,4.3222 A 0.5,0.5 0.0 0,0 12.387,4.3162 C 12.396,4.3053 12.4046,4.2946 12.4124,4.283 A 0.5,0.5 0.0 0,0 12.5,4.0 A 0.5,0.5 0.0 0,0 12.0,3.5 A 0.5,0.5 0.0 0,0 11.6484,3.6445 C 11.6484,3.6445 11.6464,3.6465 11.6464,3.6465 C 11.2646,4.0285 11.0,4.0 10.5,4.0 C 9.6667,4.0 9.3535,3.6465 8.8535,3.1465 L 7.8535,2.1465 C 7.7578,2.0508 7.6275,1.9979 7.4922,2.0 M 5.0,7.0 L 5.0,8.0 L 10.0,8.0 L 10.0,7.0 L 5.0,7.0 M 5.5,9.0 C 5.3674,9.0 5.2402,9.0527 5.1465,9.1465 C 4.6465,9.6465 4.3333,10.0 3.5,10.0 C 3.003,10.0 2.7379,10.0273 2.3594,9.6523 A 0.5,0.5 0.0 0,0 2.3534,9.6463 C 2.3432,9.6362 2.3331,9.6261 2.3222,9.617 A 0.5,0.5 0.0 0,0 2.3162,9.613 C 2.3053,9.604 2.2946,9.5954 2.283,9.5876 A 0.5,0.5 0.0 0,0 2.275,9.5836 A 0.5,0.5 0.0 0,0 2.0,9.5 A 0.5,0.5 0.0 0,0 1.5,10.0 A 0.5,0.5 0.0 0,0 1.5801,10.2695 A 0.5,0.5 0.0 0,0 1.6406,10.3476 A 0.5,0.5 0.0 0,0 1.6446,10.3516 C 1.6452,10.3523 1.6456,10.3526 1.6466,10.3536 A 0.5,0.5 0.0 0,0 1.6778,10.3829 C 2.1861,10.8948 3.1882,12.0 4.5,12.0 L 10.5,12.0 C 11.8292,12.0 12.846,10.8618 13.3477,10.3594 A 0.5,0.5 0.0 0,0 13.3537,10.3534 C 13.3638,10.3432 13.3739,10.3331 13.383,10.3222 A 0.5,0.5 0.0 0,0 13.387,10.3162 C 13.396,10.3053 13.4046,10.2946 13.4124,10.283 A 0.5,0.5 0.0 0,0 13.4164,10.275 A 0.5,0.5 0.0 0,0 13.5,10.0 A 0.5,0.5 0.0 0,0 13.0,9.5 A 0.5,0.5 0.0 0,0 12.6523,9.6406 A 0.5,0.5 0.0 0,0 12.6483,9.6446 C 12.6477,9.6453 12.6473,9.6456 12.6463,9.6466 C 12.2644,10.0283 12.0,10.0 11.5,10.0 C 10.6667,10.0 10.3535,9.6465 9.8535,9.1465 C 9.7598,9.0527 9.6326,9.0 9.5,9.0 L 7.5,9.0 L 5.5,9.0 M 4.0,13.0 L 4.0,14.0 L 11.0,14.0 L 11.0,13.0 L 4.0,13.0" fill="#000" /></svg>