<svg xmlns="http://www.w3.org/2000/svg" width="16" height="16"><path d="M 2.0,3.0 C 1.4477,3.0001 1.0001,3.4477 1.0,4.0 L 1.0,10.0 C 1.0001,10.5523 1.4477,10.9999 2.0,11.0 L 3.0,11.0 C 3.0,9.892 3.892,9.0 5.0,9.0 C 6.108,9.0 7.0,9.892 7.0,11.0 L 11.0,11.0 C 11.8333,11.0 12.5499,10.6142 13.082,10.082 C 13.3852,9.7789 13.6291,9.4103 13.793,9.0 L 15.0,9.0 L 15.0,8.0 L 14.0,8.0 L 14.0,7.0 C 14.0,6.8026 13.9415,6.6096 13.832,6.4453 L 11.832,3.4453 C 11.6466,3.1671 11.3343,3.0 11.0,3.0 L 2.0,3.0 M 2.5,4.0 L 5.5,4.0 C 5.777,4.0 6.0,4.223 6.0,4.5 L 6.0,6.5 C 6.0,6.777 5.777,7.0 5.5,7.0 L 2.5,7.0 C 2.223,7.0 2.0,6.777 2.0,6.5 L 2.0,4.5 C 2.0,4.223 2.223,4.0 2.5,4.0 M 8.5,4.0 L 10.5,4.0 C 10.777,4.0 11.0,4.223 11.0,4.5 L 11.0,9.5 C 11.0,9.777 10.777,10.0 10.5,10.0 L 8.5,10.0 C 8.223,10.0 8.0,9.777 8.0,9.5 L 8.0,4.5 C 8.0,4.223 8.223,4.0 8.5,4.0 M 5.0,10.0 C 4.446,10.0 4.0,10.446 4.0,11.0 C 4.0,11.554 4.446,12.0 5.0,12.0 C 5.554,12.0 6.0,11.554 6.0,11.0 C 6.0,10.446 5.554,10.0 5.0,10.0" fill="#000" /></svg>