<?xml version="1.0" encoding="utf-8" ?>
<svg baseProfile="full" height="16" version="1.1" width="16" xmlns="http://www.w3.org/2000/svg" xmlns:ev="http://www.w3.org/2001/xml-events" xmlns:xlink="http://www.w3.org/1999/xlink"><defs /><path d="M 6.4941,0.9941 A 0.5,0.5 0.0 0,0 6.1465,1.8535 L 7.293,3.0 L 5.5,3.0 C 4.8333,3.0 4.2251,3.3179 3.7715,3.7715 C 3.3179,4.2251 3.0,4.8333 3.0,5.5 A 0.5,0.5 0.0 1,0 4.0,5.5 C 4.0,5.1667 4.1821,4.7749 4.4785,4.4785 C 4.7749,4.1821 5.1667,4.0 5.5,4.0 L 7.293,4.0 L 6.1465,5.1465 A 0.5,0.5 0.0 1,0 6.8535,5.8535 L 8.8106,3.8965 A 0.5,0.5 0.0 0,0 8.8126,3.1035 A 0.5,0.5 0.0 0,0 8.8066,3.0995 L 6.8534,1.1464 A 0.5,0.5 0.0 0,0 6.4941,0.9941 L 6.4941,0.9941 M 12.5,9.9941 A 0.5,0.5 0.0 0,0 12.0078,10.5019 C 12.0078,10.8353 11.8257,11.227 11.5293,11.5234 C 11.2329,11.8199 10.8411,12.0019 10.5078,12.0019 L 8.7148,12.0019 L 9.8613,10.8555 A 0.5,0.5 0.0 0,0 9.4981,9.998 A 0.5,0.5 0.0 0,0 9.1543,10.1484 L 7.1973,12.1055 A 0.5,0.5 0.0 0,0 7.2013,12.9023 L 9.1544,14.8555 A 0.5,0.5 0.0 1,0 9.8614,14.1484 L 8.7149,13.0019 L 10.5079,13.0019 C 11.1746,13.0019 11.7829,12.684 12.2364,12.2305 C 12.69,11.7769 13.0079,11.1686 13.0079,10.5019 A 0.5,0.5 0.0 0,0 12.5,9.9941" fill="#000" /></svg>