<?xml version="1.0" encoding="utf-8" ?>
<svg baseProfile="full" height="16" version="1.1" width="16" xmlns="http://www.w3.org/2000/svg" xmlns:ev="http://www.w3.org/2001/xml-events" xmlns:xlink="http://www.w3.org/1999/xlink"><defs /><path d="m 628.0293,434 a 2,2 0 0 0 -1.44336,0.58594 2,2 0 0 0 -0.4336,2.17968 A 2,2 0 0 0 628,438 h 1 v 4 h -1 a 2,2 0 0 0 -1.84766,1.23438 2,2 0 0 0 0.4336,2.17968 2,2 0 0 0 2.17968,0.4336 A 2,2 0 0 0 630,444 v -1 h 4 v 1 a 2,2 0 0 0 1.23438,1.84766 2,2 0 0 0 2.17968,-0.4336 2,2 0 0 0 0.4336,-2.17968 A 2,2 0 0 0 636,442 h -1 v -4 h 1 a 2,2 0 0 0 1.84766,-1.23438 2,2 0 0 0 -0.4336,-2.17968 A 2,2 0 0 0 636.01367,434 2,2 0 0 0 635.23438,434.15234 2,2 0 0 0 634,436 v 1 h -4 v -1 A 2,2 0 0 0 628.76562,434.15234 2,2 0 0 0 628.0293,434 Z M 628,435 a 1,1 0 0 1 1,1 v 1 h -1 a 1,1 0 0 1 -1,-1 1,1 0 0 1 1,-1 z m 8,0 a 1,1 0 0 1 1,1 1,1 0 0 1 -1,1 h -1 v -1 a 1,1 0 0 1 1,-1 z m -6,3 h 4 v 4 h -4 z m -2,5 h 1 v 1 a 1,1 0 0 1 -1,1 1,1 0 0 1 -1,-1 1,1 0 0 1 1,-1 z m 7,0 h 1 a 1,1 0 0 1 1,1 1,1 0 0 1 -1,1 1,1 0 0 1 -1,-1 z" fill="#000" transform="translate(8.0,8.0) translate(-632.0,-440.0)" /></svg>