<?xml version="1.0" encoding="utf-8" ?>
<svg baseProfile="full" height="16" version="1.1" width="16" xmlns="http://www.w3.org/2000/svg" xmlns:ev="http://www.w3.org/2001/xml-events" xmlns:xlink="http://www.w3.org/1999/xlink"><defs /><path d="M 7.0,2.0 L 5.0,4.0 L 5.0,5.0 C 5.0,5.554 5.446,6.0 6.0,6.0 L 7.0,6.0 L 7.0,7.0 L 6.0,7.0 L 3.5,7.0 A 0.5,0.5 0.0 0,0 3.0098,7.4023 L 2.0898,12.0 L 1.5,12.0 A 0.5,0.5 0.0 1,0 1.5,13.0 L 2.3848,13.0 A 0.5,0.5 0.0 0,0 2.6133,13.0 L 3.5,13.0 A 0.5,0.5 0.0 1,0 3.5,12.0 L 3.1094,12.0 L 3.9102,8.0 L 5.0,8.0 L 5.0,10.0 C 5.0,10.554 5.446,11.0 6.0,11.0 L 10.0,11.0 C 10.554,11.0 11.0,10.554 11.0,10.0 L 11.0,8.0 L 12.0898,8.0 L 12.8906,12.0 L 12.5,12.0 A 0.5,0.5 0.0 1,0 12.5,13.0 L 13.3887,13.0 A 0.5,0.5 0.0 0,0 13.6172,13.0 L 14.5,13.0 A 0.5,0.5 0.0 1,0 14.5,12.0 L 13.9102,12.0 L 12.9902,7.4023 A 0.5,0.5 0.0 0,0 12.5,7.0 L 10.0,7.0 L 9.0,7.0 L 9.0,6.0 L 10.0,6.0 C 10.554,6.0 11.0,5.554 11.0,5.0 L 11.0,4.0 L 9.0,2.0 L 7.0,2.0" fill="#000" /></svg>