<?xml version="1.0" encoding="utf-8" ?>
<svg baseProfile="full" height="16" version="1.1" width="16" xmlns="http://www.w3.org/2000/svg" xmlns:ev="http://www.w3.org/2001/xml-events" xmlns:xlink="http://www.w3.org/1999/xlink"><defs /><path d="M 84.49023,434.99805 A 0.50005,0.50005 0 0 0 84,435.57617 V 436.5 c 0,0.277 0.223,0.5 0.5,0.5 0.277,0 0.5,-0.223 0.5,-0.5 v -0.26172 l 3.91406,1.56641 0.08594,0.0351 v 0.66016 c 0,0.277 0.223,0.5 0.5,0.5 0.277,0 0.5,-0.223 0.5,-0.5 v -0.26172 l 1.81445,0.72656 a 0.50050477,0.50050477 0 1 0 0.3711,-0.92968 l -2.89844,-1.15821 -4.60156,-1.84179 a 0.50005,0.50005 0 0 0 -0.19532,-0.0371 z M 84.5,437.5 c 0,2 0,3 2,5 0,-2 0,-5 -2,-5 z m 0,0 c -2,0 -2,3 -2,5 2,-2 2,-3 2,-5 z m 5,2 c 0,2 0,3 2,5 0,-2 0,-5 -2,-5 z m 0,0 c -2,0 -2,3 -2,5 2,-2 2,-3 2,-5 z" fill="#000" transform="translate(8.0,8.0) translate(-88.0,-440.0)" /></svg>