<?xml version="1.0" encoding="utf-8" ?>
<svg baseProfile="full" height="16" version="1.1" width="16" xmlns="http://www.w3.org/2000/svg" xmlns:ev="http://www.w3.org/2001/xml-events" xmlns:xlink="http://www.w3.org/1999/xlink"><defs /><path d="M 645 370 C 643.34907 370 642 371.34907 642 373 L 642 373.5 A 0.50005 0.50005 0 1 0 643 373.5 L 643 373 C 643 371.88951 643.88951 371 645 371 C 646.11049 371 647 371.88951 647 373 L 647 373.28125 C 646.7041 373.10766 646.3655 373 646 373 C 644.90135 373 644 373.90135 644 375 L 644 375.5 A 0.50005 0.50005 0 1 0 645 375.5 L 645 375 C 645 374.44179 645.44179 374 646 374 C 646.55821 374 647 374.44179 647 375 L 647 376 A 0.50005 0.50005 0 1 0 648 376 L 648 375.03516 A 0.50005 0.50005 0 0 0 648 375 C 648 374.44179 648.44179 374 649 374 C 649.55821 374 650 374.44179 650 375 L 650 375.5 A 0.50005 0.50005 0 1 0 651 375.5 L 651 375 C 651 373.90135 650.09865 373 649 373 C 648.6345 373 648.2959 373.10766 648 373.28125 L 648 373.03516 A 0.50005 0.50005 0 0 0 648 373 C 648 371.88951 648.88951 371 650 371 C 651.11049 371 652 371.88951 652 373 L 652 373.5 A 0.50005 0.50005 0 1 0 653 373.5 L 653 373 C 653 371.34907 651.65093 370 650 370 C 648.95788 370 648.03818 370.53987 647.5 371.35156 C 646.96182 370.53987 646.04212 370 645 370 z M 643.5 377 A 0.50004997 0.50004997 0 1 0 643.5 378 L 643.79297 378 L 644.64648 378.85352 A 0.50005 0.50005 0 0 0 645 379 L 647 379 L 647 380 L 642.5 380 A 0.50005 0.50005 0 1 0 642.5 381 L 642.79297 381 L 643.64648 381.85352 A 0.50005 0.50005 0 0 0 644 382 L 651 382 A 0.50005 0.50005 0 0 0 651.35352 381.85352 L 652.20703 381 L 652.5 381 A 0.50005 0.50005 0 1 0 652.5 380 L 648 380 L 648 379 L 650 379 A 0.50005 0.50005 0 0 0 650.35352 378.85352 L 651.20703 378 L 651.5 378 A 0.50004997 0.50004997 0 1 0 651.5 377 L 643.5 377 z " fill="#000" transform="translate(8.0,8.0) translate(-648.0,-376.0)" /></svg>