<?xml version="1.0" encoding="utf-8" ?>
<svg baseProfile="full" height="16" version="1.1" width="16" xmlns="http://www.w3.org/2000/svg" xmlns:ev="http://www.w3.org/2001/xml-events" xmlns:xlink="http://www.w3.org/1999/xlink"><defs /><path d="M 2.5,2.0 C 2.0833,2.0 1.7251,2.1929 1.459,2.459 C 1.1929,2.7251 1.0,3.0833 1.0,3.5 L 1.0,5.5 C 1.003,5.5344 1.01,5.5685 1.0195,5.6016 C 1.0201,5.6066 1.0205,5.6105 1.0215,5.6152 C 1.0378,5.6802 1.067,5.7414 1.1074,5.7949 C 1.1114,5.8019 1.1154,5.808 1.1191,5.8145 C 1.1607,5.865 1.2118,5.9067 1.2695,5.9375 C 1.2765,5.9425 1.2837,5.9465 1.291,5.9512 C 1.3563,5.9824 1.4276,5.9991 1.5,6.0 L 4.5,6.0 C 4.8333,6.0 5.0072,6.1317 5.1152,6.3477 C 5.196,6.5093 5.2272,6.7364 5.1582,7.0 L 4.5,7.0 C 4.2239,7.0 4.0,7.2239 4.0,7.5 C 4.0,7.7761 4.2239,8.0 4.5,8.0 L 4.6914,8.0 L 4.5527,8.2773 L 4.1914,9.0 L 3.5,9.0 C 3.2239,9.0 3.0,9.2239 3.0,9.5 C 3.0,9.7761 3.2239,10.0 3.5,10.0 L 3.6914,10.0 L 3.5527,10.2773 L 3.1914,11.0 L 2.5,11.0 C 2.2239,11.0 2.0,11.2239 2.0,11.5 C 2.0,11.7761 2.2239,12.0 2.5,12.0 L 2.6914,12.0 L 2.5527,12.2773 L 2.0527,13.2773 C 1.8876,13.6096 2.129,13.9996 2.5,14.0 L 3.5,14.0 C 3.6896,13.9998 3.8628,13.8924 3.9473,13.7227 L 4.4473,12.7227 C 4.6674,12.2823 4.8136,12.1636 4.998,12.0898 C 5.1825,12.0161 5.5,12.0 6.0,12.0 L 10.5,12.0 A 0.5,0.5 0.0 0,0 10.9277,11.252 A 0.5,0.5 0.0 0,0 10.5,11.0 L 6.0,11.0 L 5.3086,11.0 L 5.4473,10.7227 C 5.6674,10.2823 5.8136,10.1636 5.998,10.0898 C 6.1825,10.0161 6.5,10.0 7.0,10.0 L 11.5,10.0 C 11.881,9.995 12.1168,9.5828 11.9277,9.252 C 11.8399,9.0981 11.6771,9.0023 11.5,9.0 L 7.0,9.0 L 6.3086,9.0 L 6.4473,8.7227 C 6.6674,8.2823 6.8136,8.1636 6.998,8.0898 C 7.1825,8.0161 7.5,8.0 8.0,8.0 L 12.5,8.0 C 12.881,7.995 13.1168,7.5828 12.9277,7.252 C 12.8399,7.0981 12.6771,7.0023 12.5,7.0 L 8.0,7.0 L 7.3086,7.0 L 7.4473,6.7227 C 7.6674,6.2823 7.8136,6.1636 7.998,6.0898 C 8.1825,6.0161 8.5,6.0 9.0,6.0 L 9.5,6.0 L 13.5,6.0 C 14.1573,5.991 14.1573,5.0093 13.5,5.0 L 10.0,5.0 L 10.0,3.5 C 10.0,3.0833 9.8071,2.7251 9.541,2.459 C 9.2749,2.1929 8.9167,2.0 8.5,2.0 L 2.5,2.0 M 2.5,3.0 L 5.0,3.0 L 5.0,5.0 L 4.5,5.0 L 2.0,5.0 L 2.0,3.5 C 2.0,3.4167 2.0571,3.2749 2.166,3.166 C 2.2749,3.0571 2.4167,3.0 2.5,3.0 M 6.0,3.0 L 8.5,3.0 C 8.5833,3.0 8.7251,3.0571 8.834,3.166 C 8.9429,3.2749 9.0,3.4167 9.0,3.5 L 9.0,5.0 L 6.0,5.0 L 6.0,3.0" fill="#000" /></svg>