<svg xmlns="http://www.w3.org/2000/svg" width="16" height="16"><path d="M 3.1562,2.0 C 3.0208,2.0 2.8911,2.055 2.7969,2.1523 C 1.6446,3.341 1.0003,4.8909 1.0,6.5 C 1.0,10.1064 4.1607,13.0 8.0,13.0 C 11.8393,13.0 15.0,10.1064 15.0,6.5 C 14.9997,4.8909 14.3554,3.341 13.2031,2.1523 C 13.1089,2.0549 12.9792,2.0 12.8437,2.0 L 3.1562,2.0 M 5.4961,4.002 L 10.5019,4.002 A 0.5,0.5 0.0 0,1 11.0039,4.5039 A 0.5,0.5 0.0 0,1 10.5019,4.9981 L 5.4961,4.9981 A 0.5,0.5 0.0 0,1 5.0019,4.5039 A 0.5,0.5 0.0 0,1 5.4961,4.002 M 5.4961,6.002 L 7.0019,6.002 A 0.5,0.5 0.0 0,1 7.4453,6.2754 L 7.9473,7.2793 A 0.5,0.5 0.0 0,1 7.9922,7.4258 L 7.9982,7.4785 L 8.0062,7.4258 A 0.5,0.5 0.0 0,1 8.0511,7.2793 L 8.553,6.2754 A 0.5,0.5 0.0 0,1 9.0042,6.002 L 10.5022,6.002 A 0.5,0.5 0.0 0,1 11.0042,6.5039 A 0.5,0.5 0.0 0,1 10.5022,6.9981 L 9.305,6.9981 L 8.9807,7.6484 L 8.4944,11.0723 A 0.5,0.5 0.0 0,1 7.5042,11.0723 L 7.0179,7.6484 L 6.6936,6.9981 L 5.4964,6.9981 A 0.5,0.5 0.0 0,1 5.0022,6.5039 A 0.5,0.5 0.0 0,1 5.4964,6.002 L 5.4961,6.002" fill="#000" /></svg>