<?xml version="1.0" encoding="utf-8" ?>
<svg baseProfile="full" height="16" version="1.1" width="16" xmlns="http://www.w3.org/2000/svg" xmlns:ev="http://www.w3.org/2001/xml-events" xmlns:xlink="http://www.w3.org/1999/xlink"><defs /><path d="M 6.4375,3.3887 C 5.9169,3.4352 5.4179,3.6861 5.0,4.0 C 3.7857,4.9122 3.0,6.3643 3.0,8.0 C 3.0,10.7614 5.2386,12.5 8.0,12.5 C 10.7614,12.5 13.0,10.7614 13.0,8.0 C 13.0,6.3721 12.222,4.9267 11.0176,4.0137 C 10.1789,3.378 9.0,3.0 8.0,4.0 C 7.5,3.5 6.9581,3.3422 6.4375,3.3887 M 8.0,5.5 C 10.0,7.0 10.0,9.0 8.0,10.5 C 6.0,9.0 6.0,7.0 8.0,5.5" fill="#000" /></svg>