<?xml version="1.0" encoding="utf-8" ?>
<svg baseProfile="full" height="16" version="1.1" width="16" xmlns="http://www.w3.org/2000/svg" xmlns:ev="http://www.w3.org/2001/xml-events" xmlns:xlink="http://www.w3.org/1999/xlink"><defs /><path d="M 8.0156,1.9863 A 1.0001,1.0001 0.0 0,1 9.0,3.0 L 9.0,8.0 L 10.0,8.0 C 10.1667,8.0 10.4501,7.8858 10.668,7.668 C 10.8858,7.4501 11.0,7.1667 11.0,7.0 L 11.0,5.0 A 1.0001,1.0001 0.0 0,1 12.0156,3.9863 A 1.0001,1.0001 0.0 0,1 13.0,5.0 L 13.0,7.0 C 13.0,7.8333 12.6142,8.5499 12.082,9.082 C 11.5499,9.6142 10.8333,10.0 10.0,10.0 L 9.0,10.0 L 9.0,12.0 L 9.0,13.0 L 9.0,14.0 L 8.168,14.0 A 1.0001,1.0001 0.0 0,1 7.8418,14.0 L 7.0,14.0 L 7.0,13.0 L 7.0,12.0 L 7.0,11.0 L 6.0,11.0 C 5.1667,11.0 4.4501,10.6142 3.918,10.082 C 3.3858,9.5499 3.0,8.8333 3.0,8.0 L 3.0,6.0 A 1.0001,1.0001 0.0 0,1 4.0156,4.9863 A 1.0001,1.0001 0.0 0,1 5.0,6.0 L 5.0,8.0 C 5.0,8.1667 5.1142,8.4501 5.332,8.668 C 5.5499,8.8858 5.8333,9.0 6.0,9.0 L 7.0,9.0 L 7.0,3.0 A 1.0001,1.0001 0.0 0,1 8.0156,1.9863" fill="#000" /></svg>