<?xml version="1.0" encoding="utf-8" ?>
<svg baseProfile="full" height="16" version="1.1" width="16" xmlns="http://www.w3.org/2000/svg" xmlns:ev="http://www.w3.org/2001/xml-events" xmlns:xlink="http://www.w3.org/1999/xlink"><defs /><path d="M 7.4981,3.2441 C 5.3353,3.2443 3.1732,3.5024 1.3633,4.0195 C 1.3563,4.0232 1.3489,4.0271 1.3418,4.0313 C 1.3061,4.0443 1.2721,4.0613 1.2402,4.082 C 1.2168,4.0958 1.1946,4.1115 1.1738,4.1289 C 1.1458,4.1552 1.1209,4.1847 1.0996,4.2168 C 1.0845,4.2359 1.0708,4.2562 1.0586,4.2773 C 1.0418,4.3135 1.0293,4.3515 1.0215,4.3906 C 1.0145,4.4162 1.009,4.4423 1.0059,4.4688 C 1.0039,4.4791 1.0019,4.4895 0.9999,4.5 C 1.0029,4.5251 1.0069,4.5499 1.0136,4.5742 C 1.0142,4.5952 1.0166,4.616 1.0196,4.6367 C 1.0236,4.644 1.0276,4.6511 1.0313,4.6582 C 1.0443,4.6939 1.0613,4.728 1.0821,4.7598 C 1.0959,4.7831 1.1116,4.8053 1.129,4.8262 C 1.1553,4.8542 1.1848,4.8791 1.2169,4.9004 C 1.236,4.9155 1.2563,4.9292 1.2774,4.9414 C 1.3136,4.9583 1.3516,4.9707 1.3907,4.9785 C 1.4163,4.9858 1.4424,4.991 1.4688,4.9942 C 1.4792,4.9965 1.4896,4.9984 1.5,5.0001 L 2.1914,5.0001 L 4.0527,8.7227 C 4.1372,8.8924 4.3104,8.9998 4.5,9.0 L 10.5,9.0 C 10.6896,8.9998 10.8628,8.8924 10.9473,8.7227 L 12.8086,5.0 L 13.5,5.0 C 13.5105,4.9984 13.5209,4.9964 13.5312,4.9941 C 13.5576,4.991 13.5837,4.9858 13.6093,4.9785 C 13.6484,4.9707 13.6864,4.9582 13.7226,4.9414 C 13.7438,4.9292 13.764,4.9155 13.7831,4.9003 C 13.8152,4.8791 13.8447,4.8542 13.871,4.8261 C 13.8884,4.8053 13.9041,4.7831 13.9179,4.7597 C 13.9386,4.7279 13.9557,4.6938 13.9687,4.6581 C 13.9727,4.651 13.9767,4.6439 13.9804,4.6367 C 13.9929,4.5935 13.9994,4.5488 13.9999,4.5039 C 13.9999,4.5026 13.9999,4.5013 13.9999,4.5 C 13.9999,4.4987 13.9999,4.4974 13.9999,4.4961 C 13.9998,4.4712 13.9979,4.4464 13.9939,4.4218 C 13.9919,4.4133 13.9899,4.4049 13.9879,4.3964 C 13.9839,4.3793 13.9799,4.3623 13.9742,4.3457 C 13.9662,4.3229 13.9575,4.3007 13.9469,4.2793 C 13.9462,4.2773 13.9459,4.2754 13.9449,4.2734 C 13.9409,4.2675 13.9369,4.2616 13.9332,4.2558 C 13.9262,4.2417 13.9182,4.2281 13.9098,4.2148 L 13.9038,4.207 C 13.8998,4.2024 13.8958,4.1978 13.8921,4.1933 C 13.8831,4.1811 13.8731,4.1694 13.8628,4.1581 C 13.8598,4.1541 13.8568,4.1502 13.8528,4.1464 C 13.8488,4.1431 13.8448,4.1398 13.8411,4.1366 C 13.8292,4.1256 13.8169,4.1152 13.804,4.1054 C 13.8,4.1021 13.796,4.0988 13.7923,4.0956 C 13.7833,4.0894 13.7742,4.0835 13.765,4.078 C 13.7523,4.0696 13.7393,4.0618 13.7259,4.0545 C 13.7229,4.0532 13.7199,4.0519 13.7159,4.0506 C 13.6975,4.0416 13.6786,4.0338 13.6593,4.0272 C 13.6573,4.0265 13.6533,4.0259 13.6513,4.0252 C 13.6503,4.0252 13.6483,4.0252 13.6473,4.0252 C 13.6423,4.0232 13.6383,4.0212 13.6336,4.0193 C 11.8237,3.5022 9.6616,3.2441 7.4988,3.2439 L 7.4981,3.2441 M 3.0,10.0 A 1.0,1.0 0.0 0,0 2.0,11.0 A 1.0,1.0 0.0 0,0 3.0,12.0 A 1.0,1.0 0.0 0,0 4.0,11.0 A 1.0,1.0 0.0 0,0 3.0,10.0 M 6.0,10.0 A 1.0,1.0 0.0 0,0 5.0,11.0 A 1.0,1.0 0.0 0,0 6.0,12.0 A 1.0,1.0 0.0 0,0 7.0,11.0 A 1.0,1.0 0.0 0,0 6.0,10.0 M 9.0,10.0 A 1.0,1.0 0.0 0,0 8.0,11.0 A 1.0,1.0 0.0 0,0 9.0,12.0 A 1.0,1.0 0.0 0,0 10.0,11.0 A 1.0,1.0 0.0 0,0 9.0,10.0 M 12.0,10.0 A 1.0,1.0 0.0 0,0 11.0,11.0 A 1.0,1.0 0.0 0,0 12.0,12.0 A 1.0,1.0 0.0 0,0 13.0,11.0 A 1.0,1.0 0.0 0,0 12.0,10.0" fill="#000" /></svg>