<?xml version="1.0" encoding="utf-8" ?>
<svg baseProfile="full" height="16" version="1.1" width="16" xmlns="http://www.w3.org/2000/svg" xmlns:ev="http://www.w3.org/2001/xml-events" xmlns:xlink="http://www.w3.org/1999/xlink"><defs /><path d="M 7.5,3.0 C 7.223,3.0 7.0,3.223 7.0,3.5 L 7.0,4.0 L 2.5,4.0 C 2.223,4.0 2.0,4.223 2.0,4.5 C 2.0,4.777 2.223,5.0 2.5,5.0 L 13.5,5.0 C 13.777,5.0 14.0,4.777 14.0,4.5 C 14.0,4.223 13.777,4.0 13.5,4.0 L 9.0,4.0 L 9.0,3.5 C 9.0,3.223 8.777,3.0 8.5,3.0 L 7.5,3.0 M 3.0,6.0 L 3.0,7.5 L 3.0,8.0 L 3.0,11.5 C 3.0,12.331 3.669,13.0 4.5,13.0 L 11.5,13.0 C 12.331,13.0 13.0,12.331 13.0,11.5 L 13.0,8.0 L 13.0,7.5 L 13.0,6.0 L 11.5,6.0 L 4.5,6.0 L 3.0,6.0" fill="#000" /></svg>