<svg xmlns="http://www.w3.org/2000/svg" width="16" height="16"><path d="M 7.0,5.0 C 6.7729,4.9998 6.5525,5.077 6.375,5.2188 L 4.1484,7.0 L 3.0,7.0 C 2.4477,7.0001 2.0001,7.4477 2.0,8.0 L 2.0,9.0 C 2.0001,9.5523 2.4477,9.9999 3.0,10.0 C 3.0,8.892 3.892,8.0 5.0,8.0 C 6.108,8.0 7.0,8.892 7.0,10.0 L 9.0,10.0 C 9.0,8.892 9.892,8.0 11.0,8.0 C 12.108,8.0 13.0,8.892 13.0,10.0 C 13.5523,9.9999 13.9999,9.5523 14.0,9.0 L 14.0,8.0 C 13.9999,7.4477 13.5523,7.0001 13.0,7.0 L 12.4141,7.0 L 10.707,5.293 C 10.5195,5.1054 10.2652,5.0 10.0,5.0 L 7.0,5.0 M 5.0,9.0 C 4.446,9.0 4.0,9.446 4.0,10.0 C 4.0,10.554 4.446,11.0 5.0,11.0 C 5.554,11.0 6.0,10.554 6.0,10.0 C 6.0,9.446 5.554,9.0 5.0,9.0 M 11.0,9.0 C 10.446,9.0 10.0,9.446 10.0,10.0 C 10.0,10.554 10.446,11.0 11.0,11.0 C 11.554,11.0 12.0,10.554 12.0,10.0 C 12.0,9.446 11.554,9.0 11.0,9.0" fill="#000" /></svg>