<svg xmlns="http://www.w3.org/2000/svg" width="16" height="16"><path d="M 5.0,4.0 A 0.5,0.5 0.0 0,0 4.5352,4.3144 L 3.5352,6.8144 A 0.5,0.5 0.0 0,0 3.9023,7.4902 L 5.0508,7.7207 A 0.5,0.5 0.0 0,0 5.084,7.7773 L 7.084,10.7773 A 0.5,0.5 0.0 0,0 7.9238,10.7656 L 10.2773,7.0 L 11.0,7.0 A 0.5,0.5 0.0 1,0 11.0,6.0 L 10.0879,6.0 A 0.5,0.5 0.0 0,0 9.9746,5.994 A 0.5,0.5 0.0 0,0 9.9258,6.0 L 9.0,6.0 A 0.5,0.5 0.0 1,0 9.0,7.0 L 9.0977,7.0 L 8.8145,7.4531 L 4.6875,6.6269 L 5.3379,5.0 L 6.5,5.0 A 0.5,0.5 0.0 1,0 6.5,4.0 L 5.0,4.0 M 6.4316,7.9961 L 8.2481,8.3594 L 7.4863,9.5781 L 6.4316,7.9961 M 3.5,8.0 C 2.1252,8.0 1.0,9.1252 1.0,10.5 C 1.0,11.8748 2.1252,13.0 3.5,13.0 C 4.8748,13.0 6.0,11.8748 6.0,10.5 C 6.0,9.1252 4.8748,8.0 3.5,8.0 M 11.5,8.0 C 10.1252,8.0 9.0,9.1252 9.0,10.5 C 9.0,11.8748 10.1252,13.0 11.5,13.0 C 12.8748,13.0 14.0,11.8748 14.0,10.5 C 14.0,9.1252 12.8748,8.0 11.5,8.0 M 3.5,9.0 C 4.3343,9.0 5.0,9.6656 5.0,10.5 C 5.0,11.3344 4.3343,12.0 3.5,12.0 C 2.6657,12.0 2.0,11.3344 2.0,10.5 C 2.0,9.6656 2.6657,9.0 3.5,9.0 M 11.5,9.0 C 12.3343,9.0 13.0,9.6656 13.0,10.5 C 13.0,11.3344 12.3343,12.0 11.5,12.0 C 10.6657,12.0 10.0,11.3344 10.0,10.5 C 10.0,9.6656 10.6657,9.0 11.5,9.0" fill="#000" /></svg>