<svg xmlns="http://www.w3.org/2000/svg" width="16" height="16"><path d="M 3.5,2.0 C 3.2239,2.0 3.0,2.2239 3.0,2.5 L 3.0,13.5 C 3.0,13.7761 3.2239,14.0 3.5,14.0 C 3.7761,14.0 4.0,13.7761 4.0,13.5 L 4.0,8.0 C 4.3333,8.0 4.7773,8.1973 5.2773,8.4473 C 5.7773,8.6973 6.3333,9.0 7.0,9.0 C 7.6667,9.0 8.2227,8.6973 8.7227,8.4473 C 9.2227,8.1973 9.6667,8.0 10.0,8.0 C 10.3333,8.0 10.7773,8.1973 11.2773,8.4473 C 11.7773,8.6973 12.3333,9.0 13.0,9.0 C 13.2761,9.0 13.5,8.7761 13.5,8.5 L 13.5,3.5 C 13.5,3.2239 13.2761,3.0 13.0,3.0 C 12.6667,3.0 12.2227,2.8027 11.7227,2.5527 C 11.2227,2.3027 10.6667,2.0 10.0,2.0 C 9.3333,2.0 8.7773,2.3027 8.2773,2.5527 C 7.7773,2.8027 7.3333,3.0 7.0,3.0 C 6.6667,3.0 6.2227,2.8027 5.7227,2.5527 C 5.2227,2.3027 4.6667,2.0 4.0,2.0 L 3.5,2.0" fill="#000" /></svg>