<?xml version="1.0" encoding="utf-8" ?>
<svg baseProfile="full" height="16" version="1.1" width="16" xmlns="http://www.w3.org/2000/svg" xmlns:ev="http://www.w3.org/2001/xml-events" xmlns:xlink="http://www.w3.org/1999/xlink"><defs /><path d="M 10.0,2.0 C 9.446,2.0 9.0,2.446 9.0,3.0 C 9.0,3.554 9.446,4.0 10.0,4.0 C 10.554,4.0 11.0,3.554 11.0,3.0 C 11.0,2.446 10.554,2.0 10.0,2.0 M 10.9941,4.5 C 10.9188,4.501 10.8447,4.519 10.7773,4.5527 L 9.8008,5.041 C 9.7223,5.0761 9.6518,5.1277 9.5996,5.1992 L 8.25,7.0 L 7.5,7.0 C 6.8238,6.99 6.8238,8.0096 7.5,8.0 L 8.5,8.0 C 8.6574,8.0003 8.8057,7.9265 8.9004,7.8008 C 9.163,7.4712 9.4083,7.1817 9.6269,6.9082 L 9.7676,8.457 L 11.8144,8.7481 L 11.4981,4.959 C 11.4766,4.6975 11.2565,4.4971 10.9941,4.5 L 10.9941,4.5 M 6.4766,8.9941 C 6.2942,9.0041 6.1317,9.1126 6.0527,9.2773 L 5.5527,10.2773 L 4.6914,12.0 L 3.5,12.0 C 2.8238,11.99 2.8238,13.0096 3.5,13.0 L 5.0,13.0 C 5.1896,12.9998 5.3628,12.8924 5.4473,12.7227 L 6.3086,11.0 L 13.0,11.0 L 13.0,9.9238 L 6.5703,9.0059 C 6.5522,9.0029 6.5339,9.0029 6.5156,9.0019 C 6.5016,9.0015 6.4909,8.9929 6.4765,8.9939 L 6.4766,8.9941 M 4.0,9.0 C 3.446,9.0 3.0,9.446 3.0,10.0 C 3.0,10.554 3.446,11.0 4.0,11.0 C 4.554,11.0 5.0,10.554 5.0,10.0 C 5.0,9.446 4.554,9.0 4.0,9.0 M 7.5,12.0 C 7.223,12.0 7.0,12.223 7.0,12.5 C 7.0,12.777 7.223,13.0 7.5,13.0 L 13.0,13.0 L 13.0,12.0 L 7.5,12.0" fill="#000" /></svg>