<svg xmlns="http://www.w3.org/2000/svg" width="16" height="16"><path d="M 10.0,4.8652 A 1.1343,1.1343 0.0 0,0 8.8652,6.0 A 1.1343,1.1343 0.0 0,0 8.8808,6.1699 L 6.8105,7.2051 A 1.1343,1.1343 0.0 0,0 6.0,6.8652 A 1.1343,1.1343 0.0 0,0 4.8652,8.0 A 1.1343,1.1343 0.0 0,0 6.0,9.1348 A 1.1343,1.1343 0.0 0,0 6.8086,8.7949 L 8.8809,9.8301 A 1.1343,1.1343 0.0 0,0 8.8652,10.0 A 1.1343,1.1343 0.0 0,0 10.0,11.1348 A 1.1343,1.1343 0.0 0,0 11.1348,10.0 A 1.1343,1.1343 0.0 0,0 10.0,8.8652 A 1.1343,1.1343 0.0 0,0 9.1914,9.2051 L 7.1191,8.1699 A 1.1343,1.1343 0.0 0,0 7.1347,8.0 A 1.1343,1.1343 0.0 0,0 7.1191,7.8301 L 9.1894,6.7949 A 1.1343,1.1343 0.0 0,0 10.0,7.1348 A 1.1343,1.1343 0.0 0,0 11.1348,6.0 A 1.1343,1.1343 0.0 0,0 10.0,4.8652" fill="#000" /></svg>