<svg xmlns="http://www.w3.org/2000/svg" width="16" height="16"><path d="M 2.5,3.0 A 0.5,0.5 0.0 0,0 2.0,3.5 L 2.0,5.0 A 0.5,0.5 0.0 0,0 1.5,5.5 A 0.5,0.5 0.0 0,0 2.0,6.0 L 2.0,12.5 A 0.5,0.5 0.0 0,0 2.5,13.0 A 0.5,0.5 0.0 0,0 3.0,12.5 L 3.0,6.0 L 3.5859,6.0 C 3.6162,6.0857 3.6548,6.1697 3.7012,6.25 C 3.9687,6.7134 4.4649,7.0 5.0,7.0 L 6.0,7.0 C 6.5351,7.0 7.0313,6.7134 7.2988,6.25 C 7.3452,6.1697 7.3837,6.0857 7.4141,6.0 L 8.5859,6.0 C 8.6162,6.0857 8.6548,6.1697 8.7012,6.25 C 8.9687,6.7134 9.4649,7.0 10.0,7.0 L 11.0,7.0 C 11.5351,7.0 12.0313,6.7134 12.2988,6.25 C 12.3452,6.1697 12.3837,6.0857 12.4141,6.0 L 13.0,6.0 L 13.0,12.5 A 0.5,0.5 0.0 0,0 13.5,13.0 A 0.5,0.5 0.0 0,0 14.0,12.5 L 14.0,6.0 A 0.5,0.5 0.0 0,0 14.5,5.5 A 0.5,0.5 0.0 0,0 14.0,5.0 L 14.0,3.5 A 0.5,0.5 0.0 0,0 13.5,3.0 A 0.5,0.5 0.0 0,0 13.0,3.5 L 13.0,5.0 L 12.4141,5.0 C 12.3838,4.9143 12.3452,4.8303 12.2988,4.75 C 12.0365,4.2957 11.5543,4.0129 11.0312,4.002 A 0.5,0.5 0.0 0,0 11.0,4.0 L 10.0,4.0 C 9.4649,4.0 8.9687,4.2866 8.7012,4.75 C 8.6548,4.8303 8.6163,4.9143 8.5859,5.0 L 7.4141,5.0 C 7.3838,4.9143 7.3452,4.8303 7.2988,4.75 C 7.0365,4.2957 6.5543,4.0129 6.0312,4.002 A 0.5,0.5 0.0 0,0 6.0,4.0 L 5.0,4.0 C 4.4649,4.0 3.9687,4.2866 3.7012,4.75 C 3.6548,4.8303 3.6163,4.9143 3.5859,5.0 L 3.0,5.0 L 3.0,3.5 A 0.5,0.5 0.0 0,0 2.5,3.0 M 5.0,5.0 L 6.0,5.0 C 6.0897,5.0 6.1772,5.0253 6.252,5.0684 A 0.5,0.5 0.0 0,0 6.0,5.5 A 0.5,0.5 0.0 0,0 6.252,5.9316 C 6.252,5.9316 6.25,5.9336 6.25,5.9336 C 6.1753,5.9767 6.0897,6.0 6.0,6.0 L 5.0,6.0 C 4.9103,6.0 4.8227,5.9747 4.748,5.9316 A 0.5,0.5 0.0 0,0 5.0,5.5 A 0.5,0.5 0.0 0,0 4.75,5.0664 C 4.8248,5.0233 4.9103,5.0 5.0,5.0 M 10.0,5.0 L 11.0,5.0 C 11.0897,5.0 11.1772,5.0253 11.252,5.0684 A 0.5,0.5 0.0 0,0 11.0,5.5 A 0.5,0.5 0.0 0,0 11.252,5.9316 C 11.252,5.9316 11.25,5.9336 11.25,5.9336 C 11.1753,5.9767 11.0897,6.0 11.0,6.0 L 10.0,6.0 C 9.9103,6.0 9.8227,5.9747 9.748,5.9316 A 0.5,0.5 0.0 0,0 10.0,5.5 A 0.5,0.5 0.0 0,0 9.75,5.0664 C 9.8248,5.0233 9.9103,5.0 10.0,5.0" fill="#000" /></svg>