<svg xmlns="http://www.w3.org/2000/svg" width="16" height="16"><path d="M 7.0,4.0 C 6.446,4.0 6.0,4.446 6.0,5.0 L 6.0,7.0 L 5.0,7.0 L 5.0,9.0 L 6.0,9.0 L 6.0,11.0 C 6.0,11.554 6.446,12.0 7.0,12.0 L 9.0,12.0 C 9.554,12.0 10.0,11.554 10.0,11.0 L 10.0,9.0 L 11.0,9.0 L 11.0,7.0 L 10.0,7.0 L 10.0,5.0 C 10.0,4.446 9.554,4.0 9.0,4.0 L 7.0,4.0 M 1.0,6.0 L 1.0,10.0 L 2.0,10.0 L 2.0,6.0 L 1.0,6.0 M 3.0,6.0 L 3.0,10.0 L 4.0,10.0 L 4.0,6.0 L 3.0,6.0 M 12.0,6.0 L 12.0,10.0 L 13.0,10.0 L 13.0,6.0 L 12.0,6.0 M 14.0,6.0 L 14.0,10.0 L 15.0,10.0 L 15.0,6.0 L 14.0,6.0" fill="#000" /></svg>