<?xml version="1.0" encoding="utf-8" ?>
<svg baseProfile="full" height="16" version="1.1" width="16" xmlns="http://www.w3.org/2000/svg" xmlns:ev="http://www.w3.org/2001/xml-events" xmlns:xlink="http://www.w3.org/1999/xlink"><defs /><path d="M 13.2031,4.8105 C 12.9465,4.8175 12.7022,4.8804 12.4844,5.0 C 12.0951,5.2137 11.8215,5.5724 11.6445,6.0 L 2.5,6.0 C 2.1586,5.9998 1.9174,6.3343 2.0254,6.6582 L 3.0254,9.6582 C 3.0847,9.836 3.2386,9.9657 3.4238,9.9941 L 9.9121,10.9922 C 10.0175,11.0111 10.0717,11.0554 10.125,11.1445 C 10.1783,11.2337 10.2086,11.3705 10.1914,11.5019 C 10.157,11.7648 10.0477,12.0 9.5,12.0 L 5.5,12.0 L 4.5,12.0 C 4.2239,12.0 4.0,12.2239 4.0,12.5 C 4.0,12.7761 4.2239,13.0 4.5,13.0 L 5.0,13.0 L 5.0,13.5 C 5.0,13.7761 5.2239,14.0 5.5,14.0 C 5.7761,14.0 6.0,13.7761 6.0,13.5 L 6.0,13.0 L 9.0,13.0 L 9.0,13.5 C 9.0,13.7761 9.2239,14.0 9.5,14.0 C 9.7761,14.0 10.0,13.7761 10.0,13.5 L 10.0,13.0 L 10.5,13.0 C 10.7292,12.9996 10.9289,12.8435 10.9844,12.6211 L 12.4824,6.6289 C 12.5923,6.2187 12.7816,5.9767 12.9668,5.875 C 13.152,5.7733 13.3806,5.7489 13.7773,5.9473 C 14.0244,6.07 14.3241,5.9695 14.4473,5.7227 C 14.57,5.4756 14.4695,5.1759 14.2227,5.0528 C 13.8833,4.8831 13.5331,4.8012 13.2031,4.8106 L 13.2031,4.8105" fill="#000" /></svg>