<?xml version="1.0" encoding="utf-8" ?>
<svg baseProfile="full" height="16" version="1.1" width="16" xmlns="http://www.w3.org/2000/svg" xmlns:ev="http://www.w3.org/2001/xml-events" xmlns:xlink="http://www.w3.org/1999/xlink"><defs /><path d="M 7.0,1.0 L 7.0,4.666 L 6.0,8.0 L 6.0,9.5 L 5.0,10.0 L 3.0,10.0 C 2.446,10.0 2.0,10.446 2.0,11.0 L 2.0,12.0 L 2.0,13.0 L 2.0,15.0 L 3.0,15.0 L 4.0,15.0 L 4.0,12.5 C 4.0,12.223 4.223,12.0 4.5,12.0 C 4.777,12.0 5.0,12.223 5.0,12.5 L 5.0,15.0 L 6.0,15.0 L 6.0,12.5 C 6.0,12.223 6.223,12.0 6.5,12.0 C 6.777,12.0 7.0,12.223 7.0,12.5 L 7.0,15.0 L 8.0,15.0 L 8.0,12.5 C 8.0,12.223 8.223,12.0 8.5,12.0 C 8.777,12.0 9.0,12.223 9.0,12.5 L 9.0,15.0 L 10.0,15.0 L 10.0,12.5 C 10.0,12.223 10.223,12.0 10.5,12.0 C 10.777,12.0 11.0,12.223 11.0,12.5 L 11.0,15.0 L 12.0,15.0 L 13.0,15.0 L 13.0,13.0 L 13.0,12.0 L 13.0,11.0 C 13.0,10.446 12.554,10.0 12.0,10.0 L 10.0,10.0 L 9.0,9.5 L 9.0,8.0 L 8.0,4.666 L 8.0,3.0 L 11.0,3.0 L 11.0,1.0 L 8.0,1.0 L 7.0,1.0 M 7.5,8.0508 C 7.777,8.0508 8.0,8.2738 8.0,8.5508 L 8.0,9.4492 C 8.0,9.7262 7.777,9.9492 7.5,9.9492 C 7.223,9.9492 7.0,9.7262 7.0,9.4492 L 7.0,8.5508 C 7.0,8.2738 7.223,8.0508 7.5,8.0508" fill="#000" /></svg>