<?xml version="1.0" encoding="utf-8" ?>
<svg baseProfile="full" height="16" version="1.1" width="16" xmlns="http://www.w3.org/2000/svg" xmlns:ev="http://www.w3.org/2001/xml-events" xmlns:xlink="http://www.w3.org/1999/xlink"><defs /><path d="M 1.5,2.0 A 0.5,0.5 0.0 0,0 1.0,2.5 A 0.5,0.5 0.0 0,0 1.5,3.0 L 14.5,3.0 A 0.5,0.5 0.0 0,0 15.0,2.5 A 0.5,0.5 0.0 0,0 14.5,2.0 L 1.5,2.0 M 1.5,4.0 A 0.5,0.5 0.0 0,0 1.0,4.5 L 1.0,8.5 L 1.0,10.5 A 0.5,0.5 0.0 0,0 1.5,11.0 A 0.5,0.5 0.0 0,0 2.0,10.5 L 2.0,9.0 L 14.0,9.0 L 14.0,10.5 A 0.5,0.5 0.0 0,0 14.5,11.0 A 0.5,0.5 0.0 0,0 15.0,10.5 L 15.0,6.5 A 0.5,0.5 0.0 0,0 14.5,6.0 A 0.5,0.5 0.0 0,0 14.0,6.5 L 14.0,8.0 L 2.0,8.0 L 2.0,4.5 A 0.5,0.5 0.0 0,0 1.5,4.0 M 4.0,5.0 A 1.0,1.0 0.0 0,0 3.0,6.0 A 1.0,1.0 0.0 0,0 4.0,7.0 L 5.0,7.0 A 1.0,1.0 0.0 0,0 6.0,6.0 A 1.0,1.0 0.0 0,0 5.0,5.0 L 4.0,5.0 M 7.4512,5.002 A 0.5,0.5 0.0 0,0 7.0,5.5 L 7.0,6.5 A 0.5,0.5 0.0 0,0 7.5,7.0 L 12.5,7.0 A 0.5,0.5 0.0 0,0 12.5977,6.0098 L 7.5977,5.0098 A 0.5,0.5 0.0 0,0 7.4512,5.0018 L 7.4512,5.002 M 1.5,12.0 A 0.5,0.5 0.0 0,0 1.0,12.5 A 0.5,0.5 0.0 0,0 1.5,13.0 L 14.5,13.0 A 0.5,0.5 0.0 0,0 15.0,12.5 A 0.5,0.5 0.0 0,0 14.5,12.0 L 1.5,12.0" fill="#000" /></svg>