<svg xmlns="http://www.w3.org/2000/svg" width="16" height="16"><path d="M 8.0,1.0 C 5.4999,1.0 3.1875,2.3349 1.9375,4.5 A 0.5005,0.5005 0.0 1,0 2.8047,5.0 C 3.8769,3.1429 5.8556,2.0 8.0,2.0 C 10.1444,2.0 12.1231,3.1429 13.1953,5.0 A 0.5005,0.5005 0.0 0,0 14.0625,4.5 C 12.8125,2.3349 10.5001,1.0 8.0,1.0 M 8.0,3.0 C 6.2145,3.0 4.5627,3.9537 3.6699,5.5 A 0.5,0.5 0.0 1,0 4.5352,6.0 C 5.2501,4.7617 6.5701,4.0 8.0,4.0 C 9.4299,4.0 10.7499,4.7617 11.4648,6.0 A 0.5,0.5 0.0 1,0 12.3301,5.5 C 11.4373,3.9537 9.7855,3.0 8.0,3.0 M 8.0,5.0 C 6.929,5.0 5.9378,5.5725 5.4023,6.5 A 0.5,0.5 0.0 1,0 6.2676,7.0 C 6.6252,6.3805 7.2847,6.0 8.0,6.0 C 8.7153,6.0 9.3748,6.3805 9.7324,7.0 A 0.5,0.5 0.0 1,0 10.5977,6.5 C 10.0622,5.5725 9.071,5.0 8.0,5.0 M 8.0,7.0 A 1.0,1.0 0.0 0,0 7.0,8.0 A 1.0,1.0 0.0 0,0 8.0,9.0 A 1.0,1.0 0.0 0,0 9.0,8.0 A 1.0,1.0 0.0 0,0 8.0,7.0" fill="#000" /><path d="M 2.5,10.0 A 0.5,0.5 0.0 0,0 2.0,10.5 L 2.0,12.4199 A 0.5,0.5 0.0 0,0 2.0,12.582 L 2.0,14.5 A 0.5,0.5 0.0 1,0 3.0,14.5 L 3.0,13.0 L 3.5,13.0 A 0.5,0.5 0.0 1,0 3.5,12.0 L 3.0,12.0 L 3.0,11.0 L 3.5,11.0 A 0.5,0.5 0.0 1,0 3.5,10.0 L 2.5,10.0 M 5.5,10.0 A 0.5,0.5 0.0 0,0 5.0,10.5 L 5.0,12.4199 A 0.5,0.5 0.0 0,0 5.0,12.582 L 5.0,14.5 A 0.5,0.5 0.0 1,0 6.0,14.5 L 6.0,13.0 L 6.0703,13.0 L 7.0664,14.7481 A 0.5,0.5 0.0 1,0 7.9336,14.252 L 7.1309,12.8398 C 7.2829,12.7609 7.4225,12.6595 7.541,12.541 C 7.8071,12.2749 8.0,11.9167 8.0,11.5 C 8.0,11.0833 7.8071,10.7251 7.541,10.459 C 7.2749,10.1929 6.9167,10.0 6.5,10.0 L 5.5,10.0 M 9.5,10.0 A 0.5,0.5 0.0 0,0 9.0,10.5 L 9.0,12.4199 A 0.5,0.5 0.0 0,0 9.0,12.582 L 9.0,14.5 A 0.5,0.5 0.0 0,0 9.5,15.0 L 10.5,15.0 A 0.5,0.5 0.0 1,0 10.5,14.0 L 10.0,14.0 L 10.0,13.0 L 10.5,13.0 A 0.5,0.5 0.0 1,0 10.5,12.0 L 10.0,12.0 L 10.0,11.0 L 10.5,11.0 A 0.5,0.5 0.0 1,0 10.5,10.0 L 9.5,10.0 M 12.5,10.0 A 0.5,0.5 0.0 0,0 12.0,10.5 L 12.0,12.4199 A 0.5,0.5 0.0 0,0 12.0,12.582 L 12.0,14.5 A 0.5,0.5 0.0 0,0 12.5,15.0 L 13.5,15.0 A 0.5,0.5 0.0 1,0 13.5,14.0 L 13.0,14.0 L 13.0,13.0 L 13.5,13.0 A 0.5,0.5 0.0 1,0 13.5,12.0 L 13.0,12.0 L 13.0,11.0 L 13.5,11.0 A 0.5,0.5 0.0 1,0 13.5,10.0 L 12.5,10.0 M 6.0,11.0 L 6.5,11.0 C 6.5833,11.0 6.7251,11.0571 6.834,11.166 C 6.9429,11.2749 7.0,11.4167 7.0,11.5 C 7.0,11.5833 6.9429,11.7251 6.834,11.834 C 6.7251,11.9429 6.5833,12.0 6.5,12.0 L 6.4414,12.0 A 0.5,0.5 0.0 0,0 6.3418,11.994 A 0.5,0.5 0.0 0,0 6.2812,12.0 L 6.0,12.0 L 6.0,11.0" fill="#000" /></svg>