<?xml version="1.0" encoding="utf-8" ?>
<svg baseProfile="full" height="16" version="1.1" width="16" xmlns="http://www.w3.org/2000/svg" xmlns:ev="http://www.w3.org/2001/xml-events" xmlns:xlink="http://www.w3.org/1999/xlink"><defs /><path d="M 4.5,3.0 C 4.223,3.0 4.0,3.223 4.0,3.5 L 4.0,12.5 C 4.0,12.777 4.223,13.0 4.5,13.0 L 5.5,13.0 C 5.777,13.0 6.0,12.777 6.0,12.5 L 6.0,9.0 L 10.0,9.0 L 10.0,12.5 C 10.0,12.777 10.223,13.0 10.5,13.0 L 11.5,13.0 C 11.777,13.0 12.0,12.777 12.0,12.5 L 12.0,3.5 C 12.0,3.223 11.777,3.0 11.5,3.0 L 10.5,3.0 C 10.223,3.0 10.0,3.223 10.0,3.5 L 10.0,7.0 L 6.0,7.0 L 6.0,3.5 C 6.0,3.223 5.777,3.0 5.5,3.0 L 4.5,3.0" fill="#000" /></svg>