<?xml version="1.0" encoding="utf-8" ?>
<svg baseProfile="full" height="16" version="1.1" width="16" xmlns="http://www.w3.org/2000/svg" xmlns:ev="http://www.w3.org/2001/xml-events" xmlns:xlink="http://www.w3.org/1999/xlink"><defs /><path d="M 3.0,4.0 C 2.4167,4.0 1.8893,4.1536 1.5215,4.5215 C 1.1536,4.8893 1.0,5.4167 1.0,6.0 L 1.0,8.5 A 0.5,0.5 0.0 0,0 1.5,9.0 L 2.0508,9.0 C 2.0176,9.1618 2.0,9.3288 2.0,9.5 C 2.0,10.8748 3.1252,12.0 4.5,12.0 C 5.8748,12.0 7.0,10.8748 7.0,9.5 C 7.0,9.2179 7.2179,9.0 7.5,9.0 C 7.782,9.0 8.0,9.2179 8.0,9.5 C 8.0,10.8748 9.1252,12.0 10.5,12.0 C 11.8748,12.0 13.0,10.8748 13.0,9.5 C 13.0,9.3288 12.9824,9.1618 12.9492,9.0 L 13.5,9.0 A 0.5,0.5 0.0 0,0 14.0,8.5 L 14.0,6.0 C 14.0,5.4167 13.8464,4.8893 13.4785,4.5215 C 13.1107,4.1536 12.5833,4.0 12.0,4.0 A 0.5,0.5 0.0 0,0 11.5,4.5 A 0.5,0.5 0.0 0,0 12.0,5.0 C 12.4167,5.0 12.6393,5.0964 12.7715,5.2285 C 12.9036,5.3607 13.0,5.5833 13.0,6.0 L 13.0,8.0 L 12.5,8.0 A 0.5,0.5 0.0 0,0 12.498,8.0 C 12.0407,7.3931 11.3137,7.0 10.5,7.0 C 9.5774,7.0 8.7671,7.507 8.3339,8.2559 C 8.0949,8.0943 7.8075,8.0 7.5,8.0 C 7.1925,8.0 6.9051,8.0943 6.666,8.2559 C 6.2328,7.507 5.4226,7.0 4.5,7.0 C 3.6862,7.0 2.9592,7.3931 2.502,8.0 A 0.5,0.5 0.0 0,0 2.5,8.0 L 2.0,8.0 L 2.0,6.0 C 2.0,5.5833 2.0964,5.3607 2.2285,5.2285 C 2.3607,5.0964 2.5833,5.0 3.0,5.0 A 0.5,0.5 0.0 0,0 3.5,4.5 A 0.5,0.5 0.0 0,0 3.0,4.0 M 4.5,8.0 C 5.3343,8.0 6.0,8.6656 6.0,9.5 C 6.0,10.3344 5.3343,11.0 4.5,11.0 C 3.6657,11.0 3.0,10.3344 3.0,9.5 C 3.0,8.6656 3.6657,8.0 4.5,8.0 M 10.5,8.0 C 11.3343,8.0 12.0,8.6656 12.0,9.5 C 12.0,10.3344 11.3343,11.0 10.5,11.0 C 9.6657,11.0 9.0,10.3344 9.0,9.5 C 9.0,8.6656 9.6657,8.0 10.5,8.0" fill="#000" /></svg>