<?xml version="1.0" encoding="utf-8" ?>
<svg baseProfile="full" height="16" version="1.1" width="16" xmlns="http://www.w3.org/2000/svg" xmlns:ev="http://www.w3.org/2001/xml-events" xmlns:xlink="http://www.w3.org/1999/xlink"><defs /><path d="M 5.0,2.0 A 1.0,1.0 0.0 0,0 4.0,3.0 A 1.0,1.0 0.0 0,0 5.0,4.0 A 1.0,1.0 0.0 0,0 6.0,3.0 A 1.0,1.0 0.0 0,0 5.0,2.0 M 10.0,2.0 A 1.0,1.0 0.0 0,0 9.0,3.0 A 1.0,1.0 0.0 0,0 10.0,4.0 A 1.0,1.0 0.0 0,0 11.0,3.0 A 1.0,1.0 0.0 0,0 10.0,2.0 M 3.5,5.0 C 3.223,5.0 3.0,5.223 3.0,5.5 L 3.0,7.5 C 3.0,7.777 3.223,8.0 3.5,8.0 L 4.0,8.0 L 4.0,10.0 L 1.5,10.0 A 0.5,0.5 0.0 0,0 1.2773,10.9473 L 3.2773,11.9473 A 0.5,0.5 0.0 0,0 3.5,12.0 L 11.5,12.0 A 0.5,0.5 0.0 0,0 11.7227,11.9473 L 13.7227,10.9473 A 0.5,0.5 0.0 0,0 13.5,10.0 L 11.0,10.0 L 11.0,8.0 L 11.5,8.0 C 11.777,8.0 12.0,7.777 12.0,7.5 L 12.0,5.5 C 12.0,5.223 11.777,5.0 11.5,5.0 L 8.5,5.0 C 8.223,5.0 8.0,5.223 8.0,5.5 L 8.0,7.5 C 8.0,7.777 8.223,8.0 8.5,8.0 L 9.0,8.0 L 9.0,10.0 L 6.0,10.0 L 6.0,8.0 L 6.5,8.0 C 6.777,8.0 7.0,7.777 7.0,7.5 L 7.0,5.5 C 7.0,5.223 6.777,5.0 6.5,5.0 L 3.5,5.0 M 3.0,13.25 A 0.5,0.5 0.0 0,0 2.6465,13.3965 C 2.2054,13.8376 1.8333,14.0 1.5,14.0 A 0.5,0.5 0.0 0,0 1.0,14.5 A 0.5,0.5 0.0 0,0 1.5,15.0 C 2.0394,15.0 2.5273,14.6558 3.0,14.2754 C 3.4696,14.6539 3.9564,15.0 4.5,15.0 C 5.0394,15.0 5.5273,14.6558 6.0,14.2754 C 6.4727,14.6558 6.9606,15.0 7.5,15.0 C 8.0394,15.0 8.5273,14.6558 9.0,14.2754 C 9.4696,14.6539 9.9564,15.0 10.5,15.0 C 11.0394,15.0 11.5273,14.6558 12.0,14.2754 C 12.4727,14.6558 12.9606,15.0 13.5,15.0 A 0.5,0.5 0.0 0,0 14.0,14.5 A 0.5,0.5 0.0 0,0 13.5,14.0 C 13.1667,14.0 12.7946,13.8376 12.3535,13.3965 A 0.5,0.5 0.0 0,0 11.6465,13.3965 C 11.2054,13.8376 10.8333,14.0 10.5,14.0 C 10.1718,14.0 9.7859,13.8289 9.3535,13.3965 A 0.5,0.5 0.0 0,0 8.6465,13.3965 C 8.2054,13.8376 7.8333,14.0 7.5,14.0 C 7.1667,14.0 6.7946,13.8376 6.3535,13.3965 A 0.5,0.5 0.0 0,0 5.6465,13.3965 C 5.2054,13.8376 4.8333,14.0 4.5,14.0 C 4.1718,14.0 3.7859,13.8289 3.3535,13.3965 A 0.5,0.5 0.0 0,0 3.0,13.25" fill="#000" /></svg>