<?xml version="1.0" encoding="utf-8" ?>
<svg baseProfile="full" height="16" version="1.1" width="16" xmlns="http://www.w3.org/2000/svg" xmlns:ev="http://www.w3.org/2001/xml-events" xmlns:xlink="http://www.w3.org/1999/xlink"><defs /><path d="M 7.0,2.0 C 6.446,2.0 6.0,2.446 6.0,3.0 C 5.446,3.0 5.0,3.446 5.0,4.0 L 5.0,5.0 C 4.446,5.0 4.0,5.446 4.0,6.0 L 4.0,8.0 C 4.0,8.554 4.446,9.0 5.0,9.0 C 5.0,9.554 5.446,10.0 6.0,10.0 L 7.0,12.0 L 7.0,15.0 L 9.0,15.0 L 9.0,12.0 L 10.0,10.0 C 10.554,10.0 11.0,9.554 11.0,9.0 C 11.554,9.0 12.0,8.554 12.0,8.0 L 12.0,6.0 C 12.0,5.446 11.554,5.0 11.0,5.0 L 11.0,4.0 C 11.0,3.446 10.554,3.0 10.0,3.0 C 10.0,2.446 9.554,2.0 9.0,2.0 L 7.0,2.0 M 7.0,10.0 L 9.0,10.0 L 8.0,11.5 L 7.0,10.0" fill="#000" /></svg>