<?xml version="1.0" encoding="utf-8" ?>
<svg baseProfile="full" height="16" version="1.1" width="16" xmlns="http://www.w3.org/2000/svg" xmlns:ev="http://www.w3.org/2001/xml-events" xmlns:xlink="http://www.w3.org/1999/xlink"><defs /><path d="M 7.5,3.0 A 1.5,1.5 0.0 0,0 6.0,4.5 A 1.5,1.5 0.0 0,0 7.5,6.0 A 1.5,1.5 0.0 0,0 9.0,4.5 A 1.5,1.5 0.0 0,0 7.5,3.0 M 3.5,10.0 A 1.5,1.5 0.0 0,0 2.0,11.5 A 1.5,1.5 0.0 0,0 3.5,13.0 A 1.5,1.5 0.0 0,0 5.0,11.5 A 1.5,1.5 0.0 0,0 3.5,10.0 M 11.5,10.0 A 1.5,1.5 0.0 0,0 10.0,11.5 A 1.5,1.5 0.0 0,0 11.5,13.0 A 1.5,1.5 0.0 0,0 13.0,11.5 A 1.5,1.5 0.0 0,0 11.5,10.0" fill="#000" /></svg>