<?xml version="1.0" encoding="utf-8" ?>
<svg baseProfile="full" height="16" version="1.1" width="16" xmlns="http://www.w3.org/2000/svg" xmlns:ev="http://www.w3.org/2001/xml-events" xmlns:xlink="http://www.w3.org/1999/xlink"><defs /><path d="M 4.5,2.0 C 4.223,2.0 4.0,2.223 4.0,2.5 L 4.0,4.0 L 12.0,4.0 L 12.0,2.5 C 12.0,2.223 11.777,2.0 11.5,2.0 L 4.5,2.0 M 4.0,5.0 L 4.0,13.5 C 4.0,13.777 4.223,14.0 4.5,14.0 L 11.5,14.0 C 11.777,14.0 12.0,13.777 12.0,13.5 L 12.0,5.0 L 4.0,5.0 M 7.0,6.0 L 9.0,6.0 L 9.0,8.0 L 11.0,8.0 L 11.0,10.0 L 9.0,10.0 L 9.0,12.0 L 7.0,12.0 L 7.0,10.0 L 5.0,10.0 L 5.0,8.0 L 7.0,8.0 L 7.0,6.0" fill="#000" /></svg>