<?xml version="1.0" encoding="utf-8" ?>
<svg baseProfile="full" height="16" version="1.1" width="16" xmlns="http://www.w3.org/2000/svg" xmlns:ev="http://www.w3.org/2001/xml-events" xmlns:xlink="http://www.w3.org/1999/xlink"><defs /><path d="M 7.5039,1.0 A 0.5,0.5 0.0 0,0 7.0527,1.2773 L 6.0527,3.2773 A 0.5,0.5 0.0 0,0 6.0,3.5 L 6.0,4.0 L 3.5,4.0 A 0.5,0.5 0.0 1,0 3.5,5.0 L 6.0,5.0 L 6.0,6.0 L 3.5,6.0 A 0.5,0.5 0.0 1,0 3.5,7.0 L 6.0,7.0 L 6.0,8.0 L 3.5,8.0 A 0.5,0.5 0.0 1,0 3.5,9.0 L 6.0,9.0 L 6.0,10.0 L 3.5,10.0 A 0.5,0.5 0.0 1,0 3.5,11.0 L 5.6914,11.0 L 4.0527,14.2773 A 0.5,0.5 0.0 1,0 4.9473,14.7227 L 5.3086,14.0 L 9.6914,14.0 L 10.0527,14.7227 A 0.5,0.5 0.0 1,0 10.9473,14.2773 L 9.3086,11.0 L 11.5,11.0 A 0.5,0.5 0.0 1,0 11.5,10.0 L 9.0,10.0 L 9.0,9.0 L 11.5,9.0 A 0.5,0.5 0.0 1,0 11.5,8.0 L 9.0,8.0 L 9.0,7.0 L 11.5,7.0 A 0.5,0.5 0.0 1,0 11.5,6.0 L 9.0,6.0 L 9.0,5.0 L 11.5,5.0 A 0.5,0.5 0.0 1,0 11.5,4.0 L 9.0,4.0 L 9.0,3.5 A 0.5,0.5 0.0 0,0 8.9473,3.2773 L 7.9473,1.2773 A 0.5,0.5 0.0 0,0 7.5039,1.0 M 7.4999,2.6172 L 7.9999,3.6172 L 7.9999,4.0 L 6.9999,4.0 L 6.9999,3.6172 L 7.4999,2.6172 M 7.0,5.0 L 8.0,5.0 L 8.0,6.0 L 7.0,6.0 L 7.0,5.0 M 7.0,7.0 L 8.0,7.0 L 8.0,8.0 L 7.0,8.0 L 7.0,7.0 M 7.0,9.0 L 8.0,9.0 L 8.0,10.0 L 7.0,10.0 L 7.0,9.0 M 6.8086,11.0 L 8.1914,11.0 L 9.1914,13.0 L 5.8086,13.0 L 6.8086,11.0" fill="#000" /></svg>