<?xml version="1.0" encoding="utf-8" ?>
<svg baseProfile="full" height="16" version="1.1" width="16" xmlns="http://www.w3.org/2000/svg" xmlns:ev="http://www.w3.org/2001/xml-events" xmlns:xlink="http://www.w3.org/1999/xlink"><defs /><path d="M 8.0,6.0 C 6.6167,6.0 5.8184,6.6042 5.1426,7.0957 C 4.4667,7.5872 3.8889,8.0 2.5,8.0 C 2.483,8.0005 2.466,8.002 2.4492,8.004 C 2.4,8.01 2.3519,8.0231 2.3066,8.0431 C 2.2913,8.0491 2.2763,8.0567 2.2617,8.0646 C 2.2176,8.089 2.1774,8.12 2.1426,8.1564 C 2.1315,8.1689 2.1211,8.182 2.1114,8.1955 C 2.101,8.2087 2.0912,8.2223 2.0821,8.2365 C 2.0731,8.2504 2.0658,8.2648 2.0587,8.2795 C 2.0367,8.3245 2.0215,8.3726 2.0138,8.4221 C 2.0108,8.4389 2.0088,8.4559 2.0078,8.4729 C 2.0058,8.5061 2.0071,8.5395 2.0118,8.5725 C 2.0148,8.5889 2.0178,8.6052 2.0218,8.6213 C 2.0298,8.6536 2.0409,8.685 2.055,8.715 C 2.1056,8.8213 2.192,8.9064 2.2991,8.9552 C 2.3144,8.9622 2.3301,8.9677 2.346,8.9728 C 2.3777,8.9839 2.4104,8.9917 2.4437,8.9962 C 2.4624,8.9982 2.4812,9.0002 2.5,9.0002 L 13.5,9.0002 C 13.517,8.9998 13.534,8.9982 13.5508,8.9962 C 13.5672,8.9942 13.5835,8.9912 13.5996,8.9882 C 13.6649,8.9739 13.7267,8.9467 13.7813,8.9081 C 13.8088,8.8892 13.8343,8.8676 13.8575,8.8437 C 13.8686,8.8312 13.879,8.8182 13.8887,8.8046 C 13.9192,8.7648 13.9436,8.7207 13.961,8.6738 C 13.9726,8.6428 13.9811,8.6108 13.9864,8.5781 C 13.9894,8.5613 13.9914,8.5443 13.9924,8.5273 C 13.9932,8.511 13.9932,8.4948 13.9924,8.4785 C 13.9919,8.4615 13.9904,8.4445 13.9884,8.4277 C 13.9854,8.4113 13.9824,8.395 13.9784,8.3789 C 13.9704,8.3466 13.9594,8.3152 13.9452,8.2852 C 13.9382,8.2705 13.9303,8.2561 13.9218,8.2422 C 13.9128,8.2274 13.903,8.213 13.8925,8.1992 C 13.8728,8.173 13.8505,8.1488 13.8261,8.1269 C 13.8136,8.1159 13.8006,8.1054 13.787,8.0957 C 13.7731,8.0857 13.7588,8.0768 13.744,8.0684 C 13.7155,8.0518 13.6854,8.0381 13.6542,8.0274 C 13.6382,8.0224 13.6219,8.0174 13.6054,8.0137 C 13.5709,8.0057 13.5355,8.001 13.5,8.0003 C 12.1111,8.0003 11.5333,7.5875 10.8574,7.096 C 10.1816,6.6042 9.3833,6.0 8.0,6.0" fill="#000" /></svg>