<?xml version="1.0" encoding="utf-8" ?>
<svg baseProfile="full" height="16" version="1.1" width="16" xmlns="http://www.w3.org/2000/svg" xmlns:ev="http://www.w3.org/2001/xml-events" xmlns:xlink="http://www.w3.org/1999/xlink"><defs /><path d="m 2,468 v 0.5 1 0.5 h 0.5 c 0.277,0 0.5,-0.223 0.5,-0.5 v -1 C 3,468.223 2.777,468 2.5,468 Z m 2.5,0 C 4.223,468 4,468.223 4,468.5 v 1 c 0,0.277 0.223,0.5 0.5,0.5 h 3 c 0.277,0 0.5,-0.223 0.5,-0.5 v -1 C 8,468.223 7.777,468 7.5,468 Z m 5,0 C 9.223,468 9,468.223 9,468.5 v 1 c 0,0.277 0.223,0.5 0.5,0.5 h 3 c 0.277,0 0.5,-0.223 0.5,-0.5 v -1 c 0,-0.277 -0.223,-0.5 -0.5,-0.5 z m -7,3 C 2.223,471 2,471.223 2,471.5 v 1 c 0,0.277 0.223,0.5 0.5,0.5 h 3 c 0.277,0 0.5,-0.223 0.5,-0.5 v -1 C 6,471.223 5.777,471 5.5,471 Z m 5,0 C 7.223,471 7,471.223 7,471.5 v 1 c 0,0.277 0.223,0.5 0.5,0.5 h 3 c 0.277,0 0.5,-0.223 0.5,-0.5 v -1 c 0,-0.277 -0.223,-0.5 -0.5,-0.5 z m 5,0 c -0.277,0 -0.5,0.223 -0.5,0.5 v 1 c 0,0.277 0.223,0.5 0.5,0.5 H 13 v -0.5 -1 -0.5 z M 2,474 v 0.5 1 0.5 h 0.5 1 c 0.277,0 0.5,-0.223 0.5,-0.5 v -1 C 4,474.223 3.777,474 3.5,474 h -1 z m 3.5,0 C 5.223,474 5,474.223 5,474.5 v 1 c 0,0.277 0.223,0.5 0.5,0.5 h 3 c 0.277,0 0.5,-0.223 0.5,-0.5 v -1 C 9,474.223 8.777,474 8.5,474 Z m 5,0 c -0.277,0 -0.5,0.223 -0.5,0.5 v 1 c 0,0.277 0.223,0.5 0.5,0.5 h 2 0.5 v -0.5 -1 -0.5 h -0.5 z" fill="#000" transform="translate(8.0,8.0) translate(-8.0,-472.0)" /></svg>