<?xml version="1.0" encoding="utf-8" ?>
<svg baseProfile="full" height="16" version="1.1" width="16" xmlns="http://www.w3.org/2000/svg" xmlns:ev="http://www.w3.org/2001/xml-events" xmlns:xlink="http://www.w3.org/1999/xlink"><defs /><path d="M 3.0,4.0 L 3.0,4.5 A 0.5,0.5 0.0 0,0 3.5,5.0 L 11.5,5.0 A 0.5,0.5 0.0 0,0 12.0,4.5 L 12.0,4.0 L 3.0,4.0 M 3.5,6.0 C 3.2239,6.0 3.0,6.2239 3.0,6.5 C 3.0,8.9794 5.0206,11.0 7.5,11.0 C 9.9794,11.0 12.0,8.9794 12.0,6.5 C 12.0,6.2239 11.7761,6.0 11.5,6.0 L 7.5,6.0 L 3.5,6.0 M 7.5,9.0 A 1.5,1.5 0.0 0,1 8.7969,9.7441 C 8.3993,9.9083 7.963,10.0 7.5,10.0 C 7.0379,10.0 6.602,9.9097 6.2051,9.7461 A 1.5,1.5 0.0 0,1 7.5,9.0" fill="#000" /></svg>