<?xml version="1.0" encoding="utf-8" ?>
<svg baseProfile="full" height="16" version="1.1" width="16" xmlns="http://www.w3.org/2000/svg" xmlns:ev="http://www.w3.org/2001/xml-events" xmlns:xlink="http://www.w3.org/1999/xlink"><defs /><path d="M 3.0,3.0 L 3.0,14.0 L 13.0,14.0 L 13.0,3.0 L 3.0,3.0 M 5.5,4.5 C 6.0523,4.5 6.5,4.9477 6.5,5.5 C 6.5,5.865 6.292,6.1691 6.0,6.3438 L 6.0,8.0 C 6.0,8.5582 6.4418,9.0 7.0,9.0 L 9.0,9.0 C 9.5582,9.0 10.0,8.5582 10.0,8.0 L 10.0,6.3438 C 9.708,6.1691 9.5,5.865 9.5,5.5 C 9.5,4.9477 9.9477,4.5 10.5,4.5 C 11.0523,4.5 11.5,4.9477 11.5,5.5 C 11.5,5.865 11.292,6.1691 11.0,6.3438 L 11.0,8.0 C 11.0,9.0987 10.0987,10.0 9.0,10.0 L 7.0,10.0 C 5.9013,10.0 5.0,9.0987 5.0,8.0 L 5.0,6.3438 C 4.708,6.1691 4.5,5.865 4.5,5.5 C 4.5,4.9477 4.9477,4.5 5.5,4.5" fill="#000" /></svg>