<?xml version="1.0" encoding="utf-8" ?>
<svg baseProfile="full" height="16" version="1.1" width="16" xmlns="http://www.w3.org/2000/svg" xmlns:ev="http://www.w3.org/2001/xml-events" xmlns:xlink="http://www.w3.org/1999/xlink"><defs /><path d="m 102.4375,435.38867 c -0.52058,0.0465 -1.01965,0.29744 -1.4375,0.61133 -1.21434,0.91221 -2,2.36426 -2,4 0,2.76142 2.23858,4.5 5,4.5 2.76142,0 5,-1.73858 5,-4.5 0,-1.62788 -0.77802,-3.07329 -1.98242,-3.98633 C 106.17892,435.37798 105,435 104,436 c -0.5,-0.5 -1.04192,-0.6578 -1.5625,-0.61133 z M 104,437.5 c 2,1.5 2,3.5 0,5 -2,-1.5 -2,-3.5 0,-5 z" fill="#000" transform="translate(8.0,8.0) translate(-104.0,-440.0)" /></svg>