<svg xmlns="http://www.w3.org/2000/svg" width="16" height="16"><path d="M 4.0293,2.0 A 2.0,2.0 0.0 0,0 2.5859,2.5859 A 2.0,2.0 0.0 0,0 2.1523,4.7656 A 2.0,2.0 0.0 0,0 4.0,6.0 L 5.0,6.0 L 5.0,10.0 L 4.0,10.0 A 2.0,2.0 0.0 0,0 2.1523,11.2344 A 2.0,2.0 0.0 0,0 2.5859,13.4141 A 2.0,2.0 0.0 0,0 4.7656,13.8477 A 2.0,2.0 0.0 0,0 6.0,12.0 L 6.0,11.0 L 10.0,11.0 L 10.0,12.0 A 2.0,2.0 0.0 0,0 11.2344,13.8477 A 2.0,2.0 0.0 0,0 13.4141,13.4141 A 2.0,2.0 0.0 0,0 13.8477,11.2344 A 2.0,2.0 0.0 0,0 12.0,10.0 L 11.0,10.0 L 11.0,6.0 L 12.0,6.0 A 2.0,2.0 0.0 0,0 13.8477,4.7656 A 2.0,2.0 0.0 0,0 13.4141,2.5859 A 2.0,2.0 0.0 0,0 12.0137,2.0 A 2.0,2.0 0.0 0,0 11.2344,2.1523 A 2.0,2.0 0.0 0,0 10.0,4.0 L 10.0,5.0 L 6.0,5.0 L 6.0,4.0 A 2.0,2.0 0.0 0,0 4.7656,2.1523 A 2.0,2.0 0.0 0,0 4.0293,2.0 M 4.0,3.0 A 1.0,1.0 0.0 0,1 5.0,4.0 L 5.0,5.0 L 4.0,5.0 A 1.0,1.0 0.0 0,1 3.0,4.0 A 1.0,1.0 0.0 0,1 4.0,3.0 M 12.0,3.0 A 1.0,1.0 0.0 0,1 13.0,4.0 A 1.0,1.0 0.0 0,1 12.0,5.0 L 11.0,5.0 L 11.0,4.0 A 1.0,1.0 0.0 0,1 12.0,3.0 M 6.0,6.0 L 10.0,6.0 L 10.0,10.0 L 6.0,10.0 L 6.0,6.0 M 4.0,11.0 L 5.0,11.0 L 5.0,12.0 A 1.0,1.0 0.0 0,1 4.0,13.0 A 1.0,1.0 0.0 0,1 3.0,12.0 A 1.0,1.0 0.0 0,1 4.0,11.0 M 11.0,11.0 L 12.0,11.0 A 1.0,1.0 0.0 0,1 13.0,12.0 A 1.0,1.0 0.0 0,1 12.0,13.0 A 1.0,1.0 0.0 0,1 11.0,12.0 L 11.0,11.0" fill="#000" /></svg>