<svg xmlns="http://www.w3.org/2000/svg" width="16" height="16"><path d="M 7.5,1.5 C 7.223,1.5 7.0,1.723 7.0,2.0 L 7.0,2.0254 C 5.8592,2.1291 4.8179,2.5821 3.9844,3.2773 L 3.9649,3.2578 C 3.769,3.0619 3.4537,3.0619 3.2578,3.2578 C 3.062,3.4537 3.062,3.769 3.2578,3.9648 L 3.2773,3.9844 C 2.5821,4.8179 2.1291,5.8592 2.0254,7.0 L 2.0,7.0 C 1.723,7.0 1.5,7.223 1.5,7.5 C 1.5,7.777 1.723,8.0 2.0,8.0 L 2.0254,8.0 C 2.1291,9.1408 2.5821,10.1821 3.2773,11.0156 L 3.2578,11.0352 C 3.062,11.231 3.062,11.5463 3.2578,11.7422 C 3.4537,11.9381 3.769,11.9381 3.9649,11.7422 L 3.9844,11.7227 C 4.8179,12.4179 5.8592,12.8709 7.0,12.9746 L 7.0,13.0 C 7.0,13.277 7.223,13.5 7.5,13.5 C 7.777,13.5 8.0,13.277 8.0,13.0 L 8.0,12.9746 C 9.1408,12.8709 10.1821,12.4179 11.0156,11.7227 L 11.0351,11.7422 C 11.231,11.9381 11.5463,11.9381 11.7422,11.7422 C 11.938,11.5463 11.938,11.231 11.7422,11.0352 L 11.7227,11.0156 C 12.4179,10.1821 12.8709,9.1408 12.9746,8.0 L 13.0,8.0 C 13.277,8.0 13.5,7.777 13.5,7.5 C 13.5,7.223 13.277,7.0 13.0,7.0 L 12.9746,7.0 C 12.8709,5.8592 12.4179,4.8179 11.7227,3.9844 L 11.7422,3.9648 C 11.938,3.769 11.938,3.4537 11.7422,3.2578 C 11.5463,3.0619 11.231,3.0619 11.0351,3.2578 L 11.0156,3.2773 C 10.1821,2.5821 9.1408,2.1291 8.0,2.0254 L 8.0,2.0 C 8.0,1.723 7.777,1.5 7.5,1.5 M 7.0,3.0508 L 7.0,6.0879 A 1.5,1.5 0.0 0,0 6.8555,6.1484 L 4.7031,3.9961 C 5.3483,3.481 6.1337,3.1473 7.0,3.0508 L 7.0,3.0508 M 8.0,3.0508 C 8.8663,3.1473 9.6517,3.481 10.2969,3.9961 L 8.1445,6.1484 A 1.5,1.5 0.0 0,0 8.0,6.0879 L 8.0,3.0508 M 3.9961,4.7031 L 6.1484,6.8555 A 1.5,1.5 0.0 0,0 6.0879,7.0 L 3.0508,7.0 C 3.1473,6.1337 3.481,5.3483 3.9961,4.7031 M 11.0039,4.7031 C 11.519,5.3483 11.8527,6.1337 11.9492,7.0 L 8.9121,7.0 A 1.5,1.5 0.0 0,0 8.8515,6.8555 L 11.0039,4.7031 L 11.0039,4.7031 M 7.5,6.793 A 0.7071,0.7071 0.0 0,1 8.207,7.5 A 0.7071,0.7071 0.0 0,1 7.5,8.207 A 0.7071,0.7071 0.0 0,1 6.793,7.5 A 0.7071,0.7071 0.0 0,1 7.5,6.793 M 3.0508,8.0 L 6.0879,8.0 A 1.5,1.5 0.0 0,0 6.1485,8.1445 L 3.9961,10.2969 C 3.481,9.6517 3.1473,8.8663 3.0508,8.0 M 8.9121,8.0 L 11.9492,8.0 C 11.8527,8.8663 11.519,9.6517 11.0039,10.2969 L 8.8516,8.1445 A 1.5,1.5 0.0 0,0 8.9121,8.0 M 6.8555,8.8516 A 1.5,1.5 0.0 0,0 7.0,8.9121 L 7.0,11.9492 C 6.1337,11.8527 5.3483,11.519 4.7031,11.0039 L 6.8555,8.8516 L 6.8555,8.8516 M 8.1445,8.8516 L 10.2969,11.0039 C 9.6517,11.519 8.8663,11.8527 8.0,11.9492 L 8.0,8.9121 A 1.5,1.5 0.0 0,0 8.1445,8.8516 L 8.1445,8.8516" fill="#000" /></svg>