<?xml version="1.0" encoding="utf-8" ?>
<svg baseProfile="full" height="16" version="1.1" width="16" xmlns="http://www.w3.org/2000/svg" xmlns:ev="http://www.w3.org/2001/xml-events" xmlns:xlink="http://www.w3.org/1999/xlink"><defs /><path d="M 5.0,3.0 C 3.5,3.0 3.0,3.2281 3.0,4.0 C 3.0,5.5 3.0,7.0 4.0,8.0 C 4.0,10.0 4.5,11.5 5.0,12.5 C 5.4472,13.3944 6.0,13.5 6.0,12.5 C 6.0,11.0 6.5,8.0 8.0,8.0 C 9.5,8.0 10.0,11.0 10.0,12.5 C 10.0,13.5 10.5528,13.3944 11.0,12.5 C 11.5,11.5 12.0,10.0 12.0,8.0 C 13.0,7.0 13.0,5.5 13.0,4.0 C 13.0,3.2281 12.5,3.0 11.0,3.0 C 9.5,3.0 9.5,4.0 8.0,4.0 C 6.5,4.0 6.5,3.0 5.0,3.0" fill="#000" /></svg>