<?xml version="1.0" encoding="utf-8" ?>
<svg baseProfile="full" height="16" version="1.1" width="16" xmlns="http://www.w3.org/2000/svg" xmlns:ev="http://www.w3.org/2001/xml-events" xmlns:xlink="http://www.w3.org/1999/xlink"><defs /><path d="M 328.01562,209.98633 A 1.0001,1.0001 0 0 1 329,211 v 5 h 1 c 0.16667,0 0.4501,-0.11417 0.66797,-0.33203 C 330.88583,215.4501 331,215.16667 331,215 v -2 a 1.0001,1.0001 0 0 1 1.01562,-1.01367 A 1.0001,1.0001 0 0 1 333,213 v 2 c 0,0.83333 -0.38583,1.5499 -0.91797,2.08203 C 331.5499,217.61417 330.83333,218 330,218 h -1 v 2 1 1 h -0.83203 a 1.0001,1.0001 0 0 1 -0.32617,0 H 327 v -1 -1 -1 h -1 c -0.83333,0 -1.5499,-0.38583 -2.08203,-0.91797 C 323.38583,217.5499 323,216.83333 323,216 v -2 a 1.0001,1.0001 0 0 1 1.01562,-1.01367 A 1.0001,1.0001 0 0 1 325,214 v 2 c 0,0.16667 0.11417,0.4501 0.33203,0.66797 C 325.5499,216.88583 325.83333,217 326,217 h 1 v -6 a 1.0001,1.0001 0 0 1 1.01562,-1.01367 z" fill="#000" transform="translate(8.0,8.0) translate(-328.0,-216.0)" /></svg>