<?xml version="1.0" encoding="utf-8" ?>
<svg baseProfile="full" height="16" version="1.1" width="16" xmlns="http://www.w3.org/2000/svg" xmlns:ev="http://www.w3.org/2001/xml-events" xmlns:xlink="http://www.w3.org/1999/xlink"><defs /><path d="M 7.5,435 C 7.223,435 7,435.223 7,435.5 v 3 c 0,0.277 0.223,0.5 0.5,0.5 0.277,0 0.5,-0.223 0.5,-0.5 v -3 C 8,435.223 7.777,435 7.5,435 Z m -2,4 A 1.5,1.5 0 0 0 4,440.5 1.5,1.5 0 0 0 5.5,442 1.5,1.5 0 0 0 7,440.5 1.5,1.5 0 0 0 5.5,439 Z m 4,0 A 1.5,1.5 0 0 0 8,440.5 1.5,1.5 0 0 0 9.5,442 1.5,1.5 0 0 0 11,440.5 1.5,1.5 0 0 0 9.5,439 Z m -2,3 A 1.5,1.5 0 0 0 6,443.5 1.5,1.5 0 0 0 7.5,445 1.5,1.5 0 0 0 9,443.5 1.5,1.5 0 0 0 7.5,442 Z" fill="#000" transform="translate(8.0,8.0) translate(-8.0,-440.0)" /></svg>