<?xml version="1.0" encoding="utf-8" ?>
<svg baseProfile="full" height="16" version="1.1" width="16" xmlns="http://www.w3.org/2000/svg" xmlns:ev="http://www.w3.org/2001/xml-events" xmlns:xlink="http://www.w3.org/1999/xlink"><defs /><path d="M 1.5,1.0 A 0.5,0.5 0.0 0,0 1.0,1.5 L 1.0,11.5 L 1.0,13.5 A 0.5,0.5 0.0 0,0 1.5,14.0 A 0.5,0.5 0.0 0,0 2.0,13.5 L 2.0,12.0 L 14.0,12.0 L 14.0,13.5 A 0.5,0.5 0.0 0,0 14.5,14.0 A 0.5,0.5 0.0 0,0 15.0,13.5 L 15.0,11.5 L 15.0,3.5 A 0.5,0.5 0.0 0,0 14.5,3.0 A 0.5,0.5 0.0 0,0 14.0,3.5 L 14.0,5.0 L 2.0,5.0 L 2.0,1.5 A 0.5,0.5 0.0 0,0 1.5,1.0 M 4.0,2.0 A 1.0,1.0 0.0 0,0 3.0,3.0 A 1.0,1.0 0.0 0,0 4.0,4.0 L 5.0,4.0 A 1.0,1.0 0.0 0,0 6.0,3.0 A 1.0,1.0 0.0 0,0 5.0,2.0 L 4.0,2.0 M 7.4512,2.002 A 0.5,0.5 0.0 0,0 7.0,2.5 L 7.0,3.5 A 0.5,0.5 0.0 0,0 7.5,4.0 L 12.5,4.0 A 0.5,0.5 0.0 0,0 12.5977,3.0098 L 7.5977,2.0098 A 0.5,0.5 0.0 0,0 7.4512,2.0018 L 7.4512,2.002 M 2.0,6.0 L 14.0,6.0 L 14.0,11.0 L 2.0,11.0 L 2.0,6.0 M 4.0,8.0 A 1.0,1.0 0.0 0,0 3.0,9.0 A 1.0,1.0 0.0 0,0 4.0,10.0 L 5.0,10.0 A 1.0,1.0 0.0 0,0 6.0,9.0 A 1.0,1.0 0.0 0,0 5.0,8.0 L 4.0,8.0 M 7.4512,8.002 A 0.5,0.5 0.0 0,0 7.0,8.5 L 7.0,9.5 A 0.5,0.5 0.0 0,0 7.5,10.0 L 12.5,10.0 A 0.5,0.5 0.0 0,0 12.5977,9.0098 L 7.5977,8.0098 A 0.5,0.5 0.0 0,0 7.4512,8.0018 L 7.4512,8.002" fill="#000" /></svg>