<svg xmlns="http://www.w3.org/2000/svg" width="16" height="16"><path d="M 7.5781,1.6406 C 6.3932,2.0918 5.9868,3.2986 6.0,4.5 C 6.0001,5.0358 6.286,5.5309 6.75,5.7988 C 7.2141,6.0668 7.7859,6.0668 8.25,5.7988 C 8.714,5.5309 8.9999,5.0358 9.0,4.5 C 9.0,3.6814 8.6322,3.1553 8.293,2.7031 C 8.297,3.1674 8.1175,3.511 7.877,3.7129 C 7.2402,3.1863 7.164,2.5121 7.5781,1.6406 M 3.0,7.0 A 4.5,4.5 0.0 0,0 3.9043,9.7051 L 3.0254,12.3418 A 0.5003,0.5003 0.0 0,0 3.9746,12.6582 L 4.6914,10.5078 A 4.5,4.5 0.0 0,0 5.25,10.8965 A 4.5,4.5 0.0 0,0 7.0,11.4668 L 7.0,12.5 A 0.5,0.5 0.0 1,0 8.0,12.5 L 8.0,11.4688 A 4.5,4.5 0.0 0,0 9.75,10.8965 A 4.5,4.5 0.0 0,0 10.3105,10.5137 L 11.0254,12.6582 A 0.5003,0.5003 0.0 0,0 11.9746,12.3418 L 11.0938,9.6992 A 4.5,4.5 0.0 0,0 12.0,7.0 L 3.0,7.0" fill="#000" /></svg>