<svg xmlns="http://www.w3.org/2000/svg" width="16" height="16"><path d="M 8.0938,3.0 C 8.6173,3.0245 9.0714,3.5233 9.0469,4.0469 C 9.0223,4.5705 8.5236,5.0245 8.0,5.0 C 6.3313,5.0 5.0,6.3313 5.0,8.0 C 5.0,9.6687 6.3313,11.0 8.0,11.0 C 9.6687,11.0 11.0,9.6687 11.0,8.0 C 9.0,8.0 9.0,8.0 9.0,8.0 L 12.0,5.0 L 15.0,8.0 C 15.0,8.0 15.0,8.0 13.0,8.0 C 13.0,10.7496 10.7496,13.0 8.0,13.0 C 5.2504,13.0 3.0,10.7496 3.0,8.0 C 3.0,5.2504 5.2504,3.0 8.0,3.0 C 8.0312,2.999 8.0625,2.999 8.0937,3.0 L 8.0938,3.0" fill="#000" /></svg>