<?xml version="1.0" encoding="utf-8" ?>
<svg baseProfile="full" height="16" version="1.1" width="16" xmlns="http://www.w3.org/2000/svg" xmlns:ev="http://www.w3.org/2001/xml-events" xmlns:xlink="http://www.w3.org/1999/xlink"><defs /><path d="M 8.0,3.0 L 8.0,4.0 C 8.0,4.3718 7.9539,4.6973 7.8848,5.0 L 8.5,5.0 A 0.5,0.5 0.0 1,1 8.5,6.0 L 7.4453,6.0 C 7.3406,6.1412 7.2209,6.2679 7.0859,6.3789 L 7.8535,7.1465 A 0.5,0.5 0.0 1,1 7.1465,7.8535 L 6.1465,6.8535 A 0.5,0.5 0.0 0,1 6.1445,6.8515 C 5.8064,6.9445 5.4311,7.0 5.0,7.0 L 4.0,7.0 C 3.0,7.0 2.0,8.0 2.0,9.0 L 2.0,10.0 L 13.0,10.0 L 13.0,3.0 L 8.0,3.0 M 2.0,11.0 L 2.0,12.0 L 8.0,12.0 L 8.0,11.0 L 2.0,11.0 M 9.0,11.0 L 9.0,12.0 L 13.0,12.0 L 13.0,11.0 L 9.0,11.0" fill="#000" /></svg>