<?xml version="1.0" encoding="utf-8" ?>
<svg baseProfile="full" height="16" version="1.1" width="16" xmlns="http://www.w3.org/2000/svg" xmlns:ev="http://www.w3.org/2001/xml-events" xmlns:xlink="http://www.w3.org/1999/xlink"><defs /><path d="M 7.5,8.0 C 7.2847,7.9999 7.0935,8.1376 7.0254,8.3418 C 6.557,9.7469 5.616,11.1551 4.2227,12.084 C 3.8113,12.3585 4.0054,12.9998 4.5,13.0 L 11.5,13.0 C 11.9946,12.9998 12.1887,12.3585 11.7773,12.084 C 10.384,11.1551 9.443,9.7469 8.9746,8.3418 C 8.9065,8.1376 8.7153,7.9999 8.5,8.0 L 7.5,8.0" fill="#000" /><path d="M 6.0,3.5 C 4.3922,3.5 3.0718,4.7793 3.0039,6.3711 C 3.0017,6.4135 3.0,6.457 3.0,6.5 A 0.5,0.5 0.0 0,0 3.0234,6.6445 A 0.5,0.5 0.0 0,0 3.0371,6.6777 A 0.5,0.5 0.0 0,0 3.0879,6.7773 A 0.5,0.5 0.0 0,0 3.1133,6.8105 A 0.5,0.5 0.0 0,0 3.1895,6.8867 A 0.5,0.5 0.0 0,0 3.2227,6.9121 A 0.5,0.5 0.0 0,0 3.3223,6.9629 A 0.5,0.5 0.0 0,0 3.3555,6.9766 A 0.5,0.5 0.0 0,0 3.5,7.0 A 0.5,0.5 0.0 0,0 3.6445,6.9766 A 0.5,0.5 0.0 0,0 3.6777,6.9629 A 0.5,0.5 0.0 0,0 3.7773,6.9121 A 0.5,0.5 0.0 0,0 3.8105,6.8867 A 0.5,0.5 0.0 0,0 3.8867,6.8105 A 0.5,0.5 0.0 0,0 3.9121,6.7773 A 0.5,0.5 0.0 0,0 3.9629,6.6777 A 0.5,0.5 0.0 0,0 3.9766,6.6445 A 0.5,0.5 0.0 0,0 4.0,6.5 C 4.0,6.4738 4.001,6.4478 4.002,6.4219 C 4.0418,5.6243 4.6917,5.0 5.5,5.0 C 6.3343,5.0 7.0,5.6657 7.0,6.5 A 0.5,0.5 0.0 0,0 7.0156,6.6211 A 0.5,0.5 0.0 0,0 7.0196,6.6367 A 0.5,0.5 0.0 0,0 7.0938,6.7891 A 0.5,0.5 0.0 0,0 7.0998,6.7969 A 0.5,0.5 0.0 0,0 7.1408,6.8457 A 0.5,0.5 0.0 0,0 7.1545,6.8594 A 0.5,0.5 0.0 0,0 7.2033,6.9004 A 0.5,0.5 0.0 0,0 7.2113,6.9063 A 0.5,0.5 0.0 0,0 7.3636,6.9805 A 0.5,0.5 0.0 0,0 7.3792,6.9844 A 0.5,0.5 0.0 0,0 7.5,7.0 L 8.5,7.0 A 0.5,0.5 0.0 0,0 8.6367,6.9805 A 0.5,0.5 0.0 0,0 8.6447,6.9766 A 0.5,0.5 0.0 0,0 9.0,6.5 C 9.0,5.6657 9.6657,5.0 10.5,5.0 C 11.3343,5.0 12.0,5.6657 12.0,6.5 L 12.0,7.5 A 0.5,0.5 0.0 0,0 12.5,8.0 A 0.5,0.5 0.0 0,0 13.0,7.5 L 13.0,6.5 A 0.5,0.5 0.0 0,0 12.998,6.4688 C 12.9976,6.4363 12.9977,6.4032 12.996,6.3711 C 12.9282,4.7793 11.6078,3.5 10.0,3.5 C 9.2336,3.5 8.5315,3.7908 8.0,4.2676 C 7.4685,3.7908 6.7664,3.5 6.0,3.5 M 14.5,7.0 A 0.5,0.5 0.0 0,0 14.0,7.5 A 0.5,0.5 0.0 0,0 14.5,8.0 A 0.5,0.5 0.0 0,0 15.0,7.5 A 0.5,0.5 0.0 0,0 14.5,7.0 M 4.5,8.0 A 0.5,0.5 0.0 0,0 4.0,8.5 A 0.5,0.5 0.0 0,0 4.5,9.0 A 0.5,0.5 0.0 0,0 5.0,8.5 A 0.5,0.5 0.0 0,0 4.5,8.0 M 2.5,9.0 A 0.5,0.5 0.0 0,0 2.0,9.5 A 0.5,0.5 0.0 0,0 2.5,10.0 A 0.5,0.5 0.0 0,0 3.0,9.5 A 0.5,0.5 0.0 0,0 2.5,9.0 M 13.5,9.0 A 0.5,0.5 0.0 0,0 13.0,9.5 A 0.5,0.5 0.0 0,0 13.5,10.0 A 0.5,0.5 0.0 0,0 14.0,9.5 A 0.5,0.5 0.0 0,0 13.5,9.0" fill="#000" /></svg>