<?xml version="1.0" encoding="utf-8" ?>
<svg baseProfile="full" height="16" version="1.1" width="16" xmlns="http://www.w3.org/2000/svg" xmlns:ev="http://www.w3.org/2001/xml-events" xmlns:xlink="http://www.w3.org/1999/xlink"><defs /><path d="M 6.4941,0.9941 A 0.5,0.5 0.0 0,0 6.1465,1.8535 L 7.293,3.0 L 5.5,3.0 C 4.8333,3.0 4.2251,3.3179 3.7715,3.7715 C 3.3179,4.2251 3.0,4.8333 3.0,5.5 A 0.5,0.5 0.0 1,0 4.0,5.5 C 4.0,5.1667 4.1821,4.7749 4.4785,4.4785 C 4.7749,4.1821 5.1667,4.0 5.5,4.0 L 7.293,4.0 L 6.1465,5.1465 A 0.5,0.5 0.0 1,0 6.8535,5.8535 L 8.8106,3.8965 A 0.5,0.5 0.0 0,0 8.8126,3.1035 A 0.5,0.5 0.0 0,0 8.8066,3.0995 L 6.8534,1.1464 A 0.5,0.5 0.0 0,0 6.4941,0.9941 L 6.4941,0.9941 M 12.5,9.9941 A 0.5,0.5 0.0 0,0 12.0078,10.5019 C 12.0078,10.8353 11.8257,11.227 11.5293,11.5234 C 11.2329,11.8199 10.8411,12.0019 10.5078,12.0019 L 8.7148,12.0019 L 9.8613,10.8555 A 0.5,0.5 0.0 0,0 9.4981,9.998 A 0.5,0.5 0.0 0,0 9.1543,10.1484 L 7.1973,12.1055 A 0.5,0.5 0.0 0,0 7.2013,12.9023 L 9.1544,14.8555 A 0.5,0.5 0.0 1,0 9.8614,14.1484 L 8.7149,13.0019 L 10.5079,13.0019 C 11.1746,13.0019 11.7829,12.684 12.2364,12.2305 C 12.69,11.7769 13.0079,11.1686 13.0079,10.5019 A 0.5,0.5 0.0 0,0 12.5,9.9941" fill="#000" /><path d="M 3.4922,6.9922 A 0.5,0.5 0.0 0,0 3.0,7.5 L 3.0,8.0938 C 2.421,8.3022 2.0,8.8532 2.0,9.5 C 2.0,10.3225 2.6775,11.0 3.5,11.0 C 3.782,11.0 4.0,11.2179 4.0,11.5 C 4.0,11.7709 3.7971,11.9778 3.5312,11.9941 A 0.5,0.5 0.0 0,0 3.4922,11.9921 A 0.5,0.5 0.0 0,0 3.418,12.0001 L 2.5,12.0001 A 0.5,0.5 0.0 1,0 2.5,13.0001 L 3.0,13.0001 L 3.0,13.5001 A 0.5,0.5 0.0 1,0 4.0,13.5001 L 4.0,12.9064 C 4.579,12.6979 5.0,12.147 5.0,11.5001 C 5.0,10.6776 4.3225,10.0001 3.5,10.0001 C 3.218,10.0001 3.0,9.7822 3.0,9.5001 C 3.0,9.2292 3.2029,9.0223 3.4688,9.006 A 0.5,0.5 0.0 0,0 3.582,9.0 L 4.5,9.0 A 0.5,0.5 0.0 1,0 4.5,8.0 L 4.0,8.0 L 4.0,7.5 A 0.5,0.5 0.0 0,0 3.4922,6.9922" fill="#000" /><path d="M 12.5,2.0 C 11.7175,2.0 11.0733,2.615 11.0117,3.3828 A 0.5,0.5 0.0 0,0 11.0,3.5 L 11.0,5.0 L 10.5,5.0 A 0.5,0.5 0.0 1,0 10.5,6.0 L 10.9453,6.0 C 10.8783,6.2846 10.7526,6.4698 10.584,6.7227 C 10.334,7.0977 10.0,7.6389 10.0,8.5 A 0.5,0.5 0.0 0,0 10.5,9.0 L 13.5,9.0 A 0.5,0.5 0.0 1,0 13.5,8.0 L 11.1699,8.0 C 11.2421,7.7713 11.2682,7.499 11.416,7.2773 C 11.6129,6.9821 11.8542,6.5763 11.9512,6.0 L 12.5,6.0 A 0.5,0.5 0.0 1,0 12.5,5.0 L 12.0,5.0 L 12.0,3.5352 A 0.5,0.5 0.0 0,0 12.0,3.5 C 12.0,3.2179 12.2179,3.0 12.5,3.0 C 12.7821,3.0 13.0,3.2179 13.0,3.5 A 0.5,0.5 0.0 1,0 14.0,3.5 C 14.0,2.6775 13.3225,2.0 12.5,2.0 L 12.5,2.0" fill="#000" /></svg>