<?xml version="1.0" encoding="utf-8" ?>
<svg baseProfile="full" height="16" version="1.1" width="16" xmlns="http://www.w3.org/2000/svg" xmlns:ev="http://www.w3.org/2001/xml-events" xmlns:xlink="http://www.w3.org/1999/xlink"><defs /><path d="M 1.0,2.0 L 1.0,2.5 C 1.0,2.777 1.223,3.0 1.5,3.0 L 13.5,3.0 C 13.777,3.0 14.0,2.777 14.0,2.5 L 14.0,2.0 L 1.0,2.0 M 2.0,4.0 L 2.0,13.0 L 1.4531,13.0 C 1.2021,13.0 1.0,13.2021 1.0,13.4531 L 1.0,13.5469 L 1.0,14.0 L 6.0,14.0 L 6.0,13.5 L 6.0,13.4531 C 6.0,13.2021 5.7979,13.0 5.5469,13.0 L 5.0,13.0 L 5.0,8.5 A 2.5,2.5 0.0 0,1 7.5,6.0 A 2.5,2.5 0.0 0,1 10.0,8.5 L 10.0,13.0 L 9.4531,13.0 C 9.2021,13.0 9.0,13.2021 9.0,13.4531 L 9.0,13.5469 L 9.0,14.0 L 14.0,14.0 L 14.0,13.5 L 14.0,13.4531 C 14.0,13.2021 13.7979,13.0 13.5469,13.0 L 13.0,13.0 L 13.0,4.0 L 12.0,4.0 L 12.0,4.4492 C 12.0,4.7262 11.777,4.9492 11.5,4.9492 C 11.223,4.9492 11.0,4.7262 11.0,4.4492 L 11.0,4.0 L 10.0,4.0 L 10.0,4.4492 C 10.0,4.7262 9.777,4.9492 9.5,4.9492 C 9.223,4.9492 9.0,4.7262 9.0,4.4492 L 9.0,4.0 L 8.0,4.0 L 8.0,4.4492 C 8.0,4.7262 7.777,4.9492 7.5,4.9492 C 7.223,4.9492 7.0,4.7262 7.0,4.4492 L 7.0,4.0 L 6.0,4.0 L 6.0,4.4492 C 6.0,4.7262 5.777,4.9492 5.5,4.9492 C 5.223,4.9492 5.0,4.7262 5.0,4.4492 L 5.0,4.0 L 4.0,4.0 L 4.0,4.4492 C 4.0,4.7262 3.777,4.9492 3.5,4.9492 C 3.223,4.9492 3.0,4.7262 3.0,4.4492 L 3.0,4.0 L 2.0,4.0 M 3.5,10.0508 C 3.777,10.0508 4.0,10.2738 4.0,10.5508 L 4.0,11.4492 C 4.0,11.7262 3.777,11.9492 3.5,11.9492 C 3.223,11.9492 3.0,11.7262 3.0,11.4492 L 3.0,10.5508 C 3.0,10.2738 3.223,10.0508 3.5,10.0508 M 11.5,10.0508 C 11.777,10.0508 12.0,10.2738 12.0,10.5508 L 12.0,11.4492 C 12.0,11.7262 11.777,11.9492 11.5,11.9492 C 11.223,11.9492 11.0,11.7262 11.0,11.4492 L 11.0,10.5508 C 11.0,10.2738 11.223,10.0508 11.5,10.0508" fill="#000" /></svg>