<?xml version="1.0" encoding="utf-8" ?>
<svg baseProfile="full" height="16" version="1.1" width="16" xmlns="http://www.w3.org/2000/svg" xmlns:ev="http://www.w3.org/2001/xml-events" xmlns:xlink="http://www.w3.org/1999/xlink"><defs /><path d="M 4.5,3.0 C 4.223,3.0 4.0,3.223 4.0,3.5 L 4.0,11.5 C 4.0,11.777 4.223,12.0 4.5,12.0 L 5.5,12.0 C 5.777,12.0 6.0,11.777 6.0,11.5 L 6.0,9.0 L 8.8438,9.0 L 9.0,9.0 C 10.645,9.0 12.0,7.645 12.0,6.0 C 12.0,4.355 10.645,3.0 9.0,3.0 L 8.8125,3.0 L 5.5,3.0 L 4.5,3.0 M 6.0,5.0 L 8.8438,5.0 L 9.0,5.0 C 9.5641,5.0 10.0,5.4359 10.0,6.0 C 10.0,6.5641 9.5641,7.0 9.0,7.0 L 8.9063,7.0 L 6.0,7.0 L 6.0,5.0 L 6.0,5.0" fill="#000" /></svg>