<?xml version="1.0" encoding="utf-8" ?>
<svg baseProfile="full" height="16" version="1.1" width="16" xmlns="http://www.w3.org/2000/svg" xmlns:ev="http://www.w3.org/2001/xml-events" xmlns:xlink="http://www.w3.org/1999/xlink"><defs /><path d="M 5.5,3.0 C 5.223,3.0 5.0,3.223 5.0,3.5 L 5.0,12.5 C 5.0,12.777 5.223,13.0 5.5,13.0 L 10.5,13.0 C 10.777,13.0 11.0,12.777 11.0,12.5 L 11.0,10.0 L 8.5,10.0 C 7.669,10.0 7.0,9.3589 7.0,8.5625 L 7.0,8.4375 C 7.0,7.6411 7.669,7.0 8.5,7.0 L 11.0,7.0 L 11.0,3.5 C 11.0,3.223 10.777,3.0 10.5,3.0 L 5.5,3.0 M 12.4941,5.9941 A 0.5,0.5 0.0 0,0 12.1465,6.8535 L 13.293,8.0 L 8.5,8.0 A 0.5,0.5 0.0 1,0 8.5,9.0 L 13.293,9.0 L 12.1465,10.1465 A 0.5,0.5 0.0 1,0 12.8535,10.8535 L 14.8106,8.8965 A 0.5,0.5 0.0 0,0 14.8126,8.1035 A 0.5,0.5 0.0 0,0 14.8066,8.0995 L 12.8534,6.1464 A 0.5,0.5 0.0 0,0 12.4941,5.9941 L 12.4941,5.9941" fill="#000" /></svg>