<?xml version="1.0" encoding="utf-8" ?>
<svg baseProfile="full" height="16" version="1.1" width="16" xmlns="http://www.w3.org/2000/svg" xmlns:ev="http://www.w3.org/2001/xml-events" xmlns:xlink="http://www.w3.org/1999/xlink"><defs /><path d="M 6.5,3.0 C 6.223,3.0 6.0,3.223 6.0,3.5 L 6.0,6.0 L 3.5,6.0 C 3.223,6.0 3.0,6.223 3.0,6.5 L 3.0,9.5 C 3.0,9.777 3.223,10.0 3.5,10.0 L 6.0,10.0 L 6.0,12.5 C 6.0,12.777 6.223,13.0 6.5,13.0 L 9.5,13.0 C 9.777,13.0 10.0,12.777 10.0,12.5 L 10.0,10.0 L 12.5,10.0 C 12.777,10.0 13.0,9.777 13.0,9.5 L 13.0,6.5 C 13.0,6.223 12.777,6.0 12.5,6.0 L 10.0,6.0 L 10.0,3.5 C 10.0,3.223 9.777,3.0 9.5,3.0 L 6.5,3.0" fill="#000" /></svg>