<?xml version="1.0" encoding="utf-8" ?>
<svg baseProfile="full" height="16" version="1.1" width="16" xmlns="http://www.w3.org/2000/svg" xmlns:ev="http://www.w3.org/2001/xml-events" xmlns:xlink="http://www.w3.org/1999/xlink"><defs /><path d="M 7.5781,1.6406 C 6.3932,2.0918 5.9868,3.2986 6.0,4.5 C 6.0001,5.0358 6.286,5.5309 6.75,5.7988 C 7.2141,6.0668 7.7859,6.0668 8.25,5.7988 C 8.714,5.5309 8.9999,5.0358 9.0,4.5 C 9.0,3.6814 8.6322,3.1553 8.293,2.7031 C 8.297,3.1674 8.1175,3.511 7.877,3.7129 C 7.2402,3.1863 7.164,2.5121 7.5781,1.6406 M 6.0,7.0 C 5.3238,6.9904 5.3238,8.0096 6.0,8.0 L 6.0762,8.0 L 7.0059,13.582 C 7.0935,14.1466 7.9066,14.1466 7.9942,13.582 L 8.9238,8.0 L 9.0,8.0 C 9.6762,8.0096 9.6762,6.9904 9.0,7.0 L 8.5195,7.0 L 6.5,7.0 L 6.0,7.0" fill="#000" /></svg>