<?xml version="1.0" encoding="utf-8" ?>
<svg baseProfile="full" height="16" version="1.1" width="16" xmlns="http://www.w3.org/2000/svg" xmlns:ev="http://www.w3.org/2001/xml-events" xmlns:xlink="http://www.w3.org/1999/xlink"><defs /><path d="M 2.5,2.0 C 2.223,2.0 2.0,2.223 2.0,2.5 C 2.0,2.777 2.223,3.0 2.5,3.0 L 12.5,3.0 C 12.777,3.0 13.0,2.777 13.0,2.5 C 13.0,2.223 12.777,2.0 12.5,2.0 L 2.5,2.0 M 2.5,4.0 C 2.5,4.0 2.0,4.223 2.0,4.5 L 2.0,12.5 C 2.0,12.777 2.223,13.0 2.5,13.0 L 3.0,13.0 L 3.5,13.0 L 5.0,13.0 C 5.0,10.0 4.0,8.0 4.0,8.0 C 4.0,8.0 7.0,7.0 7.0,4.0 L 3.5,4.0 L 3.0,4.0 L 2.5,4.0 M 8.0,4.0 C 8.0,7.0 11.0,8.0 11.0,8.0 C 11.0,8.0 10.0,10.0 10.0,13.0 L 11.5,13.0 L 12.0,13.0 L 12.5,13.0 C 12.777,13.0 13.0,12.777 13.0,12.5 L 13.0,4.5 C 13.0,4.223 12.777,4.0 12.5,4.0 L 12.0,4.0 L 11.5,4.0 L 8.0,4.0" fill="#000" /></svg>