<?xml version="1.0" encoding="utf-8" ?>
<svg baseProfile="full" height="16" version="1.1" width="16" xmlns="http://www.w3.org/2000/svg" xmlns:ev="http://www.w3.org/2001/xml-events" xmlns:xlink="http://www.w3.org/1999/xlink"><defs /><path d="M 8.0,2.0215 A 2.979,2.979 0.0 0,0 5.0215,5.0 A 2.979,2.979 0.0 0,0 8.0,7.9785 A 2.979,2.979 0.0 0,0 10.9785,5.0 A 2.979,2.979 0.0 0,0 8.0,2.0215 M 5.5508,9.0 C 5.2738,9.0 5.0508,9.223 5.0508,9.5 C 5.0508,9.777 5.2738,10.0 5.5508,10.0 L 6.0,10.0 L 7.0,11.0 L 7.5,14.0 L 8.5,14.0 L 9.0,11.0 L 10.0,10.0 L 10.4492,10.0 C 10.7262,10.0 10.9492,9.777 10.9492,9.5 C 10.9492,9.223 10.7262,9.0 10.4492,9.0 L 5.5508,9.0" fill="#000" /></svg>