<svg xmlns="http://www.w3.org/2000/svg" width="16" height="16"><path d="M 4.0,2.0 C 3.446,2.0 3.0,2.446 3.0,3.0 L 3.0,11.0 C 3.0,11.554 3.446,12.0 4.0,12.0 L 8.0,12.0 L 8.0,10.0 C 8.0,8.892 8.892,8.0 10.0,8.0 L 10.0,3.0 C 10.0,2.446 9.554,2.0 9.0,2.0 L 4.0,2.0 M 6.5,4.0 C 6.6758,3.9996 6.839,4.0915 6.9297,4.2422 L 8.4297,6.7422 C 8.5251,6.9008 8.5251,7.0992 8.4297,7.2578 L 6.9297,9.7578 C 6.7358,10.0835 6.2642,10.0835 6.0703,9.7578 L 4.5703,7.2578 C 4.4749,7.0992 4.4749,6.9008 4.5703,6.7422 L 6.0703,4.2422 C 6.161,4.0915 6.3242,3.9996 6.5,4.0 M 10.0,9.0 C 9.446,9.0 9.0,9.446 9.0,10.0 L 9.0,13.0 C 9.0,13.554 9.446,14.0 10.0,14.0 L 13.0,14.0 C 13.554,14.0 14.0,13.554 14.0,13.0 L 14.0,10.0 C 14.0,9.446 13.554,9.0 13.0,9.0 L 10.0,9.0 M 10.5,9.7734 A 0.7273,0.7273 0.0 0,1 11.2266,10.5 A 0.7273,0.7273 0.0 0,1 10.5,11.2266 A 0.7273,0.7273 0.0 0,1 9.7734,10.5 A 0.7273,0.7273 0.0 0,1 10.5,9.7734 M 12.5,11.7734 A 0.7273,0.7273 0.0 0,1 13.2266,12.5 A 0.7273,0.7273 0.0 0,1 12.5,13.2266 A 0.7273,0.7273 0.0 0,1 11.7734,12.5 A 0.7273,0.7273 0.0 0,1 12.5,11.7734" fill="#000" /></svg>