<?xml version="1.0" encoding="utf-8" ?>
<svg baseProfile="full" height="16" version="1.1" width="16" xmlns="http://www.w3.org/2000/svg" xmlns:ev="http://www.w3.org/2001/xml-events" xmlns:xlink="http://www.w3.org/1999/xlink"><defs /><path d="M 3.0,2.0 L 3.0,5.0 L 13.0,5.0 L 13.0,2.0 L 3.0,2.0 M 7.5,3.0 L 8.5,3.0 C 8.777,3.0 9.0,3.223 9.0,3.5 C 9.0,3.777 8.777,4.0 8.5,4.0 L 7.5,4.0 C 7.223,4.0 7.0,3.777 7.0,3.5 C 7.0,3.223 7.223,3.0 7.5,3.0 M 3.0,6.0 L 3.0,9.0 L 13.0,9.0 L 13.0,6.0 L 3.0,6.0 M 7.5,7.0 L 8.5,7.0 C 8.777,7.0 9.0,7.223 9.0,7.5 C 9.0,7.777 8.777,8.0 8.5,8.0 L 7.5,8.0 C 7.223,8.0 7.0,7.777 7.0,7.5 C 7.0,7.223 7.223,7.0 7.5,7.0 M 3.0,10.0 L 3.0,13.0 L 4.0,13.0 L 4.0,14.0 L 5.0,14.0 L 5.0,13.0 L 11.0,13.0 L 11.0,14.0 L 12.0,14.0 L 12.0,13.0 L 13.0,13.0 L 13.0,10.0 L 3.0,10.0 M 7.5,11.0 L 8.5,11.0 C 8.777,11.0 9.0,11.223 9.0,11.5 C 9.0,11.777 8.777,12.0 8.5,12.0 L 7.5,12.0 C 7.223,12.0 7.0,11.777 7.0,11.5 C 7.0,11.223 7.223,11.0 7.5,11.0" fill="#000" /></svg>