<svg xmlns="http://www.w3.org/2000/svg" width="16" height="16"><path d="M 3.5,7.0 C 2.8333,7.0 2.3965,7.3965 2.1465,7.6465 C 1.8965,7.8965 1.8333,8.0 1.5,8.0 A 0.5,0.5 0.0 0,0 1.4004,8.0117 A 0.5,0.5 0.0 0,0 1.3067,8.0429 A 0.5,0.5 0.0 0,0 1.2618,8.0644 A 0.5,0.5 0.0 0,0 1.2188,8.0918 A 0.5,0.5 0.0 0,0 1.1797,8.123 A 0.5,0.5 0.0 0,0 1.082,8.2363 A 0.5,0.5 0.0 0,0 1.0586,8.2793 A 0.5,0.5 0.0 0,0 1.0078,8.4726 A 0.5,0.5 0.0 0,0 1.0547,8.7148 A 0.5,0.5 0.0 0,0 1.1074,8.8007 A 0.5,0.5 0.0 0,0 1.2988,8.955 A 0.5,0.5 0.0 0,0 1.3457,8.9726 A 0.5,0.5 0.0 0,0 1.4434,8.996 A 0.5,0.5 0.0 0,0 1.5,9.0 L 5.5,9.0 L 9.4941,9.0 L 9.5001,9.0 L 13.5001,9.0 A 0.5,0.5 0.0 0,0 13.5997,8.9883 A 0.5,0.5 0.0 0,0 13.7814,8.9082 A 0.5,0.5 0.0 0,0 13.8888,8.8047 A 0.5,0.5 0.0 0,0 13.9415,8.7207 A 0.5,0.5 0.0 0,0 13.961,8.6738 A 0.5,0.5 0.0 0,0 13.9766,8.6269 A 0.5,0.5 0.0 0,0 13.9866,8.5781 A 0.5,0.5 0.0 0,0 13.9926,8.5273 A 0.5,0.5 0.0 0,0 13.9886,8.4277 A 0.5,0.5 0.0 0,0 13.9786,8.3789 A 0.5,0.5 0.0 0,0 13.963,8.332 A 0.5,0.5 0.0 0,0 13.9454,8.2851 A 0.5,0.5 0.0 0,0 13.8927,8.1992 A 0.5,0.5 0.0 0,0 13.8615,8.1621 A 0.5,0.5 0.0 0,0 13.7013,8.0449 A 0.5,0.5 0.0 0,0 13.6544,8.0273 A 0.5,0.5 0.0 0,0 13.5567,8.0039 A 0.5,0.5 0.0 0,0 13.5,8.0 C 13.1667,8.0 13.1035,7.8965 12.8535,7.6465 C 12.6035,7.3965 12.1667,7.0 11.5,7.0 C 10.8333,7.0 10.3965,7.3965 10.1465,7.6465 C 9.8982,7.8947 9.8331,7.9986 9.5059,8.0 C 9.5039,8.0 9.5019,8.0 9.4999,8.0 C 9.1665,8.0 9.1034,7.8965 8.8534,7.6465 C 8.6034,7.3965 8.1665,7.0 7.4999,7.0 C 6.8332,7.0 6.3963,7.3965 6.1463,7.6465 C 5.8963,7.8965 5.8332,8.0 5.4999,8.0 C 5.1665,8.0 5.1034,7.8965 4.8534,7.6465 C 4.6035,7.3965 4.1667,7.0 3.5,7.0" fill="#000" /></svg>