<svg xmlns="http://www.w3.org/2000/svg" width="16" height="16"><path d="M 8.0,3.0 C 3.3894,3.0 1.3185,6.4049 2.5938,7.7188 C 2.6168,7.6968 2.6332,7.6795 2.6562,7.6562 C 3.2152,7.0973 3.8333,6.75 4.5,6.75 C 5.0215,6.75 5.4779,7.1112 5.9375,7.4688 C 6.5281,7.011 7.2539,6.75 8.0,6.75 C 8.7461,6.75 9.4719,7.011 10.0625,7.4688 C 10.5221,7.1112 10.9785,6.75 11.5,6.75 C 12.1667,6.75 12.7848,7.0973 13.3438,7.6562 C 13.2894,7.602 13.3518,7.6238 13.4062,7.6562 C 13.4122,7.6603 13.4312,7.6522 13.4374,7.6562 C 14.6105,6.3067 12.5505,3.0 8.0,3.0 M 4.5,7.75 C 4.1667,7.75 3.7848,7.9027 3.3438,8.3438 C 3.2933,8.3941 3.238,8.4226 3.1875,8.4688 L 5.0,13.0 L 11.0,13.0 L 12.8125,8.4688 C 12.7682,8.435 12.7268,8.4142 12.6562,8.3438 C 12.2152,7.9027 11.8333,7.75 11.5,7.75 C 11.1667,7.75 10.7848,7.9027 10.3438,8.3438 L 10.0,8.7188 L 9.6562,8.3438 C 9.2741,7.9616 8.6389,7.75 8.0,7.75 C 7.3611,7.75 6.7259,7.9616 6.3438,8.3438 L 6.0,8.7188 L 5.6562,8.3438 C 5.2152,7.9027 4.8333,7.75 4.5,7.75" fill="#000" /></svg>