<?xml version="1.0" encoding="utf-8" ?>
<svg baseProfile="full" height="16" version="1.1" width="16" xmlns="http://www.w3.org/2000/svg" xmlns:ev="http://www.w3.org/2001/xml-events" xmlns:xlink="http://www.w3.org/1999/xlink"><defs /><path d="M 7.5,3.0 C 7.223,3.0 7.0,3.223 7.0,3.5 L 7.0,5.0 L 5.5,5.0 C 5.223,5.0 5.0,5.223 5.0,5.5 L 5.0,6.5 C 5.0,6.777 5.223,7.0 5.5,7.0 L 7.0,7.0 L 7.0,12.5 C 7.0,12.777 7.223,13.0 7.5,13.0 L 8.5,13.0 C 8.777,13.0 9.0,12.777 9.0,12.5 L 9.0,7.0 L 10.5,7.0 C 10.777,7.0 11.0,6.777 11.0,6.5 L 11.0,5.5 C 11.0,5.223 10.777,5.0 10.5,5.0 L 9.0,5.0 L 9.0,3.5 C 9.0,3.223 8.777,3.0 8.5,3.0 L 7.5,3.0 M 10.5,12.0 C 10.223,12.0 10.0,12.2091 10.0,12.4688 L 10.0,12.5312 C 10.0,12.7909 10.223,13.0 10.5,13.0 L 14.5,13.0 C 14.777,13.0 15.0,12.7909 15.0,12.5312 L 15.0,12.4688 C 15.0,12.2091 14.777,12.0 14.5,12.0 L 10.5,12.0" fill="#000" /></svg>