<svg xmlns="http://www.w3.org/2000/svg" width="16" height="16"><path d="M 7.4922,2.9922 C 7.4673,2.9929 7.4425,2.9952 7.418,3.0002 L 1.5,3.0002 C 1.2239,3.0002 1.0,3.2241 1.0,3.5002 L 1.0,7.4201 C 0.9912,7.4738 0.9912,7.5285 1.0,7.5822 L 1.0,9.4201 C 0.9912,9.4738 0.9912,9.5285 1.0,9.5822 L 1.0,11.4201 C 0.9912,11.4738 0.9912,11.5285 1.0,11.5822 L 1.0,13.5 C 0.9904,14.1762 2.0096,14.1762 2.0,13.5 L 2.0,12.0 L 13.5,12.0 C 13.7761,12.0 14.0,11.7761 14.0,11.5 L 14.0,7.5801 C 14.0088,7.5264 14.0088,7.4716 14.0,7.418 L 14.0,5.5801 C 14.0088,5.5264 14.0088,5.4716 14.0,5.418 L 14.0,3.5 C 14.0,3.2239 13.7761,3.0 13.5,3.0 L 7.5918,3.0 C 7.5589,2.994 7.5256,2.991 7.4922,2.992 L 7.4922,2.9922 M 2.5,4.0 A 0.5,0.5 0.0 0,1 3.0,4.5 A 0.5,0.5 0.0 0,1 2.5,5.0 A 0.5,0.5 0.0 0,1 2.0,4.5 A 0.5,0.5 0.0 0,1 2.5,4.0 M 4.5,4.0 A 0.5,0.5 0.0 0,1 5.0,4.5 A 0.5,0.5 0.0 0,1 4.5,5.0 A 0.5,0.5 0.0 0,1 4.0,4.5 A 0.5,0.5 0.0 0,1 4.5,4.0 M 6.5,4.0 A 0.5,0.5 0.0 0,1 7.0,4.5 A 0.5,0.5 0.0 0,1 6.5,5.0 A 0.5,0.5 0.0 0,1 6.0,4.5 A 0.5,0.5 0.0 0,1 6.5,4.0 M 8.0,4.0 L 13.0,4.0 L 13.0,5.0 L 8.0,5.0 L 8.0,4.0 M 2.5,6.0 A 0.5,0.5 0.0 0,1 3.0,6.5 A 0.5,0.5 0.0 0,1 2.5,7.0 A 0.5,0.5 0.0 0,1 2.0,6.5 A 0.5,0.5 0.0 0,1 2.5,6.0 M 4.5,6.0 A 0.5,0.5 0.0 0,1 5.0,6.5 A 0.5,0.5 0.0 0,1 4.5,7.0 A 0.5,0.5 0.0 0,1 4.0,6.5 A 0.5,0.5 0.0 0,1 4.5,6.0 M 6.5,6.0 A 0.5,0.5 0.0 0,1 7.0,6.5 A 0.5,0.5 0.0 0,1 6.5,7.0 A 0.5,0.5 0.0 0,1 6.0,6.5 A 0.5,0.5 0.0 0,1 6.5,6.0 M 8.0,6.0 L 13.0,6.0 L 13.0,7.0 L 8.0,7.0 L 8.0,6.0 M 2.0,8.0 L 7.5,8.0 L 13.0,8.0 L 13.0,9.0 L 2.0,9.0 L 2.0,8.0 M 2.0,10.0 L 13.0,10.0 L 13.0,11.0 L 2.0,11.0 L 2.0,10.0" fill="#000" /></svg>