<svg xmlns="http://www.w3.org/2000/svg" width="16" height="16"><path d="M 1.5,2.0 A 0.5,0.5 0.0 0,0 1.0,2.5 L 1.0,13.5 A 0.5,0.5 0.0 0,0 1.5,14.0 A 0.5,0.5 0.0 0,0 2.0,13.5 L 2.0,4.0 L 5.0,4.0 L 5.0,4.5 A 0.5,0.5 0.0 0,0 5.5,5.0 L 7.0,5.0 L 7.0,7.5 A 0.5,0.5 0.0 0,0 7.3711,7.9824 A 0.5,0.5 0.0 0,0 7.5,8.0 C 7.7037,8.0 7.885,8.1204 7.9629,8.3086 C 8.0408,8.4968 7.9975,8.7095 7.8535,8.8535 C 7.7095,8.9975 7.4968,9.0408 7.3086,8.9629 C 7.1204,8.885 7.0,8.7037 7.0,8.5 A 0.5,0.5 0.0 0,0 6.5,8.0 A 0.5,0.5 0.0 0,0 6.0,8.5 C 6.0,9.1053 6.3666,9.6551 6.9258,9.8867 C 7.485,10.1183 8.1326,9.9885 8.5605,9.5605 C 8.9885,9.1326 9.1183,8.485 8.8867,7.9258 C 8.7215,7.5269 8.3936,7.2276 8.0,7.0879 L 8.0,5.0 L 9.5,5.0 A 0.5,0.5 0.0 0,0 10.0,4.5 L 10.0,4.0 L 13.0,4.0 L 13.0,13.5 A 0.5,0.5 0.0 0,0 13.5,14.0 A 0.5,0.5 0.0 0,0 14.0,13.5 L 14.0,2.5 A 0.5,0.5 0.0 0,0 13.5,2.0 A 0.5,0.5 0.0 0,0 13.0,2.5 L 13.0,3.0 L 10.0,3.0 L 10.0,2.5 A 0.5,0.5 0.0 0,0 9.5,2.0 L 5.5,2.0 A 0.5,0.5 0.0 0,0 5.0,2.5 L 5.0,3.0 L 2.0,3.0 L 2.0,2.5 A 0.5,0.5 0.0 0,0 1.5,2.0 M 5.9219,12.2559 A 0.5,0.5 0.0 0,0 5.6465,12.3965 C 5.2054,12.8376 4.8333,13.0 4.5,13.0 C 4.2855,13.0 4.0482,12.926 3.7773,12.7461 A 0.5,0.5 0.0 0,0 3.084,12.8848 A 0.5,0.5 0.0 0,0 3.2227,13.5781 C 3.6162,13.8395 4.0502,14.0 4.5,14.0 C 5.0394,14.0 5.5274,13.6558 6.0,13.2754 C 6.4726,13.6558 6.9606,14.0 7.5,14.0 C 8.0394,14.0 8.5274,13.6558 9.0,13.2754 C 9.4696,13.6539 9.9564,14.0 10.5,14.0 C 10.947,14.0 11.3815,13.844 11.7773,13.5801 A 0.5,0.5 0.0 0,0 11.916,12.8867 A 0.5,0.5 0.0 0,0 11.2227,12.748 C 10.9518,12.9286 10.7196,13.0 10.5,13.0 C 10.1719,13.0 9.7859,12.8289 9.3535,12.3965 A 0.5,0.5 0.0 0,0 8.6465,12.3965 C 8.2054,12.8376 7.8333,13.0 7.5,13.0 C 7.1667,13.0 6.7946,12.8376 6.3535,12.3965 A 0.5,0.5 0.0 0,0 5.9219,12.2559" fill="#000" /></svg>