<svg xmlns="http://www.w3.org/2000/svg" width="16" height="16"><path d="M 5.5,2.0 A 1.5,1.5 0.0 0,0 4.4727,2.4082 L 4.4707,2.4082 L 4.4551,2.4238 L 1.9394,4.8222 A 3.0,3.0 0.0 0,0 1.0,7.0 A 3.0,3.0 0.0 0,0 4.0,10.0 A 3.0,3.0 0.0 0,0 7.0,7.0 A 0.5,0.5 0.0 0,1 7.5,6.5 A 0.5,0.5 0.0 0,1 8.0,7.0 A 3.0,3.0 0.0 0,0 11.0,10.0 A 3.0,3.0 0.0 0,0 14.0,7.0 A 3.0,3.0 0.0 0,0 13.1367,4.8945 L 13.1347,4.8945 L 10.5293,2.4082 L 10.5273,2.4102 A 1.5,1.5 0.0 0,0 9.5,2.0 A 1.5,1.5 0.0 0,0 8.0,3.5 A 0.5,0.5 0.0 0,1 7.5,4.0 A 0.5,0.5 0.0 0,1 7.0,3.5 A 1.5,1.5 0.0 0,0 5.5,2.0 M 4.0,5.0 A 2.0,2.0 0.0 0,1 6.0,7.0 A 2.0,2.0 0.0 0,1 4.0,9.0 A 2.0,2.0 0.0 0,1 2.0,7.0 A 2.0,2.0 0.0 0,1 4.0,5.0 M 11.0,5.0 A 2.0,2.0 0.0 0,1 13.0,7.0 A 2.0,2.0 0.0 0,1 11.0,9.0 A 2.0,2.0 0.0 0,1 9.0,7.0 A 2.0,2.0 0.0 0,1 11.0,5.0 M 7.4961,8.9219 A 4.0,4.0 0.0 0,1 6.0,10.459 L 6.0,13.0 L 9.0,13.0 L 9.0,10.459 A 4.0,4.0 0.0 0,1 7.4961,8.9219" fill="#000" /></svg>