<?xml version="1.0" encoding="utf-8" ?>
<svg baseProfile="full" height="16" version="1.1" width="16" xmlns="http://www.w3.org/2000/svg" xmlns:ev="http://www.w3.org/2001/xml-events" xmlns:xlink="http://www.w3.org/1999/xlink"><defs /><path d="M 7.0,3.0 C 4.0,3.0 5.0,5.0 2.0,5.0 L 2.0,12.5 C 2.0,12.777 2.223,13.0 2.5,13.0 L 6.5,13.0 C 6.777,13.0 7.0,12.777 7.0,12.5 L 7.0,3.0 M 8.0,3.0 L 8.0,12.5 C 8.0,12.777 8.223,13.0 8.5,13.0 L 12.5,13.0 C 12.777,13.0 13.0,12.777 13.0,12.5 L 13.0,5.0 C 10.0,5.0 11.0,3.0 8.0,3.0 M 5.5,7.0 C 5.777,7.0 6.0,7.223 6.0,7.5 L 6.0,8.5 C 6.0,8.777 5.777,9.0 5.5,9.0 C 5.223,9.0 5.0,8.777 5.0,8.5 L 5.0,7.5 C 5.0,7.223 5.223,7.0 5.5,7.0 M 9.5,7.0 C 9.777,7.0 10.0,7.223 10.0,7.5 L 10.0,8.5 C 10.0,8.777 9.777,9.0 9.5,9.0 C 9.223,9.0 9.0,8.777 9.0,8.5 L 9.0,7.5 C 9.0,7.223 9.223,7.0 9.5,7.0" fill="#000" /></svg>