<?xml version="1.0" encoding="utf-8" ?>
<svg baseProfile="full" height="16" version="1.1" width="16" xmlns="http://www.w3.org/2000/svg" xmlns:ev="http://www.w3.org/2001/xml-events" xmlns:xlink="http://www.w3.org/1999/xlink"><defs /><path d="M 8.0,1.5 A 0.5,0.5 0.0 0,0 7.5,2.0 L 7.5,3.0 A 0.5,0.5 0.0 0,0 8.0,3.5 A 0.5,0.5 0.0 0,0 8.5,3.0 L 8.5,2.0 A 0.5,0.5 0.0 0,0 8.0,1.5 M 2.5,2.5 A 0.5,0.5 0.0 0,0 2.0,3.0 L 2.0,4.0 A 0.5,0.5 0.0 0,0 2.5,4.5 A 0.5,0.5 0.0 0,0 3.0,4.0 L 3.0,3.0 A 0.5,0.5 0.0 0,0 2.5,2.5 M 13.5,2.5 A 0.5,0.5 0.0 0,0 13.0,3.0 L 13.0,4.0 A 0.5,0.5 0.0 0,0 13.5,4.5 A 0.5,0.5 0.0 0,0 14.0,4.0 L 14.0,3.0 A 0.5,0.5 0.0 0,0 13.5,2.5 M 7.5,4.0 C 7.223,4.0 7.0,4.223 7.0,4.5 L 7.0,5.0 L 2.5,5.0 A 0.5,0.5 0.0 0,0 2.0,5.5 A 0.5,0.5 0.0 0,0 2.5,6.0 L 7.0,6.0 L 7.0,14.5 C 7.0,14.777 7.223,15.0 7.5,15.0 L 8.5,15.0 C 8.777,15.0 9.0,14.777 9.0,14.5 L 9.0,6.0 L 13.5,6.0 A 0.5,0.5 0.0 0,0 14.0,5.5 A 0.5,0.5 0.0 0,0 13.5,5.0 L 9.0,5.0 L 9.0,4.5 C 9.0,4.223 8.777,4.0 8.5,4.0 L 7.5,4.0" fill="#000" /></svg>