<svg xmlns="http://www.w3.org/2000/svg" width="16" height="16"><path d="M 4.5937,3.0 C 4.2613,3.0 4.0,3.2613 4.0,3.5938 L 4.0,12.4062 C 4.0,12.7387 4.2613,13.0 4.5937,13.0 L 11.4062,13.0 C 11.7386,13.0 12.0,12.7387 12.0,12.4062 L 12.0,3.5938 C 12.0,3.2613 11.7386,3.0 11.4062,3.0 L 4.5937,3.0 M 5.5,5.0 L 10.5,5.0 C 10.777,5.0 11.0,5.223 11.0,5.5 C 11.0,5.777 10.777,6.0 10.5,6.0 L 5.5,6.0 C 5.223,6.0 5.0,5.777 5.0,5.5 C 5.0,5.223 5.223,5.0 5.5,5.0 M 5.5,7.0 L 10.5,7.0 C 10.777,7.0 11.0,7.223 11.0,7.5 C 11.0,7.777 10.777,8.0 10.5,8.0 L 5.5,8.0 C 5.223,8.0 5.0,7.777 5.0,7.5 C 5.0,7.223 5.223,7.0 5.5,7.0 M 5.5,9.0 L 10.5,9.0 C 10.777,9.0 11.0,9.223 11.0,9.5 C 11.0,9.777 10.777,10.0 10.5,10.0 L 5.5,10.0 C 5.223,10.0 5.0,9.777 5.0,9.5 C 5.0,9.223 5.223,9.0 5.5,9.0" fill="#000" /></svg>