<svg xmlns="http://www.w3.org/2000/svg" width="16" height="16"><path d="M 7.5,2.0 A 5.5,5.5 0.0 0,0 2.0,7.5 A 5.5,5.5 0.0 0,0 7.5,13.0 A 5.5,5.5 0.0 0,0 13.0,7.5 A 5.5,5.5 0.0 0,0 7.5,2.0 M 6.5019,3.002 A 0.5,0.5 0.0 0,1 6.8555,3.1484 L 7.5,3.793 L 8.1465,3.1484 A 0.5,0.5 0.0 0,1 8.5019,3.002 A 0.5,0.5 0.0 0,1 8.8555,3.1484 A 0.5,0.5 0.0 0,1 8.8555,3.8496 L 8.207,4.5 L 8.8555,5.1484 A 0.5,0.5 0.0 0,1 8.8555,5.8496 A 0.5,0.5 0.0 0,1 8.1465,5.8496 L 7.5,5.2031 L 6.8555,5.8496 A 0.5,0.5 0.0 0,1 6.1465,5.8496 A 0.5,0.5 0.0 0,1 6.1465,5.1484 L 6.7969,4.5 L 6.1465,3.8496 A 0.5,0.5 0.0 0,1 6.1465,3.1484 A 0.5,0.5 0.0 0,1 6.5019,3.002 M 4.5,6.0 A 1.5,1.5 0.0 0,1 6.0,7.5 A 1.5,1.5 0.0 0,1 4.5,9.0 A 1.5,1.5 0.0 0,1 3.0,7.5 A 1.5,1.5 0.0 0,1 4.5,6.0 M 10.5,6.0 A 1.5,1.5 0.0 0,1 12.0,7.5 A 1.5,1.5 0.0 0,1 10.5,9.0 A 1.5,1.5 0.0 0,1 9.0,7.5 A 1.5,1.5 0.0 0,1 10.5,6.0 M 6.5019,9.002 A 0.5,0.5 0.0 0,1 6.8555,9.1504 L 7.5,9.793 L 8.1465,9.1504 A 0.5,0.5 0.0 0,1 8.5019,9.002 A 0.5,0.5 0.0 0,1 8.8555,9.1504 A 0.5,0.5 0.0 0,1 8.8555,9.8516 L 8.209,10.4981 L 8.8555,11.1426 A 0.5,0.5 0.0 0,1 8.8555,11.8516 A 0.5,0.5 0.0 0,1 8.1465,11.8516 L 7.5,11.207 L 6.8555,11.8516 A 0.5,0.5 0.0 0,1 6.1465,11.8516 A 0.5,0.5 0.0 0,1 6.1465,11.1426 L 6.793,10.4981 L 6.1465,9.8516 A 0.5,0.5 0.0 0,1 6.1465,9.1504 A 0.5,0.5 0.0 0,1 6.5019,9.002" fill="#000" /></svg>