<?xml version="1.0" encoding="utf-8" ?>
<svg baseProfile="full" height="16" version="1.1" width="16" xmlns="http://www.w3.org/2000/svg" xmlns:ev="http://www.w3.org/2001/xml-events" xmlns:xlink="http://www.w3.org/1999/xlink"><defs /><path d="M 8.0,1.0 A 3.0,3.0 0.0 0,0 5.0059,3.9277 C 5.0024,3.9514 5.0,3.9753 5.0,4.0 L 5.0,10.5 C 5.0,10.777 5.223,11.0 5.5,11.0 L 7.0,11.0 L 7.0,14.0 C 7.0,14.554 7.446,15.0 8.0,15.0 C 8.554,15.0 9.0,14.554 9.0,14.0 L 9.0,11.0 L 10.5,11.0 C 10.777,11.0 11.0,10.777 11.0,10.5 L 11.0,4.0 C 11.0,3.9827 10.9998,3.9661 10.998,3.9492 A 3.0,3.0 0.0 0,0 8.0,1.0 M 6.9688,5.0 L 7.0312,5.0 C 7.5679,5.0 8.0,5.446 8.0,6.0 L 8.0,7.4746 C 7.9996,7.4831 8.0,7.4913 8.0,7.5 L 8.0,8.0 L 8.0,8.5 C 8.0,8.777 8.223,9.0 8.5,9.0 C 8.777,9.0 9.0,8.777 9.0,8.5 L 9.0,8.0 L 9.0,7.5 C 9.0,7.223 9.223,7.0 9.5,7.0 C 9.777,7.0 10.0,7.223 10.0,7.5 L 10.0,8.0 L 10.0,8.5254 L 10.0,10.0 L 6.0,10.0 L 6.0,8.0 L 6.0,6.0 C 6.0,5.446 6.4321,5.0 6.9688,5.0" fill="#000" /></svg>