<svg xmlns="http://www.w3.org/2000/svg" width="16" height="16"><path d="M 3.5,2.0859 L 2.0859,3.5 L 2.793,4.207 L 4.0,5.4141 L 4.0,10.5859 L 2.793,11.793 L 2.0859,12.5 L 3.5,13.9141 L 4.207,13.207 L 5.4141,12.0 L 10.5859,12.0 L 11.793,13.207 L 12.5,13.9141 L 13.9141,12.5 L 13.207,11.793 L 12.0,10.5859 L 12.0,5.4141 L 13.207,4.207 L 13.9141,3.5 L 12.5,2.0859 L 11.793,2.793 L 10.5859,4.0 L 5.4141,4.0 L 4.207,2.793 L 3.5,2.0859 M 6.0,6.0 L 10.0,6.0 L 10.0,10.0 L 6.0,10.0 L 6.0,6.0" fill="#000" /></svg>