<?xml version="1.0" encoding="utf-8" ?>
<svg baseProfile="full" height="16" version="1.1" width="16" xmlns="http://www.w3.org/2000/svg" xmlns:ev="http://www.w3.org/2001/xml-events" xmlns:xlink="http://www.w3.org/1999/xlink"><defs /><path d="M 7.0,1.0 L 7.0,3.0 C 7.0,5.7285 5.3503,5.1576 5.0508,7.2871 C 5.02,7.3521 5.0,7.4231 5.0,7.5 L 5.0,8.0 L 5.0,10.0 L 5.0,14.5 C 5.0,14.777 5.223,15.0 5.5,15.0 L 10.5,15.0 C 10.777,15.0 11.0,14.777 11.0,14.5 L 11.0,10.0 L 11.0,8.0 L 11.0,7.5 C 11.0,7.4231 10.98,7.3521 10.9492,7.2871 C 10.6497,5.1576 9.0,5.7285 9.0,3.0 L 9.0,1.0 L 7.0,1.0 M 6.0,9.0 L 10.0,9.0 L 10.0,11.0 L 6.0,11.0 L 6.0,9.0" fill="#000" /></svg>