<?xml version="1.0" encoding="utf-8" ?>
<svg baseProfile="full" height="16" version="1.1" width="16" xmlns="http://www.w3.org/2000/svg" xmlns:ev="http://www.w3.org/2001/xml-events" xmlns:xlink="http://www.w3.org/1999/xlink"><defs /><path d="m 774.49414,149.99414 a 0.50005,0.50005 0 0 0 -0.34766,0.85938 l 1.14649,1.14648 -1.14649,1.14648 a 0.50005,0.50005 0 1 0 0.70704,0.70704 L 776,152.70703 l 1.14648,1.14649 a 0.50005,0.50005 0 1 0 0.70704,-0.70704 L 776.70703,152 l 1.14649,-1.14648 a 0.50005,0.50005 0 0 0 -0.36329,-0.85743 0.50005,0.50005 0 0 0 -0.34375,0.15039 L 776,151.29297 l -1.14648,-1.14649 a 0.50005,0.50005 0 0 0 -0.35938,-0.15234 z" fill="#000" transform="translate(8.0,8.0) translate(-776.0,-152.0)" /></svg>