<?xml version="1.0" encoding="utf-8" ?>
<svg baseProfile="full" height="16" version="1.1" width="16" xmlns="http://www.w3.org/2000/svg" xmlns:ev="http://www.w3.org/2001/xml-events" xmlns:xlink="http://www.w3.org/1999/xlink"><defs /><path d="M 14.4746,2.0 C 14.2097,2.0133 14.0,2.2317 14.0,2.5 C 14.0,2.777 13.777,3.0 13.5,3.0 L 13.4746,3.0 L 10.0,3.0 C 9.1389,3.0 8.3725,3.2955 7.834,3.834 C 7.2955,4.3725 7.0,5.1389 7.0,6.0 L 7.0,6.0371 C 5.3083,6.2813 4.0,7.7428 4.0,9.5 L 4.0,10.0 L 4.5,10.0 L 10.5,10.0 L 11.0,10.0 L 11.0,9.5 C 11.0,7.7428 9.6917,6.2813 8.0,6.0371 L 8.0,6.0 C 8.0,5.3611 8.2045,4.8775 8.541,4.541 C 8.8775,4.2045 9.3611,4.0 10.0,4.0 L 13.5,4.0 C 13.777,4.0 14.0,4.223 14.0,4.5 C 14.0,4.777 14.223,5.0 14.5,5.0 L 15.0,5.0 L 15.0,4.5 L 15.0,3.5 L 15.0,2.0 L 14.5,2.0 C 14.491,2.0 14.4832,1.9996 14.4746,2.0 L 14.4746,2.0 M 6.5,11.0 C 6.5,11.0 6.0334,11.9332 6.002,12.4473 L 6.002,12.4493 L 6.002,12.4513 C 6.0,12.4675 6.0,12.4835 6.0,12.5001 C 6.0,12.7771 6.223,13.0001 6.5,13.0001 C 6.777,13.0001 7.0,12.7771 7.0,12.5001 C 7.0,12.4845 6.999,12.4659 6.998,12.4493 L 6.998,12.4473 C 6.9667,11.9332 6.5,11.0 6.5,11.0 M 10.5,11.0 C 10.5,11.0 10.0334,11.9332 10.002,12.4473 L 10.002,12.4493 L 10.002,12.4513 C 10.0,12.4675 10.0,12.4835 10.0,12.5001 C 10.0,12.7771 10.223,13.0001 10.5,13.0001 C 10.777,13.0001 11.0,12.7771 11.0,12.5001 C 11.0,12.4845 10.999,12.4659 10.998,12.4493 L 10.998,12.4473 C 10.9667,11.9332 10.5,11.0 10.5,11.0 M 4.5,12.0 C 4.5,12.0 4.0334,12.9332 4.002,13.4473 L 4.002,13.4493 L 4.002,13.4513 C 4.0,13.4675 4.0,13.4835 4.0,13.5001 C 4.0,13.7771 4.223,14.0001 4.5,14.0001 C 4.7769,14.0001 5.0,13.7771 5.0,13.5001 C 5.0,13.4845 4.999,13.4659 4.998,13.4493 L 4.998,13.4473 C 4.9667,12.9332 4.5,12.0 4.5,12.0 M 8.5,12.0 C 8.5,12.0 8.0334,12.9332 8.002,13.4473 L 8.002,13.4493 L 8.002,13.4513 C 8.0,13.4675 8.0,13.4835 8.0,13.5001 C 8.0,13.7771 8.223,14.0001 8.5,14.0001 C 8.777,14.0001 9.0,13.7771 9.0,13.5001 C 9.0,13.4845 8.999,13.4678 8.998,13.4513 L 8.998,13.4493 L 8.998,13.4473 C 8.9667,12.9332 8.5,12.0 8.5,12.0" fill="#000" /></svg>