<?xml version="1.0" encoding="utf-8" ?>
<svg baseProfile="full" height="16" version="1.1" width="16" xmlns="http://www.w3.org/2000/svg" xmlns:ev="http://www.w3.org/2001/xml-events" xmlns:xlink="http://www.w3.org/1999/xlink"><defs /><path d="m 73,434 c -1.65685,0 -3,1.34315 -3,3 h 1 c 0,-1.10457 0.89543,-2 2,-2 1.10457,0 2,0.89543 2,2 v 8.5 c 0,0.277 0.223,0.5 0.5,0.5 0.277,0 0.5,-0.223 0.5,-0.5 V 437 c 0,-1.65685 -1.34315,-3 -3,-3 z m -2.5,3.5 c 0,2 0,3 2,5 0,-2 0,-5 -2,-5 z m 0,0 c -2,0 -2,3 -2,5 2,-2 2,-3 2,-5 z" fill="#000" transform="translate(8.0,8.0) translate(-72.0,-440.0)" /></svg>