<?xml version="1.0" encoding="utf-8" ?>
<svg baseProfile="full" height="16" version="1.1" width="16" xmlns="http://www.w3.org/2000/svg" xmlns:ev="http://www.w3.org/2001/xml-events" xmlns:xlink="http://www.w3.org/1999/xlink"><defs /><path d="M 10.4688,1.0 C 10.2091,1.0 10.0,1.223 10.0,1.5 L 10.0,2.0 L 9.4688,2.0 C 9.2091,2.0 9.0,2.223 9.0,2.5 L 9.0,3.5 C 9.0,3.777 9.2091,4.0 9.4688,4.0 L 10.0,4.0 L 10.0,4.5 C 10.0,4.777 10.2091,5.0 10.4688,5.0 L 11.5312,5.0 C 11.7909,5.0 12.0,4.777 12.0,4.5 L 12.0,4.0 L 12.5312,4.0 C 12.7909,4.0 13.0,3.777 13.0,3.5 L 13.0,2.5 C 13.0,2.223 12.7909,2.0 12.5312,2.0 L 12.0,2.0 L 12.0,1.5 C 12.0,1.223 11.7909,1.0 11.5312,1.0 L 10.4688,1.0 M 4.4922,3.0 C 4.2191,3.004 4.0,3.2269 4.0,3.5 L 4.0,4.6621 L 1.8144,5.5352 C 1.543,5.6438 1.4222,5.9611 1.5527,6.2227 L 2.0527,7.2227 C 2.1533,7.4245 2.3765,7.5341 2.5977,7.4902 L 4.6562,7.0781 C 5.0716,8.0123 5.5,9.2571 5.5,10.0 C 5.5,10.8056 5.625,11.5667 5.625,12.125 C 5.625,12.4042 5.5919,12.6257 5.5352,12.7676 C 5.4784,12.9095 5.423,12.9799 5.2774,13.0527 C 4.806,13.2885 4.973,13.9989 5.5,14.0 L 6.5,14.0 C 6.7762,14.0 7.0,13.7761 7.0,13.5 L 7.0,10.4375 C 8.2816,10.4153 9.4227,10.3577 10.6485,9.9766 C 11.0512,9.8513 11.2374,9.8869 11.3477,9.9375 C 11.458,9.9881 11.5495,10.0922 11.6582,10.2793 C 11.767,10.4663 11.8672,10.7161 12.0469,10.9707 C 12.1357,11.0964 12.3577,11.1323 12.5176,11.2324 C 12.5439,11.8607 12.625,12.3988 12.625,12.625 C 12.625,12.7569 12.6114,12.7909 12.584,12.832 C 12.5566,12.8731 12.4827,12.9501 12.2774,13.0527 C 11.806,13.2885 11.973,13.9989 12.5001,14.0 L 13.5001,14.0 C 13.7762,13.9999 14.0,13.7761 14.0001,13.5 L 14.0001,11.5 L 14.0001,9.5 C 14.0001,8.9211 13.8629,8.3389 13.5469,7.8593 C 14.1481,7.7196 14.2662,7.4409 14.8536,6.8535 C 15.1789,6.5355 14.945,5.9836 14.4903,5.996 C 14.3605,6.0 14.2373,6.0536 14.1465,6.1464 C 13.2643,7.0287 13.0,7.0 12.0,7.0 C 9.1111,7.0 6.7596,5.988 5.916,4.7227 L 4.916,3.2227 C 4.8217,3.0812 4.6621,2.9974 4.4922,3.0" fill="#000" /></svg>