<svg xmlns="http://www.w3.org/2000/svg" width="16" height="16"><path d="M 2.5,3.0 C 2.223,3.0 2.0,3.223 2.0,3.5 L 2.0,5.5 C 2.0,5.777 2.223,6.0 2.5,6.0 L 3.0,6.0 L 3.0,4.0 L 13.0,4.0 L 13.0,6.0 L 13.5,6.0 C 13.777,6.0 14.0,5.777 14.0,5.5 L 14.0,3.5 C 14.0,3.223 13.777,3.0 13.5,3.0 L 2.5,3.0 M 4.0,5.0 L 4.0,9.0 L 5.5,9.0 C 5.777,9.0 6.0,9.223 6.0,9.5 C 6.0,9.777 5.777,10.0 5.5,10.0 L 4.0,10.0 L 4.0,12.5 C 4.0,12.777 4.223,13.0 4.5,13.0 L 6.0,13.0 A 2.0,2.0 0.0 0,1 7.9512,11.0 A 2.0,2.0 0.0 0,1 8.0,11.0 A 2.0,2.0 0.0 0,1 10.0,13.0 L 11.5,13.0 C 11.777,13.0 12.0,12.777 12.0,12.5 L 12.0,10.0 L 10.5,10.0 C 10.223,10.0 10.0,9.777 10.0,9.5 C 10.0,9.223 10.223,9.0 10.5,9.0 L 12.0,9.0 L 12.0,5.0 L 4.0,5.0 L 4.0,5.0 M 7.5,9.0 L 8.5,9.0 C 8.777,9.0 9.0,9.223 9.0,9.5 C 9.0,9.777 8.777,10.0 8.5,10.0 L 7.5,10.0 C 7.223,10.0 7.0,9.777 7.0,9.5 C 7.0,9.223 7.223,9.0 7.5,9.0" fill="#000" /></svg>