<?xml version="1.0" encoding="utf-8" ?>
<svg baseProfile="full" height="16" version="1.1" width="16" xmlns="http://www.w3.org/2000/svg" xmlns:ev="http://www.w3.org/2001/xml-events" xmlns:xlink="http://www.w3.org/1999/xlink"><defs /><path d="M 8.0,1.0 L 7.7812,2.0312 C 5.7491,2.1425 4.1425,3.7491 4.0312,5.7812 L 3.0,6.0 L 4.0312,6.1875 C 4.1222,8.119 5.5566,9.6726 7.4375,9.9375 L 8.0,15.0 L 8.5625,9.9375 C 10.4434,9.6726 11.8778,8.119 11.9688,6.1875 L 13.0,6.0 L 11.9688,5.7812 C 11.8575,3.7491 10.2509,2.1425 8.2188,2.0312 L 8.0,1.0 M 7.5938,3.0312 L 7.1562,5.1562 L 5.0312,5.5938 C 5.215,4.2701 6.2701,3.215 7.5938,3.0312 M 8.4062,3.0312 C 9.7299,3.215 10.785,4.2701 10.9688,5.5938 L 8.8438,5.1562 L 8.4062,3.0312 M 5.0312,6.4062 L 7.0938,6.8125 L 7.3125,8.9062 C 6.1257,8.6219 5.2016,7.6333 5.0312,6.4062 M 10.9688,6.4062 C 10.7984,7.6333 9.8743,8.6219 8.6875,8.9062 L 8.9062,6.8125 L 10.9688,6.4062" fill="#000" /></svg>