<?xml version="1.0" encoding="utf-8" ?>
<svg baseProfile="full" height="16" version="1.1" width="16" xmlns="http://www.w3.org/2000/svg" xmlns:ev="http://www.w3.org/2001/xml-events" xmlns:xlink="http://www.w3.org/1999/xlink"><defs /><path d="M 14.0,6.0 C 14.0,4.8954 13.1046,4.0 12.0,4.0 L 11.0,4.0 L 11.0,3.0 L 4.0,3.0 L 4.0,10.0 L 11.0,10.0 L 11.0,9.0 L 12.0,9.0 C 13.1046,9.0 14.0,8.1046 14.0,7.0 L 14.0,6.0 M 13.0,7.0 C 13.0,7.5523 12.5523,8.0 12.0,8.0 L 11.0,8.0 L 11.0,5.0 L 12.0,5.0 C 12.5523,5.0 13.0,5.4477 13.0,6.0 L 13.0,7.0 M 2.0,11.0 L 3.0,12.0 L 12.0,12.0 L 13.0,11.0 L 2.0,11.0" fill="#000" /></svg>