<?xml version="1.0" encoding="utf-8" ?>
<svg baseProfile="full" height="16" version="1.1" width="16" xmlns="http://www.w3.org/2000/svg" xmlns:ev="http://www.w3.org/2001/xml-events" xmlns:xlink="http://www.w3.org/1999/xlink"><defs /><path d="M 7.0,5.0 C 6.7729,4.9998 6.5525,5.077 6.375,5.2188 L 4.1484,7.0 L 3.0,7.0 C 2.4477,7.0001 2.0001,7.4477 2.0,8.0 L 2.0,9.0 C 2.0001,9.5523 2.4477,9.9999 3.0,10.0 C 3.0,8.892 3.892,8.0 5.0,8.0 C 6.108,8.0 7.0,8.892 7.0,10.0 L 9.0,10.0 C 9.0,8.892 9.892,8.0 11.0,8.0 C 12.108,8.0 13.0,8.892 13.0,10.0 C 13.5523,9.9999 13.9999,9.5523 14.0,9.0 L 14.0,8.0 C 13.9999,7.4477 13.5523,7.0001 13.0,7.0 L 12.4141,7.0 L 10.707,5.293 C 10.5195,5.1054 10.2652,5.0 10.0,5.0 L 7.0,5.0 M 5.0,9.0 C 4.446,9.0 4.0,9.446 4.0,10.0 C 4.0,10.554 4.446,11.0 5.0,11.0 C 5.554,11.0 6.0,10.554 6.0,10.0 C 6.0,9.446 5.554,9.0 5.0,9.0 M 11.0,9.0 C 10.446,9.0 10.0,9.446 10.0,10.0 C 10.0,10.554 10.446,11.0 11.0,11.0 C 11.554,11.0 12.0,10.554 12.0,10.0 C 12.0,9.446 11.554,9.0 11.0,9.0 M 5.0,12.043 L 4.6465,12.3965 C 4.2054,12.8376 3.8333,13.0 3.5,13.0 C 3.1667,13.0 2.7946,12.8376 2.3535,12.3965 L 1.6465,13.1035 C 2.2054,13.6624 2.8333,14.0 3.5,14.0 C 4.0394,14.0 4.5273,13.6558 5.0,13.2754 C 5.4727,13.6558 5.9606,14.0 6.5,14.0 C 7.0394,14.0 7.5273,13.6558 8.0,13.2754 C 8.4727,13.6558 8.9606,14.0 9.5,14.0 C 10.0394,14.0 10.5273,13.6558 11.0,13.2754 C 11.4727,13.6558 11.9606,14.0 12.5,14.0 C 13.1667,14.0 13.7946,13.6624 14.3535,13.1035 L 13.6465,12.3965 C 13.2054,12.8376 12.8333,13.0 12.5,13.0 C 12.1667,13.0 11.7946,12.8376 11.3535,12.3965 L 11.0,12.043 L 10.6465,12.3965 C 10.2054,12.8376 9.8333,13.0 9.5,13.0 C 9.1667,13.0 8.7946,12.8376 8.3535,12.3965 L 8.0,12.043 L 7.6465,12.3965 C 7.2054,12.8376 6.8333,13.0 6.5,13.0 C 6.1667,13.0 5.7946,12.8376 5.3535,12.3965 L 5.0,12.043" fill="#000" /></svg>