<?xml version="1.0" encoding="utf-8" ?>
<svg baseProfile="full" height="16" version="1.1" width="16" xmlns="http://www.w3.org/2000/svg" xmlns:ev="http://www.w3.org/2001/xml-events" xmlns:xlink="http://www.w3.org/1999/xlink"><defs /><path d="M 7.0,2.0 L 7.0,4.0 L 2.0,4.0 L 2.0,6.0 L 3.3184,6.0 C 3.9697,7.4581 5.1003,8.7948 6.4004,10.0019 C 5.4085,10.7959 4.3847,11.5417 3.4453,12.168 L 4.5547,13.832 C 5.6245,13.1188 6.8312,12.29 8.0,11.3672 C 9.1688,12.29 10.3755,13.1188 11.4453,13.832 L 12.5547,12.168 C 11.6153,11.5417 10.5915,10.7959 9.5996,10.0019 C 10.8997,8.7948 12.0303,7.4581 12.6816,6.0 L 14.0,6.0 L 14.0,4.0 L 9.0,4.0 L 9.0,2.0 L 7.0,2.0 M 5.6484,6.0 L 10.3516,6.0 C 9.772,6.8663 8.9562,7.7664 8.0,8.6445 C 7.0438,7.7664 6.228,6.8663 5.6484,6.0" fill="#000" /></svg>