<?xml version="1.0" encoding="utf-8" ?>
<svg baseProfile="full" height="16" version="1.1" width="16" xmlns="http://www.w3.org/2000/svg" xmlns:ev="http://www.w3.org/2001/xml-events" xmlns:xlink="http://www.w3.org/1999/xlink"><defs /><path d="M 7.4141,0.918 C 7.3808,0.9173 7.3466,0.92 7.3125,0.926 L 6.8203,1.0158 L 6.8183,1.0158 L 6.33,1.1056 C 6.0575,1.1552 5.8762,1.4151 5.9257,1.6876 L 6.0155,2.1778 A 1.0,1.0 0.0 0,0 6.0155,2.1798 L 6.1054,2.6701 L 6.5039,4.8634 L 5.0351,3.5763 L 4.2832,2.9181 C 4.0747,2.7357 3.7585,2.7565 3.5761,2.965 L 2.9179,3.7189 C 2.7355,3.9274 2.7563,4.2416 2.9648,4.424 L 3.7187,5.0822 C 3.7197,5.0832 3.7207,5.0852 3.7227,5.0862 L 6.3829,7.4124 L 2.836,9.8948 L 2.4259,10.1819 L 2.0177,10.4671 C 1.7907,10.6259 1.7358,10.9374 1.8946,11.1643 L 2.1817,11.5745 L 2.4669,11.9827 C 2.6257,12.2096 2.9372,12.2646 3.1641,12.1057 L 3.5743,11.8186 L 3.9825,11.5335 C 3.9855,11.5315 3.9875,11.5295 3.9905,11.5275 L 7.2952,9.215 L 7.9261,12.6818 C 7.9264,12.6838 7.9257,12.6858 7.9261,12.6878 L 7.9867,13.0217 L 8.016,13.1799 A 1.0,1.0 0.0 0,0 8.016,13.1819 L 8.1059,13.6702 C 8.1554,13.9428 8.4154,14.1221 8.6879,14.0726 L 9.1801,13.9847 A 1.0,1.0 0.0 0,0 9.2035,13.9787 L 9.6703,13.8947 C 9.9428,13.8451 10.1241,13.5852 10.0746,13.3126 L 9.9848,12.8205 L 9.4965,10.1369 L 10.9516,11.4103 C 10.9566,11.4143 10.9606,11.4193 10.9653,11.424 L 11.3422,11.7521 L 11.7192,12.0822 C 11.9276,12.2646 12.2418,12.2438 12.4242,12.0353 L 13.0824,11.2834 C 13.2649,11.0749 13.244,10.7587 13.0356,10.5763 L 12.2836,9.9181 C 12.2776,9.9131 12.2718,9.9091 12.266,9.9044 L 9.6176,7.588 L 13.1644,5.1056 L 13.9828,4.5333 C 14.2097,4.3745 14.2647,4.063 14.1058,3.8361 L 13.5336,3.0177 C 13.3747,2.7908 13.0632,2.7358 12.8363,2.8947 L 12.0179,3.4669 C 12.0169,3.4679 12.0159,3.4699 12.0139,3.4709 L 8.7054,5.7854 L 8.0745,2.3127 L 7.8948,1.3283 C 7.8514,1.0899 7.6472,0.9231 7.4143,0.9182 L 7.4141,0.918" fill="#000" /></svg>