<?xml version="1.0" encoding="utf-8" ?>
<svg baseProfile="full" height="16" version="1.1" width="16" xmlns="http://www.w3.org/2000/svg" xmlns:ev="http://www.w3.org/2001/xml-events" xmlns:xlink="http://www.w3.org/1999/xlink"><defs /><path d="m 198.49414,560.99414 a 0.50005,0.50005 0 0 0 -0.34766,0.85938 L 199.29297,563 H 197.5 c -0.66667,0 -1.27495,0.31792 -1.72852,0.77148 C 195.31792,564.22505 195,564.83333 195,565.5 a 0.50005,0.50005 0 1 0 1,0 c 0,-0.33333 0.18208,-0.72505 0.47852,-1.02148 C 196.77495,564.18208 197.16667,564 197.5,564 h 1.79297 l -1.14649,1.14648 a 0.50005,0.50005 0 1 0 0.70704,0.70704 l 1.95703,-1.95704 a 0.50005,0.50005 0 0 0 0.002,-0.79296 0.50005,0.50005 0 0 0 -0.006,-0.004 l -1.95312,-1.95313 a 0.50005,0.50005 0 0 0 -0.35938,-0.15234 z m 6.00586,9 a 0.50005,0.50005 0 0 0 -0.49219,0.50781 c 0,0.33334 -0.18208,0.72505 -0.47851,1.02149 -0.29644,0.29643 -0.68815,0.47851 -1.02149,0.47851 h -1.79297 l 1.14649,-1.14648 a 0.50005,0.50005 0 0 0 -0.36328,-0.85742 0.50005,0.50005 0 0 0 -0.34375,0.15039 l -1.95703,1.95703 a 0.50005,0.50005 0 0 0 0.004,0.79687 l 1.95313,1.95313 a 0.50005,0.50005 0 1 0 0.70703,-0.70703 l -1.14649,-1.14649 h 1.79297 c 0.66667,0 1.27495,-0.31791 1.72852,-0.77148 0.45357,-0.45357 0.77148,-1.06185 0.77148,-1.72852 A 0.50005,0.50005 0 0 0 204.5,569.99414 Z" fill="#000" transform="translate(8.0,8.0) translate(-200.0,-568.0)" /></svg>