<?xml version="1.0" encoding="utf-8" ?>
<svg baseProfile="full" height="16" version="1.1" width="16" xmlns="http://www.w3.org/2000/svg" xmlns:ev="http://www.w3.org/2001/xml-events" xmlns:xlink="http://www.w3.org/1999/xlink"><defs /><path d="M 7.5,2.0 A 5.5,5.5 0.0 0,0 2.0,7.5 A 5.5,5.5 0.0 0,0 7.5,13.0 A 5.5,5.5 0.0 0,0 13.0,7.5 A 5.5,5.5 0.0 0,0 7.5,2.0 M 7.459,3.7871 A 0.7273,0.7273 0.0 0,1 8.0,4.0 A 0.7273,0.7273 0.0 0,1 8.0,5.0293 A 0.7273,0.7273 0.0 0,1 6.9707,5.0293 A 0.7273,0.7273 0.0 0,1 6.9707,4.0 A 0.7273,0.7273 0.0 0,1 7.459,3.7871 M 4.459,6.7871 A 0.7273,0.7273 0.0 0,1 5.0,7.0 A 0.7273,0.7273 0.0 0,1 5.0,8.0293 A 0.7273,0.7273 0.0 0,1 3.9707,8.0293 A 0.7273,0.7273 0.0 0,1 3.9707,7.0 A 0.7273,0.7273 0.0 0,1 4.459,6.7871 M 10.459,6.7871 A 0.7273,0.7273 0.0 0,1 11.0,7.0 A 0.7273,0.7273 0.0 0,1 11.0,8.0293 A 0.7273,0.7273 0.0 0,1 9.9707,8.0293 A 0.7273,0.7273 0.0 0,1 9.9707,7.0 A 0.7273,0.7273 0.0 0,1 10.459,6.7871" fill="#000" /></svg>