<svg xmlns="http://www.w3.org/2000/svg" width="16" height="16"><path d="M 5.4922,2.9922 C 5.4673,2.9929 5.4425,2.9952 5.418,3.0002 L 1.5,3.0002 C 1.2239,3.0002 1.0,3.2241 1.0,3.5002 L 1.0,11.4201 C 0.991,11.4738 0.991,11.5285 1.0,11.5822 L 1.0,13.5 C 0.99,14.1762 2.0096,14.1762 2.0,13.5 L 2.0,12.0 L 5.4199,12.0 C 5.4736,12.009 5.5283,12.009 5.582,12.0 L 9.4199,12.0 C 9.4736,12.009 9.5283,12.009 9.582,12.0 L 13.5,12.0 C 13.7761,12.0 14.0,11.7761 14.0,11.5 L 14.0,3.5 C 14.0,3.2239 13.7761,3.0 13.5,3.0 L 9.5918,3.0 C 9.5589,2.994 9.5256,2.991 9.4922,2.992 C 9.4673,2.9928 9.4425,2.995 9.418,3.0 L 5.5918,3.0 C 5.5589,2.994 5.5256,2.991 5.4922,2.992 L 5.4922,2.9922 M 2.0,4.0 L 5.0,4.0 L 5.0,11.0 L 2.0,11.0 L 2.0,4.0 M 10.0,4.0 L 13.0,4.0 L 13.0,11.0 L 10.0,11.0 L 10.0,4.0" fill="#000" /></svg>