<?xml version="1.0" encoding="utf-8" ?>
<svg baseProfile="full" height="16" version="1.1" width="16" xmlns="http://www.w3.org/2000/svg" xmlns:ev="http://www.w3.org/2001/xml-events" xmlns:xlink="http://www.w3.org/1999/xlink"><defs /><path d="M 7.5,2.0 A 3.5,3.5 0.0 0,0 4.0,5.5 A 3.5,3.5 0.0 0,0 7.5,9.0 A 3.5,3.5 0.0 0,0 11.0,5.5 A 3.5,3.5 0.0 0,0 7.5,2.0 M 7.5,3.0 A 0.5,0.5 0.0 1,1 7.5,4.0 C 6.6657,4.0 6.0,4.6657 6.0,5.5 A 0.5,0.5 0.0 1,1 5.0,5.5 C 5.0,4.1252 6.1252,3.0 7.5,3.0 M 2.4922,3.9922 A 0.5,0.5 0.0 0,0 2.0,4.5 L 2.0,5.4648 L 2.0,5.5 A 0.5,0.5 0.0 0,0 2.006,5.5781 C 2.0337,7.5119 3.0719,9.2948 4.7501,10.2637 C 5.4511,10.6684 6.2199,10.8976 7.0001,10.9688 A 0.5,0.5 0.0 0,0 7.0,11.0 L 7.0,13.0 L 3.5,13.0 A 0.5,0.5 0.0 1,0 3.5,14.0 L 11.5,14.0 A 0.5,0.5 0.0 1,0 11.5,13.0 L 8.0,13.0 L 8.0,11.0 A 0.5,0.5 0.0 0,0 7.998,10.9688 C 8.7789,10.8978 9.5484,10.6687 10.25,10.2637 C 11.9264,9.2957 12.9644,7.5155 12.9941,5.584 A 0.5,0.5 0.0 0,0 12.9941,5.5801 A 0.5,0.5 0.0 0,0 13.0,5.5 L 13.0,4.5 A 0.5,0.5 0.0 0,0 12.4922,3.9922 A 0.5,0.5 0.0 0,0 12.0,4.5 L 12.0,5.4648 L 12.0,5.5 C 12.0,7.1085 11.143,8.5922 9.75,9.3965 C 8.357,10.2007 6.643,10.2007 5.25,9.3965 C 3.857,8.5922 3.0,7.1085 3.0,5.5 L 3.0,4.5 A 0.5,0.5 0.0 0,0 2.4922,3.9922" fill="#000" /></svg>