<?xml version="1.0" encoding="utf-8" ?>
<svg baseProfile="full" height="16" version="1.1" width="16" xmlns="http://www.w3.org/2000/svg" xmlns:ev="http://www.w3.org/2001/xml-events" xmlns:xlink="http://www.w3.org/1999/xlink"><defs /><path d="M 5.0,2.0 C 4.446,2.0 4.0,2.446 4.0,3.0 L 4.0,12.0 C 4.0,12.554 4.446,13.0 5.0,13.0 L 7.5,13.0 A 0.5,0.5 0.0 0,1 7.6465,12.6465 L 8.6465,11.6465 A 0.5,0.5 0.0 0,1 9.0,11.5 A 0.5,0.5 0.0 0,1 9.3535,11.6465 A 0.5,0.5 0.0 0,1 9.3535,12.3535 L 8.707,13.0 L 10.0,13.0 C 10.554,13.0 11.0,12.554 11.0,12.0 L 11.0,3.0 C 11.0,2.446 10.554,2.0 10.0,2.0 L 6.707,2.0 L 7.3535,2.6465 A 0.5,0.5 0.0 0,1 7.3535,3.3535 A 0.5,0.5 0.0 0,1 6.6465,3.3535 L 5.6465,2.3535 A 0.5,0.5 0.0 0,1 5.5,2.0 L 5.0,2.0 M 9.0,3.5 A 0.5,0.5 0.0 0,1 9.3535,3.6465 A 0.5,0.5 0.0 0,1 9.3535,4.3535 L 8.3535,5.3535 A 0.5,0.5 0.0 0,1 7.6465,5.3535 A 0.5,0.5 0.0 0,1 7.6465,4.6465 L 8.6465,3.6465 A 0.5,0.5 0.0 0,1 9.0,3.5 M 6.0,5.5 A 0.5,0.5 0.0 0,1 6.3535,5.6465 L 7.3535,6.6465 A 0.5,0.5 0.0 0,1 7.3535,7.3535 A 0.5,0.5 0.0 0,1 6.6465,7.3535 L 5.6465,6.3535 A 0.5,0.5 0.0 0,1 5.6465,5.6465 A 0.5,0.5 0.0 0,1 6.0,5.5 M 9.0,7.5 A 0.5,0.5 0.0 0,1 9.3535,7.6465 A 0.5,0.5 0.0 0,1 9.3535,8.3535 L 8.3535,9.3535 A 0.5,0.5 0.0 0,1 7.6465,9.3535 A 0.5,0.5 0.0 0,1 7.6465,8.6465 L 8.6465,7.6465 A 0.5,0.5 0.0 0,1 9.0,7.5 M 6.0,9.5 A 0.5,0.5 0.0 0,1 6.3535,9.6465 L 7.3535,10.6465 A 0.5,0.5 0.0 0,1 7.3535,11.3535 A 0.5,0.5 0.0 0,1 6.6465,11.3535 L 5.6465,10.3535 A 0.5,0.5 0.0 0,1 5.6465,9.6465 A 0.5,0.5 0.0 0,1 6.0,9.5" fill="#000" /></svg>