<svg xmlns="http://www.w3.org/2000/svg" width="16" height="16"><path d="M 7.5,2.0 C 7.223,2.0 7.0,2.223 7.0,2.5 L 7.0,3.0 L 5.5,3.0 A 0.5,0.5 0.0 0,0 5.0,3.5 A 0.5,0.5 0.0 0,0 5.5,4.0 L 7.0,4.0 L 7.0,5.0 L 5.5,5.0 A 0.5,0.5 0.0 0,0 5.0,5.5 A 0.5,0.5 0.0 0,0 5.5,6.0 L 7.0,6.0 L 7.0,14.5 C 7.0,14.777 7.223,15.0 7.5,15.0 L 8.5,15.0 C 8.777,15.0 9.0,14.777 9.0,14.5 L 9.0,6.0 L 10.5,6.0 A 0.5,0.5 0.0 0,0 11.0,5.5 A 0.5,0.5 0.0 0,0 10.5,5.0 L 9.0,5.0 L 9.0,2.5 C 9.0,2.223 8.777,2.0 8.5,2.0 L 7.5,2.0 M 5.5,6.5 A 0.5,0.5 0.0 0,0 5.0,7.0 L 5.0,8.0 A 0.5,0.5 0.0 0,0 5.5,8.5 A 0.5,0.5 0.0 0,0 6.0,8.0 L 6.0,7.0 A 0.5,0.5 0.0 0,0 5.5,6.5 M 10.5,6.5 A 0.5,0.5 0.0 0,0 10.0,7.0 L 10.0,8.0 A 0.5,0.5 0.0 0,0 10.5,8.5 A 0.5,0.5 0.0 0,0 11.0,8.0 L 11.0,7.0 A 0.5,0.5 0.0 0,0 10.5,6.5" fill="#000" /></svg>