<svg xmlns="http://www.w3.org/2000/svg" width="16" height="16"><path d="M 7.0,9.0 C 6.7729,8.9998 6.5525,9.077 6.375,9.2188 L 4.1484,11.0 L 3.0,11.0 C 2.4477,11.0001 2.0001,11.4477 2.0,12.0 L 2.0,13.0 C 2.0001,13.5523 2.4477,13.9999 3.0,14.0 C 3.0,12.892 3.892,12.0 5.0,12.0 C 6.108,12.0 7.0,12.892 7.0,14.0 L 9.0,14.0 C 9.0,12.892 9.892,12.0 11.0,12.0 C 12.108,12.0 13.0,12.892 13.0,14.0 C 13.5523,13.9999 13.9999,13.5523 14.0,13.0 L 14.0,12.0 C 13.9999,11.4477 13.5523,11.0001 13.0,11.0 L 12.4141,11.0 L 10.707,9.293 C 10.5195,9.1054 10.2652,9.0 10.0,9.0 L 7.0,9.0 M 5.0,13.0 C 4.446,13.0 4.0,13.446 4.0,14.0 C 4.0,14.554 4.446,15.0 5.0,15.0 C 5.554,15.0 6.0,14.554 6.0,14.0 C 6.0,13.446 5.554,13.0 5.0,13.0 M 11.0,13.0 C 10.446,13.0 10.0,13.446 10.0,14.0 C 10.0,14.554 10.446,15.0 11.0,15.0 C 11.554,15.0 12.0,14.554 12.0,14.0 C 12.0,13.446 11.554,13.0 11.0,13.0" fill="#000" /><path d="M 7.0,2.0 C 6.7729,1.9998 6.5525,2.077 6.375,2.2188 L 4.1484,4.0 L 3.0,4.0 C 2.4477,4.0001 2.0001,4.4477 2.0,5.0 L 2.0,6.0 C 2.0001,6.5523 2.4477,6.9999 3.0,7.0 C 3.0,5.892 3.892,5.0 5.0,5.0 C 6.108,5.0 7.0,5.892 7.0,7.0 L 9.0,7.0 C 9.0,5.892 9.892,5.0 11.0,5.0 C 12.108,5.0 13.0,5.892 13.0,7.0 C 13.5523,6.9999 13.9999,6.5523 14.0,6.0 L 14.0,5.0 C 13.9999,4.4477 13.5523,4.0001 13.0,4.0 L 12.4141,4.0 L 10.707,2.293 C 10.5195,2.1054 10.2652,2.0 10.0,2.0 L 7.0,2.0 M 5.0,6.0 C 4.446,6.0 4.0,6.446 4.0,7.0 C 4.0,7.554 4.446,8.0 5.0,8.0 C 5.554,8.0 6.0,7.554 6.0,7.0 C 6.0,6.446 5.554,6.0 5.0,6.0 M 11.0,6.0 C 10.446,6.0 10.0,6.446 10.0,7.0 C 10.0,7.554 10.446,8.0 11.0,8.0 C 11.554,8.0 12.0,7.554 12.0,7.0 C 12.0,6.446 11.554,6.0 11.0,6.0" fill="#000" /></svg>