<svg xmlns="http://www.w3.org/2000/svg" width="16" height="16"><path d="M 4.5,4.0 C 3.8333,4.0 3.2251,4.3179 2.7715,4.7715 C 2.3179,5.2251 2.0,5.8333 2.0,6.5 L 2.0,9.0 L 1.5,9.0 C 1.223,9.0 1.0,9.223 1.0,9.5 C 1.0,9.777 1.223,10.0 1.5,10.0 L 6.0,10.0 L 6.0,11.5 C 6.0,11.777 6.223,12.0 6.5,12.0 L 8.5,12.0 C 8.777,12.0 9.0,11.777 9.0,11.5 L 9.0,10.0 L 13.5,10.0 C 13.777,10.0 14.0,9.777 14.0,9.5 C 14.0,9.223 13.777,9.0 13.5,9.0 L 13.0,9.0 L 13.0,6.5 C 13.0,5.8333 12.6821,5.2251 12.2285,4.7715 C 11.7749,4.3179 11.1667,4.0 10.5,4.0 L 4.5,4.0 M 4.5,5.0 L 7.0,5.0 L 7.0,9.0 L 3.0,9.0 L 3.0,6.5 C 3.0,6.1667 3.1821,5.7749 3.4785,5.4785 C 3.7749,5.1821 4.1667,5.0 4.5,5.0 M 8.0,5.0 L 10.5,5.0 C 10.8333,5.0 11.2251,5.1821 11.5215,5.4785 C 11.8179,5.7749 12.0,6.1667 12.0,6.5 L 12.0,9.0 L 8.0,9.0 L 8.0,5.0" fill="#000" /></svg>