<svg xmlns="http://www.w3.org/2000/svg" width="16" height="16"><path d="M 3.5,7.0 C 2.8333,7.0 2.3965,7.3965 2.1465,7.6465 C 1.8965,7.8965 1.8333,8.0 1.5,8.0 C 1.4665,8.0005 1.4331,8.004 1.4004,8.0117 C 1.3682,8.0187 1.3368,8.0294 1.3067,8.0429 C 1.2914,8.0489 1.2764,8.0565 1.2618,8.0644 C 1.247,8.0724 1.2327,8.0819 1.2188,8.0918 C 1.2052,8.1018 1.1922,8.1119 1.1797,8.123 C 1.1416,8.1556 1.1087,8.1938 1.082,8.2363 C 1.073,8.2502 1.0657,8.2646 1.0586,8.2793 C 1.0288,8.3397 1.0116,8.4054 1.0078,8.4726 C 1.0028,8.556 1.0191,8.6393 1.0547,8.7148 C 1.0693,8.7451 1.087,8.7739 1.1074,8.8007 C 1.1574,8.8673 1.2232,8.9203 1.2988,8.955 C 1.3141,8.962 1.3298,8.9675 1.3457,8.9726 C 1.3774,8.9837 1.4101,8.9915 1.4434,8.996 C 1.4622,8.998 1.4811,9.0 1.5,9.0 L 13.5002,9.0 C 13.5337,8.9995 13.5671,8.996 13.5998,8.9883 C 13.6651,8.974 13.7268,8.9468 13.7814,8.9082 C 13.8222,8.8793 13.8584,8.8444 13.8888,8.8047 C 13.9091,8.7785 13.9268,8.7504 13.9415,8.7207 C 13.9485,8.7054 13.9553,8.6898 13.961,8.6738 C 13.967,8.6584 13.9722,8.6428 13.9766,8.6269 C 13.9806,8.6108 13.9836,8.5945 13.9866,8.5781 C 13.9896,8.5613 13.9916,8.5443 13.9926,8.5273 C 13.9946,8.4941 13.9933,8.4607 13.9886,8.4277 C 13.9856,8.4113 13.9826,8.395 13.9786,8.3789 C 13.9746,8.363 13.9686,8.3474 13.963,8.332 C 13.958,8.3161 13.9521,8.3004 13.9454,8.2851 C 13.9308,8.2548 13.9131,8.226 13.8927,8.1992 C 13.8827,8.1863 13.8725,8.174 13.8615,8.1621 C 13.8165,8.1127 13.762,8.0729 13.7014,8.0449 C 13.6861,8.0379 13.6704,8.0324 13.6544,8.0273 C 13.6227,8.0162 13.5901,8.0084 13.5567,8.0039 C 13.5379,8.0019 13.519,7.9999 13.5,7.9999 C 13.1667,7.9999 13.1036,7.8964 12.8536,7.6464 C 12.6036,7.3964 12.1667,6.9999 11.5,6.9999 C 10.8334,6.9999 10.3965,7.3964 10.1465,7.6464 C 9.8983,7.8946 9.8332,7.9985 9.5059,7.9999 C 9.5039,7.9999 9.5019,7.9999 9.4999,7.9999 C 9.1666,7.9999 9.1034,7.8964 8.8534,7.6464 C 8.6034,7.3964 8.1666,6.9999 7.4999,6.9999 C 6.8332,6.9999 6.3964,7.3964 6.1464,7.6464 C 5.8964,7.8964 5.8332,7.9999 5.4999,7.9999 C 5.1666,7.9999 5.1034,7.8964 4.8534,7.6464 C 4.6035,7.3965 4.1667,7.0 3.5,7.0" fill="#000" /></svg>