<svg xmlns="http://www.w3.org/2000/svg" width="16" height="16"><path d="M 12.0,3.5 C 11.818,3.5 11.659,3.597 11.571,3.743 L 10.071,6.243 C 10.051,6.277 10.034,6.313 10.023,6.351 L 9.063,9.23 L 8.365,9.928 L 7.355,9.591 L 5.95,6.783 C 5.94,6.762 5.929,6.742 5.916,6.723 L 4.916,5.223 C 4.826,5.088 4.673,5.0 4.5,5.0 C 4.362,5.0 4.237,5.056 4.147,5.146 L 3.436,5.857 L 2.277,5.084 C 2.198,5.031 2.103,5.0 2.0,5.0 C 1.763,5.0 1.564,5.166 1.513,5.388 L 1.017,7.369 C 1.006,7.411 1.0,7.455 1.0,7.5 L 1.0,12.5 C 1.0,12.776 1.223,13.0 1.499,13.0 L 14.5,13.0 C 14.777,13.0 15.0,12.776 15.0,12.5 L 15.0,6.501 C 15.0,6.397 14.969,6.302 14.916,6.223 L 13.916,4.723 C 13.879,4.668 13.832,4.621 13.777,4.584 L 12.277,3.584 C 12.198,3.531 12.103,3.5 12.0,3.5" fill="#000" /></svg>