<svg xmlns="http://www.w3.org/2000/svg" width="16" height="16"><path d="M 4.0461,3.0 C 4.6001,3.0 5.0461,3.446 5.0461,4.0 C 5.0461,4.554 4.6001,5.0 4.0461,5.0 C 3.4921,5.0 3.0461,4.554 3.0461,4.0 C 3.0461,3.446 3.4921,3.0 4.0461,3.0 M 12.9621,5.7773 L 12.1476,7.0 L 12.9621,8.2227 C 13.074,8.3906 13.074,8.6094 12.9621,8.7773 L 11.9621,10.2773 C 11.5953,10.8465 10.7458,10.2803 11.1301,9.7227 L 11.9445,8.5 L 11.1301,7.2773 C 11.0181,7.1094 11.0181,6.8906 11.1301,6.7227 L 12.1301,5.2227 C 12.4855,4.6729 13.3422,5.2237 12.9621,5.7773 M 10.9621,5.7773 L 10.1476,7.0 L 10.9621,8.2227 C 11.074,8.3906 11.074,8.6094 10.9621,8.7773 L 9.9621,10.2773 C 9.5953,10.8465 8.7458,10.2803 9.1301,9.7227 L 9.9445,8.5 L 9.1301,7.2773 C 9.0181,7.1094 9.0181,6.8906 9.1301,6.7227 L 10.1301,5.2227 C 10.4855,4.6729 11.3422,5.2237 10.9621,5.7773 M 4.9061,6.1527 L 6.7531,8.0 L 7.5461,8.0 C 8.2223,7.99 8.2223,9.0096 7.5461,9.0 L 6.5461,9.0 C 6.4135,9.0 6.2863,8.9473 6.1926,8.8535 L 5.0461,7.707 L 5.0461,10.0 L 6.5461,10.0 C 6.7614,9.9999 6.9526,10.1376 7.0207,10.3418 L 8.0207,13.3418 C 8.2316,13.9746 7.2824,14.291 7.0715,13.6582 L 6.1848,11.0 L 4.5461,11.0 L 3.5461,11.0 C 3.27,11.0 3.0461,10.7761 3.0461,10.5 L 3.0461,6.5 C 3.0461,6.2239 3.27,6.0 3.5461,6.0 L 4.4758,6.0 C 4.6647,6.0 4.8035,6.0532 4.9061,6.1527 L 4.9061,6.1527 M 5.0461,12.0 C 5.3231,12.0 5.5461,12.223 5.5461,12.5 C 5.5461,12.777 5.3231,13.0 5.0461,13.0 L 2.5461,13.0 C 2.2691,13.0 2.0461,12.777 2.0461,12.5 C 2.0461,12.223 2.2691,12.0 2.5461,12.0 L 5.0461,12.0" fill="#000" /></svg>