<svg xmlns="http://www.w3.org/2000/svg" width="16" height="16"><path d="M 4.0461,3.0 C 4.6001,3.0 5.0461,3.446 5.0461,4.0 C 5.0461,4.554 4.6001,5.0 4.0461,5.0 C 3.4921,5.0 3.0461,4.554 3.0461,4.0 C 3.0461,3.446 3.4921,3.0 4.0461,3.0 M 12.552,4.9941 A 0.5,0.5 0.0 0,1 12.9621,5.7773 L 12.1476,7.0 L 12.9621,8.2227 A 0.5,0.5 0.0 0,1 12.9621,8.7773 L 11.9621,10.2773 A 0.5,0.5 0.0 1,1 11.1301,9.7227 L 11.9445,8.5 L 11.1301,7.2773 A 0.5,0.5 0.0 0,1 11.1301,6.7227 L 12.1301,5.2227 A 0.5,0.5 0.0 0,1 12.5519,4.9941 L 12.552,4.9941 M 10.552,4.9941 A 0.5,0.5 0.0 0,1 10.9621,5.7773 L 10.1476,7.0 L 10.9621,8.2227 A 0.5,0.5 0.0 0,1 10.9621,8.7773 L 9.9621,10.2773 A 0.5,0.5 0.0 1,1 9.1301,9.7227 L 9.9445,8.5 L 9.1301,7.2773 A 0.5,0.5 0.0 0,1 9.1301,6.7227 L 10.1301,5.2227 A 0.5,0.5 0.0 0,1 10.5519,4.9941 L 10.552,4.9941 M 4.5559,5.9961 A 0.5,0.5 0.0 0,1 4.6945,6.0215 A 0.5,0.5 0.0 0,1 4.7025,6.0235 A 0.5,0.5 0.0 0,1 4.7416,6.0391 A 0.5,0.5 0.0 0,1 4.7865,6.0606 A 0.5,0.5 0.0 0,1 4.7945,6.0646 A 0.5,0.5 0.0 0,1 4.8297,6.088 A 0.5,0.5 0.0 0,1 4.8453,6.0997 A 0.5,0.5 0.0 0,1 4.8687,6.1173 A 0.5,0.5 0.0 0,1 4.8747,6.1233 A 0.5,0.5 0.0 0,1 4.8864,6.135 A 0.5,0.5 0.0 0,1 4.9001,6.1467 A 0.5,0.5 0.0 0,1 4.9061,6.1527 L 6.7531,8.0 L 7.5461,8.0 A 0.5,0.5 0.0 1,1 7.5461,9.0 L 6.5461,9.0 A 0.5,0.5 0.0 0,1 6.1926,8.8535 L 5.0461,7.707 L 5.0461,10.0 L 6.5461,10.0 A 0.5,0.5 0.0 0,1 7.0207,10.3418 L 8.0207,13.3418 A 0.5003,0.5003 0.0 0,1 7.0715,13.6582 L 6.1848,11.0 L 4.5461,11.0 L 3.5461,11.0 A 0.5,0.5 0.0 0,1 3.0461,10.5 L 3.0461,6.5 A 0.5,0.5 0.0 0,1 3.5461,6.0 L 4.4758,6.0 A 0.5,0.5 0.0 0,1 4.5559,5.996 L 4.5559,5.9961 M 5.0461,12.0 C 5.3231,12.0 5.5461,12.223 5.5461,12.5 C 5.5461,12.777 5.3231,13.0 5.0461,13.0 L 2.5461,13.0 C 2.2691,13.0 2.0461,12.777 2.0461,12.5 C 2.0461,12.223 2.2691,12.0 2.5461,12.0 L 5.0461,12.0" fill="#000" /></svg>