<svg xmlns="http://www.w3.org/2000/svg" width="16" height="16"><path d="M 11.0,3.0 C 10.446,3.0 10.0,3.446 10.0,4.0 C 10.0,4.554 10.446,5.0 11.0,5.0 C 11.554,5.0 12.0,4.554 12.0,4.0 C 12.0,3.446 11.554,3.0 11.0,3.0 M 2.4941,4.9941 A 0.5,0.5 0.0 0,0 2.084,5.7773 L 2.8984,7.0 L 2.084,8.2227 A 0.5,0.5 0.0 0,0 2.084,8.7773 L 3.084,10.2773 A 0.5,0.5 0.0 1,0 3.916,9.7227 L 3.1016,8.5 L 3.916,7.2773 A 0.5,0.5 0.0 0,0 3.916,6.7227 L 2.916,5.2227 A 0.5,0.5 0.0 0,0 2.4941,4.9941 L 2.4941,4.9941 M 4.4941,4.9941 A 0.5,0.5 0.0 0,0 4.084,5.7773 L 4.8984,7.0 L 4.084,8.2227 A 0.5,0.5 0.0 0,0 4.084,8.7773 L 5.084,10.2773 A 0.5,0.5 0.0 1,0 5.916,9.7227 L 5.1016,8.5 L 5.916,7.2773 A 0.5,0.5 0.0 0,0 5.916,6.7227 L 4.916,5.2227 A 0.5,0.5 0.0 0,0 4.4941,4.9941 L 4.4941,4.9941 M 10.4902,5.9961 A 0.5,0.5 0.0 0,0 10.3516,6.0215 A 0.5,0.5 0.0 0,0 10.3436,6.0235 A 0.5,0.5 0.0 0,0 10.3045,6.0391 A 0.5,0.5 0.0 0,0 10.2596,6.0606 A 0.5,0.5 0.0 0,0 10.2516,6.0646 A 0.5,0.5 0.0 0,0 10.2164,6.088 A 0.5,0.5 0.0 0,0 10.2008,6.0997 A 0.5,0.5 0.0 0,0 10.1774,6.1173 A 0.5,0.5 0.0 0,0 10.1714,6.1233 A 0.5,0.5 0.0 0,0 10.1597,6.135 A 0.5,0.5 0.0 0,0 10.146,6.1467 A 0.5,0.5 0.0 0,0 10.14,6.1527 L 8.293,8.0 L 7.5,8.0 A 0.5,0.5 0.0 1,0 7.5,9.0 L 8.5,9.0 A 0.5,0.5 0.0 0,0 8.8535,8.8535 L 10.0,7.707 L 10.0,10.0 L 8.5,10.0 A 0.5,0.5 0.0 0,0 8.0254,10.3418 L 7.0254,13.3418 A 0.5003,0.5003 0.0 0,0 7.9746,13.6582 L 8.8613,11.0 L 10.5,11.0 L 11.5,11.0 A 0.5,0.5 0.0 0,0 12.0,10.5 L 12.0,6.5 A 0.5,0.5 0.0 0,0 11.5,6.0 L 10.5703,6.0 A 0.5,0.5 0.0 0,0 10.4902,5.996 L 10.4902,5.9961 M 10.0,12.0 C 9.723,12.0 9.5,12.223 9.5,12.5 C 9.5,12.777 9.723,13.0 10.0,13.0 L 12.5,13.0 C 12.777,13.0 13.0,12.777 13.0,12.5 C 13.0,12.223 12.777,12.0 12.5,12.0 L 10.0,12.0" fill="#000" /></svg>