<svg xmlns="http://www.w3.org/2000/svg" width="16" height="16"><path d="M 12.0723,4.3517 C 11.7994,4.3938 11.6122,4.6491 11.6543,4.922 L 11.8809,6.4044 L 9.0019,6.8419 C 9.0014,6.7276 9.0,6.6154 9.0,6.5 C 9.0,6.2239 8.7761,6.0 8.5,6.0 L 7.5,6.0 C 7.2239,6.0 7.0,6.2239 7.0,6.5 C 7.0,6.7183 6.999,6.9334 6.996,7.1465 L 3.9687,7.6074 L 3.7441,6.125 C 3.7029,5.8522 3.4486,5.6643 3.1757,5.7051 C 2.9029,5.7462 2.715,6.0006 2.7558,6.2734 L 2.9823,7.7578 L 1.4237,7.9941 C 1.15,8.0352 0.9618,8.2909 1.0038,8.5645 C 1.0459,8.8374 1.3012,9.0245 1.5741,8.9824 L 6.9511,8.1641 C 6.9181,8.547 6.8634,8.9095 6.7694,9.2383 C 6.5471,10.0165 6.158,10.6124 5.2772,11.0527 C 4.8059,11.2885 4.9729,11.9989 5.4999,12.0 L 10.4999,12.0 C 11.027,11.999 11.1939,11.2885 10.7226,11.0527 C 9.8418,10.6124 9.4527,10.0165 9.2304,9.2383 C 9.111,8.8205 9.0531,8.3502 9.0253,7.8496 L 14.5764,7.0058 C 14.85,6.9647 15.0383,6.7091 14.9963,6.4355 C 14.9542,6.1626 14.6989,5.9755 14.426,6.0175 L 12.8693,6.2539 L 12.6428,4.7714 C 12.5954,4.4583 12.2972,4.315 12.0723,4.3517 L 12.0723,4.3517" fill="#000" /></svg>