<svg xmlns="http://www.w3.org/2000/svg" width="16" height="16"><path d="M 3.5,2.0 C 3.223,2.0 3.0,2.224 3.0,2.5 L 3.0,11.5 C 3.0,11.776 3.223,12.0 3.499,12.0 L 5.0,12.0 L 5.0,5.502 C 5.0,4.672 5.671,4.001 6.498,4.0 L 10.0,4.0 L 10.0,2.501 C 10.0,2.224 9.777,2.0 9.501,2.0 L 3.5,2.0 M 6.5,5.0 C 6.223,5.001 6.0,5.224 6.0,5.5 L 6.0,13.5 C 6.0,13.776 6.223,14.0 6.499,14.0 L 12.5,14.0 C 12.777,14.0 13.0,13.776 13.0,13.5 L 13.0,5.501 C 13.0,5.224 12.777,5.001 12.501,5.0 L 6.5,5.0 M 7.499,7.0 L 11.5,7.0 C 11.777,7.001 12.0,7.224 12.0,7.5 C 12.0,7.776 11.777,7.999 11.501,8.0 L 7.5,8.0 C 7.223,7.999 7.0,7.776 7.0,7.5 C 7.0,7.224 7.223,7.001 7.499,7.0 M 7.0,9.5 C 7.0,9.224 7.223,9.0 7.499,9.0 L 10.5,9.0 C 10.777,9.0 11.0,9.224 11.0,9.5 C 11.0,9.776 10.777,10.0 10.501,10.0 L 7.5,10.0 C 7.223,10.0 7.0,9.776 7.0,9.5" fill="#000" /></svg>