<svg xmlns="http://www.w3.org/2000/svg" width="16" height="16"><path d="M 7.5,9.0 C 7.3674,9.0 7.2402,9.0527 7.1465,9.1465 C 6.2054,10.0876 4.7718,11.0522 2.3144,12.0352 C 1.8014,12.2387 1.948,13.0012 2.5,13.0 L 13.5,13.0 C 14.052,13.0012 14.1986,12.2387 13.6856,12.0352 C 11.2282,11.0522 9.7946,10.0876 8.8535,9.1465 C 8.7598,9.0527 8.6326,9.0 8.5,9.0 L 7.5,9.0" fill="#000" /><path d="M 6.0,4.5 C 4.0489,4.5 3.0,5.8137 2.9999,7.5 C 3.0039,7.7714 3.2287,7.9962 3.4999,8.0 C 3.7711,7.9962 3.9963,7.7715 3.9999,7.5 C 4.0,6.7061 4.5211,6.0 5.5,6.0 C 6.3343,6.0 7.0,6.6657 7.0,7.5 C 7.002,7.776 7.2264,7.9983 7.5,8.0 L 8.5,8.0 C 8.7421,7.9992 8.9988,7.8029 9.0,7.5 C 9.0,6.6656 9.6657,6.0 10.5,6.0 C 11.3343,6.0 12.0,6.6656 12.0,7.5 L 12.0,8.5 C 12.0,8.7761 12.2239,9.0 12.5,9.0 C 12.7761,9.0 13.0,8.7761 13.0,8.5 L 13.0,7.5 C 13.0,5.8172 11.6818,4.5 10.0,4.5 C 9.2336,4.5 8.5315,4.7908 8.0,5.2676 C 7.4685,4.7908 6.7664,4.5 6.0,4.5 M 14.5,8.0 C 14.2239,8.0 14.0,8.2239 14.0,8.5 C 14.0,8.7761 14.2239,9.0 14.5,9.0 C 14.7761,9.0 15.0,8.7761 15.0,8.5 C 15.0,8.2239 14.7761,8.0 14.5,8.0 M 4.5,9.0 C 4.2239,9.0 4.0,9.2239 4.0,9.5 C 4.0,9.7761 4.2239,10.0 4.5,10.0 C 4.7761,10.0 5.0,9.7761 5.0,9.5 C 5.0,9.2239 4.7761,9.0 4.5,9.0 M 2.5,10.0 C 2.2239,10.0 2.0,10.2239 2.0,10.5 C 2.0,10.7761 2.2239,11.0 2.5,11.0 C 2.7761,11.0 3.0,10.7761 3.0,10.5 C 3.0,10.2239 2.7761,10.0 2.5,10.0 M 13.5,10.0 C 13.2239,10.0 13.0,10.2239 13.0,10.5 C 13.0,10.7761 13.2239,11.0 13.5,11.0 C 13.7761,11.0 14.0,10.7761 14.0,10.5 C 14.0,10.2239 13.7761,10.0 13.5,10.0" fill="#000" /></svg>