<svg xmlns="http://www.w3.org/2000/svg" width="16" height="16"><path d="M 7.5,9.0 C 7.3674,9.0 7.2402,9.0527 7.1465,9.1465 C 6.2054,10.0876 4.7718,11.0522 2.3144,12.0352 C 1.8014,12.2387 1.948,13.0012 2.5,13.0 L 13.5,13.0 C 14.052,13.0012 14.1986,12.2387 13.6856,12.0352 C 11.2282,11.0522 9.7946,10.0876 8.8535,9.1465 C 8.7598,9.0527 8.6326,9.0 8.5,9.0 L 7.5,9.0" fill="#000" /><path d="M 6.0,4.5 C 4.3922,4.5 3.0718,5.7793 3.0039,7.3711 C 3.0017,7.4135 3.0,7.457 3.0,7.5 A 0.5,0.5 0.0 0,0 3.0234,7.6445 A 0.5,0.5 0.0 0,0 3.0371,7.6777 A 0.5,0.5 0.0 0,0 3.0879,7.7773 A 0.5,0.5 0.0 0,0 3.1133,7.8105 A 0.5,0.5 0.0 0,0 3.1895,7.8867 A 0.5,0.5 0.0 0,0 3.2227,7.9121 A 0.5,0.5 0.0 0,0 3.3223,7.9629 A 0.5,0.5 0.0 0,0 3.3555,7.9766 A 0.5,0.5 0.0 0,0 3.5,8.0 A 0.5,0.5 0.0 0,0 3.6445,7.9766 A 0.5,0.5 0.0 0,0 3.6777,7.9629 A 0.5,0.5 0.0 0,0 3.7773,7.9121 A 0.5,0.5 0.0 0,0 3.8105,7.8867 A 0.5,0.5 0.0 0,0 3.8867,7.8105 A 0.5,0.5 0.0 0,0 3.9121,7.7773 A 0.5,0.5 0.0 0,0 3.9629,7.6777 A 0.5,0.5 0.0 0,0 3.9766,7.6445 A 0.5,0.5 0.0 0,0 4.0,7.5 C 4.0,7.4738 4.001,7.4478 4.002,7.4219 C 4.0418,6.6243 4.6917,6.0 5.5,6.0 C 6.3343,6.0 7.0,6.6657 7.0,7.5 A 0.5,0.5 0.0 0,0 7.0156,7.6211 A 0.5,0.5 0.0 0,0 7.0196,7.6367 A 0.5,0.5 0.0 0,0 7.0938,7.7891 A 0.5,0.5 0.0 0,0 7.0998,7.7969 A 0.5,0.5 0.0 0,0 7.1408,7.8457 A 0.5,0.5 0.0 0,0 7.1545,7.8594 A 0.5,0.5 0.0 0,0 7.2033,7.9004 A 0.5,0.5 0.0 0,0 7.2113,7.9063 A 0.5,0.5 0.0 0,0 7.3636,7.9805 A 0.5,0.5 0.0 0,0 7.3792,7.9844 A 0.5,0.5 0.0 0,0 7.5,8.0 L 8.5,8.0 A 0.5,0.5 0.0 0,0 8.6367,7.9805 A 0.5,0.5 0.0 0,0 8.6447,7.9766 A 0.5,0.5 0.0 0,0 9.0,7.5 C 9.0,6.6657 9.6657,6.0 10.5,6.0 C 11.3343,6.0 12.0,6.6657 12.0,7.5 L 12.0,8.5 A 0.5,0.5 0.0 0,0 12.5,9.0 A 0.5,0.5 0.0 0,0 13.0,8.5 L 13.0,7.5 A 0.5,0.5 0.0 0,0 12.998,7.4688 C 12.9976,7.4363 12.9977,7.4032 12.996,7.3711 C 12.9282,5.7793 11.6078,4.5 10.0,4.5 C 9.2336,4.5 8.5315,4.7908 8.0,5.2676 C 7.4685,4.7908 6.7664,4.5 6.0,4.5 M 14.5,8.0 A 0.5,0.5 0.0 0,0 14.0,8.5 A 0.5,0.5 0.0 0,0 14.5,9.0 A 0.5,0.5 0.0 0,0 15.0,8.5 A 0.5,0.5 0.0 0,0 14.5,8.0 M 4.5,9.0 A 0.5,0.5 0.0 0,0 4.0,9.5 A 0.5,0.5 0.0 0,0 4.5,10.0 A 0.5,0.5 0.0 0,0 5.0,9.5 A 0.5,0.5 0.0 0,0 4.5,9.0 M 2.5,10.0 A 0.5,0.5 0.0 0,0 2.0,10.5 A 0.5,0.5 0.0 0,0 2.5,11.0 A 0.5,0.5 0.0 0,0 3.0,10.5 A 0.5,0.5 0.0 0,0 2.5,10.0 M 13.5,10.0 A 0.5,0.5 0.0 0,0 13.0,10.5 A 0.5,0.5 0.0 0,0 13.5,11.0 A 0.5,0.5 0.0 0,0 14.0,10.5 A 0.5,0.5 0.0 0,0 13.5,10.0" fill="#000" /></svg>