<svg xmlns="http://www.w3.org/2000/svg" width="16" height="16"><path d="M 7.5,9.0 C 7.3674,9.0 7.2402,9.0527 7.1465,9.1465 C 6.2054,10.0876 4.7718,11.0522 2.3144,12.0352 C 1.8014,12.2387 1.948,13.0012 2.5,13.0 L 13.5,13.0 C 14.052,13.0012 14.1986,12.2387 13.6856,12.0352 C 11.2282,11.0522 9.7946,10.0876 8.8535,9.1465 C 8.7598,9.0527 8.6326,9.0 8.5,9.0 L 7.5,9.0" fill="#000" /><path d="M 7.5,5.0 C 7.223,5.0 7.0,5.223 7.0,5.5 C 7.0,5.777 7.223,6.0 7.5,6.0 L 8.5,6.0 C 8.777,6.0 9.0,6.223 9.0,6.5 C 9.0,6.777 8.777,7.0 8.5,7.0 C 8.223,7.0 8.0,7.223 8.0,7.5 C 8.0,7.777 8.223,8.0 8.5,8.0 L 9.5,8.0 C 9.777,8.0 10.0,7.777 10.0,7.5 C 10.0,7.223 10.223,7.0 10.5,7.0 L 12.5,7.0 C 12.777,7.0 13.0,6.777 13.0,6.5 C 13.0,6.223 13.223,6.0 13.5,6.0 L 14.5,6.0 C 14.777,6.0 15.0,5.777 15.0,5.5 C 15.0,5.223 14.777,5.0 14.5,5.0 L 7.5,5.0" fill="#000" /></svg>