<svg xmlns="http://www.w3.org/2000/svg" width="16" height="16"><path d="M 7.9688,3.0 C 7.7189,3.0156 7.5003,3.2218 7.5,3.5 C 7.5,5.1071 6.8357,6.1924 5.9356,6.9238 C 5.0354,7.6552 3.875,8.0 3.0,8.0 C 2.4167,8.0 1.8893,8.1536 1.5215,8.5215 C 1.1536,8.8893 1.0,9.4167 1.0,10.0 L 1.0,11.5 C 1.0,11.7761 1.2239,12.0 1.5,12.0 L 7.5,12.0 A 0.5,0.5 0.0 0,0 8.0,11.5 A 0.5,0.5 0.0 0,1 8.5,11.0 L 9.5,11.0 A 0.5,0.5 0.0 0,1 10.0,11.5 A 0.5,0.5 0.0 0,0 10.5,12.0 L 13.5,12.0 C 13.7761,12.0 14.0,11.7761 14.0,11.5 L 14.0,4.5 C 14.0,4.2239 13.7761,4.0 13.5,4.0 C 10.0952,4.0 8.2227,3.0527 8.2227,3.0527 C 8.1396,3.0114 8.052,2.9948 7.9688,3.0 M 8.5,5.0 A 0.5,0.5 0.0 0,1 9.0,5.5 A 0.5,0.5 0.0 0,1 8.5,6.0 A 0.5,0.5 0.0 0,1 8.0,5.5 A 0.5,0.5 0.0 0,1 8.5,5.0 M 7.5,7.0 A 0.5,0.5 0.0 0,1 8.0,7.5 A 0.5,0.5 0.0 0,1 7.5,8.0 A 0.5,0.5 0.0 0,1 7.0,7.5 A 0.5,0.5 0.0 0,1 7.5,7.0" fill="#000" /></svg>