<svg xmlns="http://www.w3.org/2000/svg" width="16" height="16"><path d="M 7.0312,3.0 C 7.2811,3.0156 7.4997,3.2218 7.5,3.5 C 7.5,5.1071 8.1643,6.1924 9.0644,6.9238 C 9.9646,7.6552 11.125,8.0 12.0,8.0 C 12.5833,8.0 13.1107,8.1536 13.4785,8.5215 C 13.8464,8.8893 14.0,9.4167 14.0,10.0 L 14.0,11.5 C 14.0,11.7761 13.7761,12.0 13.5,12.0 L 9.5,12.0 C 8.0,12.0 8.0,11.0 6.5,11.0 L 5.5,11.0 C 5.2239,11.0 5.0,11.2239 5.0,11.5 C 5.0,11.7761 4.7761,12.0 4.5,12.0 L 1.5,12.0 C 1.2239,12.0 1.0,11.7761 1.0,11.5 L 1.0,4.5 C 1.0,4.2239 1.2239,4.0 1.5,4.0 C 4.9048,4.0 6.7773,3.0527 6.7773,3.0527 C 6.8604,3.0114 6.948,2.9948 7.0312,3.0 L 7.0312,3.0 M 6.5,5.0 C 6.2239,5.0 6.0,5.2239 6.0,5.5 C 6.0,5.7761 6.2239,6.0 6.5,6.0 C 6.7761,6.0 7.0,5.7761 7.0,5.5 C 7.0,5.2239 6.7761,5.0 6.5,5.0 M 7.5,7.0 C 7.2239,7.0 7.0,7.2239 7.0,7.5 C 7.0,7.7761 7.2239,8.0 7.5,8.0 C 7.7761,8.0 8.0,7.7761 8.0,7.5 C 8.0,7.2239 7.7761,7.0 7.5,7.0" fill="#000" /></svg>