<svg xmlns="http://www.w3.org/2000/svg" width="16" height="16"><path d="M 4.0,1.0 L 1.0,4.0 L 4.0,4.0 L 6.0,1.0 L 4.0,1.0 M 7.0,1.0 L 6.0,4.0 L 9.0,4.0 L 8.0,1.0 L 7.0,1.0 M 9.0,1.0 L 11.0,4.0 L 14.0,4.0 L 11.0,1.0 L 9.0,1.0 M 1.0,5.0 C 1.0,5.554 1.446,6.0 2.0,6.0 L 3.0,6.0 C 3.554,6.0 4.0,5.554 4.0,5.0 L 1.0,5.0 M 6.0,5.0 C 6.0,5.554 6.446,6.0 7.0,6.0 L 8.0,6.0 C 8.554,6.0 9.0,5.554 9.0,5.0 L 6.0,5.0 M 11.0,5.0 C 11.0,5.554 11.446,6.0 12.0,6.0 L 13.0,6.0 C 13.554,6.0 14.0,5.554 14.0,5.0 L 11.0,5.0 M 2.0,7.0 L 2.0,14.0 C 2.0,14.554 2.446,15.0 3.0,15.0 L 12.0,15.0 C 12.554,15.0 13.0,14.554 13.0,14.0 L 13.0,7.0 L 2.0,7.0 M 6.0,8.0 L 9.0,8.0 C 9.554,8.0 10.0,8.446 10.0,9.0 L 10.0,11.0 C 10.0,11.554 9.554,12.0 9.0,12.0 L 6.0,12.0 C 5.446,12.0 5.0,11.554 5.0,11.0 L 5.0,9.0 C 5.0,8.446 5.446,8.0 6.0,8.0" fill="#000" /></svg>