<svg xmlns="http://www.w3.org/2000/svg" width="16" height="16"><path d="M 14.5,2.0 C 13.8524,2.0 13.2939,2.42 13.0859,3.0 L 10.5,3.0 C 9.4889,3.0 8.5967,3.3447 7.9707,3.9707 C 7.4432,4.4982 7.1155,5.2138 7.0254,6.0312 C 5.3212,6.2642 4.0,7.7338 4.0,9.5 C 4.0,9.7761 4.2239,10.0 4.5,10.0 L 7.5,10.0 L 10.5,10.0 C 10.7761,10.0 11.0,9.7761 11.0,9.5 C 11.0,7.7533 9.7081,6.2982 8.0312,6.041 C 8.1108,5.4712 8.3401,5.0154 8.6777,4.6777 C 9.1017,4.2537 9.7111,4.0 10.5,4.0 L 13.0859,4.0 C 13.2939,4.58 13.8524,5.0 14.5,5.0 C 14.7761,5.0 15.0,4.7761 15.0,4.5 L 15.0,3.5 L 15.0,2.5 C 15.0,2.2239 14.7761,2.0 14.5,2.0 M 6.5,11.0 C 6.2239,11.0 6.0,11.2239 6.0,11.5 L 6.0,12.5 C 6.0,12.7761 6.2239,13.0 6.5,13.0 C 6.7761,13.0 7.0,12.7761 7.0,12.5 L 7.0,11.5 C 7.0,11.2239 6.7761,11.0 6.5,11.0 M 10.5,11.0 C 10.2239,11.0 10.0,11.2239 10.0,11.5 L 10.0,12.5 C 10.0,12.7761 10.2239,13.0 10.5,13.0 C 10.7761,13.0 11.0,12.7761 11.0,12.5 L 11.0,11.5 C 11.0,11.2239 10.7761,11.0 10.5,11.0 M 4.5,12.0 C 4.2239,12.0 4.0,12.2239 4.0,12.5 L 4.0,13.5 C 4.0,13.7761 4.2239,14.0 4.5,14.0 C 4.7761,14.0 5.0,13.7761 5.0,13.5 L 5.0,12.5 C 5.0,12.2239 4.7761,12.0 4.5,12.0 M 8.5,12.0 C 8.2239,12.0 8.0,12.2239 8.0,12.5 L 8.0,13.5 C 8.0,13.7761 8.2239,14.0 8.5,14.0 C 8.7761,14.0 9.0,13.7761 9.0,13.5 L 9.0,12.5 C 9.0,12.2239 8.7761,12.0 8.5,12.0" fill="#000" /></svg>