<svg xmlns="http://www.w3.org/2000/svg" width="16" height="16"><path d="M 14.4746,2.0 C 14.2097,2.0133 14.0,2.2317 14.0,2.5 C 14.0,2.777 13.777,3.0 13.5,3.0 L 10.0,3.0 C 9.1389,3.0 8.3725,3.2955 7.834,3.834 C 7.2955,4.3725 7.0,5.1389 7.0,6.0 L 7.0,6.0371 C 5.3083,6.2813 4.0,7.7428 4.0,9.5 L 4.0,10.0 L 11.0,10.0 L 11.0,9.5 C 11.0,7.7428 9.6917,6.2813 8.0,6.0371 L 8.0,6.0 C 8.0,5.3611 8.2045,4.8775 8.541,4.541 C 8.8775,4.2045 9.3611,4.0 10.0,4.0 L 13.5,4.0 C 13.777,4.0 14.0,4.223 14.0,4.5 C 14.0,4.777 14.223,5.0 14.5,5.0 L 15.0,5.0 L 15.0,4.5 L 15.0,3.5 L 15.0,2.0 L 14.5,2.0 C 14.491,2.0 14.4832,1.9996 14.4746,2.0 L 14.4746,2.0 M 6.5,11.0 C 6.2437,11.5214 6.0,12.171 6.0,12.5001 C 6.0,12.7771 6.223,13.0001 6.5,13.0001 C 6.777,13.0001 7.0,12.7771 7.0,12.5001 C 7.0,12.1712 6.757,11.5227 6.5,11.0 M 10.5,11.0 C 10.2437,11.5214 10.0,12.171 10.0,12.5001 C 10.0,12.7771 10.223,13.0001 10.5,13.0001 C 10.777,13.0001 11.0,12.7771 11.0,12.5001 C 11.0,12.1712 10.757,11.5227 10.5,11.0 M 4.5,12.0 C 4.2437,12.5214 4.0,13.171 4.0,13.5001 C 4.0,13.7771 4.223,14.0001 4.5,14.0001 C 4.7769,14.0001 5.0,13.7771 5.0,13.5001 C 5.0,13.1712 4.757,12.5227 4.5,12.0 M 8.5,12.0 C 8.2437,12.5214 8.0,13.171 8.0,13.5001 C 8.0,13.7771 8.223,14.0001 8.5,14.0001 C 8.777,14.0001 9.0,13.7771 9.0,13.5001 C 9.0,13.1713 8.757,12.5228 8.5,12.0" fill="#000" /></svg>