<svg xmlns="http://www.w3.org/2000/svg" width="16" height="16"><path d="M 9.5,2.0 C 7.5358,2.0 5.7184,3.049 4.7363,4.75 C 4.3313,5.4515 4.0963,6.2211 4.0254,7.002 C 4.0174,7.0011 4.0085,7.0005 4.0,7.0 L 3.0,7.0 L 3.0,5.5 C 3.0,5.2238 2.7761,5.0 2.5,5.0 C 2.2239,5.0 2.0,5.2238 2.0,5.5 L 2.0,9.5 C 2.0,9.7761 2.2239,10.0 2.5,10.0 C 2.7761,10.0 3.0,9.7761 3.0,9.5 L 3.0,8.0 L 4.0,8.0 C 4.008,7.9995 4.017,7.9989 4.0254,7.998 C 4.0963,8.7789 4.3313,9.5484 4.7363,10.25 C 5.7184,11.951 7.5358,13.0 9.5,13.0 L 10.5,13.0 C 10.7761,12.9999 11.0,12.7761 11.0,12.5 C 11.0,12.2239 10.7761,12.0 10.5,12.0 L 9.5,12.0 C 7.8915,12.0 6.4078,11.143 5.6035,9.75 C 4.7993,8.357 4.7993,6.643 5.6035,5.25 C 6.4078,3.857 7.8915,3.0 9.5,3.0 L 10.5,3.0 C 10.7761,3.0 11.0,2.7761 11.0,2.5 C 11.0,2.2239 10.7761,2.0 10.5,2.0 L 9.5,2.0 M 9.5,4.0 C 7.567,4.0 6.0,5.567 6.0,7.5 C 6.0,9.433 7.567,11.0 9.5,11.0 C 11.433,11.0 13.0,9.433 13.0,7.5 C 13.0,5.567 11.433,4.0 9.5,4.0 M 9.5,5.0 C 9.7761,5.0 10.0,5.2239 10.0,5.5 C 10.0,5.7761 9.7761,6.0 9.5,6.0 C 8.6657,6.0 8.0,6.6657 8.0,7.5 C 8.0,7.7761 7.7761,8.0 7.5,8.0 C 7.2239,8.0 7.0,7.7761 7.0,7.5 C 7.0,6.1252 8.1252,5.0 9.5,5.0" fill="#000" /></svg>