<svg xmlns="http://www.w3.org/2000/svg" width="16" height="16"><path d="M 6.0,3.0 C 5.446,3.0 5.0,3.446 5.0,4.0 L 5.0,12.0 C 5.0,12.554 5.446,13.0 6.0,13.0 L 10.0,13.0 C 10.554,13.0 11.0,12.554 11.0,12.0 L 11.0,4.0 C 11.0,3.446 10.554,3.0 10.0,3.0 L 6.0,3.0 M 7.5,5.0 L 8.5,5.0 C 8.777,5.0 9.0,5.223 9.0,5.5 L 9.0,6.5 C 9.0,6.777 8.777,7.0 8.5,7.0 L 7.5,7.0 C 7.223,7.0 7.0,6.777 7.0,6.5 L 7.0,5.5 C 7.0,5.223 7.223,5.0 7.5,5.0 M 7.5,9.0 L 8.5,9.0 C 8.777,9.0 9.0,9.223 9.0,9.5 L 9.0,10.5 C 9.0,10.777 8.777,11.0 8.5,11.0 L 7.5,11.0 C 7.223,11.0 7.0,10.777 7.0,10.5 L 7.0,9.5 C 7.0,9.223 7.223,9.0 7.5,9.0" fill="#000" /></svg>