<svg xmlns="http://www.w3.org/2000/svg" width="16" height="16"><path d="M 13.9941,5.4922 A 0.5,0.5 0.0 0,0 13.6465,5.6465 C 13.117,6.176 12.8486,6.5555 12.625,6.7344 C 12.4014,6.9133 12.1944,7.0 11.5,7.0 L 4.5,7.0 C 3.8056,7.0 3.5986,6.9133 3.375,6.7344 C 3.1514,6.5555 2.883,6.176 2.3535,5.6465 A 0.5,0.5 0.0 0,0 1.9941,5.4941 A 0.5,0.5 0.0 0,0 1.6465,6.3535 C 2.117,6.824 2.3486,7.1945 2.75,7.5156 C 3.1514,7.8367 3.6944,8.0 4.5,8.0 L 11.5,8.0 C 12.3056,8.0 12.8486,7.8367 13.25,7.5156 C 13.6514,7.1945 13.883,6.824 14.3535,6.3535 A 0.5,0.5 0.0 0,0 13.9941,5.4922 M 4.0,9.0 A 1.0,1.0 0.0 0,0 3.0,10.0 A 1.0,1.0 0.0 0,0 4.0,11.0 A 1.0,1.0 0.0 0,0 5.0,10.0 A 1.0,1.0 0.0 0,0 4.0,9.0 M 12.0,9.0 A 1.0,1.0 0.0 0,0 11.0,10.0 A 1.0,1.0 0.0 0,0 12.0,11.0 A 1.0,1.0 0.0 0,0 13.0,10.0 A 1.0,1.0 0.0 0,0 12.0,9.0" fill="#000" /></svg>