<svg xmlns="http://www.w3.org/2000/svg" width="16" height="16"><path d="M 13.6465,4.6465 L 12.625,5.7344 C 12.429,5.9432 12.1944,6.0 11.5,6.0 L 4.5,6.0 C 3.8056,6.0 3.571,5.9432 3.375,5.7344 L 2.3535,4.6465 C 1.9002,4.178 1.1589,4.8816 1.6465,5.3535 C 1.6465,5.3535 2.3486,6.1945 2.75,6.5156 C 3.1514,6.8367 3.6944,7.0 4.5,7.0 L 11.5,7.0 C 12.3056,7.0 12.8486,6.8367 13.25,6.5156 C 13.6514,6.1945 14.3535,5.3535 14.3535,5.3535 C 14.8475,4.8813 14.0992,4.173 13.6465,4.6465 M 4.0,8.0 C 3.4477,8.0 3.0,8.4477 3.0,9.0 C 3.0,9.5523 3.4477,10.0 4.0,10.0 C 4.5523,10.0 5.0,9.5523 5.0,9.0 C 5.0,8.4477 4.5523,8.0 4.0,8.0 M 12.0,8.0 C 11.4477,8.0 11.0,8.4477 11.0,9.0 C 11.0,9.5523 11.4477,10.0 12.0,10.0 C 12.5523,10.0 13.0,9.5523 13.0,9.0 C 13.0,8.4477 12.5523,8.0 12.0,8.0" fill="#000" /></svg>