<svg xmlns="http://www.w3.org/2000/svg" width="16" height="16"><path d="M 3.5,2.0 C 3.223,2.0 3.0,2.223 3.0,2.5 L 3.0,3.5 C 3.0,3.777 3.223,4.0 3.5,4.0 L 4.0,4.0 C 4.9028,4.0 5.4792,4.2646 6.0469,4.7188 C 6.6146,5.1729 7.1367,5.8496 7.6992,6.5996 C 8.2617,7.3496 8.8646,8.1729 9.7031,8.8438 C 10.5305,9.5057 11.6262,9.9853 12.9492,9.9981 C 12.9664,9.9982 12.9827,10.0001 13.0,10.0001 L 13.5,10.0001 C 13.777,10.0001 14.0,9.7771 14.0,9.5001 L 14.0,8.5001 C 14.0,8.2231 13.777,8.0001 13.5,8.0001 L 13.0,8.0001 C 12.0972,8.0001 11.5208,7.7355 10.9531,7.2813 C 10.3854,6.8272 9.8633,6.1504 9.3008,5.4004 C 8.7383,4.6504 8.1355,3.8272 7.2969,3.1563 C 6.4695,2.4944 5.3738,2.0147 4.0508,2.002 C 4.0339,2.0002 4.0173,2.0 4.0,2.0 L 3.5,2.0 M 2.5,5.0 C 2.223,5.0 2.0,5.2026 2.0,5.4551 L 2.0,5.5449 C 2.0,5.7974 2.223,6.0 2.5,6.0 L 3.5,6.0 C 3.777,6.0 4.0,5.7974 4.0,5.5449 L 4.0,5.4551 C 4.0,5.2026 3.777,5.0 3.5,5.0 L 2.5,5.0 M 2.0,7.0 C 1.723,7.0 1.5,7.2026 1.5,7.4551 L 1.5,7.5449 C 1.5,7.7974 1.723,8.0 2.0,8.0 L 3.0,8.0 C 3.277,8.0 3.5,7.7974 3.5,7.5449 L 3.5,7.4551 C 3.5,7.2026 3.277,7.0 3.0,7.0 L 2.0,7.0 M 1.5,9.0 C 1.223,9.0 1.0,9.2026 1.0,9.4551 L 1.0,9.5449 C 1.0,9.7974 1.223,10.0 1.5,10.0 L 2.5,10.0 C 2.777,10.0 3.0,9.7974 3.0,9.5449 L 3.0,9.4551 C 3.0,9.2026 2.777,9.0 2.5,9.0 L 1.5,9.0 M 3.0,11.25 A 0.5,0.5 0.0 0,0 2.6465,11.3965 C 2.2054,11.8376 1.8333,12.0 1.5,12.0 A 0.5,0.5 0.0 0,0 1.0,12.5 A 0.5,0.5 0.0 0,0 1.5,13.0 C 2.0394,13.0 2.5274,12.6558 3.0,12.2754 C 3.4696,12.6539 3.9564,13.0 4.5,13.0 C 5.0394,13.0 5.5274,12.6558 6.0,12.2754 C 6.4726,12.6558 6.9606,13.0 7.5,13.0 C 8.0394,13.0 8.5274,12.6558 9.0,12.2754 C 9.4696,12.6539 9.9564,13.0 10.5,13.0 C 11.0394,13.0 11.5274,12.6558 12.0,12.2754 C 12.4726,12.6558 12.9606,13.0 13.5,13.0 A 0.5,0.5 0.0 0,0 14.0,12.5 A 0.5,0.5 0.0 0,0 13.5,12.0 C 13.1667,12.0 12.7946,11.8376 12.3535,11.3965 A 0.5,0.5 0.0 0,0 11.6465,11.3965 C 11.2054,11.8376 10.8333,12.0 10.5,12.0 C 10.1719,12.0 9.7859,11.8289 9.3535,11.3965 A 0.5,0.5 0.0 0,0 8.6465,11.3965 C 8.2054,11.8376 7.8333,12.0 7.5,12.0 C 7.1667,12.0 6.7946,11.8376 6.3535,11.3965 A 0.5,0.5 0.0 0,0 5.6465,11.3965 C 5.2054,11.8376 4.8333,12.0 4.5,12.0 C 4.1719,12.0 3.7859,11.8289 3.3535,11.3965 A 0.5,0.5 0.0 0,0 3.0,11.25" fill="#000" /></svg>