<svg xmlns="http://www.w3.org/2000/svg" width="16" height="16"><path d="M 3.5,3.0 C 3.285,3.0 3.102,3.136 3.031,3.325 L 2.361,5.0 L 7.0,5.0 L 7.0,3.0 L 3.5,3.0 M 8.0,3.0 L 8.0,5.0 L 12.639,5.0 L 11.969,3.325 C 11.898,3.136 11.715,3.0 11.501,3.0 L 8.0,3.0 M 1.961,6.0 L 1.04,8.304 C 1.014,8.364 1.0,8.43 1.0,8.5 C 1.0,8.776 1.223,9.0 1.499,9.0 L 7.0,9.0 L 7.0,6.0 L 1.961,6.0 M 8.0,6.0 L 8.0,9.0 L 13.5,9.0 C 13.777,9.0 14.0,8.776 14.0,8.5 C 14.0,8.43 13.986,8.364 13.96,8.304 L 13.039,6.0 L 8.0,6.0 M 6.0,10.0 L 6.0,11.0 L 2.5,11.0 C 2.223,11.0 2.0,11.224 2.0,11.5 C 2.0,11.776 2.223,12.0 2.499,12.0 L 12.5,12.0 C 12.777,12.0 13.0,11.776 13.0,11.5 C 13.0,11.224 12.777,11.0 12.501,11.0 L 9.0,11.0 L 9.0,10.0 L 6.0,10.0" fill="#000" /></svg>