<svg xmlns="http://www.w3.org/2000/svg" width="16" height="16"><path d="M 3.5,3.0 C 3.2953,2.9998 3.1111,3.1244 3.0352,3.3144 L 2.3613,5.0 L 7.0,5.0 L 7.0,3.0 L 3.5,3.0 M 8.0,3.0 L 8.0,5.0 L 12.6387,5.0 L 11.9648,3.3144 C 11.8889,3.1244 11.7047,2.9998 11.5,3.0 L 8.0,3.0 M 1.9609,6.0 L 1.0352,8.3144 C 0.9039,8.6431 1.1461,9.0003 1.5,9.0 L 7.0,9.0 L 7.0,6.0 L 1.9609,6.0 M 8.0,6.0 L 8.0,9.0 L 13.5,9.0 C 13.8539,9.0003 14.0961,8.6431 13.9648,8.3144 L 13.0391,6.0 L 8.0,6.0 M 6.0,10.0 L 6.0,11.0 L 2.498,11.0 C 2.2219,11.0 2.0,11.223 2.0,11.5 C 2.0,11.777 2.2219,12.0 2.498,12.0 L 12.5,12.0 C 12.7761,12.0 12.998,11.777 12.998,11.5 C 12.998,11.223 12.7761,11.0 12.5,11.0 L 9.0,11.0 L 9.0,10.0 L 6.0,10.0" fill="#000" /></svg>