<svg xmlns="http://www.w3.org/2000/svg" width="16" height="16"><path d="M 3.5,3.0 L 7.0,3.0 L 7.0,5.0 L 2.3615,5.0 L 3.0314,3.3251 C 3.1023,3.1352 3.2854,3.0 3.5,3.0 L 3.5,3.0 M 11.5,3.0 C 11.7146,3.0 11.8977,3.1352 11.9686,3.3251 L 12.6385,5.0 L 8.0,5.0 L 8.0,3.0 L 11.5,3.0 M 13.96,8.3038 C 13.9858,8.364 14.0,8.4303 14.0,8.5 C 14.0,8.7761 13.7761,9.0 13.5,9.0 L 8.0,9.0 L 8.0,6.0 L 13.0385,6.0 L 13.96,8.3038 M 1.5,9.0 C 1.2239,9.0 1.0,8.7761 1.0,8.5 C 1.0,8.4304 1.0142,8.364 1.04,8.3038 L 1.9615,6.0 L 7.0,6.0 L 7.0,9.0 L 1.5,9.0 M 2.0,11.5 C 2.0,11.2239 2.2239,11.0 2.5,11.0 L 6.0,11.0 L 6.0,10.0 L 9.0,10.0 L 9.0,11.0 L 12.5,11.0 C 12.7761,11.0 13.0,11.2239 13.0,11.5 C 13.0,11.7761 12.7761,12.0 12.5,12.0 L 2.5,12.0 C 2.2239,12.0 2.0,11.7761 2.0,11.5" fill="#000" /></svg>