<svg xmlns="http://www.w3.org/2000/svg" width="16" height="16"><path d="M 7.5,2.0 C 4.75,2.0 2.0,3.0 2.0,5.0 L 5.0,5.0 C 5.0,3.0 10.0,3.0 10.0,5.0 L 13.0,5.0 C 13.0,3.0 10.25,2.0 7.5,2.0 M 2.0,6.0 C 2.0,6.554 2.446,7.0 3.0,7.0 L 4.0,7.0 C 4.554,7.0 5.0,6.554 5.0,6.0 L 2.0,6.0 M 10.0,6.0 C 10.0,6.554 10.446,7.0 11.0,7.0 L 12.0,7.0 C 12.554,7.0 13.0,6.554 13.0,6.0 L 10.0,6.0 M 3.5,9.0 C 2.6775,9.0 2.0,9.6775 2.0,10.5 C 2.0,11.3225 2.6775,12.0 3.5,12.0 C 3.7821,12.0 4.0,12.2179 4.0,12.5 C 4.0,12.7821 3.7821,13.0 3.5,13.0 L 2.5,13.0 A 0.5,0.5 0.0 1,0 2.5,14.0 L 3.5,14.0 C 4.3225,14.0 5.0,13.3225 5.0,12.5 C 5.0,11.6775 4.3225,11.0 3.5,11.0 C 3.218,11.0 3.0,10.7821 3.0,10.5 C 3.0,10.2179 3.218,10.0 3.5,10.0 L 4.5,10.0 A 0.5,0.5 0.0 1,0 4.5,9.0 L 3.5,9.0 M 7.5,9.0 C 6.6775,9.0 6.0,9.6775 6.0,10.5 L 6.0,12.5 C 6.0,13.3225 6.6775,14.0 7.5,14.0 C 8.185,14.0 8.6753,13.4858 8.8516,12.8535 A 0.5,0.5 0.0 0,0 9.0,12.5 L 9.0,10.5 C 9.0,9.6775 8.3225,9.0 7.5,9.0 M 11.5,9.0 C 10.6775,9.0 10.0,9.6775 10.0,10.5 C 10.0,11.3225 10.6775,12.0 11.5,12.0 C 11.7821,12.0 12.0,12.2179 12.0,12.5 C 12.0,12.7821 11.7821,13.0 11.5,13.0 L 10.5,13.0 A 0.5,0.5 0.0 1,0 10.5,14.0 L 11.5,14.0 C 12.3225,14.0 13.0,13.3225 13.0,12.5 C 13.0,11.6775 12.3225,11.0 11.5,11.0 C 11.218,11.0 11.0,10.7821 11.0,10.5 C 11.0,10.2179 11.218,10.0 11.5,10.0 L 12.5,10.0 A 0.5,0.5 0.0 1,0 12.5,9.0 L 11.5,9.0 M 7.5,10.0 C 7.7821,10.0 8.0,10.2179 8.0,10.5 L 8.0,12.5 C 8.0,12.7821 7.7821,13.0 7.5,13.0 C 7.218,13.0 7.0,12.7821 7.0,12.5 L 7.0,10.5 C 7.0,10.2179 7.218,10.0 7.5,10.0" fill="#000" /></svg>