<svg xmlns="http://www.w3.org/2000/svg" width="16" height="16"><path d="M 7.5,1.0 C 7.2239,1.0 7.0,1.2239 7.0,1.5 L 7.0,3.0 L 6.5,3.0 C 6.2708,3.0004 6.0712,3.1565 6.0156,3.3789 L 5.8594,4.0 L 10.1406,4.0 L 9.9844,3.3789 C 9.9289,3.1565 9.7292,3.0004 9.5,3.0 L 9.0,3.0 L 9.0,1.5 C 9.0,1.2239 8.7761,1.0 8.5,1.0 L 7.5,1.0 M 5.0,5.0 C 4.7239,5.0 4.5,5.2239 4.5,5.5 C 4.5,5.7761 4.7239,6.0 5.0,6.0 L 5.0,14.0 C 4.7239,14.0 4.5,14.2239 4.5,14.5 C 4.5,14.7761 4.7239,15.0 5.0,15.0 L 11.0,15.0 C 11.2761,15.0 11.5,14.7761 11.5,14.5 C 11.5,14.2239 11.2761,14.0 11.0,14.0 L 11.0,6.0 C 11.2761,6.0 11.5,5.7761 11.5,5.5 C 11.5,5.2239 11.2761,5.0 11.0,5.0 L 10.3906,5.0 L 5.6094,5.0 L 5.0,5.0 M 6.5,7.5 A 0.5,0.5 0.0 0,1 7.0,8.0 L 7.0,12.5 A 0.5,0.5 0.0 0,1 6.5,13.0 A 0.5,0.5 0.0 0,1 6.0,12.5 L 6.0,8.0 A 0.5,0.5 0.0 0,1 6.5,7.5" fill="#000" /></svg>