<svg xmlns="http://www.w3.org/2000/svg" width="16" height="16"><path d="M 5.0,4.0 C 3.3491,4.0 2.0,5.3491 2.0,7.0 L 2.0,7.5 A 0.5,0.5 0.0 1,0 3.0,7.5 L 3.0,7.0 C 3.0,5.8895 3.8895,5.0 5.0,5.0 C 6.1105,5.0 7.0,5.8895 7.0,7.0 L 7.0,7.2812 C 6.7041,7.1077 6.3655,7.0 6.0,7.0 C 4.9013,7.0 4.0,7.9013 4.0,9.0 L 4.0,9.5 A 0.5,0.5 0.0 1,0 5.0,9.5 L 5.0,9.0 C 5.0,8.4418 5.4418,8.0 6.0,8.0 C 6.5582,8.0 7.0,8.4418 7.0,9.0 L 7.0,11.5 A 0.5,0.5 0.0 1,0 8.0,11.5 L 8.0,9.0352 A 0.5,0.5 0.0 0,0 8.0,9.0 C 8.0,8.4418 8.4418,8.0 9.0,8.0 C 9.5582,8.0 10.0,8.4418 10.0,9.0 L 10.0,9.5 A 0.5,0.5 0.0 1,0 11.0,9.5 L 11.0,9.0 C 11.0,7.9013 10.0987,7.0 9.0,7.0 C 8.6345,7.0 8.2959,7.1077 8.0,7.2812 L 8.0,7.0352 A 0.5,0.5 0.0 0,0 8.0,7.0 C 8.0,5.8895 8.8895,5.0 10.0,5.0 C 11.1105,5.0 12.0,5.8895 12.0,7.0 L 12.0,7.5 A 0.5,0.5 0.0 1,0 13.0,7.5 L 13.0,7.0 C 13.0,5.3491 11.6509,4.0 10.0,4.0 C 8.9579,4.0 8.0382,4.5399 7.5,5.3516 C 6.9618,4.5399 6.0421,4.0 5.0,4.0" fill="#000" /></svg>