<svg xmlns="http://www.w3.org/2000/svg" width="16" height="16"><path d="M 5.0,2.0 C 2.9213,2.0 1.207,3.5997 1.0195,5.6309 C 1.0115,5.7028 1.0105,5.7765 1.0078,5.8496 C 1.0068,5.8783 1.0048,5.9067 1.0038,5.9355 A 0.5,0.5 0.0 0,0 1.0,6.0 L 1.0,7.0 A 0.5,0.5 0.0 0,0 1.5,7.5 A 0.5,0.5 0.0 0,0 2.0,7.0 L 2.0,6.0 C 2.0,5.9138 2.007,5.8284 2.0137,5.7441 C 2.1411,4.4793 3.2001,3.5 4.5,3.5 C 5.8867,3.5 7.0,4.6134 7.0,6.0 L 7.0,7.6719 C 6.6869,7.5604 6.3503,7.5 6.0,7.5 C 4.3885,7.5 3.0662,8.786 3.0039,10.3828 C 3.0035,10.3928 3.0019,10.4023 3.0019,10.4121 A 0.5,0.5 0.0 0,0 3.0019,10.4181 C 3.0019,10.4191 3.002,10.4211 3.0019,10.4221 L 3.0019,10.4241 A 0.5,0.5 0.0 0,0 2.9999,10.4512 L 2.9999,11.0 A 0.5,0.5 0.0 0,0 3.4999,11.5 A 0.5,0.5 0.0 0,0 3.9999,11.0 L 3.9999,10.5 C 3.9999,10.4478 4.0039,10.3969 4.0079,10.3457 C 4.084,9.5851 4.7178,9.0 5.5,9.0 C 6.3343,9.0 7.0,9.6657 7.0,10.5 L 7.0,14.5 A 0.5,0.5 0.0 0,0 7.5,15.0 L 8.5,15.0 A 0.5,0.5 0.0 0,0 9.0,14.5 L 9.0,10.5 C 9.0,9.6657 9.6657,9.0 10.5,9.0 C 11.3343,9.0 12.0,9.6657 12.0,10.5 L 12.0,11.0 A 0.5,0.5 0.0 0,0 12.5,11.5 A 0.5,0.5 0.0 0,0 13.0,11.0 L 13.0,10.4512 A 0.5,0.5 0.0 0,0 12.998,10.4219 A 0.5,0.5 0.0 0,0 12.998,10.4119 C 12.9977,10.4019 12.996,10.3924 12.996,10.3826 C 12.9338,8.786 11.6115,7.5 10.0,7.5 C 9.6498,7.5 9.3131,7.5604 9.0,7.6719 L 9.0,6.0 C 9.0,4.6134 10.1134,3.5 11.5,3.5 C 12.8866,3.5 14.0,4.6134 14.0,6.0 L 14.0,7.0 A 0.5,0.5 0.0 0,0 14.5,7.5 A 0.5,0.5 0.0 0,0 15.0,7.0 L 15.0,6.0 A 0.5,0.5 0.0 0,0 14.996,5.9355 C 14.994,5.8331 14.991,5.7309 14.9804,5.6308 C 14.793,3.5997 13.0787,2.0 11.0,2.0 C 9.8074,2.0 8.7339,2.527 8.0,3.3594 C 7.2661,2.527 6.1926,2.0 5.0,2.0" fill="#000" /></svg>