<svg xmlns="http://www.w3.org/2000/svg" width="16" height="16"><path d="M 5.5,2.0 C 5.223,2.0 5.0,2.223 5.0,2.5 L 5.0,11.5 C 5.0,11.777 5.223,12.0 5.5,12.0 L 7.0,12.0 L 7.0,10.5 C 6.996,9.7641 7.6118,9.0767 8.3438,9.0 C 8.3958,8.997 8.448,8.997 8.5,9.0 L 10.5,9.0 L 11.0,9.0 L 11.0,2.5 C 11.0,2.223 10.777,2.0 10.5,2.0 L 5.5,2.0 M 6.5,6.0 L 8.5,6.0 C 8.777,6.0 9.0,6.223 9.0,6.5 C 9.0,6.777 8.777,7.0 8.5,7.0 L 7.0,7.0 L 7.0,7.5 C 7.0,7.777 6.777,8.0 6.5,8.0 C 6.223,8.0 6.0,7.777 6.0,7.5 L 6.0,6.5 C 6.0,6.223 6.223,6.0 6.5,6.0 M 8.3438,10.0 C 8.1372,10.0677 7.9892,10.2829 8.0,10.5 L 8.0,13.0 L 5.5,13.0 C 5.2358,12.996 4.9922,13.2358 4.9922,13.5 C 4.9922,13.7642 5.2358,14.0037 5.5,14.0 L 8.5,14.0 C 8.7618,14.0 9.0,13.7618 9.0,13.5 L 9.0,11.0 L 11.5,11.0 C 11.7642,11.004 12.0078,10.7642 12.0078,10.5 C 12.0078,10.2358 11.7642,9.9963 11.5,10.0 L 8.5,10.0 C 8.4688,9.997 8.4373,9.997 8.4062,10.0 C 8.3854,9.999 8.3646,9.999 8.3438,10.0" fill="#000" /></svg>