<svg xmlns="http://www.w3.org/2000/svg" width="16" height="16"><path d="M 7.5,1.0 C 7.416,1.0 7.337,1.021 7.267,1.057 L 3.286,3.048 C 3.182,3.097 3.097,3.182 3.048,3.286 L 1.057,7.267 C 1.021,7.337 1.0,7.416 1.0,7.5 C 1.0,7.584 1.021,7.663 1.057,7.733 L 3.048,11.714 C 3.097,11.818 3.182,11.903 3.286,11.952 L 7.267,13.943 C 7.337,13.979 7.416,14.0 7.5,14.0 C 7.584,14.0 7.663,13.979 7.733,13.943 L 11.714,11.952 C 11.818,11.903 11.903,11.818 11.952,11.714 L 13.943,7.733 C 13.979,7.663 14.0,7.584 14.0,7.5 C 14.0,7.416 13.979,7.337 13.943,7.267 L 11.952,3.286 C 11.903,3.182 11.818,3.097 11.714,3.048 L 7.733,1.057 C 7.663,1.021 7.584,1.0 7.5,1.0 M 4.749,3.434 L 6.382,2.618 L 5.78,3.821 L 4.749,3.434 M 9.22,3.821 L 8.618,2.618 L 10.251,3.434 L 9.22,3.821 M 6.722,4.174 L 7.5,2.618 L 8.278,4.174 L 7.5,4.466 L 6.722,4.174 M 4.721,5.331 L 4.354,4.354 L 5.331,4.721 L 5.127,5.127 L 4.721,5.331 M 9.669,4.721 L 10.646,4.354 L 10.279,5.331 L 9.873,5.127 L 9.669,4.721 M 11.179,5.78 L 11.566,4.749 L 12.382,6.382 L 11.179,5.78 M 2.618,6.382 L 3.434,4.749 L 3.821,5.78 L 2.618,6.382 M 7.686,5.464 L 8.728,5.074 L 9.048,5.714 C 9.097,5.818 9.182,5.903 9.286,5.952 L 9.926,6.272 L 9.536,7.314 C 9.513,7.371 9.5,7.434 9.5,7.5 C 9.5,7.566 9.513,7.629 9.536,7.686 L 9.926,8.728 L 9.286,9.048 C 9.182,9.097 9.097,9.182 9.048,9.286 L 8.728,9.926 L 7.686,9.536 C 7.629,9.513 7.566,9.5 7.5,9.5 C 7.434,9.5 7.371,9.513 7.314,9.536 L 6.272,9.926 L 5.952,9.286 C 5.903,9.182 5.818,9.097 5.714,9.048 L 5.074,8.728 L 5.464,7.686 C 5.487,7.629 5.5,7.566 5.5,7.5 C 5.5,7.434 5.487,7.371 5.464,7.314 L 5.074,6.272 L 5.714,5.952 C 5.818,5.903 5.903,5.818 5.952,5.714 L 6.272,5.074 L 7.314,5.464 C 7.371,5.487 7.434,5.5 7.5,5.5 C 7.566,5.5 7.629,5.487 7.686,5.464 M 7.5,6.0 C 6.672,6.0 6.0,6.672 6.0,7.5 C 6.0,8.328 6.672,9.0 7.5,9.0 C 8.328,9.0 9.0,8.328 9.0,7.5 C 9.0,6.672 8.328,6.0 7.5,6.0 M 7.0,7.5 C 7.0,7.224 7.224,7.0 7.5,7.0 C 7.776,7.0 8.0,7.224 8.0,7.5 C 8.0,7.776 7.776,8.0 7.5,8.0 C 7.224,8.0 7.0,7.776 7.0,7.5 M 10.534,7.5 L 10.826,6.722 L 12.382,7.5 L 10.826,8.278 L 10.534,7.5 M 2.618,7.5 L 4.174,6.722 L 4.466,7.5 L 4.174,8.278 L 2.618,7.5 M 11.179,9.22 L 12.382,8.618 L 11.566,10.251 L 11.179,9.22 M 3.434,10.251 L 2.618,8.618 L 3.821,9.22 L 3.434,10.251 M 4.354,10.646 L 4.721,9.669 L 5.127,9.873 L 5.331,10.279 L 4.354,10.646 M 9.873,9.873 L 10.279,9.669 L 10.646,10.646 L 9.669,10.279 L 9.873,9.873 M 6.722,10.826 L 7.5,10.534 L 8.278,10.826 L 7.5,12.382 L 6.722,10.826 M 4.749,11.566 L 5.78,11.179 L 6.382,12.382 L 4.749,11.566 M 8.618,12.382 L 9.22,11.179 L 10.251,11.566 L 8.618,12.382" fill="#000" /></svg>