<svg xmlns="http://www.w3.org/2000/svg" width="16" height="16"><path d="M 5.5,2.0 C 5.2239,2.0 5.0,2.2239 5.0,2.5 L 5.0,10.5 C 5.0,10.7761 5.2239,11.0 5.5,11.0 L 10.5,11.0 C 10.7761,11.0 11.0,10.7761 11.0,10.5 L 11.0,2.5 C 11.0,2.2239 10.7761,2.0 10.5,2.0 L 5.5,2.0 M 6.5,6.0 L 8.5,6.0 A 0.5,0.5 0.0 0,1 9.0,6.5 A 0.5,0.5 0.0 0,1 8.5,7.0 L 7.0,7.0 L 7.0,7.5 A 0.5,0.5 0.0 0,1 6.5,8.0 A 0.5,0.5 0.0 0,1 6.0,7.5 L 6.0,6.5 A 0.5,0.5 0.0 0,1 6.5,6.0 M 4.5,12.0 C 4.2239,12.0 4.0,12.2239 4.0,12.5 C 4.0,12.7761 4.2239,13.0 4.5,13.0 L 11.5,13.0 C 11.7761,13.0 12.0,12.7761 12.0,12.5 C 12.0,12.2239 11.7761,12.0 11.5,12.0 L 4.5,12.0 M 3.5,14.0 C 3.2239,14.0 3.0,14.2239 3.0,14.5 C 3.0,14.7761 3.2239,15.0 3.5,15.0 L 12.5,15.0 C 12.7761,15.0 13.0,14.7761 13.0,14.5 C 13.0,14.2239 12.7761,14.0 12.5,14.0 L 3.5,14.0" fill="#000" /></svg>