<svg xmlns="http://www.w3.org/2000/svg" width="16" height="16"><path d="M 6.0,7.5 C 6.0,6.6716 6.6716,6.0 7.5,6.0 C 8.3284,6.0 9.0,6.6716 9.0,7.5 C 9.0,8.3284 8.3284,9.0 7.5,9.0 C 6.6716,9.0 6.0,8.3284 6.0,7.5 M 7.5,8.0 C 7.7761,8.0 8.0,7.7761 8.0,7.5 C 8.0,7.2239 7.7761,7.0 7.5,7.0 C 7.2239,7.0 7.0,7.2239 7.0,7.5 C 7.0,7.7761 7.2239,8.0 7.5,8.0 M 13.9427,7.2674 C 13.9793,7.3369 14.0,7.416 14.0,7.5 C 14.0,7.584 13.9793,7.6631 13.9427,7.7326 L 11.9521,11.7139 C 11.9026,11.8182 11.8182,11.9026 11.7139,11.952 L 7.7326,13.9427 C 7.6631,13.9793 7.584,14.0 7.5,14.0 C 7.416,14.0 7.3369,13.9793 7.2674,13.9427 L 3.2861,11.952 C 3.1818,11.9026 3.0974,11.8182 3.048,11.7139 L 1.0573,7.7326 C 1.0207,7.6631 1.0,7.584 1.0,7.5 C 1.0,7.416 1.0207,7.3369 1.0573,7.2674 L 3.048,3.2861 C 3.0974,3.1818 3.1818,3.0974 3.2861,3.048 L 7.2674,1.0573 C 7.3369,1.0207 7.416,1.0 7.5,1.0 C 7.584,1.0 7.6631,1.0207 7.7326,1.0573 L 11.7139,3.048 C 11.8182,3.0974 11.9026,3.1818 11.9521,3.2861 L 13.9427,7.2674 M 6.382,12.382 L 5.7804,11.1789 L 4.7492,11.5656 L 6.382,12.382 M 5.1273,9.8727 L 4.7205,9.6693 L 4.3544,10.6456 L 5.3307,10.2795 L 5.1273,9.8727 M 2.618,8.618 L 3.4344,10.2508 L 3.8211,9.2196 L 2.618,8.618 M 5.9521,9.2861 L 6.2722,9.9264 L 7.3137,9.5359 C 7.3712,9.5127 7.4341,9.5 7.5,9.5 C 7.5659,9.5 7.6288,9.5127 7.6864,9.5359 L 8.7278,9.9264 L 9.0479,9.2861 C 9.0974,9.1818 9.1818,9.0974 9.2861,9.0479 L 9.9264,8.7278 L 9.5359,7.6864 C 9.5127,7.6288 9.5,7.5659 9.5,7.5 C 9.5,7.4341 9.5127,7.3712 9.5359,7.3137 L 9.9264,6.2722 L 9.2861,5.9521 C 9.1818,5.9026 9.0974,5.8182 9.0479,5.7139 L 8.7278,5.0736 L 7.6864,5.4641 C 7.6288,5.4873 7.5659,5.5 7.5,5.5 C 7.4341,5.5 7.3712,5.4873 7.3137,5.4641 L 6.2722,5.0736 L 5.9521,5.7139 C 5.9026,5.8182 5.8182,5.9026 5.7139,5.9521 L 5.0736,6.2722 L 5.4641,7.3137 C 5.4873,7.3712 5.5,7.4341 5.5,7.5 C 5.5,7.5659 5.4873,7.6288 5.4641,7.6864 L 5.0736,8.7278 L 5.7139,9.0479 C 5.8182,9.0974 5.9026,9.1818 5.9521,9.2861 M 2.618,7.5 L 4.1742,8.2781 L 4.466,7.5 L 4.1742,6.7219 L 2.618,7.5 M 7.5,12.382 L 8.2781,10.8258 L 7.5,10.534 L 6.7219,10.8258 L 7.5,12.382 M 12.382,7.5 L 10.8258,6.7219 L 10.534,7.5 L 10.8258,8.2781 L 12.382,7.5 M 7.5,2.618 L 6.7219,4.1742 L 7.5,4.466 L 8.2781,4.1742 L 7.5,2.618 M 2.618,6.382 L 3.8212,5.7804 L 3.4344,4.7492 L 2.618,6.382 M 5.1273,5.1273 L 5.3307,4.7205 L 4.3544,4.3544 L 4.7205,5.3307 L 5.1273,5.1273 M 6.382,2.618 L 4.7492,3.4344 L 5.7804,3.8211 L 6.382,2.618 M 12.382,8.618 L 11.1789,9.2196 L 11.5656,10.2508 L 12.382,8.618 M 9.8727,9.8727 L 9.6693,10.2795 L 10.6456,10.6456 L 10.2795,9.6693 L 9.8727,9.8727 M 8.618,12.382 L 10.2508,11.5656 L 9.2196,11.1789 L 8.618,12.382 M 8.618,2.618 L 9.2196,3.8212 L 10.2508,3.4344 L 8.618,2.618 M 9.8727,5.1273 L 10.2795,5.3307 L 10.6456,4.3544 L 9.6693,4.7205 L 9.8727,5.1273 M 12.382,6.382 L 11.5656,4.7492 L 11.1789,5.7804 L 12.382,6.382" fill="#000" /></svg>