<svg xmlns="http://www.w3.org/2000/svg" width="16" height="16"><path d="M 7.2773,1.0527 L 3.2773,3.0527 C 3.18,3.1012 3.1012,3.18 3.0527,3.2773 L 1.0527,7.2773 C 0.983,7.4176 0.983,7.5824 1.0527,7.7227 L 3.0527,11.7227 C 3.1012,11.82 3.18,11.8988 3.2773,11.9473 L 7.2773,13.9473 C 7.4176,14.017 7.5824,14.017 7.7227,13.9473 L 11.7227,11.9473 C 11.82,11.8988 11.8988,11.8199 11.9473,11.7227 L 13.9473,7.7227 C 14.017,7.5824 14.017,7.4176 13.9473,7.2773 L 11.9473,3.2773 C 11.8988,3.18 11.8199,3.1012 11.7227,3.0527 L 7.7227,1.0527 C 7.5773,0.9807 7.4114,0.9864 7.2773,1.0527 M 6.4062,2.6055 L 5.7832,3.8359 L 4.7227,3.4473 L 6.4062,2.6055 M 8.5938,2.6055 L 10.2773,3.4473 L 9.2168,3.8359 L 8.5938,2.6055 M 7.5,2.6543 L 8.2734,4.1836 L 7.5,4.4668 L 6.7266,4.1836 L 7.5,2.6543 M 4.3926,4.3925 L 5.3281,4.7363 L 5.1289,5.1289 L 4.7363,5.3281 L 4.3926,4.3925 M 10.6074,4.3925 L 10.2637,5.3281 L 9.8711,5.1289 L 9.6719,4.7363 L 10.6074,4.3925 M 3.4473,4.7226 L 3.8359,5.7832 L 2.6055,6.4062 L 3.4473,4.7226 M 11.5527,4.7226 L 12.3945,6.4062 L 11.1641,5.7832 L 11.5527,4.7226 M 6.2715,5.082 L 7.3281,5.4687 C 7.4391,5.5093 7.5609,5.5093 7.6719,5.4687 L 8.7285,5.082 L 9.0547,5.7265 C 9.1027,5.8207 9.1792,5.8973 9.2734,5.9453 L 9.918,6.2714 L 9.5312,7.3281 C 9.4906,7.4391 9.4906,7.5609 9.5312,7.6718 L 9.918,8.7285 L 9.2734,9.0547 C 9.1792,9.1027 9.1026,9.1792 9.0547,9.2734 L 8.7285,9.9179 L 7.6719,9.5312 C 7.5609,9.4906 7.4391,9.4906 7.3281,9.5312 L 6.2715,9.9179 L 5.9453,9.2734 C 5.8973,9.1792 5.8208,9.1026 5.7266,9.0547 L 5.082,8.7285 L 5.4688,7.6718 C 5.5094,7.5609 5.5094,7.4391 5.4688,7.3281 L 5.082,6.2714 L 5.7266,5.9453 C 5.8208,5.8973 5.8974,5.8207 5.9453,5.7265 L 6.2715,5.082 M 7.5,6.0 C 6.6775,6.0 6.0,6.6775 6.0,7.5 C 6.0,8.3225 6.6775,9.0 7.5,9.0 C 8.3225,9.0 9.0,8.3225 9.0,7.5 C 9.0,6.6775 8.3225,6.0 7.5,6.0 M 4.1836,6.7266 L 4.4668,7.5 L 4.1836,8.2734 L 2.6543,7.5 L 4.1836,6.7266 M 10.8164,6.7266 L 12.3457,7.5 L 10.8164,8.2734 L 10.5332,7.5 L 10.8164,6.7266 M 7.5,7.0 C 7.7821,7.0 8.0,7.2179 8.0,7.5 C 8.0,7.7821 7.7821,8.0 7.5,8.0 C 7.2179,8.0 7.0,7.7821 7.0,7.5 C 7.0,7.2179 7.2179,7.0 7.5,7.0 M 2.6055,8.5938 L 3.8359,9.2168 L 3.4473,10.2773 L 2.6055,8.5938 M 12.3945,8.5938 L 11.5527,10.2773 L 11.1641,9.2168 L 12.3945,8.5938 M 4.7363,9.6719 L 5.1289,9.8711 L 5.3281,10.2637 L 4.3926,10.6074 L 4.7363,9.6719 M 10.2637,9.6719 L 10.6074,10.6074 L 9.6719,10.2637 L 9.8711,9.8711 L 10.2637,9.6719 M 7.5,10.5332 L 8.2734,10.8164 L 7.5,12.3457 L 6.7266,10.8164 L 7.5,10.5332 M 5.7832,11.1641 L 6.4062,12.3945 L 4.7227,11.5527 L 5.7832,11.1641 M 9.2168,11.1641 L 10.2773,11.5527 L 8.5938,12.3945 L 9.2168,11.1641" fill="#000" /></svg>