<svg xmlns="http://www.w3.org/2000/svg" width="16" height="16"><path d="M 7.5703,2.4434 L 6.1562,4.8008 L 3.5,4.8008 C 3.1121,4.8008 2.8718,5.2233 3.0703,5.5566 L 4.3867,7.75 L 3.0703,9.9434 C 2.8718,10.2767 3.1121,10.6992 3.5,10.6992 L 6.1562,10.6992 L 7.5703,13.0566 C 7.7642,13.3824 8.2358,13.3824 8.4297,13.0566 L 9.8437,10.6992 L 12.5,10.6992 C 12.8879,10.6992 13.1282,10.2767 12.9297,9.9434 L 11.6133,7.75 L 12.9297,5.5566 C 13.1282,5.2233 12.8879,4.8008 12.5,4.8008 L 9.8438,4.8008 L 8.4297,2.4434 C 8.2366,2.1192 7.7634,2.1192 7.5703,2.4434 L 7.5703,2.4434 M 8.0,3.6738 L 8.6758,4.8008 L 7.3242,4.8008 L 8.0,3.6738 M 4.3848,5.8008 L 5.5566,5.8008 L 4.9707,6.7773 L 4.3848,5.8008 M 6.7246,5.8008 L 9.2754,5.8008 L 10.4453,7.75 L 9.2754,9.6992 L 6.7246,9.6992 L 5.5547,7.75 L 6.7246,5.8008 M 10.4434,5.8008 L 11.6152,5.8008 L 11.0293,6.7773 L 10.4434,5.8008 M 4.9707,8.7227 L 5.5566,9.6992 L 4.3848,9.6992 L 4.9707,8.7227 M 11.0293,8.7227 L 11.6152,9.6992 L 10.4434,9.6992 L 11.0293,8.7227 M 7.3242,10.6992 L 8.6758,10.6992 L 8.0,11.8262 L 7.3242,10.6992" fill="#000" /></svg>