<svg xmlns="http://www.w3.org/2000/svg" width="16" height="16"><path d="M 7.5664,1.4004 L 5.8594,4.3496 L 2.5,4.3496 C 2.1149,4.3492 1.8739,4.7661 2.0664,5.0996 L 3.7461,8.0 L 2.0664,10.9004 C 1.8739,11.2339 2.1149,11.6508 2.5,11.6504 L 5.8594,11.6504 L 7.5664,14.5996 C 7.7586,14.9342 8.2414,14.9342 8.4336,14.5996 L 10.1406,11.6504 L 13.5,11.6504 C 13.8851,11.6508 14.1261,11.2339 13.9336,10.9004 L 12.2539,8.0 L 13.9336,5.0996 C 14.1261,4.7661 13.8851,4.3492 13.5,4.3496 L 10.1406,4.3496 L 8.4336,1.4004 C 8.2419,1.0684 7.7581,1.0684 7.5664,1.4004 M 8.0,2.6484 L 8.9844,4.3496 L 7.0156,4.3496 L 8.0,2.6484 M 3.3672,5.3496 L 5.2793,5.3496 L 4.3242,7.002 L 3.3672,5.3496 M 6.4356,5.3496 L 9.5645,5.3496 L 11.0977,8.0 L 9.5644,10.6504 L 6.4355,10.6504 L 4.9023,8.0 L 6.4356,5.3496 M 10.7207,5.3496 L 12.6328,5.3496 L 11.6758,7.002 L 10.7207,5.3496 M 4.3242,8.998 L 5.2793,10.6504 L 3.3672,10.6504 L 4.3242,8.998 M 11.6758,8.998 L 12.6328,10.6504 L 10.7207,10.6504 L 11.6758,8.998 M 7.0156,11.6504 L 8.9844,11.6504 L 8.0,13.3516 L 7.0156,11.6504" fill="#000" /></svg>