<svg xmlns="http://www.w3.org/2000/svg" width="16" height="16"><path d="M 8.0,1.0 C 7.446,1.0 7.0,1.446 7.0,2.0 C 7.0,2.554 7.446,3.0 8.0,3.0 C 8.554,3.0 9.0,2.554 9.0,2.0 C 9.0,1.446 8.554,1.0 8.0,1.0 M 6.5,4.0 C 6.223,4.0 6.0,4.223 6.0,4.5 L 6.0,6.5 C 6.0,6.777 6.223,7.0 6.5,7.0 L 7.0,7.0 L 7.0,11.5 C 7.0,11.777 7.223,12.0 7.5,12.0 L 8.5,12.0 C 8.777,12.0 9.0,11.777 9.0,11.5 L 9.0,7.0 L 9.5,7.0 C 9.777,7.0 10.0,6.777 10.0,6.5 L 10.0,4.5 C 10.0,4.223 9.777,4.0 9.5,4.0 L 6.5,4.0 M 5.5,13.0 A 0.5,0.5 0.0 0,0 5.0,13.5 A 0.5,0.5 0.0 0,0 5.5,14.0 L 6.0,14.0 L 6.0,14.5 A 0.5,0.5 0.0 0,0 6.5,15.0 L 9.5,15.0 A 0.5,0.5 0.0 0,0 10.0,14.5 L 10.0,14.0 L 10.5,14.0 A 0.5,0.5 0.0 0,0 11.0,13.5 A 0.5,0.5 0.0 0,0 10.5,13.0 L 5.5,13.0" fill="#000" /></svg>