<svg xmlns="http://www.w3.org/2000/svg" width="16" height="16"><path d="M 10.5,3.0 C 10.223,3.0 10.0,3.223 10.0,3.5 L 10.0,7.0 C 10.0,8.0 11.0,8.0 11.0,9.0 L 11.0,12.5 C 11.0,12.777 11.223,13.0 11.5,13.0 C 11.777,13.0 12.0,12.777 12.0,12.5 L 12.0,9.0 C 12.0,8.0 13.0,8.0 13.0,7.0 L 13.0,3.5 C 13.0,3.223 12.777,3.0 12.5,3.0 C 12.223,3.0 12.0,3.223 12.0,3.5 L 12.0,6.0 C 12.0,6.2761 11.7761,6.5 11.5,6.5 C 11.2239,6.5 11.0,6.2761 11.0,6.0 L 11.0,3.5 C 11.0,3.223 10.777,3.0 10.5,3.0 M 5.043,3.0 C 4.2325,2.9886 3.4519,3.3056 2.8789,3.8789 C 2.317,4.4417 2.0016,5.2047 2.002,6.0 L 2.0,6.0 L 2.0,10.0 C 2.0,11.108 2.892,12.0 4.0,12.0 C 5.108,12.0 6.0,11.108 6.0,10.0 C 6.0,9.3123 6.6196,8.6225 7.121,8.1211 C 8.2923,6.9496 8.2923,5.0504 7.121,3.8789 C 6.5691,3.3267 5.8236,3.0114 5.043,3.0 M 5.0,5.0 C 5.5523,5.0 6.0,5.4477 6.0,6.0 C 6.0,6.5523 5.5523,7.0 5.0,7.0 C 4.4477,7.0 4.0,6.5523 4.0,6.0 C 4.0,5.4477 4.4477,5.0 5.0,5.0" fill="#000" /></svg>