<svg xmlns="http://www.w3.org/2000/svg" width="16" height="16"><path d="M 11.4785,3.0 C 11.4649,3.0006 11.4512,3.0022 11.4375,3.0039 L 3.4375,4.0039 C 3.2569,4.0265 3.1028,4.1454 3.0352,4.3144 L 2.0352,6.8144 C 1.9853,6.9398 1.988,7.0799 2.0432,7.2031 L 4.0432,11.7031 C 4.1232,11.8836 4.3025,12.0 4.5,12.0 L 11.5,12.0 C 11.6792,11.9998 11.8447,11.9037 11.9336,11.748 L 13.9336,8.248 C 14.0128,8.11 14.0215,7.9424 13.957,7.7969 L 11.957,3.2969 C 11.873,3.1079 11.6823,2.9911 11.4785,3.0 L 11.4785,3.0 M 5.5,6.0 L 10.5,6.0 A 0.5,0.5 0.0 0,1 11.0,6.5 A 0.5,0.5 0.0 0,1 10.5,7.0 L 5.5,7.0 A 0.5,0.5 0.0 0,1 5.0,6.5 A 0.5,0.5 0.0 0,1 5.5,6.0 M 5.5,8.0 L 10.5,8.0 A 0.5,0.5 0.0 0,1 11.0,8.5 A 0.5,0.5 0.0 0,1 10.5,9.0 L 5.5,9.0 A 0.5,0.5 0.0 0,1 5.0,8.5 A 0.5,0.5 0.0 0,1 5.5,8.0" fill="#000" /></svg>