<svg xmlns="http://www.w3.org/2000/svg" width="16" height="16"><path d="M 11.5,3.0 C 11.476,3.0 11.453,3.002 11.43,3.005 L 3.445,4.003 C 3.254,4.024 3.096,4.152 3.031,4.325 L 2.04,6.804 C 2.014,6.864 2.0,6.93 2.0,7.0 C 2.0,7.076 2.017,7.148 2.047,7.213 L 4.038,11.693 C 4.114,11.873 4.291,12.0 4.499,12.0 L 11.5,12.0 C 11.69,12.0 11.854,11.894 11.939,11.74 L 13.93,8.256 C 13.974,8.181 14.0,8.093 14.0,8.0 C 14.0,7.924 13.983,7.852 13.953,7.787 L 11.962,3.307 C 11.886,3.127 11.708,3.0 11.5,3.0 M 5.499,6.0 L 10.5,6.0 C 10.777,6.001 11.0,6.224 11.0,6.5 C 11.0,6.776 10.777,6.999 10.501,7.0 L 5.5,7.0 C 5.223,6.999 5.0,6.776 5.0,6.5 C 5.0,6.224 5.223,6.001 5.499,6.0 M 5.0,8.5 C 5.0,8.224 5.223,8.0 5.499,8.0 L 10.5,8.0 C 10.777,8.0 11.0,8.224 11.0,8.5 C 11.0,8.776 10.777,9.0 10.501,9.0 L 5.5,9.0 C 5.223,9.0 5.0,8.776 5.0,8.5" fill="#000" /></svg>