<svg xmlns="http://www.w3.org/2000/svg" width="16" height="16"><path d="M 11.5,3.0 C 11.7079,3.0 11.8861,3.1269 11.9615,3.3074 L 13.9525,7.787 C 13.983,7.8516 14.0,7.9238 14.0,8.0 C 14.0,8.0934 13.9744,8.1809 13.9298,8.2557 L 11.9389,11.7396 C 11.8541,11.8948 11.6893,12.0 11.5,12.0 L 4.5,12.0 C 4.2921,12.0 4.1139,11.8732 4.0385,11.6926 L 2.0475,7.213 C 2.017,7.1484 2.0,7.0762 2.0,7.0 C 2.0,6.9304 2.0142,6.864 2.04,6.8038 L 3.0314,4.3251 C 3.0961,4.1518 3.2543,4.024 3.4446,4.003 L 11.4301,3.0048 C 11.453,3.0017 11.4763,3.0 11.5,3.0 L 11.5,3.0 M 5.5,6.0 C 5.2239,6.0 5.0,6.2239 5.0,6.5 C 5.0,6.7761 5.2239,7.0 5.5,7.0 L 10.5,7.0 C 10.7761,7.0 11.0,6.7761 11.0,6.5 C 11.0,6.2239 10.7761,6.0 10.5,6.0 L 5.5,6.0 C 5.5,6.0 5.5,6.0 5.5,6.0 M 5.5,8.0 C 5.2239,8.0 5.0,8.2239 5.0,8.5 C 5.0,8.7761 5.2239,9.0 5.5,9.0 L 10.5,9.0 C 10.7761,9.0 11.0,8.7761 11.0,8.5 C 11.0,8.2239 10.7761,8.0 10.5,8.0 C 10.5,8.0 5.5,8.0 5.5,8.0" fill="#000" /></svg>