<svg xmlns="http://www.w3.org/2000/svg" width="16" height="16"><path d="M 5.7227,2.0 C 5.5901,2.0 5.4629,2.0527 5.3691,2.1465 L 2.1465,5.3691 C 2.0527,5.4629 2.0,5.5901 2.0,5.7227 L 2.0,10.2773 C 2.0,10.4099 2.0527,10.5371 2.1465,10.6309 L 5.3691,13.8535 C 5.4629,13.9473 5.5901,14.0 5.7227,14.0 L 10.2773,14.0 C 10.4099,14.0 10.5371,13.9473 10.6309,13.8535 L 13.8535,10.6309 C 13.9473,10.5371 14.0,10.4099 14.0,10.2773 L 14.0,5.7227 C 14.0,5.5901 13.9473,5.4629 13.8535,5.3691 L 10.6309,2.1465 C 10.5371,2.0527 10.4099,2.0 10.2773,2.0 L 5.7227,2.0 M 5.5,7.0 L 10.5,7.0 C 10.7761,7.0 11.0,7.2239 11.0,7.5 L 11.0,8.5 C 11.0,8.7761 10.7761,9.0 10.5,9.0 L 5.5,9.0 C 5.2239,9.0 5.0,8.7761 5.0,8.5 L 5.0,7.5 C 5.0,7.2239 5.2239,7.0 5.5,7.0" fill="#000" /></svg>