<svg xmlns="http://www.w3.org/2000/svg" width="16" height="16"><path d="M 2.5,2.0 C 2.223,2.0 2.0,2.224 2.0,2.5 L 2.0,13.5 C 2.0,13.776 2.223,14.0 2.499,14.0 L 12.5,14.0 C 12.777,14.0 13.0,13.776 13.0,13.5 L 13.0,2.501 C 13.0,2.224 12.777,2.0 12.501,2.0 L 2.5,2.0 M 3.499,3.0 L 6.5,3.0 C 6.777,3.0 7.0,3.224 7.0,3.5 C 7.0,3.776 6.777,4.0 6.501,4.0 L 3.5,4.0 C 3.223,4.0 3.0,3.776 3.0,3.5 C 3.0,3.224 3.223,3.0 3.499,3.0 M 8.499,3.0 L 11.5,3.0 C 11.777,3.0 12.0,3.224 12.0,3.5 C 12.0,3.776 11.777,4.0 11.501,4.0 L 8.5,4.0 C 8.223,4.0 8.0,3.776 8.0,3.5 C 8.0,3.224 8.223,3.0 8.499,3.0 M 3.499,5.0 L 6.5,5.0 C 6.777,5.001 7.0,5.224 7.0,5.5 C 7.0,5.776 6.777,5.999 6.501,6.0 L 3.5,6.0 C 3.223,5.999 3.0,5.776 3.0,5.5 C 3.0,5.224 3.223,5.001 3.499,5.0 M 8.499,5.0 L 11.5,5.0 C 11.777,5.001 12.0,5.224 12.0,5.5 C 12.0,5.776 11.777,5.999 11.501,6.0 L 8.5,6.0 C 8.223,5.999 8.0,5.776 8.0,5.5 C 8.0,5.224 8.223,5.001 8.499,5.0 M 7.08,7.229 C 7.169,7.091 7.324,7.0 7.5,7.0 C 7.776,7.0 8.0,7.224 8.0,7.5 C 8.0,7.546 7.994,7.59 7.982,7.632 L 7.64,9.0 L 9.5,9.0 C 9.777,9.0 10.0,9.224 10.0,9.5 C 10.0,9.605 9.968,9.703 9.912,9.783 L 7.92,12.771 C 7.831,12.909 7.676,13.0 7.5,13.0 C 7.224,13.0 7.0,12.776 7.0,12.5 C 7.0,12.454 7.006,12.41 7.018,12.368 L 7.36,11.0 L 5.5,11.0 C 5.223,11.0 5.0,10.776 5.0,10.5 C 5.0,10.395 5.032,10.297 5.088,10.217 L 7.08,7.229" fill="#000" /></svg>