<svg xmlns="http://www.w3.org/2000/svg" width="16" height="16"><path d="M 12.0,2.5 L 12.0,13.5 C 12.0,13.7761 11.7761,14.0 11.5,14.0 L 3.5,14.0 C 3.2239,14.0 3.0,13.7761 3.0,13.5 L 3.0,2.5 C 3.0,2.2239 3.2239,2.0 3.5,2.0 L 11.5,2.0 C 11.7761,2.0 12.0,2.2239 12.0,2.5 M 4.5,3.0 C 4.2239,3.0 4.0,3.2239 4.0,3.5 C 4.0,3.7761 4.2239,4.0 4.5,4.0 L 6.5,4.0 C 6.7761,4.0 7.0,3.7761 7.0,3.5 C 7.0,3.2239 6.7761,3.0 6.5,3.0 C 6.5,3.0 4.5,3.0 4.5,3.0 M 8.5,3.0 C 8.2239,3.0 8.0,3.2239 8.0,3.5 C 8.0,3.7761 8.2239,4.0 8.5,4.0 L 10.5,4.0 C 10.7761,4.0 11.0,3.7761 11.0,3.5 C 11.0,3.2239 10.7761,3.0 10.5,3.0 C 10.5,3.0 8.5,3.0 8.5,3.0 M 4.5,5.0 C 4.2239,5.0 4.0,5.2239 4.0,5.5 C 4.0,5.7761 4.2239,6.0 4.5,6.0 L 6.5,6.0 C 6.7761,6.0 7.0,5.7761 7.0,5.5 C 7.0,5.2239 6.7761,5.0 6.5,5.0 C 6.5,5.0 4.5,5.0 4.5,5.0 M 8.5,5.0 C 8.2239,5.0 8.0,5.2239 8.0,5.5 C 8.0,5.7761 8.2239,6.0 8.5,6.0 L 10.5,6.0 C 10.7761,6.0 11.0,5.7761 11.0,5.5 C 11.0,5.2239 10.7761,5.0 10.5,5.0 C 10.5,5.0 8.5,5.0 8.5,5.0" fill="#000" /></svg>