<svg xmlns="http://www.w3.org/2000/svg" width="16" height="16"><path d="M 2.5,1.0 C 2.223,1.0 2.0,1.224 2.0,1.5 L 2.0,13.5 C 2.0,13.776 2.223,14.0 2.499,14.0 L 12.5,14.0 C 12.777,14.0 13.0,13.776 13.0,13.5 L 13.0,1.501 C 13.0,1.224 12.777,1.0 12.501,1.0 L 2.5,1.0 M 3.499,2.0 L 6.5,2.0 C 6.777,2.0 7.0,2.224 7.0,2.5 C 7.0,2.776 6.777,3.0 6.501,3.0 L 3.5,3.0 C 3.223,3.0 3.0,2.776 3.0,2.5 C 3.0,2.224 3.223,2.0 3.499,2.0 M 8.499,2.0 L 11.5,2.0 C 11.777,2.0 12.0,2.224 12.0,2.5 C 12.0,2.776 11.777,3.0 11.501,3.0 L 8.5,3.0 C 8.223,3.0 8.0,2.776 8.0,2.5 C 8.0,2.224 8.223,2.0 8.499,2.0 M 3.499,4.0 L 6.5,4.0 C 6.777,4.001 7.0,4.224 7.0,4.5 C 7.0,4.776 6.777,4.999 6.501,5.0 L 3.5,5.0 C 3.223,4.999 3.0,4.776 3.0,4.5 C 3.0,4.224 3.223,4.001 3.499,4.0 M 8.499,4.0 L 11.5,4.0 C 11.777,4.001 12.0,4.224 12.0,4.5 C 12.0,4.776 11.777,4.999 11.501,5.0 L 8.5,5.0 C 8.223,4.999 8.0,4.776 8.0,4.5 C 8.0,4.224 8.223,4.001 8.499,4.0" fill="#000" /></svg>