<svg xmlns="http://www.w3.org/2000/svg" width="16" height="16"><path d="M 3.5,2.0 C 3.223,2.0 3.0,2.224 3.0,2.5 L 3.0,13.5 C 3.0,13.776 3.223,14.0 3.499,14.0 L 11.5,14.0 C 11.777,14.0 12.0,13.776 12.0,13.5 L 12.0,2.501 C 12.0,2.224 11.777,2.0 11.501,2.0 L 3.5,2.0 M 4.499,3.0 L 6.5,3.0 C 6.777,3.0 7.0,3.224 7.0,3.5 C 7.0,3.776 6.777,4.0 6.501,4.0 L 4.5,4.0 C 4.223,4.0 4.0,3.776 4.0,3.5 C 4.0,3.224 4.223,3.0 4.499,3.0 M 8.499,3.0 L 10.5,3.0 C 10.777,3.0 11.0,3.224 11.0,3.5 C 11.0,3.776 10.777,4.0 10.501,4.0 L 8.5,4.0 C 8.223,4.0 8.0,3.776 8.0,3.5 C 8.0,3.224 8.223,3.0 8.499,3.0 M 4.499,5.0 L 6.5,5.0 C 6.777,5.001 7.0,5.224 7.0,5.5 C 7.0,5.776 6.777,5.999 6.501,6.0 L 4.5,6.0 C 4.223,5.999 4.0,5.776 4.0,5.5 C 4.0,5.224 4.223,5.001 4.499,5.0 M 8.0,5.5 C 8.0,5.224 8.223,5.001 8.499,5.0 L 10.5,5.0 C 10.777,5.001 11.0,5.224 11.0,5.5 C 11.0,5.776 10.777,5.999 10.501,6.0 L 8.5,6.0 C 8.223,5.999 8.0,5.776 8.0,5.5" fill="#000" /></svg>