<svg xmlns="http://www.w3.org/2000/svg" width="16" height="16"><path d="M 6.2188,1.0937 L 3.2188,3.0937 C 2.8803,3.3365 3.0836,3.9915 3.5,4.0 L 4.625,4.0 L 6.0312,8.6562 C 6.0959,8.8527 6.2933,8.9974 6.5,9.0 L 7.0,9.0 L 7.0,14.5 C 7.0,14.777 7.223,15.0 7.5,15.0 L 8.5,15.0 C 8.777,15.0 9.0,14.777 9.0,14.5 L 9.0,9.0 L 9.5,9.0 C 9.7068,8.997 9.9041,8.8527 9.9688,8.6562 L 11.375,4.0 L 12.5,4.0 C 12.9164,3.992 13.1197,3.3365 12.7812,3.0938 L 9.7812,1.0938 C 9.6997,1.0353 9.6003,1.0021 9.5,1.0001 L 6.5,1.0001 C 6.3912,1.0001 6.2889,1.0405 6.2188,1.0938 L 6.2188,1.0937 M 5.6562,4.0 L 10.3438,4.0 L 9.125,8.0 L 6.875,8.0 L 5.6562,4.0" fill="#000" /></svg>