<svg xmlns="http://www.w3.org/2000/svg" width="16" height="16"><path d="M 3.5,2.0 C 3.223,2.0 3.0,2.223 3.0,2.5 L 3.0,13.5 C 3.0,13.777 3.223,14.0 3.5,14.0 L 11.5,14.0 C 11.777,14.0 12.0,13.777 12.0,13.5 L 12.0,2.5 C 12.0,2.223 11.777,2.0 11.5,2.0 L 3.5,2.0 M 4.5,3.0 L 6.5,3.0 C 6.777,3.0 7.0,3.223 7.0,3.5 C 7.0,3.777 6.777,4.0 6.5,4.0 L 4.5,4.0 C 4.223,4.0 4.0,3.777 4.0,3.5 C 4.0,3.223 4.223,3.0 4.5,3.0 M 8.5,3.0 L 10.5,3.0 C 10.777,3.0 11.0,3.223 11.0,3.5 C 11.0,3.777 10.777,4.0 10.5,4.0 L 8.5,4.0 C 8.223,4.0 8.0,3.777 8.0,3.5 C 8.0,3.223 8.223,3.0 8.5,3.0 M 4.5,5.0 L 6.5,5.0 C 6.777,5.0 7.0,5.223 7.0,5.5 C 7.0,5.777 6.777,6.0 6.5,6.0 L 4.5,6.0 C 4.223,6.0 4.0,5.777 4.0,5.5 C 4.0,5.223 4.223,5.0 4.5,5.0 M 8.5,5.0 L 10.5,5.0 C 10.777,5.0 11.0,5.223 11.0,5.5 C 11.0,5.777 10.777,6.0 10.5,6.0 L 8.5,6.0 C 8.223,6.0 8.0,5.777 8.0,5.5 C 8.0,5.223 8.223,5.0 8.5,5.0" fill="#000" /></svg>