<svg xmlns="http://www.w3.org/2000/svg" width="16" height="16"><path d="M 7.5,1.0078 C 7.2269,1.0078 7.0043,1.2269 7.0,1.5 L 7.0,3.4512 L 6.0898,8.0 L 5.5,8.0 C 5.2239,8.0 5.0,8.2239 5.0,8.5 L 5.0,11.0 L 4.5,11.0 C 4.2239,11.0 4.0,11.2239 4.0,11.5 L 4.0,13.0 L 3.5,13.0 C 3.2239,13.0 3.0,13.2239 3.0,13.5 L 3.0,14.5 C 3.0,14.7761 3.2239,15.0 3.5,15.0 L 11.5,15.0 C 11.7761,15.0 12.0,14.7761 12.0,14.5 L 12.0,13.5 C 12.0,13.2239 11.7761,13.0 11.5,13.0 L 11.0,13.0 L 11.0,11.5 C 11.0,11.2239 10.7761,11.0 10.5,11.0 L 10.0,11.0 L 10.0,8.5 C 10.0,8.2239 9.7761,8.0 9.5,8.0 L 8.9102,8.0 L 8.0,3.4512 L 8.0,1.5 C 7.996,1.2269 7.7731,1.0078 7.5,1.0078" fill="#000" /></svg>