<svg xmlns="http://www.w3.org/2000/svg" width="16" height="16"><path d="M 7.5,1.0 C 7.3721,1.0 7.2441,1.0489 7.1465,1.1465 C 6.7786,1.5143 6.625,2.0139 6.625,2.5 C 6.625,2.9861 6.7786,3.4857 7.1465,3.8535 C 7.3417,4.0487 7.6583,4.0487 7.8535,3.8535 C 8.2214,3.4857 8.375,2.9861 8.375,2.5 C 8.375,2.0139 8.2214,1.5143 7.8535,1.1465 C 7.7559,1.0489 7.6279,1.0 7.5,1.0 M 4.4805,1.8047 C 4.2679,1.8135 4.0757,1.9575 4.0176,2.1738 C 3.8829,2.6763 3.9991,3.1864 4.2422,3.6074 C 4.4852,4.0284 4.8686,4.3849 5.3711,4.5195 C 5.6375,4.5903 5.9109,4.4322 5.9824,4.166 C 6.1171,3.6635 6.0009,3.1534 5.7578,2.7324 C 5.5148,2.3114 5.1314,1.9549 4.6289,1.8203 C 4.579,1.807 4.5295,1.8027 4.4805,1.8047 M 10.4707,1.8047 C 10.4376,1.8066 10.4044,1.8115 10.3711,1.8203 C 9.8686,1.9549 9.4852,2.3114 9.2422,2.7324 C 8.9991,3.1534 8.8829,3.6635 9.0176,4.166 C 9.0891,4.4322 9.3625,4.5903 9.6289,4.5195 C 10.1314,4.3849 10.5148,4.0284 10.7578,3.6074 C 11.0009,3.1864 11.1171,2.6763 10.9824,2.1738 C 10.9199,1.9409 10.7025,1.7912 10.4707,1.8047 M 2.5508,3.9609 C 2.4257,3.9652 2.2995,3.9839 2.1738,4.0176 C 1.9076,4.0891 1.7495,4.3625 1.8203,4.6289 C 1.9549,5.1314 2.3114,5.5148 2.7324,5.7578 C 3.1534,6.0009 3.6635,6.1171 4.166,5.9824 C 4.4322,5.9109 4.5903,5.6375 4.5195,5.3711 C 4.3849,4.8686 4.0284,4.4852 3.6074,4.2422 C 3.2917,4.0599 2.926,3.9482 2.5508,3.9609 M 12.4492,3.9609 C 12.074,3.9482 11.7083,4.0598 11.3926,4.2422 C 10.9716,4.4852 10.6151,4.8686 10.4805,5.3711 C 10.4097,5.6375 10.5678,5.9109 10.834,5.9824 C 11.3365,6.1171 11.8466,6.0009 12.2676,5.7578 C 12.6886,5.5148 13.0451,5.1314 13.1797,4.6289 C 13.2505,4.3625 13.0924,4.0891 12.8262,4.0176 C 12.7005,3.9839 12.5743,3.9652 12.4492,3.9609 M 7.5,5.0 C 6.1252,5.0 5.0,6.1252 5.0,7.5 C 5.0,8.8748 6.1252,10.0 7.5,10.0 C 8.8748,10.0 10.0,8.8748 10.0,7.5 C 10.0,6.1252 8.8748,5.0 7.5,5.0 M 2.5,6.625 C 2.0139,6.625 1.5143,6.7786 1.1465,7.1465 C 0.9513,7.3417 0.9513,7.6583 1.1465,7.8535 C 1.5143,8.2214 2.0139,8.375 2.5,8.375 C 2.9861,8.375 3.4857,8.2214 3.8535,7.8535 C 4.0487,7.6583 4.0487,7.3417 3.8535,7.1465 C 3.4857,6.7786 2.9861,6.625 2.5,6.625 M 12.5,6.625 C 12.0139,6.625 11.5143,6.7786 11.1465,7.1465 C 10.9513,7.3417 10.9513,7.6583 11.1465,7.8535 C 11.5143,8.2214 12.0139,8.375 12.5,8.375 C 12.9861,8.375 13.4857,8.2214 13.8535,7.8535 C 14.0487,7.6583 14.0487,7.3417 13.8535,7.1465 C 13.4857,6.7786 12.9861,6.625 12.5,6.625 M 3.7891,8.9609 C 3.4139,8.9482 3.0482,9.0598 2.7324,9.2422 C 2.3114,9.4852 1.9549,9.8686 1.8203,10.3711 C 1.7495,10.6375 1.9076,10.9109 2.1738,10.9824 C 2.6763,11.1171 3.1864,11.0009 3.6074,10.7578 C 4.0284,10.5148 4.3849,10.1314 4.5195,9.6289 C 4.5903,9.3625 4.4322,9.0891 4.166,9.0176 C 4.0404,8.9839 3.9141,8.9652 3.7891,8.9609 M 11.2109,8.9609 C 11.0859,8.9652 10.9596,8.9839 10.834,9.0176 C 10.5678,9.0891 10.4097,9.3625 10.4805,9.6289 C 10.6151,10.1314 10.9716,10.5148 11.3926,10.7578 C 11.8136,11.0009 12.3237,11.1171 12.8262,10.9824 C 13.0924,10.9109 13.2505,10.6375 13.1797,10.3711 C 13.0451,9.8686 12.6886,9.4852 12.2676,9.2422 C 11.9518,9.0599 11.5861,8.9482 11.2109,8.9609 M 5.4707,10.4648 C 5.4376,10.4668 5.4044,10.4716 5.3711,10.4805 C 4.8686,10.6151 4.4852,10.9716 4.2422,11.3926 C 3.9991,11.8136 3.8829,12.3237 4.0176,12.8262 C 4.0891,13.0924 4.3625,13.2505 4.6289,13.1797 C 5.1314,13.0451 5.5148,12.6886 5.7578,12.2676 C 6.0009,11.8466 6.1171,11.3365 5.9824,10.834 C 5.9199,10.6011 5.7025,10.4513 5.4707,10.4648 M 9.4805,10.4648 C 9.2679,10.4736 9.0757,10.6177 9.0176,10.834 C 8.8829,11.3365 8.9991,11.8466 9.2422,12.2676 C 9.4852,12.6886 9.8686,13.0451 10.3711,13.1797 C 10.6375,13.2505 10.9109,13.0924 10.9824,12.8262 C 11.1171,12.3237 11.0009,11.8136 10.7578,11.3926 C 10.5148,10.9716 10.1314,10.6151 9.6289,10.4805 C 9.579,10.4672 9.5295,10.4628 9.4805,10.4648 M 7.5,11.0 C 7.2239,11.0 7.0,11.2239 7.0,11.5 L 7.0,14.5 C 7.0,14.7761 7.2239,15.0 7.5,15.0 C 7.7761,15.0 8.0,14.7761 8.0,14.5 L 8.0,11.5 C 8.0,11.2239 7.7761,11.0 7.5,11.0" fill="#000" /></svg>