<svg xmlns="http://www.w3.org/2000/svg" width="16" height="16"><path d="M 7.5,1.0 C 6.5,2.0 6.5,3.0 7.5,4.0 C 8.5,3.0 8.5,2.0 7.5,1.0 M 4.25,1.8711 C 3.884,3.2371 4.384,4.1027 5.75,4.4688 C 6.116,3.1027 5.616,2.2371 4.25,1.8711 M 10.75,1.8711 C 9.384,2.2371 8.884,3.1027 9.25,4.4688 C 10.616,4.1027 11.116,3.2371 10.75,1.8711 M 1.8711,4.25 C 2.2371,5.616 3.1027,6.116 4.4688,5.75 C 4.0619,4.2317 3.0655,3.9299 1.8711,4.25 M 10.5312,5.75 C 11.8973,6.116 12.7629,5.616 13.1289,4.25 C 11.9316,3.9292 10.9375,4.234 10.5312,5.75 M 7.5,4.5 C 5.8432,4.5 4.5,5.8431 4.5,7.5 C 4.5,9.1569 5.8432,10.5 7.5,10.5 C 9.1568,10.5 10.5,9.1569 10.5,7.5 C 10.5,5.8431 9.1568,4.5 7.5,4.5 M 1.0,7.5 C 2.0,8.5 3.0,8.5 4.0,7.5 C 3.0042,6.5042 2.0017,6.4983 1.0,7.5 M 11.0,7.5 C 12.0,8.5 13.0,8.5 14.0,7.5 C 13.0042,6.5042 12.0017,6.4983 11.0,7.5 M 1.8711,10.75 C 3.2371,11.116 4.1027,10.616 4.4688,9.25 C 3.2715,8.9292 2.2773,9.234 1.8711,10.75 M 10.5312,9.25 C 10.8973,10.616 11.7629,11.116 13.1289,10.75 C 12.7221,9.2317 11.7257,8.9299 10.5312,9.25 M 5.75,10.5312 C 4.384,10.8973 3.884,11.7629 4.25,13.1289 C 5.616,12.7629 6.116,11.8973 5.75,10.5312 M 9.25,10.5312 C 8.884,11.8973 9.384,12.7629 10.75,13.1289 C 11.116,11.7629 10.616,10.8973 9.25,10.5312 M 7.5,11.0 C 7.223,11.0 7.0,11.223 7.0,11.5 L 7.0,14.5 C 7.0,14.777 7.223,15.0 7.5,15.0 C 7.777,15.0 8.0,14.777 8.0,14.5 L 8.0,11.5 C 8.0,11.223 7.777,11.0 7.5,11.0" fill="#000" /></svg>