<svg xmlns="http://www.w3.org/2000/svg" width="16" height="16"><path d="M 13.8144,1.8105 C 13.5175,1.8005 13.2333,1.8633 12.9844,2.0 C 12.5947,2.214 12.3195,2.5717 12.1426,3.0 L 1.5,3.0 C 1.1751,3.0005 0.937,3.3059 1.0156,3.6211 L 2.0156,7.6211 C 2.065,7.8199 2.2306,7.9685 2.4336,7.9961 L 9.9121,8.9922 L 9.9141,8.9942 C 10.1374,9.0359 10.2235,9.2572 10.1914,9.502 C 10.1569,9.7647 10.0477,10.0 9.5,10.0 L 3.5,10.0 C 3.2239,10.0 3.0,10.2239 3.0,10.5 C 3.0,10.7761 3.2239,11.0 3.5,11.0 L 9.5,11.0 L 10.5,11.0 C 10.7233,10.9998 10.9194,10.8515 10.9805,10.6367 C 11.649,8.2934 12.3221,5.9509 12.9886,3.6072 C 13.0993,3.2102 13.2852,2.9746 13.4671,2.8747 C 13.6523,2.7731 13.8809,2.7486 14.2777,2.947 C 14.5247,3.0698 14.8245,2.9692 14.9476,2.7224 C 15.0703,2.4754 14.9698,2.1756 14.723,2.0525 C 14.4213,1.9017 14.1117,1.82 13.8148,1.8103 L 13.8144,1.8105 M 4.0,12.0 C 3.4477,12.0 3.0,12.4477 3.0,13.0 C 3.0,13.5523 3.4477,14.0 4.0,14.0 C 4.5523,14.0 5.0,13.5523 5.0,13.0 C 5.0,12.4477 4.5523,12.0 4.0,12.0 M 10.0,12.0 C 9.4477,12.0 9.0,12.4477 9.0,13.0 C 9.0,13.5523 9.4477,14.0 10.0,14.0 C 10.5523,14.0 11.0,13.5523 11.0,13.0 C 11.0,12.4477 10.5523,12.0 10.0,12.0" fill="#000" /></svg>