<svg xmlns="http://www.w3.org/2000/svg" width="16" height="16"><path d="M 2.1856,1.8105 C 2.4825,1.8005 2.7667,1.8633 3.0156,2.0 C 3.4053,2.214 3.6805,2.5717 3.8574,3.0 L 14.5,3.0 C 14.8249,3.0005 15.063,3.3059 14.9844,3.6211 L 13.9844,7.6211 C 13.935,7.8199 13.7694,7.9685 13.5664,7.9961 L 6.0879,8.9922 L 6.0859,8.9942 C 5.8626,9.0359 5.7765,9.2572 5.8086,9.502 C 5.8431,9.7647 5.9523,10.0 6.5,10.0 L 12.5,10.0 C 12.7761,10.0 13.0,10.2239 13.0,10.5 C 13.0,10.7761 12.7761,11.0 12.5,11.0 L 6.5,11.0 L 5.5,11.0 C 5.2767,10.9998 5.0806,10.8515 5.0195,10.6367 C 4.351,8.2934 3.6779,5.9509 3.0114,3.6072 C 2.9007,3.2102 2.7148,2.9746 2.5329,2.8747 C 2.3477,2.7731 2.1191,2.7486 1.7223,2.947 C 1.4753,3.0698 1.1755,2.9692 1.0524,2.7224 C 0.9297,2.4754 1.0302,2.1756 1.277,2.0525 C 1.5787,1.9017 1.8883,1.82 2.1852,1.8103 L 2.1856,1.8105 M 12.0,12.0 C 12.5523,12.0 13.0,12.4477 13.0,13.0 C 13.0,13.5523 12.5523,14.0 12.0,14.0 C 11.4477,14.0 11.0,13.5523 11.0,13.0 C 11.0,12.4477 11.4477,12.0 12.0,12.0 M 6.0,12.0 C 6.5523,12.0 7.0,12.4477 7.0,13.0 C 7.0,13.5523 6.5523,14.0 6.0,14.0 C 5.4477,14.0 5.0,13.5523 5.0,13.0 C 5.0,12.4477 5.4477,12.0 6.0,12.0" fill="#000" /></svg>