<svg xmlns="http://www.w3.org/2000/svg" width="16" height="16"><path d="M 4.5,2.0 C 4.265,2.0 4.069,2.162 4.015,2.379 L 1.021,13.357 C 1.007,13.403 1.0,13.45 1.0,13.5 C 1.0,13.776 1.223,14.0 1.499,14.0 L 13.5,14.0 C 13.777,14.0 14.0,13.776 14.0,13.5 C 14.0,13.45 13.993,13.403 13.979,13.357 L 10.985,2.379 C 10.931,2.162 10.735,2.0 10.501,2.0 L 4.5,2.0 M 7.048,4.286 C 7.128,4.117 7.3,4.0 7.5,4.0 C 7.7,4.0 7.872,4.117 7.952,4.286 L 8.943,6.267 C 8.979,6.337 9.0,6.416 9.0,6.5 C 9.0,6.776 8.777,6.999 8.501,7.0 L 8.0,7.0 L 8.0,9.0 L 9.5,9.0 C 9.777,9.0 10.0,9.224 10.0,9.5 C 10.0,9.776 9.777,10.0 9.501,10.0 L 8.0,10.0 L 8.0,11.5 C 8.0,11.776 7.776,12.0 7.5,12.0 C 7.224,12.0 7.0,11.776 7.0,11.5 L 7.0,10.0 L 5.5,10.0 C 5.223,10.0 5.0,9.776 5.0,9.5 C 5.0,9.224 5.223,9.0 5.499,9.0 L 7.0,9.0 L 7.0,7.0 L 6.5,7.0 C 6.223,6.999 6.0,6.776 6.0,6.5 C 6.0,6.416 6.021,6.337 6.057,6.267 L 7.048,4.286" fill="#000" /></svg>