<svg xmlns="http://www.w3.org/2000/svg" width="16" height="16"><path d="M 5.5,3.0 C 5.2659,2.9998 5.063,3.1622 5.0117,3.3906 L 3.0117,12.3906 C 2.9416,12.7033 3.1796,13.0002 3.5,13.0 L 11.5,13.0 C 11.8204,13.0002 12.0583,12.7033 11.9883,12.3906 L 9.9883,3.3906 C 9.937,3.1622 9.7341,2.9998 9.5,3.0 L 5.5,3.0 M 7.5,5.0 A 0.5,0.5 0.0 0,1 7.8535,5.1465 L 8.8535,6.1465 A 0.5,0.5 0.0 0,1 8.5,7.0 L 8.0,7.0 L 8.0,8.0 L 9.5,8.0 A 0.5,0.5 0.0 0,1 10.0,8.5 A 0.5,0.5 0.0 0,1 9.5,9.0 L 8.0,9.0 L 8.0,10.5 A 0.5,0.5 0.0 0,1 7.5,11.0 A 0.5,0.5 0.0 0,1 7.0,10.5 L 7.0,9.0 L 5.5,9.0 A 0.5,0.5 0.0 0,1 5.0,8.5 A 0.5,0.5 0.0 0,1 5.5,8.0 L 7.0,8.0 L 7.0,7.0 L 6.5,7.0 A 0.5,0.5 0.0 0,1 6.1465,6.1465 L 7.1465,5.1465 A 0.5,0.5 0.0 0,1 7.5,5.0" fill="#000" /></svg>