<svg xmlns="http://www.w3.org/2000/svg" width="16" height="16"><path d="M 4.5,2.0 L 10.5,2.0 C 10.7344,2.0 10.9311,2.1613 10.9852,2.3789 L 13.9794,13.3574 C 13.9928,13.4026 14.0,13.4504 14.0,13.5 C 14.0,13.7761 13.7761,14.0 13.5,14.0 L 1.5,14.0 C 1.2239,14.0 1.0,13.7761 1.0,13.5 C 1.0,13.4504 1.0072,13.4026 1.0206,13.3574 L 4.0148,2.3789 C 4.0689,2.1613 4.2656,2.0 4.5,2.0 L 4.5,2.0 M 9.0,6.5 C 9.0,6.416 8.9793,6.3369 8.9427,6.2674 L 7.9521,4.2861 C 7.8719,4.117 7.6996,4.0 7.5,4.0 C 7.3004,4.0 7.1281,4.117 7.0479,4.2861 L 6.0573,6.2674 C 6.0207,6.3369 6.0,6.416 6.0,6.5 C 6.0,6.7761 6.2239,7.0 6.5,7.0 L 7.0,7.0 C 7.0,7.0 7.0,7.9642 7.0,9.0 C 7.0,9.0 5.5,9.0 5.5,9.0 C 5.2239,9.0 5.0,9.2239 5.0,9.5 C 5.0,9.7761 5.2239,10.0 5.5,10.0 L 7.0,10.0 C 7.0,10.8262 7.0,11.5 7.0,11.5 C 7.0,11.7761 7.2239,12.0 7.5,12.0 C 7.7761,12.0 8.0,11.7761 8.0,11.5 L 8.0,10.0 L 9.5,10.0 C 9.7761,10.0 10.0,9.7761 10.0,9.5 C 10.0,9.2239 9.7761,9.0 9.5,9.0 L 8.0,9.0 L 8.0,7.0 L 8.5,7.0 C 8.7761,7.0 9.0,6.7761 9.0,6.5 L 9.0,6.5" fill="#000" /></svg>