<svg xmlns="http://www.w3.org/2000/svg" width="16" height="16"><path d="M 2.5,1.0 C 2.223,1.0 2.0,1.223 2.0,1.5 C 2.0,1.777 2.223,2.0 2.5,2.0 L 5.0,2.0 L 5.0,3.0 L 6.0,3.0 L 6.0,2.0 L 10.0,2.0 L 10.0,3.0 L 11.0,3.0 L 11.0,2.0 L 13.5,2.0 C 13.777,2.0 14.0,1.777 14.0,1.5 C 14.0,1.223 13.777,1.0 13.5,1.0 L 2.5,1.0 M 5.0,4.0 C 4.446,4.0 4.0,4.446 4.0,5.0 L 4.0,13.0 C 4.0,13.554 4.446,14.0 5.0,14.0 L 11.0,14.0 C 11.554,14.0 12.0,13.554 12.0,13.0 L 12.0,5.0 C 12.0,4.446 11.554,4.0 11.0,4.0 L 5.0,4.0 M 5.75,5.0 L 10.25,5.0 C 10.6655,5.0 11.0,5.3345 11.0,5.75 L 11.0,9.25 C 11.0,9.6655 10.6655,10.0 10.25,10.0 L 5.75,10.0 C 5.3345,10.0 5.0,9.6655 5.0,9.25 L 5.0,5.75 C 5.0,5.3345 5.3345,5.0 5.75,5.0 M 5.5,11.0 L 6.5,11.0 C 6.777,11.0 7.0,11.223 7.0,11.5 C 7.0,11.777 6.777,12.0 6.5,12.0 L 5.5,12.0 C 5.223,12.0 5.0,11.777 5.0,11.5 C 5.0,11.223 5.223,11.0 5.5,11.0 M 9.5,11.0 L 10.5,11.0 C 10.777,11.0 11.0,11.223 11.0,11.5 C 11.0,11.777 10.777,12.0 10.5,12.0 L 9.5,12.0 C 9.223,12.0 9.0,11.777 9.0,11.5 C 9.0,11.223 9.223,11.0 9.5,11.0" fill="#000" /></svg>