<svg xmlns="http://www.w3.org/2000/svg" width="16" height="16"><path d="M 6.0,2.0 C 4.9013,2.0 4.0,2.9013 4.0,4.0 L 4.0,10.5 C 4.0,10.7761 4.2239,11.0 4.5,11.0 C 4.7761,11.0 5.0,10.7761 5.0,10.5 L 5.0,9.0 L 10.0,9.0 L 10.0,10.5 C 10.0,10.7761 10.2239,11.0 10.5,11.0 C 10.7761,11.0 11.0,10.7761 11.0,10.5 L 11.0,4.0 C 11.0,3.4418 11.4418,3.0 12.0,3.0 C 12.2761,3.0 12.5,2.7761 12.5,2.5 C 12.5,2.2239 12.2761,2.0 12.0,2.0 C 10.9013,2.0 10.0,2.9013 10.0,4.0 L 10.0,5.0 L 5.0,5.0 L 5.0,4.0 C 5.0,3.4418 5.4418,3.0 6.0,3.0 C 6.2761,3.0 6.5,2.7761 6.5,2.5 C 6.5,2.2239 6.2761,2.0 6.0,2.0 M 5.0,6.0 L 10.0,6.0 L 10.0,8.0 L 5.0,8.0 L 5.0,6.0 M 2.6465,11.3965 C 2.2054,11.8376 1.8333,12.0 1.5,12.0 C 1.2239,12.0 1.0,12.2239 1.0,12.5 C 1.0,12.7761 1.2239,13.0 1.5,13.0 C 2.0394,13.0 2.5273,12.6558 3.0,12.2754 C 3.4696,12.6539 3.9564,13.0 4.5,13.0 C 5.0394,13.0 5.5273,12.6558 6.0,12.2754 C 6.4727,12.6558 6.9606,13.0 7.5,13.0 C 8.0394,13.0 8.5273,12.6558 9.0,12.2754 C 9.4696,12.6539 9.9564,13.0 10.5,13.0 C 11.0394,13.0 11.5273,12.6558 12.0,12.2754 C 12.4727,12.6558 12.9606,13.0 13.5,13.0 C 13.7761,13.0 14.0,12.7761 14.0,12.5 C 14.0,12.2239 13.7761,12.0 13.5,12.0 C 13.1667,12.0 12.7946,11.8376 12.3535,11.3965 C 12.1582,11.2013 11.8418,11.2013 11.6465,11.3965 C 11.2054,11.8376 10.8333,12.0 10.5,12.0 C 10.1718,12.0 9.7859,11.8289 9.3535,11.3965 C 9.1582,11.2013 8.8418,11.2013 8.6465,11.3965 C 8.2054,11.8376 7.8333,12.0 7.5,12.0 C 7.1667,12.0 6.7946,11.8376 6.3535,11.3965 C 6.1582,11.2013 5.8418,11.2013 5.6465,11.3965 C 5.2054,11.8376 4.8333,12.0 4.5,12.0 C 4.1718,12.0 3.7859,11.8289 3.3535,11.3965 C 3.1587,11.2016 2.8413,11.2016 2.6465,11.3965 M 2.6465,13.3965 C 2.2054,13.8376 1.8333,14.0 1.5,14.0 C 1.2239,14.0 1.0,14.2239 1.0,14.5 C 1.0,14.7761 1.2239,15.0 1.5,15.0 C 2.0394,15.0 2.5273,14.6558 3.0,14.2754 C 3.4696,14.6539 3.9564,15.0 4.5,15.0 C 5.0394,15.0 5.5273,14.6558 6.0,14.2754 C 6.4727,14.6558 6.9606,15.0 7.5,15.0 C 8.0394,15.0 8.5273,14.6558 9.0,14.2754 C 9.4696,14.6539 9.9564,15.0 10.5,15.0 C 11.0394,15.0 11.5273,14.6558 12.0,14.2754 C 12.4727,14.6558 12.9606,15.0 13.5,15.0 C 13.7761,15.0 14.0,14.7761 14.0,14.5 C 14.0,14.2239 13.7761,14.0 13.5,14.0 C 13.1667,14.0 12.7946,13.8376 12.3535,13.3965 C 12.1582,13.2013 11.8418,13.2013 11.6465,13.3965 C 11.2054,13.8376 10.8333,14.0 10.5,14.0 C 10.1718,14.0 9.7859,13.8289 9.3535,13.3965 C 9.1582,13.2013 8.8418,13.2013 8.6465,13.3965 C 8.2054,13.8376 7.8333,14.0 7.5,14.0 C 7.1667,14.0 6.7946,13.8376 6.3535,13.3965 C 6.1582,13.2013 5.8418,13.2013 5.6465,13.3965 C 5.2054,13.8376 4.8333,14.0 4.5,14.0 C 4.1718,14.0 3.7859,13.8289 3.3535,13.3965 C 3.1587,13.2016 2.8413,13.2016 2.6465,13.3965" fill="#000" /></svg>