<svg xmlns="http://www.w3.org/2000/svg" width="16" height="16"><path d="M 5.2773,2.3867 L 1.9434,4.0527 C 1.6965,4.1759 1.596,4.4756 1.7188,4.7227 L 2.5527,6.3906 C 2.6643,6.613 2.9223,6.7195 3.1582,6.6406 L 5.0,6.0273 L 5.0,12.0 C 5.0,12.2761 5.2239,12.5 5.5,12.5 L 10.5,12.5 C 10.7761,12.5 11.0,12.2761 11.0,12.0 L 11.0,6.0273 L 12.8418,6.6406 C 13.0777,6.7195 13.3357,6.6129 13.4473,6.3906 L 14.2812,4.7227 C 14.404,4.4756 14.3034,4.1759 14.0566,4.0527 L 10.7227,2.3867 C 10.4507,2.2512 10.1217,2.3876 10.0254,2.6758 C 9.672,3.736 8.8417,4.209 8.0,4.209 C 7.1583,4.209 6.328,3.736 5.9746,2.6758 C 5.8789,2.3871 5.5489,2.2505 5.2773,2.3867" fill="#000" /></svg>