<svg xmlns="http://www.w3.org/2000/svg" width="16" height="16"><path d="M 3.2773,1.5527 L 1.2773,2.5527 C 1.0305,2.6759 0.93,2.9756 1.0527,3.2227 L 1.5527,4.2227 C 1.6636,4.4457 1.9218,4.5532 2.1582,4.4746 L 3.0,4.1934 L 3.0,7.5 C 3.0,7.7761 3.2239,8.0 3.5,8.0 L 6.5,8.0 C 6.7761,8.0 7.0,7.7761 7.0,7.5 L 7.0,4.1934 L 7.8418,4.4746 C 8.0782,4.5532 8.3364,4.4457 8.4473,4.2227 L 8.9473,3.2227 C 9.07,2.9756 8.9695,2.6759 8.7227,2.5527 L 6.7227,1.5527 C 6.4507,1.4172 6.1217,1.5536 6.0254,1.8418 C 5.8386,2.4021 5.425,2.625 5.0,2.625 C 4.575,2.625 4.1614,2.4021 3.9746,1.8418 C 3.8788,1.5528 3.5489,1.4171 3.2773,1.5527 L 3.2773,1.5527 M 10.5,3.0 C 10.2467,3.0003 10.0336,3.1899 10.0039,3.4414 L 9.1856,10.3926 C 8.853,10.1459 8.4428,10.0 8.0,10.0 C 6.9013,10.0 6.0,10.9013 6.0,12.0 C 6.0,13.0987 6.9013,14.0 8.0,14.0 C 9.0897,14.0 9.9854,13.1118 10.0,12.0254 L 10.2383,10.0 L 10.7617,10.0 L 11.0,12.0254 L 11.0,12.0274 C 11.0146,13.1138 11.9103,14.0001 13.0,14.0001 C 14.0987,14.0001 15.0,13.0987 15.0,12.0001 C 15.0,10.9014 14.0987,10.0001 13.0,10.0001 C 12.5572,10.0001 12.147,10.1459 11.8145,10.3926 L 10.9961,3.4415 C 10.9664,3.1899 10.7533,3.0003 10.5,3.0 M 8.0,11.0 C 8.5582,11.0 9.0,11.4418 9.0,12.0 C 9.0,12.002 9.0,12.004 9.0,12.006 C 8.997,12.5614 8.5562,13.0001 8.0,13.0001 C 7.4418,13.0001 7.0,12.5584 7.0,12.0001 C 7.0,11.4419 7.4418,11.0001 8.0,11.0001 L 8.0,11.0 M 13.0,11.0 C 13.5582,11.0 14.0,11.4418 14.0,12.0 C 14.0,12.5582 13.5582,13.0 13.0,13.0 C 12.4438,13.0 12.0031,12.5613 12.0,12.0059 C 12.0,12.0039 12.0,12.0019 12.0,11.9999 C 12.0,11.4416 12.4418,10.9999 13.0,10.9999 L 13.0,11.0" fill="#000" /></svg>