<svg xmlns="http://www.w3.org/2000/svg" width="16" height="16"><path d="M 3.5137,1.5 C 3.4318,1.498 3.3506,1.5161 3.2773,1.5527 L 1.2773,2.5527 C 1.0305,2.6758 0.93,2.9756 1.0527,3.2226 L 1.5527,4.2226 C 1.6636,4.4457 1.9218,4.5531 2.1582,4.4746 L 3.0,4.1934 L 3.0,7.5 C 3.0,7.7761 3.2239,8.0 3.5,8.0 L 6.5,8.0 C 6.7761,8.0 7.0,7.7761 7.0,7.5 L 7.0,4.1934 L 7.8418,4.4746 C 8.0782,4.5532 8.3364,4.4457 8.4473,4.2227 L 8.9473,3.2227 C 9.07,2.9756 8.9695,2.6759 8.7227,2.5527 L 6.7227,1.5527 C 6.4507,1.4172 6.1217,1.5536 6.0254,1.8418 C 5.8386,2.4021 5.425,2.625 5.0,2.625 C 4.575,2.625 4.1614,2.4021 3.9746,1.8418 C 3.9289,1.7039 3.8256,1.5927 3.6914,1.5371 C 3.6349,1.514 3.5747,1.5014 3.5137,1.5 L 3.5137,1.5 M 10.4941,3.0 C 10.4861,3.0004 10.4772,3.001 10.4687,3.002 C 10.4597,3.0024 10.4504,3.003 10.4414,3.004 C 10.4364,3.0046 10.4324,3.005 10.4277,3.006 C 10.4227,3.007 10.4187,3.009 10.414,3.01 C 10.3586,3.019 10.3051,3.0377 10.2558,3.0647 C 10.2424,3.0727 10.2294,3.081 10.2167,3.0901 C 10.2097,3.0941 10.2023,3.0991 10.1952,3.1038 C 10.1872,3.1108 10.1793,3.1179 10.1718,3.1253 C 10.1638,3.1333 10.1559,3.1407 10.1484,3.1487 C 10.1404,3.1567 10.1325,3.1641 10.125,3.1721 C 10.118,3.1801 10.1104,3.1875 10.1035,3.1955 C 10.0985,3.2025 10.0945,3.2097 10.0898,3.217 C 10.0707,3.244 10.0544,3.2727 10.041,3.3029 C 10.0263,3.3387 10.0158,3.376 10.0098,3.4142 C 10.0088,3.4202 10.0068,3.4272 10.0058,3.4337 C 10.0052,3.4367 10.0048,3.4387 10.0038,3.4417 L 9.1855,10.3929 C 8.853,10.1459 8.4428,10.0 8.0,10.0 C 6.9013,10.0 6.0,10.9013 6.0,12.0 C 6.0,13.0987 6.9013,14.0 8.0,14.0 C 9.0897,14.0 9.9854,13.1138 10.0,12.0273 C 10.0,12.0267 10.0,12.0263 10.0,12.0253 L 10.2383,10.0 L 10.7617,10.0 L 11.0,12.0254 L 11.0,12.0274 C 11.0146,13.1138 11.9103,14.0001 13.0,14.0001 C 14.0987,14.0001 15.0,13.0987 15.0,12.0001 C 15.0,10.9014 14.0987,10.0001 13.0,10.0001 C 12.5572,10.0001 12.147,10.1459 11.8145,10.3926 L 10.9961,3.4415 C 10.9955,3.4385 10.9951,3.4365 10.9941,3.4335 C 10.9861,3.3711 10.966,3.3108 10.9355,3.2557 C 10.924,3.2346 10.9109,3.2144 10.8964,3.1952 C 10.8894,3.1872 10.8823,3.1793 10.8749,3.1718 C 10.8669,3.1638 10.8595,3.1559 10.8515,3.1484 C 10.8435,3.1404 10.8361,3.1325 10.8281,3.125 C 10.8201,3.118 10.8127,3.1104 10.8047,3.1035 C 10.7716,3.0783 10.7356,3.0573 10.6973,3.041 C 10.6573,3.0239 10.6153,3.0121 10.5723,3.0058 C 10.5587,3.0038 10.545,3.0028 10.5313,3.0018 C 10.519,3.0008 10.5066,2.9998 10.4942,2.9998 L 10.4941,3.0 M 8.0,11.0 C 8.5582,11.0 9.0,11.4418 9.0,12.0 C 9.0,12.002 9.0,12.004 9.0,12.006 C 8.997,12.5614 8.5562,13.0001 8.0,13.0001 C 7.4418,13.0001 7.0,12.5584 7.0,12.0001 C 7.0,11.4419 7.4418,11.0001 8.0,11.0001 L 8.0,11.0 M 13.0,11.0 C 13.5582,11.0 14.0,11.4418 14.0,12.0 C 14.0,12.5582 13.5582,13.0 13.0,13.0 C 12.4438,13.0 12.0031,12.5613 12.0,12.0059 C 12.0,12.0039 12.0,12.0019 12.0,11.9999 C 12.0,11.4416 12.4418,10.9999 13.0,10.9999 L 13.0,11.0" fill="#000" /></svg>