<svg xmlns="http://www.w3.org/2000/svg" width="16" height="16"><path d="M 3.0,2.0 L 1.3105,2.9746 L 2.3105,4.707 L 3.0,4.3086 L 3.0,8.0 L 7.0,8.0 L 7.0,4.3086 L 7.6895,4.707 L 8.6895,2.9746 L 7.0,2.0 L 6.0,2.0 A 1.0,1.0 0.0 0,1 5.0,3.0 A 1.0,1.0 0.0 0,1 4.0,2.0 L 3.0,2.0 M 10.5,3.0 C 10.2467,3.0003 10.0336,3.1899 10.0039,3.4414 L 9.1855,10.3926 C 8.853,10.1459 8.4428,10.0 8.0,10.0 C 6.9013,10.0 6.0,10.9013 6.0,12.0 C 6.0,13.0987 6.9013,14.0 8.0,14.0 C 9.0897,14.0 9.9854,13.1138 10.0,12.0273 L 10.0,12.0254 L 10.2383,10.0 L 10.7617,10.0 L 11.0,12.0254 L 11.0,12.0273 C 11.0146,13.1138 11.9103,14.0 13.0,14.0 C 14.0987,14.0 15.0,13.0987 15.0,12.0 C 15.0,10.9013 14.0987,10.0 13.0,10.0 C 12.5572,10.0 12.147,10.1459 11.8145,10.3926 L 10.9961,3.4414 C 10.9664,3.1898 10.7533,3.0003 10.5,3.0 M 8.0,11.0 C 8.5523,11.0 9.0,11.4477 9.0,12.0 C 9.0,12.5523 8.5523,13.0 8.0,13.0 C 7.4477,13.0 7.0,12.5523 7.0,12.0 C 7.0,11.4477 7.4477,11.0 8.0,11.0 M 13.0,11.0 C 13.5523,11.0 14.0,11.4477 14.0,12.0 C 14.0,12.5523 13.5523,13.0 13.0,13.0 C 12.4477,13.0 12.0,12.5523 12.0,12.0 C 12.0,11.4477 12.4477,11.0 13.0,11.0" fill="#000" /></svg>