<svg xmlns="http://www.w3.org/2000/svg" width="16" height="16"><path d="M 1.418,8.0059 C 1.1448,8.0507 0.96,8.309 1.0059,8.582 L 2.0059,14.582 C 2.0507,14.8552 2.309,15.04 2.582,14.9941 C 2.8552,14.9493 3.04,14.691 2.9941,14.418 L 2.9238,14.0 L 4.5762,14.0 L 4.5059,14.418 C 4.46,14.691 4.6448,14.9493 4.918,14.9941 C 5.191,15.0399 5.4493,14.8552 5.4941,14.582 L 5.9941,11.582 C 6.0448,11.277 5.8093,10.9995 5.5,11.0 L 2.4238,11.0 L 1.9941,8.418 C 1.9436,8.1127 1.6567,7.9685 1.418,8.0059 L 1.418,8.0059 M 4.5,8.0 C 4.223,8.0 4.0,8.223 4.0,8.5 C 4.0,8.777 4.223,9.0 4.5,9.0 L 7.0,9.0 L 7.0,14.5 C 7.0,14.777 7.223,15.0 7.5,15.0 C 7.777,15.0 8.0,14.777 8.0,14.5 L 8.0,9.0 L 10.5,9.0 C 10.777,9.0 11.0,8.777 11.0,8.5 C 11.0,8.223 10.777,8.0 10.5,8.0 L 4.5,8.0 M 13.0059,8.418 L 12.5762,11.0 L 9.498,11.0 C 9.1896,11.0007 8.9553,11.2777 9.0059,11.582 L 9.5059,14.582 C 9.5507,14.8543 9.8077,15.0388 10.0801,14.9941 C 10.3533,14.9493 10.538,14.691 10.4922,14.418 L 10.4219,14.0 L 12.0762,14.0 L 12.0059,14.418 C 11.96,14.6904 12.1436,14.9484 12.416,14.9941 C 12.689,15.0399 12.9473,14.8552 12.9922,14.582 L 13.9922,8.582 C 14.038,8.309 13.8533,8.0507 13.5801,8.0059 C 13.344,7.9689 13.0565,8.1124 13.0059,8.418 L 13.0059,8.418" fill="#000" /></svg>