<svg xmlns="http://www.w3.org/2000/svg" width="16" height="16"><path d="M 4.0,8.5 C 4.0,8.2239 4.2239,8.0 4.5,8.0 L 10.5,8.0 C 10.7761,8.0 11.0,8.2239 11.0,8.5 C 11.0,8.7761 10.7761,9.0 10.5,9.0 L 8.0,9.0 L 8.0,14.5 C 8.0,14.7761 7.7761,15.0 7.5,15.0 C 7.2239,15.0 7.0,14.7761 7.0,14.5 L 7.0,9.0 L 4.5,9.0 C 4.2239,9.0 4.0,8.7761 4.0,8.5 M 1.0,8.5 C 1.0,8.2239 1.2239,8.0 1.5,8.0 C 1.751,8.0 1.9588,8.1849 1.9946,8.4259 L 2.4236,11.0 L 5.5,11.0 C 5.7761,11.0 6.0,11.2239 6.0,11.5 C 6.0,11.5312 5.9971,11.5618 5.9917,11.5915 L 5.4946,14.5741 C 5.4588,14.8151 5.251,15.0 5.0,15.0 C 4.7239,15.0 4.5,14.7761 4.5,14.5 C 4.5,14.4688 4.5029,14.4382 4.5084,14.4085 L 4.5774,13.994 C 4.5522,13.998 4.5263,14.0 4.5,14.0 L 2.9236,14.0 L 2.9916,14.4085 C 2.9971,14.4382 3.0,14.4688 3.0,14.5 C 3.0,14.7761 2.7761,15.0 2.5,15.0 C 2.249,15.0 2.0412,14.8151 2.0054,14.5741 L 1.5084,11.5915 C 1.5073,11.5857 1.5063,11.5799 1.5054,11.5741 L 1.0084,8.5915 C 1.0029,8.5618 1.0,8.5312 1.0,8.5 M 13.5,8.0 C 13.7761,8.0 14.0,8.2239 14.0,8.5 C 14.0,8.5312 13.9971,8.5618 13.9916,8.5915 L 13.4946,11.5741 C 13.4937,11.5799 13.4927,11.5857 13.4916,11.5915 L 12.9946,14.5741 C 12.9588,14.8151 12.751,15.0 12.5,15.0 C 12.2239,15.0 12.0,14.7761 12.0,14.5 C 12.0,14.4688 12.0029,14.4382 12.0084,14.4085 L 12.0764,14.0 L 10.5,14.0 C 10.4737,14.0 10.4478,13.998 10.4226,13.994 L 10.4916,14.4085 C 10.4971,14.4382 10.5,14.4688 10.5,14.5 C 10.5,14.7761 10.2761,15.0 10.0,15.0 C 9.749,15.0 9.5412,14.8151 9.5054,14.5741 L 9.0083,11.5915 C 9.0029,11.5618 9.0,11.5312 9.0,11.5 C 9.0,11.2239 9.2239,11.0 9.5,11.0 L 12.5764,11.0 L 13.0054,8.4259 C 13.0412,8.1849 13.249,8.0 13.5,8.0 M 1.5,2.0 C 1.7761,2.0 2.0,2.2239 2.0,2.5 L 2.0,3.5 C 2.0,3.7761 1.7761,4.0 1.5,4.0 C 1.2239,4.0 1.0,3.7761 1.0,3.5 L 1.0,2.5 C 1.0,2.2239 1.2239,2.0 1.5,2.0 M 3.5,2.0 C 3.7761,2.0 4.0,2.2239 4.0,2.5 L 4.0,3.5 C 4.0,3.7761 3.7761,4.0 3.5,4.0 C 3.2239,4.0 3.0,3.7761 3.0,3.5 L 3.0,2.5 C 3.0,2.2239 3.2239,2.0 3.5,2.0 M 5.5,2.0 C 5.7761,2.0 6.0,2.2239 6.0,2.5 L 6.0,3.5 C 6.0,3.7761 5.7761,4.0 5.5,4.0 C 5.2239,4.0 5.0,3.7761 5.0,3.5 L 5.0,2.5 C 5.0,2.2239 5.2239,2.0 5.5,2.0 M 7.5,2.0 C 7.7761,2.0 8.0,2.2239 8.0,2.5 L 8.0,3.5 C 8.0,3.7761 7.7761,4.0 7.5,4.0 C 7.2239,4.0 7.0,3.7761 7.0,3.5 L 7.0,2.5 C 7.0,2.2239 7.2239,2.0 7.5,2.0 M 9.5,2.0 C 9.7761,2.0 10.0,2.2239 10.0,2.5 L 10.0,3.5 C 10.0,3.7761 9.7761,4.0 9.5,4.0 C 9.2239,4.0 9.0,3.7761 9.0,3.5 L 9.0,2.5 C 9.0,2.2239 9.2239,2.0 9.5,2.0 M 11.5,2.0 C 11.7761,2.0 12.0,2.2239 12.0,2.5 L 12.0,3.5 C 12.0,3.7761 11.7761,4.0 11.5,4.0 C 11.2239,4.0 11.0,3.7761 11.0,3.5 L 11.0,2.5 C 11.0,2.2239 11.2239,2.0 11.5,2.0 M 13.5,2.0 C 13.7761,2.0 14.0,2.2239 14.0,2.5 L 14.0,3.5 C 14.0,3.7761 13.7761,4.0 13.5,4.0 C 13.2239,4.0 13.0,3.7761 13.0,3.5 L 13.0,2.5 C 13.0,2.2239 13.2239,2.0 13.5,2.0" fill="#000" /></svg>