<svg xmlns="http://www.w3.org/2000/svg" width="16" height="16"><path d="M 5.0,4.0002 C 4.3238,3.9902 4.3238,5.0097 5.0,5.0002 L 5.8379,5.0002 L 4.9805,8.0002 L 2.5,8.0002 C 1.8238,7.9902 1.8238,9.0097 2.5,9.0002 L 4.6953,9.0002 L 4.0195,11.3635 C 3.7987,12.025 4.82,12.3156 4.9805,11.6369 L 5.7344,9.0 L 11.2656,9.0 L 12.0195,11.6367 C 12.18,12.3154 13.2013,12.0248 12.9805,11.3633 L 12.3047,9.0 L 14.5,9.0 C 15.1762,9.01 15.1762,7.9904 14.5,8.0 L 12.0195,8.0 L 11.1621,5.0 L 12.0,5.0 C 12.6762,5.01 12.6762,3.9904 12.0,4.0 L 5.0,4.0002 M 6.8769,5.0 L 10.123,5.0 L 10.9805,8.0 L 6.0195,8.0 L 6.8769,5.0" fill="#000" /></svg>