<svg xmlns="http://www.w3.org/2000/svg" width="16" height="16"><path d="M 1.5078,7.9922 A 0.5,0.5 0.0 0,0 1.0059,8.582 L 2.0059,14.582 A 0.5009,0.5009 0.0 1,0 2.9941,14.418 L 2.9238,14.0 L 4.5762,14.0 L 4.5059,14.418 A 0.5009,0.5009 0.0 1,0 5.4942,14.582 L 5.9942,11.582 A 0.5,0.5 0.0 0,0 5.5,11.0 L 2.5,11.0 A 0.5,0.5 0.0 0,0 2.4258,11.004 L 1.9942,8.4181 A 0.5,0.5 0.0 0,0 1.5078,7.9923 L 1.5078,7.9922 M 13.4746,7.9942 A 0.5,0.5 0.0 0,0 13.0059,8.418 L 12.5742,11.0059 A 0.5,0.5 0.0 0,0 12.498,11.0 L 9.498,11.0 A 0.5,0.5 0.0 0,0 9.0059,11.582 L 9.5059,14.582 A 0.5,0.5 0.0 1,0 10.4922,14.418 L 10.4219,14.0 L 12.0762,14.0 L 12.0059,14.418 A 0.5,0.5 0.0 1,0 12.9922,14.582 L 13.9922,8.582 A 0.5,0.5 0.0 0,0 13.4746,7.9941 L 13.4746,7.9942 M 4.5,8.0 C 4.223,8.0 4.0,8.223 4.0,8.5 C 4.0,8.777 4.223,9.0 4.5,9.0 L 7.0,9.0 L 7.0,14.5 C 7.0,14.777 7.223,15.0 7.5,15.0 C 7.777,15.0 8.0,14.777 8.0,14.5 L 8.0,9.0 L 10.5,9.0 C 10.777,9.0 11.0,8.777 11.0,8.5 C 11.0,8.223 10.777,8.0 10.5,8.0 L 4.5,8.0" fill="#000" /></svg>