<svg xmlns="http://www.w3.org/2000/svg" width="16" height="16"><path d="M 3.5,3.0 C 3.223,3.0 3.0,3.224 3.0,3.5 L 3.0,4.5 C 3.0,4.776 3.223,4.999 3.499,5.0 L 4.837,5.0 L 3.98,8.0 L 1.5,8.0 C 1.223,8.0 1.0,8.224 1.0,8.5 C 1.0,8.776 1.223,9.0 1.499,9.0 L 3.694,9.0 L 3.022,11.352 C 3.008,11.398 3.0,11.448 3.0,11.5 C 3.0,11.776 3.224,12.0 3.5,12.0 C 3.732,12.0 3.928,11.842 3.984,11.627 L 4.734,9.0 L 10.266,9.0 L 11.016,11.627 C 11.072,11.842 11.268,12.0 11.5,12.0 C 11.776,12.0 12.0,11.776 12.0,11.5 C 12.0,11.448 11.992,11.398 11.978,11.352 L 11.306,9.0 L 13.5,9.0 C 13.777,9.0 14.0,8.776 14.0,8.5 C 14.0,8.224 13.777,8.0 13.501,8.0 L 11.02,8.0 L 10.163,5.0 L 11.5,5.0 C 11.777,4.999 12.0,4.776 12.0,4.5 L 12.0,3.501 C 12.0,3.224 11.777,3.0 11.501,3.0 L 3.5,3.0 M 5.02,8.0 L 5.877,5.0 L 9.123,5.0 L 9.98,8.0 L 5.02,8.0" fill="#000" /></svg>