<svg xmlns="http://www.w3.org/2000/svg" width="16" height="16"><path d="M 1.0,8.5 C 1.0,8.2239 1.2239,8.0 1.5,8.0 L 3.98,8.0 L 4.8371,5.0 L 3.5,5.0 C 3.2239,5.0 3.0,4.7761 3.0,4.5 L 3.0,3.5 C 3.0,3.2239 3.2239,3.0 3.5,3.0 L 11.5,3.0 C 11.7761,3.0 12.0,3.2239 12.0,3.5 L 12.0,4.5 C 12.0,4.7761 11.7761,5.0 11.5,5.0 L 10.1629,5.0 L 11.02,8.0 L 13.5,8.0 C 13.7761,8.0 14.0,8.2239 14.0,8.5 C 14.0,8.7761 13.7761,9.0 13.5,9.0 L 11.3057,9.0 L 11.9776,11.3515 C 11.9921,11.3985 12.0,11.4483 12.0,11.5 C 12.0,11.7761 11.7761,12.0 11.5,12.0 C 11.2676,12.0 11.0723,11.8415 11.0162,11.6267 L 10.2657,9.0 L 4.7343,9.0 L 3.9838,11.6267 C 3.9277,11.8415 3.7324,12.0 3.5,12.0 C 3.2239,12.0 3.0,11.7761 3.0,11.5 C 3.0,11.4483 3.0078,11.3984 3.0224,11.3515 L 3.6943,9.0 L 1.5,9.0 C 1.2239,9.0 1.0,8.7761 1.0,8.5 L 1.0,8.5 M 5.8772,5.0 L 5.02,8.0 L 9.98,8.0 L 9.1229,5.0 L 5.8772,5.0" fill="#000" /></svg>