<svg xmlns="http://www.w3.org/2000/svg" width="16" height="16"><path d="M 7.5,1.0 C 7.441,1.0 7.384,1.01 7.331,1.029 L 1.353,3.022 C 1.149,3.085 1.0,3.275 1.0,3.5 L 1.0,4.5 C 1.0,4.776 1.224,5.0 1.5,5.0 C 1.776,5.0 2.0,4.776 2.0,4.5 L 2.0,4.0 L 13.0,4.0 L 13.0,4.5 C 13.0,4.776 13.224,5.0 13.5,5.0 C 13.776,5.0 14.0,4.776 14.0,4.5 L 14.0,3.501 C 14.0,3.275 13.851,3.085 13.647,3.022 L 7.669,1.029 C 7.616,1.01 7.559,1.0 7.5,1.0 M 1.5,8.0 C 1.224,8.0 1.0,8.224 1.0,8.5 C 1.0,8.531 1.003,8.562 1.008,8.591 L 1.505,11.574 C 1.505,11.574 1.508,11.591 1.508,11.591 L 2.005,14.574 C 2.041,14.815 2.249,15.0 2.5,15.0 C 2.776,15.0 3.0,14.776 3.0,14.5 C 3.0,14.469 2.997,14.438 2.992,14.409 L 2.924,14.0 L 4.5,14.0 C 4.527,14.0 4.553,13.998 4.577,13.994 L 4.508,14.408 C 4.503,14.438 4.5,14.469 4.5,14.5 C 4.5,14.776 4.724,15.0 5.0,15.0 C 5.251,15.0 5.459,14.815 5.495,14.574 L 5.992,11.592 C 5.997,11.562 6.0,11.531 6.0,11.5 C 6.0,11.224 5.777,11.0 5.501,11.0 L 2.424,11.0 L 1.995,8.426 C 1.959,8.185 1.751,8.0 1.5,8.0 M 4.5,8.0 C 4.223,8.0 4.0,8.224 4.0,8.5 C 4.0,8.776 4.223,9.0 4.499,9.0 L 7.0,9.0 L 7.0,14.5 C 7.0,14.776 7.224,15.0 7.5,15.0 C 7.776,15.0 8.0,14.776 8.0,14.5 L 8.0,9.0 L 10.5,9.0 C 10.777,9.0 11.0,8.776 11.0,8.5 C 11.0,8.224 10.777,8.0 10.501,8.0 L 7.5,8.0 L 4.5,8.0 M 13.5,8.0 C 13.249,8.0 13.041,8.185 13.005,8.426 L 12.576,11.0 L 9.5,11.0 C 9.223,11.0 9.0,11.224 9.0,11.5 C 9.0,11.531 9.003,11.562 9.008,11.591 L 9.505,14.574 C 9.541,14.815 9.749,15.0 10.0,15.0 C 10.276,15.0 10.5,14.776 10.5,14.5 C 10.5,14.469 10.497,14.438 10.492,14.409 L 10.423,13.994 C 10.447,13.998 10.473,14.0 10.499,14.0 L 12.076,14.0 L 12.008,14.408 C 12.003,14.438 12.0,14.469 12.0,14.5 C 12.0,14.776 12.224,15.0 12.5,15.0 C 12.751,15.0 12.959,14.815 12.995,14.574 L 13.492,11.592 C 13.492,11.592 13.495,11.574 13.495,11.574 L 13.992,8.592 C 13.997,8.562 14.0,8.531 14.0,8.5 C 14.0,8.224 13.776,8.0 13.5,8.0" fill="#000" /></svg>