<svg xmlns="http://www.w3.org/2000/svg" width="16" height="16"><path d="M 1.5,2.0 C 1.224,2.0 1.0,2.224 1.0,2.5 L 1.0,3.5 C 1.0,3.776 1.224,4.0 1.5,4.0 C 1.776,4.0 2.0,3.776 2.0,3.5 L 2.0,2.501 C 2.0,2.224 1.776,2.0 1.5,2.0 M 3.5,2.0 C 3.224,2.0 3.0,2.224 3.0,2.5 L 3.0,3.5 C 3.0,3.776 3.224,4.0 3.5,4.0 C 3.776,4.0 4.0,3.776 4.0,3.5 L 4.0,2.501 C 4.0,2.224 3.776,2.0 3.5,2.0 M 5.5,2.0 C 5.224,2.0 5.0,2.224 5.0,2.5 L 5.0,3.5 C 5.0,3.776 5.224,4.0 5.5,4.0 C 5.776,4.0 6.0,3.776 6.0,3.5 L 6.0,2.501 C 6.0,2.224 5.776,2.0 5.5,2.0 M 7.5,2.0 C 7.224,2.0 7.0,2.224 7.0,2.5 L 7.0,3.5 C 7.0,3.776 7.224,4.0 7.5,4.0 C 7.776,4.0 8.0,3.776 8.0,3.5 L 8.0,2.501 C 8.0,2.224 7.776,2.0 7.5,2.0 M 9.5,2.0 C 9.224,2.0 9.0,2.224 9.0,2.5 L 9.0,3.5 C 9.0,3.776 9.224,4.0 9.5,4.0 C 9.776,4.0 10.0,3.776 10.0,3.5 L 10.0,2.501 C 10.0,2.224 9.776,2.0 9.5,2.0 M 11.5,2.0 C 11.224,2.0 11.0,2.224 11.0,2.5 L 11.0,3.5 C 11.0,3.776 11.224,4.0 11.5,4.0 C 11.776,4.0 12.0,3.776 12.0,3.5 L 12.0,2.501 C 12.0,2.224 11.776,2.0 11.5,2.0 M 13.5,2.0 C 13.224,2.0 13.0,2.224 13.0,2.5 L 13.0,3.5 C 13.0,3.776 13.224,4.0 13.5,4.0 C 13.776,4.0 14.0,3.776 14.0,3.5 L 14.0,2.501 C 14.0,2.224 13.776,2.0 13.5,2.0 M 1.5,8.0 C 1.224,8.0 1.0,8.224 1.0,8.5 C 1.0,8.531 1.003,8.562 1.008,8.591 L 1.505,11.574 C 1.505,11.574 1.508,11.591 1.508,11.591 L 2.005,14.574 C 2.041,14.815 2.249,15.0 2.5,15.0 C 2.776,15.0 3.0,14.776 3.0,14.5 C 3.0,14.469 2.997,14.438 2.992,14.409 L 2.924,14.0 L 4.5,14.0 C 4.527,14.0 4.553,13.998 4.577,13.994 L 4.508,14.408 C 4.503,14.438 4.5,14.469 4.5,14.5 C 4.5,14.776 4.724,15.0 5.0,15.0 C 5.251,15.0 5.459,14.815 5.495,14.574 L 5.992,11.592 C 5.997,11.562 6.0,11.531 6.0,11.5 C 6.0,11.224 5.777,11.0 5.501,11.0 L 2.424,11.0 L 1.995,8.426 C 1.959,8.185 1.751,8.0 1.5,8.0 M 4.5,8.0 C 4.223,8.0 4.0,8.224 4.0,8.5 C 4.0,8.776 4.223,9.0 4.499,9.0 L 7.0,9.0 L 7.0,14.5 C 7.0,14.776 7.224,15.0 7.5,15.0 C 7.776,15.0 8.0,14.776 8.0,14.5 L 8.0,9.0 L 10.5,9.0 C 10.777,9.0 11.0,8.776 11.0,8.5 C 11.0,8.224 10.777,8.0 10.501,8.0 L 7.5,8.0 L 4.5,8.0 M 13.5,8.0 C 13.249,8.0 13.041,8.185 13.005,8.426 L 12.576,11.0 L 9.5,11.0 C 9.223,11.0 9.0,11.224 9.0,11.5 C 9.0,11.531 9.003,11.562 9.008,11.591 L 9.505,14.574 C 9.541,14.815 9.749,15.0 10.0,15.0 C 10.276,15.0 10.5,14.776 10.5,14.5 C 10.5,14.469 10.497,14.438 10.492,14.409 L 10.423,13.994 C 10.447,13.998 10.473,14.0 10.499,14.0 L 12.076,14.0 L 12.008,14.408 C 12.003,14.438 12.0,14.469 12.0,14.5 C 12.0,14.776 12.224,15.0 12.5,15.0 C 12.751,15.0 12.959,14.815 12.995,14.574 L 13.492,11.592 C 13.492,11.592 13.495,11.574 13.495,11.574 L 13.992,8.592 C 13.997,8.562 14.0,8.531 14.0,8.5 C 14.0,8.224 13.776,8.0 13.5,8.0" fill="#000" /></svg>