<svg xmlns="http://www.w3.org/2000/svg" width="16" height="16"><path d="M 4.0,4.0002 C 3.3238,3.9902 3.3238,5.0097 4.0,5.0002 L 4.8379,5.0002 L 3.9805,8.0002 L 1.5,8.0002 C 0.8238,7.9902 0.8238,9.0097 1.5,9.0002 L 3.6953,9.0002 L 3.0195,11.3635 C 2.7987,12.025 3.82,12.3156 3.9805,11.6369 L 4.7344,9.0 L 10.2656,9.0 L 11.0195,11.6367 C 11.18,12.3154 12.2013,12.0248 11.9805,11.3633 L 11.3047,9.0 L 13.5,9.0 C 14.1762,9.01 14.1762,7.9904 13.5,8.0 L 11.0195,8.0 L 10.1621,5.0 L 11.0,5.0 C 11.6762,5.01 11.6762,3.9904 11.0,4.0 L 4.0,4.0002 M 5.8769,5.0 L 9.123,5.0 L 9.9805,8.0 L 5.0195,8.0 L 5.8769,5.0" fill="#000" /></svg>