<svg xmlns="http://www.w3.org/2000/svg" width="16" height="16"><path d="M 2.5,3.0 C 2.245,3.0 2.035,3.191 2.004,3.437 L 1.006,10.421 C 1.002,10.447 1.0,10.473 1.0,10.5 C 1.0,10.776 1.223,11.0 1.499,11.0 L 7.0,11.0 L 7.0,13.0 L 5.5,13.0 C 5.223,13.0 5.0,13.224 5.0,13.5 C 5.0,13.776 5.223,14.0 5.499,14.0 L 10.5,14.0 C 10.777,14.0 11.0,13.776 11.0,13.5 C 11.0,13.224 10.777,13.0 10.501,13.0 L 9.0,13.0 L 9.0,11.0 L 14.5,11.0 C 14.777,11.0 15.0,10.776 15.0,10.5 C 15.0,10.473 14.998,10.447 14.994,10.421 L 13.996,3.437 C 13.965,3.191 13.755,3.0 13.501,3.0 L 2.5,3.0 M 3.0,4.5 C 3.0,4.224 3.224,4.0 3.5,4.0 C 3.776,4.0 4.0,4.224 4.0,4.5 C 4.0,4.776 3.776,5.0 3.5,5.0 C 3.224,5.0 3.0,4.776 3.0,4.5 M 5.0,4.5 C 5.0,4.224 5.224,4.0 5.5,4.0 C 5.776,4.0 6.0,4.224 6.0,4.5 C 6.0,4.776 5.776,5.0 5.5,5.0 C 5.224,5.0 5.0,4.776 5.0,4.5 M 12.217,4.088 C 12.297,4.032 12.395,4.0 12.5,4.0 C 12.776,4.0 13.0,4.224 13.0,4.5 C 13.0,4.676 12.909,4.831 12.771,4.92 L 10.277,6.583 L 12.749,8.067 C 12.899,8.153 13.0,8.315 13.0,8.5 C 13.0,8.776 12.776,9.0 12.5,9.0 C 12.403,9.0 12.312,8.972 12.236,8.925 L 9.356,7.197 L 6.783,8.912 C 6.703,8.968 6.605,9.0 6.5,9.0 C 6.224,9.0 6.0,8.776 6.0,8.5 C 6.0,8.324 6.091,8.169 6.229,8.08 L 8.407,6.628 L 7.251,5.933 C 7.101,5.847 7.0,5.685 7.0,5.5 C 7.0,5.224 7.224,5.0 7.5,5.0 C 7.597,5.0 7.688,5.028 7.764,5.075 L 9.328,6.014 L 12.217,4.088 M 2.5,8.5 C 2.5,8.224 2.724,8.0 3.0,8.0 C 3.276,8.0 3.5,8.224 3.5,8.5 C 3.5,8.776 3.276,9.0 3.0,9.0 C 2.724,9.0 2.5,8.776 2.5,8.5" fill="#000" /></svg>