<svg xmlns="http://www.w3.org/2000/svg" width="16" height="16"><path d="M 3.4844,7.0 C 3.216,7.0 3.0,7.223 3.0,7.5 L 3.0,8.0 L 1.5,8.0 C 1.2239,8.0 1.0,8.2239 1.0,8.5 C 1.0,8.7761 1.2239,9.0 1.5,9.0 L 13.5,9.0 C 13.7761,9.0 14.0,8.7761 14.0,8.5 C 14.0,8.2239 13.7761,8.0 13.5,8.0 L 12.0,8.0 L 12.0,7.5 C 12.0,7.223 11.784,7.0 11.5156,7.0 L 11.4844,7.0 C 11.216,7.0 11.0,7.223 11.0,7.5 L 11.0,8.0 L 10.0,8.0 L 10.0,7.5 C 10.0,7.223 9.784,7.0 9.5156,7.0 L 9.4844,7.0 C 9.216,7.0 9.0,7.223 9.0,7.5 L 9.0,8.0 L 8.0,8.0 L 8.0,7.5 C 8.0,7.223 7.784,7.0 7.5156,7.0 L 7.4844,7.0 C 7.216,7.0 7.0,7.223 7.0,7.5 L 7.0,8.0 L 6.0,8.0 L 6.0,7.5 C 6.0,7.223 5.784,7.0 5.5156,7.0 L 5.4844,7.0 C 5.216,7.0 5.0,7.223 5.0,7.5 L 5.0,8.0 L 4.0,8.0 L 4.0,7.5 C 4.0,7.223 3.784,7.0 3.5156,7.0 L 3.4844,7.0 L 3.4844,7.0" fill="#000" /></svg>