<svg xmlns="http://www.w3.org/2000/svg" width="16" height="16"><path d="M 3.5,5.0 C 3.2953,4.9998 3.1111,5.1244 3.0352,5.3144 L 1.0352,10.3144 C 0.9039,10.6431 1.1461,11.0003 1.5,11.0 L 14.5,11.0 C 14.8539,11.0003 15.0961,10.6431 14.9648,10.3144 L 12.9648,5.3144 C 12.8889,5.1244 12.7047,4.9998 12.5,5.0 L 3.5,5.0 M 5.5,6.0 L 6.5,6.0 C 6.777,6.0 7.0,6.223 7.0,6.5 L 7.0,7.5 C 7.0,7.777 6.777,8.0 6.5,8.0 L 5.5,8.0 C 5.223,8.0 5.0,7.777 5.0,7.5 L 5.0,6.5 C 5.0,6.223 5.223,6.0 5.5,6.0 M 9.5,6.0 L 10.5,6.0 C 10.777,6.0 11.0,6.223 11.0,6.5 L 11.0,7.5 C 11.0,7.777 10.777,8.0 10.5,8.0 L 9.5,8.0 C 9.223,8.0 9.0,7.777 9.0,7.5 L 9.0,6.5 C 9.0,6.223 9.223,6.0 9.5,6.0 M 3.5,8.0 L 4.5,8.0 C 4.777,8.0 5.0,8.223 5.0,8.5 L 5.0,9.5 C 5.0,9.777 4.777,10.0 4.5,10.0 L 3.5,10.0 C 3.223,10.0 3.0,9.777 3.0,9.5 L 3.0,8.5 C 3.0,8.223 3.223,8.0 3.5,8.0 M 7.5,8.0 L 8.5,8.0 C 8.777,8.0 9.0,8.223 9.0,8.5 L 9.0,9.5 C 9.0,9.777 8.777,10.0 8.5,10.0 L 7.5,10.0 C 7.223,10.0 7.0,9.777 7.0,9.5 L 7.0,8.5 C 7.0,8.223 7.223,8.0 7.5,8.0 M 11.5,8.0 L 12.5,8.0 C 12.777,8.0 13.0,8.223 13.0,8.5 L 13.0,9.5 C 13.0,9.777 12.777,10.0 12.5,10.0 L 11.5,10.0 C 11.223,10.0 11.0,9.777 11.0,9.5 L 11.0,8.5 C 11.0,8.223 11.223,8.0 11.5,8.0" fill="#000" /></svg>