<svg xmlns="http://www.w3.org/2000/svg" width="16" height="16"><path d="M 12.4297,2.006 L 6.2969,2.8829 L 7.1777,3.7638 L 11.9121,3.088 L 11.2363,7.8224 L 12.1172,8.7033 L 12.9941,2.5704 C 13.0465,2.2029 12.7128,1.9611 12.4297,2.006 M 4.6113,2.6113 C 2.464,4.7591 2.464,8.2409 4.6113,10.3887 C 6.7591,12.536 10.2409,12.536 12.3887,10.3887 L 4.6113,2.6113 M 4.0,11.1816 L 4.0,14.0 L 3.5,14.0 C 3.223,14.0 3.0,14.2091 3.0,14.4688 L 3.0,14.5312 C 3.0,14.7909 3.223,15.0 3.5,15.0 L 9.5,15.0 C 9.777,15.0 10.0,14.7909 10.0,14.5312 L 10.0,14.4688 C 10.0,14.2091 9.777,14.0 9.5,14.0 L 9.0,14.0 L 9.0,12.9688 C 7.2123,13.1053 5.3819,12.51 4.0,11.1816" fill="#000" /></svg>