<svg xmlns="http://www.w3.org/2000/svg" width="16" height="16"><path d="M 8.0,2.0 C 5.25,2.0 2.0,3.0 2.0,5.0 L 5.0,5.0 C 5.0,3.0 11.0,3.0 11.0,5.0 L 14.0,5.0 C 14.0,3.0 10.75,2.0 8.0,2.0 M 6.0625,5.6875 L 5.1875,8.2812 L 3.5625,9.0938 C 3.2253,9.2578 2.9974,9.625 3.0,10.0 L 3.0,13.0 C 3.0,13.5236 3.4764,14.0 4.0,14.0 L 12.0,14.0 C 12.5236,14.0 13.0,13.5236 13.0,13.0 L 13.0,10.0 C 13.003,9.625 12.7747,9.2578 12.4375,9.0938 L 10.8125,8.2812 L 9.9375,5.6875 C 9.8083,5.2947 9.4135,5.0052 9.0,5.0 L 7.0,5.0 C 6.6431,4.9886 6.2052,5.2447 6.0625,5.6875 M 2.0,6.0 C 2.0,6.554 2.446,7.0 3.0,7.0 L 4.0,7.0 C 4.554,7.0 5.0,6.554 5.0,6.0 L 2.0,6.0 M 11.0,6.0 C 11.0,6.554 11.446,7.0 12.0,7.0 L 13.0,7.0 C 13.554,7.0 14.0,6.554 14.0,6.0 L 11.0,6.0 M 8.0,8.0 C 9.1046,8.0 10.0,8.8954 10.0,10.0 C 10.0,11.1046 9.1046,12.0 8.0,12.0 C 6.8954,12.0 6.0,11.1046 6.0,10.0 C 6.0,8.8954 6.8954,8.0 8.0,8.0" fill="#000" /></svg>