<svg xmlns="http://www.w3.org/2000/svg" width="16" height="16"><path d="M 5.5,1.0 C 5.223,1.0 5.0,1.223 5.0,1.5 L 5.0,8.5 C 5.0,8.777 5.223,9.0 5.5,9.0 L 10.5,9.0 C 10.777,9.0 11.0,8.777 11.0,8.5 L 11.0,1.5 C 11.0,1.223 10.777,1.0 10.5,1.0 L 5.5,1.0 M 7.5,10.0 C 7.3242,9.9996 7.161,10.0915 7.0703,10.2422 C 7.0703,10.2422 6.0,12.0 5.5938,13.0605 C 5.5409,13.1986 5.5,13.3125 5.5,13.5 C 5.5002,13.6896 5.6076,13.8628 5.7773,13.9473 C 6.3966,14.2569 7.1944,14.375 8.0,14.375 C 8.8056,14.375 9.6034,14.2569 10.2227,13.9473 C 10.3924,13.8628 10.4998,13.6896 10.5,13.5 C 10.5,13.3125 10.4592,13.1986 10.4063,13.0605 C 10.0,12.0 8.9297,10.2422 8.9297,10.2422 C 8.8391,10.0915 8.6759,9.9995 8.5,10.0 L 7.5,10.0" fill="#000" /></svg>