<svg xmlns="http://www.w3.org/2000/svg" width="16" height="16"><path d="M 4.5,2.0 C 4.223,2.0 4.0,2.223 4.0,2.5 L 4.0,5.0 L 5.5,5.0 C 5.777,5.0 6.0,5.223 6.0,5.5 C 6.0,5.777 5.777,6.0 5.5,6.0 L 4.0,6.0 L 4.0,13.5 C 4.0,13.777 4.223,14.0 4.5,14.0 L 6.0,14.0 C 6.0,12.8954 6.8954,12.0 8.0,12.0 C 9.1046,12.0 10.0,12.8954 10.0,14.0 L 11.5,14.0 C 11.777,14.0 12.0,13.777 12.0,13.5 L 12.0,6.0 L 10.5,6.0 C 10.223,6.0 10.0,5.777 10.0,5.5 C 10.0,5.223 10.223,5.0 10.5,5.0 L 12.0,5.0 L 12.0,2.5 C 12.0,2.223 11.777,2.0 11.5,2.0 L 10.0,2.0 C 10.0,3.1046 9.1046,4.0 8.0,4.0 C 6.8954,4.0 6.0,3.1046 6.0,2.0 L 4.5,2.0 M 7.5,5.0 L 8.5,5.0 C 8.777,5.0 9.0,5.223 9.0,5.5 C 9.0,5.777 8.777,6.0 8.5,6.0 L 7.5,6.0 C 7.223,6.0 7.0,5.777 7.0,5.5 C 7.0,5.223 7.223,5.0 7.5,5.0" fill="#000" /></svg>