<svg xmlns="http://www.w3.org/2000/svg" width="16" height="16"><path d="M 3.5,1.0 C 3.2239,1.0 3.0,1.2239 3.0,1.5 L 3.0,7.5 C 3.0,7.5987 3.0292,7.6952 3.084,7.7773 L 4.9492,10.5742 L 4.0254,13.3418 C 3.9174,13.6657 4.1586,14.0002 4.5,14.0 L 10.5,14.0 C 10.8414,14.0002 11.0826,13.6657 10.9746,13.3418 L 10.1934,11.0 L 10.5,11.0 C 11.4167,11.0 12.2749,10.5571 12.916,9.916 C 13.5571,9.2749 14.0,8.4167 14.0,7.5 C 14.0,7.2239 13.7761,7.0 13.5,7.0 L 7.0,7.0 L 7.0,6.0 L 13.5,6.0 C 13.7761,6.0 14.0,5.7761 14.0,5.5 C 14.0,5.2239 13.7761,5.0 13.5,5.0 L 7.0,5.0 L 7.0,1.5 C 7.0,1.2239 6.7761,1.0 6.5,1.0 L 3.5,1.0" fill="#000" /></svg>