<svg xmlns="http://www.w3.org/2000/svg" width="16" height="16"><path d="M 1.4492,2.0 C 1.1999,2.0 1.0,2.223 1.0,2.5 C 1.0,2.777 1.1999,3.0 1.4492,3.0 L 2.0,3.0 L 2.0,12.0 L 1.5,12.0 C 1.223,12.0 1.0,12.223 1.0,12.5 C 1.0,12.777 1.223,13.0 1.5,13.0 L 13.5,13.0 C 13.777,13.0 14.0,12.777 14.0,12.5 C 14.0,12.223 13.777,12.0 13.5,12.0 L 10.0,12.0 L 10.0,7.8086 L 13.7227,5.9473 A 0.5,0.5 0.0 0,0 13.9473,5.2773 A 0.5,0.5 0.0 0,0 13.2773,5.0527 L 9.2773,7.0527 A 0.5,0.5 0.0 0,0 9.0,7.5 L 9.0,12.0 L 8.0,12.0 L 8.0,3.0 L 8.5,3.0 C 8.7493,3.0 8.9492,2.777 8.9492,2.5 C 8.9492,2.223 8.7493,2.0 8.5,2.0 L 1.4492,2.0 M 4.0,4.0 L 6.0,4.0 C 6.554,4.0 7.0,4.446 7.0,5.0 L 7.0,7.0 C 7.0,7.554 6.554,8.0 6.0,8.0 L 4.0,8.0 C 3.446,8.0 3.0,7.554 3.0,7.0 L 3.0,5.0 C 3.0,4.446 3.446,4.0 4.0,4.0" fill="#000" /></svg>