<svg xmlns="http://www.w3.org/2000/svg" width="16" height="16"><path d="M 1.5,2.0 C 1.223,2.0 1.0,2.2065 1.0,2.4629 L 1.0,2.5371 C 1.0,2.7935 1.223,3.0 1.5,3.0 L 2.0,3.0 L 2.0,12.0 L 1.5,12.0 C 1.223,12.0 1.0,12.2065 1.0,12.4629 L 1.0,12.5371 C 1.0,12.7934 1.223,13.0 1.5,13.0 L 13.5,13.0 C 13.777,13.0 14.0,12.7934 14.0,12.5371 L 14.0,12.4629 C 14.0,12.2065 13.777,12.0 13.5,12.0 L 10.0,12.0 L 10.0,7.8086 L 13.7227,5.9473 A 0.5,0.5 0.0 0,0 13.502,4.9961 A 0.5,0.5 0.0 0,0 13.2773,5.0527 L 9.3106,7.0351 C 9.3026,7.0381 9.2953,7.0431 9.2872,7.0468 L 9.2772,7.0528 A 0.5,0.5 0.0 0,0 9.1619,7.1251 C 9.1539,7.1321 9.1462,7.139 9.1385,7.1466 A 0.5,0.5 0.0 0,0 9.0,7.6387 L 9.0,12.0 L 8.0,12.0 L 8.0,3.0 L 8.4492,3.0 C 8.7262,3.0 8.9492,2.7935 8.9492,2.5371 L 8.9492,2.4629 C 8.9492,2.2065 8.7262,2.0 8.4492,2.0 L 1.5,2.0 L 1.5,2.0 M 4.0,4.0 L 6.0,4.0 C 6.554,4.0 7.0,4.446 7.0,5.0 L 7.0,7.0 C 7.0,7.554 6.554,8.0 6.0,8.0 L 4.0,8.0 C 3.446,8.0 3.0,7.554 3.0,7.0 L 3.0,5.0 C 3.0,4.446 3.446,4.0 4.0,4.0" fill="#000" /></svg>