<svg xmlns="http://www.w3.org/2000/svg" width="16" height="16"><path d="M 5.0,3.0 C 4.5833,3.0 4.1158,3.1772 3.709,3.584 C 3.3022,3.9908 3.0,4.6389 3.0,5.5 C 3.0,6.5833 3.3027,7.2227 3.5527,7.7227 C 3.8027,8.2227 4.0,8.5833 4.0,9.5 C 4.0,11.0 3.9697,12.6767 5.1465,13.8535 C 5.429,14.1357 5.912,13.9892 5.9902,13.5977 C 6.2402,12.3477 6.4933,11.1144 6.8398,10.248 C 7.0131,9.8149 7.2109,9.4785 7.4062,9.2773 C 7.6016,9.0762 7.7639,9.0 8.0,9.0 C 8.2361,9.0 8.3984,9.0762 8.5938,9.2773 C 8.7891,9.4785 8.9869,9.8149 9.1602,10.248 C 9.5067,11.1144 9.7598,12.3477 10.0098,13.5977 C 10.088,13.9892 10.571,14.1357 10.8535,13.8535 C 12.0303,12.6767 12.0,11.0 12.0,9.5 C 12.0,8.5833 12.1973,8.2227 12.4473,7.7227 C 12.6973,7.2227 13.0,6.5833 13.0,5.5 C 13.0,4.6389 12.6978,3.9908 12.291,3.584 C 11.8842,3.1772 11.4167,3.0 11.0,3.0 C 10.1389,3.0 9.5977,3.334 9.2227,3.584 C 8.8477,3.834 8.6389,4.0 8.0,4.0 C 7.3611,4.0 7.1523,3.834 6.7773,3.584 C 6.4023,3.334 5.8611,3.0 5.0,3.0" fill="#000" /></svg>