<svg xmlns="http://www.w3.org/2000/svg" width="16" height="16"><path d="M 5.0,2.0 C 4.5833,2.0 4.1158,2.1772 3.709,2.584 C 3.3022,2.9908 3.0,3.6389 3.0,4.5 C 3.0,5.5833 3.3027,6.2227 3.5527,6.7227 C 3.8027,7.2227 4.0,7.5833 4.0,8.5 C 4.0,10.0 3.9697,11.6767 5.1465,12.8535 C 5.429,13.1357 5.912,12.9892 5.9902,12.5977 C 6.2402,11.3477 6.4933,10.1144 6.8398,9.248 C 7.0131,8.8149 7.2109,8.4785 7.4062,8.2773 C 7.6016,8.0762 7.7639,8.0 8.0,8.0 C 8.2361,8.0 8.3984,8.0762 8.5938,8.2773 C 8.7891,8.4785 8.9869,8.8149 9.1602,9.248 C 9.5067,10.1144 9.7598,11.3477 10.0098,12.5977 C 10.088,12.9892 10.571,13.1357 10.8535,12.8535 C 12.0303,11.6767 12.0,10.0 12.0,8.5 C 12.0,7.5833 12.1973,7.2227 12.4473,6.7227 C 12.6973,6.2227 13.0,5.5833 13.0,4.5 C 13.0,3.6389 12.6978,2.9908 12.291,2.584 C 11.8842,2.1772 11.4167,2.0 11.0,2.0 C 10.1389,2.0 9.5977,2.334 9.2227,2.584 C 8.8477,2.834 8.6389,3.0 8.0,3.0 C 7.3611,3.0 7.1523,2.834 6.7773,2.584 C 6.4023,2.334 5.8611,2.0 5.0,2.0" fill="#000" /></svg>