<svg xmlns="http://www.w3.org/2000/svg" width="16" height="16"><path d="M 7.5,1.0 C 7.3212,0.9998 7.1558,1.0951 7.0664,1.25 L 6.2012,2.75 C 5.8389,3.3775 5.9801,4.1827 6.5352,4.6484 C 7.0903,5.1142 7.9098,5.1142 8.4648,4.6484 C 9.0199,4.1827 9.1611,3.3775 8.7988,2.75 L 7.9336,1.25 C 7.8442,1.0951 7.6788,0.9998 7.5,1.0 M 5.0,6.0 C 4.7239,6.0 4.5,6.2239 4.5,6.5 C 4.5,6.7761 4.7239,7.0 5.0,7.0 L 5.293,7.0 C 5.6401,7.0 5.9802,7.3927 6.0293,7.7363 L 7.0059,14.5703 C 7.0935,15.1348 7.9066,15.1348 7.9941,14.5703 L 8.9707,7.7363 C 9.0198,7.3927 9.3599,7.0 9.707,7.0 L 10.0,7.0 C 10.2761,7.0 10.5,6.7761 10.5,6.5 C 10.5,6.2239 10.2761,6.0 10.0,6.0 L 9.5,6.0 L 5.5,6.0 L 5.0,6.0" fill="#000" /></svg>