<svg xmlns="http://www.w3.org/2000/svg" width="16" height="16"><path d="M 2.5,4.0 C 2.223,4.001 2.0,4.224 2.0,4.5 L 2.0,5.5 C 2.0,5.776 2.223,5.999 2.499,6.0 L 3.5,6.0 C 3.777,5.999 4.0,5.776 4.0,5.5 L 4.0,4.501 C 4.0,4.224 3.777,4.001 3.501,4.0 L 2.5,4.0 M 5.5,4.0 C 5.223,4.001 5.0,4.224 5.0,4.5 L 5.0,5.5 C 5.0,5.776 5.223,5.999 5.499,6.0 L 6.5,6.0 C 6.777,5.999 7.0,5.776 7.0,5.5 L 7.0,4.501 C 7.0,4.224 6.777,4.001 6.501,4.0 L 5.5,4.0 M 8.5,4.0 C 8.223,4.001 8.0,4.224 8.0,4.5 L 8.0,5.5 C 8.0,5.776 8.223,5.999 8.499,6.0 L 9.5,6.0 C 9.777,5.999 10.0,5.776 10.0,5.5 L 10.0,4.501 C 10.0,4.224 9.777,4.001 9.501,4.0 L 8.5,4.0 M 11.5,4.0 C 11.223,4.001 11.0,4.224 11.0,4.5 L 11.0,5.5 C 11.0,5.776 11.223,5.999 11.499,6.0 L 12.5,6.0 C 12.777,5.999 13.0,5.776 13.0,5.5 L 13.0,4.501 C 13.0,4.224 12.777,4.001 12.501,4.0 L 11.5,4.0 M 2.5,10.0 C 2.223,10.0 2.0,10.224 2.0,10.5 L 2.0,11.5 C 2.0,11.776 2.223,12.0 2.499,12.0 L 3.5,12.0 C 3.777,12.0 4.0,11.776 4.0,11.5 L 4.0,10.501 C 4.0,10.224 3.777,10.0 3.501,10.0 L 2.5,10.0 M 5.5,10.0 C 5.223,10.0 5.0,10.224 5.0,10.5 L 5.0,11.5 C 5.0,11.776 5.223,12.0 5.499,12.0 L 6.5,12.0 C 6.777,12.0 7.0,11.776 7.0,11.5 L 7.0,10.501 C 7.0,10.224 6.777,10.0 6.501,10.0 L 5.5,10.0 M 8.5,10.0 C 8.223,10.0 8.0,10.224 8.0,10.5 L 8.0,11.5 C 8.0,11.776 8.223,12.0 8.499,12.0 L 9.5,12.0 C 9.777,12.0 10.0,11.776 10.0,11.5 L 10.0,10.501 C 10.0,10.224 9.777,10.0 9.501,10.0 L 8.5,10.0 M 11.5,10.0 C 11.223,10.0 11.0,10.224 11.0,10.5 L 11.0,11.5 C 11.0,11.776 11.223,12.0 11.499,12.0 L 12.5,12.0 C 12.777,12.0 13.0,11.776 13.0,11.5 L 13.0,10.501 C 13.0,10.224 12.777,10.0 12.501,10.0 L 11.5,10.0" fill="#000" /></svg>