<svg xmlns="http://www.w3.org/2000/svg" width="16" height="16"><path d="M 4.0,4.5 L 4.0,5.5 C 4.0,5.7761 3.7761,6.0 3.5,6.0 L 2.5,6.0 C 2.2239,6.0 2.0,5.7761 2.0,5.5 L 2.0,4.5 C 2.0,4.2239 2.2239,4.0 2.5,4.0 L 3.5,4.0 C 3.7761,4.0 4.0,4.2239 4.0,4.5 M 7.0,4.5 L 7.0,5.5 C 7.0,5.7761 6.7761,6.0 6.5,6.0 L 5.5,6.0 C 5.2239,6.0 5.0,5.7761 5.0,5.5 L 5.0,4.5 C 5.0,4.2239 5.2239,4.0 5.5,4.0 L 6.5,4.0 C 6.7761,4.0 7.0,4.2239 7.0,4.5 M 10.0,4.5 L 10.0,5.5 C 10.0,5.7761 9.7761,6.0 9.5,6.0 L 8.5,6.0 C 8.2239,6.0 8.0,5.7761 8.0,5.5 L 8.0,4.5 C 8.0,4.2239 8.2239,4.0 8.5,4.0 L 9.5,4.0 C 9.7761,4.0 10.0,4.2239 10.0,4.5 M 13.0,4.5 L 13.0,5.5 C 13.0,5.7761 12.7761,6.0 12.5,6.0 L 11.5,6.0 C 11.2239,6.0 11.0,5.7761 11.0,5.5 L 11.0,4.5 C 11.0,4.2239 11.2239,4.0 11.5,4.0 L 12.5,4.0 C 12.7761,4.0 13.0,4.2239 13.0,4.5 M 4.0,10.5 L 4.0,11.5 C 4.0,11.7761 3.7761,12.0 3.5,12.0 L 2.5,12.0 C 2.2239,12.0 2.0,11.7761 2.0,11.5 L 2.0,10.5 C 2.0,10.2239 2.2239,10.0 2.5,10.0 L 3.5,10.0 C 3.7761,10.0 4.0,10.2239 4.0,10.5 M 7.0,10.5 L 7.0,11.5 C 7.0,11.7761 6.7761,12.0 6.5,12.0 L 5.5,12.0 C 5.2239,12.0 5.0,11.7761 5.0,11.5 L 5.0,10.5 C 5.0,10.2239 5.2239,10.0 5.5,10.0 L 6.5,10.0 C 6.7761,10.0 7.0,10.2239 7.0,10.5 M 10.0,10.5 L 10.0,11.5 C 10.0,11.7761 9.7761,12.0 9.5,12.0 L 8.5,12.0 C 8.2239,12.0 8.0,11.7761 8.0,11.5 L 8.0,10.5 C 8.0,10.2239 8.2239,10.0 8.5,10.0 L 9.5,10.0 C 9.7761,10.0 10.0,10.2239 10.0,10.5 M 13.0,10.5 L 13.0,11.5 C 13.0,11.7761 12.7761,12.0 12.5,12.0 L 11.5,12.0 C 11.2239,12.0 11.0,11.7761 11.0,11.5 L 11.0,10.5 C 11.0,10.2239 11.2239,10.0 11.5,10.0 L 12.5,10.0 C 12.7761,10.0 13.0,10.2239 13.0,10.5" fill="#000" /></svg>