<svg xmlns="http://www.w3.org/2000/svg" width="16" height="16"><path d="M 2.5,4.0 C 2.223,4.0 2.0,4.223 2.0,4.5 L 2.0,5.5 C 2.0,5.777 2.223,6.0 2.5,6.0 L 3.5,6.0 C 3.777,6.0 4.0,5.777 4.0,5.5 L 4.0,4.5 C 4.0,4.223 3.777,4.0 3.5,4.0 L 2.5,4.0 M 5.5,4.0 C 5.223,4.0 5.0,4.223 5.0,4.5 L 5.0,5.5 C 5.0,5.777 5.223,6.0 5.5,6.0 L 6.5,6.0 C 6.777,6.0 7.0,5.777 7.0,5.5 L 7.0,4.5 C 7.0,4.223 6.777,4.0 6.5,4.0 L 5.5,4.0 M 8.5,4.0 C 8.223,4.0 8.0,4.223 8.0,4.5 L 8.0,5.5 C 8.0,5.777 8.223,6.0 8.5,6.0 L 9.5,6.0 C 9.777,6.0 10.0,5.777 10.0,5.5 L 10.0,4.5 C 10.0,4.223 9.777,4.0 9.5,4.0 L 8.5,4.0 M 11.5,4.0 C 11.223,4.0 11.0,4.223 11.0,4.5 L 11.0,5.5 C 11.0,5.777 11.223,6.0 11.5,6.0 L 12.5,6.0 C 12.777,6.0 13.0,5.777 13.0,5.5 L 13.0,4.5 C 13.0,4.223 12.777,4.0 12.5,4.0 L 11.5,4.0 M 2.5,10.0 C 2.223,10.0 2.0,10.223 2.0,10.5 L 2.0,11.5 C 2.0,11.777 2.223,12.0 2.5,12.0 L 3.5,12.0 C 3.777,12.0 4.0,11.777 4.0,11.5 L 4.0,10.5 C 4.0,10.223 3.777,10.0 3.5,10.0 L 2.5,10.0 M 5.5,10.0 C 5.223,10.0 5.0,10.223 5.0,10.5 L 5.0,11.5 C 5.0,11.777 5.223,12.0 5.5,12.0 L 6.5,12.0 C 6.777,12.0 7.0,11.777 7.0,11.5 L 7.0,10.5 C 7.0,10.223 6.777,10.0 6.5,10.0 L 5.5,10.0 M 8.5,10.0 C 8.223,10.0 8.0,10.223 8.0,10.5 L 8.0,11.5 C 8.0,11.777 8.223,12.0 8.5,12.0 L 9.5,12.0 C 9.777,12.0 10.0,11.777 10.0,11.5 L 10.0,10.5 C 10.0,10.223 9.777,10.0 9.5,10.0 L 8.5,10.0 M 11.5,10.0 C 11.223,10.0 11.0,10.223 11.0,10.5 L 11.0,11.5 C 11.0,11.777 11.223,12.0 11.5,12.0 L 12.5,12.0 C 12.777,12.0 13.0,11.777 13.0,11.5 L 13.0,10.5 C 13.0,10.223 12.777,10.0 12.5,10.0 L 11.5,10.0" fill="#000" /></svg>