<svg xmlns="http://www.w3.org/2000/svg" width="16" height="16"><path d="M 3.0254,2.0254 C 2.3691,2.6816 2.0,3.5719 2.0,4.5 C 2.0,5.4281 2.3691,6.3184 3.0254,6.9746 C 3.4966,7.4655 4.2233,6.7388 3.7324,6.2676 C 3.2634,5.7986 3.0,5.1632 3.0,4.5 C 3.0,3.8368 3.2634,3.2014 3.7324,2.7324 C 4.2199,2.2606 3.4788,1.5569 3.0254,2.0254 M 11.2676,2.7324 C 11.7366,3.2014 12.0,3.8368 12.0,4.5 C 12.0,5.1632 11.7366,5.7986 11.2676,6.2676 C 10.7767,6.7388 11.5034,7.4655 11.9746,6.9746 C 12.6309,6.3184 13.0,5.4281 13.0,4.5 C 13.0,3.5719 12.6309,2.6816 11.9746,2.0254 C 11.5215,1.5569 10.7799,2.2605 11.2676,2.7324 M 7.4922,1.9922 C 7.216,1.9962 6.9957,2.2239 7.0,2.5 L 7.0,3.0 L 6.5,3.0 C 6.129,3.0004 5.8876,3.3904 6.0527,3.7227 L 6.5527,4.7227 C 6.6372,4.8924 6.8104,4.9998 7.0,5.0 L 7.0,9.4648 C 6.9996,9.4765 6.9996,9.4882 7.0,9.5 C 7.0,10.4167 6.7624,11.4964 6.4102,12.377 C 6.0579,13.2576 5.5388,13.922 5.2773,14.0528 C 4.806,14.2885 4.973,14.9989 5.5,15.0 L 9.5,15.0 C 10.0271,14.999 10.194,14.2885 9.7227,14.0528 C 9.4612,13.922 8.9421,13.2576 8.5898,12.377 C 8.2376,11.4964 8.0,10.4167 8.0,9.5 L 8.0,5.0 C 8.1896,4.9998 8.3628,4.8924 8.4473,4.7227 L 8.9473,3.7227 C 9.1124,3.3904 8.871,3.0004 8.5,3.0 L 8.0,3.0 L 8.0,2.5 C 8.004,2.2177 7.7745,1.9878 7.4922,1.9922 M 4.7988,3.2871 C 4.6634,3.2871 4.5337,3.3421 4.4395,3.4394 C 4.1583,3.7206 4.0,4.1024 4.0,4.5 C 4.0,4.8976 4.1583,5.2794 4.4395,5.5605 C 4.9107,6.0515 5.6374,5.3248 5.1465,4.8535 C 5.0526,4.7596 5.0,4.6328 5.0,4.5 C 5.0,4.3672 5.0526,4.2404 5.1465,4.1465 C 5.4694,3.834 5.2482,3.2872 4.7988,3.2871 M 10.2012,3.2871 C 9.7518,3.2872 9.5306,3.8339 9.8535,4.1465 C 9.9474,4.2404 10.0,4.3672 10.0,4.5 C 10.0,4.6328 9.9474,4.7596 9.8535,4.8535 C 9.3626,5.3248 10.0893,6.0515 10.5605,5.5605 C 10.8417,5.2794 11.0,4.8976 11.0,4.5 C 11.0,4.1024 10.8417,3.7206 10.5605,3.4395 C 10.4663,3.3421 10.3366,3.2871 10.2012,3.2871 L 10.2012,3.2871" fill="#000" /></svg>