<svg xmlns="http://www.w3.org/2000/svg" width="16" height="16"><path d="M 8.0,1.0 C 7.9421,0.9998 7.8846,1.01 7.8301,1.0293 L 2.3301,3.0293 C 1.8018,3.2189 1.9387,4.0011 2.5,4.0 L 4.0,4.0 L 4.0,8.0 C 4.0,8.5167 4.3889,8.9396 4.8906,8.9941 L 4.0098,13.4023 C 3.9559,13.6731 4.1316,13.9362 4.4023,13.9902 C 4.6731,14.0441 4.9362,13.8684 4.9902,13.5977 L 5.1133,12.9844 C 5.1575,12.9754 5.2002,12.9601 5.2402,12.9395 L 8.0,11.4336 L 10.7598,12.9394 C 10.7999,12.96 10.8426,12.9751 10.8867,12.9843 L 11.0098,13.5976 C 11.0638,13.8683 11.3269,14.0441 11.5977,13.9902 C 11.8684,13.9362 12.0441,13.673 11.9902,13.4023 L 11.1094,8.9941 C 11.6111,8.9396 12.0,8.5167 12.0,8.0 L 12.0,4.0 L 13.5,4.0 C 14.0613,4.001 14.1982,3.2189 13.6699,3.0293 L 8.1699,1.0293 C 8.1154,1.0098 8.0579,0.9998 8.0,1.0 M 5.0,4.0 L 11.0,4.0 L 11.0,7.0 L 5.0,7.0 L 5.0,4.0 M 5.9102,9.0 L 10.0898,9.0 L 10.1172,9.1387 L 8.0001,10.293 L 5.8829,9.1387 L 5.9102,9.0 M 5.6758,10.166 L 6.9531,10.8633 L 5.3633,11.7305 L 5.6758,10.166 M 10.3242,10.166 L 10.6367,11.7324 L 9.0449,10.8633 L 10.3242,10.166" fill="#000" /></svg>