<svg xmlns="http://www.w3.org/2000/svg" width="16" height="16"><path d="M 4.5,1.0 C 4.2239,1.0 4.0,1.2239 4.0,1.5 L 4.0,2.5 C 4.0005,2.5497 4.008,2.5991 4.0234,2.6465 C 4.0244,2.6505 4.0264,2.6545 4.0274,2.6582 C 4.043,2.7048 4.0654,2.7489 4.0938,2.789 C 4.0968,2.792 4.0988,2.796 4.1018,2.799 C 4.1301,2.8367 4.1637,2.8703 4.2014,2.8986 C 4.2044,2.9016 4.2074,2.9036 4.2114,2.9066 C 4.2515,2.9351 4.2956,2.9574 4.3423,2.973 C 4.3463,2.974 4.3503,2.976 4.354,2.977 C 4.4014,2.992 4.4508,2.9999 4.5004,3.0004 L 11.5004,3.0004 C 11.5529,3.0001 11.605,2.9914 11.6547,2.975 C 11.6557,2.9744 11.6577,2.974 11.6587,2.973 C 11.7068,2.9572 11.7523,2.9341 11.7935,2.9046 C 11.7955,2.9026 11.7975,2.9006 11.7995,2.8986 C 11.8397,2.8689 11.8753,2.8334 11.905,2.7932 C 11.9056,2.7922 11.906,2.7902 11.907,2.7892 C 11.9365,2.748 11.9595,2.7026 11.9754,2.6544 C 11.976,2.6514 11.9764,2.6494 11.9774,2.6464 C 11.9924,2.599 12.0003,2.5496 12.0008,2.4999 L 12.0008,1.4999 C 12.0007,1.2238 11.7769,1.0 11.5008,0.9999 L 10.5008,0.9999 C 10.2246,1.0 10.0008,1.2238 10.0008,1.4999 L 10.0008,1.9999 L 9.0008,1.9999 L 9.0008,1.4999 C 9.0007,1.2238 8.7769,1.0 8.5008,0.9999 L 7.5008,0.9999 C 7.2246,1.0 7.0008,1.2238 7.0008,1.4999 L 7.0008,1.9999 L 6.0008,1.9999 L 6.0008,1.4999 C 6.0007,1.2238 5.7769,1.0 5.5008,0.9999 L 4.5,1.0 M 5.0,4.0 L 4.0,12.0 L 12.0,12.0 L 11.0,4.0 L 5.0,4.0 M 8.0,6.0 C 8.554,6.0 9.0,6.446 9.0,7.0 L 9.0,8.5 C 9.0,8.7761 8.7761,9.0 8.5,9.0 L 7.5,9.0 C 7.2239,9.0 7.0,8.7761 7.0,8.5 L 7.0,7.0 C 7.0,6.446 7.446,6.0 8.0,6.0 M 3.5,13.0 C 3.2239,13.0 3.0,13.2239 3.0,13.5 C 3.0,13.7761 3.2239,14.0 3.5,14.0 L 12.5,14.0 C 12.7761,14.0 13.0,13.7761 13.0,13.5 C 13.0,13.2239 12.7761,13.0 12.5,13.0 L 3.5,13.0" fill="#000" /></svg>