<svg xmlns="http://www.w3.org/2000/svg" width="16" height="16"><path d="M 8.0,2.0 C 7.9421,1.9998 7.8846,2.01 7.8301,2.0293 L 2.3301,4.0293 C 1.8018,4.2189 1.9387,5.0011 2.5,5.0 L 4.0,5.0 L 4.0,9.0 C 4.0,9.5167 4.3889,9.9396 4.8906,9.9941 L 4.0098,14.4023 C 3.9559,14.6731 4.1316,14.9362 4.4023,14.9902 C 4.6731,15.0441 4.9362,14.8684 4.9902,14.5977 L 5.1133,13.9844 C 5.1575,13.9754 5.2002,13.9601 5.2402,13.9395 L 8.0,12.4336 L 10.7598,13.9394 C 10.7999,13.96 10.8426,13.9751 10.8867,13.9843 L 11.0098,14.5976 C 11.0638,14.8683 11.3269,15.0441 11.5977,14.9902 C 11.8684,14.9362 12.0441,14.673 11.9902,14.4023 L 11.1094,9.9941 C 11.6111,9.9396 12.0,9.5167 12.0,9.0 L 12.0,5.0 L 13.5,5.0 C 14.0613,5.001 14.1982,4.2189 13.6699,4.0293 L 8.1699,2.0293 C 8.1154,2.0098 8.0579,1.9998 8.0,2.0 M 5.0,5.0 L 11.0,5.0 L 11.0,8.0 L 5.0,8.0 L 5.0,5.0 M 5.9102,10.0 L 10.0898,10.0 L 10.1172,10.1387 L 8.0001,11.293 L 5.8829,10.1387 L 5.9102,10.0 M 5.6758,11.166 L 6.9531,11.8633 L 5.3633,12.7305 L 5.6758,11.166 M 10.3242,11.166 L 10.6367,12.7324 L 9.0449,11.8633 L 10.3242,11.166" fill="#000" /></svg>