<svg xmlns="http://www.w3.org/2000/svg" width="16" height="16"><path d="M 4.5,1.0 A 0.5,0.5 0.0 0,0 4.0,1.5 L 4.0,2.5 A 0.5,0.5 0.0 0,0 4.5,3.0 L 11.5,3.0 A 0.5,0.5 0.0 0,0 12.0,2.5 L 12.0,1.5 A 0.5,0.5 0.0 0,0 11.5,1.0 L 10.5,1.0 A 0.5,0.5 0.0 0,0 10.0,1.5 L 10.0,2.0 L 9.0,2.0 L 9.0,1.5 A 0.5,0.5 0.0 0,0 8.5,1.0 L 7.5,1.0 A 0.5,0.5 0.0 0,0 7.0,1.5 L 7.0,2.0 L 6.0,2.0 L 6.0,1.5 A 0.5,0.5 0.0 0,0 5.5,1.0 L 4.5,1.0 M 5.0,4.0 L 4.0,12.0 L 12.0,12.0 L 11.0,4.0 L 5.0,4.0 M 8.0,6.0 C 8.554,6.0 9.0,6.446 9.0,7.0 L 9.0,8.5 A 0.5,0.5 0.0 0,1 8.5,9.0 L 7.5,9.0 A 0.5,0.5 0.0 0,1 7.0,8.5 L 7.0,7.0 C 7.0,6.446 7.446,6.0 8.0,6.0 M 3.5,13.0 A 0.5,0.5 0.0 0,0 3.0,13.5 A 0.5,0.5 0.0 0,0 3.5,14.0 L 12.5,14.0 A 0.5,0.5 0.0 0,0 13.0,13.5 A 0.5,0.5 0.0 0,0 12.5,13.0 L 3.5,13.0" fill="#000" /></svg>