<svg xmlns="http://www.w3.org/2000/svg" width="16" height="16"><path d="M 4.5,2.0 A 0.5,0.5 0.0 0,0 4.0,2.5 A 0.5,0.5 0.0 0,0 4.5,3.0 L 11.5,3.0 A 0.5,0.5 0.0 0,0 12.0,2.5 A 0.5,0.5 0.0 0,0 11.5,2.0 L 4.5,2.0 M 5.5,4.0 C 5.1751,4.0005 4.937,4.3059 5.0156,4.6211 C 5.2276,5.4689 5.126,6.929 4.7656,8.3105 C 4.4052,9.6921 3.7786,11.0143 3.1465,11.6465 C 3.0527,11.7403 3.0,11.8674 3.0,12.0 L 3.0,12.5 C 3.0,12.7761 3.2239,13.0 3.5,13.0 L 12.5,13.0 C 12.7761,13.0 13.0,12.7761 13.0,12.5 L 13.0,12.0 C 13.0,11.8674 12.9473,11.7402 12.8535,11.6465 C 12.2214,11.0143 11.5948,9.6921 11.2344,8.3105 C 10.874,6.929 10.7724,5.4689 10.9844,4.6211 C 11.063,4.3059 10.8249,4.0005 10.5,4.0 L 5.5,4.0" fill="#000" /></svg>