<svg xmlns="http://www.w3.org/2000/svg" width="16" height="16"><path d="M 7.5,1.0 C 7.2239,1.0 7.0,1.2239 7.0,1.5 L 7.0,3.9316 L 6.0195,7.3633 C 6.0067,7.4077 6.0001,7.4538 6.0,7.5 L 6.0,9.5 A 0.5,0.5 135.0 0,1 5.5,10.0 L 3.5,10.0 A 1.5,1.5 134.99983 0,0 2.0,11.5 L 2.0,15.0 L 4.0,15.0 L 4.0,12.5 C 4.0,12.223 4.2199,12.0 4.4922,12.0 L 4.5078,12.0 C 4.7802,12.0 5.0,12.223 5.0,12.5 L 5.0,15.0 L 6.0,15.0 L 6.0,12.5 C 6.0,12.223 6.223,12.0 6.5,12.0 C 6.777,12.0 7.0,12.223 7.0,12.5 L 7.0,15.0 L 8.0,15.0 L 8.0,12.5 C 8.0,12.223 8.223,12.0 8.5,12.0 C 8.777,12.0 9.0,12.223 9.0,12.5 L 9.0,15.0 L 10.0,15.0 L 10.0,12.5 C 10.0,12.223 10.223,12.0 10.5,12.0 C 10.777,12.0 11.0,12.223 11.0,12.5 L 11.0,15.0 L 13.0,15.0 L 13.0,11.5 A 1.5,1.5 44.999943 0,0 11.5,10.0 L 9.5,10.0 A 0.5,0.5 45.0 0,1 9.0,9.5 L 9.0,7.5 C 8.9999,7.4537 8.993,7.4077 8.9805,7.3633 L 8.0,3.9316 L 8.0,3.0 L 10.0,3.0 C 10.1896,2.9998 10.3628,2.8924 10.4473,2.7227 L 10.9473,1.7227 C 11.1124,1.3904 10.871,1.0004 10.5,1.0 L 7.5,1.0 M 7.5,8.0508 C 7.777,8.0508 8.0,8.2738 8.0,8.5508 L 8.0,9.4492 C 8.0,9.7262 7.777,9.9492 7.5,9.9492 C 7.223,9.9492 7.0,9.7262 7.0,9.4492 L 7.0,8.5508 C 7.0,8.2738 7.223,8.0508 7.5,8.0508" fill="#000" /></svg>