<svg xmlns="http://www.w3.org/2000/svg" width="16" height="16"><path d="M 1.0,2.5 C 0.5547,2.5002 0.3317,3.0385 0.6465,3.3535 L 1.5,4.207 L 1.5,7.0 C 1.5,7.2761 1.7239,7.5 2.0,7.5 L 2.5,7.5 C 2.7153,7.5001 2.9065,7.3624 2.9746,7.1582 L 3.7188,4.9258 L 4.0,5.207 L 4.0,6.5 L 4.0,7.0 C 4.0,7.125 4.001,7.2812 4.0,7.4609 C 3.994,8.5611 3.9498,10.5393 3.6465,11.6035 C 3.3111,11.3642 2.9924,11.0979 2.6973,10.8027 C 2.502,10.6075 2.1855,10.6075 1.9902,10.8027 C 1.795,10.998 1.795,11.3145 1.9902,11.5098 C 3.5842,13.1037 5.7459,14.0 8.0,14.0 C 10.2541,14.0 12.4158,13.1037 14.0098,11.5098 C 14.205,11.3145 14.205,10.998 14.0098,10.8027 C 13.9161,10.7089 13.7889,10.6563 13.6562,10.6562 C 13.5236,10.6563 13.3965,10.7089 13.3027,10.8027 C 13.0076,11.0979 12.6889,11.3642 12.3535,11.6035 C 12.0502,10.5393 12.006,8.5611 12.0,7.4609 C 11.999,7.2812 12.0,7.125 12.0,7.0 L 12.0,6.5 C 12.0,6.223 11.777,6.0 11.5,6.0 L 5.5,6.0 L 5.5,5.0 C 5.5,4.3333 5.1821,3.7251 4.7285,3.2715 C 4.2749,2.8179 3.6667,2.5 3.0,2.5 L 1.0,2.5 M 13.0,3.5 C 12.7847,3.4999 12.5935,3.6376 12.5254,3.8418 L 12.0254,5.3418 C 11.8582,5.8426 12.4804,6.2271 12.8535,5.8535 L 13.8535,4.8535 L 14.3535,4.3535 C 14.6683,4.0385 14.4453,3.5002 14.0,3.5 L 13.0,3.5 M 11.3594,12.2031 C 10.3261,12.7211 9.1777,13.0 8.0,13.0 C 6.8223,13.0 5.6739,12.7211 4.6406,12.2031 C 6.0,9.0 10.0,9.0 11.3594,12.2031" fill="#000" /></svg>