<svg xmlns="http://www.w3.org/2000/svg" width="16" height="16"><path d="M 15.0,2.5 C 15.4453,2.5002 15.6683,3.0385 15.3535,3.3535 L 14.5,4.207 L 14.5,7.0 C 14.5,7.2761 14.2761,7.5 14.0,7.5 L 13.5,7.5 C 13.2847,7.5001 13.0935,7.3624 13.0254,7.1582 L 12.2812,4.9258 L 12.0,5.207 L 12.0,7.4609 C 12.0,8.5611 12.0502,10.5393 12.3535,11.6035 C 12.6889,11.3642 13.0076,11.0979 13.3027,10.8027 C 13.498,10.6075 13.8145,10.6075 14.0098,10.8027 C 14.205,10.998 14.205,11.3145 14.0098,11.5098 C 12.4158,13.1037 10.2541,14.0 8.0,14.0 C 5.7459,14.0 3.5842,13.1037 1.9902,11.5098 C 1.795,11.3145 1.795,10.998 1.9902,10.8027 C 2.1847,10.608 2.5023,10.6077 2.6973,10.8027 C 2.9924,11.0979 3.3111,11.3642 3.6465,11.6035 C 3.9498,10.5393 4.0,8.5611 4.0,7.4609 L 4.0,6.5 C 4.0,6.223 4.223,6.0 4.5,6.0 L 10.5,6.0 L 10.5,5.0 C 10.5,4.3333 10.8179,3.7251 11.2715,3.2715 C 11.7251,2.8179 12.3333,2.5 13.0,2.5 L 15.0,2.5 M 3.0,3.5 C 3.2153,3.4999 3.4065,3.6376 3.4746,3.8418 L 3.9746,5.3418 C 4.1418,5.8426 3.5196,6.2271 3.1465,5.8535 L 1.6465,4.3535 C 1.3317,4.0385 1.5547,3.5002 2.0,3.5 L 3.0,3.5 M 4.6406,12.2031 C 5.6739,12.7211 6.8223,13.0 8.0,13.0 C 9.1777,13.0 10.3261,12.7211 11.3594,12.2031 C 10.0,9.0 6.0,9.0 4.6406,12.2031" fill="#000" /></svg>