<svg xmlns="http://www.w3.org/2000/svg" width="16" height="16"><path d="M 4.0,2.0 C 3.447,2.0 3.0,2.448 3.0,3.0 L 3.0,11.0 C 3.0,11.552 3.447,12.0 3.998,12.0 L 12.0,12.0 C 12.553,12.0 13.0,11.552 13.0,11.0 L 13.0,3.0 C 13.0,2.448 12.553,2.0 12.002,2.0 L 4.0,2.0 M 4.499,4.0 L 11.5,4.0 C 11.777,4.001 12.0,4.224 12.0,4.5 L 12.0,7.5 C 12.0,7.776 11.777,7.999 11.501,8.0 L 4.5,8.0 C 4.223,7.999 4.0,7.776 4.0,7.5 L 4.0,4.501 C 4.0,4.224 4.223,4.001 4.499,4.0 M 4.499,9.0 L 5.5,9.0 C 5.777,9.0 6.0,9.224 6.0,9.5 L 6.0,10.5 C 6.0,10.776 5.777,11.0 5.501,11.0 L 4.5,11.0 C 4.223,11.0 4.0,10.776 4.0,10.5 L 4.0,9.501 C 4.0,9.224 4.223,9.0 4.499,9.0 M 10.499,9.0 L 11.5,9.0 C 11.777,9.0 12.0,9.224 12.0,9.5 L 12.0,10.5 C 12.0,10.776 11.777,11.0 11.501,11.0 L 10.5,11.0 C 10.223,11.0 10.0,10.776 10.0,10.5 L 10.0,9.501 C 10.0,9.224 10.223,9.0 10.499,9.0 M 11.5,13.0 C 11.224,13.0 11.0,13.224 11.0,13.5 L 11.0,14.0 L 5.0,14.0 L 5.0,13.501 C 5.0,13.224 4.776,13.0 4.5,13.0 C 4.224,13.0 4.0,13.224 4.0,13.5 L 4.0,14.0 L 2.5,14.0 C 2.223,14.0 2.0,14.224 2.0,14.5 C 2.0,14.776 2.223,15.0 2.499,15.0 L 13.5,15.0 C 13.777,15.0 14.0,14.776 14.0,14.5 C 14.0,14.224 13.777,14.0 13.501,14.0 L 12.0,14.0 L 12.0,13.501 C 12.0,13.224 11.776,13.0 11.5,13.0" fill="#000" /></svg>