<svg xmlns="http://www.w3.org/2000/svg" width="16" height="16"><path d="M 13.0,3.0 L 13.0,11.0 C 13.0,11.5523 12.5523,12.0 12.0,12.0 L 4.0,12.0 C 3.4477,12.0 3.0,11.5523 3.0,11.0 L 3.0,3.0 C 3.0,2.4477 3.4477,2.0 4.0,2.0 L 12.0,2.0 C 12.5523,2.0 13.0,2.4477 13.0,3.0 M 4.0,9.5 L 4.0,10.5 C 4.0,10.7761 4.2239,11.0 4.5,11.0 L 5.5,11.0 C 5.7761,11.0 6.0,10.7761 6.0,10.5 L 6.0,9.5 C 6.0,9.2239 5.7761,9.0 5.5,9.0 L 4.5,9.0 C 4.2239,9.0 4.0,9.2239 4.0,9.5 M 10.0,9.5 L 10.0,10.5 C 10.0,10.7761 10.2239,11.0 10.5,11.0 L 11.5,11.0 C 11.7761,11.0 12.0,10.7761 12.0,10.5 L 12.0,9.5 C 12.0,9.2239 11.7761,9.0 11.5,9.0 L 10.5,9.0 C 10.2239,9.0 10.0,9.2239 10.0,9.5 M 4.0,4.5 L 4.0,7.5 C 4.0,7.7761 4.2239,8.0 4.5,8.0 L 11.5,8.0 C 11.7761,8.0 12.0,7.7761 12.0,7.5 L 12.0,4.5 C 12.0,4.2239 11.7761,4.0 11.5,4.0 L 4.5,4.0 C 4.2239,4.0 4.0,4.2239 4.0,4.5 M 2.0,14.5 C 2.0,14.2239 2.2239,14.0 2.5,14.0 L 4.0,14.0 L 4.0,13.5 C 4.0,13.2239 4.2239,13.0 4.5,13.0 C 4.7761,13.0 5.0,13.2239 5.0,13.5 L 5.0,14.0 L 11.0,14.0 L 11.0,13.5 C 11.0,13.2239 11.2239,13.0 11.5,13.0 C 11.7761,13.0 12.0,13.2239 12.0,13.5 L 12.0,14.0 L 13.5,14.0 C 13.7761,14.0 14.0,14.2239 14.0,14.5 C 14.0,14.7761 13.7761,15.0 13.5,15.0 L 2.5,15.0 C 2.2239,15.0 2.0,14.7761 2.0,14.5" fill="#000" /></svg>