<svg xmlns="http://www.w3.org/2000/svg" width="16" height="16"><path d="M 4.0,2.0 C 3.446,2.0 3.0,2.446 3.0,3.0 L 3.0,11.0 C 3.0,11.554 3.446,12.0 4.0,12.0 L 12.0,12.0 C 12.554,12.0 13.0,11.554 13.0,11.0 L 13.0,3.0 C 13.0,2.446 12.554,2.0 12.0,2.0 L 4.0,2.0 M 4.5,4.0 L 11.5,4.0 C 11.777,4.0 12.0,4.223 12.0,4.5 L 12.0,7.5 C 12.0,7.777 11.777,8.0 11.5,8.0 L 4.5,8.0 C 4.223,8.0 4.0,7.777 4.0,7.5 L 4.0,4.5 C 4.0,4.223 4.223,4.0 4.5,4.0 M 4.5,9.0 L 5.5,9.0 C 5.777,9.0 6.0,9.223 6.0,9.5 L 6.0,10.5 C 6.0,10.777 5.777,11.0 5.5,11.0 L 4.5,11.0 C 4.223,11.0 4.0,10.777 4.0,10.5 L 4.0,9.5 C 4.0,9.223 4.223,9.0 4.5,9.0 M 10.5,9.0 L 11.5,9.0 C 11.777,9.0 12.0,9.223 12.0,9.5 L 12.0,10.5 C 12.0,10.777 11.777,11.0 11.5,11.0 L 10.5,11.0 C 10.223,11.0 10.0,10.777 10.0,10.5 L 10.0,9.5 C 10.0,9.2019 10.2292,9.0 10.5,9.0 L 10.5,9.0 M 4.0,13.0 L 4.0,14.0 L 2.5,14.0 C 2.223,14.0 2.0,14.223 2.0,14.5 C 2.0,14.777 2.223,15.0 2.5,15.0 L 13.5,15.0 C 13.777,15.0 14.0,14.777 14.0,14.5 C 14.0,14.223 13.777,14.0 13.5,14.0 L 12.0,14.0 L 12.0,13.0 L 11.0,13.0 L 11.0,14.0 L 5.0,14.0 L 5.0,13.0 L 4.0,13.0" fill="#000" /></svg>