<svg xmlns="http://www.w3.org/2000/svg" width="16" height="16"><path d="M 5.1562,1.8438 L 6.3125,3.0 L 5.0,3.0 C 4.446,3.0 4.0,3.446 4.0,4.0 L 4.0,12.0 C 4.0,12.554 4.446,13.0 5.0,13.0 L 5.0,13.5 C 5.0,13.777 5.223,14.0 5.5,14.0 C 5.777,14.0 6.0,13.777 6.0,13.5 L 6.0,13.0 L 10.0,13.0 L 10.0,13.5 C 10.0,13.777 10.223,14.0 10.5,14.0 C 10.777,14.0 11.0,13.777 11.0,13.5 L 11.0,13.0 C 11.554,13.0 12.0,12.554 12.0,12.0 L 12.0,4.0 C 12.0,3.446 11.554,3.0 11.0,3.0 L 9.6875,3.0 L 10.8438,1.8438 C 11.1396,1.5317 10.9211,1.0 10.5,1.0 L 5.5,1.0 C 5.0458,1.0 4.8195,1.5327 5.1562,1.8438 M 6.6875,2.0 L 9.3125,2.0 L 8.3125,3.0 L 7.6875,3.0 L 6.6875,2.0 M 5.75,4.0 L 10.25,4.0 C 10.6655,4.0 11.0,4.3345 11.0,4.75 L 11.0,8.25 C 11.0,8.6655 10.6655,9.0 10.25,9.0 L 5.75,9.0 C 5.3345,9.0 5.0,8.6655 5.0,8.25 L 5.0,4.75 C 5.0,4.3345 5.3345,4.0 5.75,4.0 M 8.0,10.0 C 8.5523,10.0 9.0,10.4477 9.0,11.0 C 9.0,11.5523 8.5523,12.0 8.0,12.0 C 7.4477,12.0 7.0,11.5523 7.0,11.0 C 7.0,10.4477 7.4477,10.0 8.0,10.0" fill="#000" /></svg>