<svg xmlns="http://www.w3.org/2000/svg" width="16" height="16"><path d="M 5.5,1.0 C 5.223,1.0 5.0,1.224 5.0,1.5 C 5.0,1.638 5.056,1.763 5.146,1.854 L 6.293,3.0 L 5.0,3.0 C 4.447,3.0 4.0,3.448 4.0,4.0 L 4.0,12.0 C 4.0,12.552 4.447,13.0 4.998,13.0 L 5.0,13.5 C 5.0,13.776 5.224,14.0 5.5,14.0 C 5.776,14.0 6.0,13.776 6.0,13.5 L 6.0,13.0 L 10.0,13.0 L 10.0,13.5 C 10.0,13.776 10.224,14.0 10.5,14.0 C 10.776,14.0 11.0,13.776 11.0,13.5 L 11.0,13.0 C 11.553,13.0 12.0,12.552 12.0,12.0 L 12.0,4.001 C 12.0,3.448 11.553,3.0 11.002,3.0 L 9.707,3.0 L 10.853,1.854 C 10.944,1.763 11.0,1.638 11.0,1.5 C 11.0,1.224 10.777,1.0 10.501,1.0 L 5.5,1.0 M 7.707,3.0 L 6.707,2.0 L 9.293,2.0 L 8.293,3.0 L 7.707,3.0 M 5.499,4.0 L 10.5,4.0 C 10.777,4.001 11.0,4.224 11.0,4.5 L 11.0,8.5 C 11.0,8.776 10.777,9.0 10.501,9.0 L 5.5,9.0 C 5.223,9.0 5.0,8.776 5.0,8.5 L 5.0,4.501 C 5.0,4.224 5.223,4.001 5.499,4.0 M 7.0,11.0 C 7.0,10.448 7.448,10.0 8.0,10.0 C 8.552,10.0 9.0,10.448 9.0,11.0 C 9.0,11.552 8.552,12.0 8.0,12.0 C 7.448,12.0 7.0,11.552 7.0,11.0" fill="#000" /></svg>