<svg xmlns="http://www.w3.org/2000/svg" width="16" height="16"><path d="M 5.5,14.0 C 5.2239,14.0 5.0,13.7761 5.0,13.5 L 5.0,13.0 C 4.4477,13.0 4.0,12.5523 4.0,12.0 L 4.0,4.0 C 4.0,3.4477 4.4477,3.0 5.0,3.0 L 6.2929,3.0 L 5.1464,1.8536 C 5.056,1.7631 5.0,1.6381 5.0,1.5 C 5.0,1.2239 5.2239,1.0 5.5,1.0 L 10.5,1.0 C 10.7761,1.0 11.0,1.2239 11.0,1.5 C 11.0,1.6381 10.944,1.7631 10.8535,1.8536 L 9.7071,3.0 L 11.0,3.0 C 11.5523,3.0 12.0,3.4477 12.0,4.0 L 12.0,12.0 C 12.0,12.5523 11.5523,13.0 11.0,13.0 L 11.0,13.5 C 11.0,13.7761 10.7761,14.0 10.5,14.0 C 10.2238,14.0 10.0,13.7761 10.0,13.5 L 10.0,13.0 L 6.0,13.0 L 6.0,13.5 C 6.0,13.7761 5.7761,14.0 5.5,14.0 L 5.5,14.0 M 6.7071,2.0 L 7.7071,3.0 L 8.2929,3.0 L 9.2929,2.0 L 6.7071,2.0 M 5.0,4.5 L 5.0,8.5 C 5.0,8.7761 5.2239,9.0 5.5,9.0 L 10.5,9.0 C 10.7761,9.0 11.0,8.7761 11.0,8.5 L 11.0,4.5 C 11.0,4.2239 10.7761,4.0 10.5,4.0 L 5.5,4.0 C 5.2239,4.0 5.0,4.2239 5.0,4.5 M 8.0,12.0 C 8.5523,12.0 9.0,11.5523 9.0,11.0 C 9.0,10.4477 8.5523,10.0 8.0,10.0 C 7.4477,10.0 7.0,10.4477 7.0,11.0 C 7.0,11.5523 7.4477,12.0 8.0,12.0" fill="#000" /></svg>