<svg xmlns="http://www.w3.org/2000/svg" width="16" height="16"><path d="M 8.0,1.0 C 7.802,1.0 7.631,1.115 7.55,1.283 L 6.662,3.059 C 6.276,3.197 6.0,3.566 6.0,4.0 L 5.0,4.0 C 3.895,4.0 3.0,4.895 3.0,6.0 L 3.0,14.5 C 3.0,14.776 3.224,15.0 3.5,15.0 L 4.5,15.0 C 4.776,15.0 5.0,14.776 5.0,14.5 L 5.0,14.0 L 11.0,14.0 L 11.0,14.5 C 11.0,14.776 11.224,15.0 11.5,15.0 L 12.5,15.0 C 12.776,15.0 13.0,14.776 13.0,14.5 L 13.0,6.0 C 13.0,4.895 12.105,4.0 11.0,4.0 L 10.0,4.0 C 10.0,3.709 9.876,3.447 9.677,3.264 L 10.444,1.729 C 10.48,1.66 10.5,1.582 10.5,1.5 C 10.5,1.224 10.276,1.0 10.0,1.0 C 9.802,1.0 9.631,1.115 9.55,1.283 L 8.691,3.0 L 7.809,3.0 L 8.444,1.729 C 8.48,1.66 8.5,1.582 8.5,1.5 C 8.5,1.224 8.276,1.0 8.0,1.0 M 6.499,5.0 L 9.5,5.0 C 9.777,5.001 10.0,5.224 10.0,5.5 C 10.0,5.776 9.777,5.999 9.501,6.0 L 6.5,6.0 C 6.223,5.999 6.0,5.776 6.0,5.5 C 6.0,5.224 6.223,5.001 6.499,5.0 M 4.0,8.0 C 4.0,7.448 4.448,7.0 5.0,7.0 L 11.0,7.0 C 11.552,7.0 12.0,7.448 12.0,8.0 L 12.0,9.5 C 12.0,10.328 11.328,11.0 10.5,11.0 L 5.5,11.0 C 4.672,11.0 4.0,10.328 4.0,9.5 L 4.0,8.5 L 4.0,8.0 M 4.0,12.5 C 4.0,12.224 4.224,12.0 4.5,12.0 L 5.5,12.0 C 5.776,12.0 6.0,12.224 6.0,12.5 C 6.0,12.776 5.776,13.0 5.5,13.0 L 4.5,13.0 C 4.224,13.0 4.0,12.776 4.0,12.5 M 10.0,12.5 C 10.0,12.224 10.224,12.0 10.5,12.0 L 11.5,12.0 C 11.776,12.0 12.0,12.224 12.0,12.5 C 12.0,12.776 11.776,13.0 11.5,13.0 L 10.5,13.0 C 10.224,13.0 10.0,12.776 10.0,12.5" fill="#000" /></svg>