<svg xmlns="http://www.w3.org/2000/svg" width="16" height="16"><path d="M 6.6465,1.1465 L 4.793,3.0 L 4.0,3.0 C 3.446,3.0 3.0,3.446 3.0,4.0 L 3.0,12.0 C 3.0,12.554 3.446,13.0 4.0,13.0 L 4.0,13.5 C 4.0,13.777 4.223,14.0 4.5,14.0 C 4.777,14.0 5.0,13.777 5.0,13.5 L 5.0,13.0 L 11.0,13.0 L 11.0,13.5 C 11.0,13.777 11.223,14.0 11.5,14.0 C 11.777,14.0 12.0,13.777 12.0,13.5 L 12.0,13.0 C 12.554,13.0 13.0,12.554 13.0,12.0 L 13.0,4.0 C 13.0,3.446 12.554,3.0 12.0,3.0 L 10.207,3.0 L 11.3535,1.8535 C 11.5487,1.6583 11.5487,1.3417 11.3535,1.1465 C 11.1587,0.9516 10.8413,0.9516 10.6465,1.1465 L 8.793,3.0 L 6.207,3.0 L 7.3535,1.8535 C 7.5487,1.6583 7.5487,1.3417 7.3535,1.1465 C 7.1587,0.9516 6.8413,0.9516 6.6465,1.1465 M 5.0,4.0 L 11.0,4.0 C 11.554,4.0 12.0,4.446 12.0,5.0 L 12.0,8.5 C 12.0,9.331 11.331,10.0 10.5,10.0 L 5.5,10.0 C 4.669,10.0 4.0,9.331 4.0,8.5 L 4.0,5.0 C 4.0,4.446 4.446,4.0 5.0,4.0 M 4.5,11.0 L 5.5,11.0 C 5.777,11.0 6.0,11.223 6.0,11.5 C 6.0,11.777 5.777,12.0 5.5,12.0 L 4.5,12.0 C 4.223,12.0 4.0,11.777 4.0,11.5 C 4.0,11.223 4.223,11.0 4.5,11.0 M 10.5,11.0 L 11.5,11.0 C 11.777,11.0 12.0,11.223 12.0,11.5 C 12.0,11.777 11.777,12.0 11.5,12.0 L 10.5,12.0 C 10.223,12.0 10.0,11.777 10.0,11.5 C 10.0,11.223 10.223,11.0 10.5,11.0" fill="#000" /></svg>