<svg xmlns="http://www.w3.org/2000/svg" width="16" height="16"><path d="M 7.5,2.0 C 7.223,2.0 7.0,2.223 7.0,2.5 L 7.0,8.3242 L 3.1094,13.1875 C 2.6926,13.7083 3.4738,14.3333 3.8906,13.8125 L 7.0,9.9258 L 7.0,13.5 C 7.0,13.777 7.223,14.0 7.5,14.0 L 8.5,14.0 C 8.777,14.0 9.0,13.777 9.0,13.5 L 9.0,9.9258 L 12.1094,13.8125 C 12.526,14.3334 13.3073,13.7084 12.8906,13.1875 L 9.0,8.3242 L 9.0,2.5 C 9.0,2.223 8.777,2.0 8.5,2.0 L 7.5,2.0" fill="#000" /><path d="M 3.2773,2.9473 L 5.2773,3.9473 C 5.886,4.2822 6.3568,3.3365 5.7227,3.0527 L 3.7227,2.0527 C 3.1526,1.7554 2.6533,2.6493 3.2773,2.9473 M 5.2773,5.0527 L 3.2773,6.0527 C 2.6432,6.3365 3.114,7.2821 3.7227,6.9472 L 5.7227,5.9472 C 6.3479,5.6484 5.8463,4.7561 5.2773,5.0527" fill="#000" /><path d="M 12.2773,2.0527 L 10.2773,3.0527 C 9.6432,3.3365 10.114,4.2821 10.7227,3.9472 L 12.7227,2.9472 C 13.3479,2.6484 12.8463,1.7561 12.2773,2.0527 M 10.2773,5.9473 L 12.2773,6.9473 C 12.886,7.2822 13.3568,6.3365 12.7227,6.0527 L 10.7227,5.0527 C 10.1526,4.7554 9.6533,5.6493 10.2773,5.9473" fill="#000" /></svg>