<svg xmlns="http://www.w3.org/2000/svg" width="16" height="16"><path d="M 7.5,2.0 C 7.223,2.0 7.0,2.223 7.0,2.5 L 7.0,8.3242 L 3.1094,13.1875 C 2.6926,13.7083 3.4738,14.3333 3.8906,13.8125 L 7.0,9.9258 L 7.0,13.5 C 7.0,13.777 7.223,14.0 7.5,14.0 L 8.5,14.0 C 8.777,14.0 9.0,13.777 9.0,13.5 L 9.0,9.9258 L 12.1094,13.8125 C 12.526,14.3334 13.3073,13.7084 12.8906,13.1875 L 9.0,8.3242 L 9.0,2.5 C 9.0,2.223 8.777,2.0 8.5,2.0 L 7.5,2.0" fill="#000" /><path d="M 3.0254,2.6582 C 3.5043,4.0949 3.5043,4.905 3.0254,6.3418 C 2.8582,6.8426 3.4804,7.2271 3.8535,6.8535 C 5.3142,5.3928 6.1111,5.0 7.5,5.0 C 7.7761,5.0 8.0,4.7761 8.0,4.5 C 8.0,4.2239 7.7761,4.0 7.5,4.0 C 6.1111,4.0 5.3142,3.6072 3.8535,2.1465 C 3.4847,1.7765 2.8589,2.1611 3.0254,2.6582 L 3.0254,2.6582" fill="#000" /><path d="M 12.1465,2.1465 C 10.7079,3.5851 9.8682,4.0 8.5,4.0 C 8.2238,4.0 8.0,4.2239 8.0,4.5 C 8.0,4.7761 8.2238,5.0 8.5,5.0 C 9.8889,5.0 10.6858,5.3928 12.1465,6.8535 C 12.5196,7.2271 13.1418,6.8426 12.9746,6.3418 C 12.4957,4.905 12.4957,4.095 12.9746,2.6582 C 13.1408,2.1556 12.51,1.7852 12.1465,2.1465 L 12.1465,2.1465" fill="#000" /></svg>