<svg xmlns="http://www.w3.org/2000/svg" width="16" height="16"><path d="M 7.5,2.0 C 7.223,2.0 7.0,2.223 7.0,2.5 L 7.0,13.0 L 6.5,13.0 C 6.223,13.0 6.0,13.223 6.0,13.5 C 6.0,13.777 6.223,14.0 6.5,14.0 L 9.5,14.0 C 9.777,14.0 10.0,13.777 10.0,13.5 C 10.0,13.223 9.777,13.0 9.5,13.0 L 9.0,13.0 L 9.0,2.5 C 9.0,2.223 8.777,2.0 8.5,2.0 L 7.5,2.0" fill="#000" /><path d="M 4.0254,2.0254 C 3.3691,2.6816 3.0,3.5719 3.0,4.5 C 3.0,5.4281 3.3691,6.3184 4.0254,6.9746 C 4.4966,7.4655 5.2233,6.7388 4.7324,6.2676 C 4.2635,5.7986 4.0,5.1632 4.0,4.5 C 4.0,3.8368 4.2635,3.2014 4.7324,2.7324 C 5.22,2.2605 4.4787,1.5569 4.0254,2.0254 M 5.4394,3.4395 C 5.1583,3.7206 5.0,4.1024 5.0,4.5 C 5.0,4.8976 5.1583,5.2794 5.4394,5.5605 C 5.9107,6.0515 6.6374,5.3248 6.1465,4.8535 C 6.0526,4.7596 6.0,4.6328 6.0,4.5 C 6.0,4.3672 6.0526,4.2404 6.1465,4.1465 C 6.634,3.6746 5.8927,2.971 5.4394,3.4395" fill="#000" /><path d="M 11.2676,2.7324 C 11.7365,3.2014 12.0,3.8368 12.0,4.5 C 12.0,5.1632 11.7365,5.7986 11.2676,6.2676 C 10.7767,6.7388 11.5034,7.4655 11.9746,6.9746 C 12.6309,6.3184 13.0,5.4281 13.0,4.5 C 13.0,3.5719 12.6309,2.6816 11.9746,2.0254 C 11.5213,1.5569 10.78,2.2605 11.2676,2.7324 M 9.8535,4.1465 C 9.9474,4.2404 10.0,4.3672 10.0,4.5 C 10.0,4.6328 9.9474,4.7596 9.8535,4.8535 C 9.3626,5.3248 10.0893,6.0515 10.5606,5.5605 C 10.8417,5.2794 11.0,4.8976 11.0,4.5 C 11.0,4.1024 10.8417,3.7206 10.5606,3.4395 C 10.1073,2.971 9.366,3.6746 9.8535,4.1465" fill="#000" /></svg>