<svg xmlns="http://www.w3.org/2000/svg" width="16" height="16"><path d="M 7.5,2.0 C 7.223,2.0 7.0,2.223 7.0,2.5 L 7.0,13.0 L 6.5,13.0 C 6.223,13.0 6.0,13.223 6.0,13.5 C 6.0,13.777 6.223,14.0 6.5,14.0 L 9.5,14.0 C 9.777,14.0 10.0,13.777 10.0,13.5 C 10.0,13.223 9.777,13.0 9.5,13.0 L 9.0,13.0 L 9.0,2.5 C 9.0,2.223 8.777,2.0 8.5,2.0 L 7.5,2.0" fill="#000" /><path d="M 4.4453,1.2168 C 5.3349,1.6306 5.7469,2.6637 5.6699,3.793 C 5.6596,4.0522 5.597,4.3072 5.5156,4.5489 C 5.8797,4.83 7.0625,5.7449 7.7109,6.0469 C 8.2887,6.3376 7.8834,7.2081 7.2891,6.9532 C 6.6416,6.6516 5.1829,6.3348 4.7305,6.2364 C 4.5776,6.4461 4.4331,6.6652 4.252,6.8399 C 3.4373,7.626 2.3798,7.9764 1.4902,7.5625 C 1.2401,7.446 1.1317,7.1488 1.248,6.8985 L 2.5137,4.1778 L 3.7812,1.459 C 3.8978,1.2089 4.195,1.1005 4.4453,1.2168 L 4.4453,1.2168" fill="#000" /><path d="M 11.5547,1.2168 C 10.6651,1.6306 10.2531,2.6637 10.3301,3.793 C 10.3404,4.0522 10.3938,4.309 10.4844,4.5489 C 10.1203,4.83 8.9375,5.7449 8.2891,6.0469 C 7.7113,6.3376 8.1166,7.2081 8.7109,6.9532 C 9.3584,6.6516 10.8171,6.3348 11.2695,6.2364 C 11.4224,6.4461 11.5669,6.6652 11.748,6.8399 C 12.5627,7.626 13.6202,7.9764 14.5098,7.5625 C 14.7599,7.446 14.8683,7.1488 14.752,6.8985 L 13.4863,4.1778 L 12.2188,1.459 C 12.1022,1.2089 11.805,1.1005 11.5547,1.2168 L 11.5547,1.2168" fill="#000" /></svg>