<svg xmlns="http://www.w3.org/2000/svg" width="16" height="16"><path d="M 7.5,2.0 C 7.223,2.0 7.0,2.223 7.0,2.5 L 7.0,8.3242 L 3.1094,13.1875 A 0.5002,0.5002 0.0 1,0 3.8906,13.8125 L 7.0,9.9258 L 7.0,13.5 C 7.0,13.777 7.223,14.0 7.5,14.0 L 8.5,14.0 C 8.777,14.0 9.0,13.777 9.0,13.5 L 9.0,9.9258 L 12.1094,13.8125 A 0.5002,0.5002 0.0 1,0 12.8906,13.1875 L 9.0,8.3242 L 9.0,2.5 C 9.0,2.223 8.777,2.0 8.5,2.0 L 7.5,2.0" fill="#000" /><path d="M 3.4824,1.9961 A 0.5,0.5 0.0 0,0 3.2773,2.9473 L 5.2773,3.9473 A 0.5,0.5 0.0 1,0 5.7227,3.0527 L 3.7227,2.0527 A 0.5,0.5 0.0 0,0 3.4824,1.9961 L 3.4824,1.9961 M 5.5019,4.9961 A 0.5,0.5 0.0 0,0 5.2773,5.0527 L 3.2773,6.0527 A 0.5,0.5 0.0 1,0 3.7227,6.9472 L 5.7227,5.9472 A 0.5,0.5 0.0 0,0 5.5019,4.996 L 5.5019,4.9961" fill="#000" /><path d="M 12.5019,1.9961 A 0.5,0.5 0.0 0,0 12.2773,2.0527 L 10.2773,3.0527 A 0.5,0.5 0.0 1,0 10.7227,3.9472 L 12.7227,2.9472 A 0.5,0.5 0.0 0,0 12.5019,1.996 L 12.5019,1.9961 M 10.4824,4.9961 A 0.5,0.5 0.0 0,0 10.2773,5.9473 L 12.2773,6.9473 A 0.5,0.5 0.0 1,0 12.7227,6.0527 L 10.7227,5.0527 A 0.5,0.5 0.0 0,0 10.4824,4.9961 L 10.4824,4.9961" fill="#000" /></svg>