<svg xmlns="http://www.w3.org/2000/svg" width="16" height="16"><path d="M 8.0,5.0 C 7.1111,5.0 6.3798,5.3892 5.8047,5.9121 C 5.2295,6.435 4.7773,7.0879 4.3398,7.7129 C 3.9023,8.3379 3.4795,8.935 3.0234,9.3496 C 2.5673,9.7642 2.1111,10.0 1.5,10.0 C 0.8427,10.009 0.8427,10.9907 1.5,11.0 L 14.5,11.0 C 14.7731,10.996 14.9922,10.7731 14.9922,10.5 C 14.9922,10.2269 14.7731,10.0043 14.5,10.0 C 13.8889,10.0 13.4327,9.7642 12.9766,9.3496 C 12.5205,8.935 12.0977,8.3379 11.6602,7.7129 C 11.2227,7.0879 10.7705,6.435 10.1953,5.9121 C 9.6202,5.3892 8.8889,5.0 8.0,5.0 M 6.5,8.0 L 9.5,8.0 A 0.5,0.5 0.0 0,1 10.0,8.5 L 10.0,9.5 A 0.5,0.5 0.0 0,1 9.5,10.0 L 6.5,10.0 A 0.5,0.5 0.0 0,1 6.0,9.5 L 6.0,8.5 A 0.5,0.5 0.0 0,1 6.5,8.0" fill="#000" /></svg>