<svg xmlns="http://www.w3.org/2000/svg" width="16" height="16"><path d="M 1.5,4.0 C 1.223,4.0 1.0,4.223 1.0,4.5 L 1.0,11.5 C 1.0,11.777 1.223,12.0 1.5,12.0 L 2.5,12.0 C 2.777,12.0 3.0,11.777 3.0,11.5 L 3.0,4.5 C 3.0,4.223 2.777,4.0 2.5,4.0 L 1.5,4.0 M 12.5,4.0 C 12.223,4.0 12.0,4.223 12.0,4.5 L 12.0,11.5 C 12.0,11.777 12.223,12.0 12.5,12.0 L 13.5,12.0 C 13.777,12.0 14.0,11.777 14.0,11.5 L 14.0,4.5 C 14.0,4.223 13.777,4.0 13.5,4.0 L 12.5,4.0 M 4.5,5.0 C 4.223,5.0 4.0,5.223 4.0,5.5 L 4.0,8.5 L 4.0,10.5 C 4.0,10.777 4.223,11.0 4.5,11.0 C 4.777,11.0 5.0,10.777 5.0,10.5 L 5.0,9.0 L 6.5,9.0 C 6.777,9.0 7.0,8.777 7.0,8.5 L 7.0,5.5 C 7.0,5.223 6.777,5.0 6.5,5.0 L 4.5,5.0 M 8.5,5.0 C 8.223,5.0 8.0,5.223 8.0,5.5 L 8.0,8.5 C 8.0,8.777 8.223,9.0 8.5,9.0 L 10.0,9.0 L 10.0,10.5 C 10.0,10.777 10.223,11.0 10.5,11.0 C 10.777,11.0 11.0,10.777 11.0,10.5 L 11.0,8.5 L 11.0,5.5 C 11.0,5.223 10.777,5.0 10.5,5.0 L 8.5,5.0" fill="#000" /></svg>