<svg xmlns="http://www.w3.org/2000/svg" width="16" height="16"><path d="M 2.0,3.5 L 2.0,10.5 A 0.5,0.5 45.0 0,0 2.5,11.0 L 7.0,11.0 L 7.0,12.0 L 5.5,12.0 C 5.223,12.0 5.0,12.223 5.0,12.5 A 0.5,0.5 45.0 0,0 5.5,13.0 L 10.5,13.0 A 0.5,0.5 135.0 0,0 11.0,12.5 C 11.0,12.223 10.777,12.0 10.5,12.0 L 9.0,12.0 L 9.0,11.0 L 13.5,11.0 A 0.5,0.5 135.0 0,0 14.0,10.5 L 14.0,3.5 A 0.5,0.5 45.0 0,0 13.5,3.0 L 2.5,3.0 A 0.5,0.5 135.0 0,0 2.0,3.5 M 3.0,4.0 L 13.0,4.0 L 13.0,10.0 L 3.0,10.0 L 3.0,4.0" fill="#000" /></svg>