<svg xmlns="http://www.w3.org/2000/svg" width="16" height="16"><path d="M 2.5,3.0 C 2.223,3.0 2.0,3.224 2.0,3.5 L 2.0,10.5 C 2.0,10.776 2.223,11.0 2.499,11.0 L 7.0,11.0 L 7.0,12.0 L 5.5,12.0 C 5.223,12.0 5.0,12.224 5.0,12.5 C 5.0,12.776 5.223,13.0 5.499,13.0 L 10.5,13.0 C 10.777,13.0 11.0,12.776 11.0,12.5 C 11.0,12.224 10.777,12.0 10.501,12.0 L 9.0,12.0 L 9.0,11.0 L 13.5,11.0 C 13.777,11.0 14.0,10.776 14.0,10.5 L 14.0,3.501 C 14.0,3.224 13.777,3.0 13.501,3.0 L 2.5,3.0 M 3.0,10.0 L 3.0,4.0 L 13.0,4.0 L 13.0,10.0 L 7.5,10.0 L 3.0,10.0" fill="#000" /></svg>