<svg xmlns="http://www.w3.org/2000/svg" width="16" height="16"><path d="M 2.0,3.5 C 2.0,3.2239 2.2239,3.0 2.5,3.0 L 13.5,3.0 C 13.7761,3.0 14.0,3.2239 14.0,3.5 L 14.0,10.5 C 14.0,10.7761 13.7761,11.0 13.5,11.0 L 9.0,11.0 L 9.0,12.0 L 10.5,12.0 C 10.7761,12.0 11.0,12.2239 11.0,12.5 C 11.0,12.7761 10.7761,13.0 10.5,13.0 L 5.5,13.0 C 5.2239,13.0 5.0,12.7761 5.0,12.5 C 5.0,12.2239 5.2239,12.0 5.5,12.0 L 7.0,12.0 L 7.0,11.0 L 2.5,11.0 C 2.2239,11.0 2.0,10.7761 2.0,10.5 C 2.0,10.5 2.0,3.5 2.0,3.5 M 13.0,10.0 L 13.0,4.0 L 3.0,4.0 L 3.0,10.0 L 13.0,10.0" fill="#000" /></svg>