<svg xmlns="http://www.w3.org/2000/svg" width="16" height="16"><path d="M 5.5,3.5 C 4.9477,3.5 4.5,3.9477 4.5,4.5 C 4.5,5.0523 4.9477,5.5 5.5,5.5 C 6.0523,5.5 6.5,5.0523 6.5,4.5 C 6.5,3.9477 6.0523,3.5 5.5,3.5 M 10.5,3.5 C 9.9477,3.5 9.5,3.9477 9.5,4.5 C 9.5,5.0523 9.9477,5.5 10.5,5.5 C 11.0523,5.5 11.5,5.0523 11.5,4.5 C 11.5,3.9477 11.0523,3.5 10.5,3.5 M 2.5,6.0 C 2.223,6.0 2.0,6.223 2.0,6.5 C 2.0,6.777 2.223,7.0 2.5,7.0 L 3.5,7.0 C 3.777,7.0 4.0,7.223 4.0,7.5 L 4.0,11.5 C 4.0,11.777 4.223,12.0 4.5,12.0 C 4.777,12.0 5.0,11.777 5.0,11.5 L 5.0,9.5 C 5.0,9.223 5.223,9.0 5.5,9.0 C 5.777,9.0 6.0,9.223 6.0,9.5 L 6.0,11.5 C 6.0,11.777 6.223,12.0 6.5,12.0 C 6.777,12.0 7.0,11.777 7.0,11.5 L 7.0,7.5 C 7.0,7.223 7.223,7.0 7.5,7.0 L 8.5,7.0 C 8.777,7.0 9.0,7.223 9.0,7.5 L 9.0,11.5 C 9.0,11.777 9.223,12.0 9.5,12.0 C 9.777,12.0 10.0,11.777 10.0,11.5 L 10.0,9.5 C 10.0,9.223 10.223,9.0 10.5,9.0 C 10.777,9.0 11.0,9.223 11.0,9.5 L 11.0,11.5 C 11.0,11.777 11.223,12.0 11.5,12.0 C 11.777,12.0 12.0,11.777 12.0,11.5 L 12.0,7.5 C 12.0,7.223 12.223,7.0 12.5,7.0 L 13.5,7.0 C 13.777,7.0 14.0,6.777 14.0,6.5 C 14.0,6.223 13.777,6.0 13.5,6.0 L 2.5,6.0" fill="#000" /></svg>