<svg xmlns="http://www.w3.org/2000/svg" width="16" height="16"><path d="M 1.5,1.0 C 1.2239,1.0 1.0,1.2239 1.0,1.5 L 1.0,13.5 C 1.0,13.7761 1.2239,14.0 1.5,14.0 C 1.7761,14.0 2.0,13.7761 2.0,13.5 L 2.0,12.0 L 14.0,12.0 L 14.0,13.5 C 14.0,13.7761 14.2239,14.0 14.5,14.0 C 14.7761,14.0 15.0,13.7761 15.0,13.5 L 15.0,9.5176 C 15.0004,9.5059 15.0004,9.4942 15.0,9.4824 L 15.0,3.5 C 15.0001,3.3481 14.9311,3.2043 14.8125,3.1094 C 14.8125,3.1094 14.0991,2.5467 12.8379,2.1484 C 12.2073,1.9493 11.4313,1.7856 10.5195,1.7363 C 9.6078,1.6871 8.5596,1.7519 7.3906,2.0117 C 7.1622,2.063 6.9998,2.2659 7.0,2.5 L 7.0,5.0 L 2.0,5.0 L 2.0,1.5 C 2.0,1.2239 1.7761,1.0 1.5,1.0 M 4.0,2.0 C 3.446,2.0 3.0,2.446 3.0,3.0 C 3.0,3.554 3.446,4.0 4.0,4.0 L 5.0,4.0 C 5.554,4.0 6.0,3.554 6.0,3.0 C 6.0,2.446 5.554,2.0 5.0,2.0 L 4.0,2.0 M 2.0,6.0 L 14.0,6.0 L 14.0,8.6191 C 13.6924,8.4642 13.3023,8.2951 12.8379,8.1484 C 12.2073,7.9493 11.4313,7.7856 10.5195,7.7363 C 9.6078,7.6871 8.5596,7.7519 7.3906,8.0117 C 7.1622,8.063 6.9998,8.2659 7.0,8.5 L 7.0,11.0 L 2.0,11.0 L 2.0,6.0 M 4.0,8.0 C 3.446,8.0 3.0,8.446 3.0,9.0 C 3.0,9.554 3.446,10.0 4.0,10.0 L 5.0,10.0 C 5.554,10.0 6.0,9.554 6.0,9.0 C 6.0,8.446 5.554,8.0 5.0,8.0 L 4.0,8.0" fill="#000" /></svg>