<svg xmlns="http://www.w3.org/2000/svg" width="16" height="16"><path d="M 1.5,1.0 C 1.2239,1.0 1.0,1.2239 1.0,1.5 L 1.0,13.5 C 1.0,13.7761 1.2239,14.0 1.5,14.0 C 1.7761,14.0 2.0,13.7761 2.0,13.5 L 2.0,12.0 L 14.0,12.0 L 14.0,13.5 C 14.0,13.7761 14.2239,14.0 14.5,14.0 C 14.7761,14.0 15.0,13.7761 15.0,13.5 L 15.0,3.5 C 14.9995,3.2514 14.8165,3.0408 14.5703,3.0059 L 7.5703,2.0059 C 7.2696,1.9632 7.0006,2.1963 7.0,2.5 L 7.0,5.0 L 2.0,5.0 L 2.0,1.5 C 2.0,1.2239 1.7761,1.0 1.5,1.0 M 4.0,2.0 C 3.446,2.0 3.0,2.446 3.0,3.0 C 3.0,3.554 3.446,4.0 4.0,4.0 L 5.0,4.0 C 5.554,4.0 6.0,3.554 6.0,3.0 C 6.0,2.446 5.554,2.0 5.0,2.0 L 4.0,2.0 M 2.0,6.0 L 14.0,6.0 L 14.0,8.9238 L 7.5703,8.0059 C 7.2696,7.9632 7.0006,8.1963 7.0,8.5 L 7.0,11.0 L 2.0,11.0 L 2.0,6.0 M 4.0,8.0 C 3.446,8.0 3.0,8.446 3.0,9.0 C 3.0,9.554 3.446,10.0 4.0,10.0 L 5.0,10.0 C 5.554,10.0 6.0,9.554 6.0,9.0 C 6.0,8.446 5.554,8.0 5.0,8.0 L 4.0,8.0" fill="#000" /></svg>