<svg xmlns="http://www.w3.org/2000/svg" width="16" height="16"><path d="M 1.5,1.0 C 1.2239,1.0 1.0,1.2239 1.0,1.5 L 1.0,13.5 C 1.0,13.7761 1.2239,14.0 1.5,14.0 C 1.7761,14.0 2.0,13.7761 2.0,13.5 L 2.0,12.0 L 14.0,12.0 L 14.0,13.5 C 14.0,13.7761 14.2239,14.0 14.5,14.0 C 14.7761,14.0 15.0,13.7761 15.0,13.5 L 15.0,3.5 C 15.0,3.2239 14.7761,3.0 14.5,3.0 C 14.2239,3.0 14.0,3.2239 14.0,3.5 L 14.0,5.0 L 2.0,5.0 L 2.0,1.5 C 2.0,1.2239 1.7761,1.0 1.5,1.0 M 4.0,2.0 C 3.4477,2.0 3.0,2.4477 3.0,3.0 C 3.0,3.5523 3.4477,4.0 4.0,4.0 L 5.0,4.0 C 5.5523,4.0 6.0,3.5523 6.0,3.0 C 6.0,2.4477 5.5523,2.0 5.0,2.0 L 4.0,2.0 M 7.4512,2.002 C 7.195,2.0272 6.9998,2.2426 7.0,2.5 L 7.0,3.5 C 7.0,3.7761 7.2239,4.0 7.5,4.0 L 12.5,4.0 C 13.1028,3.999 13.1885,3.1289 12.5977,3.0098 L 7.5977,2.0098 C 7.5495,1.9998 7.5001,1.9972 7.4512,2.0018 L 7.4512,2.002 M 2.0,6.0 L 14.0,6.0 L 14.0,11.0 L 2.0,11.0 L 2.0,6.0 M 4.0,8.0 C 3.4477,8.0 3.0,8.4477 3.0,9.0 C 3.0,9.5523 3.4477,10.0 4.0,10.0 L 5.0,10.0 C 5.5523,10.0 6.0,9.5523 6.0,9.0 C 6.0,8.4477 5.5523,8.0 5.0,8.0 L 4.0,8.0 M 7.4512,8.002 C 7.195,8.0272 6.9998,8.2426 7.0,8.5 L 7.0,9.5 C 7.0,9.7761 7.2239,10.0 7.5,10.0 L 12.5,10.0 C 13.1028,9.999 13.1885,9.1289 12.5977,9.0098 L 7.5977,8.0098 C 7.5495,7.9998 7.5001,7.9972 7.4512,8.0018 L 7.4512,8.002" fill="#000" /></svg>