<svg xmlns="http://www.w3.org/2000/svg" width="16" height="16"><path d="M 6.0,2.0 C 4.7212,2.0 3.6798,2.852 3.0215,3.9492 C 2.3631,5.0465 2.0,6.4572 2.0,8.0 C 2.0,9.5428 2.3631,10.9535 3.0215,12.0508 C 3.6798,13.148 4.7212,14.0 6.0,14.0 L 9.0,14.0 C 10.2788,14.0 11.3202,13.148 11.9785,12.0508 C 12.6369,10.9535 13.0,9.5428 13.0,8.0 C 13.0,6.4572 12.6369,5.0465 11.9785,3.9492 C 11.3202,2.852 10.2788,2.0 9.0,2.0 L 6.0,2.0 M 9.0,4.0 C 9.3781,4.0 9.8362,4.2661 10.2637,4.9785 C 10.6911,5.6909 11.0,6.7814 11.0,8.0 C 11.0,9.2186 10.6911,10.3091 10.2637,11.0215 C 9.8362,11.7339 9.3781,12.0 9.0,12.0 C 8.6219,12.0 8.1638,11.7339 7.7363,11.0215 C 7.3089,10.3091 7.0,9.2186 7.0,8.0 C 7.0,6.7814 7.3089,5.6909 7.7363,4.9785 C 8.1638,4.2661 8.6219,4.0 9.0,4.0 M 9.0,5.0 C 8.9505,5.0 8.8822,5.0177 8.7676,5.1309 C 8.702,5.1956 8.629,5.2898 8.5566,5.4102 C 8.8346,6.1621 9.0,7.0499 9.0,8.0 C 9.0,8.9501 8.8346,9.8379 8.5566,10.5898 C 8.629,10.7102 8.702,10.8044 8.7676,10.8691 C 8.8822,10.9823 8.9505,11.0 9.0,11.0 C 9.0495,11.0 9.1178,10.9823 9.2324,10.8691 C 9.3471,10.756 9.484,10.5517 9.6016,10.2773 C 9.7633,9.9 9.8872,9.389 9.9512,8.8144 C 9.9751,8.5462 10.0,8.2781 10.0,8.0 C 10.0,7.7219 9.9751,7.4538 9.9512,7.1856 C 9.8872,6.611 9.7633,6.1 9.6016,5.7227 C 9.484,5.4483 9.3471,5.244 9.2324,5.1309 C 9.1178,5.0177 9.0495,5.0 9.0,5.0" fill="#000" /></svg>