<svg xmlns="http://www.w3.org/2000/svg" width="16" height="16"><path d="M 5.0,2.0 C 4.446,2.0 4.0,2.446 4.0,3.0 L 4.0,12.0 C 4.0,12.554 4.446,13.0 5.0,13.0 L 7.5,13.0 C 7.5,12.8674 7.5527,12.7402 7.6465,12.6465 L 8.6465,11.6465 C 8.8413,11.4516 9.1587,11.4516 9.3535,11.6465 C 9.5487,11.8417 9.5487,12.1583 9.3535,12.3535 L 8.707,13.0 L 10.0,13.0 C 10.554,13.0 11.0,12.554 11.0,12.0 L 11.0,3.0 C 11.0,2.446 10.554,2.0 10.0,2.0 L 6.707,2.0 L 7.3535,2.6465 C 7.5487,2.8417 7.5487,3.1583 7.3535,3.3535 C 7.1583,3.5487 6.8417,3.5487 6.6465,3.3535 L 5.6465,2.3535 C 5.5527,2.2598 5.5,2.1326 5.5,2.0 L 5.0,2.0 M 9.3535,3.6465 C 9.5487,3.8417 9.5487,4.1583 9.3535,4.3535 L 8.3535,5.3535 C 8.1583,5.5487 7.8417,5.5487 7.6465,5.3535 C 7.4513,5.1583 7.4513,4.8417 7.6465,4.6465 L 8.6465,3.6465 C 8.8413,3.4516 9.1587,3.4516 9.3535,3.6465 M 6.3535,5.6465 L 7.3535,6.6465 C 7.5487,6.8417 7.5487,7.1583 7.3535,7.3535 C 7.1583,7.5487 6.8417,7.5487 6.6465,7.3535 L 5.6465,6.3535 C 5.4513,6.1583 5.4513,5.8417 5.6465,5.6465 C 5.8413,5.4516 6.1587,5.4516 6.3535,5.6465 M 9.3535,7.6465 C 9.5487,7.8417 9.5487,8.1583 9.3535,8.3535 L 8.3535,9.3535 C 8.1583,9.5487 7.8417,9.5487 7.6465,9.3535 C 7.4513,9.1583 7.4513,8.8417 7.6465,8.6465 L 8.6465,7.6465 C 8.8413,7.4516 9.1587,7.4516 9.3535,7.6465 M 6.3535,9.6465 L 7.3535,10.6465 C 7.5487,10.8417 7.5487,11.1583 7.3535,11.3535 C 7.1583,11.5487 6.8417,11.5487 6.6465,11.3535 L 5.6465,10.3535 C 5.4513,10.1583 5.4513,9.8417 5.6465,9.6465 C 5.8413,9.4516 6.1587,9.4516 6.3535,9.6465" fill="#000" /></svg>