<svg xmlns="http://www.w3.org/2000/svg" width="16" height="16"><path d="M 6.0,2.0 C 4.7212,2.0 3.6798,2.852 3.0215,3.9492 C 2.3631,5.0465 2.0,6.4572 2.0,8.0 C 2.0,9.5428 2.3631,10.9535 3.0215,12.0508 C 3.6798,13.148 4.7212,14.0 6.0,14.0 L 9.0,14.0 C 10.2788,14.0 11.3202,13.148 11.9785,12.0508 C 12.6369,10.9535 13.0,9.5428 13.0,8.0 C 13.0,6.4572 12.6369,5.0465 11.9785,3.9492 C 11.3202,2.852 10.2788,2.0 9.0,2.0 L 6.0,2.0 M 8.9941,4.0 C 8.9961,4.0 8.9921,4.0 8.9941,4.0 C 9.3722,4.0 9.8362,4.2661 10.2637,4.9785 C 10.6911,5.6909 11.0,6.7814 11.0,8.0 C 11.0,9.2186 10.6911,10.3091 10.2637,11.0215 C 9.8362,11.7339 9.3781,12.0 9.0,12.0 C 8.998,12.0 8.996,12.0 8.994,12.0 C 9.63,10.9266 9.9999,9.5285 9.9999,8.0 C 9.9999,6.4715 9.63,5.0734 8.994,4.0 L 8.9941,4.0 M 8.1094,4.4707 C 8.6488,5.3638 9.0,6.6154 9.0,8.0 C 9.0,9.3846 8.6488,10.6362 8.1094,11.5293 C 7.9841,11.394 7.8591,11.2261 7.7363,11.0215 C 7.3089,10.3091 7.0,9.2186 7.0,8.0 C 7.0,6.7814 7.3089,5.6909 7.7363,4.9785 C 7.8591,4.7739 7.9841,4.606 8.1094,4.4707 L 8.1094,4.4707" fill="#000" /></svg>