<svg xmlns="http://www.w3.org/2000/svg" width="16" height="16"><path d="M 2.0,5.5 C 2.0,7.4642 3.049,9.2816 4.75,10.2637 C 5.4515,10.6687 6.2211,10.9037 7.002,10.9746 C 7.0011,10.983 7.0,10.9915 7.0,11.0 L 7.0,13.0 L 3.5,13.0 C 3.2239,13.0 3.0,13.2239 3.0,13.5 C 3.0,13.7761 3.2239,14.0 3.5,14.0 L 11.5,14.0 C 11.7761,14.0 12.0,13.7761 12.0,13.5 C 12.0,13.2239 11.7761,13.0 11.5,13.0 L 8.0,13.0 L 8.0,11.0 C 7.9995,10.9915 7.999,10.9831 7.998,10.9746 C 8.7788,10.9037 9.5484,10.6687 10.2499,10.2637 C 11.9509,9.2816 12.9999,7.4642 12.9999,5.5 L 12.9999,4.5 C 12.9999,4.2239 12.7761,4.0 12.5,4.0 C 12.2238,4.0 12.0,4.2239 12.0,4.5 L 12.0,5.5 C 12.0,7.1085 11.143,8.5922 9.75,9.3965 C 8.357,10.2007 6.643,10.2007 5.25,9.3965 C 3.857,8.5922 3.0,7.1085 3.0,5.5 L 3.0,4.5 C 3.0,4.2239 2.7761,4.0 2.5,4.0 C 2.2238,4.0 2.0,4.2239 2.0,4.5 L 2.0,5.5 M 7.5,2.0 C 5.567,2.0 4.0,3.567 4.0,5.5 C 4.0,7.433 5.567,9.0 7.5,9.0 C 9.433,9.0 11.0,7.433 11.0,5.5 C 11.0,3.567 9.433,2.0 7.5,2.0 M 7.5,3.0 C 7.7761,3.0 8.0,3.2239 8.0,3.5 C 8.0,3.7761 7.7761,4.0 7.5,4.0 C 6.6657,4.0 6.0,4.6656 6.0,5.5 C 6.0,5.7761 5.7761,6.0 5.5,6.0 C 5.2239,6.0 5.0,5.7761 5.0,5.5 C 5.0,4.1252 6.1252,3.0 7.5,3.0" fill="#000" /></svg>