<svg xmlns="http://www.w3.org/2000/svg" width="16" height="16"><path d="M 3.5,1.0 C 3.223,1.0 3.0,1.224 3.0,1.5 L 3.0,14.5 C 3.0,14.776 3.223,15.0 3.499,15.0 L 12.5,15.0 C 12.777,15.0 13.0,14.776 13.0,14.5 L 13.0,1.501 C 13.0,1.224 12.777,1.0 12.501,1.0 L 3.5,1.0 M 4.499,3.0 L 9.5,3.0 C 9.777,3.0 10.0,3.224 10.0,3.5 L 10.0,12.5 C 10.0,12.776 9.777,13.0 9.501,13.0 L 4.5,13.0 C 4.223,13.0 4.0,12.776 4.0,12.5 L 4.0,3.501 C 4.0,3.224 4.223,3.0 4.499,3.0 M 7.0,4.0 C 5.896,4.0 5.001,4.895 5.0,5.999 L 5.0,9.5 C 5.0,9.776 5.223,10.0 5.499,10.0 L 6.0,10.0 L 6.0,11.0 C 6.0,11.552 6.448,12.0 7.0,12.0 C 7.552,12.0 8.0,11.552 8.0,11.0 L 8.0,10.0 L 8.5,10.0 C 8.777,10.0 9.0,9.776 9.0,9.5 L 9.0,6.002 C 9.0,4.895 8.104,4.0 7.0,4.0 M 6.0,6.0 C 6.0,5.448 6.448,5.0 7.0,5.0 C 7.552,5.0 8.0,5.448 8.0,6.0 L 8.0,9.0 L 6.0,9.0 L 6.0,6.0 M 11.0,3.5 C 11.0,3.224 11.224,3.0 11.5,3.0 C 11.776,3.0 12.0,3.224 12.0,3.5 L 12.0,4.5 C 12.0,4.776 11.776,5.0 11.5,5.0 C 11.224,5.0 11.0,4.776 11.0,4.5 L 11.0,3.5" fill="#000" /></svg>