<svg xmlns="http://www.w3.org/2000/svg" width="16" height="16"><path d="M 3.5,1.0 C 3.223,1.0 3.0,1.223 3.0,1.5 L 3.0,14.5 C 3.0,14.777 3.223,15.0 3.5,15.0 L 12.5,15.0 C 12.777,15.0 13.0,14.777 13.0,14.5 L 13.0,1.5 C 13.0,1.223 12.777,1.0 12.5,1.0 L 3.5,1.0 M 4.5,3.0 L 9.5,3.0 C 9.777,3.0 10.0,3.223 10.0,3.5 L 10.0,11.5 C 10.0,11.777 9.777,12.0 9.5,12.0 L 4.5,12.0 C 4.223,12.0 4.0,11.777 4.0,11.5 L 4.0,3.5 C 4.0,3.223 4.223,3.0 4.5,3.0 M 11.5,3.0 C 11.777,3.0 12.0,3.223 12.0,3.5 L 12.0,4.5 C 12.0,4.777 11.777,5.0 11.5,5.0 C 11.223,5.0 11.0,4.777 11.0,4.5 L 11.0,3.5 C 11.0,3.223 11.223,3.0 11.5,3.0 M 5.5,4.0 A 0.5,0.5 0.0 0,0 5.0,4.5 L 5.0,9.0 C 5.0,9.7137 5.3819,10.3756 6.0,10.7324 C 6.6181,11.0893 7.3819,11.0893 8.0,10.7324 C 8.6181,10.3756 9.0,9.7137 9.0,9.0 L 9.0,6.5 A 0.5,0.5 0.0 0,0 8.0,6.5 C 8.0,7.3333 7.6465,7.6465 7.1465,8.1465 A 0.5,0.5 0.0 0,0 7.1465,8.8535 A 0.5,0.5 0.0 0,0 7.8535,8.8535 C 7.9015,8.8055 7.95,8.7275 8.0,8.6758 L 8.0,9.0 C 8.0,9.3581 7.8101,9.6862 7.5,9.8652 C 7.1899,10.0443 6.8101,10.0443 6.5,9.8652 C 6.1899,9.6862 6.0,9.3581 6.0,9.0 L 6.0,4.5 A 0.5,0.5 0.0 0,0 5.5,4.0" fill="#000" /></svg>