<svg xmlns="http://www.w3.org/2000/svg" width="16" height="16"><path d="M 3.5,1.0 C 3.223,1.0 3.0,1.223 3.0,1.5 L 3.0,14.5 C 3.0,14.777 3.223,15.0 3.5,15.0 L 12.5,15.0 C 12.777,15.0 13.0,14.777 13.0,14.5 L 13.0,1.5 C 13.0,1.223 12.777,1.0 12.5,1.0 L 3.5,1.0 M 4.5,3.0 L 9.5,3.0 C 9.777,3.0 10.0,3.223 10.0,3.5 L 10.0,11.5 C 10.0,11.777 9.777,12.0 9.5,12.0 L 4.5,12.0 C 4.223,12.0 4.0,11.777 4.0,11.5 L 4.0,3.5 C 4.0,3.223 4.223,3.0 4.5,3.0 M 11.5,3.0 C 11.777,3.0 12.0,3.223 12.0,3.5 L 12.0,4.5 C 12.0,4.777 11.777,5.0 11.5,5.0 C 11.223,5.0 11.0,4.777 11.0,4.5 L 11.0,3.5 C 11.0,3.223 11.223,3.0 11.5,3.0 M 7.0,4.5 A 0.5,0.5 0.0 0,0 6.5664,4.75 L 6.1348,5.5 C 5.8938,5.9174 5.9882,6.4558 6.3574,6.7656 C 6.7266,7.0754 7.2734,7.0754 7.6426,6.7656 C 8.0118,6.4558 8.1062,5.9174 7.8652,5.5 L 7.4336,4.75 A 0.5,0.5 0.0 0,0 7.0,4.5 M 6.5,8.0 C 6.223,8.0 6.0,8.223 6.0,8.5 L 6.0,10.5 C 6.0,10.777 6.223,11.0 6.5,11.0 L 7.5,11.0 C 7.777,11.0 8.0,10.777 8.0,10.5 L 8.0,8.5 C 8.0,8.223 7.777,8.0 7.5,8.0 L 6.5,8.0" fill="#000" /></svg>