<svg xmlns="http://www.w3.org/2000/svg" width="16" height="16"><path d="M 3.5,1.0 C 3.223,1.0 3.0,1.223 3.0,1.5 L 3.0,14.5 C 3.0,14.777 3.223,15.0 3.5,15.0 L 12.5,15.0 C 12.777,15.0 13.0,14.777 13.0,14.5 L 13.0,1.5 C 13.0,1.223 12.777,1.0 12.5,1.0 L 3.5,1.0 M 4.5,4.0 L 9.5,4.0 C 9.777,4.0 10.0,4.223 10.0,4.5 L 10.0,11.5 C 10.0,11.777 9.777,12.0 9.5,12.0 L 4.5,12.0 C 4.223,12.0 4.0,11.777 4.0,11.5 L 4.0,4.5 C 4.0,4.223 4.223,4.0 4.5,4.0 M 11.5,4.0 C 11.777,4.0 12.0,4.223 12.0,4.5 L 12.0,5.5 C 12.0,5.777 11.777,6.0 11.5,6.0 C 11.223,6.0 11.0,5.777 11.0,5.5 L 11.0,4.5 C 11.0,4.223 11.223,4.0 11.5,4.0 M 6.0,6.0 L 6.0,7.0 L 5.0,7.0 L 5.0,9.0 L 6.0,9.0 L 6.0,10.0 L 8.0,10.0 L 8.0,9.0 L 9.0,9.0 L 9.0,7.0 L 8.0,7.0 L 8.0,6.0 L 6.0,6.0" fill="#000" /></svg>