<svg xmlns="http://www.w3.org/2000/svg" width="16" height="16"><path d="M 4.5,2.0 C 4.223,2.0 4.0,2.223 4.0,2.5 L 4.0,13.5 C 4.0,13.777 4.223,14.0 4.5,14.0 L 11.5,14.0 C 11.777,14.0 12.0,13.777 12.0,13.5 L 12.0,2.5 C 12.0,2.223 11.777,2.0 11.5,2.0 L 4.5,2.0 M 5.5,5.0 L 8.5,5.0 C 8.777,5.0 9.0,5.223 9.0,5.5 L 9.0,10.5 C 9.0,10.777 8.777,11.0 8.5,11.0 L 5.5,11.0 C 5.223,11.0 5.0,10.777 5.0,10.5 L 5.0,5.5 C 5.0,5.223 5.223,5.0 5.5,5.0 M 10.5,5.0 C 10.777,5.0 11.0,5.223 11.0,5.5 L 11.0,6.5 C 11.0,6.777 10.777,7.0 10.5,7.0 C 10.223,7.0 10.0,6.777 10.0,6.5 L 10.0,5.5 C 10.0,5.223 10.223,5.0 10.5,5.0 M 6.0,8.0 L 6.0,9.0 C 6.0,9.5523 6.4477,10.0 7.0,10.0 C 7.5523,10.0 8.0,9.5523 8.0,9.0 L 8.0,8.0 L 6.0,8.0" fill="#000" /></svg>