<svg xmlns="http://www.w3.org/2000/svg" width="16" height="16"><path d="M 3.5,1.0 C 3.223,1.0 3.0,1.223 3.0,1.5 L 3.0,14.5 C 3.0,14.777 3.223,15.0 3.5,15.0 L 12.5,15.0 C 12.777,15.0 13.0,14.777 13.0,14.5 L 13.0,1.5 C 13.0,1.223 12.777,1.0 12.5,1.0 L 3.5,1.0 M 4.5,3.0 L 9.5,3.0 C 9.777,3.0 10.0,3.223 10.0,3.5 L 10.0,11.5 C 10.0,11.777 9.777,12.0 9.5,12.0 L 4.5,12.0 C 4.223,12.0 4.0,11.777 4.0,11.5 L 4.0,3.5 C 4.0,3.223 4.223,3.0 4.5,3.0 M 11.5,3.0 C 11.777,3.0 12.0,3.223 12.0,3.5 L 12.0,5.5 C 12.0,5.777 11.777,6.0 11.5,6.0 C 11.223,6.0 11.0,5.777 11.0,5.5 L 11.0,3.5 C 11.0,3.223 11.223,3.0 11.5,3.0 M 6.0,5.5 L 6.0,6.0 L 5.5,6.0 A 0.5,0.5 135.0 0,0 5.0,6.5 L 5.0,7.5 A 0.5,0.5 45.0 0,0 5.5,8.0 L 6.0,8.0 L 6.0,8.5 A 0.5,0.5 45.0 0,0 6.5,9.0 L 7.5,9.0 A 0.5,0.5 135.0 0,0 8.0,8.5 L 8.0,8.0 L 8.5,8.0 A 0.5,0.5 135.0 0,0 9.0,7.5 L 9.0,6.5 A 0.5,0.5 45.0 0,0 8.5,6.0 L 8.0,6.0 L 8.0,5.5 A 0.5,0.5 45.0 0,0 7.5,5.0 L 6.5,5.0 A 0.5,0.5 135.0 0,0 6.0,5.5" fill="#000" /></svg>