<svg xmlns="http://www.w3.org/2000/svg" width="16" height="16"><path d="M 1.5,1.0 C 1.224,1.0 1.0,1.224 1.0,1.5 L 1.0,14.5 C 1.0,14.776 1.224,15.0 1.5,15.0 L 13.5,15.0 C 13.776,15.0 14.0,14.776 14.0,14.5 L 14.0,1.5 C 14.0,1.224 13.776,1.0 13.5,1.0 L 1.5,1.0 M 2.0,2.5 C 2.0,2.224 2.224,2.0 2.5,2.0 L 10.5,2.0 C 10.776,2.0 11.0,2.224 11.0,2.5 L 11.0,12.5 C 11.0,12.776 10.776,13.0 10.5,13.0 L 2.5,13.0 C 2.224,13.0 2.0,12.776 2.0,12.5 L 2.0,2.5 M 3.5,3.0 C 3.224,3.0 3.0,3.224 3.0,3.5 L 3.0,4.0 L 10.0,4.0 L 10.0,3.501 C 10.0,3.501 10.0,3.487 10.0,3.487 C 10.0,3.487 10.0,3.474 10.0,3.474 C 10.0,3.461 9.998,3.454 9.998,3.454 C 9.998,3.454 9.996,3.438 9.996,3.438 C 9.995,3.426 9.994,3.419 9.994,3.419 C 9.994,3.419 9.992,3.408 9.992,3.408 C 9.992,3.408 9.989,3.395 9.989,3.395 C 9.989,3.395 9.985,3.38 9.985,3.38 C 9.983,3.369 9.981,3.363 9.981,3.363 C 9.977,3.351 9.975,3.344 9.975,3.344 C 9.97,3.33 9.968,3.323 9.968,3.323 C 9.968,3.323 9.963,3.311 9.963,3.311 C 9.963,3.311 9.958,3.299 9.958,3.299 C 9.958,3.299 9.952,3.285 9.952,3.285 C 9.952,3.285 9.945,3.271 9.945,3.271 C 9.945,3.271 9.936,3.256 9.936,3.256 C 9.93,3.245 9.927,3.24 9.927,3.24 C 9.92,3.229 9.916,3.223 9.916,3.223 C 9.908,3.211 9.903,3.205 9.903,3.205 C 9.903,3.205 9.896,3.195 9.896,3.195 C 9.886,3.182 9.88,3.175 9.88,3.175 C 9.869,3.163 9.866,3.159 9.866,3.159 C 9.854,3.147 9.85,3.143 9.85,3.143 C 9.85,3.143 9.838,3.132 9.838,3.132 C 9.838,3.132 9.825,3.12 9.825,3.12 C 9.825,3.12 9.81,3.108 9.81,3.108 C 9.799,3.099 9.793,3.095 9.793,3.095 C 9.781,3.086 9.774,3.082 9.774,3.082 C 9.762,3.074 9.759,3.072 9.759,3.072 C 9.759,3.072 9.747,3.065 9.747,3.065 C 9.747,3.065 9.735,3.059 9.735,3.059 C 9.735,3.059 9.721,3.052 9.721,3.052 C 9.721,3.052 9.706,3.044 9.706,3.044 C 9.695,3.04 9.69,3.037 9.69,3.037 C 9.679,3.033 9.676,3.032 9.676,3.032 C 9.664,3.027 9.66,3.026 9.66,3.026 C 9.66,3.026 9.649,3.023 9.649,3.023 C 9.649,3.023 9.636,3.019 9.636,3.019 C 9.636,3.019 9.622,3.015 9.622,3.015 C 9.622,3.015 9.61,3.012 9.61,3.012 C 9.61,3.012 9.596,3.009 9.596,3.009 C 9.584,3.007 9.58,3.006 9.58,3.006 C 9.58,3.006 9.567,3.004 9.567,3.004 C 9.567,3.004 9.555,3.003 9.555,3.003 C 9.544,3.002 9.54,3.002 9.54,3.002 C 9.54,3.002 9.529,3.0 9.529,3.0 C 9.529,3.0 9.518,3.0 9.518,3.0 C 9.518,3.0 9.507,3.0 9.507,3.0 L 9.495,3.0 C 9.495,3.0 9.484,3.0 9.484,3.0 C 9.473,3.0 9.47,3.0 9.47,3.0 C 9.47,3.0 9.458,3.002 9.458,3.002 C 9.458,3.002 9.446,3.003 9.446,3.003 C 9.446,3.003 9.435,3.004 9.435,3.004 C 9.435,3.004 9.424,3.006 9.424,3.006 C 9.413,3.008 9.41,3.008 9.41,3.008 C 9.399,3.01 9.395,3.011 9.395,3.011 C 9.395,3.011 9.382,3.014 9.382,3.014 C 9.382,3.014 9.37,3.017 9.37,3.017 C 9.359,3.02 9.356,3.021 9.356,3.021 C 9.345,3.025 9.339,3.026 9.339,3.026 C 9.339,3.026 9.325,3.031 9.325,3.031 C 9.325,3.031 9.313,3.036 9.313,3.036 C 9.301,3.041 9.298,3.042 9.298,3.042 C 9.287,3.048 9.281,3.05 9.281,3.05 C 9.281,3.05 9.268,3.057 9.268,3.057 C 9.268,3.057 9.257,3.063 9.257,3.063 C 9.245,3.07 9.239,3.073 9.239,3.073 C 9.239,3.073 9.227,3.081 9.227,3.081 C 9.215,3.089 9.21,3.092 9.21,3.092 C 9.21,3.092 9.198,3.101 9.198,3.101 L 8.5,3.65 L 7.809,3.107 C 7.809,3.107 7.794,3.096 7.794,3.096 C 7.794,3.096 7.783,3.088 7.783,3.088 C 7.783,3.088 7.773,3.081 7.773,3.081 C 7.773,3.081 7.761,3.073 7.761,3.073 C 7.75,3.067 7.743,3.063 7.743,3.063 C 7.743,3.063 7.732,3.057 7.732,3.057 C 7.732,3.057 7.719,3.05 7.719,3.05 C 7.708,3.045 7.702,3.042 7.702,3.042 C 7.69,3.037 7.686,3.036 7.686,3.036 C 7.686,3.036 7.675,3.031 7.675,3.031 C 7.675,3.031 7.661,3.026 7.661,3.026 C 7.65,3.023 7.644,3.021 7.644,3.021 C 7.633,3.018 7.63,3.017 7.63,3.017 C 7.63,3.017 7.618,3.014 7.618,3.014 C 7.618,3.014 7.605,3.011 7.605,3.011 C 7.605,3.011 7.594,3.009 7.594,3.009 C 7.584,3.007 7.581,3.007 7.581,3.007 C 7.581,3.007 7.571,3.005 7.571,3.005 C 7.571,3.005 7.558,3.003 7.558,3.003 C 7.558,3.003 7.546,3.002 7.546,3.002 C 7.546,3.002 7.536,3.0 7.536,3.0 C 7.525,3.0 7.522,3.0 7.522,3.0 C 7.522,3.0 7.512,3.0 7.512,3.0 L 7.501,3.0 C 7.501,3.0 7.49,3.0 7.49,3.0 C 7.49,3.0 7.478,3.0 7.478,3.0 C 7.478,3.0 7.467,3.0 7.467,3.0 C 7.467,3.0 7.454,3.002 7.454,3.002 C 7.454,3.002 7.442,3.003 7.442,3.003 C 7.442,3.003 7.429,3.005 7.429,3.005 C 7.429,3.005 7.419,3.007 7.419,3.007 C 7.419,3.007 7.406,3.009 7.406,3.009 C 7.406,3.009 7.395,3.011 7.395,3.011 C 7.395,3.011 7.382,3.014 7.382,3.014 C 7.382,3.014 7.37,3.017 7.37,3.017 C 7.359,3.02 7.356,3.021 7.356,3.021 C 7.345,3.025 7.339,3.026 7.339,3.026 C 7.339,3.026 7.325,3.031 7.325,3.031 C 7.325,3.031 7.314,3.036 7.314,3.036 C 7.314,3.036 7.303,3.04 7.303,3.04 C 7.303,3.04 7.289,3.046 7.289,3.046 C 7.289,3.046 7.274,3.054 7.274,3.054 C 7.274,3.054 7.262,3.06 7.262,3.06 C 7.262,3.06 7.247,3.069 7.247,3.069 C 7.247,3.069 7.233,3.078 7.233,3.078 C 7.233,3.078 7.217,3.088 7.217,3.088 C 7.217,3.088 7.206,3.096 7.206,3.096 C 7.196,3.103 7.191,3.107 7.191,3.107 L 6.5,3.65 L 5.809,3.107 C 5.809,3.107 5.794,3.096 5.794,3.096 C 5.794,3.096 5.783,3.088 5.783,3.088 C 5.783,3.088 5.773,3.081 5.773,3.081 C 5.773,3.081 5.761,3.073 5.761,3.073 C 5.75,3.067 5.743,3.063 5.743,3.063 C 5.743,3.063 5.732,3.057 5.732,3.057 C 5.732,3.057 5.719,3.05 5.719,3.05 C 5.708,3.045 5.702,3.042 5.702,3.042 C 5.69,3.037 5.686,3.036 5.686,3.036 C 5.686,3.036 5.675,3.031 5.675,3.031 C 5.675,3.031 5.661,3.026 5.661,3.026 C 5.65,3.023 5.644,3.021 5.644,3.021 C 5.633,3.018 5.63,3.017 5.63,3.017 C 5.63,3.017 5.618,3.014 5.618,3.014 C 5.618,3.014 5.605,3.011 5.605,3.011 C 5.605,3.011 5.594,3.009 5.594,3.009 C 5.584,3.007 5.581,3.007 5.581,3.007 C 5.581,3.007 5.571,3.005 5.571,3.005 C 5.571,3.005 5.558,3.003 5.558,3.003 C 5.558,3.003 5.546,3.002 5.546,3.002 C 5.546,3.002 5.536,3.0 5.536,3.0 C 5.525,3.0 5.522,3.0 5.522,3.0 C 5.522,3.0 5.512,3.0 5.512,3.0 L 5.501,3.0 C 5.501,3.0 5.49,3.0 5.49,3.0 C 5.49,3.0 5.478,3.0 5.478,3.0 C 5.478,3.0 5.467,3.0 5.467,3.0 C 5.467,3.0 5.454,3.002 5.454,3.002 C 5.454,3.002 5.442,3.003 5.442,3.003 C 5.442,3.003 5.429,3.005 5.429,3.005 C 5.429,3.005 5.419,3.007 5.419,3.007 C 5.419,3.007 5.406,3.009 5.406,3.009 C 5.406,3.009 5.395,3.011 5.395,3.011 C 5.395,3.011 5.382,3.014 5.382,3.014 C 5.382,3.014 5.37,3.017 5.37,3.017 C 5.359,3.02 5.356,3.021 5.356,3.021 C 5.345,3.025 5.339,3.026 5.339,3.026 C 5.339,3.026 5.325,3.031 5.325,3.031 C 5.325,3.031 5.314,3.036 5.314,3.036 C 5.314,3.036 5.303,3.04 5.303,3.04 C 5.303,3.04 5.289,3.046 5.289,3.046 C 5.289,3.046 5.274,3.054 5.274,3.054 C 5.274,3.054 5.262,3.06 5.262,3.06 C 5.262,3.06 5.247,3.069 5.247,3.069 C 5.247,3.069 5.233,3.078 5.233,3.078 C 5.233,3.078 5.217,3.088 5.217,3.088 C 5.217,3.088 5.206,3.096 5.206,3.096 C 5.196,3.103 5.191,3.107 5.191,3.107 L 4.5,3.65 L 3.809,3.107 C 3.724,3.04 3.617,3.0 3.5,3.0 M 3.137,5.0 C 3.454,6.414 3.454,8.586 3.137,10.0 L 9.863,10.0 C 9.546,8.586 9.546,6.414 9.863,5.0 L 3.137,5.0 M 3.0,11.0 L 3.0,11.5 C 3.0,11.776 3.224,12.0 3.5,12.0 C 3.617,12.0 3.724,11.96 3.809,11.893 L 4.5,11.35 L 5.191,11.893 C 5.218,11.914 5.246,11.932 5.276,11.947 C 5.276,11.947 5.29,11.954 5.29,11.954 C 5.29,11.954 5.302,11.959 5.302,11.959 C 5.302,11.959 5.314,11.964 5.314,11.964 C 5.314,11.964 5.325,11.969 5.325,11.969 C 5.325,11.969 5.336,11.972 5.336,11.972 C 5.347,11.976 5.351,11.977 5.351,11.977 C 5.351,11.977 5.364,11.981 5.364,11.981 C 5.375,11.984 5.38,11.986 5.38,11.986 C 5.38,11.986 5.395,11.989 5.395,11.989 C 5.395,11.989 5.408,11.992 5.408,11.992 C 5.408,11.992 5.419,11.993 5.419,11.993 C 5.419,11.993 5.429,11.995 5.429,11.995 C 5.429,11.995 5.442,11.997 5.442,11.997 C 5.453,11.998 5.455,11.998 5.455,11.998 C 5.455,11.998 5.468,12.0 5.468,12.0 C 5.468,12.0 5.479,12.0 5.479,12.0 C 5.479,12.0 5.49,12.0 5.49,12.0 L 5.501,12.0 C 5.501,12.0 5.513,12.0 5.513,12.0 C 5.513,12.0 5.524,12.0 5.524,12.0 C 5.524,12.0 5.537,12.0 5.537,12.0 C 5.537,12.0 5.548,11.998 5.548,11.998 C 5.56,11.996 5.562,11.996 5.562,11.996 C 5.562,11.996 5.576,11.994 5.576,11.994 C 5.576,11.994 5.586,11.993 5.586,11.993 C 5.586,11.993 5.598,11.99 5.598,11.99 C 5.598,11.99 5.612,11.987 5.612,11.987 C 5.612,11.987 5.628,11.984 5.628,11.984 C 5.628,11.984 5.64,11.98 5.64,11.98 C 5.651,11.977 5.654,11.976 5.654,11.976 C 5.666,11.972 5.669,11.971 5.669,11.971 C 5.669,11.971 5.68,11.967 5.68,11.967 C 5.68,11.967 5.692,11.962 5.692,11.962 C 5.692,11.962 5.704,11.957 5.704,11.957 C 5.704,11.957 5.717,11.951 5.717,11.951 C 5.754,11.932 5.782,11.914 5.809,11.893 L 6.5,11.35 L 7.191,11.893 C 7.218,11.914 7.246,11.932 7.276,11.947 C 7.276,11.947 7.29,11.954 7.29,11.954 C 7.29,11.954 7.302,11.959 7.302,11.959 C 7.302,11.959 7.314,11.964 7.314,11.964 C 7.314,11.964 7.325,11.969 7.325,11.969 C 7.325,11.969 7.336,11.972 7.336,11.972 C 7.347,11.976 7.351,11.977 7.351,11.977 C 7.351,11.977 7.364,11.981 7.364,11.981 C 7.375,11.984 7.38,11.986 7.38,11.986 C 7.38,11.986 7.395,11.989 7.395,11.989 C 7.395,11.989 7.408,11.992 7.408,11.992 C 7.408,11.992 7.419,11.993 7.419,11.993 C 7.419,11.993 7.429,11.995 7.429,11.995 C 7.429,11.995 7.442,11.997 7.442,11.997 C 7.453,11.998 7.455,11.998 7.455,11.998 C 7.455,11.998 7.468,12.0 7.468,12.0 C 7.468,12.0 7.479,12.0 7.479,12.0 C 7.479,12.0 7.49,12.0 7.49,12.0 L 7.501,12.0 C 7.501,12.0 7.513,12.0 7.513,12.0 C 7.513,12.0 7.524,12.0 7.524,12.0 C 7.524,12.0 7.537,12.0 7.537,12.0 C 7.537,12.0 7.548,11.998 7.548,11.998 C 7.56,11.996 7.562,11.996 7.562,11.996 C 7.562,11.996 7.576,11.994 7.576,11.994 C 7.576,11.994 7.586,11.993 7.586,11.993 C 7.586,11.993 7.598,11.99 7.598,11.99 C 7.598,11.99 7.612,11.987 7.612,11.987 C 7.612,11.987 7.628,11.984 7.628,11.984 C 7.628,11.984 7.64,11.98 7.64,11.98 C 7.651,11.977 7.654,11.976 7.654,11.976 C 7.666,11.972 7.669,11.971 7.669,11.971 C 7.669,11.971 7.68,11.967 7.68,11.967 C 7.68,11.967 7.692,11.962 7.692,11.962 C 7.692,11.962 7.704,11.957 7.704,11.957 C 7.704,11.957 7.717,11.951 7.717,11.951 C 7.754,11.932 7.782,11.914 7.809,11.893 L 8.5,11.35 L 9.191,11.893 Q 9.204,11.903 9.208,11.906 Q 9.221,11.915 9.225,11.917 Q 9.237,11.925 9.241,11.927 Q 9.252,11.934 9.256,11.936 Q 9.256,11.936 9.27,11.944 Q 9.27,11.944 9.283,11.951 Q 9.283,11.951 9.296,11.957 Q 9.296,11.957 9.308,11.962 Q 9.308,11.962 9.32,11.967 Q 9.32,11.967 9.331,11.971 Q 9.343,11.975 9.346,11.976 Q 9.358,11.979 9.36,11.98 Q 9.36,11.98 9.372,11.984 Q 9.384,11.987 9.388,11.987 Q 9.388,11.987 9.402,11.99 Q 9.402,11.99 9.414,11.993 Q 9.414,11.993 9.425,11.994 Q 9.436,11.996 9.438,11.996 L 9.449,11.997 Q 9.461,12.0 9.464,12.0 Q 9.475,12.0 9.477,12.0 L 9.5,12.0 Q 9.5,12.0 9.512,12.0 Q 9.512,12.0 9.524,12.0 Q 9.534,12.0 9.536,12.0 Q 9.536,12.0 9.548,11.998 Q 9.56,11.996 9.562,11.996 Q 9.573,11.995 9.576,11.994 Q 9.576,11.994 9.587,11.993 Q 9.587,11.993 9.599,11.99 Q 9.599,11.99 9.613,11.987 Q 9.624,11.984 9.628,11.983 Q 9.639,11.98 9.641,11.98 Q 9.653,11.976 9.655,11.975 Q 9.668,11.971 9.67,11.97 Q 9.67,11.97 9.681,11.966 Q 9.681,11.966 9.693,11.961 Q 9.693,11.961 9.705,11.956 Q 9.705,11.956 9.718,11.95 Q 9.718,11.95 9.731,11.943 Q 9.742,11.937 9.746,11.935 Q 9.757,11.929 9.761,11.927 Q 9.773,11.919 9.777,11.916 Q 9.789,11.908 9.793,11.905 Q 9.806,11.895 9.811,11.892 Q 9.824,11.881 9.828,11.877 Q 9.842,11.864 9.847,11.86 Q 9.861,11.846 9.866,11.841 Q 9.866,11.841 9.875,11.83 Q 9.875,11.83 9.885,11.819 Q 9.885,11.819 9.894,11.807 Q 9.894,11.807 9.904,11.794 Q 9.904,11.794 9.914,11.781 Q 9.921,11.77 9.923,11.767 Q 9.93,11.755 9.932,11.751 Q 9.939,11.739 9.941,11.735 Q 9.948,11.722 9.95,11.718 Q 9.957,11.704 9.959,11.699 Q 9.965,11.684 9.967,11.679 Q 9.973,11.664 9.974,11.658 Q 9.974,11.658 9.978,11.647 Q 9.978,11.647 9.981,11.636 Q 9.981,11.636 9.984,11.624 Q 9.984,11.624 9.987,11.612 Q 9.987,11.612 9.99,11.6 Q 9.99,11.6 9.992,11.587 Q 9.992,11.587 9.995,11.573 Q 9.995,11.573 9.996,11.56 Q 9.996,11.56 9.998,11.545 Q 9.998,11.545 10.0,11.531 Q 10.0,11.531 10.0,11.516 Q 10.0,11.516 10.0,11.5 L 10.0,11.0 L 5.5,11.0 L 3.0,11.0 M 12.0,2.5 C 12.0,2.224 12.224,2.0 12.5,2.0 C 12.776,2.0 13.0,2.224 13.0,2.5 L 13.0,3.5 C 13.0,3.776 12.776,4.0 12.5,4.0 C 12.224,4.0 12.0,3.776 12.0,3.5 L 12.0,2.5 M 12.0,5.5 C 12.0,5.224 12.224,5.0 12.5,5.0 C 12.776,5.0 13.0,5.224 13.0,5.5 C 13.0,5.776 12.776,6.0 12.5,6.0 C 12.224,6.0 12.0,5.776 12.0,5.5 M 12.0,7.5 C 12.0,7.224 12.224,7.0 12.5,7.0 C 12.776,7.0 13.0,7.224 13.0,7.5 C 13.0,7.776 12.776,8.0 12.5,8.0 C 12.224,8.0 12.0,7.776 12.0,7.5 M 12.0,9.5 C 12.0,9.224 12.224,9.0 12.5,9.0 C 12.776,9.0 13.0,9.224 13.0,9.5 C 13.0,9.776 12.776,10.0 12.5,10.0 C 12.224,10.0 12.0,9.776 12.0,9.5" fill="#000" /></svg>