<svg xmlns="http://www.w3.org/2000/svg" width="16" height="16"><path d="M 1.4766,2.0508 C 1.1867,2.0508 0.9531,2.2627 0.9531,2.5254 L 0.9531,4.5254 C 0.9531,4.7881 1.1867,5.0 1.4766,5.0 L 2.0,5.0 L 2.0,3.0 L 13.0,3.0 L 13.0,5.0 L 13.4766,5.0 C 13.7664,5.0 14.0,4.7881 14.0,4.5254 L 14.0,2.5254 C 14.0,2.2627 13.7664,2.0508 13.4766,2.0508 L 1.4766,2.0508 M 3.0,4.0 L 3.0,14.0 L 12.0,14.0 L 12.0,4.0 L 3.0,4.0 M 6.832,7.0273 C 7.9425,7.7137 8.0,9.0 9.0,9.0 L 9.062,9.0 C 9.5814,9.0 9.9995,9.4181 9.9995,9.9375 L 9.9995,10.0625 C 9.9995,10.5819 9.5814,11.0 9.062,11.0 L 10.0,11.0 C 10.554,11.0 11.0,11.446 11.0,12.0 C 11.0,12.554 10.554,13.0 10.0,13.0 L 5.0,13.0 C 4.446,13.0 4.0,12.554 4.0,12.0 C 4.0,11.446 4.446,11.0 5.0,11.0 L 5.9375,11.0 C 5.4181,11.0 5.0,10.5819 5.0,10.0625 L 5.0,9.9375 C 5.0,9.4181 5.4181,9.0 5.9375,9.0 L 6.0,9.0 C 6.8232,9.0 7.359,8.051 6.832,7.0273" fill="#000" /></svg>