<svg xmlns="http://www.w3.org/2000/svg" width="16" height="16"><path d="M 1.5,2.0 C 1.223,2.0 1.0,2.223 1.0,2.5 L 1.0,4.5 C 1.0,4.777 1.223,5.0 1.5,5.0 L 2.0,5.0 L 2.0,3.0 L 13.0,3.0 L 13.0,5.0 L 13.5,5.0 C 13.777,5.0 14.0,4.777 14.0,4.5 L 14.0,2.5 C 14.0,2.223 13.777,2.0 13.5,2.0 L 1.5,2.0 M 3.0,4.0 L 3.0,14.0 L 12.0,14.0 L 12.0,4.0 L 3.0,4.0 M 7.0,7.0 C 7.051,7.0001 7.1017,7.008 7.1504,7.0234 C 7.4973,7.1331 7.7649,7.3544 7.9297,7.584 C 8.0945,7.8136 8.1794,8.0358 8.2656,8.2188 C 8.4323,8.5726 8.5293,8.8017 9.0977,9.0039 C 9.6053,9.0529 10.0,9.4791 10.0,10.0 C 10.0,10.2403 9.9157,10.4607 9.7754,10.6328 C 9.6987,10.7585 9.7113,10.8469 9.7305,10.8906 C 9.7525,10.9406 9.7801,11.0 10.0,11.0 C 10.3997,10.9984 11.0,11.3188 11.0,12.0 C 11.0,12.554 10.554,13.0 10.0,13.0 L 5.0,13.0 C 4.446,13.0 4.0,12.554 4.0,12.0 C 4.0,11.3187 4.6003,10.998 5.0,11.0 C 5.2199,11.0 5.2475,10.9406 5.2695,10.8906 C 5.2887,10.847 5.301,10.7583 5.2246,10.6328 C 5.0842,10.4607 5.0,10.2405 5.0,10.0 C 5.0,9.446 5.446,9.0 6.0,9.0 C 6.4752,9.0 6.6942,8.7978 6.7949,8.5684 C 6.8956,8.339 6.8688,8.073 6.6484,7.8555 C 6.5535,7.7616 6.5,7.6336 6.5,7.5 C 6.5,7.2239 6.7239,7.0 7.0,7.0" fill="#000" /></svg>