<svg xmlns="http://www.w3.org/2000/svg" width="16" height="16"><path d="M 3.5,1.0 C 3.223,1.0 3.0,1.223 3.0,1.5 L 3.0,14.5 C 3.0,14.777 3.223,15.0 3.5,15.0 L 12.5,15.0 C 12.777,15.0 13.0,14.777 13.0,14.5 L 13.0,1.5 C 13.0,1.223 12.777,1.0 12.5,1.0 L 3.5,1.0 M 4.5,3.0 L 9.5,3.0 C 9.777,3.0 10.0,3.223 10.0,3.5 L 10.0,11.5 C 10.0,11.777 9.777,12.0 9.5,12.0 L 4.5,12.0 C 4.223,12.0 4.0,11.777 4.0,11.5 L 4.0,3.5 C 4.0,3.223 4.223,3.0 4.5,3.0 M 11.5,3.0 C 11.777,3.0 12.0,3.223 12.0,3.5 L 12.0,4.5 C 12.0,4.777 11.777,5.0 11.5,5.0 C 11.223,5.0 11.0,4.777 11.0,4.5 L 11.0,3.5 C 11.0,3.223 11.223,3.0 11.5,3.0 M 7.0,5.0 C 6.7708,5.0004 6.5712,5.1565 6.5156,5.3789 C 6.2846,6.3028 5.974,6.7017 5.6562,7.1465 C 5.3385,7.5913 5.0,8.1389 5.0,9.0 C 5.0,9.5833 5.1536,10.1107 5.5215,10.4785 C 5.8893,10.8464 6.4167,11.0 7.0,11.0 C 7.5833,11.0 8.1107,10.8464 8.4785,10.4785 C 8.8464,10.1107 9.0,9.5833 9.0,9.0 C 9.0,8.1389 8.6615,7.5913 8.3438,7.1465 C 8.026,6.7016 7.7153,6.3028 7.4844,5.3789 C 7.4288,5.1565 7.2292,5.0004 7.0,5.0" fill="#000" /></svg>