<svg xmlns="http://www.w3.org/2000/svg" width="16" height="16"><path d="M 1.5,1.0 C 1.224,1.0 1.0,1.224 1.0,1.5 L 1.0,14.5 C 1.0,14.776 1.224,15.0 1.5,15.0 L 13.5,15.0 C 13.776,15.0 14.0,14.776 14.0,14.5 L 14.0,1.5 C 14.0,1.224 13.776,1.0 13.5,1.0 L 1.5,1.0 M 2.0,2.5 C 2.0,2.224 2.224,2.0 2.5,2.0 L 10.5,2.0 C 10.776,2.0 11.0,2.224 11.0,2.5 L 11.0,12.5 C 11.0,12.776 10.776,13.0 10.5,13.0 L 2.5,13.0 C 2.224,13.0 2.0,12.776 2.0,12.5 L 2.0,2.5 M 4.999,3.0 C 4.999,3.0 4.988,3.0 4.988,3.0 C 4.978,3.0 4.975,3.0 4.975,3.0 C 4.975,3.0 4.964,3.0 4.964,3.0 C 4.907,3.006 4.861,3.017 4.817,3.035 C 4.817,3.035 4.805,3.039 4.805,3.039 C 4.794,3.044 4.789,3.047 4.789,3.047 C 4.789,3.047 4.774,3.054 4.774,3.054 C 4.774,3.054 4.761,3.061 4.761,3.061 C 4.761,3.061 4.749,3.067 4.749,3.067 C 4.749,3.067 4.738,3.074 4.738,3.074 C 4.738,3.074 4.727,3.081 4.727,3.081 C 4.715,3.09 4.708,3.094 4.708,3.094 C 4.697,3.102 4.692,3.106 4.692,3.106 C 4.692,3.106 4.677,3.119 4.677,3.119 C 4.677,3.119 4.663,3.13 4.663,3.13 C 4.663,3.13 4.651,3.142 4.651,3.142 C 4.651,3.142 4.64,3.153 4.64,3.153 C 4.64,3.153 4.63,3.164 4.63,3.164 C 4.618,3.178 4.612,3.184 4.612,3.184 C 4.602,3.198 4.597,3.204 4.597,3.204 C 4.588,3.216 4.584,3.222 4.584,3.222 C 4.577,3.234 4.573,3.239 4.573,3.239 C 4.567,3.25 4.564,3.255 4.564,3.255 C 4.558,3.265 4.556,3.27 4.556,3.27 C 4.556,3.27 4.549,3.284 4.549,3.284 C 4.549,3.284 4.543,3.298 4.543,3.298 C 4.543,3.298 4.537,3.311 4.537,3.311 C 4.537,3.311 4.533,3.322 4.533,3.322 C 4.533,3.322 4.528,3.333 4.528,3.333 C 4.528,3.333 4.525,3.344 4.525,3.344 C 4.525,3.344 4.522,3.354 4.522,3.354 C 4.518,3.366 4.517,3.371 4.517,3.371 C 4.513,3.384 4.511,3.394 4.511,3.394 C 4.511,3.394 4.509,3.408 4.509,3.408 C 4.509,3.408 4.507,3.419 4.507,3.419 C 4.505,3.432 4.504,3.438 4.504,3.438 C 4.504,3.438 4.502,3.454 4.502,3.454 C 4.502,3.454 4.501,3.465 4.501,3.465 C 4.5,3.478 4.5,3.487 4.5,3.487 C 4.5,3.487 4.5,3.5 4.5,3.5 C 4.5,3.5 4.5,3.516 4.5,3.516 C 4.5,3.516 4.501,3.531 4.501,3.531 C 4.501,3.531 4.502,3.545 4.502,3.545 C 4.502,3.545 4.503,3.559 4.503,3.559 C 4.503,3.559 4.505,3.571 4.505,3.571 C 4.505,3.571 4.507,3.583 4.507,3.583 C 4.507,3.583 4.509,3.594 4.509,3.594 C 4.509,3.594 4.511,3.604 4.511,3.604 C 4.514,3.616 4.515,3.622 4.515,3.622 C 4.518,3.633 4.52,3.639 4.52,3.639 C 4.52,3.639 4.524,3.653 4.524,3.653 C 4.524,3.653 4.528,3.666 4.528,3.666 C 4.528,3.666 4.533,3.678 4.533,3.678 C 4.533,3.678 4.536,3.688 4.536,3.688 C 4.541,3.699 4.543,3.704 4.543,3.704 C 4.543,3.704 4.55,3.717 4.55,3.717 C 4.556,3.73 4.559,3.735 4.559,3.735 C 4.559,3.735 4.565,3.746 4.565,3.746 C 4.565,3.746 4.571,3.757 4.571,3.757 L 5.454,5.229 C 4.596,5.625 4.0,6.493 4.0,7.5 C 4.0,8.507 4.596,9.375 5.454,9.771 L 4.571,11.243 C 4.571,11.243 4.562,11.259 4.562,11.259 C 4.562,11.259 4.554,11.273 4.554,11.273 C 4.548,11.285 4.544,11.294 4.544,11.294 C 4.544,11.294 4.539,11.307 4.539,11.307 C 4.539,11.307 4.534,11.319 4.534,11.319 C 4.534,11.319 4.53,11.33 4.53,11.33 C 4.53,11.33 4.526,11.341 4.526,11.341 C 4.526,11.341 4.523,11.351 4.523,11.351 C 4.519,11.363 4.517,11.369 4.517,11.369 C 4.514,11.382 4.512,11.393 4.512,11.393 C 4.512,11.393 4.509,11.406 4.509,11.406 C 4.509,11.406 4.507,11.418 4.507,11.418 C 4.507,11.418 4.505,11.428 4.505,11.428 C 4.503,11.442 4.502,11.453 4.502,11.453 C 4.502,11.453 4.501,11.465 4.501,11.465 C 4.5,11.478 4.5,11.487 4.5,11.487 C 4.5,11.487 4.5,11.5 4.5,11.5 C 4.5,11.5 4.5,11.516 4.5,11.516 C 4.5,11.516 4.501,11.531 4.501,11.531 C 4.501,11.531 4.502,11.545 4.502,11.545 C 4.502,11.545 4.504,11.56 4.504,11.56 C 4.504,11.56 4.505,11.573 4.505,11.573 C 4.505,11.573 4.508,11.587 4.508,11.587 C 4.508,11.587 4.51,11.6 4.51,11.6 C 4.51,11.6 4.513,11.612 4.513,11.612 C 4.513,11.612 4.516,11.624 4.516,11.624 C 4.516,11.624 4.519,11.636 4.519,11.636 C 4.519,11.636 4.522,11.647 4.522,11.647 C 4.522,11.647 4.526,11.658 4.526,11.658 C 4.526,11.658 4.529,11.669 4.529,11.669 C 4.534,11.683 4.537,11.689 4.537,11.689 C 4.543,11.702 4.546,11.709 4.546,11.709 C 4.551,11.721 4.554,11.726 4.554,11.726 C 4.56,11.738 4.563,11.743 4.563,11.743 C 4.569,11.754 4.572,11.759 4.572,11.759 C 4.572,11.759 4.582,11.774 4.582,11.774 C 4.582,11.774 4.591,11.788 4.591,11.788 C 4.591,11.788 4.601,11.801 4.601,11.801 C 4.601,11.801 4.61,11.813 4.61,11.813 C 4.61,11.813 4.62,11.825 4.62,11.825 C 4.62,11.825 4.629,11.835 4.629,11.835 C 4.629,11.835 4.644,11.851 4.644,11.851 C 4.656,11.863 4.662,11.869 4.662,11.869 C 4.674,11.879 4.681,11.885 4.681,11.885 C 4.692,11.894 4.698,11.899 4.698,11.899 C 4.709,11.907 4.715,11.911 4.715,11.911 C 4.726,11.918 4.731,11.922 4.731,11.922 C 4.742,11.928 4.747,11.931 4.747,11.931 C 4.747,11.931 4.761,11.939 4.761,11.939 C 4.761,11.939 4.775,11.947 4.775,11.947 C 4.775,11.947 4.789,11.953 4.789,11.953 C 4.789,11.953 4.801,11.959 4.801,11.959 C 4.801,11.959 4.813,11.964 4.813,11.964 C 4.813,11.964 4.824,11.968 4.824,11.968 C 4.824,11.968 4.835,11.972 4.835,11.972 C 4.847,11.976 4.85,11.977 4.85,11.977 C 4.86,11.98 4.863,11.981 4.863,11.981 C 4.863,11.981 4.876,11.985 4.876,11.985 L 4.887,11.987 C 4.897,11.989 4.901,11.99 4.901,11.99 C 4.901,11.99 4.913,11.993 4.913,11.993 C 4.913,11.993 4.924,11.994 4.924,11.994 C 4.935,11.996 4.938,11.996 4.938,11.996 C 4.938,11.996 4.949,11.997 4.949,11.997 C 4.96,11.998 4.964,12.0 4.964,12.0 C 4.964,12.0 4.976,12.0 4.976,12.0 C 4.976,12.0 4.987,12.0 4.987,12.0 L 4.998,12.0 C 5.01,12.0 5.012,12.0 5.012,12.0 C 5.022,12.0 5.024,12.0 5.024,12.0 C 5.024,12.0 5.036,12.0 5.036,12.0 C 5.046,11.998 5.048,11.998 5.048,11.998 C 5.06,11.996 5.062,11.996 5.062,11.996 C 5.073,11.995 5.076,11.994 5.076,11.994 C 5.076,11.994 5.087,11.992 5.087,11.992 C 5.087,11.992 5.099,11.99 5.099,11.99 C 5.099,11.99 5.113,11.987 5.113,11.987 C 5.113,11.987 5.129,11.983 5.129,11.983 C 5.139,11.98 5.142,11.98 5.142,11.98 C 5.142,11.98 5.156,11.975 5.156,11.975 C 5.156,11.975 5.166,11.972 5.166,11.972 C 5.178,11.967 5.182,11.966 5.182,11.966 C 5.182,11.966 5.193,11.961 5.193,11.961 C 5.193,11.961 5.206,11.956 5.206,11.956 C 5.206,11.956 5.219,11.95 5.219,11.95 C 5.219,11.95 5.232,11.943 5.232,11.943 C 5.232,11.943 5.247,11.935 5.247,11.935 C 5.247,11.935 5.262,11.926 5.262,11.926 C 5.272,11.919 5.278,11.916 5.278,11.916 C 5.289,11.908 5.294,11.904 5.294,11.904 L 5.315,11.888 C 5.326,11.879 5.33,11.876 5.33,11.876 C 5.33,11.876 5.341,11.865 5.341,11.865 C 5.453,11.757 5.597,11.698 5.75,11.698 C 5.903,11.698 6.047,11.757 6.151,11.858 C 6.162,11.868 6.167,11.873 6.167,11.873 C 6.167,11.873 6.182,11.886 6.182,11.886 C 6.182,11.886 6.196,11.897 6.196,11.897 C 6.196,11.897 6.209,11.907 6.209,11.907 C 6.209,11.907 6.222,11.916 6.222,11.916 C 6.222,11.916 6.234,11.923 6.234,11.923 C 6.234,11.923 6.245,11.93 6.245,11.93 C 6.256,11.937 6.26,11.938 6.26,11.938 C 6.271,11.944 6.274,11.946 6.274,11.946 L 6.285,11.951 C 6.285,11.951 6.299,11.958 6.299,11.958 C 6.299,11.958 6.311,11.963 6.311,11.963 L 6.322,11.967 C 6.333,11.971 6.337,11.973 6.337,11.973 C 6.347,11.976 6.35,11.977 6.35,11.977 C 6.387,11.988 6.42,11.995 6.453,11.998 C 6.453,11.998 6.464,12.0 6.464,12.0 C 6.464,12.0 6.477,12.0 6.477,12.0 C 6.477,12.0 6.489,12.0 6.489,12.0 L 6.5,12.0 C 6.5,12.0 6.512,12.0 6.512,12.0 C 6.512,12.0 6.523,12.0 6.523,12.0 C 6.533,12.0 6.536,12.0 6.536,12.0 C 6.595,11.994 6.644,11.982 6.689,11.963 C 6.7,11.958 6.706,11.956 6.706,11.956 C 6.706,11.956 6.718,11.95 6.718,11.95 C 6.729,11.945 6.732,11.943 6.732,11.943 C 6.732,11.943 6.744,11.937 6.744,11.937 C 6.744,11.937 6.757,11.929 6.757,11.929 C 6.768,11.922 6.774,11.918 6.774,11.918 C 6.785,11.91 6.789,11.908 6.789,11.908 C 6.789,11.908 6.799,11.901 6.799,11.901 C 6.799,11.901 6.81,11.892 6.81,11.892 C 6.81,11.892 6.822,11.882 6.822,11.882 C 6.822,11.882 6.835,11.871 6.835,11.871 C 6.835,11.871 6.849,11.858 6.849,11.858 C 6.953,11.757 7.097,11.698 7.25,11.698 C 7.403,11.698 7.547,11.757 7.651,11.858 C 7.664,11.87 7.67,11.876 7.67,11.876 C 7.682,11.886 7.688,11.891 7.688,11.891 C 7.7,11.9 7.706,11.904 7.706,11.904 C 7.717,11.912 7.722,11.916 7.722,11.916 C 7.733,11.923 7.738,11.926 7.738,11.926 C 7.738,11.926 7.753,11.935 7.753,11.935 C 7.753,11.935 7.768,11.943 7.768,11.943 C 7.768,11.943 7.781,11.95 7.781,11.95 C 7.781,11.95 7.794,11.956 7.794,11.956 C 7.794,11.956 7.804,11.96 7.804,11.96 C 7.804,11.96 7.818,11.966 7.818,11.966 C 7.818,11.966 7.829,11.97 7.829,11.97 C 7.829,11.97 7.839,11.974 7.839,11.974 C 7.851,11.977 7.854,11.978 7.854,11.978 C 7.854,11.978 7.867,11.982 7.867,11.982 L 7.879,11.985 C 7.889,11.988 7.894,11.989 7.894,11.989 C 7.894,11.989 7.907,11.991 7.907,11.991 C 7.907,11.991 7.919,11.993 7.919,11.993 C 7.919,11.993 7.929,11.995 7.929,11.995 C 7.929,11.995 7.942,11.997 7.942,11.997 C 7.953,11.998 7.955,11.998 7.955,11.998 C 7.955,11.998 7.969,12.0 7.969,12.0 C 7.969,12.0 7.98,12.0 7.98,12.0 C 7.98,12.0 7.992,12.0 7.992,12.0 L 8.013,12.0 C 8.013,12.0 8.024,12.0 8.024,12.0 C 8.024,12.0 8.036,12.0 8.036,12.0 C 8.036,12.0 8.048,11.998 8.048,11.998 C 8.06,11.996 8.062,11.996 8.062,11.996 C 8.073,11.995 8.076,11.994 8.076,11.994 C 8.076,11.994 8.087,11.993 8.087,11.993 C 8.087,11.993 8.099,11.99 8.099,11.99 C 8.099,11.99 8.113,11.987 8.113,11.987 C 8.113,11.987 8.128,11.983 8.128,11.983 C 8.128,11.983 8.141,11.98 8.141,11.98 C 8.152,11.976 8.155,11.975 8.155,11.975 C 8.167,11.971 8.17,11.97 8.17,11.97 C 8.17,11.97 8.181,11.966 8.181,11.966 C 8.181,11.966 8.193,11.961 8.193,11.961 C 8.193,11.961 8.205,11.956 8.205,11.956 C 8.205,11.956 8.218,11.95 8.218,11.95 C 8.218,11.95 8.231,11.943 8.231,11.943 C 8.231,11.943 8.246,11.935 8.246,11.935 C 8.246,11.935 8.261,11.927 8.261,11.927 C 8.271,11.92 8.277,11.916 8.277,11.916 C 8.277,11.916 8.289,11.908 8.289,11.908 C 8.289,11.908 8.301,11.899 8.301,11.899 C 8.312,11.89 8.316,11.888 8.316,11.888 C 8.316,11.888 8.328,11.878 8.328,11.878 C 8.34,11.867 8.343,11.863 8.343,11.863 L 8.366,11.841 C 8.366,11.841 8.375,11.83 8.375,11.83 C 8.375,11.83 8.385,11.819 8.385,11.819 C 8.385,11.819 8.394,11.807 8.394,11.807 C 8.394,11.807 8.404,11.794 8.404,11.794 C 8.404,11.794 8.414,11.781 8.414,11.781 C 8.414,11.781 8.423,11.767 8.423,11.767 C 8.423,11.767 8.432,11.751 8.432,11.751 C 8.432,11.751 8.441,11.735 8.441,11.735 C 8.447,11.724 8.45,11.718 8.45,11.718 C 8.456,11.705 8.459,11.699 8.459,11.699 C 8.464,11.686 8.467,11.679 8.467,11.679 C 8.472,11.666 8.474,11.658 8.474,11.658 C 8.474,11.658 8.478,11.647 8.478,11.647 C 8.478,11.647 8.481,11.636 8.481,11.636 C 8.481,11.636 8.484,11.624 8.484,11.624 C 8.484,11.624 8.487,11.612 8.487,11.612 C 8.487,11.612 8.49,11.6 8.49,11.6 C 8.49,11.6 8.492,11.587 8.492,11.587 C 8.492,11.587 8.495,11.573 8.495,11.573 C 8.495,11.573 8.496,11.56 8.496,11.56 C 8.496,11.56 8.498,11.545 8.498,11.545 C 8.498,11.545 8.499,11.531 8.499,11.531 C 8.499,11.531 8.5,11.516 8.5,11.516 C 8.5,11.516 8.5,11.5 8.5,11.5 C 8.5,11.5 8.5,11.487 8.5,11.487 C 8.5,11.487 8.499,11.473 8.499,11.473 C 8.498,11.461 8.498,11.453 8.498,11.453 C 8.498,11.453 8.496,11.437 8.496,11.437 C 8.494,11.425 8.493,11.418 8.493,11.418 C 8.493,11.418 8.491,11.406 8.491,11.406 C 8.491,11.406 8.488,11.393 8.488,11.393 C 8.488,11.393 8.485,11.377 8.485,11.377 C 8.482,11.366 8.48,11.36 8.48,11.36 C 8.476,11.348 8.474,11.341 8.474,11.341 C 8.474,11.341 8.47,11.33 8.47,11.33 C 8.47,11.33 8.466,11.319 8.466,11.319 C 8.466,11.319 8.461,11.307 8.461,11.307 C 8.461,11.307 8.456,11.294 8.456,11.294 C 8.456,11.294 8.449,11.281 8.449,11.281 C 8.449,11.281 8.442,11.266 8.442,11.266 C 8.442,11.266 8.433,11.251 8.433,11.251 L 7.546,9.771 C 8.404,9.375 9.0,8.507 9.0,7.5 C 9.0,6.493 8.404,5.625 7.546,5.229 L 8.429,3.757 C 8.429,3.757 8.435,3.746 8.435,3.746 C 8.435,3.746 8.441,3.735 8.441,3.735 C 8.447,3.724 8.45,3.717 8.45,3.717 C 8.45,3.717 8.457,3.704 8.457,3.704 C 8.461,3.694 8.464,3.688 8.464,3.688 C 8.464,3.688 8.467,3.678 8.467,3.678 C 8.467,3.678 8.472,3.666 8.472,3.666 C 8.472,3.666 8.476,3.653 8.476,3.653 C 8.476,3.653 8.48,3.639 8.48,3.639 C 8.483,3.628 8.485,3.622 8.485,3.622 C 8.488,3.61 8.489,3.604 8.489,3.604 C 8.489,3.604 8.491,3.594 8.491,3.594 C 8.491,3.594 8.493,3.583 8.493,3.583 C 8.493,3.583 8.495,3.571 8.495,3.571 C 8.495,3.571 8.497,3.559 8.497,3.559 C 8.497,3.559 8.498,3.545 8.498,3.545 C 8.498,3.545 8.499,3.531 8.499,3.531 C 8.499,3.531 8.5,3.516 8.5,3.516 C 8.5,3.516 8.5,3.5 8.5,3.5 C 8.5,3.5 8.5,3.487 8.5,3.487 C 8.5,3.487 8.499,3.474 8.499,3.474 C 8.499,3.461 8.498,3.454 8.498,3.454 C 8.498,3.454 8.496,3.438 8.496,3.438 C 8.495,3.426 8.493,3.419 8.493,3.419 C 8.493,3.419 8.491,3.408 8.491,3.408 C 8.491,3.408 8.489,3.394 8.489,3.394 C 8.489,3.394 8.485,3.379 8.485,3.379 C 8.485,3.379 8.481,3.363 8.481,3.363 C 8.477,3.35 8.475,3.344 8.475,3.344 C 8.475,3.344 8.472,3.333 8.472,3.333 C 8.472,3.333 8.467,3.322 8.467,3.322 C 8.467,3.322 8.463,3.311 8.463,3.311 C 8.463,3.311 8.457,3.298 8.457,3.298 C 8.457,3.298 8.451,3.284 8.451,3.284 C 8.451,3.284 8.444,3.27 8.444,3.27 C 8.439,3.26 8.436,3.255 8.436,3.255 C 8.436,3.255 8.427,3.239 8.427,3.239 C 8.419,3.228 8.416,3.222 8.416,3.222 C 8.407,3.21 8.403,3.204 8.403,3.204 C 8.403,3.204 8.396,3.194 8.396,3.194 C 8.385,3.181 8.379,3.174 8.379,3.174 C 8.368,3.162 8.365,3.158 8.365,3.158 C 8.365,3.158 8.354,3.148 8.354,3.148 C 8.354,3.148 8.343,3.136 8.343,3.136 C 8.343,3.136 8.33,3.125 8.33,3.125 C 8.33,3.125 8.316,3.113 8.316,3.113 C 8.306,3.104 8.3,3.1 8.3,3.1 C 8.289,3.092 8.282,3.087 8.282,3.087 C 8.271,3.08 8.267,3.078 8.267,3.078 C 8.198,3.035 8.124,3.009 8.044,3.002 C 8.044,3.002 8.033,3.0 8.033,3.0 C 8.033,3.0 8.02,3.0 8.02,3.0 C 8.02,3.0 8.009,3.0 8.009,3.0 L 7.999,3.0 C 7.999,3.0 7.988,3.0 7.988,3.0 C 7.977,3.0 7.974,3.0 7.974,3.0 C 7.974,3.0 7.963,3.0 7.963,3.0 C 7.878,3.009 7.809,3.032 7.747,3.068 C 7.747,3.068 7.732,3.078 7.732,3.078 C 7.732,3.078 7.72,3.086 7.72,3.086 C 7.72,3.086 7.706,3.096 7.706,3.096 C 7.696,3.103 7.692,3.106 7.692,3.106 C 7.692,3.106 7.677,3.118 7.677,3.118 C 7.677,3.118 7.661,3.133 7.661,3.133 C 7.547,3.243 7.403,3.302 7.25,3.302 C 7.097,3.302 6.953,3.243 6.849,3.142 C 6.836,3.13 6.83,3.124 6.83,3.124 C 6.83,3.124 6.814,3.111 6.814,3.111 C 6.814,3.111 6.802,3.101 6.802,3.101 C 6.791,3.093 6.785,3.089 6.785,3.089 C 6.785,3.089 6.774,3.082 6.774,3.082 C 6.774,3.082 6.761,3.074 6.761,3.074 C 6.691,3.032 6.62,3.009 6.544,3.002 C 6.544,3.002 6.533,3.0 6.533,3.0 C 6.523,3.0 6.52,3.0 6.52,3.0 C 6.52,3.0 6.509,3.0 6.509,3.0 L 6.488,3.0 C 6.478,3.0 6.476,3.0 6.476,3.0 C 6.476,3.0 6.463,3.0 6.463,3.0 C 6.406,3.007 6.361,3.017 6.319,3.034 C 6.308,3.038 6.303,3.04 6.303,3.04 C 6.303,3.04 6.289,3.047 6.289,3.047 C 6.289,3.047 6.277,3.052 6.277,3.052 C 6.277,3.052 6.266,3.058 6.266,3.058 L 6.255,3.064 C 6.255,3.064 6.243,3.071 6.243,3.071 C 6.231,3.078 6.227,3.081 6.227,3.081 C 6.227,3.081 6.216,3.088 6.216,3.088 C 6.204,3.097 6.199,3.101 6.199,3.101 C 6.199,3.101 6.187,3.11 6.187,3.11 L 6.177,3.118 C 6.177,3.118 6.165,3.129 6.165,3.129 C 6.154,3.139 6.152,3.141 6.152,3.141 C 6.047,3.243 5.903,3.302 5.75,3.302 C 5.597,3.302 5.453,3.243 5.349,3.142 C 5.269,3.064 5.164,3.013 5.047,3.002 C 5.035,3.0 5.032,3.0 5.032,3.0 C 5.032,3.0 5.021,3.0 5.021,3.0 C 5.008,3.0 5.006,3.0 5.006,3.0 L 4.999,3.0 M 12.0,2.5 C 12.0,2.224 12.224,2.0 12.5,2.0 C 12.776,2.0 13.0,2.224 13.0,2.5 L 13.0,3.5 C 13.0,3.776 12.776,4.0 12.5,4.0 C 12.224,4.0 12.0,3.776 12.0,3.5 L 12.0,2.5 M 12.0,5.5 C 12.0,5.224 12.224,5.0 12.5,5.0 C 12.776,5.0 13.0,5.224 13.0,5.5 C 13.0,5.776 12.776,6.0 12.5,6.0 C 12.224,6.0 12.0,5.776 12.0,5.5 M 12.0,7.5 C 12.0,7.224 12.224,7.0 12.5,7.0 C 12.776,7.0 13.0,7.224 13.0,7.5 C 13.0,7.776 12.776,8.0 12.5,8.0 C 12.224,8.0 12.0,7.776 12.0,7.5 M 12.0,9.5 C 12.0,9.224 12.224,9.0 12.5,9.0 C 12.776,9.0 13.0,9.224 13.0,9.5 C 13.0,9.776 12.776,10.0 12.5,10.0 C 12.224,10.0 12.0,9.776 12.0,9.5" fill="#000" /></svg>