<svg xmlns="http://www.w3.org/2000/svg" width="16" height="16"><path d="M 1.5,1.0 C 1.223,1.0 1.0,1.223 1.0,1.5 L 1.0,14.5 C 1.0,14.777 1.223,15.0 1.5,15.0 L 13.5,15.0 C 13.777,15.0 14.0,14.777 14.0,14.5 L 14.0,1.5 C 14.0,1.223 13.777,1.0 13.5,1.0 L 1.5,1.0 M 2.5,2.0 L 10.5,2.0 C 10.777,2.0 11.0,2.223 11.0,2.5 L 11.0,12.5 C 11.0,12.777 10.777,13.0 10.5,13.0 L 2.5,13.0 C 2.223,13.0 2.0,12.777 2.0,12.5 L 2.0,2.5 C 2.0,2.223 2.223,2.0 2.5,2.0 M 12.5,2.0 C 12.777,2.0 13.0,2.223 13.0,2.5 L 13.0,3.5 C 13.0,3.777 12.777,4.0 12.5,4.0 C 12.223,4.0 12.0,3.777 12.0,3.5 L 12.0,2.5 C 12.0,2.223 12.223,2.0 12.5,2.0 M 6.5,3.0 C 5.2963,3.0 4.2841,3.8626 4.0508,5.0 L 4.0,5.0 C 3.7239,5.0 3.5,5.2239 3.5,5.5 C 3.5,5.7761 3.7239,6.0 4.0,6.0 L 4.0508,6.0 C 4.2509,6.9758 5.0242,7.7491 6.0,7.9492 L 6.0,11.5 C 6.0,11.7761 6.2239,12.0 6.5,12.0 C 6.7761,12.0 7.0,11.7761 7.0,11.5 L 7.0,7.9492 C 7.9758,7.7491 8.7491,6.9758 8.9492,6.0 L 9.0,6.0 C 9.2761,6.0 9.5,5.7761 9.5,5.5 C 9.5,5.2239 9.2761,5.0 9.0,5.0 L 8.9492,5.0 C 8.7159,3.8626 7.7037,3.0 6.5,3.0 M 12.5,5.0 A 0.5,0.5 0.0 0,1 13.0,5.5 A 0.5,0.5 0.0 0,1 12.5,6.0 A 0.5,0.5 0.0 0,1 12.0,5.5 A 0.5,0.5 0.0 0,1 12.5,5.0 M 12.5,7.0 A 0.5,0.5 0.0 0,1 13.0,7.5 A 0.5,0.5 0.0 0,1 12.5,8.0 A 0.5,0.5 0.0 0,1 12.0,7.5 A 0.5,0.5 0.0 0,1 12.5,7.0 M 12.5,9.0 A 0.5,0.5 0.0 0,1 13.0,9.5 A 0.5,0.5 0.0 0,1 12.5,10.0 A 0.5,0.5 0.0 0,1 12.0,9.5 A 0.5,0.5 0.0 0,1 12.5,9.0" fill="#000" /></svg>