<svg xmlns="http://www.w3.org/2000/svg" width="16" height="16"><path d="M 7.5,8.0 C 7.2847,7.9999 7.0935,8.1376 7.0254,8.3418 C 6.557,9.7469 5.616,11.1551 4.2227,12.084 C 3.8113,12.3585 4.0054,12.9998 4.5,13.0 L 11.5,13.0 C 11.9946,12.9998 12.1887,12.3585 11.7773,12.084 C 10.384,11.1551 9.443,9.7469 8.9746,8.3418 C 8.9065,8.1376 8.7153,7.9999 8.5,8.0 L 7.5,8.0" fill="#000" /><path d="M 6.0,3.5 C 4.0489,3.5 3.0,4.8137 2.9999,6.5 C 3.0039,6.7714 3.2287,6.9962 3.4999,7.0 C 3.7711,6.9962 3.9963,6.7715 3.9999,6.5 C 4.0,5.7061 4.5211,5.0 5.5,5.0 C 6.3343,5.0 7.0,5.6657 7.0,6.5 C 7.002,6.776 7.2264,6.9983 7.5,7.0 L 8.5,7.0 C 8.7421,6.9992 8.9988,6.8029 9.0,6.5 C 9.0,5.6656 9.6657,5.0 10.5,5.0 C 11.3343,5.0 12.0,5.6656 12.0,6.5 L 12.0,7.5 C 12.0,7.7761 12.2239,8.0 12.5,8.0 C 12.7761,8.0 13.0,7.7761 13.0,7.5 L 13.0,6.5 C 13.0,4.8172 11.6818,3.5 10.0,3.5 C 9.2336,3.5 8.5315,3.7908 8.0,4.2676 C 7.4685,3.7908 6.7664,3.5 6.0,3.5 M 14.5,7.0 C 14.2239,7.0 14.0,7.2239 14.0,7.5 C 14.0,7.7761 14.2239,8.0 14.5,8.0 C 14.7761,8.0 15.0,7.7761 15.0,7.5 C 15.0,7.2239 14.7761,7.0 14.5,7.0 M 4.5,8.0 C 4.2239,8.0 4.0,8.2239 4.0,8.5 C 4.0,8.7761 4.2239,9.0 4.5,9.0 C 4.7761,9.0 5.0,8.7761 5.0,8.5 C 5.0,8.2239 4.7761,8.0 4.5,8.0 M 2.5,9.0 C 2.2239,9.0 2.0,9.2239 2.0,9.5 C 2.0,9.7761 2.2239,10.0 2.5,10.0 C 2.7761,10.0 3.0,9.7761 3.0,9.5 C 3.0,9.2239 2.7761,9.0 2.5,9.0 M 13.5,9.0 C 13.2239,9.0 13.0,9.2239 13.0,9.5 C 13.0,9.7761 13.2239,10.0 13.5,10.0 C 13.7761,10.0 14.0,9.7761 14.0,9.5 C 14.0,9.2239 13.7761,9.0 13.5,9.0" fill="#000" /></svg>