<svg xmlns="http://www.w3.org/2000/svg" width="16" height="16"><path d="M 7.5,3.0 C 7.223,3.0 7.0,3.223 7.0,3.5 L 7.0,4.0 L 4.5,4.0 C 4.223,4.0 4.0,4.223 4.0,4.5 L 4.0,5.0 L 12.0,5.0 L 12.0,4.5 C 12.0,4.223 11.777,4.0 11.5,4.0 L 9.0,4.0 L 9.0,3.5 C 9.0,3.223 8.777,3.0 8.5,3.0 L 7.5,3.0 M 4.0059,6.0 C 4.0039,6.0654 4.0089,6.1308 4.0196,6.1953 L 5.0196,11.1953 C 5.1128,11.663 5.5232,11.9998 6.0,12.0 L 10.0,12.0 C 10.4769,11.9998 10.8873,11.663 10.9805,11.1953 L 11.9805,6.1953 C 11.9934,6.131 11.9999,6.0656 12.0,6.0 L 4.0059,6.0" fill="#000" /></svg>