<svg xmlns="http://www.w3.org/2000/svg" width="16" height="16"><path d="M 7.5,2.0 C 7.223,2.0 7.0,2.223 7.0,2.5 L 7.0,3.0 L 4.5,3.0 C 4.223,3.0 4.0,3.223 4.0,3.5 L 4.0,4.0 L 12.0,4.0 L 12.0,3.5 C 12.0,3.223 11.777,3.0 11.5,3.0 L 9.0,3.0 L 9.0,2.5 C 9.0,2.223 8.777,2.0 8.5,2.0 L 7.5,2.0 M 4.0,5.0 C 4.0001,5.0411 4.003,5.083 4.008,5.125 L 5.008,13.125 C 5.071,13.625 5.4962,14.0 6.0002,14.0 L 10.0002,14.0 C 10.5041,14.0 10.9293,13.625 10.9924,13.125 L 11.9924,5.125 C 11.9974,5.083 12.0004,5.0411 12.0004,5.0 L 4.0,5.0" fill="#000" /></svg>