<svg xmlns="http://www.w3.org/2000/svg" width="16" height="16"><path d="M 4.0,1.5 C 4.0,1.2239 4.2239,1.0 4.5,1.0 L 10.5,1.0 C 10.7761,1.0 11.0,1.2239 11.0,1.5 L 11.0,4.6713 C 11.6254,5.4442 12.0,6.4284 12.0,7.5 C 12.0,8.5716 11.6254,9.5558 11.0,10.3287 L 11.0,13.5 C 11.0,13.7761 10.7761,14.0 10.5,14.0 L 4.5,14.0 C 4.2239,14.0 4.0,13.7761 4.0,13.5 L 4.0,10.3287 C 3.3746,9.5558 3.0,8.5716 3.0,7.5 C 3.0,6.4283 3.3746,5.4442 4.0,4.6713 L 4.0,1.5 C 4.0,1.5 4.0,1.5 4.0,1.5 L 4.0,1.5 M 7.5,11.0 C 9.433,11.0 11.0,9.433 11.0,7.5 C 11.0,5.567 9.433,4.0 7.5,4.0 C 5.567,4.0 4.0,5.567 4.0,7.5 C 4.0,9.433 5.567,11.0 7.5,11.0 M 7.0,5.5 C 7.0,5.2239 7.2239,5.0 7.5,5.0 C 7.7761,5.0 8.0,5.2239 8.0,5.5 L 8.0,7.0 L 9.5,7.0 C 9.7761,7.0 10.0,7.2239 10.0,7.5 C 10.0,7.7761 9.7761,8.0 9.5,8.0 L 7.5,8.0 C 7.2239,8.0 7.0,7.7761 7.0,7.5 L 7.0,5.5 M 7.5,13.0 C 7.7761,13.0 8.0,12.7761 8.0,12.5 C 8.0,12.2239 7.7761,12.0 7.5,12.0 C 7.2239,12.0 7.0,12.2239 7.0,12.5 C 7.0,12.7761 7.2239,13.0 7.5,13.0" fill="#000" /></svg>