<svg xmlns="http://www.w3.org/2000/svg" width="16" height="16"><path d="M 4.5,1.0 C 4.2239,1.0 4.0,1.2239 4.0,1.5 L 4.0,4.6758 C 3.375,5.4487 3.0,6.432 3.0,7.5 C 3.0,8.568 3.375,9.5513 4.0,10.3242 L 4.0,13.5 C 4.0,13.7761 4.2239,14.0 4.5,14.0 L 10.5,14.0 C 10.7761,14.0 11.0,13.7761 11.0,13.5 L 11.0,10.3242 C 11.625,9.5513 12.0,8.568 12.0,7.5 C 12.0,6.432 11.625,5.4487 11.0,4.6758 L 11.0,1.5 C 11.0,1.2239 10.7761,1.0 10.5,1.0 L 4.5,1.0 M 7.5,4.0 A 3.5,3.5 0.0 0,1 11.0,7.5 A 3.5,3.5 0.0 0,1 7.5,11.0 A 3.5,3.5 0.0 0,1 4.0,7.5 A 3.5,3.5 0.0 0,1 7.5,4.0 M 7.5,5.0 A 0.5,0.5 0.0 0,0 7.0,5.5 L 7.0,7.5 A 0.5,0.5 0.0 0,0 7.1465,7.8535 L 8.1465,8.8535 A 0.5,0.5 0.0 0,0 8.8535,8.8535 A 0.5,0.5 0.0 0,0 8.8535,8.1465 L 8.0,7.293 L 8.0,5.5 A 0.5,0.5 0.0 0,0 7.5,5.0 M 7.5,12.0 A 0.5,0.5 0.0 0,1 8.0,12.5 A 0.5,0.5 0.0 0,1 7.5,13.0 A 0.5,0.5 0.0 0,1 7.0,12.5 A 0.5,0.5 0.0 0,1 7.5,12.0" fill="#000" /></svg>