<svg xmlns="http://www.w3.org/2000/svg" width="16" height="16"><path d="M 5.0,1.0 L 5.0,5.0547 A 3.5,3.5 0.0 0,0 4.0,7.5 A 3.5,3.5 0.0 0,0 5.0,9.9492 L 5.0,14.0 L 10.0,14.0 L 10.0,9.9453 A 3.5,3.5 0.0 0,0 11.0,7.5 A 3.5,3.5 0.0 0,0 10.0,5.0508 L 10.0,1.0 L 5.0,1.0 M 7.5,5.0 A 2.5,2.5 0.0 0,1 10.0,7.5 A 2.5,2.5 0.0 0,1 7.5,10.0 A 2.5,2.5 0.0 0,1 5.0,7.5 A 2.5,2.5 0.0 0,1 7.5,5.0 M 7.5,6.0 C 7.223,6.0 7.0,6.223 7.0,6.5 L 7.0,7.5 C 7.0,7.777 7.223,8.0 7.5,8.0 L 8.5,8.0 C 8.777,8.0 9.0,7.777 9.0,7.5 C 9.0,7.223 8.777,7.0 8.5,7.0 L 8.0,7.0 L 8.0,6.5 C 8.0,6.223 7.777,6.0 7.5,6.0 M 7.5,12.0 A 0.5,0.5 0.0 0,1 8.0,12.5 A 0.5,0.5 0.0 0,1 7.5,13.0 A 0.5,0.5 0.0 0,1 7.0,12.5 A 0.5,0.5 0.0 0,1 7.5,12.0" fill="#000" /></svg>