<svg xmlns="http://www.w3.org/2000/svg" width="16" height="16"><path d="M 4.5,1.0 C 4.223,1.0 4.0,1.224 4.0,1.5 L 4.0,4.671 C 3.375,5.444 3.0,6.428 3.0,7.5 C 3.0,8.572 3.375,9.556 4.0,10.329 L 4.0,13.5 C 4.0,13.776 4.223,14.0 4.499,14.0 L 10.5,14.0 C 10.777,14.0 11.0,13.776 11.0,13.5 L 11.0,10.329 C 11.625,9.556 12.0,8.572 12.0,7.5 C 12.0,6.428 11.625,5.444 11.0,4.671 L 11.0,1.501 C 11.0,1.224 10.777,1.0 10.501,1.0 L 4.5,1.0 M 4.0,7.5 C 4.0,5.567 5.567,4.0 7.5,4.0 C 9.433,4.0 11.0,5.567 11.0,7.5 C 11.0,9.433 9.433,11.0 7.5,11.0 C 5.567,11.0 4.0,9.433 4.0,7.5 M 7.5,5.0 C 7.224,5.0 7.0,5.224 7.0,5.5 L 7.0,7.5 C 7.0,7.776 7.223,7.999 7.499,8.0 L 9.5,8.0 C 9.777,7.999 10.0,7.776 10.0,7.5 C 10.0,7.224 9.777,7.001 9.501,7.0 L 8.0,7.0 L 8.0,5.501 C 8.0,5.224 7.776,5.0 7.5,5.0 M 7.0,12.5 C 7.0,12.224 7.224,12.0 7.5,12.0 C 7.776,12.0 8.0,12.224 8.0,12.5 C 8.0,12.776 7.776,13.0 7.5,13.0 C 7.224,13.0 7.0,12.776 7.0,12.5" fill="#000" /></svg>