<svg xmlns="http://www.w3.org/2000/svg" width="16" height="16"><path d="M 8.0,1.0 C 7.8278,0.9999 7.6677,1.0885 7.5762,1.2344 L 5.0762,5.2344 C 4.8674,5.5675 5.1069,6.0001 5.5,6.0 L 6.0,6.0 L 6.0,10.0 L 5.5,10.0 C 5.2239,10.0 5.0,10.2239 5.0,10.5 L 5.0,11.5 C 5.0002,11.6896 5.1076,11.8628 5.2773,11.9473 C 5.6581,12.1376 5.7894,12.3412 5.8906,12.7461 C 5.9919,13.151 6.0,13.75 6.0,14.5 C 6.0,14.7761 6.2239,15.0 6.5,15.0 L 9.5,15.0 C 9.7761,15.0 10.0,14.7761 10.0,14.5 C 10.0,13.75 10.008,13.151 10.1094,12.7461 C 10.2106,12.3412 10.3419,12.1376 10.7227,11.9473 C 10.8924,11.8628 10.9998,11.6896 11.0,11.5 L 11.0,10.5 C 11.0,10.2239 10.7761,10.0 10.5,10.0 L 10.0,10.0 L 10.0,6.0 L 10.5,6.0 C 10.8931,6.0001 11.1326,5.5675 10.9238,5.2344 L 8.4238,1.2344 C 8.3323,1.0885 8.1722,0.9999 8.0,1.0 M 9.0,8.0551 L 9.0,9.5 C 9.0001,9.777 8.777,10.0 8.5,10.0 L 7.5,10.0 C 7.223,10.0 7.0001,9.777 7.0,9.5 L 7.0,8.0 A 1.0,1.0 134.99943 0,1 8.0,7.0 A 1.0279,1.0279 46.534064 0,1 9.0,8.0551" fill="#000" /></svg>