<svg xmlns="http://www.w3.org/2000/svg" width="16" height="16"><path d="M 3.5,1.0 C 3.2239,1.0 3.0,1.2239 3.0,1.5 C 3.0,1.7761 3.2239,2.0 3.5,2.0 C 4.0051,1.9991 4.39,2.0812 4.6289,2.1992 C 4.8678,2.3173 4.9664,2.4378 5.0176,2.6289 L 5.2656,3.6211 C 5.2676,3.6311 5.2706,3.6407 5.2736,3.6504 L 5.6486,5.1484 C 5.6516,5.1622 5.6546,5.1759 5.6586,5.1894 L 5.8618,6.0019 C 3.7219,6.0754 2.0,7.8432 2.0,10.0 C 2.0,12.2032 3.7968,14.0 6.0,14.0 C 8.2032,14.0 10.0,12.2032 10.0,10.0 L 11.6894,10.0 L 11.9141,11.1211 C 11.3784,11.3512 11.0,11.8848 11.0,12.5 C 11.0,13.3225 11.6775,14.0 12.5,14.0 C 13.3225,14.0 14.0,13.3225 14.0,12.5 C 14.0,11.8238 13.5419,11.2448 12.9219,11.0606 L 11.9902,6.4023 C 11.9436,6.1685 11.7384,6.0001 11.5,6.0 L 6.8906,6.0 L 6.6816,5.1641 C 6.995,4.8069 7.8807,4.0 9.5,4.0 C 10.1573,3.991 10.1573,3.0093 9.5,3.0 L 6.1406,3.0 L 5.9844,2.3789 C 5.9837,2.3759 5.9834,2.3739 5.9824,2.3709 C 5.856,1.8991 5.5109,1.5193 5.0722,1.3025 C 4.6337,1.0864 4.1071,0.9989 3.5,1.0 M 6.0,7.0 C 6.0373,7.0 6.0744,7.0006 6.1113,7.002 C 7.7111,7.061 9.0,8.3864 9.0,10.0 C 9.0,10.1032 8.995,10.2061 8.9844,10.3067 C 8.9843,10.3073 8.9845,10.3077 8.9844,10.3087 C 8.9741,10.4086 8.9594,10.5068 8.9395,10.6036 C 8.9394,10.6042 8.9396,10.6046 8.9395,10.6056 C 8.9195,10.7024 8.8944,10.7976 8.8653,10.8908 C 8.5745,11.8344 7.8343,12.5746 6.8907,12.8654 C 6.6092,12.9532 6.3096,13.0 6.0,13.0 C 5.8962,13.0 5.7926,12.995 5.6914,12.9844 C 5.5909,12.9743 5.4937,12.9592 5.3965,12.9395 C 5.3959,12.9394 5.3955,12.9396 5.3945,12.9395 C 5.2979,12.9199 5.2023,12.8939 5.1093,12.8653 C 4.1657,12.5745 3.4255,11.8343 3.1347,10.8907 C 3.1056,10.7975 3.0805,10.7023 3.0605,10.6055 C 3.0604,10.6049 3.0606,10.6045 3.0605,10.6035 C 3.0406,10.5067 3.0259,10.4085 3.0156,10.3086 C 3.0156,10.308 3.0157,10.3076 3.0156,10.3066 C 3.0053,10.2061 3.0,10.1032 3.0,10.0 C 3.0,9.8967 3.006,9.7939 3.0156,9.6934 C 3.0157,9.6927 3.0155,9.6924 3.0156,9.6914 C 3.0257,9.5909 3.0408,9.4937 3.0605,9.3964 C 3.0606,9.3958 3.0604,9.3954 3.0605,9.3944 C 3.0801,9.2978 3.1061,9.2022 3.1347,9.1093 C 3.4255,8.1657 4.1657,7.4255 5.1093,7.1347 C 5.3905,7.0481 5.6895,7.0 6.0,7.0 M 6.3769,8.0352 L 6.7871,9.625 C 6.8441,9.8458 7.0434,10.0001 7.2715,10.0 L 8.0,10.0 C 8.0,9.0187 7.3049,8.21 6.3769,8.0352 M 12.5,12.0 C 12.7821,12.0 13.0,12.2179 13.0,12.5 C 13.0,12.7821 12.7821,13.0 12.5,13.0 C 12.2179,13.0 12.0,12.7821 12.0,12.5 C 12.0,12.2179 12.2179,12.0 12.5,12.0" fill="#000" /></svg>