<svg xmlns="http://www.w3.org/2000/svg" width="16" height="16"><path d="M 7.5,2.0 C 5.8889,2.0 4.4975,2.5455 3.5215,3.5215 C 2.6308,4.4121 2.098,5.6483 2.0117,7.082 C 1.4253,7.2864 1.0,7.8478 1.0,8.5 C 1.0,9.1476 1.42,9.7061 2.0,9.9141 L 2.0,10.0859 C 1.42,10.2939 1.0,10.8524 1.0,11.5 C 1.0,12.3225 1.6775,13.0 2.5,13.0 C 3.3007,13.0 3.9616,12.3574 3.9961,11.5644 C 3.9991,11.543 4.0001,11.5215 4.0001,11.5 L 4.0001,8.5 L 4.0001,7.5 C 4.0001,6.45 4.5654,5.9434 5.2306,5.8008 C 5.8957,5.6583 6.6497,5.9165 7.0528,6.7227 C 7.2371,7.0913 7.7631,7.0913 7.9474,6.7227 C 8.3505,5.9165 9.1045,5.6583 9.7696,5.8008 C 10.4347,5.9433 11.0,6.45 11.0,7.5 L 11.0,8.5 L 11.0,11.5 C 11.0,11.5218 11.003,11.5429 11.004,11.5644 C 11.0385,12.3573 11.6993,13.0 12.5001,13.0 C 13.3226,13.0 14.0001,12.3225 14.0001,11.5 C 14.0001,10.8524 13.5801,10.2938 13.0001,10.0859 L 13.0001,9.914 C 13.5801,9.7061 14.0001,9.1475 14.0001,8.5 C 14.0001,7.8478 13.5748,7.2864 12.9884,7.082 C 12.9021,5.6482 12.3693,4.4121 11.4786,3.5214 C 10.5025,2.5455 9.1111,2.0 7.5,2.0" fill="#000" /></svg>