<svg xmlns="http://www.w3.org/2000/svg" width="16" height="16"><path d="M 4.6836,1.7832 C 4.4939,1.9381 4.4443,2.2076 4.5664,2.4199 L 6.5664,5.8848 C 6.705,6.1237 7.0111,6.2051 7.25,6.0664 L 7.6836,5.8164 C 7.8472,5.7214 7.9431,5.5423 7.9316,5.3535 L 7.8652,4.2383 C 7.8572,4.106 7.7966,3.9823 7.6973,3.8945 L 5.332,1.7949 C 5.1447,1.6298 4.8689,1.6315 4.6836,1.7832 L 4.6836,1.7832 M 8.5,6.0 C 8.2239,6.0 8.0,6.2239 8.0,6.5 L 8.0,7.0 C 8.0002,7.1896 8.1076,7.3628 8.2773,7.4473 L 9.2773,7.9473 C 9.3957,8.0064 9.5326,8.0163 9.6582,7.9746 L 12.6582,6.9746 C 13.1972,6.7956 13.0679,5.9993 12.5,6.0 L 8.5,6.0 M 6.5508,6.6172 C 6.4583,6.6202 6.3683,6.6484 6.291,6.6992 L 5.3594,7.3144 C 5.2487,7.3872 5.1714,7.5011 5.1445,7.6308 L 4.5098,10.7304 C 4.3941,11.2879 5.1512,11.5744 5.4336,11.08 L 7.4336,7.6152 C 7.5706,7.3762 7.4885,7.0714 7.25,6.9336 L 6.8164,6.6836 C 6.7358,6.6372 6.6438,6.6142 6.5508,6.6172 L 6.5508,6.6172 M 8.082,8.4922 L 6.4961,11.2383 L 6.0059,14.4238 C 5.9593,14.7267 6.1935,15.0 6.5,15.0 L 8.5,15.0 C 8.8065,15.0 9.0408,14.7267 8.9941,14.4238 L 8.082,8.4922" fill="#000" /></svg>