<svg xmlns="http://www.w3.org/2000/svg" width="16" height="16"><path d="M 8.0,4.0 C 5.4999,4.0 3.1875,5.3349 1.9375,7.5 C 1.6041,8.0782 2.4713,8.5782 2.8047,8.0 C 3.8769,6.1429 5.8556,5.0 8.0,5.0 C 10.1444,5.0 12.1231,6.1429 13.1953,8.0 C 13.5286,8.5781 14.3958,8.0781 14.0625,7.5 C 12.8125,5.3349 10.5001,4.0 8.0,4.0 M 8.0,6.0 C 6.2145,6.0 4.5627,6.9537 3.6699,8.5 C 3.2993,9.0864 4.2121,9.6139 4.5352,9.0 C 5.2501,7.7617 6.5701,7.0 8.0,7.0 C 9.4299,7.0 10.7499,7.7617 11.4648,9.0 C 11.7879,9.6139 12.7007,9.0864 12.3301,8.5 C 11.4373,6.9537 9.7855,6.0 8.0,6.0 M 8.0,8.0 C 6.929,8.0 5.9378,8.5725 5.4023,9.5 C 5.0317,10.0864 5.9446,10.6139 6.2676,10.0 C 6.6252,9.3805 7.2847,9.0 8.0,9.0 C 8.7153,9.0 9.3748,9.3805 9.7324,10.0 C 10.0554,10.6139 10.9683,10.0864 10.5977,9.5 C 10.0622,8.5725 9.071,8.0 8.0,8.0 M 8.0,10.0 C 7.4477,10.0 7.0,10.4477 7.0,11.0 C 7.0,11.5523 7.4477,12.0 8.0,12.0 C 8.5523,12.0 9.0,11.5523 9.0,11.0 C 9.0,10.4477 8.5523,10.0 8.0,10.0" fill="#000" /></svg>