<svg xmlns="http://www.w3.org/2000/svg" width="16" height="16"><path d="M 8.0,1.0 C 5.4999,1.0 3.1875,2.3349 1.9375,4.5 C 1.6041,5.0782 2.4713,5.5782 2.8047,5.0 C 3.8769,3.1429 5.8556,2.0 8.0,2.0 C 10.1444,2.0 12.1231,3.1429 13.1953,5.0 C 13.5286,5.5781 14.3958,5.0781 14.0625,4.5 C 12.8125,2.3349 10.5001,1.0 8.0,1.0 M 8.0,3.0 C 6.2145,3.0 4.5627,3.9537 3.6699,5.5 C 3.2993,6.0864 4.2121,6.6139 4.5352,6.0 C 5.2501,4.7617 6.5701,4.0 8.0,4.0 C 9.4299,4.0 10.7499,4.7617 11.4648,6.0 C 11.7879,6.6139 12.7007,6.0864 12.3301,5.5 C 11.4373,3.9537 9.7855,3.0 8.0,3.0 M 8.0,5.0 C 6.929,5.0 5.9378,5.5725 5.4023,6.5 C 5.0317,7.0864 5.9446,7.6139 6.2676,7.0 C 6.6252,6.3805 7.2847,6.0 8.0,6.0 C 8.7153,6.0 9.3748,6.3805 9.7324,7.0 C 10.0554,7.6139 10.9683,7.0864 10.5977,6.5 C 10.0622,5.5725 9.071,5.0 8.0,5.0 M 8.0,7.0 C 7.4477,7.0 7.0,7.4477 7.0,8.0 C 7.0,8.5523 7.4477,9.0 8.0,9.0 C 8.5523,9.0 9.0,8.5523 9.0,8.0 C 9.0,7.4477 8.5523,7.0 8.0,7.0" fill="#000" /><path d="M 2.5,10.0 C 2.2239,10.0 2.0,10.2239 2.0,10.5 L 2.0,14.5 C 1.9904,15.1762 3.0096,15.1762 3.0,14.5 L 3.0,13.0 L 3.5,13.0 C 4.1762,13.01 4.1762,11.9904 3.5,12.0 L 3.0,12.0 L 3.0,11.0 L 3.5,11.0 C 4.1762,11.01 4.1762,9.9904 3.5,10.0 L 2.5,10.0 M 5.5,10.0 C 5.2239,10.0 5.0,10.2239 5.0,10.5 L 5.0,14.5 C 4.9904,15.1762 6.0096,15.1762 6.0,14.5 L 6.0,13.0 L 6.0703,13.0 L 7.0664,14.7481 C 7.385,15.3689 8.3073,14.8413 7.9336,14.252 L 7.1309,12.8398 C 7.2829,12.7609 7.4225,12.6595 7.541,12.541 C 7.8071,12.2749 8.0,11.9167 8.0,11.5 C 8.0,11.0833 7.8071,10.7251 7.541,10.459 C 7.2749,10.1929 6.9167,10.0 6.5,10.0 L 5.5,10.0 M 9.5,10.0 C 9.2239,10.0 9.0,10.2239 9.0,10.5 L 9.0,14.5 C 9.0,14.7761 9.2239,15.0 9.5,15.0 L 10.5,15.0 C 11.1762,15.01 11.1762,13.9904 10.5,14.0 L 10.0,14.0 L 10.0,13.0 L 10.5,13.0 C 11.1762,13.01 11.1762,11.9904 10.5,12.0 L 10.0,12.0 L 10.0,11.0 L 10.5,11.0 C 11.1762,11.01 11.1762,9.9904 10.5,10.0 L 9.5,10.0 M 12.5,10.0 C 12.2239,10.0 12.0,10.2239 12.0,10.5 L 12.0,14.5 C 12.0,14.7761 12.2239,15.0 12.5,15.0 L 13.5,15.0 C 14.1762,15.01 14.1762,13.9904 13.5,14.0 L 13.0,14.0 L 13.0,13.0 L 13.5,13.0 C 14.1762,13.01 14.1762,11.9904 13.5,12.0 L 13.0,12.0 L 13.0,11.0 L 13.5,11.0 C 14.1762,11.01 14.1762,9.9904 13.5,10.0 L 12.5,10.0 M 6.0,11.0 L 6.5,11.0 C 6.7929,11.0 7.0,11.2148 7.0,11.5 C 7.0,11.7851 6.8008,12.0 6.5,12.0 L 6.0,12.0 L 6.0,11.0" fill="#000" /></svg>