<svg xmlns="http://www.w3.org/2000/svg" width="16" height="16"><path d="M 5.0,3.0 C 4.4477,3.0 4.0,3.4477 4.0,4.0 C 4.0,4.5523 4.4477,5.0 5.0,5.0 C 5.5523,5.0 6.0,4.5523 6.0,4.0 C 6.0,3.4477 5.5523,3.0 5.0,3.0 M 10.0,3.0 C 9.4477,3.0 9.0,3.4477 9.0,4.0 C 9.0,4.5523 9.4477,5.0 10.0,5.0 C 10.5523,5.0 11.0,4.5523 11.0,4.0 C 11.0,3.4477 10.5523,3.0 10.0,3.0 M 3.5,6.0 C 3.223,6.0 3.0,6.223 3.0,6.5 L 3.0,7.5 C 3.0,7.777 3.223,8.0 3.5,8.0 L 4.3438,8.0 L 3.0,12.0 L 7.0,12.0 L 5.6562,8.0 L 6.5,8.0 C 6.777,8.0 7.0,7.777 7.0,7.5 L 7.0,6.5 C 7.0,6.223 6.777,6.0 6.5,6.0 L 3.5,6.0 M 9.0,6.0 C 8.446,6.0 8.0,6.446 8.0,7.0 L 8.0,8.0 C 8.0,8.554 8.446,9.0 9.0,9.0 L 9.0,11.5 C 9.0,11.777 9.223,12.0 9.5,12.0 L 10.5,12.0 C 10.777,12.0 11.0,11.777 11.0,11.5 L 11.0,9.0 C 11.554,9.0 12.0,8.554 12.0,8.0 L 12.0,7.0 C 12.0,6.446 11.554,6.0 11.0,6.0 L 9.0,6.0" fill="#000" /></svg>