<svg xmlns="http://www.w3.org/2000/svg" width="16" height="16"><path d="M 5.0,2.0 C 4.4477,2.0 4.0,2.4477 4.0,3.0 C 4.0,3.5523 4.4477,4.0 5.0,4.0 C 5.5523,4.0 6.0,3.5523 6.0,3.0 C 6.0,2.4477 5.5523,2.0 5.0,2.0 M 10.0,2.0 C 9.4477,2.0 9.0,2.4477 9.0,3.0 C 9.0,3.5523 9.4477,4.0 10.0,4.0 C 10.5523,4.0 11.0,3.5523 11.0,3.0 C 11.0,2.4477 10.5523,2.0 10.0,2.0 M 3.5,5.0 C 3.223,5.0 3.0,5.223 3.0,5.5 L 3.0,7.5 C 3.0,7.777 3.223,8.0 3.5,8.0 L 3.8906,8.0 L 3.0098,12.4023 C 2.9483,12.7116 3.1847,12.9999 3.5,13.0 L 6.5,13.0 C 6.8153,12.9999 7.0518,12.7116 6.9902,12.4023 L 6.1094,8.0 L 6.5,8.0 C 6.777,8.0 7.0,7.777 7.0,7.5 L 7.0,5.5 C 7.0,5.223 6.777,5.0 6.5,5.0 L 3.5,5.0 M 8.5,5.0 C 8.223,5.0 8.0,5.223 8.0,5.5 L 8.0,7.5 C 8.0,7.777 8.223,8.0 8.5,8.0 L 9.0,8.0 L 9.0,12.5 C 9.0,12.777 9.223,13.0 9.5,13.0 L 10.5,13.0 C 10.777,13.0 11.0,12.777 11.0,12.5 L 11.0,8.0 L 11.5,8.0 C 11.777,8.0 12.0,7.777 12.0,7.5 L 12.0,5.5 C 12.0,5.223 11.777,5.0 11.5,5.0 L 8.5,5.0" fill="#000" /></svg>