<svg xmlns="http://www.w3.org/2000/svg" width="16" height="16"><path d="M 8.0,1.0 C 7.2286,1.0 6.5232,1.1806 5.9746,1.5098 C 5.426,1.8389 5.0,2.3606 5.0,3.0 L 5.0,5.0 C 5.0,5.0964 4.9622,5.2128 4.8535,5.1465 L 3.8535,4.1465 C 3.6587,3.9516 3.3413,3.9516 3.1465,4.1465 C 2.9513,4.3417 2.9513,4.6583 3.1465,4.8535 L 4.1465,5.8535 C 4.6465,6.3535 5.0,6.6667 5.0,7.5 L 5.0,12.0 C 5.0,12.6394 5.426,13.1611 5.9746,13.4902 C 6.5232,13.8194 7.2286,14.0 8.0,14.0 C 8.7714,14.0 9.4768,13.8194 10.0254,13.4902 C 10.574,13.1611 11.0,12.6394 11.0,12.0 L 11.0,10.5 C 11.0,9.1111 11.4694,7.9547 12.2773,7.416 L 13.7773,6.416 C 14.0071,6.2628 14.0692,5.9524 13.916,5.7227 C 13.8203,5.5791 13.6625,5.501 13.502,5.5 C 13.4057,5.4994 13.3088,5.5266 13.2227,5.584 L 11.707,6.5938 C 11.2645,6.8886 11.0,6.4939 11.0,6.2031 L 11.0,3.0 C 11.0,2.3606 10.574,1.8389 10.0254,1.5098 C 9.4768,1.1806 8.7714,1.0 8.0,1.0 M 8.0,2.0 C 8.6093,2.0 9.1536,2.1535 9.5098,2.3672 C 9.866,2.5809 10.0,2.811 10.0,3.0 C 10.0,3.189 9.866,3.4191 9.5098,3.6328 C 9.1536,3.8465 8.6093,4.0 8.0,4.0 C 7.3907,4.0 6.8464,3.8465 6.4902,3.6328 C 6.134,3.4191 6.0,3.189 6.0,3.0 C 6.0,2.811 6.134,2.5809 6.4902,2.3672 C 6.8464,2.1535 7.3907,2.0 8.0,2.0" fill="#000" /></svg>