<svg xmlns="http://www.w3.org/2000/svg" width="16" height="16"><path d="M 11.0,5.5 C 11.6085,5.5002 12.1959,5.7225 12.6523,6.125 C 12.7602,6.2198 12.8221,6.3564 12.8223,6.5 C 12.8223,6.7762 12.5984,7.0 12.3223,7.0 L 10.7676,7.0 L 10.1016,8.0 L 10.7676,9.0 L 12.3223,9.0 C 12.5984,9.0 12.8223,9.2239 12.8223,9.5 C 12.8221,9.6436 12.7602,9.7802 12.6523,9.875 C 12.6463,9.88 12.6404,9.8857 12.6347,9.8906 C 12.1808,10.2838 11.601,10.4998 11.0,10.5 C 9.9802,10.5 9.0987,9.8809 8.7109,9.0 L 2.5,9.0 C 2.2239,9.0 2.0,8.7761 2.0,8.5 L 2.0,7.5 C 2.0,7.2239 2.2239,7.0 2.5,7.0 L 8.7109,7.0 C 9.0987,6.1191 9.9802,5.5 11.0,5.5 L 11.0,5.5" fill="#000" /></svg>