<svg xmlns="http://www.w3.org/2000/svg" width="16" height="16"><path d="M 4.5,5.5 C 3.8915,5.5002 3.3041,5.7225 2.8477,6.125 C 2.7398,6.2198 2.6779,6.3564 2.6777,6.5 C 2.6777,6.7761 2.9016,7.0 3.1777,7.0 L 4.7324,7.0 L 5.3984,8.0 L 4.7324,9.0 L 3.1777,9.0 C 2.9016,9.0 2.6777,9.2239 2.6777,9.5 C 2.6779,9.6436 2.7398,9.7802 2.8477,9.875 C 2.8537,9.88 2.8596,9.8857 2.8653,9.8906 C 3.3192,10.2838 3.899,10.4998 4.5,10.5 C 5.5198,10.5 6.4013,9.8808 6.7891,9.0 L 12.5,9.0 C 12.7761,8.9999 13.0,8.7761 13.0,8.5 L 13.0,7.5 C 13.0,7.2238 12.7761,7.0 12.5,7.0 L 6.7891,7.0 C 6.4013,6.1191 5.5198,5.5 4.5,5.5 L 4.5,5.5" fill="#000" /></svg>