<svg xmlns="http://www.w3.org/2000/svg" width="16" height="16"><path d="M 5.0,2.0 C 4.4477,2.0 4.0,2.4477 4.0,3.0 L 4.0,9.0 L 3.0,10.0 L 3.0,12.0 L 4.0,13.0 L 4.0,11.0 L 5.0,10.0 L 6.0,11.0 L 6.0,13.0 L 7.0,12.0 L 7.0,10.0 L 6.0,9.0 L 6.0,3.0 C 6.0,2.4477 5.5523,2.0 5.0,2.0 M 8.0,3.0 L 8.0,5.5 L 9.0,5.5 L 9.0,5.0 L 9.5,5.0 L 10.5,5.5 L 10.0,8.0 L 10.0,13.0 L 12.0,13.0 L 12.0,8.0 L 11.5,5.5 C 11.5,3.5 13.5,3.5 14.5,4.5 L 14.5,4.0 C 13.5,3.0 13.0,3.0 12.0,3.0 L 10.0,3.0 L 9.5,3.5 L 9.0,3.5 L 9.0,3.0 L 8.0,3.0" fill="#000" /></svg>