<svg xmlns="http://www.w3.org/2000/svg" width="16" height="16"><path d="M 3.5,2.0 C 3.2239,2.0 3.0,2.2239 3.0,2.5 L 3.0,9.2109 C 2.1191,9.5987 1.5,10.4802 1.5,11.5 C 1.5002,12.1085 1.7225,12.6959 2.125,13.1523 C 2.2198,13.2602 2.3564,13.3221 2.5,13.3223 C 2.7761,13.3223 3.0,13.0984 3.0,12.8223 L 3.0,11.2676 L 4.0,10.6016 L 5.0,11.2676 L 5.0,12.8223 C 5.0,13.0984 5.2239,13.3223 5.5,13.3223 C 5.6436,13.3221 5.7802,13.2602 5.875,13.1523 C 5.88,13.1463 5.8857,13.1405 5.8906,13.1348 C 6.2838,12.6808 6.4998,12.101 6.5,11.5 C 6.5,10.4802 5.8809,9.5987 5.0,9.2109 L 5.0,2.5 C 5.0,2.2239 4.7761,2.0 4.5,2.0 L 3.5,2.0 M 7.5,2.0 C 7.2239,2.0 7.0,2.2239 7.0,2.5 L 7.0,4.5 C 7.0,4.7761 7.2239,5.0 7.5,5.0 L 8.0,5.0 C 8.1326,5.0 8.2598,4.9473 8.3535,4.8535 L 8.707,4.5 L 9.293,4.5 L 9.6465,4.8535 C 9.7402,4.9473 9.8674,5.0 10.0,5.0 L 10.0,12.5 C 10.0,12.7761 10.2239,13.0 10.5,13.0 L 11.5,13.0 C 11.7761,13.0 12.0,12.7761 12.0,12.5 L 12.0,5.5 L 12.0,4.5 C 12.0,4.2639 12.072,4.1538 12.2051,4.0508 C 12.3382,3.9477 12.5597,3.875 12.8125,3.875 C 13.3169,3.875 13.851,4.1441 14.0234,4.6543 L 14.0234,4.6563 L 14.0254,4.6563 L 14.0254,4.6583 C 14.0913,4.8571 14.2784,5.0 14.5,5.0 C 14.8631,5.0 15.0767,4.6427 14.9746,4.3418 C 14.7,3.5321 14.1396,2.8255 13.6406,2.5137 C 13.0326,2.1337 12.3056,2.0 11.5,2.0 L 10.0,2.0 C 9.8674,2.0 9.7402,2.0527 9.6465,2.1465 L 9.293,2.5 L 8.707,2.5 L 8.3535,2.1465 C 8.2598,2.0527 8.1326,2.0 8.0,2.0 L 7.5,2.0" fill="#000" /></svg>