<svg xmlns="http://www.w3.org/2000/svg" width="16" height="16"><path d="M 4.8184,4.1113 L 4.1113,4.8184 C 3.9155,5.0142 3.9155,5.3295 4.1113,5.5254 L 6.5859,8.0 L 4.1113,10.4746 C 3.9155,10.6705 3.9155,10.9858 4.1113,11.1816 L 4.8184,11.8887 C 5.0142,12.0845 5.3295,12.0845 5.5254,11.8887 L 8.0,9.4141 L 10.4746,11.8887 C 10.6705,12.0845 10.9858,12.0845 11.1816,11.8887 L 11.8887,11.1816 C 12.0845,10.9858 12.0845,10.6705 11.8887,10.4746 L 9.4141,8.0 L 11.8887,5.5254 C 12.0845,5.3295 12.0845,5.0142 11.8887,4.8184 L 11.1816,4.1113 C 10.9858,3.9155 10.6705,3.9155 10.4746,4.1113 L 8.0,6.5859 L 5.5254,4.1113 C 5.3303,3.9162 5.0134,3.9161 4.8184,4.1113 L 4.8184,4.1113" fill="#000" /></svg>