<?xml version="1.0" encoding="UTF-8" standalone="no"?>
<svg
   sodipodi:docname="sketch.svg"
   inkscape:version="1.4.2 (ebf0e940, 2025-05-08)"
   version="1.1"
   id="svg2987"
   height="800"
   width="800"
   inkscape:export-filename="/Users/enzet/program/map-machine/map_machine/icons/icons.png"
   inkscape:export-xdpi="960"
   inkscape:export-ydpi="960"
   xml:space="preserve"
   xmlns:inkscape="http://www.inkscape.org/namespaces/inkscape"
   xmlns:sodipodi="http://sodipodi.sourceforge.net/DTD/sodipodi-0.dtd"
   xmlns="http://www.w3.org/2000/svg"
   xmlns:svg="http://www.w3.org/2000/svg"
   xmlns:rdf="http://www.w3.org/1999/02/22-rdf-syntax-ns#"
   xmlns:cc="http://creativecommons.org/ns#"
   xmlns:dc="http://purl.org/dc/elements/1.1/"><defs
     id="defs2989" /><sodipodi:namedview
     inkscape:document-rotation="0"
     inkscape:snap-center="false"
     inkscape:snap-global="true"
     inkscape:snap-smooth-nodes="true"
     inkscape:snap-intersection-paths="true"
     inkscape:object-nodes="true"
     inkscape:window-maximized="0"
     inkscape:window-y="30"
     inkscape:window-x="8"
     inkscape:window-height="831"
     inkscape:window-width="1424"
     inkscape:snap-bbox="true"
     inkscape:object-paths="true"
     inkscape:guide-bbox="true"
     showguides="true"
     showgrid="true"
     inkscape:document-units="px"
     inkscape:current-layer="vending_candy_v999"
     inkscape:cy="6.5500621"
     inkscape:cx="12.149309"
     inkscape:zoom="28.396677"
     inkscape:pageshadow="2"
     inkscape:pageopacity="0"
     borderopacity="1.0"
     bordercolor="#666666"
     pagecolor="#ffffff"
     id="base"
     inkscape:snap-object-midpoints="true"
     inkscape:bbox-paths="false"
     inkscape:snap-bbox-edge-midpoints="false"
     inkscape:snap-bbox-midpoints="true"
     inkscape:bbox-nodes="false"
     inkscape:pagecheckerboard="false"
     showborder="true"
     inkscape:showpageshadow="false"
     height="800px"
     inkscape:deskcolor="#d1d1d1"><inkscape:grid
       snapvisiblegridlinesonly="true"
       enabled="true"
       visible="true"
       empspacing="16"
       id="grid2995"
       type="xygrid"
       dotted="false"
       color="#000000"
       opacity="0.05098039"
       empcolor="#000000"
       empopacity="0.10196078"
       spacingy="0.5"
       spacingx="0.5"
       originx="0"
       originy="0"
       units="px" /><inkscape:grid
       type="xygrid"
       id="grid5692"
       empspacing="8"
       originx="0"
       originy="0"
       spacingy="1"
       spacingx="1"
       units="px"
       visible="true"
       enabled="true"
       color="#000000"
       opacity="0.05098039"
       empcolor="#000000"
       empopacity="0.10196078" /></sodipodi:namedview><metadata
     id="metadata2992"><rdf:RDF><cc:Work
         rdf:about=""><dc:format>image/svg+xml</dc:format><dc:type
           rdf:resource="http://purl.org/dc/dcmitype/StillImage" /></cc:Work></rdf:RDF></metadata><g
     inkscape:groupmode="layer"
     inkscape:label="main"
     id="layer1"
     style="display:inline"><path
       cx="315"
       cy="204"
       r="2"
       id="path5840"
       style="opacity:1;fill:none;fill-opacity:1;stroke:#000000;stroke-width:0.1;stroke-linecap:round;stroke-linejoin:round;stroke-miterlimit:4;stroke-dasharray:none;stroke-dashoffset:0;stroke-opacity:1"
       d=""
       inkscape:connector-curvature="0" /><path
       cx="315"
       cy="204"
       r="1"
       id="path5842"
       style="opacity:1;fill:none;fill-opacity:1;stroke:#000000;stroke-width:0.1;stroke-linecap:round;stroke-linejoin:round;stroke-miterlimit:4;stroke-dasharray:none;stroke-dashoffset:0;stroke-opacity:1"
       d=""
       inkscape:connector-curvature="0" /><circle
       style="opacity:1;fill:none;fill-opacity:1;stroke:#000000;stroke-width:0.1;stroke-linecap:round;stroke-linejoin:miter;stroke-miterlimit:4;stroke-dasharray:none;stroke-dashoffset:0;stroke-opacity:1"
       id="path9588"
       cx="1165.1854"
       cy="323.3439"
       r="3" /><g
       id="path30996" /><g
       id="g15" /><g
       id="path394"
       style="opacity:0.2" /><g
       id="path741"
       style="opacity:1" /><g
       id="path731"
       style="opacity:0.2" /><g
       id="path1230"
       style="opacity:1" /><rect
       style="fill:#0000a3;stroke-width:0.0982677;stroke-linejoin:round;-inkscape-stroke:none"
       id="rect20"
       width="4"
       height="4.5"
       x="4.5"
       y="-9.5"
       rx="0.12928589"
       ry="6.4942169e-06" /><g
       id="vending_candy_v999"><rect
         style="opacity:0.1;fill:#ff0000;fill-opacity:1;stroke-width:2;stroke-linejoin:round;-inkscape-stroke:none"
         id="rect72"
         width="15.999999"
         height="16"
         x="0"
         y="0"
         rx="0"
         ry="0" /><rect
         ry="0.5"
         rx="0.5"
         y="1"
         x="1.000061"
         height="13.999998"
         width="12.999878"
         id="rect1461"
         style="fill:#000000;stroke:none;stroke-width:0.1;stroke-miterlimit:4;stroke-dasharray:none" /><rect
         transform="matrix(0,-1,-1,0,0,0)"
         style="fill:#ffffff;fill-opacity:1;stroke:none;stroke-width:0.1;stroke-miterlimit:4;stroke-dasharray:none"
         id="rect1462"
         width="2"
         height="1"
         x="-4"
         y="-13"
         rx="0.5"
         ry="0.5" /><rect
         ry="0.49999997"
         rx="0.49999997"
         y="-11"
         x="-13"
         height="8.999999"
         width="11"
         id="rect1463"
         style="fill:#ffffff;stroke:none;stroke-width:0.1;stroke-miterlimit:4;stroke-dasharray:none;stroke-opacity:1;stroke-linecap:round"
         transform="matrix(0,-1,-1,0,0,0)" /><circle
         style="font-variation-settings:normal;opacity:1;vector-effect:none;fill:#000000;fill-opacity:1;stroke:#000000;stroke-width:0.999999px;stroke-linecap:round;stroke-linejoin:round;stroke-miterlimit:4;stroke-dasharray:none;stroke-dashoffset:0;stroke-opacity:1;-inkscape-stroke:none;marker:none;stop-color:#000000;stop-opacity:1"
         id="circle1463"
         cx="6.5"
         cy="7.5"
         r="2" /><circle
         style="font-variation-settings:normal;opacity:1;vector-effect:none;fill:#ffffff;fill-opacity:1;stroke:none;stroke-width:0.1;stroke-linecap:butt;stroke-linejoin:miter;stroke-miterlimit:4;stroke-dasharray:none;stroke-dashoffset:0;stroke-opacity:1;-inkscape-stroke:none;marker:none;stop-color:#000000;stop-opacity:1"
         id="circle1478"
         cx="12.5"
         cy="5.5"
         r="0.5" /><circle
         style="font-variation-settings:normal;opacity:1;vector-effect:none;fill:#ffffff;fill-opacity:1;stroke:none;stroke-width:0.1;stroke-linecap:butt;stroke-linejoin:miter;stroke-miterlimit:4;stroke-dasharray:none;stroke-dashoffset:0;stroke-opacity:1;-inkscape-stroke:none;marker:none;stop-color:#000000;stop-opacity:1"
         id="circle1479"
         cx="12.5"
         cy="7.5"
         r="0.5" /><circle
         style="font-variation-settings:normal;opacity:1;vector-effect:none;fill:#ffffff;fill-opacity:1;stroke:none;stroke-width:0.1;stroke-linecap:butt;stroke-linejoin:miter;stroke-miterlimit:4;stroke-dasharray:none;stroke-dashoffset:0;stroke-opacity:1;-inkscape-stroke:none;marker:none;stop-color:#000000;stop-opacity:1"
         id="circle1480"
         cx="12.5"
         cy="9.5"
         r="0.5" /><path
         id="path76"
         style="opacity:1;fill:#000000;stroke:#000000;stroke-width:0.999999;stroke-linecap:round;stroke-linejoin:round;fill-opacity:1.0"
         d="m 4.9999998,3.5 c 0.1989121,0.1934339 0.4686952,0.3021038 0.7499997,0.3021038 0.2813045,0 0.5510876,-0.1086699 0.7500003,-0.3021037 C 6.6989124,3.6934339 6.9686955,3.8021038 7.25,3.8021038 7.5313045,3.8021038 7.8010876,3.6934339 7.9999999,3.5 L 6.5,6 Z"
         sodipodi:nodetypes="cscsccc" /><path
         id="path82"
         style="opacity:1;fill:#000000;stroke:#000000;stroke-width:0.999999;stroke-linecap:round;stroke-linejoin:round;fill-opacity:1.0"
         transform="scale(1,-1)"
         d="m 7.25,-11.197896 c -0.2813046,0 -0.5510876,-0.10867 -0.7500002,-0.302104 -0.1989127,0.193434 -0.4686957,0.302104 -0.7500003,0.302104 -0.2813046,0 -0.5510876,-0.10867 -0.7499997,-0.302104 L 6.5,-9 7.9999999,-11.5 C 7.8010876,-11.306566 7.5313046,-11.197896 7.25,-11.197896 Z"
         sodipodi:nodetypes="scscccs" /></g><g
       id="vending_pack_v0"
       transform="translate(16)"><rect
         style="opacity:0.1;fill:#ff0000;fill-opacity:1;stroke-width:2;stroke-linejoin:round;-inkscape-stroke:none"
         id="rect21"
         width="15.999999"
         height="16"
         x="0"
         y="0"
         rx="0"
         ry="0" /><rect
         ry="0.5"
         rx="0.5"
         y="1"
         x="1.000061"
         height="13.999998"
         width="12.999878"
         id="rect22"
         style="fill:#000000;stroke:none;stroke-width:0.1;stroke-miterlimit:4;stroke-dasharray:none" /><rect
         transform="matrix(0,-1,-1,0,0,0)"
         style="fill:#ffffff;fill-opacity:1;stroke:none;stroke-width:0.1;stroke-miterlimit:4;stroke-dasharray:none"
         id="rect23"
         width="2"
         height="1"
         x="-4"
         y="-13"
         rx="0.5"
         ry="0.5" /><rect
         ry="0.49999997"
         rx="0.49999997"
         y="-11"
         x="-13"
         height="8.999999"
         width="11"
         id="rect24"
         style="fill:#ffffff;stroke:none;stroke-width:0.1;stroke-miterlimit:4;stroke-dasharray:none;stroke-opacity:1"
         transform="matrix(0,-1,-1,0,0,0)" /><circle
         style="font-variation-settings:normal;opacity:1;vector-effect:none;fill:#ffffff;fill-opacity:1;stroke:none;stroke-width:0.1;stroke-linecap:butt;stroke-linejoin:miter;stroke-miterlimit:4;stroke-dasharray:none;stroke-dashoffset:0;stroke-opacity:1;-inkscape-stroke:none;marker:none;stop-color:#000000;stop-opacity:1"
         id="circle25"
         cx="12.5"
         cy="5.5"
         r="0.5" /><circle
         style="font-variation-settings:normal;opacity:1;vector-effect:none;fill:#ffffff;fill-opacity:1;stroke:none;stroke-width:0.1;stroke-linecap:butt;stroke-linejoin:miter;stroke-miterlimit:4;stroke-dasharray:none;stroke-dashoffset:0;stroke-opacity:1;-inkscape-stroke:none;marker:none;stop-color:#000000;stop-opacity:1"
         id="circle26"
         cx="12.5"
         cy="7.5"
         r="0.5" /><circle
         style="font-variation-settings:normal;opacity:1;vector-effect:none;fill:#ffffff;fill-opacity:1;stroke:none;stroke-width:0.1;stroke-linecap:butt;stroke-linejoin:miter;stroke-miterlimit:4;stroke-dasharray:none;stroke-dashoffset:0;stroke-opacity:1;-inkscape-stroke:none;marker:none;stop-color:#000000;stop-opacity:1"
         id="circle27"
         cx="12.5"
         cy="9.5"
         r="0.5" /><path
         style="font-variation-settings:normal;opacity:1;vector-effect:none;fill:#000000;fill-opacity:1;stroke:none;stroke-width:0.1;stroke-linecap:butt;stroke-linejoin:miter;stroke-miterlimit:4;stroke-dasharray:none;stroke-dashoffset:0;stroke-opacity:1;-inkscape-stroke:none;stop-color:#000000;stop-opacity:1"
         d="m 3,12 h 0.5 l 1,-0.5 1,0.5 1,-0.5 1,0.5 1,-0.5 1,0.5 H 10 v -1.5 c -1,-2 -1,-4 0,-6 V 3 H 9.5 L 8.5,3.5 7.5,3 6.5,3.5 5.5,3 4.5,3.5 3.5,3 H 3 v 1.5 c 1,2 0.927551,4 0,6 z"
         id="path40"
         sodipodi:nodetypes="ccccccccccccccccccccccc" /><rect
         style="fill:#ffffff;fill-opacity:1;stroke:none;stroke-width:0.0982677;stroke-linejoin:round;-inkscape-stroke:none"
         id="rect40"
         width="8"
         height="1"
         x="2.5"
         y="4"
         rx="0.12928589"
         ry="6.4942169e-06" /><rect
         style="fill:#ffffff;fill-opacity:1;stroke:none;stroke-width:0.0982677;stroke-linejoin:round;-inkscape-stroke:none"
         id="rect41"
         width="8"
         height="1"
         x="2.5"
         y="10"
         rx="0.12928589"
         ry="6.4942169e-06" /></g><g
       id="vending_pack_v999"
       transform="translate(32)"><rect
         style="opacity:0.1;fill:#ff0000;fill-opacity:1;stroke-width:2;stroke-linejoin:round;-inkscape-stroke:none"
         id="rect54"
         width="15.999999"
         height="16"
         x="0"
         y="0"
         rx="0"
         ry="0" /><rect
         ry="0.5"
         rx="0.5"
         y="1"
         x="1.000061"
         height="13.999998"
         width="12.999878"
         id="rect55"
         style="fill:#000000;stroke:none;stroke-width:0.1;stroke-miterlimit:4;stroke-dasharray:none" /><rect
         transform="matrix(0,-1,-1,0,0,0)"
         style="fill:#ffffff;fill-opacity:1;stroke:none;stroke-width:0.1;stroke-miterlimit:4;stroke-dasharray:none"
         id="rect56"
         width="2"
         height="1"
         x="-4"
         y="-13"
         rx="0.5"
         ry="0.5" /><rect
         ry="0.49999997"
         rx="0.49999997"
         y="-11"
         x="-13"
         height="8.999999"
         width="11"
         id="rect57"
         style="fill:#ffffff;stroke:none;stroke-width:0.1;stroke-miterlimit:4;stroke-dasharray:none;stroke-opacity:1"
         transform="matrix(0,-1,-1,0,0,0)" /><circle
         style="font-variation-settings:normal;opacity:1;vector-effect:none;fill:#ffffff;fill-opacity:1;stroke:none;stroke-width:0.1;stroke-linecap:butt;stroke-linejoin:miter;stroke-miterlimit:4;stroke-dasharray:none;stroke-dashoffset:0;stroke-opacity:1;-inkscape-stroke:none;marker:none;stop-color:#000000;stop-opacity:1"
         id="circle57"
         cx="12.5"
         cy="5.5"
         r="0.5" /><circle
         style="font-variation-settings:normal;opacity:1;vector-effect:none;fill:#ffffff;fill-opacity:1;stroke:none;stroke-width:0.1;stroke-linecap:butt;stroke-linejoin:miter;stroke-miterlimit:4;stroke-dasharray:none;stroke-dashoffset:0;stroke-opacity:1;-inkscape-stroke:none;marker:none;stop-color:#000000;stop-opacity:1"
         id="circle58"
         cx="12.5"
         cy="7.5"
         r="0.5" /><circle
         style="font-variation-settings:normal;opacity:1;vector-effect:none;fill:#ffffff;fill-opacity:1;stroke:none;stroke-width:0.1;stroke-linecap:butt;stroke-linejoin:miter;stroke-miterlimit:4;stroke-dasharray:none;stroke-dashoffset:0;stroke-opacity:1;-inkscape-stroke:none;marker:none;stop-color:#000000;stop-opacity:1"
         id="circle59"
         cx="12.5"
         cy="9.5"
         r="0.5" /><path
         style="font-variation-settings:normal;opacity:1;vector-effect:none;fill:#000000;fill-opacity:1;stroke:none;stroke-width:0.1;stroke-linecap:butt;stroke-linejoin:miter;stroke-miterlimit:4;stroke-dasharray:none;stroke-dashoffset:0;stroke-opacity:1;-inkscape-stroke:none;stop-color:#000000;stop-opacity:1"
         d="M 3,11.5 4.1365453,11 H 9 l 1,0.5 v -1 C 9.5,9 9.5,6 10,4.5 v -1 L 8.5,4 h -4 L 3,3.5 v 1 C 3.5,6 3.5,9 3,10.5 Z"
         id="path59"
         sodipodi:nodetypes="ccccccccccccc" /><path
         style="fill:none;fill-opacity:1;stroke:#000000;stroke-width:1;stroke-linecap:round;stroke-linejoin:round;stroke-dasharray:none;stroke-opacity:1"
         d="M 3.5,3.5 4.5,4.2854897 5.5,3.5 6.5,4.2854897 7.5,3.5 8.5,4.2854897 9.5,3.5"
         id="path67"
         sodipodi:nodetypes="ccccccc" /><rect
         style="fill:#ffffff;fill-opacity:1;stroke:none;stroke-width:0.0982677;stroke-linejoin:round;-inkscape-stroke:none"
         id="rect59"
         width="8"
         height="1"
         x="2.5"
         y="4"
         rx="0.12928589"
         ry="6.4942169e-06" /><path
         style="fill:none;fill-opacity:1;stroke:#000000;stroke-width:1;stroke-linecap:round;stroke-linejoin:round;stroke-dasharray:none;stroke-opacity:1"
         d="m 3.5,11.5 1,-0.78549 1,0.78549 1,-0.78549 1,0.78549 1,-0.78549 1,0.78549"
         id="path68"
         sodipodi:nodetypes="ccccccc" /><rect
         style="fill:#ffffff;fill-opacity:1;stroke:none;stroke-width:0.0982677;stroke-linejoin:round;-inkscape-stroke:none"
         id="rect60"
         width="8"
         height="1"
         x="2.5"
         y="10"
         rx="0.12928589"
         ry="6.4942169e-06" /><g
         style="fill-rule:evenodd"
         id="g1"
         transform="translate(15.5,-1)"><path
           d="M 8,2.5 C 4.4101,2.5 1.5,5.4101 1.5,9 V 9.5 C 1.5,9.7761 1.7239,10 2,10 h 4 v 4 c 0,1.1046 0.8954,2 2,2 v 0 c 1.1046,0 2,-0.8954 2,-2 v -4 h 4 c 0.2761,0 0.5,-0.2239 0.5,-0.5 V 9 C 14.5,5.4101 11.5899,2.5 8,2.5 Z m -3,3 a 1,1 0 0 1 0,2 1,1 0 0 1 0,-2 z M 11,6 A 0.75,0.75 0 0 1 11,7.5 0.75,0.75 0 0 1 11,6 Z"
           id="path1" /></g></g><g
       id="bee_v1"><rect
         style="fill:#ff0000;fill-opacity:0.1;stroke:none;stroke-width:1;stroke-linecap:round;stroke-linejoin:round;stroke-dasharray:none;stroke-opacity:1"
         id="rect27"
         width="16"
         height="16"
         x="96"
         y="0"
         rx="0.12928589"
         ry="6.4942169e-06" /><path
         style="fill:none;stroke:#000000;stroke-width:1;stroke-linecap:round;stroke-linejoin:round;stroke-dasharray:none;stroke-opacity:1"
         d="m 100.5,1.2499805 c 1,0 2,1 2,2"
         id="path16"
         sodipodi:nodetypes="cc" /><path
         style="fill:none;stroke:#000000;stroke-width:1;stroke-linecap:round;stroke-linejoin:round;stroke-dasharray:none;stroke-opacity:1"
         d="m 106.5,1.5 c -1,0 -2,1 -2,2"
         id="path17"
         sodipodi:nodetypes="cc" /><circle
         style="fill:#000000;fill-opacity:1;stroke:#000000;stroke-width:1;stroke-linecap:round;stroke-linejoin:round;stroke-dasharray:none;stroke-opacity:1"
         id="circle17"
         cx="103.5"
         cy="5"
         r="2" /><path
         style="fill:#000000;fill-opacity:1;stroke:#000000;stroke-width:1;stroke-linecap:round;stroke-linejoin:round;stroke-dasharray:none;stroke-opacity:1"
         d="m 100.5,10 c 0,2.5 3,2.5 3,4.5 0,-2 3,-2 3,-4.5 l -3,-4 z"
         id="path18"
         sodipodi:nodetypes="ccccc" /><path
         style="fill:#0000ff;fill-opacity:1;stroke:#ffffff;stroke-width:1;stroke-linecap:round;stroke-linejoin:round;stroke-dasharray:none;stroke-opacity:1"
         d="m 100.5,7.5 h 6"
         id="path19" /><path
         style="fill:#0000ff;fill-opacity:1;stroke:#ffffff;stroke-width:1;stroke-linecap:round;stroke-linejoin:round;stroke-dasharray:none;stroke-opacity:1"
         d="m 100.5,9.5 h 6"
         id="path20" /><path
         style="fill:#000000;fill-opacity:1;stroke:#000000;stroke-width:1;stroke-linecap:round;stroke-linejoin:round;stroke-dasharray:none;stroke-opacity:1"
         d="m 104.5,6.4999998 c 3,0 4,2.4999999 4,3.5000002 0,1 -0.5,1.5 -1.5,1.5 -1,0 -2.5,-1.9999998 -2.5,-5.0000002 z"
         id="path22"
         sodipodi:nodetypes="cssc" /><path
         style="fill:#000000;fill-opacity:1;stroke:#000000;stroke-width:1;stroke-linecap:round;stroke-linejoin:round;stroke-dasharray:none;stroke-opacity:1"
         d="m 102.5,6.4999995 c -3,0 -4,2.4999998 -4,3.5000003 C 98.5,11 99,11.5 100,11.5 c 1,0 2.5,-2 2.5,-5.0000005 z"
         id="path23"
         sodipodi:nodetypes="cssc" /></g><g
       id="bee_v999"><rect
         style="fill:#ff0000;fill-opacity:0.1;stroke:none;stroke-width:1;stroke-linecap:round;stroke-linejoin:round;stroke-dasharray:none;stroke-opacity:1"
         id="rect26"
         width="16"
         height="16"
         x="80"
         y="0"
         rx="0.12928589"
         ry="6.4942169e-06" /><path
         style="fill:#000000;fill-opacity:1;stroke:#000000;stroke-width:1;stroke-linecap:round;stroke-linejoin:round;stroke-dasharray:none;stroke-opacity:1"
         d="m 84.5,10 c 0,2.5 3,2.5 3,4.5 0,-2 3,-2 3,-4.5 l -3,-4 z"
         id="path28"
         sodipodi:nodetypes="ccccc" /><path
         style="fill:none;stroke:#000000;stroke-width:1;stroke-linecap:round;stroke-linejoin:round;stroke-dasharray:none;stroke-opacity:1"
         d="m 84.5,1.5 c 1,0 2,0.5 2,2"
         id="path8"
         sodipodi:nodetypes="cc" /><path
         style="fill:none;stroke:#000000;stroke-width:1;stroke-linecap:round;stroke-linejoin:round;stroke-dasharray:none;stroke-opacity:1"
         d="m 90.5,1.5 c -1,0 -2,0.5 -2,2"
         id="path9"
         sodipodi:nodetypes="cc" /><circle
         style="fill:#000000;fill-opacity:1;stroke:#000000;stroke-width:1;stroke-linecap:round;stroke-linejoin:round;stroke-dasharray:none;stroke-opacity:1"
         id="circle9"
         cx="87.5"
         cy="5"
         r="2" /><path
         style="fill:#0000ff;fill-opacity:1;stroke:#ffffff;stroke-width:1;stroke-linecap:round;stroke-linejoin:round;stroke-dasharray:none;stroke-opacity:1"
         d="m 84.5,8.5 h 6"
         id="path13" /><path
         style="fill:#0000ff;fill-opacity:1;stroke:#ffffff;stroke-width:1;stroke-linecap:round;stroke-linejoin:round;stroke-dasharray:none;stroke-opacity:1"
         d="m 84.5,10.5 h 6"
         id="path14" /><path
         style="fill:#000000;fill-opacity:1;stroke:#000000;stroke-width:1;stroke-linecap:round;stroke-linejoin:round;stroke-dasharray:none;stroke-opacity:1"
         d="m 88.5,6.4999998 c 3,0 4,2.4999999 4,3.5000002 0,1 -0.5,1.5 -1.5,1.5 -1,0 -2.5,-1.9999998 -2.5,-5.0000002 z"
         id="path12"
         sodipodi:nodetypes="cssc" /><path
         style="fill:#000000;fill-opacity:1;stroke:#000000;stroke-width:1;stroke-linecap:round;stroke-linejoin:round;stroke-dasharray:none;stroke-opacity:1"
         d="m 86.5,6.4999995 c -3,0 -4,2.4999998 -4,3.5000003 C 82.5,11 83,11.5 84,11.5 c 1,0 2.5,-2 2.5,-5.0000005 z"
         id="path10"
         sodipodi:nodetypes="cssc" /><rect
         style="fill:#ffffff;fill-opacity:1;stroke:none;stroke-width:1;stroke-linecap:round;stroke-linejoin:round;stroke-dasharray:none;stroke-opacity:1"
         id="rect25"
         width="1"
         height="1"
         x="87"
         y="6"
         rx="0.12928589"
         ry="6.4942169e-06" /></g></g></svg>
